<?xml version="1.0" encoding="utf-8"?>
<!-- Generator: Adobe Illustrator 16.0.4, SVG Export Plug-In . SVG Version: 6.00 Build 0)  -->
<!DOCTYPE svg PUBLIC "-//W3C//DTD SVG 1.1//EN" "http://www.w3.org/Graphics/SVG/1.1/DTD/svg11.dtd" [
	<!ENTITY ns_flows "http://ns.adobe.com/Flows/1.0/">
	<!ENTITY ns_extend "http://ns.adobe.com/Extensibility/1.0/">
	<!ENTITY ns_ai "http://ns.adobe.com/AdobeIllustrator/10.0/">
	<!ENTITY ns_graphs "http://ns.adobe.com/Graphs/1.0/">
]>
<svg version="1.1" id="Ebene_1" xmlns:x="&ns_extend;" xmlns:i="&ns_ai;" xmlns:graph="&ns_graphs;"
	 xmlns="http://www.w3.org/2000/svg" xmlns:xlink="http://www.w3.org/1999/xlink" xmlns:a="http://ns.adobe.com/AdobeSVGViewerExtensions/3.0/"
	 x="0px" y="0px" width="33.8px" height="53px" viewBox="0 0 33.8 53" style="enable-background:new 0 0 33.8 53;"
	 xml:space="preserve">
<style type="text/css">
<![CDATA[
	.st0{fill-rule:evenodd;clip-rule:evenodd;fill:#1A1A18;}
	.st1{fill:#FBCDAA;}
	.st2{fill-rule:evenodd;clip-rule:evenodd;fill:#FBCDAA;}
	.st3{fill:#0068B4;}
	.st4{fill-rule:evenodd;clip-rule:evenodd;fill:#FFFFFF;}
	.st5{fill-rule:evenodd;clip-rule:evenodd;fill:#0068B4;}
]]>
</style>
<path class="st0" d="M0.47,25.26l0.8-0.53l1.12-0.56l1.96-2.58l1.5-2.04l1.39-2.05c0,0-0.14-0.23-0.15-0.3
	c-0.01-0.07,0.24-0.4,0.56-0.91c0.32-0.52,0.96-1.5,1.31-2.1s0.93-1.5,1.36-2.11s1.06-1.46,1.22-1.66s0.42-0.37,0.59-0.52
	s0.7-0.31,0.92-0.39s0.78-0.25,0.89-0.31s0.27-0.08,0.27-0.08l-0.03-0.26c0,0-0.09,0.01-0.3,0.06s-0.41,0.02-0.59-0.02
	s-0.33-0.2-0.41-0.41s-0.05-0.4-0.06-0.59s-0.07-0.51-0.19-0.83s-0.34-0.64-0.36-0.97c-0.01-0.21,0.11-0.5,0.11-0.78
	s-0.13-0.35-0.18-0.5c-0.04-0.15,0.02-0.34,0.02-0.34s-0.02-0.05-0.05-0.14s0.01-0.48,0.07-0.59s-0.13-0.7-0.13-0.7l0.02-0.87
	l0.57-0.44l0.19-0.43l0.84-0.03l0.12-0.33l0.99-0.36l0.83-0.03l1.68,0.5L17.6,1.4l0.35-0.05l0.68,0.92l0.72,1.18l0.12,0.27
	L19.3,3.82l-0.14,0.39l0.26,0.6l-0.4,0.37l-0.04,0.64L18.8,6.44l-0.29,0.61l0.17,0.36l-0.23,0.1l-0.5,0.68l0.12,0.27l0.42,0.09
	l1,0.19c0,0,0.92,0.16,1.25,0.26s1,0.54,1.28,0.81s0.61,0.69,0.82,1.05c0.21,0.36,0.82,1.38,1.01,1.75s0.5,1.01,0.66,1.38
	s1.08,2.44,1.08,2.44l-0.05,0.12l-0.12,0.11l0.75,1.81l0.7,1.05l1.69,2.34l1.69,2.13l0.6,0.75l0.67,0.42l0.77,0.89l0.96,1.05
	c0,0,0.31,0.5,0.29,0.65s-0.06,0.28-0.1,0.31c-0.04,0.03-0.3,0.11-0.38,0.16c-0.07,0.05-0.18,0.1-0.26,0.13
	c-0.08,0.03-0.26-0.05-0.26-0.05s-0.06,0.14-0.28,0.1c-0.23-0.04-0.91-0.54-0.91-0.54l-1.1-0.66c0,0-0.43-0.29-0.56-0.44
	S29.35,26,29.35,26l-0.82-0.87l-1.15-1.01l-1.55-1.48l-1.38-1.29l-0.78-1.08l-0.83-1.34l-0.44-0.72l-0.32,0.04l0.33,1.02l0.82,2.31
	c0,0,0.12,0.41,0.12,0.56c-0.01,0.15-0.07,0.33-0.07,0.33s0.16,0.12,0.27,0.31c0.11,0.18,0.21,0.63,0.19,0.72
	c-0.02,0.09,0.06,0.36,0.2,0.47c0.14,0.11,0.38,0.31,0.48,0.45c0.11,0.14,0.78,1.14,1.06,1.56s0.88,1.36,1.16,1.78
	s0.45,0.71,0.62,0.96c0.17,0.25,0.98,1.45,1.27,1.88c0.29,0.43,0.76,1.25,0.82,1.33c0.06,0.09,0.11,0.18,0.12,0.27
	s-0.23,0.25-0.23,0.25s0.72,1.17,0.85,1.61c0.13,0.44,0.2,1.06,0.18,1.22c-0.02,0.16-0.19,0.41-0.3,0.56
	c-0.12,0.15-0.62,0.64-0.62,0.64l-0.35,0.33l-0.04,0.27c0,0,0.22,0.69,0.34,0.94c0.12,0.25,0.45,0.72,0.45,0.72s0.48,0.69,0.75,1.08
	c0.22,0.32,0.38,0.6,0.45,0.9s0.05,0.71,0.04,0.92c-0.01,0.22,0,0.37-0.09,0.64c-0.09,0.27-0.27,0.46-0.43,0.58
	c-0.16,0.11-0.47,0.22-0.82,0.24c-0.35,0.02-0.51-0.03-0.72-0.11c-0.21-0.08-0.33-0.21-0.55-0.43c-0.22-0.22-0.39-0.4-0.6-0.74
	c-0.21-0.34-0.53-0.74-0.85-1.2c-0.32-0.46-1.03-1.23-1.03-1.23s-0.33-0.39-0.54-0.56c-0.22-0.17-0.47-0.3-0.75-0.61
	s-0.39-0.5-0.53-0.88c-0.16-0.44-0.24-0.8-0.19-1.2c0.06-0.44,0.28-0.66,0.48-0.83c0.21-0.17,0.42-0.29,0.42-0.29l-0.01-0.23
	l-0.18-0.13c0,0-0.26,0.06-0.34,0.08c-0.27,0.05-0.46,0.06-0.59,0.02s-0.95-1.36-0.95-1.36s0.06,0.4,0.09,0.65s0.11,0.74,0.17,1.11
	c0.06,0.37,0.25,1.44,0.21,1.49c-0.05,0.05-0.47,0.09-0.49,0.16c-0.03,0.12,0,0.36,0.04,0.88c0.03,0.37,0.12,0.7,0.12,0.7l0.16,0.17
	c0,0,0.72,0.62,0.86,0.95c0.13,0.33,0.25,1.11,0.32,1.21c0.07,0.09,0.46,0.74,0.64,1.15c0.18,0.41,0.89,2.39,1.1,2.97s1,2.65,1,2.65
	s0.47,0.56,0.57,0.66c0.1,0.1,0.41,0.48,0.51,0.62s0.62,1.47,0.67,1.71c0.05,0.24,0.15,0.64,0.08,0.76
	c-0.07,0.12-0.35,0.31-0.35,0.31s-0.01,0.24-0.03,0.31c-0.02,0.07-0.18,0.11-0.25,0.12c-0.07,0.01-0.12-0.11-0.12-0.11l-0.48,0.2
	l-0.4,0.11c0,0-0.04,0.13-0.09,0.17s-0.26,0.02-0.34,0s-0.15-0.18-0.15-0.18l-0.58-0.18c0,0-0.05,0.15-0.12,0.15
	c-0.07,0-0.16,0.02-0.28-0.03s-0.19-0.23-0.19-0.23s-0.19-0.05-0.42-0.13s-0.48-0.27-0.48-0.27s-0.04,0.12-0.11,0.11
	c-0.07-0.01-0.26-0.06-0.31-0.12c-0.05-0.07-0.05-0.31-0.05-0.31s-0.26-0.16-0.38-0.28s-0.27-0.66-0.28-0.87
	c-0.02-0.21,0.27-0.5,0.36-0.55c0.09-0.05,0.38-0.13,0.49-0.16c0.1-0.03,0.57-0.17,0.57-0.17l-0.25-0.54c0,0-0.62-1-1.23-1.95
	c-0.64-1-1.21-1.93-1.34-2.11c-0.25-0.35-1.01-1.85-1.27-2.33c-0.26-0.48-0.38-0.48-0.57-0.94c-0.19-0.46-0.22-1.24-0.22-1.24
	s-0.29-0.61-0.47-0.85c-0.15-0.2-0.66-0.58-0.9-0.9s-0.56-0.68-0.56-0.68s-0.72,0.07-0.98,0.05s-0.88-0.25-0.94-0.34
	c-0.06-0.09-0.05-1.88-0.05-2.42s-0.06-1.3-0.16-2.05s-0.38-2.33-0.48-3.05s-0.34-1.95-0.38-2.5c-0.03-0.55-0.06-1.02-0.04-1.09
	s0.08-0.16-0.04-0.21s-0.27-0.21-0.3-0.53s0.15-0.6,0.15-0.6s-0.16,0-0.33-0.23s-0.38-0.88-0.56-1.59
	c-0.18-0.72-0.41-1.81-0.62-2.62s-0.24-0.93-0.4-1.51s-0.39-1.1-0.39-1.1l-0.22,0.28c0,0-0.16,0.23-0.31,0.47s-1.08,1.46-1.19,1.55
	s-0.37-0.1-0.25,0S9.8,19.68,9.8,19.68l-0.25,0.2l-0.78,0.64l-1.91,1.87l-1.88,1.83L4.08,25l-0.39,0.37l-0.18,0.32l-0.28,0.41
	l-0.31,0.27l-0.61,0.17L2.12,26.6l0.15,0.21l-0.12,0.32l-0.58,0.18l-0.25,0.01l-0.59-0.13l-0.3-0.36l-0.18-0.62L0.47,25.26z"/>
<path id="skin-leg-r" class="st2" d="M29.52,35.35c0,0-0.78-0.6-1.02-0.7s-0.64-0.25-0.64-0.25s-0.06-0.32-0.09-0.4
	c-0.02-0.05-0.03-0.09-0.15-0.04c-0.12,0.05-0.57,0.24-0.65,0.26c-0.09,0.01-1.24-0.01-1.24-0.01s1.37-0.52,1.72-0.66
	s0.55-0.25,0.77-0.38s0.62-0.39,0.62-0.39s0.05,0.08,0.18,0.31s0.49,0.77,0.63,1.11s0.16,0.79,0.11,0.94
	C29.7,35.27,29.52,35.35,29.52,35.35z"/>
<path class="st4" d="M30.21,40.89l-0.29,0.02l-0.28,0.16l0.03,0.43l0.72,0.1c0,0,0.01,0.4-0.11,0.58c-0.12,0.18-0.01,0.18-0.27,0.3
	c-0.26,0.12-0.65,0.07-0.86,0.05s-0.46-0.22-0.6-0.39c-0.14-0.17-0.62-0.82-0.79-1.1c-0.17-0.28-0.96-1.66-0.96-1.66l-0.14,0.01
	l1.22-1.22c0,0,1.82,1.53,1.97,1.74c0.15,0.21,0.43,0.54,0.47,0.69s0.03,0.43,0.03,0.43L30.21,40.89L30.21,40.89z"/>
<path id="player-sock-r" class="st5" d="M28.49,36.26c-0.1,0.04-0.22-0.01-0.29,0.02c-0.06,0.03-0.69-0.56-1.02-0.77
	c-0.33-0.2-1.35-0.47-1.36-0.52c-0.01-0.05,0.19-0.3,0.27-0.3c0.08,0,0.59-0.1,0.86-0.05c0.26,0.05,0.94,0.23,1.32,0.49
	c0.38,0.26,0.88,0.56,0.83,0.62s-0.58,0.17-0.63,0.23c-0.05,0.05,0.01,0.14,0.01,0.14S28.59,36.23,28.49,36.26z"/>
<polygon class="st4" points="26.9,38.37 26.22,38.99 26.07,38.85 26.33,38.41 27.56,37.47 27.7,37.46 27.71,37.6 26.9,38.37 "/>
<path class="st4" d="M26.01,37.94c-0.15,0.12-0.24,0.31-0.35,0.37s-0.3,0.08-0.3,0.08s-0.49-0.39-0.73-0.77
	c-0.32-0.51-0.19-1.34-0.09-1.49c0.1-0.15,0.2-0.35,0.38-0.43c0.18-0.08,0.46-0.11,0.68-0.04c0.22,0.07,0.94,0.44,1.13,0.61
	s0.54,0.55,0.45,0.65S26.01,37.94,26.01,37.94S26.15,37.82,26.01,37.94z"/>
<polygon id="skin-leg-l" class="st1" points="20.8,37.24 22.21,36.93 22.24,37.29 22.32,38.27 22.39,38.69 21.4,39.21
	20.41,39.4 20.26,39.61 19.87,38.97 19.14,38.23 18.6,37.56 19.89,37.38 "/>
<polygon class="st0" points="20.42,38.54 20.76,38.58 21.23,38.54 21.45,38.23 21.22,38.22 20.97,38.31 20.67,38.37 "/>
<path id="player-sock-l" class="st3" d="M23.35,40.58c-0.01,0.16-0.23,0.17-0.29,0.26c-0.05,0.09,0.04,0.2,0.12,0.25
	s0.2,0.02,0.41,0.18c0.21,0.16,0.42,0.37,0.64,0.77S25,43.75,25,43.75s1.09,3.03,1.19,3.28s0.38,0.95,0.36,1s-0.34,0.08-0.43,0.18
	c-0.08,0.1-0.22,0.88-0.28,0.94s-0.42-0.02-0.49-0.06c-0.07-0.04-0.33-0.72-0.33-0.72S24.16,47,23.7,46.31s-1.49-2.36-1.73-2.77
	s-0.84-1.58-0.87-1.75c-0.03-0.17,0.18-0.46,0.12-0.51s-0.34,0.05-0.45,0.04c-0.1-0.01-0.26-0.35-0.31-0.53
	c-0.06-0.18-0.01-0.29,0.05-0.52c0.06-0.23,0.13-0.33,0.26-0.37c0.13-0.04,0.54-0.08,0.75-0.16c0.21-0.07,0.42-0.16,0.59-0.25
	c0.18-0.09,0.41-0.3,0.53-0.28c0.12,0.02,0.51,0.39,0.61,0.61C23.36,40.05,23.36,40.42,23.35,40.58z"/>
<polygon class="st4" points="27.22,51.92 27.71,51.62 27.48,51.93 27.22,51.92 "/>
<path id="skin-arm-r" class="st2" d="M32.58,26.99l0.48,0.64c0,0,0.04,0.06,0.03,0.12c-0.02,0.05-0.13-0.01-0.13-0.01l-0.66-0.59
	l-0.06,0.12l0.61,0.58c0,0,0,0.04-0.06,0.08c-0.07,0.04-0.13-0.05-0.13-0.05l-0.63-0.45l-0.16,0.05l0.52,0.44
	c0,0,0.03,0.04-0.05,0.06c-0.08,0.02-0.44-0.21-0.44-0.21l-0.57-0.39l-0.31-0.21l-0.22-0.12c0,0-0.4-0.23-0.53-0.36
	c-0.13-0.13-0.23-0.4-0.23-0.4l-0.19-0.45l-0.24-0.23l-1.99-1.96l-2.39-2.17l-0.38-0.45l-0.66-0.83l-0.41-0.66h0.59l0.05-0.27
	l-0.53-0.14l-0.53-0.31l-0.47-0.77l0.66-0.33L24,17.49l0.79-0.41l0.23-0.12l0.43,0.99l0.25,0.82l1.79,2.29l2.88,3.8l0.28,0.3
	l0.39,0.19l0.41,0.36l0.39,0.48l0.35,0.4L32.58,26.99z"/>
<path id="player-jersey" class="st5" d="M22.71,17.49l-0.84,0.17l-0.22-0.44l-0.78-1.55l-0.23-0.63l-0.12-0.42
	c0,0-0.2-0.29-0.36-0.19s-0.1,0.24-0.05,0.43s0.14,0.54,0.14,0.54l0.44,0.89l0.81,1.67c0,0,0.61,1.79,0.67,1.98
	c0.06,0.19,0.72,2.01,0.69,2.15s-0.05,0.25-0.22,0.38s-0.82,0.41-0.82,0.41l-1.17,0.48c0,0-1.39,0.57-1.83,0.7s-1.69,0.28-1.98,0.33
	c-0.3,0.05-0.52,0.03-0.71,0.03s-0.39-0.44-0.49-0.61s-0.2-0.77-0.25-0.83s-0.18-0.1-0.18-0.1s-0.06-0.02-0.14,0.04
	c-0.07,0.06-0.09,0.5-0.11,0.64S15,24.43,15,24.43s-0.06-0.01-0.15-0.04s-0.05-0.02-0.16-0.14s-0.35-0.97-0.35-0.97
	s-0.48-2.14-0.66-2.81c-0.17-0.67-0.51-1.89-0.51-1.89l-0.38-1.29c0,0-0.04-0.81-0.02-1.04c0.02-0.23,0.1-0.44,0.15-0.5
	s-0.2-0.28-0.36-0.19s-0.23,0.34-0.27,0.53c-0.03,0.2-0.05,0.56-0.05,0.56s0.06,0.35,0.03,0.44s-0.86,1.34-1.11,1.71
	s-0.5,0.83-0.59,0.85s-1.58-1.27-1.58-1.27s-0.59-0.52-0.83-0.74c-0.09-0.08-0.31-0.27-0.38-0.36c-0.07-0.1,0.05-0.3,0.14-0.47
	c0.23-0.4,0.66-1.12,0.81-1.34c0.22-0.3,2.19-3.53,2.39-3.78s0.7-1.15,1.31-1.48c0.41-0.23,1.79-0.6,1.79-0.6s0.07,0.09,0.17,0.14
	c0.1,0.05,0.22,0.05,0.31,0.05c0.19,0.01,0.44,0.01,0.75-0.03s0.53-0.09,0.94-0.16c0.41-0.07,1-0.15,1.3-0.32
	c0.31-0.17,0.5-0.33,0.5-0.33s1.18,0.18,1.37,0.21s0.69,0.12,1.02,0.23s0.95,0.54,1.16,0.8s0.53,0.63,0.72,0.91s0.89,1.52,1.06,1.84
	s0.84,1.84,0.84,1.84l0.58,1.32l0.04,0.14l-0.64,0.46l-1.16,0.58L22.71,17.49z"/>
<path id="player-shorts" class="st4" d="M28.89,32.1c-0.05,0.1-0.34,0.32-0.62,0.49s-1.03,0.55-1.48,0.74
	c-0.45,0.2-1.04,0.38-1.38,0.49c-0.34,0.11-0.49,0.18-0.82,0.27s-0.68,0.14-0.68,0.14l-1.5-2.35l-0.2-0.29c0,0-0.08-0.08-0.16-0.31
	s-0.13-0.31-0.09-0.48c0.03-0.16,0.4-0.45,0.56-0.53c0.16-0.09,1.39-0.73,1.42-0.81c0.03-0.09-0.19-0.13-0.3-0.14
	c-0.16-0.01-0.19-0.04-0.34,0.01s-0.49,0.27-0.73,0.41c-0.25,0.13-0.86,0.33-0.97,0.35c-0.11,0.02-0.2-0.34-0.23-0.44
	c-0.06-0.18-0.08-0.27-0.19-0.33c-0.11-0.05-0.34-0.15-0.39-0.09c-0.05,0.05,0.08,0.44,0.01,0.56c-0.06,0.12-0.09,0.21-0.2,0.31
	c-0.11,0.1-0.31,0.15-0.39,0.22c-0.08,0.07-0.17,0.08-0.25,0.11c-0.08,0.02-0.14,0.23-0.11,0.34c0.03,0.12,0.15,0.13,0.25,0.11
	c0.09-0.02,0.19-0.1,0.31-0.12c0.12-0.02,0.67-0.1,0.76-0.06c0.09,0.04,0.17,0.07,0.22,0.14c0.05,0.07,0.14,0.51,0.23,0.72
	c0.09,0.21,0.45,0.73,0.52,0.89c0.06,0.16,0.1,0.83,0.1,0.83l0.41,3c0,0-0.73,0.2-1.1,0.29c-0.36,0.09-1.05,0.22-1.58,0.31
	c-0.66,0.11-1.15,0.17-1.58,0.23c-0.42,0.05-1.09,0.12-1.3,0.13s-0.56-0.12-0.61-0.15s-0.03-0.96-0.05-1.53
	c-0.02-0.57-0.05-1.88-0.13-2.41c-0.08-0.52-0.29-2.05-0.42-2.79s-0.42-2.56-0.46-2.81c-0.03-0.25-0.04-0.52-0.04-0.75
	c0-0.23,0.07-0.51,0.07-0.51s0.06-0.13,0.24-0.22s0.37-0.09,0.54-0.18c0.16-0.09,0.37-0.19,0.44-0.25c0.07-0.06-0.02-0.22-0.21-0.19
	c-0.19,0.03-0.98,0.2-1.08,0.21c-0.09,0.01-0.22-0.1-0.23-0.21c-0.01-0.11,0-0.28,0.09-0.3c0.1-0.02,1.47-0.2,1.9-0.27
	c0.43-0.08,1.49-0.2,1.85-0.31c0.36-0.11,2.91-1.08,3.14-1.21s0.39-0.25,0.51-0.31s0.18-0.09,0.24-0.07
	c0.06,0.02,0.14,0.12,0.21,0.23c0.07,0.11,0.09,0.27,0.07,0.42c-0.02,0.15-0.54,0.28-0.68,0.37s-0.56,0.24-0.65,0.31
	c-0.15,0.1-0.21,0.16-0.23,0.22c-0.02,0.07,0.15,0.22,0.36,0.19s0.88-0.25,1.11-0.29c0.27-0.05,0.44-0.08,0.62,0.04
	c0.07,0.05,0.21,0.12,0.38,0.31c0.25,0.29,0.55,0.74,0.7,0.95c0.25,0.36,1.48,2.25,1.48,2.25s0.74,1.12,1.01,1.53
	s0.71,1.05,0.9,1.37c0.19,0.32,0.62,0.97,0.62,0.97S28.94,32,28.89,32.1z"/>
<path class="st0" d="M18.68,22.88c-0.04,0.15,0.02,0.15-0.1,0.18s-1.31-2.69-1.35-2.92s0.12-0.5,0.11-0.64s-0.7-3.24-0.74-3.41
	s0-0.32,0.1-0.18c0.1,0.14,1.05,3.94,1.18,4.34S18.68,22.88,18.68,22.88S18.72,22.73,18.68,22.88z"/>
<path class="st0" d="M17.74,31.2c-0.18-0.01-0.77-0.27-0.86-0.34c-0.1-0.07-0.18-0.5-0.17-0.55c0.01-0.05,0.08-0.05,0.14-0.04
	s0.59,0.41,0.9,0.48c0.31,0.07,0.71-0.01,0.78,0.06c0.06,0.07,0.03,0.25-0.05,0.32C18.39,31.19,17.74,31.2,17.74,31.2
	S17.92,31.21,17.74,31.2z"/>
<polygon id="skin-arm-l" class="st2" points="8.07,19.81 8.19,20.07 8.35,20.17 7.92,20.77 6.47,22.23 3.74,24.81 3.31,25.15
	3.14,25.46 2.71,25.89 2.22,26.04 1.88,25.97 1.53,25.91 1.3,26.11 1.18,26.42 1.67,26.74 1.67,26.88 0.94,26.73 0.74,26.2 
	0.89,25.52 1.59,25.01 2.2,24.69 2.74,24.33 5.82,20.35 6.93,18.8 7.6,17.82 8.6,18.76 9.42,19.46 8.93,19.77 8.7,19.77 8.17,19.51 
	"/>
<path id="skin-face" class="st2" d="M14.38,5.61c-0.08-0.12-0.56-0.17-0.64-0.25s-0.16-0.22-0.2-0.32s0-0.34-0.05-0.42
	s-0.17-0.24-0.17-0.24s-0.22-0.17-0.33-0.29s-0.2-0.24-0.26-0.23c-0.06,0.02-0.16-0.01-0.21,0.06s-0.1,0.19-0.07,0.27
	c0.02,0.08,0.08,0.19,0.08,0.19s0.15,0.07,0.15,0.16s-0.01,0.34-0.01,0.34s0.1,0.37,0.09,0.46s-0.1,0.48-0.12,0.55
	s-0.08,0.21-0.02,0.34c0.06,0.13,0.29,0.61,0.36,0.79s0.19,0.8,0.21,0.97s0.05,0.41,0.06,0.45s0.02,0.1,0.12,0.12s0.32,0.06,0.48,0
	s0.42-0.35,0.47-0.32s0.17,0.15,0.22,0.25s0.25,0.9,0.25,0.9s0.36,0.02,0.59,0s1.12-0.19,1.5-0.27c0.25-0.05,0.52-0.18,0.58-0.2
	c0.13-0.05,0.2-0.14,0.2-0.14l-0.21-0.49c0,0-0.09-0.14-0.17-0.09s-0.15,0.24-0.15,0.24s-0.23-0.19-0.27-0.19s-0.66,0.22-0.79,0.22
	c-0.12,0-0.31-0.07-0.4-0.13s-0.98-1.14-1.06-1.32S14.46,5.73,14.38,5.61z"/>
<path class="st0" d="M29.08,40.76c-0.07-0.08-0.1-0.36-0.01-0.43c0.09-0.07,0.37-0.1,0.43-0.01s0.05,0.22,0.01,0.29
	s-0.22,0.18-0.14,0.15S29.14,40.84,29.08,40.76z"/>
<path class="st0" d="M29.26,42.18c0,0-0.24,0.07-0.32-0.05c-0.08-0.11,0.02-0.38,0.02-0.38s0.21-0.16,0.28-0.15
	c0.08,0.01,0.29,0.16,0.3,0.34S29.26,42.18,29.26,42.18L29.26,42.18z"/>
<path class="st0" d="M28.62,40.05c-0.08-0.03-0.15-0.14-0.15-0.14s-0.03-0.21,0.07-0.26c0.1-0.05,0.31-0.06,0.35-0.04
	c0.04,0.03,0.15,0.14,0.15,0.14s-0.03,0.22-0.13,0.29C28.81,40.12,28.71,40.09,28.62,40.05z"/>
<path class="st0" d="M28.38,41.49c0.09,0.04-0.17-0.09-0.21-0.13c-0.04-0.04-0.02-0.21,0.06-0.29s0.35-0.08,0.43-0.01
	c0.08,0.07,0.13,0.37,0.01,0.43C28.55,41.55,28.3,41.45,28.38,41.49z"/>
<path class="st0" d="M27.69,40.2c0.07-0.05,0.38-0.05,0.43-0.01s0.08,0.37,0.01,0.43s-0.39,0.1-0.43,0.01
	C27.66,40.54,27.62,40.26,27.69,40.2z"/>
<path class="st0" d="M25.93,36.94c-0.13-0.08-0.14-0.44,0.01-0.54s0.33-0.03,0.45,0.07c0.12,0.09,0.07,0.44-0.01,0.5
	S26.06,37.03,25.93,36.94z"/>
<path class="st0" d="M25.34,36.37c-0.07-0.07-0.24-0.32-0.14-0.37c0.1-0.05,0.44-0.12,0.57-0.02s0.03,0.35-0.04,0.39
	S25.42,36.44,25.34,36.37z"/>
<path class="st0" d="M25.09,37c0,0-0.17,0.1-0.29,0.01c-0.12-0.09-0.17-0.49-0.02-0.57c0.16-0.09,0.16-0.14,0.29-0.01
	s0.16,0.71,0.16,0.71s0.32-0.12,0.43-0.01c0.11,0.1,0.09,0.38,0.01,0.43c-0.08,0.05-0.34,0.06-0.43,0.01S25.09,37,25.09,37z"/>
<path id="hair" class="st0" d="M18.65,4.89l0,0.7l-0.16,0.62l-0.37,0.73l0.15,0.3l-0.21,0.09l-0.25,0.36l-0.15,0.19
	c-0.07,0.01-0.38-0.14-0.38-0.14l-0.17,0.22c0,0-0.2-0.11-0.29-0.11c-0.08,0-0.56,0.2-0.65,0.23c-0.09,0.03-0.34-0.13-0.44-0.2
	c-0.15-0.09-0.68-0.9-0.78-1.06c-0.11-0.16-0.15-1.36-0.25-1.47c-0.1-0.1-0.62-0.17-0.72-0.23c-0.1-0.06-0.11-0.3-0.11-0.41
	c0-0.1-0.06-0.24-0.12-0.32c-0.06-0.09-0.09-0.16-0.18-0.25C13.48,4.05,13.34,4,13.25,3.93c-0.1-0.07-0.25-0.25-0.29-0.28
	c-0.13-0.1-0.25-0.16-0.38-0.11c-0.08,0.03-0.05-0.07-0.09-0.23c-0.05-0.19-0.04-0.23-0.08-0.29s0.01-0.6,0.01-0.6l0.5-0.38
	L13.1,1.7l0.89-0.04l0.11-0.35l0.82-0.34l0.74-0.03l1.51,0.47l0.31,0.36l0.31-0.05l0.52,0.76l0.61,0.89l0.12,0.22l-0.16,0.09
	l-0.1,0.46l0.24,0.5L18.65,4.89z"/>
</svg>
