<?xml version="1.0" encoding="utf-8"?>
<!-- Generator: Adobe Illustrator 16.0.4, SVG Export Plug-In . SVG Version: 6.00 Build 0)  -->
<!DOCTYPE svg PUBLIC "-//W3C//DTD SVG 1.1//EN" "http://www.w3.org/Graphics/SVG/1.1/DTD/svg11.dtd" [
	<!ENTITY ns_flows "http://ns.adobe.com/Flows/1.0/">
	<!ENTITY ns_extend "http://ns.adobe.com/Extensibility/1.0/">
	<!ENTITY ns_ai "http://ns.adobe.com/AdobeIllustrator/10.0/">
	<!ENTITY ns_graphs "http://ns.adobe.com/Graphs/1.0/">
]>
<svg version="1.1" id="Ebene_1" xmlns:x="&ns_extend;" xmlns:i="&ns_ai;" xmlns:graph="&ns_graphs;"
	 xmlns="http://www.w3.org/2000/svg" xmlns:xlink="http://www.w3.org/1999/xlink" xmlns:a="http://ns.adobe.com/AdobeSVGViewerExtensions/3.0/"
	 x="0px" y="0px" width="33.8px" height="53px" viewBox="0 0 33.8 53" style="enable-background:new 0 0 33.8 53;"
	 xml:space="preserve">
<style type="text/css">
<![CDATA[
	.st0{fill-rule:evenodd;clip-rule:evenodd;fill:#1A1A18;}
	.st1{fill:#FBCDAA;}
	.st2{fill-rule:evenodd;clip-rule:evenodd;fill:#FBCDAA;}
	.st3{fill:#0068B4;}
	.st4{fill-rule:evenodd;clip-rule:evenodd;fill:#FFFFFF;}
	.st5{fill-rule:evenodd;clip-rule:evenodd;fill:#0068B4;}
]]>
</style>
<path class="st0" d="M33.33,25.26l-0.8-0.53l-1.12-0.56l-1.96-2.58l-1.5-2.04l-1.39-2.05c0,0,0.14-0.23,0.15-0.3
	c0.01-0.07-0.24-0.4-0.56-0.91c-0.32-0.52-0.96-1.5-1.31-2.1s-0.93-1.5-1.36-2.11s-1.06-1.46-1.22-1.66s-0.42-0.37-0.59-0.52
	s-0.7-0.31-0.92-0.39s-0.78-0.25-0.89-0.31s-0.27-0.08-0.27-0.08l0.03-0.26c0,0,0.09,0.01,0.3,0.06s0.41,0.02,0.59-0.02
	s0.33-0.2,0.41-0.41s0.05-0.4,0.06-0.59s0.07-0.51,0.19-0.83s0.34-0.64,0.36-0.97c0.01-0.21-0.11-0.5-0.11-0.78s0.13-0.35,0.18-0.5
	c0.04-0.15-0.02-0.34-0.02-0.34s0.02-0.05,0.05-0.14s-0.01-0.48-0.07-0.59s0.13-0.7,0.13-0.7L21.67,2.2L21.1,1.75l-0.19-0.43
	l-0.84-0.03l-0.12-0.33l-0.99-0.36l-0.83-0.03l-1.68,0.5L16.2,1.4l-0.35-0.05l-0.68,0.92l-0.72,1.18l-0.12,0.27l0.18,0.11l0.14,0.39
	l-0.26,0.6l0.4,0.37l0.04,0.64L15,6.44l0.29,0.61l-0.17,0.36l0.23,0.1l0.5,0.68l-0.12,0.27l-0.42,0.09l-1,0.19
	c0,0-0.92,0.16-1.25,0.26s-1,0.54-1.28,0.81s-0.61,0.69-0.82,1.05s-0.82,1.38-1.01,1.75s-0.5,1.01-0.66,1.38s-1.08,2.44-1.08,2.44
	l0.05,0.12l0.12,0.11l-0.75,1.81l-0.7,1.05l-1.69,2.34l-1.69,2.13l-0.6,0.75l-0.67,0.42l-0.77,0.89l-0.96,1.05
	c0,0-0.31,0.5-0.29,0.65s0.06,0.28,0.1,0.31c0.04,0.03,0.3,0.11,0.38,0.16c0.07,0.05,0.18,0.1,0.26,0.13
	c0.08,0.03,0.26-0.05,0.26-0.05s0.06,0.14,0.28,0.1s0.91-0.54,0.91-0.54l1.1-0.66c0,0,0.43-0.29,0.56-0.44S4.44,26,4.44,26
	l0.82-0.87l1.15-1.01l1.55-1.48l1.38-1.29l0.78-1.08l0.83-1.34l0.44-0.72l0.32,0.04l-0.33,1.02l-0.82,2.31c0,0-0.12,0.41-0.12,0.56
	s0.07,0.33,0.07,0.33s-0.16,0.12-0.27,0.31s-0.21,0.63-0.19,0.72s-0.06,0.36-0.2,0.47s-0.38,0.31-0.49,0.45s-0.78,1.14-1.06,1.56
	s-0.88,1.36-1.16,1.78s-0.45,0.71-0.62,0.96c-0.17,0.25-0.98,1.45-1.27,1.88c-0.29,0.43-0.76,1.25-0.82,1.33
	c-0.06,0.09-0.11,0.18-0.12,0.27s0.23,0.25,0.23,0.25s-0.72,1.17-0.85,1.61c-0.13,0.44-0.2,1.06-0.18,1.22
	c0.02,0.16,0.19,0.41,0.3,0.56s0.62,0.64,0.62,0.64l0.35,0.33l0.04,0.27c0,0-0.22,0.69-0.34,0.94c-0.12,0.25-0.45,0.72-0.45,0.72
	s-0.48,0.69-0.75,1.08c-0.22,0.32-0.38,0.6-0.45,0.9s-0.05,0.71-0.04,0.92c0.01,0.22,0,0.37,0.09,0.64
	c0.09,0.27,0.27,0.46,0.43,0.58c0.16,0.11,0.47,0.22,0.82,0.24s0.51-0.03,0.72-0.11s0.33-0.21,0.55-0.43
	c0.22-0.22,0.39-0.4,0.6-0.74s0.53-0.74,0.85-1.2c0.32-0.46,1.03-1.23,1.03-1.23s0.33-0.39,0.55-0.56c0.22-0.17,0.47-0.3,0.75-0.61
	s0.39-0.5,0.53-0.88c0.16-0.44,0.24-0.8,0.19-1.2c-0.06-0.44-0.28-0.66-0.48-0.83S9,35.04,9,35.04l0.01-0.23l0.18-0.13
	c0,0,0.26,0.06,0.34,0.08c0.27,0.05,0.47,0.06,0.59,0.02s0.95-1.36,0.95-1.36s-0.06,0.4-0.09,0.65s-0.11,0.74-0.17,1.11
	s-0.25,1.44-0.2,1.49c0.05,0.05,0.47,0.09,0.49,0.16c0.03,0.12,0,0.36-0.04,0.88c-0.03,0.37-0.12,0.7-0.12,0.7l-0.16,0.17
	c0,0-0.72,0.62-0.85,0.95c-0.14,0.33-0.25,1.11-0.32,1.21c-0.07,0.09-0.47,0.74-0.64,1.15c-0.18,0.41-0.89,2.39-1.1,2.97
	s-1,2.65-1,2.65s-0.47,0.56-0.57,0.66c-0.1,0.1-0.41,0.48-0.51,0.62s-0.62,1.47-0.67,1.71c-0.05,0.24-0.15,0.64-0.08,0.76
	c0.07,0.12,0.35,0.31,0.35,0.31s0.01,0.24,0.03,0.31c0.02,0.07,0.18,0.11,0.25,0.12c0.07,0.01,0.12-0.11,0.12-0.11l0.48,0.2
	l0.41,0.11c0,0,0.04,0.13,0.09,0.17s0.26,0.02,0.34,0s0.15-0.18,0.15-0.18l0.58-0.18c0,0,0.05,0.15,0.12,0.15s0.17,0.02,0.28-0.03
	s0.19-0.23,0.19-0.23s0.19-0.05,0.42-0.13s0.48-0.27,0.48-0.27s0.04,0.12,0.11,0.11s0.26-0.06,0.31-0.12s0.05-0.31,0.05-0.31
	s0.26-0.16,0.38-0.28s0.27-0.66,0.28-0.87c0.01-0.21-0.27-0.5-0.36-0.55C10,49.45,9.71,49.37,9.6,49.34
	c-0.1-0.03-0.57-0.17-0.57-0.17l0.25-0.54c0,0,0.62-1,1.23-1.95c0.64-1,1.21-1.93,1.34-2.11c0.25-0.35,1.01-1.85,1.27-2.33
	c0.26-0.48,0.38-0.48,0.57-0.94c0.19-0.46,0.22-1.24,0.22-1.24s0.29-0.61,0.47-0.85c0.15-0.2,0.66-0.58,0.9-0.9s0.56-0.68,0.56-0.68
	s0.72,0.07,0.98,0.05s0.88-0.25,0.94-0.34c0.06-0.09,0.05-1.88,0.05-2.42s0.06-1.3,0.16-2.05s0.38-2.33,0.48-3.05
	s0.34-1.95,0.38-2.5c0.03-0.55,0.06-1.02,0.04-1.09s-0.08-0.16,0.04-0.21s0.27-0.21,0.3-0.53s-0.15-0.6-0.15-0.6s0.16,0,0.33-0.23
	s0.38-0.88,0.56-1.59c0.18-0.72,0.41-1.81,0.62-2.62s0.24-0.93,0.4-1.51s0.39-1.1,0.39-1.1l0.22,0.28c0,0,0.16,0.23,0.31,0.47
	s1.08,1.46,1.19,1.55s0.37-0.1,0.25,0S24,19.68,24,19.68l0.25,0.2l0.78,0.64l1.91,1.87l1.88,1.83l0.9,0.78l0.39,0.37l0.18,0.32
	l0.28,0.41l0.31,0.27l0.61,0.17l0.19,0.05l-0.15,0.21l0.12,0.32l0.58,0.18l0.25,0.01l0.59-0.13l0.3-0.36l0.18-0.62L33.33,25.26z"/>
<path id="skin-leg-l" class="st2" d="M4.27,35.35c0,0,0.78-0.6,1.02-0.7s0.64-0.25,0.64-0.25s0.06-0.32,0.09-0.4
	c0.02-0.05,0.03-0.09,0.15-0.04C6.3,34,6.75,34.19,6.83,34.21s1.24-0.01,1.24-0.01s-1.37-0.52-1.72-0.66s-0.55-0.25-0.77-0.38
	s-0.62-0.39-0.62-0.39s-0.05,0.08-0.18,0.31s-0.49,0.77-0.63,1.11S4,34.98,4.05,35.12C4.09,35.27,4.27,35.35,4.27,35.35z"/>
<path class="st4" d="M3.59,40.89l0.29,0.02l0.28,0.16L4.12,41.5L3.4,41.6c0,0-0.01,0.4,0.11,0.58c0.12,0.18,0.01,0.18,0.27,0.3
	c0.26,0.12,0.65,0.07,0.86,0.05s0.45-0.22,0.6-0.39c0.14-0.17,0.62-0.82,0.79-1.1c0.17-0.28,0.96-1.66,0.96-1.66l0.14,0.01
	l-1.22-1.22c0,0-1.82,1.53-1.97,1.74c-0.15,0.21-0.43,0.54-0.47,0.69s-0.03,0.43-0.03,0.43L3.59,40.89L3.59,40.89z"/>
<path id="player-sock-l" class="st5" d="M5.31,36.26c0.1,0.04,0.22-0.01,0.29,0.02c0.06,0.03,0.69-0.56,1.02-0.77
	s1.35-0.47,1.36-0.52c0.01-0.05-0.19-0.3-0.27-0.3c-0.08,0-0.59-0.1-0.86-0.05c-0.26,0.05-0.94,0.23-1.32,0.49
	c-0.38,0.26-0.88,0.56-0.83,0.62s0.58,0.17,0.64,0.23c0.05,0.05-0.01,0.14-0.01,0.14S5.21,36.23,5.31,36.26z"/>
<polygon class="st4" points="6.9,38.37 7.58,38.99 7.73,38.85 7.47,38.41 6.24,37.47 6.1,37.46 6.09,37.6 6.9,38.37 "/>
<path class="st4" d="M7.79,37.94c0.15,0.12,0.24,0.31,0.35,0.37s0.31,0.08,0.31,0.08S8.94,38,9.18,37.62
	c0.32-0.51,0.19-1.34,0.09-1.49c-0.1-0.15-0.2-0.35-0.38-0.43c-0.18-0.08-0.46-0.11-0.68-0.04c-0.22,0.07-0.94,0.44-1.13,0.61
	s-0.54,0.55-0.45,0.65S7.79,37.94,7.79,37.94S7.65,37.82,7.79,37.94z"/>
<polygon id="skin-leg-r" class="st1" points="13,37.24 11.59,36.93 11.56,37.29 11.48,38.27 11.41,38.69 12.4,39.21 13.39,39.4 
	13.54,39.61 13.93,38.97 14.66,38.23 15.2,37.56 13.91,37.38 "/>
<polygon class="st0" points="13.38,38.54 13.04,38.58 12.56,38.54 12.35,38.23 12.58,38.22 12.83,38.31 13.13,38.37 "/>
<path id="player-sock-r" class="st3" d="M10.44,40.58c0.01,0.16,0.23,0.17,0.29,0.26c0.05,0.09-0.04,0.2-0.13,0.25
	s-0.2,0.02-0.41,0.18c-0.21,0.16-0.42,0.37-0.64,0.77S8.8,43.75,8.8,43.75s-1.09,3.03-1.19,3.28s-0.38,0.95-0.36,1
	s0.34,0.08,0.43,0.18c0.08,0.1,0.22,0.88,0.28,0.94s0.42-0.02,0.49-0.06c0.07-0.04,0.33-0.72,0.33-0.72s0.87-1.37,1.32-2.06
	s1.49-2.36,1.73-2.77s0.85-1.58,0.87-1.75c0.02-0.17-0.18-0.46-0.12-0.51s0.34,0.05,0.45,0.04c0.1-0.01,0.26-0.35,0.31-0.53
	c0.06-0.18,0.01-0.29-0.05-0.52c-0.06-0.23-0.13-0.33-0.26-0.37c-0.13-0.04-0.55-0.08-0.75-0.16c-0.21-0.07-0.42-0.16-0.59-0.25
	c-0.18-0.09-0.41-0.3-0.53-0.28c-0.12,0.02-0.51,0.39-0.61,0.61C10.44,40.05,10.44,40.42,10.44,40.58z"/>
<polygon class="st4" points="6.58,51.92 6.09,51.62 6.32,51.93 6.58,51.92 "/>
<path id="skin-arm-l" class="st2" d="M1.22,26.99l-0.48,0.64c0,0-0.04,0.06-0.03,0.12c0.02,0.05,0.13-0.01,0.13-0.01l0.66-0.59
	l0.06,0.12l-0.61,0.58c0,0,0,0.04,0.06,0.08c0.07,0.04,0.13-0.05,0.13-0.05l0.63-0.45l0.16,0.05L1.43,27.9c0,0-0.03,0.04,0.05,0.06
	s0.44-0.21,0.44-0.21l0.57-0.39l0.31-0.21l0.22-0.12c0,0,0.4-0.23,0.53-0.36s0.23-0.4,0.23-0.4l0.19-0.45l0.24-0.23l1.99-1.96
	l2.39-2.17l0.38-0.45l0.66-0.83l0.41-0.66H9.44l-0.05-0.27l0.53-0.14l0.53-0.31l0.47-0.77l-0.66-0.33L9.8,17.49l-0.79-0.41
	l-0.23-0.12l-0.43,0.99L8.1,18.76l-1.79,2.29l-2.88,3.8l-0.28,0.3l-0.39,0.19l-0.41,0.36l-0.39,0.48l-0.35,0.4L1.22,26.99z"/>
<path id="player-jersey" class="st5" d="M11.09,17.49l0.84,0.17l0.22-0.44l0.78-1.55l0.23-0.63l0.12-0.42c0,0,0.2-0.29,0.36-0.19
	s0.1,0.24,0.05,0.43s-0.14,0.54-0.14,0.54l-0.44,0.89l-0.81,1.67c0,0-0.61,1.79-0.67,1.98s-0.72,2.01-0.69,2.15s0.05,0.25,0.22,0.38
	s0.82,0.41,0.82,0.41l1.17,0.48c0,0,1.39,0.57,1.83,0.7s1.69,0.28,1.98,0.33c0.3,0.05,0.52,0.03,0.71,0.03s0.39-0.44,0.49-0.61
	s0.2-0.77,0.25-0.83s0.18-0.1,0.18-0.1s0.06-0.02,0.14,0.04c0.07,0.06,0.09,0.5,0.11,0.64s-0.05,0.86-0.05,0.86s0.06-0.01,0.15-0.04
	s0.05-0.02,0.16-0.14s0.35-0.97,0.35-0.97s0.48-2.14,0.66-2.81c0.17-0.67,0.51-1.89,0.51-1.89l0.38-1.29c0,0,0.04-0.81,0.02-1.04
	c-0.02-0.23-0.1-0.44-0.15-0.5s0.2-0.28,0.36-0.19s0.23,0.34,0.27,0.53c0.03,0.2,0.05,0.56,0.05,0.56S21.5,17,21.53,17.09
	s0.86,1.34,1.11,1.71s0.5,0.83,0.59,0.85s1.58-1.27,1.58-1.27s0.59-0.52,0.83-0.74c0.09-0.08,0.31-0.27,0.38-0.36
	c0.07-0.1-0.05-0.3-0.14-0.47c-0.23-0.4-0.66-1.12-0.81-1.34c-0.22-0.3-2.19-3.53-2.39-3.78s-0.7-1.15-1.31-1.48
	c-0.41-0.23-1.79-0.6-1.79-0.6S19.5,9.7,19.41,9.75c-0.1,0.05-0.22,0.05-0.31,0.05c-0.19,0.01-0.44,0.01-0.75-0.03
	s-0.53-0.09-0.94-0.16c-0.41-0.07-1-0.15-1.3-0.32s-0.5-0.33-0.5-0.33s-1.18,0.18-1.37,0.21s-0.69,0.12-1.02,0.23
	s-0.95,0.54-1.16,0.8s-0.53,0.63-0.72,0.91s-0.89,1.52-1.06,1.84S9.44,14.8,9.44,14.8l-0.58,1.32l-0.04,0.14l0.64,0.46l1.16,0.58
	L11.09,17.49z"/>
<path id="player-shorts" class="st4" d="M4.91,32.1c0.05,0.1,0.34,0.32,0.61,0.49S6.55,33.14,7,33.34c0.45,0.2,1.04,0.38,1.38,0.49
	C8.72,33.94,8.87,34,9.2,34.09s0.68,0.14,0.68,0.14l1.5-2.35l0.19-0.29c0,0,0.08-0.08,0.16-0.31s0.13-0.31,0.09-0.48
	c-0.03-0.16-0.41-0.45-0.56-0.53c-0.16-0.09-1.39-0.73-1.42-0.81c-0.03-0.09,0.19-0.13,0.3-0.14c0.16-0.01,0.19-0.04,0.34,0.01
	s0.49,0.27,0.73,0.41s0.86,0.33,0.97,0.35c0.11,0.02,0.2-0.34,0.23-0.44c0.06-0.18,0.08-0.27,0.19-0.33
	c0.11-0.05,0.34-0.15,0.39-0.09c0.05,0.05-0.08,0.44-0.02,0.56c0.06,0.12,0.09,0.21,0.2,0.31c0.11,0.1,0.31,0.15,0.39,0.22
	c0.08,0.07,0.17,0.08,0.25,0.11c0.08,0.02,0.14,0.23,0.11,0.34c-0.03,0.12-0.15,0.13-0.25,0.11c-0.1-0.02-0.19-0.1-0.31-0.12
	c-0.13-0.02-0.67-0.1-0.77-0.06c-0.1,0.04-0.17,0.07-0.22,0.14c-0.05,0.07-0.14,0.51-0.23,0.72c-0.09,0.21-0.45,0.73-0.52,0.89
	c-0.06,0.16-0.1,0.83-0.1,0.83l-0.41,3c0,0,0.73,0.2,1.1,0.29s1.05,0.22,1.58,0.31c0.66,0.11,1.15,0.17,1.58,0.23
	c0.42,0.05,1.09,0.12,1.3,0.13s0.56-0.12,0.61-0.15s0.03-0.96,0.05-1.53c0.02-0.57,0.05-1.88,0.13-2.41
	c0.08-0.52,0.29-2.05,0.42-2.79s0.42-2.56,0.46-2.81c0.03-0.25,0.04-0.52,0.04-0.75c0-0.23-0.07-0.51-0.07-0.51
	s-0.06-0.13-0.24-0.22s-0.37-0.09-0.54-0.18c-0.16-0.09-0.37-0.19-0.44-0.25c-0.07-0.06,0.02-0.22,0.21-0.19
	c0.19,0.03,0.98,0.2,1.08,0.21c0.09,0.01,0.22-0.1,0.23-0.21c0.01-0.11,0-0.28-0.09-0.3c-0.1-0.02-1.47-0.2-1.9-0.27
	s-1.49-0.2-1.85-0.31s-2.91-1.08-3.14-1.21s-0.39-0.25-0.51-0.31s-0.18-0.09-0.24-0.07s-0.14,0.12-0.21,0.23s-0.09,0.27-0.07,0.42
	s0.54,0.28,0.69,0.37s0.56,0.24,0.65,0.31c0.15,0.1,0.21,0.16,0.23,0.22s-0.15,0.22-0.36,0.19s-0.88-0.25-1.11-0.29
	c-0.27-0.05-0.44-0.08-0.62,0.04c-0.07,0.05-0.21,0.12-0.38,0.31c-0.25,0.29-0.55,0.74-0.7,0.95c-0.25,0.36-1.48,2.25-1.48,2.25
	S6.8,29.09,6.53,29.5s-0.71,1.05-0.9,1.37s-0.62,0.97-0.62,0.97S4.86,32,4.91,32.1z"/>
<path class="st0" d="M15.12,22.88c0.04,0.15-0.02,0.15,0.1,0.18s1.31-2.69,1.35-2.92s-0.12-0.5-0.11-0.64s0.7-3.24,0.74-3.41
	s0-0.32-0.1-0.18c-0.1,0.14-1.05,3.94-1.18,4.34S15.12,22.88,15.12,22.88S15.08,22.73,15.12,22.88z"/>
<path class="st0" d="M16.06,31.2c0.18-0.01,0.77-0.27,0.86-0.34c0.1-0.07,0.18-0.5,0.17-0.55c-0.01-0.05-0.08-0.05-0.14-0.04
	s-0.59,0.41-0.9,0.48c-0.31,0.07-0.71-0.01-0.78,0.06c-0.07,0.07-0.03,0.25,0.05,0.32C15.41,31.19,16.06,31.2,16.06,31.2
	S15.88,31.21,16.06,31.2z"/>
<polygon id="skin-arm-r" class="st2" points="25.73,19.81 25.61,20.07 25.45,20.17 25.88,20.77 27.33,22.23 30.06,24.81 
	30.49,25.15 30.66,25.46 31.09,25.89 31.58,26.04 31.92,25.97 32.27,25.91 32.5,26.11 32.62,26.42 32.13,26.74 32.13,26.88 
	32.86,26.73 33.06,26.2 32.91,25.52 32.21,25.01 31.6,24.69 31.06,24.33 27.98,20.35 26.87,18.8 26.2,17.82 25.2,18.76 24.38,19.46 
	24.87,19.77 25.1,19.77 25.63,19.51 "/>
<path id="skin-face" class="st2" d="M19.42,5.61c0.08-0.12,0.56-0.17,0.64-0.25s0.16-0.22,0.2-0.32s0-0.34,0.05-0.42
	s0.17-0.24,0.17-0.24s0.22-0.17,0.33-0.29s0.2-0.24,0.26-0.23c0.06,0.02,0.16-0.01,0.21,0.06s0.1,0.19,0.07,0.27
	c-0.02,0.08-0.08,0.19-0.08,0.19s-0.15,0.07-0.15,0.16s0.01,0.34,0.01,0.34s-0.1,0.37-0.09,0.46s0.1,0.48,0.12,0.55
	s0.08,0.21,0.02,0.34c-0.06,0.13-0.29,0.61-0.36,0.79s-0.19,0.8-0.21,0.97s-0.05,0.41-0.06,0.45s-0.02,0.1-0.12,0.12
	s-0.32,0.06-0.48,0s-0.42-0.35-0.47-0.32S19.3,8.41,19.25,8.5S19,9.4,19,9.4s-0.36,0.02-0.59,0s-1.12-0.19-1.5-0.27
	c-0.25-0.05-0.52-0.18-0.58-0.2c-0.13-0.05-0.2-0.14-0.2-0.14l0.21-0.49c0,0,0.09-0.14,0.17-0.09s0.15,0.24,0.15,0.24
	s0.23-0.19,0.27-0.19s0.66,0.22,0.79,0.22c0.12,0,0.31-0.07,0.4-0.13s0.98-1.14,1.06-1.32S19.34,5.73,19.42,5.61z"/>
<path class="st0" d="M4.72,40.76c0.07-0.08,0.1-0.36,0.01-0.43c-0.08-0.07-0.37-0.1-0.43-0.01S4.26,40.54,4.3,40.6
	s0.22,0.18,0.14,0.15S4.66,40.84,4.72,40.76z"/>
<path class="st0" d="M4.54,42.18c0,0,0.24,0.07,0.32-0.05c0.08-0.11-0.02-0.38-0.02-0.38s-0.21-0.16-0.28-0.15
	c-0.08,0.01-0.29,0.16-0.3,0.34S4.54,42.18,4.54,42.18L4.54,42.18z"/>
<path class="st0" d="M5.18,40.05c0.08-0.03,0.15-0.14,0.15-0.14s0.03-0.21-0.07-0.26c-0.1-0.05-0.31-0.06-0.35-0.04
	c-0.04,0.03-0.15,0.14-0.15,0.14s0.03,0.22,0.13,0.29C4.99,40.12,5.09,40.09,5.18,40.05z"/>
<path class="st0" d="M5.42,41.49c-0.09,0.04,0.17-0.09,0.21-0.13c0.04-0.04,0.02-0.21-0.06-0.29s-0.35-0.08-0.43-0.01
	c-0.08,0.07-0.13,0.37-0.01,0.43C5.25,41.55,5.5,41.45,5.42,41.49z"/>
<path class="st0" d="M6.11,40.2c-0.07-0.05-0.38-0.05-0.43-0.01s-0.08,0.37-0.01,0.43s0.39,0.1,0.43,0.01
	C6.14,40.54,6.18,40.26,6.11,40.2z"/>
<path class="st0" d="M7.87,36.94C8,36.86,8.01,36.5,7.86,36.41c-0.14-0.09-0.33-0.03-0.45,0.07c-0.12,0.09-0.07,0.44,0.01,0.5
	S7.74,37.03,7.87,36.94z"/>
<path class="st0" d="M8.46,36.37C8.53,36.3,8.69,36.05,8.59,36c-0.1-0.05-0.44-0.12-0.57-0.02s-0.03,0.35,0.04,0.39
	S8.38,36.44,8.46,36.37z"/>
<path class="st0" d="M8.71,37c0,0,0.17,0.1,0.29,0.01c0.12-0.09,0.17-0.49,0.02-0.57c-0.16-0.09-0.16-0.14-0.29-0.01
	s-0.16,0.71-0.16,0.71s-0.32-0.12-0.43-0.01c-0.11,0.1-0.09,0.38-0.01,0.43c0.08,0.05,0.34,0.06,0.43,0.01
	C8.63,37.52,8.71,37,8.71,37z"/>
<path id="hair" class="st0" d="M15.15,4.89l0,0.7l0.16,0.62l0.37,0.73l-0.15,0.3l0.2,0.09l0.25,0.36l0.15,0.19
	c0.07,0.01,0.38-0.14,0.38-0.14l0.17,0.22c0,0,0.2-0.11,0.29-0.11c0.08,0,0.56,0.2,0.65,0.23c0.09,0.03,0.34-0.13,0.44-0.2
	c0.15-0.09,0.68-0.9,0.78-1.06c0.11-0.16,0.15-1.36,0.25-1.47c0.1-0.1,0.62-0.17,0.72-0.23c0.1-0.06,0.11-0.3,0.11-0.41
	c0-0.1,0.06-0.24,0.12-0.32c0.06-0.09,0.09-0.16,0.18-0.25c0.09-0.09,0.23-0.14,0.33-0.21c0.1-0.07,0.25-0.25,0.29-0.28
	c0.13-0.1,0.25-0.16,0.38-0.11c0.08,0.03,0.05-0.07,0.09-0.23c0.05-0.19,0.04-0.23,0.08-0.29s-0.01-0.6-0.01-0.6l-0.5-0.38L20.7,1.7
	l-0.89-0.04L19.7,1.31l-0.82-0.34l-0.74-0.03l-1.51,0.47l-0.31,0.36l-0.31-0.05l-0.52,0.76l-0.61,0.89L14.78,3.6l0.16,0.09l0.1,0.46
	l-0.24,0.5L15.15,4.89z"/>
</svg>
