<?xml version="1.0" encoding="utf-8"?>
<!-- Generator: Adobe Illustrator 16.0.4, SVG Export Plug-In . SVG Version: 6.00 Build 0)  -->
<!DOCTYPE svg PUBLIC "-//W3C//DTD SVG 1.1//EN" "http://www.w3.org/Graphics/SVG/1.1/DTD/svg11.dtd">
<svg version="1.1" id="Ebene_1" xmlns="http://www.w3.org/2000/svg" xmlns:xlink="http://www.w3.org/1999/xlink" x="0px" y="0px"
	 width="32.457px" height="51.181px" viewBox="0 0 32.457 51.181" enable-background="new 0 0 32.457 51.181" xml:space="preserve">
<path fill-rule="evenodd" clip-rule="evenodd" fill="#1A1A18" d="M31.724,26.246c0,0,0.037,0.005,0.041-0.088
	c0.004-0.094-0.113-0.407-0.191-0.53c-0.08-0.122-0.277-0.318-0.363-0.44s-0.394-0.495-0.493-0.618
	c-0.099-0.122-0.249-0.357-0.428-0.445c-0.149-0.074-0.458-0.195-0.604-0.215c-0.147-0.021-0.359-0.069-0.445-0.111
	c-0.086-0.041-1.396-1.576-1.396-1.576l-1.786-2.229l-0.81-1.029l-0.748-1.235c0,0,0.24-0.078,0.271-0.171s-0.248-1.348-0.334-1.83
	c-0.109-0.609-0.555-2.814-0.609-3.078c-0.078-0.375-0.308-0.957-0.469-1.219c-0.16-0.262-0.531-0.703-0.766-0.969
	c-0.197-0.223-1.016-0.922-1.016-0.922l-0.75-0.578c0,0-0.189-0.134-0.328-0.193c0.132-0.202,0.234-0.456,0.396-0.709
	c0.227-0.355,0.4-0.666,0.4-0.666s0.217-0.135,0.395-0.275c0.178-0.142,0.213-0.64,0.264-0.817c0.049-0.177,0.068-0.309,0.006-0.468
	c-0.061-0.161-0.169-0.159-0.169-0.159l0.069-0.483c0.246-0.809,0.316-1.379,0.271-1.856c-0.049-0.533-0.342-1.002-0.482-1.21
	c-0.309-0.452-1.113-0.797-1.113-0.797s-0.101-0.206-0.474-0.46c-0.349-0.235-1.083-0.222-1.39-0.036
	c-0.299,0.18-0.48,0.384-0.491,0.431c-0.053,0.078-0.147,0.139-0.336,0.214C17.539,1.6,17.11,1.962,16.96,2.157
	c-0.325,0.376-0.523,1.076-0.52,1.445c0.004,0.371-0.045,0.523,0.035,0.943c0.081,0.419,0.219,0.95,0.219,0.95
	s-0.137,0.081-0.139,0.182c-0.002,0.141-0.014,0.437,0.039,0.595c0.053,0.158,0.098,0.615,0.252,0.78
	c0.09,0.094,0.375,0.359,0.375,0.359s0.152,0.379,0.257,0.837c0,0-0.32,0.055-0.964,0.245c-0.688,0.203-1.531,0.469-2.031,0.703
	c-0.223,0.104-0.719,0.406-1.234,0.781c-0.26,0.189-0.848,0.575-1.406,1.047c-0.551,0.465-1.199,0.97-1.344,1.099
	c-0.291,0.259-0.843,0.631-1.113,0.891c-0.271,0.26-0.421,0.348-0.449,0.421c-0.027,0.074,0.079,0.255,0.079,0.255l-0.561,0.485
	l-0.948,0.846l-0.739,0.573l-1.714,1.323l-1.468,1.146l-0.657,0.463c0,0-0.972,0.056-1.109,0.077s-0.438,0.112-0.575,0.176
	c-0.137,0.065-0.171,0.073-0.25,0.157s-0.277,0.459-0.287,0.603c-0.011,0.143-0.086,0.433-0.007,0.641
	C0.78,20.39,0.91,20.643,1.03,20.722c0.12,0.079,0.476,0.236,0.606,0.231c0.129-0.005,0.246-0.066,0.246-0.066l0.288-0.452
	l0.297-0.011c0,0,0.674-0.157,0.903-0.265c0.229-0.108,0.664-0.5,0.664-0.5s1.722-0.846,1.957-0.947
	c0.236-0.101,1.229-0.605,1.492-0.735c0.263-0.13,2.344-1.228,2.453-1.277c0.26-0.118,0.515-0.251,0.584-0.222
	c0.067,0.029,0.38,0.678,0.521,0.708c0.009,0.002,0.104-0.068,0.208-0.125c0.41-0.226,0.993-0.673,1.271-0.854
	c0.276-0.182,0.524-0.334,0.583-0.354c0.058-0.02,0.345-0.28,0.375-0.167s0.124,0.958,0.146,2.188
	c0.003,0.173,0.039,1.382,0.021,2.333c-0.02,0.986-0.029,1.818,0,1.896c0.058,0.154,0.041,0.14,0.041,0.242
	c0,0.104-0.135,0.324-0.176,0.553c-0.043,0.227,0.03,0.453,0.001,0.576c-0.03,0.121-0.097,0.275-0.153,0.415
	c-0.102,0.248-0.088,0.661-0.126,0.911s-0.106,2.133-0.079,2.691s0.062,1.418,0.072,1.841c0.01,0.423-0.039,3.237-0.062,3.616
	s-0.018,1.254,0.027,1.324c0.045,0.068,0.482,0.113,0.482,0.113l0.065,1.573c0,0-0.114,0.51-0.138,0.674s-0.003,0.454,0.014,0.589
	c0.018,0.134,0.109,0.484,0.109,0.484l-0.163,0.646c0,0-0.169,0.837-0.124,1.295c0.045,0.457,0.109,0.896,0.168,1.222
	s0.184,0.921,0.283,1.409c0.1,0.487,0.283,1.931,0.336,2.26c0.053,0.33,0.154,2.045,0.131,2.194
	c-0.024,0.149-0.097,0.472-0.097,0.472s0.075,0.744,0.053,0.813c-0.021,0.07-0.172,0.246-0.269,0.394
	c-0.096,0.146-0.123,0.367-0.164,0.617c-0.04,0.25-0.055,0.709-0.047,0.824c0.007,0.117,0.164,0.287,0.164,0.287l0.369,0.066
	c0,0,0.014,0.207,0.072,0.242s0.342,0.048,0.4,0.022c0.06-0.026,0.113-0.221,0.113-0.221l0.637,0.032c0,0,0.053,0.155,0.092,0.188
	s0.363,0.021,0.41-0.022c0.048-0.043,0.113-0.209,0.113-0.209l0.451-0.111l0.124-0.154l0.03-0.342c0,0-0.082-0.762-0.123-0.991
	s-0.09-0.439-0.086-0.569c0.004-0.131,0.064-0.473,0.055-0.766c-0.01-0.291-0.144-0.838-0.144-0.838s0.071-1.178,0.144-1.654
	c0.072-0.475,0.395-2.186,0.451-2.668c0.059-0.482,0.105-0.869,0.11-1.426c0.004-0.557-0.06-1.457-0.083-1.572
	c-0.023-0.116-0.057-0.297-0.096-0.486c-0.037-0.188-0.164-0.572-0.164-0.572s0.038-0.046,0.109-0.206
	c0.072-0.159,0.052-0.312,0.055-0.544c0.004-0.233,0.012-0.398,0-0.5c-0.01-0.102,0.027-0.352,0.027-0.352s0.422-1.117,0.514-1.322
	c0.093-0.206,0.246-0.541,0.246-0.541s0.977-0.069,1.027-0.109c0.051-0.041,0.023-0.482,0.051-0.541s0.627-0.231,0.627-0.231
	s0.338,0.364,0.355,0.474c0.018,0.111,0.011,0.18-0.027,0.212c-0.037,0.032-0.421,0.163-0.599,0.281
	c-0.132,0.087-0.284,0.217-0.347,0.417c-0.064,0.201-0.229,0.568-0.16,1.303c0.037,0.385,0.418,1.055,0.49,1.16
	c0.071,0.104,0.324,0.365,0.438,0.559s0.311,0.35,0.404,0.514c0.092,0.164,0.523,0.953,0.678,1.324
	c0.152,0.369,0.434,1.026,0.533,1.256c0.1,0.23,0.257,0.579,0.39,0.795c0.134,0.215,0.195,0.341,0.403,0.498
	c0.209,0.158,0.865,0.408,1.35,0.154c0.266-0.139,0.386-0.28,0.465-0.455c0.078-0.174,0.099-0.223,0.185-0.572
	c0.085-0.352,0.112-0.689,0.099-0.91c-0.029-0.486-0.157-0.609-0.264-0.922c-0.105-0.312-0.317-0.803-0.41-1.08
	c-0.092-0.275-0.195-0.311-0.267-0.749s-0.139-0.931-0.139-0.931s-0.009-0.174,0.077-0.238c0.086-0.063,0.36-0.243,0.36-0.243
	s0.637-0.416,0.729-0.485c0.091-0.07,0.175-0.16,0.263-0.461c0.089-0.301,0.058-0.543,0.034-1.064
	c-0.011-0.24-0.175-0.795-0.288-1.205c-0.131-0.482-0.256-0.854-0.256-0.854s0.182-0.117,0.238-0.191
	c0.059-0.073,0.08-0.146,0.043-0.33c-0.039-0.185-0.436-1.537-0.531-1.89s-0.205-1.073-0.314-1.544s-0.309-1.309-0.414-1.771
	c-0.106-0.463-0.25-1.007-0.328-1.352c-0.08-0.346-0.312-1.434-0.395-1.654c-0.082-0.221-0.291-0.485-0.291-0.485
	s-0.051-0.5-0.201-0.797c0.014-0.144,0.098-0.034,0.043-0.464c-0.125-0.979-0.333-2.771-0.333-2.771l-0.104-0.833l1.021,1.584
	l0.588,0.691c0,0,0.948,0.87,1.194,1.091c0.247,0.221,1.242,1.174,1.242,1.174l1.458,1.33l0.862,0.859l0.391,0.397
	c0,0,0.297,0.526,0.391,0.64c0.092,0.112,0.234,0.226,0.327,0.33c0.093,0.105,0.989,0.602,1.13,0.64
	c0.141,0.04,0.479,0.104,0.479,0.104s0.26-0.026,0.337-0.009s0.187,0.033,0.406-0.041c0.073-0.023,0.048-0.254,0.092-0.252
	c0.045,0.002,0.105,0.01,0.191-0.001s0.124-0.058,0.169-0.1c0.044-0.041,0.074-0.078,0.077-0.187
	C31.795,26.579,31.724,26.246,31.724,26.246z"/>
<path id="hair" fill-rule="evenodd" clip-rule="evenodd" fill="#F7DD7F" d="M17.017,2.595c0.127-0.246,0.356-0.542,0.793-0.806
	c0.127-0.077,0.26-0.15,0.305-0.165c-0.117,0.619-0.072,0.909,0.07,1.623c0.029,0.146,0.01,0.234-0.037,0.526
	c-0.082,0.5-0.236,1.275-0.299,1.606c-0.077,0.404-0.103,0.59-0.081,1.194c0.015,0.387,0.351,0.782,0.432,0.857
	c0.151,0.143,0.222,0.112,0.222,0.112s0.231,0.254,0.333,0.222c0.139-0.045,0.136-0.171,0.172-0.215
	c0.036-0.043,0.013,0.125,0.135,0.204c0.043,0.028,0.229,0.08,0.339-0.15c0.054-0.111,0.016,0.082,0.136,0.157
	c0.128,0.081,0.241-0.143,0.263-0.212c0.061-0.188-0.045-0.032,0.123-0.015c0.168,0.019,0.309-0.132,0.454-0.361
	c0.084-0.134,0.285-0.677,0.23-1.142c-0.021-0.176-0.099-0.891-0.13-1.294c-0.039-0.496-0.047-1.217-0.01-1.471
	c0.051-0.355,0.289-1.064,0.158-1.577c0.381,0.191,0.611,0.369,0.795,0.573c0.195,0.22,0.481,0.871,0.459,1.367
	c-0.022,0.495-0.145,1.037-0.257,1.453c-0.113,0.417-0.128,0.71-0.128,0.71s-0.405,0.49-0.688,0.966
	c-0.16,0.269-0.447,0.623-0.686,0.857c-0.25,0.244-0.69,0.759-1.027,0.754c-0.367-0.005-0.672-0.518-0.752-0.609
	c-0.402-0.453-0.459-0.583-0.803-1.177c-0.161-0.278-0.359-0.629-0.455-0.808c-0.121-0.222-0.176-0.544-0.218-0.808
	c-0.065-0.406-0.179-0.761-0.156-1.241C16.731,3.247,16.892,2.842,17.017,2.595z"/>
<path id="skin-face-r" fill-rule="evenodd" clip-rule="evenodd" fill="#F9CAA9" d="M19.343,8.649c0.127-0.053,0.396-0.243,0.5-0.328
	c0.188-0.152,0.456-0.4,0.672-0.656c0.262-0.31,0.539-0.636,0.76-0.936c0.064-0.087,0.426-0.646,0.424-0.524
	C21.696,6.326,21.66,6.511,21.6,6.688c-0.06,0.177-0.265,0.285-0.341,0.329c-0.078,0.044-0.141,0.112-0.266,0.33
	c-0.094,0.166-0.502,0.838-0.682,1.046c-0.056,0.065-0.143,0.233-0.234,0.334c0,0-0.143,0.03-0.312,0
	C19.499,8.681,19.343,8.649,19.343,8.649z"/>
<path id="skin-face-l" fill-rule="evenodd" clip-rule="evenodd" fill="#F9CAA9" d="M17.983,8.353
	c-0.163-0.296-0.402-0.915-0.469-1.041c-0.117-0.221-0.18-0.291-0.256-0.337c-0.074-0.047-0.275-0.16-0.332-0.338
	c-0.055-0.179-0.07-0.38-0.068-0.501c0.002-0.122,0.24,0.353,0.301,0.444c0.197,0.295,0.438,0.671,0.614,0.979
	c0.079,0.139,0.214,0.3,0.33,0.429c0.044,0.048,0.397,0.463,0.458,0.521c0,0-0.188-0.016-0.391-0.078
	C18.058,8.396,17.983,8.353,17.983,8.353z"/>
<path id="hair-p" fill="#F7DD7F" d="M18.286,7.107c-0.123-0.172,0.239-0.543,0.239-0.543c-0.017,0.121-0.101,0.33-0.06,0.511
	c0.047,0.213,0.191,0.358,0.217,0.383c-0.123-0.326,0.294-0.899,0.294-0.899c0.028,0.29,0.035,0.596,0.188,0.937
	c-0.041-0.092,0.271-0.926,0.271-0.926c0.045,0.232,0.168,0.681,0.168,0.867c0.001-0.292,0.113-0.558,0.207-0.834
	c0.014-0.042,0.123,0.081,0.154,0.294c0.035,0.245,0.018,0.24,0.055,0.204c0.519-0.508,0.273-1.574,0.272-1.577
	c-0.052-0.452-0.112-1.51-0.103-2.074c-0.039,0.011-0.074,0.02-0.076,0.013c-0.045,0.039-0.153,0.126-0.153,0.126
	s0.081-0.138,0.177-0.353c0.047-0.102,0.074-0.189,0.091-0.254c0.022-0.167,0.085-0.404,0.108-0.563
	c0.035-0.233,0.025-0.369,0.019-0.457c-0.055-0.72-0.47-0.999-1.007-0.996c-0.661,0.003-0.969,0.299-1.008,1.084
	c-0.008,0.143,0.008,0.604,0.113,1.012c0.016,0.067,0.035,0.14,0.074,0.212c0.105,0.202,0.167,0.296,0.167,0.296
	s-0.11-0.104-0.186-0.126c-0.022-0.006-0.036-0.013-0.052-0.02c-0.047,0.531-0.256,1.523-0.284,1.686
	c-0.083,0.339-0.126,0.827-0.157,1.173C17.988,6.585,18.101,6.849,18.286,7.107z M19.037,1.384c0.268-0.064,0.026,0.013-0.076,0.397
	c-0.044,0.167-0.042,0.791-0.095,0.681C18.578,1.865,18.782,1.444,19.037,1.384z"/>
<path id="skin-leg-r" fill-rule="evenodd" clip-rule="evenodd" fill="#F9CAA9" d="M23.802,35.591c0,0-0.493-0.69-0.697-0.882
	c-0.207-0.19-0.507-0.337-0.507-0.337s0.007-0.329-0.011-0.386s-0.037-0.075-0.123-0.065c-0.085,0.009-0.523,0.129-0.605,0.121
	c-0.082-0.01-1.224-0.186-1.275-0.178c-0.053,0.007-0.169,0.022-0.206,0.015c-0.038-0.008-0.315-0.353-0.315-0.353
	s0.469-0.154,0.865-0.303c0.398-0.146,0.969-0.359,1.219-0.44s0.938-0.278,0.955-0.271c0.017,0.007,0.009-0.405,0.068-0.368
	c0.058,0.037,0.232,0.338,0.232,0.338l0.219,0.045c0,0,0.209,0.697,0.264,0.918s0.275,0.859,0.281,1.15s0.03,0.691-0.064,0.793
	C24.007,35.488,23.802,35.591,23.802,35.591z"/>
<path fill-rule="evenodd" clip-rule="evenodd" fill="#FFFFFF" d="M23.539,40.801c0,0-0.134-0.05-0.258-0.005
	c-0.122,0.044-0.177,0.103-0.191,0.205c-0.011,0.09-0.046,0.221,0.015,0.324c0.059,0.102,0.479,0.162,0.479,0.162
	s-0.132,0.401-0.189,0.517c-0.058,0.114-0.14,0.203-0.399,0.262c-0.178,0.04-0.38-0.002-0.628-0.133
	c-0.248-0.132-0.449-0.471-0.449-0.471s-0.312-0.669-0.493-1.157c-0.182-0.488-0.554-1.707-0.554-1.707l-0.123-0.018l1.25-0.912
	l1.406,1.963c0,0,0.221,0.348,0.275,0.641c0.055,0.295-0.031,0.479-0.031,0.479L23.539,40.801L23.539,40.801z"/>
<path fill-rule="evenodd" clip-rule="evenodd" fill="#1A1A18" d="M22.685,40.546c-0.047-0.088-0.035-0.347,0.049-0.401
	c0.083-0.055,0.332-0.033,0.372,0.052c0.039,0.084,0.008,0.215-0.031,0.268s-0.218,0.137-0.142,0.116
	C23.008,40.56,22.729,40.635,22.685,40.546z"/>
<path fill-rule="evenodd" clip-rule="evenodd" fill="#1A1A18" d="M22.647,41.9c0,0-0.214,0.027-0.269-0.091
	c-0.056-0.117,0.068-0.346,0.068-0.346s0.2-0.119,0.265-0.1c0.063,0.02,0.228,0.195,0.213,0.357
	C22.912,41.884,22.647,41.9,22.647,41.9L22.647,41.9z"/>
<path id="player-sock-r" fill-rule="evenodd" clip-rule="evenodd" fill="#0068B4" d="M22.828,36.216
	c-0.053,0.021-0.249-0.035-0.249-0.035s-0.237-0.492-0.693-0.942c-0.457-0.45-1.137-0.671-1.137-0.671s0.125-0.227,0.281-0.233
	c0.158-0.007,0.447,0.011,0.747,0.104s0.892,0.471,1.093,0.682c0.203,0.213,0.627,0.781,0.627,0.781s-0.617,0.023-0.635,0.047
	c-0.019,0.025-0.018,0.134-0.018,0.134S22.881,36.192,22.828,36.216z"/>
<path fill-rule="evenodd" clip-rule="evenodd" fill="#1A1A18" d="M22.392,39.825c-0.068-0.044-0.109-0.15-0.109-0.15
	s0-0.203,0.097-0.232c0.095-0.029,0.277-0.014,0.31,0.016s0.109,0.152,0.109,0.152s-0.06,0.195-0.157,0.25
	C22.542,39.913,22.46,39.869,22.392,39.825z"/>
<path fill-rule="evenodd" clip-rule="evenodd" fill="#1A1A18" d="M21.981,41.127c0.068,0.051-0.137-0.111-0.164-0.155
	s0.013-0.203,0.089-0.263c0.075-0.061,0.313-0.026,0.372,0.052c0.059,0.079,0.062,0.358-0.049,0.402S21.913,41.077,21.981,41.127z"
	/>
<path fill-rule="evenodd" clip-rule="evenodd" fill="#1A1A18" d="M21.56,39.822c0.065-0.041,0.338,0.015,0.374,0.053
	c0.034,0.038,0.016,0.351-0.051,0.399c-0.065,0.051-0.352,0.039-0.372-0.051C21.488,40.134,21.495,39.864,21.56,39.822z"/>
<path fill-rule="evenodd" clip-rule="evenodd" fill="#FFFFFF" d="M21.108,37.879c0,0-0.605,0.435-0.688,0.448
	s-0.065-0.064-0.107-0.15c-0.043-0.086,0.298-0.367,0.298-0.367s1.069-0.704,1.151-0.704s0.189,0.075,0.189,0.075
	s0.034,0.036-0.016,0.135C21.886,37.415,21.108,37.879,21.108,37.879L21.108,37.879z"/>
<path fill-rule="evenodd" clip-rule="evenodd" fill="#FFFFFF" d="M20.411,37.374l-0.424,0.35c0,0-0.1-0.06-0.224-0.148
	c-0.122-0.088-0.468-0.658-0.533-0.939c-0.037-0.16-0.097-0.466-0.042-0.78c0.044-0.241,0.053-0.423,0.207-0.587
	c0.152-0.165,0.209-0.24,0.419-0.289c0.21-0.05,0.418-0.042,0.622,0.086c0.204,0.129,0.682,0.514,0.86,0.761
	s0.364,0.635,0.364,0.635l-0.018,0.134L20.411,37.374L20.411,37.374z"/>
<path fill-rule="evenodd" clip-rule="evenodd" fill="#1A1A18" d="M20.489,36.532c-0.1-0.099-0.056-0.433,0.082-0.496
	c0.137-0.062,0.292,0.023,0.383,0.129c0.092,0.104,0.002,0.42-0.073,0.459C20.805,36.665,20.589,36.631,20.489,36.532z"/>
<path fill-rule="evenodd" clip-rule="evenodd" fill="#1A1A18" d="M20.065,35.915c-0.055-0.074-0.16-0.336-0.066-0.367
	c0.094-0.029,0.395-0.049,0.498,0.07c0.102,0.12-0.021,0.326-0.09,0.355S20.12,35.988,20.065,35.915z"/>
<path fill-rule="evenodd" clip-rule="evenodd" fill="#1A1A18" d="M19.761,36.468c0,0-0.16,0.07-0.249-0.035
	c-0.089-0.106-0.083-0.478,0.064-0.534c0.147-0.058,0.159-0.109,0.249,0.034s0.043,0.687,0.043,0.687s0.291-0.06,0.374,0.052
	s0.026,0.368-0.048,0.401s-0.302,0.008-0.373-0.054C19.751,36.958,19.761,36.468,19.761,36.468z"/>
<path id="skin-leg-l" fill-rule="evenodd" clip-rule="evenodd" fill="#F9CAA9" d="M16.962,35.584
	c-0.086,0.198-0.309,0.684-0.309,0.684s-0.652-0.132-1.01-0.162c-0.355-0.029-1.404-0.063-1.404-0.063s-0.094-1.707-0.049-1.704
	c0.044,0.003,1.971,0.177,1.971,0.177l1.19,0.066c0,0-0.058,0.23-0.123,0.386C17.163,35.12,17.048,35.386,16.962,35.584z"/>
<path id="player-sock-l" fill-rule="evenodd" clip-rule="evenodd" fill="#0068B4" d="M16.653,38.956
	c-0.023-0.219-0.133-0.453-0.229-0.645s-0.195-0.341-0.195-0.341l0.076-0.128l0.002,0.001l0.141-0.079c0,0,0.105-0.178,0.123-0.396
	s-0.027-0.529-0.105-0.615c-0.079-0.087-0.191-0.117-0.479-0.147c-0.288-0.029-1.349-0.077-1.522-0.075
	c-0.175,0.002-0.278-0.017-0.329,0.044c-0.051,0.062-0.167,0.353-0.109,0.522c0.059,0.17,0.206,0.268,0.291,0.361
	c0.085,0.095,0.202,0.09,0.202,0.09s0.141,0,0.182,0.058s-0.018,0.146-0.09,0.207c-0.17,0.146-0.42,0.132-0.42,0.132
	s-0.061,0.058-0.125,0.183c-0.063,0.125-0.152,0.622-0.163,0.829c-0.01,0.207-0.042,0.44-0.024,0.752
	c0.018,0.311,0.124,1.19,0.191,1.47c0.069,0.279,0.222,0.928,0.282,1.31c0.062,0.381,0.345,2.908,0.345,2.908l0.055,1.572
	l0.273-0.381l0.355-0.06l0.479,0.073l0.213,0.556l0.072-1.89c0,0,0.423-2.322,0.526-2.883c0.104-0.562,0.15-1.427,0.15-1.912
	C16.821,39.987,16.677,39.175,16.653,38.956z"/>
<path fill-rule="evenodd" clip-rule="evenodd" fill="#1A1A18" d="M16.042,41.915c-0.057-0.07-0.134-2.531-0.074-2.561
	s0.225,0.127,0.258,0.262c0.035,0.136,0.028,0.613,0.025,0.809c-0.004,0.194-0.021,1.256-0.088,1.35
	C16.097,41.868,16.042,41.915,16.042,41.915S16.109,42.001,16.042,41.915z"/>
<path fill-rule="evenodd" clip-rule="evenodd" fill="#1A1A18" d="M15.819,35.486c-0.08-0.013-0.264-0.075-0.383-0.073
	c-0.121,0.002-0.367,0.045-0.395,0.045s-0.061-0.107,0.025-0.163c0.084-0.057,0.379-0.193,0.464-0.206
	c0.086-0.012,0.12-0.017,0.192,0c0.071,0.018,0.243,0.145,0.287,0.25s0.044,0.209,0.044,0.209S15.897,35.499,15.819,35.486z"/>
<path id="skin-arm-r" fill-rule="evenodd" clip-rule="evenodd" fill="#F9CAA9" d="M30.042,25.894l0.957,0.773
	c0,0,0.064,0.154,0.02,0.195c-0.045,0.04-0.183-0.039-0.183-0.039l-1.03-0.676l-0.086,0.074l0.645,0.476
	c0,0,0.104,0.059,0.035,0.132S30.2,26.796,30.2,26.796s-0.426-0.246-0.595-0.32c-0.171-0.072-0.308-0.121-0.496-0.273
	s-0.332-0.539-0.493-0.721s-2.943-2.91-3.35-3.299c-0.407-0.387-1.223-1.134-1.223-1.134l-0.629-0.587l0.027-0.265l0.314-0.346
	l0.041-0.265l-0.918,0.257l-0.56-0.787l-0.493-0.8l1.17-0.153l1.148-0.265l0.57,0.968l0.561,0.779l1.158,1.456l2.564,3.115
	l0.614,0.074l0.587,0.268l0.421,0.533l0.67,0.7c0,0,0.144,0.18,0.092,0.233c-0.053,0.055-0.183,0.021-0.183,0.021l-0.856-0.726
	l-0.042,0.147l1.033,0.907c0,0,0.117,0.106,0.056,0.215c-0.061,0.107-0.255,0-0.255,0l-1.025-0.758L30.042,25.894z"/>
<path id="player-shirt" fill-rule="evenodd" clip-rule="evenodd" fill="#0068B4" d="M22.335,17.774
	c-0.408,0.072-0.836,0.114-0.836,0.114s-0.113-0.311-0.178-0.544c-0.065-0.233-0.223-1.001-0.287-1.205s-0.151-0.5-0.202-0.718
	c-0.052-0.219-0.11-0.544-0.165-0.765c-0.055-0.221-0.071-0.515-0.164-0.544c-0.128-0.04-0.185-0.078-0.181,0.042
	c0.003,0.12,0.01,0.204,0.04,0.353c0.031,0.149,0.052,0.347,0.09,0.542c0.037,0.195,0.086,0.559,0.144,0.796
	c0.058,0.238,0.353,1.453,0.425,1.779c0.071,0.326,0.072,1.206,0.125,1.5c0.051,0.293,0.208,2.354,0.291,2.75
	c0.031,0.148,0.018,0.291-0.129,0.366c-0.147,0.075-0.742,0.204-1.137,0.25c-0.393,0.046-1.783,0.013-2.121,0.044
	c-0.339,0.031-2.108,0.062-2.352,0.031c-0.242-0.031-0.479-0.195-0.622-0.34s-0.245-0.332-0.283-0.422
	c-0.038-0.091,0.02-0.733-0.023-0.809c-0.042-0.076-0.08-0.141-0.13-0.13s-0.035-0.016-0.124,0.005
	c-0.09,0.02-0.229,0.396-0.235,0.546c-0.004,0.15-0.068,0.632-0.104,0.678c-0.037,0.046-0.091-0.103-0.155-0.179
	s0.083-1.125,0.062-1.729c-0.038-1.083-0.06-3.169-0.062-3.5c-0.004-0.331-0.188-1.458-0.188-1.458l0.055-0.199l0.205-0.43
	l-0.004-0.135l-0.129-0.13l-0.126,0.004l-0.396,0.765l-0.507,0.353l-1.451,1.014l-0.342,0.206c0,0-0.277-0.502-0.438-0.791
	c-0.161-0.288-0.591-1.093-0.74-1.389c-0.215-0.428-0.483-0.991-0.492-1.025c-0.01-0.035,0.752-0.676,0.752-0.676
	s1.997-1.613,2.263-1.832s0.75-0.551,1.016-0.755c0.266-0.205,0.723-0.537,1.021-0.667c0.297-0.13,0.988-0.453,1.395-0.562
	s1.428-0.391,1.631-0.375c0.158,0.012,0.383,0.086,0.547,0.141s0.359,0.104,0.766,0.172c0.469,0.078,0.918,0.115,1.109,0.125
	c0.191,0.011,0.271-0.053,0.375,0.016c0.141,0.094,0.605,0.39,0.797,0.547c0.191,0.158,0.933,0.808,1.141,1.016
	c0.209,0.208,0.562,0.609,0.766,1.031c0.204,0.423,0.377,0.757,0.516,1.375c0.141,0.625,0.616,3.339,0.616,3.339l0.149,0.804
	l0.004,0.134c0,0-0.311,0.176-0.68,0.236C23.281,17.597,22.335,17.774,22.335,17.774L22.335,17.774
	C22.335,17.774,22.743,17.702,22.335,17.774z"/>
<path fill-rule="evenodd" clip-rule="evenodd" fill="#1A1A18" d="M17.553,21.711c-0.021,0.104-0.032,0.158-0.122,0.139
	c-0.09-0.019-0.451-2.826-0.461-2.951c-0.012-0.126,0.194-0.41,0.236-0.547c0.039-0.137,0.118-3.142,0.154-3.242
	c0.036-0.1,0.03-0.177,0.123-0.139c0.091,0.039-0.021,3.972-0.006,4.181C17.491,19.361,17.553,21.711,17.553,21.711
	S17.573,21.606,17.553,21.711z"/>
<path id="skin-arm-l" fill-rule="evenodd" clip-rule="evenodd" fill="#F9CAA9" d="M9.129,15.756c0,0.076,0.089,0.204,0.092,0.353
	c0.003,0.149,0.028,0.339,0.028,0.339l-0.274,0.234L7.032,17.8c0,0-2.221,1.071-2.389,1.169c-0.167,0.098-0.938,0.484-0.938,0.484
	s-0.432,0.337-0.536,0.38c-0.104,0.042-0.603,0.207-0.703,0.184c-0.099-0.024-0.318-0.124-0.4-0.155
	c-0.083-0.031-0.061-0.109-0.106-0.15c-0.045-0.042-0.134-0.179-0.233-0.169c-0.1,0.009-0.147-0.002-0.247,0.055
	c-0.099,0.057-0.058,0.119-0.072,0.177c-0.014,0.057-0.041,0.222,0,0.287s0.274,0.303,0.288,0.375
	c0.014,0.072-0.013,0.104-0.061,0.11c-0.048,0.006-0.319-0.112-0.41-0.163c-0.09-0.051-0.105-0.202-0.159-0.318
	c-0.054-0.116-0.057-0.382-0.015-0.484c0.043-0.102,0.029-0.173,0.09-0.248s0.087-0.186,0.198-0.248
	c0.11-0.062,0.583-0.149,0.583-0.149l0.739-0.022l0.51-0.137l4.612-3.528l0.561-0.455l0.896-0.772l1.047,1.986
	c0,0-0.435,0.188-0.523,0.183c-0.088-0.005-0.426-0.387-0.511-0.438C9.17,15.7,9.129,15.681,9.129,15.756z"/>
<path id="player-shorts" fill-rule="evenodd" clip-rule="evenodd" fill="#FFFFFF" d="M23.62,30.953
	c-0.105-0.36-0.236-0.846-0.335-1.346c-0.099-0.499-0.243-1.132-0.391-1.742c-0.146-0.61-0.399-1.58-0.479-1.955
	c-0.078-0.375-0.271-1.204-0.318-1.333c-0.047-0.13-0.149-0.498-0.166-0.593c-0.018-0.096-0.135-0.243-0.227-0.243
	s-0.25,0-0.35,0.022c-0.099,0.022-0.898,0.048-1.019,0.027c-0.12-0.02-0.422,0.02-0.524,0.007c-0.102-0.012-0.146-0.007-0.213-0.061
	c-0.067-0.055-0.166-0.119-0.131-0.211c0.036-0.094,0.111-0.104,0.189-0.099c0.079,0.005,1.373-0.024,1.513-0.062
	c0.142-0.036,0.339-0.184,0.37-0.264c0.031-0.081-0.075-0.473-0.215-0.448c-0.141,0.023-0.746,0.188-1.059,0.212
	c-0.311,0.023-1.029,0.033-1.231,0.05s-1.317,0.074-1.602,0.06c-0.284-0.014-1.618,0.06-1.766,0.031
	c-0.146-0.029-1.071-0.303-1.19-0.306c-0.12-0.003-0.446-0.036-0.461,0.032c-0.015,0.067-0.155,0.357-0.099,0.426
	c0.056,0.068,0.187,0.066,0.319,0.082c0.134,0.016,0.582,0.139,0.807,0.186c0.244,0.051,0.434,0.039,0.428,0.125
	c-0.006,0.087-0.204,0.278-0.296,0.301c-0.093,0.021-1.137-0.22-1.231-0.158c-0.094,0.062-0.187,0.236-0.222,0.414
	c-0.036,0.178-0.104,0.912-0.146,1.5s-0.041,1.289-0.035,1.667c0.008,0.377,0.056,1.708,0.072,1.968
	c0.018,0.262-0.012,1.055-0.018,1.746s-0.018,1.655-0.02,1.823c-0.003,0.349-0.062,0.948-0.003,1.019
	c0.058,0.069,0.698,0.088,0.698,0.088s0.543,0.033,0.842,0.066c0.297,0.033,1.303,0.113,1.602,0.132
	c0.297,0.019,0.947,0.04,1.149,0.044s0.575-0.066,0.575-0.066l0.037-0.503l0.023-0.59c0,0,0.012-0.413,0.027-0.485
	c0.018-0.072,0.133-0.076,0.22,0.059c0.085,0.135,0.052,0.156,0.082,0.308c0.03,0.15,0.123,0.546,0.123,0.546
	s1.079-0.337,1.386-0.439c0.438-0.147,1.246-0.427,1.588-0.545c0.342-0.117,0.52-0.19,0.671-0.25
	c0.15-0.059,0.181-0.036,0.219-0.102c0.021-0.035,0.064-0.391,0.123-0.559c0.058-0.17,0.161-0.102,0.233,0
	c0.071,0.1,0.238,0.406,0.277,0.467c0.037,0.062,0.29,0.027,0.355,0c0.064-0.026,0.078-0.026,0.074-0.127
	C23.878,31.774,23.727,31.313,23.62,30.953z M19.528,28.187l-0.307,0.051l-0.665,0.25l-0.138,0.338l-0.061,0.353l0.006,0.561
	l-0.082-0.177l-0.085-0.502l-0.112-0.149l-0.072-0.06l-0.711-0.086l-1.125-0.07l-0.219-0.037l0.056-0.172l0.228-0.234l0.826,0.146
	l0.934-0.233l-0.01-0.405l0.026-0.42l0.277-0.274l0.228,0.583l0.293,0.131l0.291,0.027l0.378-0.072l0.259,0.244L19.528,28.187z"/>
</svg>
