<?xml version="1.0" encoding="utf-8"?>
<!-- Generator: Adobe Illustrator 16.0.4, SVG Export Plug-In . SVG Version: 6.00 Build 0)  -->
<!DOCTYPE svg PUBLIC "-//W3C//DTD SVG 1.1//EN" "http://www.w3.org/Graphics/SVG/1.1/DTD/svg11.dtd">
<svg version="1.1" id="Ebene_1" xmlns="http://www.w3.org/2000/svg" xmlns:xlink="http://www.w3.org/1999/xlink" x="0px" y="0px"
	 width="30.634px" height="50.583px" viewBox="0 0 30.634 50.583" enable-background="new 0 0 30.634 50.583" xml:space="preserve">
<path fill-rule="evenodd" clip-rule="evenodd" fill="#1A1A18" d="M29.71,24.302l-0.7-0.497l-0.982-0.524l-1.714-2.426L25,18.937
	l-1.217-1.932c0,0,0.073-0.112,0.079-0.182s-0.239-0.387-0.521-0.875c-0.281-0.489-0.792-1.4-1.104-1.959s-0.768-1.479-1.084-2.083
	c-0.371-0.712-0.625-1.146-0.812-1.375c-0.258-0.317-0.672-0.542-0.891-0.683c-0.172-0.11-0.566-0.276-0.758-0.355
	c-0.158-0.066-0.539-0.189-0.73-0.225c0.045-0.135,0.064-0.24,0.129-0.326c0.269,0.083,0.53,0.088,0.688,0.047
	c0.297-0.078,0.375-0.234,0.473-0.461c0.068-0.156,0.142-0.547,0.282-1c0.036-0.118,0.11-0.512,0.25-0.562
	c0.172-0.062,0.303-0.095,0.359-0.188c0.091-0.149-0.027-0.445-0.047-0.484c-0.109-0.219-0.135-0.32-0.203-0.484
	c0.081-0.041,0.227-0.156,0.227-0.156s-0.14-0.012-0.213-0.02l0.124-0.506l0.107-0.24c0,0,0.156,0.062,0.438,0.094
	c0.209,0.023,0.496-0.084,0.469-0.156c-0.098-0.26-0.229-0.336-0.297-0.562c0.4,0.027,0.83-0.161,0.521-0.344
	c-0.434-0.34-0.498-0.467-0.631-0.641c-0.053-0.066-0.6-0.984-0.859-1.203c-0.576-0.482-1.076-0.689-1.494-0.812
	c-0.216-0.064-0.823-0.177-1.532-0.094c-0.406,0.047-0.805,0.153-1.134,0.28c-0.132-0.073-0.28,0.005-0.305-0.03
	c-0.213-0.303-0.458-0.463-0.64-0.562c-0.163-0.091-0.563-0.172-0.813-0.125c-0.361,0.068-0.51,0.138-0.765,0.312
	c-0.204,0.141-0.516,0.578-0.719,1.266c-0.102,0.346-0.232,0.815-0.423,1.406c-0.11,0.343-0.255,0.768-0.39,1.125
	c-0.235,0.625-0.345,0.984-0.329,1.375c0.016,0.385,0.003,0.463,0.067,0.766c0.082,0.385,0.34,0.344,0.34,0.344
	c-0.016,0.109,0.273,0.252,0.344,0.297c0.125,0.078,0.359-0.015,0.312-0.219c0.139,0.275,0.234,0.359,0.234,0.359
	c0.109,0.047,0.438,0.219,0.391-0.109c0.107,0.447,0.375,0.312,0.438,0.047c-0.007-0.058,0.07-0.458,0.187-0.672
	c0.074-0.137,0.264-0.541,0.359-0.719c0.188,0.656,0.434,1,0.688,1.297c0.188,0.219,0.198,0.352,0.37,0.68
	c0.054,0.102,0.049,0.242,0.033,0.375h-0.002c0,0-0.25,0.031-1,0.109c-0.654,0.068-1.257,0.16-1.547,0.25
	c-0.453,0.141-0.922,0.531-1.25,0.891c-0.24,0.264-0.682,0.911-0.953,1.344c-0.234,0.375-0.727,1.169-0.891,1.516
	s-0.531,1.031-0.734,1.438c-0.166,0.334-0.838,1.913-0.838,1.913l0.042,0.11l0.104,0.102l-0.715,1.823L6.59,19.032l-1.484,2.089
	l-1.479,2.006l-0.523,0.71L2.519,24.23L1.84,25.068L0.998,26.06c0,0-0.269,0.475-0.254,0.613c0.016,0.139,0.055,0.266,0.09,0.291
	c0.036,0.023,0.266,0.108,0.33,0.155c0.062,0.047,0.155,0.093,0.225,0.121c0.07,0.027,0.227-0.049,0.227-0.049
	s0.051,0.132,0.248,0.097c0.197-0.034,0.801-0.505,0.801-0.505l0.965-0.617c0,0,0.373-0.27,0.49-0.414
	c0.118-0.145,0.287-0.75,0.287-0.75l0.719-0.816l1.006-0.947l1.355-1.39l1.211-1.214l0.686-1.019l0.725-1.265l0.514-0.799
	l0.531,0.084c0,0-0.35,0.847-0.688,1.771c-0.312,0.854-0.609,1.614-0.609,1.614s-0.146,0.325-0.141,0.469s0.012,0.194,0.012,0.194
	s-0.141,0.118-0.233,0.291s-0.183,0.595-0.167,0.68c0.017,0.085-0.051,0.341-0.174,0.44c-0.125,0.1-0.329,0.295-0.426,0.424
	c-0.096,0.129-0.685,1.073-0.931,1.471c-0.246,0.396-0.767,1.278-1.013,1.675c-0.246,0.398-0.396,0.669-0.547,0.908
	c-0.151,0.24-0.861,1.363-1.115,1.771c-0.254,0.409-0.668,1.174-0.721,1.254c-0.054,0.081-0.098,0.17-0.109,0.25
	c-0.014,0.081,0.203,0.238,0.203,0.238s-0.627,1.1-0.744,1.516C3.635,33.016,3.572,33.6,3.59,33.75
	c0.018,0.148,0.162,0.387,0.264,0.531c0.102,0.143,0.543,0.599,0.543,0.599l0.311,0.312l0.034,0.251c0,0-0.193,0.652-0.301,0.884
	C4.332,36.56,4.046,37.01,4.046,37.01s-0.425,0.652-0.657,1.02c-0.189,0.299-0.328,0.568-0.391,0.851
	c-0.062,0.282-0.041,0.665-0.031,0.87c0.012,0.205,0,0.35,0.082,0.602c0.08,0.251,0.232,0.434,0.375,0.541s0.41,0.209,0.717,0.225
	c0.308,0.016,0.447-0.027,0.635-0.102c0.188-0.075,0.289-0.197,0.484-0.408s0.344-0.38,0.523-0.699
	c0.179-0.32,0.465-0.695,0.746-1.125s0.898-1.162,0.898-1.162s0.287-0.365,0.479-0.53c0.19-0.164,0.412-0.288,0.656-0.575
	c0.244-0.288,0.345-0.472,0.465-0.823c0.141-0.411,0.212-0.751,0.165-1.132c-0.052-0.416-0.245-0.623-0.425-0.779
	S8.396,33.51,8.396,33.51l0.012-0.213l0.154-0.119c0,0,0.228,0.061,0.301,0.074c0.232,0.044,0.408,0.059,0.52,0.021
	c0.11-0.037,0.834-1.279,0.834-1.279s-0.053,0.375-0.08,0.61s-0.098,0.698-0.15,1.044c-0.055,0.346-0.222,1.354-0.18,1.404
	c0.043,0.051,0.408,0.082,0.426,0.154c0.027,0.117,0,0.338-0.036,0.83c-0.024,0.348-0.103,0.662-0.103,0.662l-0.145,0.16
	c0,0-0.629,0.58-0.748,0.889c-0.119,0.311-0.221,1.049-0.279,1.136s-0.408,0.7-0.562,1.084c-0.153,0.385-0.783,2.251-0.962,2.796
	c-0.178,0.543-0.872,2.497-0.872,2.497s-0.409,0.526-0.501,0.624c-0.092,0.099-0.361,0.453-0.445,0.584
	c-0.084,0.132-0.547,1.383-0.589,1.609c-0.043,0.229-0.131,0.605-0.072,0.719c0.058,0.112,0.302,0.291,0.302,0.291
	s0.01,0.229,0.026,0.297s0.161,0.107,0.22,0.117c0.057,0.01,0.104-0.104,0.104-0.104l0.418,0.188l0.354,0.1
	c0,0,0.037,0.12,0.08,0.156c0.045,0.037,0.23,0.022,0.302,0c0.071-0.021,0.128-0.173,0.128-0.173l0.508-0.167
	c0,0,0.049,0.138,0.105,0.143c0.059,0.004,0.145,0.016,0.244-0.029S7.879,49.4,7.879,49.4s0.163-0.051,0.369-0.124
	c0.205-0.073,0.424-0.25,0.424-0.25s0.038,0.108,0.096,0.103c0.058-0.004,0.229-0.053,0.273-0.117s0.047-0.291,0.047-0.291
	s0.227-0.15,0.336-0.268c0.11-0.117,0.234-0.616,0.248-0.815c0.013-0.198-0.24-0.468-0.318-0.518
	c-0.079-0.049-0.338-0.125-0.428-0.153s-0.496-0.16-0.496-0.16l0.223-0.506c0,0,0.543-0.943,1.073-1.832
	c0.563-0.944,1.063-1.813,1.177-1.984c0.221-0.331,0.887-1.739,1.114-2.193c0.228-0.453,0.335-0.452,0.5-0.887
	c0.165-0.434,0.192-1.168,0.192-1.168s0.253-0.57,0.414-0.797c0.135-0.189,0.576-0.544,0.791-0.851
	c0.216-0.307,0.491-0.64,0.491-0.64s0.628,0.066,0.862,0.045c0.234-0.023,0.767-0.236,0.822-0.316
	c0.057-0.081,0.041-1.765,0.041-2.279c0-0.514,0.055-1.221,0.137-1.926c0.083-0.705,0.329-2.19,0.426-2.867
	c0.096-0.676,0.301-1.838,0.328-2.352c0.027-0.515,0.053-0.956,0.032-1.021c-0.019-0.066-0.073-0.154,0.036-0.199
	c0.109-0.043,0.236-0.199,0.262-0.496s-0.133-0.566-0.133-0.566s0.062,0.053,0.215-0.168c0.154-0.221,0.166-0.678,0.323-1.354
	c0.157-0.677,0.341-1.586,0.5-2.354c0.172-0.828,0.446-1.81,0.562-2.354c0.146-0.688,0.229-0.812,0.229-0.812l0.369,0.609
	c0.203,0.344,0.328,0.5,0.484,0.75c0.142,0.226,0.743,1.131,0.84,1.211c0.098,0.081,0.328-0.096,0.219,0
	c-0.107,0.096,0.576-0.441,0.576-0.441l0.219,0.189l0.684,0.603l1.67,1.759l1.65,1.727l0.79,0.729l0.337,0.348l0.158,0.305
	l0.248,0.389l0.271,0.254l0.531,0.158l0.168,0.049l-0.135,0.193l0.102,0.305l0.509,0.169l0.214,0.013l0.52-0.121l0.26-0.34
	l0.158-0.583L29.71,24.302z"/>
<path id="skin-face" fill-rule="evenodd" clip-rule="evenodd" fill="#F9CAA9" d="M15.434,8.927c-0.016,0.156,0.482,0.25,1.109,0.344
	c0.312,0.047,0.938,0.109,0.985,0C17.645,9,17.84,8.568,17.84,8.568s0.316,0.049,0.453,0.08c0.166,0.061,0.332,0.059,0.455-0.016
	c0.151-0.091,0.205-0.105,0.343-0.484c0.079-0.219,0.159-0.604,0.198-0.746c0.037-0.143,0.146-0.46,0.217-0.581
	c0.031-0.054,0.261-0.032,0.318-0.113c0.072-0.101-0.029-0.302-0.029-0.302s-0.146-0.298-0.215-0.469
	c-0.117-0.014-0.263-0.031-0.309-0.051c-0.077-0.035-0.312-0.211-0.299-0.225c0.245,0.121,0.231,0.076,0.349,0.079
	c0.03,0.003,0.192-0.058,0.247-0.058c0.029-0.128,0.074-0.285,0.074-0.285l0.001-0.004c-0.066-0.016-0.138-0.02-0.228-0.02
	c-0.09,0.015-0.272,0.061-0.319,0.063c-0.015-0.021,0.271-0.14,0.308-0.167c0.033-0.025,0.23-0.04,0.277-0.043l0.076-0.203
	l0.092-0.137c0,0-0.393,0.076-0.531,0.061c-0.176-0.018-0.363-0.061-0.363-0.061s0,0.273-0.045,0.395
	c-0.076,0.288-0.137,0.455-0.243,0.773c-0.081,0.241-0.189,0.572-0.318,0.742c-0.067,0.09-0.006,0.014-0.212,0.106
	c-0.09,0.04-0.102-0.2-0.137-0.333c-0.059-0.223-0.131-0.426-0.232-0.551c-0.094-0.117-0.327-0.207-0.467-0.184
	c-0.098,0.018-0.329,0.015-0.289,0.463c0.025,0.286,0.27,0.573,0.391,0.756c0.086,0.129,0.014,0.31-0.489,0.561
	c-0.455,0.228-0.5,0.213-0.91,0.425c-0.337,0.175-0.559,0.515-0.559,0.515S15.448,8.787,15.434,8.927z M19.04,7.517l0.052,0.105
	c-0.038,0.068-0.101,0.133-0.183,0.08C18.868,7.56,18.985,7.56,19.04,7.517z M17.43,6.093l0.162,0.64
	C17.592,6.733,17.174,6.419,17.43,6.093z"/>
<path fill="#FFFFFF" d="M14.465,3.279c-0.062,0.162,0.172-0.016,0.469-0.25c0.283-0.225,0.391-0.475,0.48-0.797
	c0.029-0.107,0.042-0.196,0.043-0.267c0.002-0.077,0.008-0.165-0.027-0.161c-0.074,0.006-0.094-0.033-0.125,0.084
	c-0.072,0.27-0.184,0.496-0.266,0.641C14.844,2.874,14.514,3.153,14.465,3.279z"/>
<path id="hair" fill-rule="evenodd" clip-rule="evenodd" fill="#F7DD7F" d="M14.147,5.882c0.153,0.611,0.291,0.979,0.765,1.576
	c0.096,0.119,0.357,0.689,0.414,0.689c0.066,0,0.414-0.383,0.857-0.551c0.303-0.115,0.864-0.396,0.849-0.506
	c-0.011-0.079-0.423-0.441-0.28-1.164c0.078-0.305,0.242-0.414,0.428-0.436c0.036-0.002,0.072-0.004,0.106-0.002
	c0.017,0,0.034,0,0.051,0.002c0.064,0.006,0.126,0.018,0.181,0.033c0.008,0.002,0.014,0.004,0.021,0.006
	c0.058,0.018,0.111,0.038,0.156,0.061c0.306,0.152,0.459,0.551,0.52,0.857c0.029,0.145,0.135-0.28,0.322-0.827
	c0.072-0.21,0.168-0.577,0.184-0.751c0.018-0.206-0.037-0.553,0.082-0.459c0.07,0.073,0.555,0.261,0.949,0.168
	c-0.336-0.259-0.199-0.178-0.154-0.214c0.094-0.073,0.448,0.399,1.027,0.353c-0.171-0.199-0.439-0.885-0.307-0.812
	c0.168,0.093,0.275,0.123,0.535,0.093c0.062,0.015-0.266-0.177-0.428-0.46c-0.125-0.217-0.289-0.489-0.484-0.755
	c-0.002-0.003-0.005-0.009-0.006-0.011c-0.245-0.443-0.749-0.792-1.041-0.949c-0.294-0.156-0.666-0.346-1.438-0.367
	c-0.69-0.02-1.243,0.161-1.641,0.305c-0.092,0.032-0.016,0.399-0.152,0.798c-0.051,0.144-0.157,0.42-0.414,0.612
	c-0.307,0.23-0.506,0.367-0.781,0.475c-0.031,0.013-0.03,0.377-0.076,0.904C14.361,4.902,14.27,5.422,14.147,5.882z M15.373,3.845
	c0.235-0.185,0.031,0.137-0.107,0.551c-0.146,0.445-0.204,0.973-0.201,0.84C15.082,4.427,14.926,4.193,15.373,3.845z"/>
<path id="hair-p" fill="#F7DD7F" d="M11.724,5.144c0.179-0.498,0.466-1.131,0.763-2.256c0.268-1.012,0.498-1.404,0.781-1.625
	c0.17-0.132,0.321-0.232,0.609-0.281C14.611,0.857,15,1.451,15.109,1.623c0,0-0.078,0.25-0.154,0.391
	c-0.268,0.496-0.314,0.547-0.58,0.875c-0.07,0.088-0.122,0.152-0.166,0.221c-0.116,0.102-0.34,0.308-0.442,0.467l0.355-0.027
	c-0.008,0.221-0.022,0.558-0.11,1.193c-0.094,0.797-0.151,1.006-0.37,1.49c-0.219,0.531-0.406,0.641-0.531,1.172
	c0.043-0.183-0.202-0.438-0.249-0.672c0,0-0.247,0.729-0.172,0.797c-0.312-0.281-0.314-0.583-0.344-0.875
	c0,0-0.422,0.375-0.297,0.703c-0.025-0.025-0.184-0.107-0.231-0.322c-0.041-0.184,0.027-0.493,0.043-0.615
	c0,0-0.3,0.275-0.234,0.547C11.453,6.253,11.501,5.763,11.724,5.144z"/>
<path id="skin-leg-l" fill-rule="evenodd" clip-rule="evenodd" fill="#F9CAA9" d="M4.258,33.797c0,0,0.68-0.566,0.896-0.662
	c0.218-0.096,0.561-0.237,0.561-0.237s0.052-0.302,0.079-0.376c0.018-0.049,0.029-0.09,0.133-0.041
	c0.104,0.051,0.495,0.229,0.573,0.243c0.078,0.014,1.09-0.009,1.09-0.009s-1.204-0.492-1.505-0.625
	c-0.301-0.132-0.481-0.234-0.672-0.353c-0.19-0.117-0.546-0.367-0.546-0.367s-0.045,0.079-0.16,0.289
	c-0.113,0.21-0.43,0.726-0.552,1.049c-0.123,0.323-0.136,0.745-0.095,0.88C4.101,33.723,4.258,33.797,4.258,33.797z"/>
<path fill-rule="evenodd" clip-rule="evenodd" fill="#FFFFFF" d="M3.656,39.018l0.25,0.016l0.244,0.152l-0.023,0.403l-0.635,0.093
	c0,0-0.01,0.378,0.094,0.547c0.104,0.168,0.01,0.168,0.234,0.285c0.226,0.118,0.568,0.07,0.753,0.051
	c0.185-0.021,0.397-0.207,0.523-0.371s0.54-0.775,0.688-1.036s0.844-1.563,0.844-1.563l0.126,0.008l-1.067-1.15
	c0,0-1.594,1.439-1.727,1.642c-0.135,0.202-0.379,0.505-0.414,0.647s-0.023,0.402-0.023,0.402L3.656,39.018L3.656,39.018z"/>
<path id="player-sock-l" fill-rule="evenodd" clip-rule="evenodd" fill="#0068B4" d="M5.164,34.66
	c0.086,0.032,0.195-0.013,0.251,0.018c0.054,0.029,0.603-0.531,0.889-0.721c0.287-0.188,1.18-0.441,1.192-0.492
	c0.012-0.051-0.168-0.285-0.235-0.286c-0.066-0.001-0.521-0.097-0.753-0.049c-0.231,0.048-0.824,0.216-1.157,0.464
	c-0.333,0.246-0.771,0.525-0.729,0.584c0.04,0.059,0.511,0.162,0.557,0.214c0.045,0.051-0.006,0.134-0.006,0.134
	S5.077,34.627,5.164,34.66z"/>
<polygon fill-rule="evenodd" clip-rule="evenodd" fill="#FFFFFF" points="6.558,36.644 7.154,37.224 7.287,37.098 7.059,36.676 
	5.979,35.795 5.854,35.787 5.846,35.922 6.558,36.644 "/>
<path fill-rule="evenodd" clip-rule="evenodd" fill="#FFFFFF" d="M7.34,36.239c0.127,0.114,0.213,0.29,0.306,0.35
	s0.267,0.073,0.267,0.073s0.432-0.367,0.641-0.727c0.279-0.479,0.166-1.261,0.08-1.406c-0.084-0.146-0.174-0.332-0.334-0.408
	s-0.399-0.105-0.596-0.039c-0.195,0.066-0.824,0.41-0.988,0.576c-0.165,0.166-0.473,0.521-0.394,0.615
	C6.4,35.369,7.34,36.239,7.34,36.239S7.213,36.125,7.34,36.239z"/>
<polygon id="skin-leg-r" fill="#F9CAA9" points="11.9,35.574 10.668,35.287 10.644,35.625 10.566,36.545 10.51,36.945 
	11.371,37.437 12.246,37.613 12.373,37.807 12.713,37.203 13.356,36.513 13.83,35.883 12.701,35.707 "/>
<polygon fill-rule="evenodd" clip-rule="evenodd" fill="#1A1A18" points="12.234,36.807 11.932,36.836 11.52,36.805 11.331,36.513 
	11.535,36.498 11.755,36.586 12.016,36.639 "/>
<path id="player-sock-r" fill="#0068B4" d="M9.663,38.717c0.008,0.15,0.204,0.161,0.25,0.244s-0.034,0.189-0.11,0.232
	c-0.077,0.041-0.176,0.021-0.359,0.171c-0.184,0.15-0.367,0.351-0.562,0.721s-0.657,1.617-0.657,1.617s-0.958,2.853-1.044,3.09
	s-0.336,0.892-0.311,0.938c0.023,0.047,0.3,0.075,0.373,0.172c0.074,0.096,0.191,0.825,0.242,0.887s0.364-0.019,0.428-0.053
	c0.062-0.033,0.284-0.682,0.284-0.682s0.763-1.292,1.16-1.938c0.397-0.647,1.306-2.22,1.515-2.61
	c0.209-0.389,0.741-1.483,0.763-1.643c0.022-0.157-0.158-0.434-0.103-0.479c0.057-0.047,0.3,0.05,0.391,0.038
	c0.09-0.011,0.225-0.327,0.273-0.499c0.049-0.174,0.008-0.277-0.047-0.49s-0.112-0.307-0.227-0.349
	c-0.115-0.04-0.479-0.08-0.66-0.148s-0.365-0.152-0.52-0.235s-0.362-0.281-0.463-0.263c-0.102,0.019-0.447,0.364-0.534,0.573
	S9.654,38.567,9.663,38.717z"/>
<path id="skin-arm-l" fill-rule="evenodd" clip-rule="evenodd" fill="#F9CAA9" d="M1.584,25.929l-0.418,0.607
	c0,0-0.035,0.06-0.021,0.108c0.013,0.05,0.113-0.012,0.113-0.012l0.574-0.558l0.057,0.109l-0.53,0.545c0,0-0.001,0.035,0.057,0.073
	s0.112-0.048,0.112-0.048l0.554-0.425l0.136,0.048l-0.451,0.412c0,0-0.027,0.034,0.045,0.057c0.072,0.023,0.383-0.193,0.383-0.193
	l0.498-0.364l0.271-0.202l0.192-0.109c0,0,0.35-0.219,0.463-0.34c0.113-0.12,0.203-0.375,0.203-0.375l0.17-0.426l0.212-0.211
	l1.747-1.84l2.092-2.041l0.328-0.42l0.575-0.783l0.356-0.617H8.78l-0.041-0.25l0.466-0.133L9.67,18.25l0.41-0.722L9.504,17.22
	l-0.405-0.228L8.41,16.607l-0.111-0.055L7.84,17.615L7.486,18.49l-1.447,1.86l-2.523,3.579l-0.249,0.279L2.928,24.39l-0.361,0.34
	l-0.338,0.448l-0.306,0.376L1.584,25.929z"/>
<path id="player-shirt" fill-rule="evenodd" clip-rule="evenodd" fill="#0068B4" d="M10.23,16.999l0.74,0.162l0.191-0.411
	l0.684-1.455l0.205-0.59l0.107-0.392c0,0,0.18-0.276,0.317-0.181c0.138,0.095,0.083,0.228,0.042,0.404
	c-0.041,0.176-0.124,0.507-0.124,0.507l-0.179,0.556l-0.562,1.725c0,0-0.699,1.869-0.916,2.521
	c-0.219,0.656-0.612,1.415-0.584,1.552c0.029,0.136-0.002,0.182,0.148,0.3s0.718,0.382,0.718,0.382l1.021,0.448
	c0,0,1.218,0.537,1.601,0.655c0.383,0.117,1.479,0.264,1.738,0.309c0.26,0.044,0.457,0.024,0.619,0.027
	c0.16,0.002,0.34-0.412,0.428-0.572c0.089-0.161,0.178-0.727,0.223-0.782s0.159-0.091,0.159-0.091s0.054-0.016,0.12,0.039
	s0.08,0.473,0.094,0.602c0.014,0.131-0.041,0.812-0.041,0.812s0.068,0.035,0.172-0.082c0.104-0.117,0.062-0.234,0.188-0.812
	c0.125-0.578,0.497-2.301,0.647-2.932c0.149-0.633,0.546-2.309,0.604-2.584c0.167-0.791,0.269-0.955,0.25-1.172
	c-0.018-0.217,0.011-0.53-0.027-0.586c-0.039-0.057,0.177-0.262,0.315-0.182c0.138,0.081,0.204,0.316,0.232,0.5
	s0.042,0.529,0.042,0.529s-0.057,0.331-0.029,0.412c0.029,0.08,0.756,1.256,0.975,1.609s0.436,0.779,0.519,0.801
	c0.083,0.022,1.384-1.19,1.384-1.19s0.52-0.492,0.725-0.698c0.08-0.08,0.208-0.162,0.264-0.251c0.061-0.097-0.043-0.286-0.127-0.438
	c-0.203-0.376-0.604-1-0.75-1.312c-0.146-0.312-1.707-3.447-1.854-3.709c-0.219-0.391-0.55-0.891-1.084-1.209
	c-0.355-0.211-1.396-0.604-1.396-0.604s-0.312,0.021-0.645,0.042c-0.096,0.006-0.753-0.05-0.834-0.062
	c-0.541-0.083-1.003-0.13-1.271-0.292C15.01,9.14,14.98,9.037,14.98,9.037s-0.786,0.057-1.453,0.141
	c-0.578,0.072-0.854,0.125-1.27,0.334c-0.271,0.135-0.739,0.609-0.918,0.854c-0.178,0.244-0.566,0.693-0.895,1.271
	c-0.151,0.266-0.727,1.258-0.875,1.562c-0.149,0.303-0.662,1.349-0.834,1.708S8.34,15.824,8.34,15.824l-0.037,0.129l0.492,0.311
	l1.012,0.545L10.23,16.999z"/>
<path id="player-shorts" fill-rule="evenodd" clip-rule="evenodd" fill="#FFFFFF" d="M4.812,30.744
	c0.041,0.097,0.299,0.303,0.539,0.465c0.24,0.161,0.899,0.513,1.295,0.697c0.396,0.184,0.911,0.354,1.209,0.46
	c0.297,0.106,0.43,0.165,0.72,0.253c0.288,0.089,0.595,0.133,0.595,0.133l1.316-2.213l0.17-0.271c0,0,0.068-0.074,0.137-0.295
	c0.068-0.22,0.111-0.295,0.084-0.449c-0.029-0.152-0.355-0.418-0.493-0.499S9.167,28.34,9.139,28.26
	c-0.029-0.08,0.162-0.125,0.26-0.132c0.138-0.011,0.164-0.036,0.3,0.007c0.138,0.045,0.425,0.258,0.644,0.383
	c0.218,0.125,0.755,0.309,0.85,0.33c0.094,0.023,0.176-0.316,0.205-0.411c0.054-0.169,0.07-0.258,0.164-0.309
	c0.096-0.052,0.302-0.14,0.343-0.089c0.04,0.053-0.067,0.419-0.015,0.529c0.055,0.111,0.084,0.198,0.179,0.295
	c0.095,0.096,0.274,0.139,0.343,0.205c0.066,0.066,0.151,0.08,0.219,0.104c0.066,0.021,0.123,0.213,0.095,0.322
	c-0.028,0.111-0.135,0.125-0.218,0.104c-0.084-0.021-0.164-0.096-0.275-0.117c-0.109-0.021-0.586-0.096-0.67-0.059
	s-0.149,0.065-0.191,0.133c-0.042,0.065-0.122,0.477-0.205,0.676c-0.084,0.198-0.396,0.683-0.452,0.838
	c-0.056,0.154-0.084,0.779-0.084,0.779l-0.356,2.822c0,0,0.645,0.188,0.96,0.272c0.316,0.084,0.922,0.212,1.382,0.294
	c0.575,0.104,1.011,0.162,1.381,0.214c0.372,0.051,0.959,0.117,1.139,0.124c0.178,0.008,0.489-0.117,0.531-0.139
	c0.043-0.023,0.027-0.904,0.042-1.441s0.044-1.772,0.111-2.265c0.067-0.491,0.259-1.933,0.368-2.624
	c0.109-0.69,0.372-2.413,0.398-2.647s0.039-0.484,0.039-0.705s-0.062-0.484-0.062-0.484s-0.053-0.125-0.207-0.21
	s-0.324-0.085-0.469-0.173s-0.326-0.178-0.389-0.236c-0.062-0.058,0.021-0.206,0.185-0.176c0.163,0.029,0.863,0.19,0.944,0.198
	c0.082,0.008,0.192-0.096,0.205-0.198s0.002-0.266-0.082-0.287c-0.083-0.021-1.285-0.186-1.662-0.258
	c-0.379-0.072-1.307-0.193-1.623-0.293c-0.317-0.1-2.553-1.02-2.748-1.143c-0.195-0.122-0.345-0.235-0.447-0.289
	c-0.104-0.053-0.156-0.084-0.213-0.068C10,22.152,9.933,22.253,9.871,22.357c-0.063,0.104-0.083,0.258-0.063,0.397
	c0.021,0.14,0.476,0.263,0.601,0.353c0.125,0.088,0.491,0.227,0.57,0.287c0.129,0.096,0.187,0.146,0.206,0.209
	c0.02,0.062-0.132,0.211-0.315,0.181c-0.186-0.03-0.774-0.235-0.973-0.276c-0.238-0.048-0.389-0.078-0.54,0.041
	c-0.062,0.047-0.182,0.113-0.329,0.293c-0.219,0.27-0.484,0.695-0.615,0.897c-0.219,0.339-1.293,2.116-1.293,2.116
	s-0.65,1.06-0.883,1.442c-0.233,0.383-0.619,0.989-0.789,1.289c-0.17,0.299-0.545,0.908-0.545,0.908S4.773,30.648,4.812,30.744z"/>
<path fill-rule="evenodd" clip-rule="evenodd" fill="#1A1A18" d="M13.756,22.068c0.035,0.143-0.016,0.139,0.084,0.17
	c0.102,0.031,1.149-2.527,1.18-2.748c0.03-0.22-0.107-0.467-0.094-0.601c0.015-0.134,0.611-3.048,0.648-3.208
	s0.001-0.298-0.084-0.17c-0.084,0.127-0.922,3.71-1.03,4.08C14.352,19.96,13.756,22.068,13.756,22.068S13.721,21.925,13.756,22.068z
	"/>
<path fill-rule="evenodd" clip-rule="evenodd" fill="#1A1A18" d="M14.581,29.893c0.154-0.008,0.671-0.255,0.755-0.322
	s0.158-0.475,0.148-0.521c-0.01-0.046-0.07-0.047-0.122-0.039s-0.519,0.382-0.792,0.452s-0.624-0.006-0.682,0.062
	c-0.057,0.067-0.025,0.239,0.049,0.301C14.01,29.885,14.581,29.893,14.581,29.893S14.426,29.9,14.581,29.893z"/>
<polygon id="skin-arm-r" fill-rule="evenodd" clip-rule="evenodd" fill="#F9CAA9" points="23.049,19.179 22.947,19.424 
	22.81,19.513 23.18,20.085 24.452,21.451 26.846,23.878 27.222,24.201 27.374,24.493 27.747,24.896 28.174,25.042 28.478,24.97 
	28.785,24.921 28.984,25.107 29.088,25.398 28.66,25.697 28.66,25.832 29.296,25.692 29.477,25.188 29.344,24.554 28.729,24.072 
	28.198,23.769 27.72,23.429 25.821,20.824 24.055,18.232 23.424,17.365 22.59,18.189 21.866,18.849 22.296,19.144 22.502,19.145 
	22.967,18.893 "/>
<path fill-rule="evenodd" clip-rule="evenodd" fill="#1A1A18" d="M4.652,38.889c0.059-0.08,0.085-0.337,0.011-0.405
	c-0.075-0.068-0.323-0.089-0.375-0.013c-0.052,0.078-0.04,0.211-0.009,0.27s0.195,0.172,0.123,0.14S4.594,38.968,4.652,38.889z"/>
<path fill-rule="evenodd" clip-rule="evenodd" fill="#1A1A18" d="M4.489,40.231c0,0,0.208,0.063,0.278-0.044
	c0.072-0.105-0.017-0.354-0.017-0.354s-0.181-0.15-0.247-0.143c-0.064,0.008-0.254,0.154-0.264,0.316S4.489,40.231,4.489,40.231
	L4.489,40.231z"/>
<path fill-rule="evenodd" clip-rule="evenodd" fill="#1A1A18" d="M5.047,38.227c0.074-0.033,0.129-0.131,0.129-0.131
	s0.031-0.199-0.06-0.244c-0.09-0.045-0.271-0.061-0.308-0.039c-0.036,0.023-0.131,0.133-0.131,0.133s0.029,0.203,0.119,0.273
	C4.885,38.287,4.974,38.258,5.047,38.227z"/>
<path fill-rule="evenodd" clip-rule="evenodd" fill="#1A1A18" d="M5.26,39.582c-0.074,0.037,0.152-0.087,0.186-0.126
	s0.018-0.202-0.049-0.274s-0.307-0.08-0.375-0.012c-0.07,0.066-0.115,0.342-0.012,0.404S5.335,39.543,5.26,39.582z"/>
<path fill-rule="evenodd" clip-rule="evenodd" fill="#1A1A18" d="M5.869,38.364c-0.059-0.052-0.337-0.044-0.377-0.011
	c-0.039,0.031-0.066,0.343-0.009,0.404c0.058,0.061,0.341,0.096,0.375,0.012C5.894,38.684,5.928,38.417,5.869,38.364z"/>
<path fill-rule="evenodd" clip-rule="evenodd" fill="#1A1A18" d="M7.41,35.298c0.113-0.08,0.119-0.418-0.008-0.503
	c-0.126-0.086-0.291-0.026-0.397,0.061c-0.105,0.088-0.063,0.414,0.007,0.467C7.08,35.375,7.298,35.379,7.41,35.298z"/>
<path fill-rule="evenodd" clip-rule="evenodd" fill="#1A1A18" d="M7.92,34.761c0.064-0.063,0.207-0.305,0.119-0.351
	c-0.087-0.047-0.381-0.117-0.5-0.016s-0.028,0.324,0.035,0.366C7.638,34.801,7.855,34.824,7.92,34.761z"/>
<path fill-rule="evenodd" clip-rule="evenodd" fill="#1A1A18" d="M8.14,35.358c0,0,0.147,0.097,0.251,0.007
	c0.104-0.089,0.151-0.457,0.016-0.538c-0.137-0.081-0.142-0.136-0.252-0.009c-0.109,0.127-0.144,0.671-0.144,0.671
	s-0.278-0.109-0.376-0.013c-0.1,0.096-0.081,0.359-0.012,0.404c0.068,0.046,0.297,0.059,0.375,0.012
	C8.078,35.845,8.14,35.358,8.14,35.358z"/>
</svg>
