<?xml version="1.0" encoding="utf-8"?>
<!-- Generator: Adobe Illustrator 16.0.4, SVG Export Plug-In . SVG Version: 6.00 Build 0)  -->
<!DOCTYPE svg PUBLIC "-//W3C//DTD SVG 1.1//EN" "http://www.w3.org/Graphics/SVG/1.1/DTD/svg11.dtd" [
	<!ENTITY ns_flows "http://ns.adobe.com/Flows/1.0/">
	<!ENTITY ns_extend "http://ns.adobe.com/Extensibility/1.0/">
	<!ENTITY ns_ai "http://ns.adobe.com/AdobeIllustrator/10.0/">
	<!ENTITY ns_graphs "http://ns.adobe.com/Graphs/1.0/">
]>
<svg version="1.1" id="Ebene_1" xmlns:x="&ns_extend;" xmlns:i="&ns_ai;" xmlns:graph="&ns_graphs;"
	 xmlns="http://www.w3.org/2000/svg" xmlns:xlink="http://www.w3.org/1999/xlink" xmlns:a="http://ns.adobe.com/AdobeSVGViewerExtensions/3.0/"
	 x="0px" y="0px" width="36px" height="54px" viewBox="0 0 36 54" style="enable-background:new 0 0 36 54;" xml:space="preserve">
<style type="text/css">
<![CDATA[
	.st0{fill-rule:evenodd;clip-rule:evenodd;fill:#1A1A18;}
	.st1{fill-rule:evenodd;clip-rule:evenodd;fill:#FBCDAA;}
	.st2{fill-rule:evenodd;clip-rule:evenodd;fill:#FFFFFF;}
	.st3{fill-rule:evenodd;clip-rule:evenodd;fill:#0068B4;}
]]>
</style>
<path class="st0" d="M0.31,27.57c0,0-0.04,0-0.05-0.09c0-0.1,0.13-0.43,0.22-0.56c0.09-0.13,0.32-0.34,0.41-0.47
	c0.1-0.13,0.45-0.53,0.56-0.66c0.11-0.13,0.29-0.38,0.49-0.47c0.17-0.08,0.52-0.21,0.69-0.23c0.17-0.02,0.41-0.07,0.51-0.12
	c0.1-0.04,1.59-1.68,1.59-1.68l2.04-2.37l0.92-1.09l0.85-1.31c0,0-0.27-0.08-0.31-0.18c-0.04-0.1,0.23-1.27,0.31-1.79
	s0.52-3.49,0.6-3.77s0.18-0.56,0.36-0.84s0.76-1,1.05-1.22C10.82,10.52,12,9.65,12,9.65l0.73-0.52c0,0,0.28-0.16,0.3-0.22
	s0.06-0.73,0.03-0.84s-0.15-0.22-0.15-0.22l-0.26,0.03l-0.17-0.34l-0.43-0.47l-0.28-0.53l-0.46-0.77l-0.18-0.79l-0.4-0.23l0.28-0.59
	l-0.16-0.49l-0.07-0.12l0.53-1.33l0.38-0.47l0.38-0.55l0.18,0.1L12.48,1l0.79-0.2l0.1-0.13l0.86,0.1l0.72,0.21l0.58-0.12L15.67,1
	l0.44,0.08l0.55,0.54l0.39,0.56l0.09,0.36l0.23,0.06l-0.15,0.62l0.35,0.5l-0.24,0.53l0.06,0.48l-0.3,0.79l0.03,0.45L17,6.41
	l-0.32,0.28v0.6L16.53,7.5l0.03,0.21l0.26,0.32l0.88,0.17c0,0,1.72,0.37,2.05,0.5c0.26,0.1,0.73,0.37,1.06,0.61s0.86,0.69,0.86,0.69
	l1.27,1.12c0,0,1.17,1,1.5,1.28s1.07,0.84,1.38,1.11s0.48,0.37,0.51,0.45s-0.09,0.27-0.09,0.27l0.64,0.52l1.08,0.9l0.84,0.61
	l1.96,1.41l1.68,1.22l0.75,0.49c0,0,1.11,0.06,1.27,0.08c0.16,0.02,0.5,0.12,0.66,0.19c0.16,0.07,0.2,0.08,0.29,0.17
	c0.09,0.09,0.32,0.49,0.33,0.64s0.1,0.46,0.01,0.68c-0.09,0.22-0.24,0.49-0.38,0.57c-0.14,0.08-0.54,0.25-0.69,0.25
	c-0.15-0.01-0.28-0.07-0.28-0.07l-0.33-0.48l-0.34-0.01c0,0-0.77-0.17-1.03-0.28c-0.26-0.12-0.76-0.53-0.76-0.53
	s-1.96-0.9-2.23-1.01s-1.4-0.64-1.7-0.78c-0.3-0.14-2.68-1.3-2.8-1.36c-0.3-0.12-0.55-0.2-0.62-0.17s-0.4,0.72-0.56,0.76
	c-0.01,0-0.12,0.01-0.24-0.05c-0.47-0.24-1.28-0.78-1.59-0.97s-0.7-0.44-0.76-0.46c-0.07-0.02-0.07-0.01-0.11,0.11
	s-0.04,1.75-0.06,2.12c-0.02,0.38-0.09,4.19-0.16,4.35s-0.18,0.21-0.18,0.32s0.15,0.34,0.2,0.59c0.05,0.24-0.04,0.48,0,0.61
	c0.03,0.13,0.11,0.29,0.17,0.44c0.12,0.26,0.1,0.7,0.14,0.97c0.04,0.27,0.12,2.27,0.09,2.86s-0.07,1.51-0.08,1.96
	s0.04,3.44,0.07,3.84s0.02,1.33-0.03,1.41c-0.05,0.07-0.55,0.12-0.55,0.12l-0.07,1.67c0,0,0.13,0.54,0.16,0.72
	c0.03,0.17,0,0.48-0.02,0.62s-0.12,0.52-0.12,0.52l0.19,0.69c0,0,0.19,0.89,0.14,1.38c-0.05,0.49-0.12,0.95-0.19,1.3
	s-0.21,0.98-0.32,1.5c-0.11,0.52-0.32,2.05-0.38,2.4c-0.06,0.35-0.18,2.17-0.15,2.33c0.03,0.16,0.11,0.5,0.11,0.5
	s-0.08,0.79-0.06,0.87c0.03,0.07,0.2,0.26,0.31,0.42s0.14,0.39,0.19,0.66s0.06,0.75,0.05,0.88c-0.01,0.12-0.19,0.3-0.19,0.3
	l-0.42,0.07c0,0-0.02,0.22-0.08,0.26c-0.07,0.04-0.39,0.05-0.46,0.02s-0.13-0.23-0.13-0.23l-0.73,0.04c0,0-0.06,0.16-0.11,0.2
	s-0.41,0.02-0.47-0.02c-0.05-0.05-0.13-0.22-0.13-0.22l-0.52-0.12l-0.14-0.16l-0.04-0.37c0,0,0.09-0.81,0.14-1.05
	c0.05-0.24,0.1-0.47,0.1-0.61c0-0.14-0.07-0.5-0.06-0.81c0.01-0.31,0.16-0.89,0.16-0.89s-0.08-1.25-0.16-1.76
	c-0.08-0.51-0.45-2.32-0.52-2.84c-0.07-0.51-0.12-0.92-0.12-1.52c0-0.59,0.07-1.55,0.09-1.67c0.03-0.12,0.07-0.32,0.11-0.52
	c0.04-0.2,0.19-0.61,0.19-0.61s-0.04-0.05-0.12-0.22s-0.06-0.33-0.06-0.58c0-0.25-0.01-0.42,0-0.53s-0.03-0.37-0.03-0.37
	s-0.48-1.19-0.59-1.41s-0.28-0.57-0.28-0.57s-1.11-0.07-1.17-0.12s-0.03-0.51-0.06-0.57s-0.71-0.25-0.71-0.25s-0.39,0.39-0.41,0.5
	s-0.01,0.19,0.03,0.22c0.04,0.03,0.48,0.17,0.68,0.3c0.15,0.09,0.32,0.23,0.4,0.44c0.07,0.21,0.26,0.6,0.18,1.38
	c-0.04,0.41-0.48,1.12-0.56,1.23s-0.37,0.39-0.5,0.59c-0.13,0.21-0.36,0.37-0.46,0.55c-0.11,0.17-0.6,1.01-0.77,1.41
	c-0.18,0.39-0.5,1.09-0.61,1.34c-0.11,0.24-0.29,0.61-0.45,0.84c-0.15,0.23-0.22,0.36-0.46,0.53c-0.24,0.17-0.99,0.43-1.54,0.17
	c-0.3-0.15-0.44-0.3-0.53-0.48c-0.09-0.19-0.11-0.24-0.21-0.61c-0.1-0.37-0.13-0.73-0.11-0.97c0.04-0.52,0.18-0.65,0.3-0.98
	s0.36-0.85,0.47-1.15c0.11-0.29,0.22-0.33,0.3-0.8c0.08-0.47,0.16-0.99,0.16-0.99s0.01-0.19-0.09-0.25
	c-0.1-0.07-0.41-0.26-0.41-0.26s-0.73-0.44-0.83-0.52s-0.2-0.17-0.3-0.49c-0.1-0.32-0.07-0.58-0.04-1.13
	c0.01-0.26,0.2-0.84,0.33-1.28c0.15-0.51,0.29-0.91,0.29-0.91s-0.21-0.12-0.27-0.2s-0.09-0.16-0.05-0.35s0.5-1.63,0.61-2.01
	s0.23-1.14,0.36-1.64s0.35-1.39,0.47-1.88s0.29-1.07,0.38-1.44s0.36-1.52,0.45-1.76s0.33-0.52,0.33-0.52s0.06-0.53,0.23-0.85
	c-0.02-0.15-0.11-0.23-0.19-0.68s0.39-3,0.39-3l0.05-0.4l-0.97,1.45l-0.67,0.73c0,0-1.08,0.92-1.36,1.16s-1.42,1.25-1.42,1.25
	l-1.66,1.41l-0.98,0.91l-0.45,0.42c0,0-0.34,0.56-0.45,0.68c-0.11,0.12-0.27,0.24-0.38,0.35c-0.11,0.11-1.13,0.64-1.29,0.68
	c-0.16,0.04-0.55,0.11-0.55,0.11s-0.3-0.03-0.38-0.01c-0.09,0.02-0.21,0.04-0.46-0.04c-0.08-0.03-0.05-0.27-0.11-0.27
	c-0.05,0-0.12,0.01-0.22,0c-0.1-0.01-0.14-0.06-0.19-0.11s-0.08-0.08-0.09-0.2C0.23,27.92,0.31,27.57,0.31,27.57z"/>
<path id="skin-leg-l" class="st1" d="M9.35,37.5c0,0,0.56-0.73,0.8-0.94s0.58-0.36,0.58-0.36s-0.01-0.35,0.01-0.41
	c0.02-0.06,0.04-0.08,0.14-0.07c0.1,0.01,0.6,0.14,0.69,0.13c0.09-0.01,1.4-0.2,1.46-0.19s0.19,0.02,0.24,0.02
	c0.04-0.01,0.36-0.38,0.36-0.38s-0.54-0.16-0.99-0.32s-1.11-0.38-1.39-0.47s-1.07-0.3-1.09-0.29c-0.02,0.01-0.01-0.43-0.08-0.39
	c-0.07,0.04-0.27,0.36-0.27,0.36l-0.25,0.05c0,0-0.24,0.74-0.3,0.98s-0.31,0.91-0.32,1.22s-0.03,0.74,0.07,0.84S9.35,37.5,9.35,37.5
	z"/>
<path class="st2" d="M9.65,43.04c0,0,0.15-0.05,0.29-0.01s0.2,0.11,0.22,0.22c0.01,0.09,0.05,0.23-0.02,0.34S9.6,43.77,9.6,43.77
	s0.15,0.43,0.22,0.55s0.16,0.22,0.46,0.28c0.2,0.04,0.43,0,0.72-0.14c0.28-0.14,0.51-0.5,0.51-0.5s0.36-0.71,0.56-1.23
	c0.21-0.52,0.63-1.81,0.63-1.81l0.14-0.02l-1.43-0.97l-1.61,2.09c0,0-0.25,0.37-0.31,0.68s0.04,0.51,0.04,0.51L9.65,43.04
	L9.65,43.04z"/>
<path class="st0" d="M10.63,42.77c0.05-0.09,0.04-0.37-0.05-0.43c-0.1-0.06-0.38-0.04-0.43,0.05c-0.04,0.09-0.01,0.23,0.04,0.28
	c0.04,0.06,0.25,0.15,0.16,0.12C10.26,42.78,10.58,42.86,10.63,42.77z"/>
<path class="st0" d="M10.67,44.21c0,0,0.24,0.03,0.31-0.1s-0.08-0.37-0.08-0.37s-0.23-0.13-0.3-0.11c-0.07,0.02-0.26,0.21-0.24,0.38
	S10.67,44.21,10.67,44.21L10.67,44.21z"/>
<path id="player-sock-l" class="st3" d="M10.47,38.17c0.06,0.02,0.29-0.04,0.29-0.04s0.27-0.52,0.79-1s1.3-0.71,1.3-0.71
	s-0.14-0.24-0.32-0.25c-0.18-0.01-0.51,0.01-0.85,0.11c-0.34,0.1-1.02,0.5-1.25,0.72S9.7,37.83,9.7,37.83s0.71,0.02,0.73,0.05
	c0.02,0.03,0.02,0.14,0.02,0.14S10.41,38.14,10.47,38.17z"/>
<path class="st0" d="M10.96,42c0.08-0.05,0.12-0.16,0.12-0.16s0-0.21-0.11-0.25s-0.32-0.01-0.35,0.02
	c-0.04,0.03-0.12,0.16-0.12,0.16s0.07,0.21,0.18,0.27C10.79,42.1,10.89,42.05,10.96,42z"/>
<path class="st0" d="M11.43,43.39c-0.08,0.05,0.16-0.12,0.19-0.17s-0.01-0.22-0.1-0.28c-0.09-0.06-0.36-0.03-0.43,0.05
	c-0.07,0.08-0.07,0.38,0.06,0.43C11.28,43.47,11.51,43.33,11.43,43.39z"/>
<path class="st0" d="M11.91,42c-0.07-0.04-0.39,0.01-0.43,0.06c-0.04,0.04-0.02,0.37,0.06,0.43c0.08,0.05,0.4,0.04,0.43-0.05
	C12,42.33,11.99,42.04,11.91,42z"/>
<path class="st2" d="M12.43,39.93c0,0,0.69,0.46,0.79,0.48c0.09,0.01,0.08-0.07,0.12-0.16c0.05-0.09-0.34-0.39-0.34-0.39
	s-1.22-0.75-1.31-0.75s-0.22,0.08-0.22,0.08s-0.04,0.04,0.02,0.14C11.54,39.44,12.43,39.93,12.43,39.93L12.43,39.93z"/>
<path class="st2" d="M13.23,39.4l0.48,0.37c0,0,0.12-0.06,0.26-0.16s0.54-0.7,0.61-1c0.04-0.17,0.11-0.49,0.05-0.83
	c-0.05-0.26-0.06-0.45-0.23-0.62s-0.24-0.25-0.48-0.31c-0.24-0.05-0.48-0.04-0.71,0.09c-0.23,0.14-0.78,0.55-0.98,0.81
	s-0.42,0.67-0.42,0.67l0.02,0.14L13.23,39.4L13.23,39.4z"/>
<path class="st0" d="M13.14,38.5c0.11-0.11,0.06-0.46-0.09-0.53c-0.16-0.07-0.33,0.03-0.44,0.14s0,0.45,0.08,0.49
	C12.78,38.64,13.02,38.61,13.14,38.5z"/>
<path class="st0" d="M13.62,37.85c0.06-0.08,0.18-0.36,0.08-0.39c-0.11-0.03-0.45-0.05-0.57,0.07c-0.12,0.13,0.02,0.35,0.1,0.38
	S13.56,37.92,13.62,37.85z"/>
<path class="st0" d="M13.97,38.43c0,0,0.18,0.07,0.29-0.04c0.1-0.11,0.09-0.51-0.07-0.57c-0.17-0.06-0.18-0.12-0.29,0.04
	c-0.1,0.15-0.05,0.73-0.05,0.73s-0.33-0.06-0.43,0.05c-0.09,0.12-0.03,0.39,0.05,0.43s0.34,0.01,0.43-0.06S13.97,38.43,13.97,38.43z
	"/>
<path id="skin-leg-r" class="st1" d="M17.16,37.5c0.1,0.21,0.35,0.73,0.35,0.73s0.75-0.14,1.15-0.17s1.6-0.07,1.6-0.07
	s0.11-1.81,0.06-1.81s-2.25,0.19-2.25,0.19l-1.36,0.07c0,0,0.07,0.25,0.14,0.41S17.07,37.28,17.16,37.5z"/>
<path id="player-sock-r" class="st3" d="M17.51,41.08c0.03-0.23,0.15-0.48,0.26-0.69S18,40.03,18,40.03l-0.09-0.14l0,0
	l-0.16-0.08c0,0-0.12-0.19-0.14-0.42s0.03-0.56,0.12-0.65s0.22-0.12,0.55-0.16s1.54-0.08,1.74-0.08c0.2,0,0.32-0.02,0.38,0.05
	c0.06,0.06,0.19,0.37,0.12,0.55c-0.07,0.18-0.23,0.29-0.33,0.38s-0.23,0.1-0.23,0.1s-0.16,0-0.21,0.06s0.02,0.15,0.1,0.22
	c0.2,0.15,0.48,0.14,0.48,0.14s0.07,0.06,0.14,0.19s0.17,0.66,0.19,0.88s0.05,0.47,0.03,0.8s-0.14,1.27-0.22,1.56
	s-0.25,0.99-0.32,1.39s-0.39,3.09-0.39,3.09l-0.06,1.67l-0.31-0.41l-0.41-0.06l-0.55,0.08l-0.24,0.59l-0.08-2.01
	c0,0-0.48-2.47-0.6-3.06s-0.17-1.52-0.17-2.03S17.49,41.31,17.51,41.08z"/>
<path class="st0" d="M18.21,44.22c0.06-0.07,0.15-2.69,0.08-2.72c-0.07-0.03-0.26,0.13-0.29,0.28c-0.04,0.14-0.03,0.65-0.03,0.86
	c0,0.21,0.02,1.34,0.1,1.44C18.15,44.17,18.21,44.22,18.21,44.22S18.14,44.32,18.21,44.22z"/>
<path class="st0" d="M18.47,37.39c0.09-0.01,0.3-0.08,0.44-0.08c0.14,0,0.42,0.05,0.45,0.05s0.07-0.11-0.03-0.17
	c-0.1-0.06-0.43-0.21-0.53-0.22c-0.1-0.01-0.14-0.02-0.22,0c-0.08,0.02-0.28,0.15-0.33,0.27c-0.05,0.11-0.05,0.22-0.05,0.22
	S18.38,37.4,18.47,37.39z"/>
<polygon class="st2" points="19.62,52.45 19.94,52.34 20.03,52.14 19.48,52.24 18.48,52.26 17.98,52.11 18.04,52.31 18.42,52.49 "/>
<path id="skin-arm-l" class="st1" d="M2.23,27.2l-1.09,0.82c0,0-0.07,0.16-0.02,0.21c0.05,0.04,0.21-0.04,0.21-0.04l1.18-0.72
	l0.1,0.08l-0.74,0.5c0,0-0.12,0.06-0.04,0.14s0.23-0.04,0.23-0.04s0.49-0.26,0.68-0.34s0.35-0.13,0.57-0.29
	c0.21-0.16,0.38-0.57,0.56-0.77c0.18-0.19,3.36-3.09,3.82-3.51s1.39-1.21,1.39-1.21l0.72-0.62l-0.03-0.28l-0.36-0.37l-0.05-0.28
	l1.05,0.27l0.64-0.84l0.56-0.85l-1.33-0.16l-1.31-0.28l-0.65,1.03l-0.64,0.83l-1.32,1.55l-2.93,3.31l-0.7,0.08l-0.67,0.28
	l-0.48,0.57L0.8,27.03c0,0-0.16,0.19-0.1,0.25s0.21,0.02,0.21,0.02l0.98-0.77l0.05,0.16l-1.18,0.96c0,0-0.13,0.11-0.06,0.23
	c0.07,0.12,0.29,0,0.29,0l1.17-0.8L2.23,27.2z"/>
<path id="player-jersey" class="st3" d="M11.03,18.57c0.47,0.08,0.96,0.12,0.96,0.12s0.13-0.33,0.2-0.58
	c0.07-0.25,0.25-1.06,0.33-1.28s0.17-0.53,0.23-0.76s0.12-0.58,0.19-0.81s0.08-0.55,0.19-0.58c0.15-0.04,0.21-0.08,0.21,0.04
	s-0.01,0.22-0.05,0.38s-0.06,0.37-0.1,0.58c-0.04,0.21-0.1,0.59-0.16,0.85c-0.07,0.25-0.4,1.54-0.48,1.89
	c-0.08,0.35-0.16,0.77-0.22,1.08s-0.45,3.09-0.42,3.25s0.15,0.5,0.32,0.58s0.85,0.22,1.3,0.27s2.04,0.01,2.42,0.05
	s2.41,0.07,2.68,0.03s0.55-0.21,0.71-0.36s0.28-0.35,0.32-0.45c0.04-0.1-0.02-0.78,0.03-0.86c0.05-0.08,0.09-0.15,0.15-0.14
	s0.04-0.02,0.14,0c0.1,0.02,0.26,0.42,0.27,0.58s0.08,0.67,0.12,0.72c0.04,0.05,0.22-0.2,0.3-0.28c0.07-0.08,0.1-2.46,0.1-2.78
	c0-0.39,0.06-1.84,0.06-2.19s0.03-1.96,0.03-1.96l-0.16-0.3l-0.23-0.46l0-0.14l0.15-0.14l0.14,0l0.45,0.81l0.58,0.38l1.66,1.08
	l0.39,0.22c0,0,0.32-0.53,0.5-0.84c0.18-0.31,0.67-1.16,0.84-1.48c0.25-0.45,0.55-1.05,0.56-1.09s-0.86-0.72-0.86-0.72l-1.91-1.62
	l-0.98-0.88c0,0-0.86-0.8-1.16-1.01s-0.72-0.52-1.06-0.66S17.5,8.52,17.5,8.52l-0.72-0.08c0,0-0.12,0.13-0.27,0.23
	s-0.5,0.25-0.69,0.31s-0.55,0.17-1,0.29c-0.33,0.08-0.67,0.14-0.89,0.15s-0.47,0.02-0.61,0S13.1,9.35,13.1,9.35
	s-0.44,0.27-0.66,0.44s-1.34,0.99-1.57,1.21s-0.87,0.91-0.96,1.09s-0.24,0.4-0.31,0.71s-0.68,4.27-0.68,4.27l-0.17,0.86l0,0.14
	c0,0,0.35,0.19,0.78,0.25S11.03,18.57,11.03,18.57L11.03,18.57C11.03,18.57,10.56,18.49,11.03,18.57z"/>
<path class="st0" d="M16.49,22.75c0.02,0.11,0.04,0.17,0.14,0.15c0.1-0.02,0.51-3,0.53-3.14c0.01-0.13-0.22-0.44-0.27-0.58
	c-0.05-0.15-0.14-3.34-0.18-3.45s-0.04-0.19-0.14-0.15s0.02,4.22,0.01,4.44S16.49,22.75,16.49,22.75S16.47,22.64,16.49,22.75z"/>
<path id="skin-arm-r" class="st1" d="M26.1,16.42c0,0.08-0.1,0.22-0.11,0.38c0,0.16-0.03,0.36-0.03,0.36l0.31,0.25l2.22,1.19
	c0,0,2.54,1.14,2.73,1.24c0.19,0.1,1.07,0.51,1.07,0.51s0.49,0.36,0.61,0.4c0.12,0.04,0.69,0.22,0.8,0.2
	c0.11-0.03,0.36-0.13,0.46-0.16c0.09-0.03,0.07-0.12,0.12-0.16c0.05-0.04,0.15-0.19,0.27-0.18c0.11,0.01,0.17,0,0.28,0.06
	c0.11,0.06,0.07,0.13,0.08,0.19c0.02,0.06,0.05,0.24,0,0.3c-0.05,0.07-0.31,0.32-0.33,0.4c-0.02,0.08,0.02,0.11,0.07,0.12
	c0.05,0.01,0.36-0.12,0.47-0.17c0.1-0.05,0.12-0.21,0.18-0.34s0.06-0.41,0.02-0.51c-0.05-0.11-0.03-0.18-0.1-0.26
	c-0.07-0.08-0.1-0.2-0.23-0.26c-0.13-0.07-0.67-0.16-0.67-0.16l-0.84-0.02l-0.58-0.15l-5.27-3.75L27,15.4l-1.02-0.82l-1.2,2.11
	c0,0,0.5,0.2,0.6,0.2c0.1-0.01,0.49-0.41,0.58-0.47C26.06,16.36,26.1,16.34,26.1,16.42z"/>
<path id="player-shorts" class="st2" d="M9.26,33.55c0,0.11,0.01,0.11,0.09,0.14c0.07,0.03,0.36,0.06,0.41,0
	c0.04-0.07,0.23-0.39,0.32-0.5s0.2-0.18,0.27,0s0.12,0.56,0.14,0.59c0.04,0.07,0.08,0.05,0.25,0.11s0.38,0.14,0.77,0.27
	s1.31,0.42,1.81,0.58c0.35,0.11,1.58,0.47,1.58,0.47s0.11-0.42,0.14-0.58s0-0.18,0.09-0.33c0.1-0.14,0.23-0.14,0.25-0.06
	s0.03,0.52,0.03,0.52l0.03,0.63l0.04,0.54c0,0,0.43,0.07,0.66,0.07s0.97-0.03,1.31-0.05s1.49-0.11,1.83-0.14s0.96-0.07,0.96-0.07
	s0.73-0.02,0.8-0.09s0-0.71,0-1.08c0-0.18-0.02-1.2-0.02-1.94c-0.01-0.73-0.04-1.58-0.02-1.86s0.07-1.69,0.08-2.09
	c0.01-0.4,0.01-1.15-0.04-1.77s-0.12-1.41-0.17-1.59c-0.04-0.19-0.15-0.37-0.25-0.44c-0.11-0.07-1.3,0.19-1.4,0.17
	s-0.33-0.23-0.34-0.32c-0.01-0.09,0.21-0.08,0.49-0.13c0.26-0.05,0.77-0.18,0.92-0.2c0.15-0.02,0.3-0.02,0.37-0.09
	c0.06-0.07-0.1-0.38-0.11-0.45S20.14,23.8,20,23.8c-0.14,0-1.19,0.29-1.36,0.32c-0.17,0.03-1.69-0.05-2.02-0.03s-1.6-0.05-1.83-0.06
	c-0.23-0.02-1.05-0.03-1.41-0.05s-1.05-0.2-1.21-0.23s-0.28,0.39-0.25,0.48s0.26,0.24,0.42,0.28s1.64,0.07,1.73,0.06
	c0.09-0.01,0.18,0.01,0.22,0.11c0.04,0.1-0.07,0.17-0.15,0.22c-0.08,0.06-0.13,0.05-0.24,0.07c-0.12,0.01-0.46-0.03-0.6-0.01
	c-0.14,0.02-1.05-0.01-1.16-0.03s-0.29-0.02-0.4-0.02s-0.24,0.16-0.26,0.26s-0.14,0.49-0.19,0.63s-0.27,1.02-0.36,1.42
	s-0.38,1.43-0.55,2.08s-0.33,1.32-0.45,1.85s-0.26,1.05-0.38,1.43S9.27,33.45,9.26,33.55z M13.99,29.41l0.3-0.26l0.43,0.08
	l0.33-0.03l0.34-0.14l0.26-0.62l0.32,0.29l0.03,0.45l-0.01,0.43l1.06,0.25l0.94-0.16l0.26,0.25l0.06,0.18l-0.25,0.04l-1.29,0.08
	l-0.81,0.09l-0.08,0.06l-0.13,0.16l-0.1,0.53l-0.09,0.19l0.01-0.6l-0.07-0.38l-0.16-0.36l-0.76-0.27l-0.35-0.05L13.99,29.41z"/>
<path id="skin-neck" class="st1" d="M16.33,8.25l-0.08-0.21l-0.08-0.17l-0.35,0.26l-0.29,0.06l-0.48,0.1l-0.14,0.27l-0.25-0.21
	L14.5,8.31l-0.43-0.07l-0.27,0l-0.39-0.06L13.43,9c0,0,0.2,0.06,0.42,0.05s0.55-0.06,0.86-0.14s0.79-0.2,1.08-0.33
	S16.33,8.25,16.33,8.25z"/>
<polygon id="hair" class="st0" points="11.42,4.01 11.28,3.55 11.24,3.46 11.59,2.53 11.89,2.11 12.2,1.66 12.35,1.75 12.82,1.38 
	13.49,1.21 13.58,1.1 14.3,1.19 14.91,1.38 15.41,1.29 15.54,1.42 15.91,1.49 16.37,1.97 16.7,2.46 16.77,2.78 16.96,2.83 
	16.83,3.37 17.13,3.81 16.92,4.26 16.97,4.68 16.71,5.36 16.73,5.74 16.62,6.12 16.34,6.36 16.25,6.57 16.21,7.25 15.75,7.63 
	15.47,7.7 14.97,7.82 14.82,7.99 14.48,7.92 14.32,7.88 13.96,7.86 13.54,7.82 13.31,7.74 13.1,7.41 12.82,7.39 12.35,6.86 
	11.95,6.1 11.73,5.64 11.62,5.27 11.53,4.66 11.21,4.51 "/>
</svg>
