<?xml version="1.0" encoding="utf-8"?>
<!-- Generator: Adobe Illustrator 16.0.4, SVG Export Plug-In . SVG Version: 6.00 Build 0)  -->
<!DOCTYPE svg PUBLIC "-//W3C//DTD SVG 1.1//EN" "http://www.w3.org/Graphics/SVG/1.1/DTD/svg11.dtd">
<svg version="1.1" id="Ebene_1" xmlns="http://www.w3.org/2000/svg" xmlns:xlink="http://www.w3.org/1999/xlink" x="0px" y="0px"
	 width="32.457px" height="51.181px" viewBox="0 0 32.457 51.181" enable-background="new 0 0 32.457 51.181" xml:space="preserve">
<path fill-rule="evenodd" clip-rule="evenodd" fill="#1A1A18" d="M0.733,26.246c0,0-0.037,0.005-0.041-0.088
	c-0.004-0.094,0.113-0.407,0.191-0.53c0.08-0.122,0.277-0.318,0.363-0.44s0.394-0.495,0.493-0.618
	c0.099-0.122,0.249-0.357,0.428-0.445c0.149-0.074,0.458-0.195,0.604-0.215c0.147-0.021,0.359-0.069,0.445-0.111
	c0.086-0.041,1.396-1.576,1.396-1.576L6.4,19.993l0.81-1.029l0.748-1.235c0,0-0.24-0.078-0.271-0.171s0.248-1.348,0.334-1.83
	c0.109-0.609,0.555-2.814,0.609-3.078c0.078-0.375,0.308-0.957,0.469-1.219c0.16-0.262,0.531-0.703,0.766-0.969
	c0.197-0.223,1.016-0.922,1.016-0.922l0.75-0.578c0,0,0.189-0.134,0.328-0.193c-0.132-0.202-0.234-0.456-0.396-0.709
	c-0.227-0.355-0.4-0.666-0.4-0.666s-0.217-0.135-0.395-0.275c-0.178-0.142-0.213-0.64-0.264-0.817
	c-0.049-0.177-0.068-0.309-0.006-0.468c0.061-0.161,0.169-0.159,0.169-0.159l-0.069-0.483c-0.246-0.809-0.316-1.379-0.271-1.856
	c0.049-0.533,0.342-1.002,0.482-1.21c0.309-0.452,1.113-0.797,1.113-0.797s0.101-0.206,0.474-0.46
	c0.349-0.235,1.083-0.222,1.39-0.036c0.299,0.18,0.48,0.384,0.491,0.431c0.053,0.078,0.147,0.139,0.336,0.214
	c0.307,0.123,0.735,0.485,0.886,0.68c0.325,0.376,0.523,1.076,0.52,1.445c-0.004,0.371,0.045,0.523-0.035,0.943
	c-0.081,0.419-0.219,0.95-0.219,0.95s0.137,0.081,0.139,0.182c0.002,0.141,0.014,0.437-0.039,0.595
	c-0.053,0.158-0.098,0.615-0.252,0.78c-0.09,0.094-0.375,0.359-0.375,0.359s-0.152,0.379-0.257,0.837c0,0,0.32,0.055,0.964,0.245
	c0.688,0.203,1.531,0.469,2.031,0.703c0.223,0.104,0.719,0.406,1.234,0.781c0.26,0.189,0.848,0.575,1.406,1.047
	c0.551,0.465,1.199,0.97,1.344,1.099c0.291,0.259,0.843,0.631,1.112,0.891c0.271,0.26,0.422,0.348,0.449,0.421
	c0.027,0.074-0.078,0.255-0.078,0.255l0.561,0.485l0.947,0.846l0.74,0.573l1.714,1.323l1.468,1.146l0.656,0.463
	c0,0,0.973,0.056,1.109,0.077s0.438,0.112,0.575,0.176c0.137,0.065,0.171,0.073,0.249,0.157c0.079,0.084,0.277,0.459,0.287,0.603
	c0.012,0.143,0.086,0.433,0.008,0.641c-0.079,0.208-0.209,0.461-0.328,0.541c-0.12,0.079-0.477,0.236-0.606,0.231
	s-0.246-0.066-0.246-0.066l-0.288-0.452l-0.297-0.011c0,0-0.674-0.157-0.903-0.265c-0.229-0.108-0.664-0.5-0.664-0.5
	s-1.722-0.846-1.957-0.947c-0.235-0.101-1.229-0.605-1.492-0.735c-0.263-0.13-2.344-1.228-2.453-1.277
	c-0.26-0.118-0.515-0.251-0.584-0.222c-0.067,0.029-0.38,0.678-0.521,0.708c-0.009,0.002-0.104-0.068-0.208-0.125
	c-0.41-0.226-0.993-0.673-1.271-0.854c-0.276-0.182-0.524-0.334-0.583-0.354c-0.058-0.02-0.345-0.28-0.375-0.167
	s-0.124,0.958-0.146,2.188c-0.003,0.173-0.039,1.382-0.021,2.333c0.02,0.986,0.029,1.818,0,1.896
	c-0.058,0.154-0.041,0.14-0.041,0.242c0,0.104,0.135,0.324,0.176,0.553c0.043,0.227-0.03,0.453-0.001,0.576
	c0.03,0.121,0.097,0.275,0.153,0.415c0.102,0.248,0.088,0.661,0.126,0.911s0.106,2.133,0.079,2.691s-0.062,1.418-0.072,1.841
	c-0.01,0.423,0.039,3.237,0.062,3.616s0.018,1.254-0.027,1.324c-0.045,0.068-0.482,0.113-0.482,0.113l-0.065,1.573
	c0,0,0.114,0.51,0.138,0.674s0.003,0.454-0.014,0.589c-0.018,0.134-0.109,0.484-0.109,0.484l0.163,0.646
	c0,0,0.169,0.837,0.124,1.295c-0.045,0.457-0.109,0.896-0.168,1.222s-0.184,0.921-0.283,1.409c-0.1,0.487-0.283,1.931-0.336,2.26
	c-0.053,0.33-0.154,2.045-0.131,2.194c0.024,0.149,0.097,0.472,0.097,0.472s-0.075,0.744-0.053,0.813
	c0.021,0.07,0.172,0.246,0.269,0.394c0.096,0.146,0.123,0.367,0.164,0.617c0.04,0.25,0.055,0.709,0.047,0.824
	c-0.007,0.117-0.164,0.287-0.164,0.287l-0.369,0.066c0,0-0.014,0.207-0.072,0.242s-0.342,0.048-0.4,0.022
	c-0.06-0.026-0.113-0.221-0.113-0.221l-0.637,0.032c0,0-0.053,0.155-0.092,0.188s-0.363,0.021-0.41-0.022
	c-0.048-0.043-0.113-0.209-0.113-0.209l-0.451-0.111l-0.124-0.154l-0.03-0.342c0,0,0.082-0.762,0.123-0.991s0.09-0.439,0.086-0.569
	c-0.004-0.131-0.064-0.473-0.055-0.766c0.01-0.291,0.144-0.838,0.144-0.838s-0.071-1.178-0.144-1.654
	c-0.072-0.475-0.395-2.186-0.451-2.668c-0.059-0.482-0.105-0.869-0.11-1.426c-0.004-0.557,0.06-1.457,0.083-1.572
	c0.023-0.116,0.057-0.297,0.096-0.486c0.037-0.188,0.164-0.572,0.164-0.572s-0.038-0.046-0.109-0.206
	c-0.072-0.159-0.052-0.312-0.055-0.544c-0.004-0.233-0.012-0.398,0-0.5c0.01-0.102-0.027-0.352-0.027-0.352
	s-0.422-1.117-0.514-1.322c-0.093-0.206-0.246-0.541-0.246-0.541s-0.977-0.069-1.027-0.109c-0.051-0.041-0.023-0.482-0.051-0.541
	s-0.627-0.231-0.627-0.231s-0.338,0.364-0.355,0.474c-0.018,0.111-0.011,0.18,0.027,0.212c0.037,0.032,0.421,0.163,0.599,0.281
	c0.132,0.087,0.284,0.217,0.347,0.417c0.064,0.201,0.229,0.568,0.16,1.303c-0.037,0.385-0.418,1.055-0.49,1.16
	c-0.071,0.104-0.324,0.365-0.438,0.559s-0.311,0.35-0.404,0.514c-0.092,0.164-0.523,0.953-0.678,1.324
	c-0.152,0.369-0.434,1.026-0.533,1.256c-0.1,0.23-0.257,0.579-0.39,0.795c-0.134,0.215-0.195,0.341-0.403,0.498
	c-0.209,0.158-0.865,0.408-1.35,0.154c-0.266-0.139-0.386-0.28-0.465-0.455c-0.078-0.174-0.099-0.223-0.185-0.572
	c-0.085-0.352-0.112-0.689-0.099-0.91c0.029-0.486,0.157-0.609,0.264-0.922c0.105-0.312,0.317-0.803,0.41-1.08
	C9.038,38.474,9.142,38.438,9.213,38s0.139-0.931,0.139-0.931s0.009-0.174-0.077-0.238c-0.086-0.063-0.36-0.243-0.36-0.243
	s-0.637-0.416-0.729-0.485c-0.091-0.07-0.175-0.16-0.263-0.461c-0.089-0.301-0.058-0.543-0.034-1.064
	c0.011-0.24,0.175-0.795,0.288-1.205c0.131-0.482,0.256-0.854,0.256-0.854s-0.182-0.117-0.238-0.191
	c-0.059-0.073-0.08-0.146-0.043-0.33c0.039-0.185,0.436-1.537,0.531-1.89s0.205-1.073,0.314-1.544s0.309-1.309,0.414-1.771
	c0.106-0.463,0.25-1.007,0.328-1.352c0.08-0.346,0.312-1.434,0.395-1.654c0.082-0.221,0.291-0.485,0.291-0.485
	s0.051-0.5,0.201-0.797c-0.014-0.144-0.098-0.034-0.043-0.464c0.125-0.979,0.333-2.771,0.333-2.771l0.104-0.833L10,20.02
	l-0.588,0.691c0,0-0.948,0.87-1.194,1.091c-0.247,0.221-1.242,1.174-1.242,1.174l-1.458,1.33l-0.862,0.859l-0.391,0.397
	c0,0-0.297,0.526-0.391,0.64c-0.092,0.112-0.234,0.226-0.327,0.33c-0.093,0.105-0.989,0.602-1.13,0.64
	c-0.141,0.04-0.479,0.104-0.479,0.104s-0.26-0.026-0.337-0.009S1.415,27.3,1.195,27.226c-0.073-0.023-0.048-0.254-0.092-0.252
	c-0.045,0.002-0.105,0.01-0.191-0.001s-0.124-0.058-0.169-0.1c-0.044-0.041-0.074-0.078-0.077-0.187
	C0.662,26.579,0.733,26.246,0.733,26.246z"/>
<path id="hair" fill-rule="evenodd" clip-rule="evenodd" fill="#F7DD7F" d="M15.44,2.595c-0.127-0.246-0.356-0.542-0.793-0.806
	c-0.127-0.077-0.26-0.15-0.305-0.165c0.117,0.619,0.072,0.909-0.07,1.623c-0.029,0.146-0.01,0.234,0.037,0.526
	c0.082,0.5,0.236,1.275,0.299,1.606c0.077,0.404,0.103,0.59,0.081,1.194c-0.015,0.387-0.351,0.782-0.432,0.857
	c-0.151,0.143-0.222,0.112-0.222,0.112s-0.231,0.254-0.333,0.222c-0.139-0.045-0.136-0.171-0.172-0.215
	c-0.036-0.043-0.013,0.125-0.135,0.204c-0.043,0.028-0.229,0.08-0.339-0.15c-0.054-0.111-0.016,0.082-0.136,0.157
	c-0.128,0.081-0.241-0.143-0.263-0.212c-0.061-0.188,0.045-0.032-0.123-0.015c-0.168,0.019-0.309-0.132-0.454-0.361
	c-0.084-0.134-0.285-0.677-0.23-1.142c0.021-0.176,0.099-0.891,0.13-1.294c0.039-0.496,0.047-1.217,0.01-1.471
	c-0.051-0.355-0.289-1.064-0.158-1.577c-0.381,0.191-0.611,0.369-0.795,0.573c-0.195,0.22-0.481,0.871-0.459,1.367
	c0.022,0.495,0.145,1.037,0.257,1.453c0.113,0.417,0.128,0.71,0.128,0.71s0.405,0.49,0.688,0.966
	c0.16,0.269,0.447,0.623,0.686,0.857c0.25,0.244,0.69,0.759,1.027,0.754c0.367-0.005,0.672-0.518,0.752-0.609
	c0.402-0.453,0.459-0.583,0.803-1.177c0.161-0.278,0.359-0.629,0.455-0.808c0.121-0.222,0.176-0.544,0.218-0.808
	c0.065-0.406,0.179-0.761,0.156-1.241C15.726,3.247,15.565,2.842,15.44,2.595z"/>
<path id="skin-face-l" fill-rule="evenodd" clip-rule="evenodd" fill="#F9CAA9" d="M13.114,8.649
	c-0.127-0.053-0.396-0.243-0.5-0.328c-0.188-0.152-0.456-0.4-0.672-0.656c-0.262-0.31-0.539-0.636-0.76-0.936
	c-0.064-0.087-0.426-0.646-0.424-0.524c0.002,0.121,0.038,0.307,0.099,0.483c0.06,0.177,0.265,0.285,0.341,0.329
	c0.078,0.044,0.141,0.112,0.266,0.33c0.094,0.166,0.502,0.838,0.682,1.046c0.056,0.065,0.143,0.233,0.234,0.334
	c0,0,0.143,0.03,0.312,0C12.958,8.681,13.114,8.649,13.114,8.649z"/>
<path id="skin-face-r" fill-rule="evenodd" clip-rule="evenodd" fill="#F9CAA9" d="M14.474,8.353
	c0.163-0.296,0.402-0.915,0.469-1.041c0.117-0.221,0.18-0.291,0.256-0.337c0.074-0.047,0.275-0.16,0.332-0.338
	c0.055-0.179,0.07-0.38,0.068-0.501c-0.002-0.122-0.24,0.353-0.301,0.444c-0.197,0.295-0.438,0.671-0.614,0.979
	c-0.079,0.139-0.214,0.3-0.33,0.429c-0.044,0.048-0.397,0.463-0.458,0.521c0,0,0.188-0.016,0.391-0.078
	C14.399,8.396,14.474,8.353,14.474,8.353z"/>
<path id="hair-p" fill="#F7DD7F" d="M14.44,6.284c-0.031-0.346-0.074-0.834-0.157-1.173c-0.028-0.162-0.237-1.155-0.284-1.686
	c-0.016,0.007-0.029,0.013-0.052,0.02c-0.075,0.023-0.186,0.126-0.186,0.126s0.062-0.094,0.167-0.296
	c0.039-0.072,0.059-0.145,0.074-0.212c0.105-0.409,0.121-0.869,0.113-1.012c-0.039-0.785-0.347-1.081-1.008-1.084
	c-0.537-0.003-0.952,0.276-1.007,0.996c-0.007,0.088-0.017,0.223,0.019,0.457c0.023,0.159,0.086,0.397,0.108,0.563
	c0.017,0.064,0.044,0.152,0.091,0.254c0.096,0.215,0.177,0.353,0.177,0.353s-0.108-0.087-0.153-0.126
	c-0.002,0.007-0.037-0.001-0.076-0.013c0.01,0.564-0.051,1.622-0.103,2.074c-0.001,0.003-0.246,1.069,0.272,1.577
	c0.037,0.036,0.02,0.041,0.055-0.204c0.031-0.213,0.141-0.336,0.154-0.294c0.094,0.276,0.206,0.542,0.207,0.834
	c0-0.186,0.123-0.634,0.168-0.867c0,0,0.312,0.834,0.271,0.926c0.153-0.341,0.16-0.647,0.188-0.937c0,0,0.417,0.574,0.294,0.899
	c0.025-0.025,0.17-0.17,0.217-0.383c0.041-0.182-0.043-0.391-0.06-0.511c0,0,0.362,0.372,0.239,0.543
	C14.356,6.849,14.469,6.585,14.44,6.284z M13.591,2.462c-0.053,0.109-0.051-0.515-0.095-0.681c-0.103-0.384-0.344-0.462-0.076-0.397
	C13.675,1.444,13.879,1.865,13.591,2.462z"/>
<path id="skin-leg-l" fill-rule="evenodd" clip-rule="evenodd" fill="#F9CAA9" d="M8.655,35.591c0,0,0.493-0.69,0.697-0.882
	c0.207-0.19,0.507-0.337,0.507-0.337s-0.007-0.329,0.011-0.386s0.037-0.075,0.123-0.065c0.085,0.009,0.523,0.129,0.605,0.121
	c0.082-0.01,1.224-0.186,1.275-0.178c0.053,0.007,0.169,0.022,0.206,0.015c0.038-0.008,0.315-0.353,0.315-0.353
	s-0.469-0.154-0.865-0.303c-0.398-0.146-0.969-0.359-1.219-0.44s-0.938-0.278-0.955-0.271c-0.017,0.007-0.009-0.405-0.068-0.368
	c-0.058,0.037-0.232,0.338-0.232,0.338l-0.219,0.045c0,0-0.209,0.697-0.264,0.918s-0.275,0.859-0.281,1.15s-0.03,0.691,0.064,0.793
	C8.45,35.488,8.655,35.591,8.655,35.591z"/>
<path fill-rule="evenodd" clip-rule="evenodd" fill="#FFFFFF" d="M8.918,40.801c0,0,0.134-0.05,0.258-0.005
	c0.122,0.044,0.177,0.103,0.191,0.205c0.011,0.09,0.046,0.221-0.015,0.324c-0.059,0.102-0.479,0.162-0.479,0.162
	s0.132,0.401,0.189,0.517c0.058,0.114,0.14,0.203,0.399,0.262c0.178,0.04,0.38-0.002,0.628-0.133
	c0.248-0.132,0.449-0.471,0.449-0.471s0.312-0.669,0.493-1.157c0.182-0.488,0.554-1.707,0.554-1.707l0.123-0.018l-1.25-0.912
	l-1.406,1.963c0,0-0.221,0.348-0.275,0.641c-0.055,0.295,0.031,0.479,0.031,0.479L8.918,40.801L8.918,40.801z"/>
<path fill-rule="evenodd" clip-rule="evenodd" fill="#1A1A18" d="M9.772,40.546c0.047-0.088,0.035-0.347-0.049-0.401
	c-0.083-0.055-0.332-0.033-0.372,0.052c-0.039,0.084-0.008,0.215,0.031,0.268s0.218,0.137,0.142,0.116
	C9.449,40.56,9.728,40.635,9.772,40.546z"/>
<path fill-rule="evenodd" clip-rule="evenodd" fill="#1A1A18" d="M9.81,41.9c0,0,0.214,0.027,0.269-0.091
	c0.056-0.117-0.068-0.346-0.068-0.346s-0.2-0.119-0.265-0.1c-0.063,0.02-0.228,0.195-0.213,0.357C9.545,41.884,9.81,41.9,9.81,41.9
	L9.81,41.9z"/>
<path id="player-sock-l" fill-rule="evenodd" clip-rule="evenodd" fill="#0068B4" d="M9.629,36.216
	c0.053,0.021,0.249-0.035,0.249-0.035s0.237-0.492,0.693-0.942c0.457-0.45,1.137-0.671,1.137-0.671s-0.125-0.227-0.281-0.233
	c-0.158-0.007-0.447,0.011-0.747,0.104s-0.892,0.471-1.093,0.682c-0.203,0.213-0.627,0.781-0.627,0.781s0.617,0.023,0.635,0.047
	c0.019,0.025,0.018,0.134,0.018,0.134S9.576,36.192,9.629,36.216z"/>
<path fill-rule="evenodd" clip-rule="evenodd" fill="#1A1A18" d="M10.065,39.825c0.068-0.044,0.109-0.15,0.109-0.15
	s0-0.203-0.097-0.232c-0.095-0.029-0.277-0.014-0.31,0.016S9.659,39.61,9.659,39.61s0.06,0.195,0.157,0.25
	C9.915,39.913,9.997,39.869,10.065,39.825z"/>
<path fill-rule="evenodd" clip-rule="evenodd" fill="#1A1A18" d="M10.476,41.127c-0.068,0.051,0.137-0.111,0.164-0.155
	s-0.013-0.203-0.089-0.263c-0.075-0.061-0.313-0.026-0.372,0.052c-0.059,0.079-0.062,0.358,0.049,0.402S10.544,41.077,10.476,41.127
	z"/>
<path fill-rule="evenodd" clip-rule="evenodd" fill="#1A1A18" d="M10.897,39.822c-0.065-0.041-0.338,0.015-0.374,0.053
	c-0.034,0.038-0.016,0.351,0.051,0.399c0.065,0.051,0.352,0.039,0.372-0.051C10.969,40.134,10.962,39.864,10.897,39.822z"/>
<path fill-rule="evenodd" clip-rule="evenodd" fill="#FFFFFF" d="M11.349,37.879c0,0,0.605,0.435,0.688,0.448
	s0.065-0.064,0.107-0.15c0.043-0.086-0.298-0.367-0.298-0.367s-1.069-0.704-1.151-0.704s-0.189,0.075-0.189,0.075
	s-0.034,0.036,0.016,0.135C10.571,37.415,11.349,37.879,11.349,37.879L11.349,37.879z"/>
<path fill-rule="evenodd" clip-rule="evenodd" fill="#FFFFFF" d="M12.046,37.374l0.424,0.35c0,0,0.1-0.06,0.224-0.148
	c0.122-0.088,0.468-0.658,0.533-0.939c0.037-0.16,0.097-0.466,0.042-0.78c-0.044-0.241-0.053-0.423-0.207-0.587
	c-0.152-0.165-0.209-0.24-0.419-0.289c-0.21-0.05-0.418-0.042-0.622,0.086c-0.204,0.129-0.682,0.514-0.86,0.761
	s-0.364,0.635-0.364,0.635l0.018,0.134L12.046,37.374L12.046,37.374z"/>
<path fill-rule="evenodd" clip-rule="evenodd" fill="#1A1A18" d="M11.968,36.532c0.1-0.099,0.056-0.433-0.082-0.496
	c-0.137-0.062-0.292,0.023-0.383,0.129c-0.092,0.104-0.002,0.42,0.073,0.459C11.652,36.665,11.868,36.631,11.968,36.532z"/>
<path fill-rule="evenodd" clip-rule="evenodd" fill="#1A1A18" d="M12.392,35.915c0.055-0.074,0.16-0.336,0.066-0.367
	c-0.094-0.029-0.395-0.049-0.498,0.07c-0.102,0.12,0.021,0.326,0.09,0.355S12.337,35.988,12.392,35.915z"/>
<path fill-rule="evenodd" clip-rule="evenodd" fill="#1A1A18" d="M12.696,36.468c0,0,0.16,0.07,0.249-0.035
	c0.089-0.106,0.083-0.478-0.064-0.534c-0.147-0.058-0.159-0.109-0.249,0.034s-0.043,0.687-0.043,0.687s-0.291-0.06-0.374,0.052
	s-0.026,0.368,0.048,0.401s0.302,0.008,0.373-0.054C12.706,36.958,12.696,36.468,12.696,36.468z"/>
<path id="skin-leg-r" fill-rule="evenodd" clip-rule="evenodd" fill="#F9CAA9" d="M15.495,35.584
	c0.086,0.198,0.309,0.684,0.309,0.684s0.652-0.132,1.01-0.162c0.355-0.029,1.404-0.063,1.404-0.063s0.094-1.707,0.049-1.704
	c-0.044,0.003-1.971,0.177-1.971,0.177l-1.19,0.066c0,0,0.058,0.23,0.123,0.386C15.294,35.12,15.409,35.386,15.495,35.584z"/>
<path id="player-sock-r" fill-rule="evenodd" clip-rule="evenodd" fill="#0068B4" d="M15.804,38.956
	c0.023-0.219,0.133-0.453,0.229-0.645s0.195-0.341,0.195-0.341l-0.076-0.128l-0.002,0.001l-0.141-0.079c0,0-0.105-0.178-0.123-0.396
	s0.027-0.529,0.105-0.615c0.079-0.087,0.191-0.117,0.479-0.147c0.288-0.029,1.349-0.077,1.522-0.075
	c0.175,0.002,0.278-0.017,0.329,0.044c0.051,0.062,0.167,0.353,0.109,0.522c-0.059,0.17-0.206,0.268-0.291,0.361
	c-0.085,0.095-0.202,0.09-0.202,0.09s-0.141,0-0.182,0.058s0.018,0.146,0.09,0.207c0.17,0.146,0.42,0.132,0.42,0.132
	s0.061,0.058,0.125,0.183c0.063,0.125,0.152,0.622,0.163,0.829c0.01,0.207,0.042,0.44,0.024,0.752
	c-0.018,0.311-0.124,1.19-0.191,1.47c-0.069,0.279-0.222,0.928-0.282,1.31c-0.062,0.381-0.345,2.908-0.345,2.908l-0.055,1.572
	l-0.273-0.381l-0.355-0.06l-0.479,0.073l-0.213,0.556l-0.072-1.89c0,0-0.423-2.322-0.526-2.883c-0.104-0.562-0.15-1.427-0.15-1.912
	C15.636,39.987,15.78,39.175,15.804,38.956z"/>
<path fill-rule="evenodd" clip-rule="evenodd" fill="#1A1A18" d="M16.415,41.915c0.057-0.07,0.134-2.531,0.074-2.561
	s-0.225,0.127-0.258,0.262c-0.035,0.136-0.028,0.613-0.025,0.809c0.004,0.194,0.021,1.256,0.088,1.35
	C16.36,41.868,16.415,41.915,16.415,41.915S16.348,42.001,16.415,41.915z"/>
<path fill-rule="evenodd" clip-rule="evenodd" fill="#1A1A18" d="M16.638,35.486c0.08-0.013,0.264-0.075,0.383-0.073
	c0.121,0.002,0.367,0.045,0.395,0.045s0.061-0.107-0.025-0.163c-0.084-0.057-0.379-0.193-0.464-0.206
	c-0.086-0.012-0.12-0.017-0.192,0c-0.071,0.018-0.243,0.145-0.287,0.25s-0.044,0.209-0.044,0.209S16.56,35.499,16.638,35.486z"/>
<path id="skin-arm-l" fill-rule="evenodd" clip-rule="evenodd" fill="#F9CAA9" d="M2.415,25.894l-0.957,0.773
	c0,0-0.064,0.154-0.02,0.195c0.045,0.04,0.183-0.039,0.183-0.039l1.03-0.676l0.086,0.074l-0.645,0.476c0,0-0.104,0.059-0.035,0.132
	s0.199-0.033,0.199-0.033s0.426-0.246,0.595-0.32c0.171-0.072,0.308-0.121,0.496-0.273s0.332-0.539,0.493-0.721
	s2.943-2.91,3.35-3.299c0.407-0.387,1.223-1.134,1.223-1.134l0.629-0.587l-0.027-0.265L8.7,19.851l-0.041-0.265l0.918,0.257
	l0.56-0.787l0.493-0.8l-1.17-0.153l-1.148-0.265l-0.57,0.968l-0.561,0.779l-1.158,1.456l-2.564,3.115l-0.614,0.074l-0.587,0.268
	l-0.421,0.533l-0.67,0.7c0,0-0.144,0.18-0.092,0.233c0.053,0.055,0.183,0.021,0.183,0.021l0.856-0.726l0.042,0.147l-1.033,0.907
	c0,0-0.117,0.106-0.056,0.215c0.061,0.107,0.255,0,0.255,0l1.025-0.758L2.415,25.894z"/>
<path id="player-shirt" fill-rule="evenodd" clip-rule="evenodd" fill="#0068B4" d="M10.122,17.774
	c0.408,0.072,0.836,0.114,0.836,0.114s0.113-0.311,0.178-0.544c0.065-0.233,0.223-1.001,0.287-1.205s0.151-0.5,0.202-0.718
	c0.052-0.219,0.11-0.544,0.165-0.765c0.055-0.221,0.071-0.515,0.164-0.544c0.128-0.04,0.185-0.078,0.181,0.042
	c-0.003,0.12-0.01,0.204-0.04,0.353c-0.031,0.149-0.052,0.347-0.09,0.542c-0.037,0.195-0.086,0.559-0.144,0.796
	c-0.058,0.238-0.353,1.453-0.425,1.779c-0.071,0.326-0.072,1.206-0.125,1.5c-0.051,0.293-0.208,2.354-0.291,2.75
	c-0.031,0.148-0.018,0.291,0.129,0.366c0.147,0.075,0.742,0.204,1.137,0.25c0.393,0.046,1.783,0.013,2.121,0.044
	c0.339,0.031,2.108,0.062,2.352,0.031c0.242-0.031,0.479-0.195,0.622-0.34s0.245-0.332,0.283-0.422
	c0.038-0.091-0.02-0.733,0.023-0.809c0.042-0.076,0.08-0.141,0.13-0.13s0.035-0.016,0.124,0.005c0.09,0.02,0.229,0.396,0.235,0.546
	c0.004,0.15,0.068,0.632,0.104,0.678c0.037,0.046,0.091-0.103,0.155-0.179s-0.083-1.125-0.062-1.729
	c0.038-1.083,0.06-3.169,0.062-3.5c0.004-0.331,0.188-1.458,0.188-1.458l-0.055-0.199l-0.205-0.43l0.004-0.135l0.129-0.13
	l0.126,0.004l0.396,0.765l0.507,0.353l1.451,1.014l0.342,0.206c0,0,0.277-0.502,0.438-0.791c0.161-0.288,0.591-1.093,0.739-1.389
	c0.216-0.428,0.483-0.991,0.492-1.025c0.011-0.035-0.752-0.676-0.752-0.676s-1.997-1.613-2.263-1.832s-0.75-0.551-1.016-0.755
	c-0.266-0.205-0.723-0.537-1.021-0.667c-0.297-0.13-0.988-0.453-1.395-0.562s-1.428-0.391-1.631-0.375
	c-0.158,0.012-0.383,0.086-0.547,0.141s-0.359,0.104-0.766,0.172C13.13,8.993,12.681,9.03,12.489,9.04
	c-0.191,0.011-0.271-0.053-0.375,0.016c-0.141,0.094-0.605,0.39-0.797,0.547c-0.191,0.158-0.933,0.808-1.141,1.016
	c-0.209,0.208-0.562,0.609-0.766,1.031c-0.204,0.423-0.377,0.757-0.516,1.375c-0.141,0.625-0.616,3.339-0.616,3.339L8.13,17.168
	l-0.004,0.134c0,0,0.311,0.176,0.68,0.236C9.176,17.597,10.122,17.774,10.122,17.774L10.122,17.774
	C10.122,17.774,9.714,17.702,10.122,17.774z"/>
<path fill-rule="evenodd" clip-rule="evenodd" fill="#1A1A18" d="M14.904,21.711c0.021,0.104,0.032,0.158,0.122,0.139
	c0.09-0.019,0.451-2.826,0.461-2.951c0.012-0.126-0.194-0.41-0.236-0.547c-0.039-0.137-0.118-3.142-0.154-3.242
	c-0.036-0.1-0.03-0.177-0.123-0.139c-0.091,0.039,0.021,3.972,0.006,4.181C14.966,19.361,14.904,21.711,14.904,21.711
	S14.884,21.606,14.904,21.711z"/>
<path id="skin-arm-r" fill-rule="evenodd" clip-rule="evenodd" fill="#F9CAA9" d="M23.328,15.756c0,0.076-0.09,0.204-0.093,0.353
	s-0.028,0.339-0.028,0.339l0.275,0.234l1.943,1.117c0,0,2.221,1.071,2.389,1.169c0.167,0.098,0.938,0.484,0.938,0.484
	s0.432,0.337,0.535,0.38s0.604,0.207,0.703,0.184c0.1-0.024,0.318-0.124,0.4-0.155s0.061-0.109,0.105-0.15
	c0.045-0.042,0.134-0.179,0.232-0.169c0.1,0.009,0.148-0.002,0.248,0.055c0.098,0.057,0.058,0.119,0.071,0.177
	c0.014,0.057,0.041,0.222,0,0.287s-0.274,0.303-0.288,0.375c-0.014,0.072,0.014,0.104,0.062,0.11
	c0.048,0.006,0.319-0.112,0.409-0.163s0.105-0.202,0.16-0.318c0.054-0.116,0.057-0.382,0.014-0.484
	c-0.043-0.102-0.028-0.173-0.09-0.248s-0.088-0.186-0.197-0.248c-0.11-0.062-0.583-0.149-0.583-0.149l-0.739-0.022l-0.51-0.137
	l-4.612-3.528l-0.562-0.455l-0.896-0.772l-1.047,1.986c0,0,0.435,0.188,0.523,0.183c0.088-0.005,0.426-0.387,0.512-0.438
	C23.287,15.7,23.328,15.681,23.328,15.756z"/>
<path id="player-shorts" fill-rule="evenodd" clip-rule="evenodd" fill="#FFFFFF" d="M8.577,31.874
	c-0.004,0.101,0.01,0.101,0.074,0.127c0.065,0.027,0.318,0.062,0.355,0c0.039-0.061,0.206-0.367,0.277-0.467
	c0.072-0.102,0.176-0.17,0.233,0c0.059,0.168,0.103,0.523,0.123,0.559c0.038,0.065,0.068,0.043,0.219,0.102
	c0.151,0.06,0.329,0.133,0.671,0.25c0.342,0.118,1.149,0.397,1.588,0.545c0.307,0.103,1.386,0.439,1.386,0.439
	s0.093-0.396,0.123-0.546c0.03-0.151-0.003-0.173,0.082-0.308c0.087-0.135,0.202-0.131,0.22-0.059
	c0.016,0.072,0.027,0.485,0.027,0.485l0.023,0.59l0.037,0.503c0,0,0.373,0.07,0.575,0.066s0.853-0.025,1.149-0.044
	c0.299-0.019,1.305-0.099,1.602-0.132c0.299-0.033,0.842-0.066,0.842-0.066s0.641-0.019,0.698-0.088c0.059-0.07,0-0.67-0.003-1.019
	c-0.002-0.168-0.014-1.132-0.02-1.823s-0.035-1.484-0.018-1.746c0.017-0.26,0.064-1.591,0.072-1.968
	c0.006-0.378,0.006-1.079-0.035-1.667s-0.109-1.322-0.146-1.5c-0.035-0.178-0.128-0.352-0.222-0.414
	c-0.095-0.062-1.139,0.18-1.231,0.158c-0.092-0.022-0.29-0.214-0.296-0.301c-0.006-0.086,0.184-0.074,0.428-0.125
	c0.225-0.047,0.673-0.17,0.807-0.186c0.133-0.016,0.264-0.014,0.319-0.082c0.057-0.068-0.084-0.358-0.099-0.426
	c-0.015-0.068-0.341-0.035-0.461-0.032c-0.119,0.003-1.044,0.276-1.19,0.306c-0.147,0.028-1.481-0.045-1.766-0.031
	c-0.284,0.015-1.399-0.043-1.602-0.06s-0.921-0.026-1.231-0.05c-0.312-0.023-0.918-0.188-1.059-0.212
	c-0.14-0.024-0.246,0.367-0.215,0.448c0.031,0.08,0.229,0.228,0.37,0.264c0.14,0.037,1.434,0.066,1.513,0.062
	c0.078-0.006,0.153,0.005,0.189,0.099c0.035,0.092-0.063,0.156-0.131,0.211c-0.066,0.054-0.111,0.049-0.213,0.061
	c-0.103,0.013-0.404-0.026-0.524-0.007c-0.12,0.021-0.92-0.005-1.019-0.027c-0.1-0.022-0.258-0.022-0.35-0.022
	s-0.209,0.147-0.227,0.243c-0.017,0.095-0.119,0.463-0.166,0.593c-0.047,0.129-0.24,0.958-0.318,1.333
	c-0.08,0.375-0.333,1.345-0.479,1.955c-0.147,0.61-0.292,1.243-0.391,1.742c-0.099,0.5-0.229,0.985-0.335,1.346
	C8.73,31.313,8.579,31.774,8.577,31.874z M12.714,27.978l0.259-0.244l0.378,0.072l0.291-0.027l0.293-0.131l0.228-0.583l0.277,0.274
	l0.026,0.42l-0.01,0.405l0.934,0.233l0.826-0.146l0.228,0.234l0.056,0.172l-0.219,0.037l-1.125,0.07l-0.711,0.086l-0.072,0.06
	L14.26,29.06l-0.085,0.502l-0.082,0.177l0.006-0.561l-0.061-0.353L13.9,28.487l-0.665-0.25l-0.307-0.051L12.714,27.978z"/>
</svg>
