<?xml version="1.0" encoding="utf-8"?>
<!-- Generator: Adobe Illustrator 16.0.4, SVG Export Plug-In . SVG Version: 6.00 Build 0)  -->
<!DOCTYPE svg PUBLIC "-//W3C//DTD SVG 1.1//EN" "http://www.w3.org/Graphics/SVG/1.1/DTD/svg11.dtd">
<svg version="1.1" id="Ebene_1" xmlns="http://www.w3.org/2000/svg" xmlns:xlink="http://www.w3.org/1999/xlink" x="0px" y="0px"
	 width="30.634px" height="50.583px" viewBox="0 0 30.634 50.583" enable-background="new 0 0 30.634 50.583" xml:space="preserve">
<path fill-rule="evenodd" clip-rule="evenodd" fill="#1A1A18" d="M0.924,24.302l0.7-0.497l0.982-0.524l1.714-2.426l1.314-1.918
	l1.217-1.932c0,0-0.073-0.112-0.079-0.182s0.239-0.387,0.521-0.875c0.281-0.489,0.792-1.4,1.104-1.959s0.768-1.479,1.084-2.083
	c0.371-0.712,0.625-1.146,0.812-1.375c0.258-0.317,0.672-0.542,0.891-0.683c0.172-0.11,0.566-0.276,0.758-0.355
	c0.158-0.066,0.539-0.189,0.73-0.225c-0.045-0.135-0.064-0.24-0.129-0.326c-0.269,0.083-0.53,0.088-0.688,0.047
	c-0.297-0.078-0.375-0.234-0.473-0.461c-0.068-0.156-0.142-0.547-0.282-1c-0.036-0.118-0.11-0.512-0.25-0.562
	c-0.172-0.062-0.303-0.095-0.359-0.188c-0.091-0.149,0.027-0.445,0.047-0.484c0.109-0.219,0.135-0.32,0.203-0.484
	c-0.081-0.041-0.227-0.156-0.227-0.156s0.14-0.012,0.213-0.02l-0.124-0.506l-0.107-0.24c0,0-0.156,0.062-0.438,0.094
	C9.851,5.005,9.564,4.898,9.591,4.826C9.689,4.566,9.82,4.49,9.888,4.263c-0.4,0.027-0.83-0.161-0.521-0.344
	C9.8,3.58,9.865,3.453,9.998,3.279c0.053-0.066,0.6-0.984,0.859-1.203c0.576-0.482,1.076-0.689,1.494-0.812
	c0.216-0.064,0.823-0.177,1.532-0.094c0.406,0.047,0.805,0.153,1.134,0.28c0.132-0.073,0.28,0.005,0.305-0.03
	c0.213-0.303,0.458-0.463,0.64-0.562c0.163-0.091,0.563-0.172,0.813-0.125c0.361,0.068,0.51,0.138,0.764,0.312
	c0.205,0.141,0.516,0.578,0.719,1.266c0.102,0.346,0.232,0.815,0.424,1.406c0.109,0.343,0.254,0.768,0.389,1.125
	c0.236,0.625,0.346,0.984,0.33,1.375c-0.016,0.385-0.004,0.463-0.068,0.766c-0.082,0.385-0.34,0.344-0.34,0.344
	c0.016,0.109-0.273,0.252-0.344,0.297c-0.125,0.078-0.359-0.015-0.312-0.219c-0.139,0.275-0.234,0.359-0.234,0.359
	c-0.109,0.047-0.438,0.219-0.391-0.109c-0.107,0.447-0.375,0.312-0.437,0.047c0.007-0.058-0.07-0.458-0.187-0.672
	c-0.074-0.137-0.264-0.541-0.359-0.719c-0.188,0.656-0.434,1-0.688,1.297c-0.188,0.219-0.198,0.352-0.37,0.68
	c-0.054,0.102-0.049,0.242-0.033,0.375h0.002c0,0,0.25,0.031,1,0.109c0.654,0.068,1.257,0.16,1.546,0.25
	c0.453,0.141,0.922,0.531,1.25,0.891c0.24,0.264,0.682,0.911,0.953,1.344c0.234,0.375,0.727,1.169,0.891,1.516
	s0.531,1.031,0.734,1.438c0.166,0.334,0.838,1.913,0.838,1.913l-0.041,0.11l-0.105,0.102l0.715,1.823l0.625,0.875l1.484,2.089
	l1.479,2.006l0.523,0.71l0.586,0.394l0.678,0.838l0.842,0.992c0,0,0.27,0.475,0.254,0.613s-0.055,0.266-0.09,0.291
	c-0.035,0.023-0.266,0.108-0.33,0.155c-0.062,0.047-0.154,0.093-0.225,0.121c-0.07,0.027-0.227-0.049-0.227-0.049
	s-0.051,0.132-0.248,0.097c-0.197-0.034-0.801-0.505-0.801-0.505l-0.965-0.617c0,0-0.373-0.27-0.49-0.414s-0.287-0.75-0.287-0.75
	l-0.719-0.816l-1.006-0.947l-1.355-1.39l-1.211-1.214l-0.686-1.019l-0.725-1.265l-0.514-0.799l-0.531,0.084
	c0,0,0.35,0.847,0.688,1.771c0.312,0.854,0.609,1.614,0.609,1.614s0.146,0.325,0.141,0.469s-0.012,0.194-0.012,0.194
	s0.141,0.118,0.234,0.291c0.092,0.173,0.182,0.595,0.166,0.68s0.051,0.341,0.174,0.44c0.125,0.1,0.33,0.295,0.426,0.424
	s0.686,1.073,0.932,1.471c0.246,0.396,0.766,1.278,1.012,1.675c0.246,0.398,0.396,0.669,0.547,0.908
	c0.152,0.24,0.861,1.363,1.115,1.771c0.254,0.409,0.668,1.174,0.721,1.254c0.055,0.081,0.098,0.17,0.109,0.25
	c0.014,0.081-0.203,0.238-0.203,0.238s0.627,1.1,0.744,1.516c0.115,0.414,0.178,0.998,0.16,1.148
	c-0.018,0.148-0.162,0.387-0.264,0.531c-0.102,0.143-0.543,0.599-0.543,0.599l-0.311,0.312l-0.033,0.251
	c0,0,0.193,0.652,0.301,0.884c0.107,0.232,0.395,0.683,0.395,0.683s0.424,0.652,0.656,1.02c0.189,0.299,0.328,0.568,0.391,0.851
	s0.041,0.665,0.031,0.87c-0.012,0.205,0,0.35-0.082,0.602c-0.08,0.251-0.232,0.434-0.375,0.541s-0.41,0.209-0.717,0.225
	s-0.447-0.027-0.635-0.102c-0.188-0.075-0.289-0.197-0.484-0.408s-0.344-0.38-0.523-0.699c-0.178-0.32-0.465-0.695-0.746-1.125
	s-0.898-1.162-0.898-1.162s-0.287-0.365-0.479-0.53c-0.189-0.164-0.412-0.288-0.656-0.575c-0.244-0.288-0.344-0.472-0.465-0.823
	c-0.141-0.411-0.211-0.751-0.164-1.132c0.051-0.416,0.244-0.623,0.424-0.779s0.371-0.271,0.371-0.271l-0.012-0.213l-0.154-0.119
	c0,0-0.227,0.061-0.301,0.074c-0.232,0.044-0.408,0.059-0.52,0.021c-0.109-0.037-0.834-1.279-0.834-1.279s0.053,0.375,0.08,0.61
	s0.098,0.698,0.15,1.044c0.055,0.346,0.223,1.354,0.18,1.404s-0.408,0.082-0.426,0.154c-0.027,0.117,0,0.338,0.037,0.83
	c0.023,0.348,0.102,0.662,0.102,0.662l0.145,0.16c0,0,0.629,0.58,0.748,0.889c0.119,0.311,0.221,1.049,0.279,1.136
	s0.408,0.7,0.562,1.084c0.152,0.385,0.783,2.251,0.961,2.796c0.178,0.543,0.873,2.497,0.873,2.497s0.408,0.526,0.5,0.624
	c0.092,0.099,0.361,0.453,0.445,0.584c0.084,0.132,0.547,1.383,0.59,1.609c0.043,0.229,0.131,0.605,0.072,0.719
	c-0.059,0.112-0.303,0.291-0.303,0.291s-0.01,0.229-0.025,0.297c-0.018,0.068-0.162,0.107-0.221,0.117
	c-0.057,0.01-0.104-0.104-0.104-0.104l-0.418,0.188l-0.355,0.1c0,0-0.037,0.12-0.08,0.156c-0.045,0.037-0.23,0.022-0.301,0
	c-0.072-0.021-0.129-0.173-0.129-0.173l-0.508-0.167c0,0-0.049,0.138-0.105,0.143c-0.059,0.004-0.145,0.016-0.244-0.029
	S22.755,49.4,22.755,49.4s-0.162-0.051-0.369-0.124c-0.205-0.073-0.424-0.25-0.424-0.25s-0.037,0.108-0.096,0.103
	c-0.057-0.004-0.229-0.053-0.273-0.117c-0.043-0.064-0.047-0.291-0.047-0.291s-0.227-0.15-0.336-0.268s-0.234-0.616-0.248-0.815
	c-0.012-0.198,0.24-0.468,0.318-0.518c0.08-0.049,0.338-0.125,0.428-0.153s0.496-0.16,0.496-0.16l-0.223-0.506
	c0,0-0.543-0.943-1.072-1.832c-0.564-0.944-1.064-1.813-1.178-1.984c-0.221-0.331-0.887-1.739-1.113-2.193
	c-0.229-0.453-0.336-0.452-0.5-0.887c-0.166-0.434-0.193-1.168-0.193-1.168s-0.252-0.57-0.414-0.797
	c-0.134-0.189-0.576-0.544-0.791-0.851c-0.216-0.307-0.491-0.64-0.491-0.64s-0.628,0.066-0.862,0.045
	c-0.234-0.023-0.767-0.236-0.822-0.316c-0.057-0.081-0.041-1.765-0.041-2.279c0-0.514-0.055-1.221-0.137-1.926
	c-0.083-0.705-0.329-2.19-0.426-2.867c-0.096-0.676-0.301-1.838-0.328-2.352c-0.027-0.515-0.053-0.956-0.032-1.021
	c0.019-0.066,0.073-0.154-0.036-0.199c-0.109-0.043-0.236-0.199-0.262-0.496s0.133-0.566,0.133-0.566s-0.062,0.053-0.215-0.168
	c-0.154-0.221-0.166-0.678-0.323-1.354c-0.157-0.677-0.341-1.586-0.5-2.354c-0.172-0.828-0.446-1.81-0.562-2.354
	c-0.146-0.688-0.229-0.812-0.229-0.812l-0.369,0.609c-0.203,0.344-0.328,0.5-0.484,0.75c-0.142,0.226-0.743,1.131-0.84,1.211
	c-0.098,0.081-0.328-0.096-0.219,0c0.107,0.096-0.576-0.441-0.576-0.441l-0.219,0.189l-0.684,0.603l-1.67,1.759l-1.65,1.727
	l-0.79,0.729L3.748,24.41l-0.158,0.305l-0.248,0.389L3.07,25.357l-0.531,0.158l-0.168,0.049l0.135,0.193l-0.102,0.305l-0.509,0.169
	l-0.214,0.013l-0.52-0.121l-0.26-0.34L0.744,25.2L0.924,24.302z"/>
<path id="skin-face" fill-rule="evenodd" clip-rule="evenodd" fill="#F9CAA9" d="M15.189,8.556c0,0-0.222-0.34-0.559-0.515
	c-0.41-0.212-0.455-0.197-0.91-0.425c-0.502-0.251-0.575-0.432-0.489-0.561c0.122-0.183,0.366-0.47,0.391-0.756
	c0.04-0.448-0.191-0.445-0.289-0.463c-0.14-0.023-0.374,0.066-0.467,0.184c-0.102,0.125-0.174,0.328-0.232,0.551
	c-0.035,0.133-0.047,0.373-0.137,0.333c-0.206-0.093-0.145-0.017-0.212-0.106c-0.129-0.17-0.237-0.501-0.318-0.742
	c-0.106-0.318-0.167-0.485-0.243-0.773c-0.045-0.121-0.045-0.395-0.045-0.395s-0.188,0.043-0.363,0.061
	c-0.139,0.016-0.531-0.061-0.531-0.061l0.092,0.137l0.076,0.203C11,5.231,11.197,5.246,11.23,5.271
	c0.037,0.027,0.322,0.146,0.308,0.167c-0.047-0.003-0.229-0.049-0.319-0.063c-0.09,0-0.161,0.004-0.228,0.02l0.001,0.004
	c0,0,0.045,0.157,0.074,0.285c0.055,0,0.217,0.061,0.247,0.058c0.117-0.003,0.104,0.042,0.349-0.079
	c0.014,0.014-0.222,0.189-0.299,0.225c-0.046,0.02-0.191,0.037-0.309,0.051c-0.068,0.171-0.215,0.469-0.215,0.469
	s-0.102,0.201-0.029,0.302c0.058,0.081,0.287,0.06,0.318,0.113c0.07,0.121,0.18,0.438,0.217,0.581
	c0.039,0.143,0.119,0.527,0.198,0.746c0.138,0.379,0.191,0.394,0.343,0.484c0.123,0.074,0.289,0.076,0.455,0.016
	c0.137-0.031,0.453-0.08,0.453-0.08S12.99,9,13.107,9.271c0.047,0.109,0.672,0.047,0.985,0c0.627-0.094,1.125-0.188,1.109-0.344
	C15.187,8.787,15.189,8.556,15.189,8.556z M11.726,7.703c-0.082,0.053-0.145-0.012-0.183-0.08l0.052-0.105
	C11.65,7.56,11.767,7.56,11.726,7.703z M13.042,6.733l0.162-0.64C13.461,6.419,13.042,6.733,13.042,6.733z"/>
<path fill="#FFFFFF" d="M16.17,3.279c0.062,0.162-0.172-0.016-0.469-0.25c-0.283-0.225-0.391-0.475-0.48-0.797
	c-0.029-0.107-0.042-0.196-0.043-0.267C15.176,1.888,15.17,1.8,15.205,1.804c0.074,0.006,0.094-0.033,0.125,0.084
	c0.072,0.27,0.184,0.496,0.266,0.641C15.791,2.874,16.121,3.153,16.17,3.279z"/>
<path id="hair" fill-rule="evenodd" clip-rule="evenodd" fill="#F7DD7F" d="M16.242,4.55c-0.046-0.527-0.045-0.892-0.076-0.904
	c-0.275-0.107-0.475-0.244-0.781-0.475c-0.257-0.192-0.363-0.469-0.414-0.612c-0.137-0.398-0.061-0.766-0.152-0.798
	c-0.398-0.144-0.951-0.324-1.641-0.305c-0.771,0.021-1.144,0.211-1.438,0.367c-0.292,0.157-0.796,0.506-1.041,0.949
	c-0.001,0.002-0.004,0.008-0.006,0.011c-0.195,0.266-0.359,0.538-0.484,0.755c-0.162,0.283-0.49,0.475-0.428,0.46
	c0.26,0.03,0.367,0,0.535-0.093c0.133-0.072-0.136,0.613-0.307,0.812c0.579,0.047,0.934-0.426,1.027-0.353
	c0.045,0.036,0.182-0.045-0.154,0.214c0.395,0.093,0.879-0.095,0.949-0.168c0.119-0.094,0.064,0.253,0.082,0.459
	c0.016,0.174,0.111,0.541,0.184,0.751c0.188,0.547,0.293,0.972,0.322,0.827c0.061-0.307,0.214-0.705,0.52-0.857
	c0.045-0.022,0.099-0.043,0.156-0.061c0.008-0.002,0.014-0.004,0.021-0.006c0.055-0.016,0.117-0.027,0.181-0.033
	c0.017-0.002,0.034-0.002,0.051-0.002c0.034-0.002,0.07,0,0.106,0.002c0.186,0.021,0.35,0.131,0.428,0.436
	c0.143,0.723-0.27,1.085-0.28,1.164c-0.016,0.109,0.546,0.391,0.849,0.506c0.443,0.168,0.791,0.551,0.857,0.551
	c0.057,0,0.318-0.57,0.414-0.689c0.474-0.597,0.611-0.965,0.765-1.576C16.365,5.422,16.273,4.902,16.242,4.55z M15.57,5.236
	c0.003,0.133-0.055-0.395-0.201-0.84c-0.139-0.414-0.343-0.735-0.107-0.551C15.709,4.193,15.553,4.427,15.57,5.236z"/>
<path id="hair-p" fill="#F7DD7F" d="M18.912,5.144c-0.18-0.498-0.467-1.131-0.764-2.256c-0.268-1.012-0.498-1.404-0.781-1.625
	c-0.17-0.132-0.321-0.232-0.609-0.281c-0.734-0.125-1.123,0.469-1.232,0.641c0,0,0.078,0.25,0.154,0.391
	c0.268,0.496,0.314,0.547,0.58,0.875c0.07,0.088,0.122,0.152,0.166,0.221c0.116,0.102,0.34,0.308,0.442,0.467l-0.355-0.027
	c0.008,0.221,0.022,0.558,0.11,1.193c0.094,0.797,0.151,1.006,0.37,1.49c0.219,0.531,0.406,0.641,0.532,1.172
	c-0.043-0.183,0.201-0.438,0.248-0.672c0,0,0.248,0.729,0.172,0.797c0.312-0.281,0.314-0.583,0.344-0.875
	c0,0,0.422,0.375,0.297,0.703c0.025-0.025,0.184-0.107,0.232-0.322c0.041-0.184-0.027-0.493-0.043-0.615
	c0,0,0.299,0.275,0.234,0.547C19.181,6.253,19.134,5.763,18.912,5.144z"/>
<path id="skin-leg-r" fill-rule="evenodd" clip-rule="evenodd" fill="#F9CAA9" d="M26.376,33.797c0,0-0.68-0.566-0.896-0.662
	s-0.561-0.237-0.561-0.237s-0.051-0.302-0.078-0.376c-0.018-0.049-0.029-0.09-0.133-0.041c-0.104,0.051-0.496,0.229-0.574,0.243
	c-0.078,0.014-1.09-0.009-1.09-0.009s1.205-0.492,1.506-0.625c0.301-0.132,0.48-0.234,0.672-0.353
	c0.189-0.117,0.545-0.367,0.545-0.367s0.045,0.079,0.16,0.289c0.113,0.21,0.43,0.726,0.553,1.049s0.135,0.745,0.094,0.88
	C26.535,33.723,26.376,33.797,26.376,33.797z"/>
<path fill-rule="evenodd" clip-rule="evenodd" fill="#FFFFFF" d="M26.978,39.018l-0.25,0.016l-0.244,0.152l0.023,0.403l0.635,0.093
	c0,0,0.01,0.378-0.094,0.547c-0.104,0.168-0.01,0.168-0.234,0.285c-0.225,0.118-0.568,0.07-0.752,0.051
	c-0.186-0.021-0.398-0.207-0.523-0.371c-0.127-0.164-0.541-0.775-0.689-1.036s-0.844-1.563-0.844-1.563l-0.125,0.008l1.066-1.15
	c0,0,1.594,1.439,1.727,1.642c0.135,0.202,0.379,0.505,0.414,0.647s0.023,0.402,0.023,0.402L26.978,39.018L26.978,39.018z"/>
<path id="player-sock-r" fill-rule="evenodd" clip-rule="evenodd" fill="#0068B4" d="M25.47,34.66
	c-0.086,0.032-0.195-0.013-0.25,0.018c-0.055,0.029-0.604-0.531-0.889-0.721c-0.287-0.188-1.18-0.441-1.193-0.492
	c-0.012-0.051,0.168-0.285,0.236-0.286c0.066-0.001,0.52-0.097,0.752-0.049s0.824,0.216,1.158,0.464
	c0.332,0.246,0.77,0.525,0.729,0.584c-0.039,0.059-0.51,0.162-0.557,0.214c-0.045,0.051,0.006,0.134,0.006,0.134
	S25.558,34.627,25.47,34.66z"/>
<polygon fill-rule="evenodd" clip-rule="evenodd" fill="#FFFFFF" points="24.078,36.644 23.48,37.224 23.347,37.098 23.576,36.676 
	24.656,35.795 24.781,35.787 24.789,35.922 24.078,36.644 "/>
<path fill-rule="evenodd" clip-rule="evenodd" fill="#FFFFFF" d="M23.294,36.239c-0.127,0.114-0.213,0.29-0.305,0.35
	c-0.094,0.06-0.268,0.073-0.268,0.073s-0.432-0.367-0.641-0.727c-0.279-0.479-0.166-1.261-0.08-1.406
	c0.084-0.146,0.174-0.332,0.334-0.408s0.4-0.105,0.596-0.039s0.824,0.41,0.988,0.576c0.166,0.166,0.473,0.521,0.395,0.615
	C24.234,35.369,23.294,36.239,23.294,36.239S23.421,36.125,23.294,36.239z"/>
<polygon id="skin-leg-l" fill="#F9CAA9" points="18.734,35.574 19.966,35.287 19.992,35.625 20.068,36.545 20.125,36.945
	19.263,37.437 18.388,37.613 18.261,37.807 17.921,37.203 17.278,36.513 16.805,35.883 17.933,35.707 "/>
<polygon fill-rule="evenodd" clip-rule="evenodd" fill="#1A1A18" points="18.4,36.807 18.703,36.836 19.115,36.805 19.304,36.513 
	19.099,36.498 18.88,36.586 18.619,36.639 "/>
<path id="player-sock-l" fill="#0068B4" d="M20.972,38.717c-0.008,0.15-0.205,0.161-0.25,0.244
	c-0.047,0.083,0.033,0.189,0.109,0.232c0.078,0.041,0.176,0.021,0.359,0.171c0.184,0.15,0.367,0.351,0.562,0.721
	s0.658,1.617,0.658,1.617s0.957,2.853,1.043,3.09s0.336,0.892,0.311,0.938c-0.023,0.047-0.299,0.075-0.373,0.172
	c-0.074,0.096-0.191,0.825-0.242,0.887s-0.363-0.019-0.428-0.053c-0.062-0.033-0.283-0.682-0.283-0.682s-0.764-1.292-1.16-1.938
	c-0.398-0.647-1.307-2.22-1.516-2.61c-0.209-0.389-0.74-1.483-0.762-1.643c-0.023-0.157,0.158-0.434,0.102-0.479
	c-0.057-0.047-0.299,0.05-0.391,0.038c-0.09-0.011-0.225-0.327-0.273-0.499c-0.049-0.174-0.008-0.277,0.047-0.49
	s0.113-0.307,0.227-0.349c0.115-0.04,0.479-0.08,0.66-0.148s0.365-0.152,0.52-0.235s0.363-0.281,0.463-0.263
	c0.102,0.019,0.447,0.364,0.535,0.573C20.976,38.221,20.98,38.567,20.972,38.717z"/>
<path id="skin-arm-r" fill-rule="evenodd" clip-rule="evenodd" fill="#F9CAA9" d="M29.05,25.929l0.418,0.607
	c0,0,0.035,0.06,0.021,0.108c-0.012,0.05-0.113-0.012-0.113-0.012l-0.574-0.558l-0.057,0.109l0.531,0.545c0,0,0,0.035-0.057,0.073
	c-0.059,0.038-0.113-0.048-0.113-0.048l-0.553-0.425l-0.137,0.048l0.451,0.412c0,0,0.027,0.034-0.045,0.057
	c-0.072,0.023-0.383-0.193-0.383-0.193l-0.498-0.364l-0.27-0.202l-0.193-0.109c0,0-0.35-0.219-0.463-0.34
	c-0.113-0.12-0.203-0.375-0.203-0.375l-0.17-0.426l-0.211-0.211l-1.748-1.84l-2.092-2.041l-0.328-0.42l-0.574-0.783l-0.357-0.617
	h0.521l0.041-0.25l-0.467-0.133l-0.465-0.293l-0.41-0.722l0.576-0.308l0.406-0.228l0.688-0.386l0.111-0.055l0.459,1.062l0.354,0.875
	l1.447,1.86l2.523,3.579l0.25,0.279l0.338,0.182l0.361,0.34l0.338,0.448l0.307,0.376L29.05,25.929z"/>
<path id="player-shirt" fill-rule="evenodd" clip-rule="evenodd" fill="#0068B4" d="M20.404,16.999l-0.74,0.162l-0.191-0.411
	l-0.684-1.455l-0.205-0.59l-0.107-0.392c0,0-0.18-0.276-0.316-0.181c-0.139,0.095-0.084,0.228-0.043,0.404
	c0.041,0.176,0.125,0.507,0.125,0.507l0.178,0.556l0.562,1.725c0,0,0.699,1.869,0.916,2.521c0.219,0.656,0.613,1.415,0.584,1.552
	c-0.029,0.136,0.002,0.182-0.148,0.3s-0.717,0.382-0.717,0.382l-1.021,0.448c0,0-1.218,0.537-1.601,0.655
	c-0.383,0.117-1.479,0.264-1.738,0.309c-0.26,0.044-0.457,0.024-0.619,0.027c-0.16,0.002-0.34-0.412-0.428-0.572
	c-0.089-0.161-0.178-0.727-0.223-0.782s-0.159-0.091-0.159-0.091s-0.054-0.016-0.12,0.039s-0.08,0.473-0.094,0.602
	c-0.014,0.131,0.041,0.812,0.041,0.812s-0.068,0.035-0.172-0.082c-0.104-0.117-0.062-0.234-0.188-0.812
	c-0.125-0.578-0.497-2.301-0.647-2.932c-0.149-0.633-0.546-2.309-0.604-2.584c-0.167-0.791-0.269-0.955-0.25-1.172
	c0.018-0.217-0.011-0.53,0.027-0.586c0.039-0.057-0.177-0.262-0.315-0.182c-0.138,0.081-0.204,0.316-0.232,0.5
	s-0.042,0.529-0.042,0.529s0.057,0.331,0.029,0.412c-0.029,0.08-0.756,1.256-0.975,1.609s-0.436,0.779-0.519,0.801
	c-0.083,0.022-1.384-1.19-1.384-1.19s-0.52-0.492-0.725-0.698c-0.08-0.08-0.208-0.162-0.264-0.251
	c-0.061-0.097,0.043-0.286,0.127-0.438c0.203-0.376,0.604-1,0.75-1.312c0.146-0.312,1.707-3.447,1.854-3.709
	c0.219-0.391,0.55-0.891,1.084-1.209c0.355-0.211,1.396-0.604,1.396-0.604s0.312,0.021,0.645,0.042
	c0.096,0.006,0.753-0.05,0.834-0.062c0.541-0.083,1.003-0.13,1.271-0.292c0.268-0.162,0.297-0.266,0.297-0.266
	s0.786,0.057,1.453,0.141c0.578,0.072,0.853,0.125,1.269,0.334c0.271,0.135,0.74,0.609,0.918,0.854s0.566,0.693,0.895,1.271
	c0.152,0.266,0.727,1.258,0.875,1.562c0.15,0.303,0.662,1.349,0.834,1.708s0.396,0.917,0.396,0.917l0.037,0.129l-0.492,0.311
	l-1.012,0.545L20.404,16.999z"/>
<path id="player-shorts" fill-rule="evenodd" clip-rule="evenodd" fill="#FFFFFF" d="M25.822,30.744
	c-0.041,0.097-0.299,0.303-0.539,0.465c-0.24,0.161-0.898,0.513-1.295,0.697c-0.396,0.184-0.91,0.354-1.209,0.46
	c-0.297,0.106-0.43,0.165-0.719,0.253c-0.289,0.089-0.596,0.133-0.596,0.133l-1.316-2.213l-0.17-0.271c0,0-0.068-0.074-0.137-0.295
	c-0.068-0.22-0.111-0.295-0.084-0.449c0.029-0.152,0.355-0.418,0.494-0.499c0.137-0.081,1.217-0.685,1.244-0.765
	c0.029-0.08-0.162-0.125-0.26-0.132c-0.137-0.011-0.164-0.036-0.299,0.007c-0.139,0.045-0.426,0.258-0.645,0.383
	c-0.217,0.125-0.754,0.309-0.85,0.33c-0.094,0.023-0.176-0.316-0.205-0.411c-0.053-0.169-0.07-0.258-0.164-0.309
	c-0.096-0.052-0.301-0.14-0.342-0.089c-0.041,0.053,0.066,0.419,0.014,0.529c-0.055,0.111-0.084,0.198-0.178,0.295
	c-0.096,0.096-0.275,0.139-0.344,0.205c-0.066,0.066-0.15,0.08-0.219,0.104c-0.066,0.021-0.123,0.213-0.094,0.322
	c0.027,0.111,0.135,0.125,0.217,0.104c0.084-0.021,0.164-0.096,0.275-0.117c0.109-0.021,0.586-0.096,0.67-0.059
	s0.15,0.065,0.191,0.133c0.043,0.065,0.123,0.477,0.205,0.676c0.084,0.198,0.396,0.683,0.453,0.838
	c0.055,0.154,0.084,0.779,0.084,0.779l0.355,2.822c0,0-0.645,0.188-0.959,0.272c-0.316,0.084-0.922,0.212-1.383,0.294
	c-0.574,0.104-1.01,0.162-1.38,0.214c-0.372,0.051-0.959,0.117-1.139,0.124c-0.178,0.008-0.489-0.117-0.531-0.139
	c-0.043-0.023-0.027-0.904-0.042-1.441s-0.044-1.772-0.111-2.265c-0.067-0.491-0.259-1.933-0.368-2.624
	c-0.109-0.69-0.372-2.413-0.398-2.647s-0.039-0.484-0.039-0.705s0.062-0.484,0.062-0.484s0.053-0.125,0.207-0.21
	s0.324-0.085,0.469-0.173s0.326-0.178,0.389-0.236c0.062-0.058-0.021-0.206-0.185-0.176c-0.163,0.029-0.863,0.19-0.944,0.198
	c-0.082,0.008-0.192-0.096-0.205-0.198s-0.002-0.266,0.082-0.287c0.083-0.021,1.285-0.186,1.662-0.258
	c0.379-0.072,1.307-0.193,1.623-0.293c0.318-0.1,2.552-1.02,2.748-1.143c0.195-0.122,0.346-0.235,0.447-0.289
	c0.104-0.053,0.156-0.084,0.213-0.068c0.055,0.016,0.123,0.117,0.184,0.221c0.064,0.104,0.084,0.258,0.064,0.397
	c-0.021,0.14-0.477,0.263-0.602,0.353c-0.125,0.088-0.49,0.227-0.57,0.287c-0.129,0.096-0.186,0.146-0.205,0.209
	c-0.02,0.062,0.131,0.211,0.314,0.181c0.186-0.03,0.775-0.235,0.973-0.276c0.238-0.048,0.389-0.078,0.541,0.041
	c0.061,0.047,0.182,0.113,0.328,0.293c0.219,0.27,0.484,0.695,0.615,0.897c0.219,0.339,1.293,2.116,1.293,2.116
	s0.65,1.06,0.883,1.442c0.234,0.383,0.619,0.989,0.789,1.289c0.17,0.299,0.545,0.908,0.545,0.908S25.861,30.648,25.822,30.744z"/>
<path fill-rule="evenodd" clip-rule="evenodd" fill="#1A1A18" d="M16.879,22.068c-0.035,0.143,0.016,0.139-0.084,0.17
	c-0.102,0.031-1.149-2.527-1.18-2.748c-0.03-0.22,0.107-0.467,0.094-0.601c-0.015-0.134-0.611-3.048-0.648-3.208
	s-0.001-0.298,0.084-0.17c0.084,0.127,0.922,3.71,1.03,4.08C16.283,19.96,16.879,22.068,16.879,22.068S16.914,21.925,16.879,22.068z
	"/>
<path fill-rule="evenodd" clip-rule="evenodd" fill="#1A1A18" d="M16.054,29.893c-0.154-0.008-0.671-0.255-0.755-0.322
	s-0.158-0.475-0.148-0.521c0.01-0.046,0.07-0.047,0.122-0.039s0.519,0.382,0.792,0.452s0.624-0.006,0.682,0.062
	c0.057,0.067,0.025,0.239-0.049,0.301C16.625,29.885,16.054,29.893,16.054,29.893S16.209,29.9,16.054,29.893z"/>
<polygon id="skin-arm-l" fill-rule="evenodd" clip-rule="evenodd" fill="#F9CAA9" points="7.585,19.179 7.688,19.424
	7.825,19.513 7.455,20.085 6.183,21.451 3.789,23.878 3.413,24.201 3.261,24.493 2.888,24.896 2.46,25.042 2.157,24.97 1.85,24.921 
	1.651,25.107 1.546,25.398 1.975,25.697 1.975,25.832 1.338,25.692 1.158,25.188 1.291,24.554 1.906,24.072 2.437,23.769 
	2.915,23.429 4.814,20.824 6.58,18.232 7.21,17.365 8.044,18.189 8.769,18.849 8.338,19.144 8.132,19.145 7.667,18.893 "/>
<path fill-rule="evenodd" clip-rule="evenodd" fill="#1A1A18" d="M25.982,38.889c-0.059-0.08-0.084-0.337-0.01-0.405
	s0.322-0.089,0.375-0.013c0.051,0.078,0.039,0.211,0.008,0.27s-0.195,0.172-0.123,0.14S26.041,38.968,25.982,38.889z"/>
<path fill-rule="evenodd" clip-rule="evenodd" fill="#1A1A18" d="M26.146,40.231c0,0-0.209,0.063-0.279-0.044
	c-0.072-0.105,0.018-0.354,0.018-0.354s0.18-0.15,0.246-0.143c0.064,0.008,0.254,0.154,0.264,0.316S26.146,40.231,26.146,40.231
	L26.146,40.231z"/>
<path fill-rule="evenodd" clip-rule="evenodd" fill="#1A1A18" d="M25.587,38.227c-0.074-0.033-0.129-0.131-0.129-0.131
	s-0.031-0.199,0.061-0.244c0.09-0.045,0.271-0.061,0.307-0.039c0.037,0.023,0.131,0.133,0.131,0.133s-0.029,0.203-0.119,0.273
	C25.75,38.287,25.662,38.258,25.587,38.227z"/>
<path fill-rule="evenodd" clip-rule="evenodd" fill="#1A1A18" d="M25.375,39.582c0.074,0.037-0.152-0.087-0.186-0.126
	s-0.018-0.202,0.049-0.274s0.307-0.08,0.375-0.012c0.07,0.066,0.115,0.342,0.012,0.404S25.3,39.543,25.375,39.582z"/>
<path fill-rule="evenodd" clip-rule="evenodd" fill="#1A1A18" d="M24.765,38.364c0.059-0.052,0.338-0.044,0.377-0.011
	c0.039,0.031,0.066,0.343,0.01,0.404c-0.059,0.061-0.342,0.096-0.375,0.012C24.742,38.684,24.707,38.417,24.765,38.364z"/>
<path fill-rule="evenodd" clip-rule="evenodd" fill="#1A1A18" d="M23.224,35.298c-0.113-0.08-0.119-0.418,0.008-0.503
	c0.127-0.086,0.291-0.026,0.398,0.061c0.105,0.088,0.062,0.414-0.008,0.467C23.554,35.375,23.337,35.379,23.224,35.298z"/>
<path fill-rule="evenodd" clip-rule="evenodd" fill="#1A1A18" d="M22.714,34.761c-0.064-0.063-0.207-0.305-0.119-0.351
	c0.088-0.047,0.381-0.117,0.5-0.016s0.029,0.324-0.035,0.366C22.998,34.801,22.779,34.824,22.714,34.761z"/>
<path fill-rule="evenodd" clip-rule="evenodd" fill="#1A1A18" d="M22.496,35.358c0,0-0.148,0.097-0.252,0.007
	c-0.104-0.089-0.15-0.457-0.016-0.538c0.137-0.081,0.143-0.136,0.252-0.009s0.145,0.671,0.145,0.671S22.902,35.38,23,35.477
	c0.1,0.096,0.082,0.359,0.012,0.404c-0.068,0.046-0.297,0.059-0.375,0.012C22.556,35.845,22.496,35.358,22.496,35.358z"/>
</svg>
