<?xml version="1.0" encoding="utf-8"?>
<!-- Generator: Adobe Illustrator 16.0.4, SVG Export Plug-In . SVG Version: 6.00 Build 0)  -->
<!DOCTYPE svg PUBLIC "-//W3C//DTD SVG 1.1//EN" "http://www.w3.org/Graphics/SVG/1.1/DTD/svg11.dtd" [
	<!ENTITY ns_flows "http://ns.adobe.com/Flows/1.0/">
	<!ENTITY ns_extend "http://ns.adobe.com/Extensibility/1.0/">
	<!ENTITY ns_ai "http://ns.adobe.com/AdobeIllustrator/10.0/">
	<!ENTITY ns_graphs "http://ns.adobe.com/Graphs/1.0/">
]>
<svg version="1.1" id="Ebene_1" xmlns:x="&ns_extend;" xmlns:i="&ns_ai;" xmlns:graph="&ns_graphs;"
	 xmlns="http://www.w3.org/2000/svg" xmlns:xlink="http://www.w3.org/1999/xlink" xmlns:a="http://ns.adobe.com/AdobeSVGViewerExtensions/3.0/"
	 x="0px" y="0px" width="36px" height="54px" viewBox="0 0 36 54" style="enable-background:new 0 0 36 54;" xml:space="preserve">
<style type="text/css">
<![CDATA[
	.st0{fill-rule:evenodd;clip-rule:evenodd;fill:#1A1A18;}
	.st1{fill-rule:evenodd;clip-rule:evenodd;fill:#FBCDAA;}
	.st2{fill-rule:evenodd;clip-rule:evenodd;fill:#FFFFFF;}
	.st3{fill-rule:evenodd;clip-rule:evenodd;fill:#0068B4;}
]]>
</style>
<path class="st0" d="M35.69,27.57c0,0,0.04,0,0.05-0.09c0-0.1-0.13-0.43-0.22-0.56c-0.09-0.13-0.32-0.34-0.41-0.47
	c-0.1-0.13-0.45-0.53-0.56-0.66c-0.11-0.13-0.29-0.38-0.49-0.47c-0.17-0.08-0.52-0.21-0.69-0.23c-0.17-0.02-0.41-0.07-0.51-0.12
	c-0.1-0.04-1.59-1.68-1.59-1.68l-2.04-2.37l-0.92-1.09l-0.85-1.31c0,0,0.27-0.08,0.31-0.18c0.04-0.1-0.23-1.27-0.31-1.79
	s-0.52-3.49-0.6-3.77s-0.18-0.56-0.36-0.84s-0.76-1-1.05-1.22C25.18,10.52,24,9.65,24,9.65l-0.73-0.52c0,0-0.28-0.16-0.3-0.22
	s-0.06-0.73-0.03-0.84s0.15-0.22,0.15-0.22l0.26,0.03l0.17-0.34l0.43-0.47l0.28-0.53l0.46-0.77l0.18-0.79l0.4-0.23l-0.28-0.59
	l0.16-0.49l0.07-0.12l-0.53-1.33l-0.38-0.47l-0.38-0.55l-0.18,0.1L23.52,1l-0.79-0.2l-0.1-0.13l-0.86,0.1l-0.72,0.21l-0.58-0.12
	L20.33,1l-0.44,0.08l-0.55,0.54l-0.39,0.56l-0.09,0.36l-0.23,0.06l0.15,0.62l-0.35,0.5l0.24,0.53L18.6,4.74l0.3,0.79l-0.03,0.45
	L19,6.41l0.32,0.28v0.6l0.15,0.21l-0.03,0.21l-0.26,0.32L18.3,8.19c0,0-1.72,0.37-2.05,0.5C16,8.79,15.52,9.06,15.19,9.3
	s-0.86,0.69-0.86,0.69l-1.27,1.12c0,0-1.17,1-1.5,1.28s-1.07,0.84-1.38,1.11s-0.48,0.37-0.51,0.45s0.09,0.27,0.09,0.27l-0.64,0.52
	l-1.08,0.9L7.2,16.25l-1.96,1.41l-1.68,1.22l-0.75,0.49c0,0-1.11,0.06-1.27,0.08c-0.16,0.02-0.5,0.12-0.66,0.19
	c-0.16,0.07-0.2,0.08-0.29,0.17c-0.09,0.09-0.32,0.49-0.33,0.64s-0.1,0.46-0.01,0.68c0.09,0.22,0.24,0.49,0.38,0.57
	c0.14,0.08,0.54,0.25,0.69,0.25c0.15-0.01,0.28-0.07,0.28-0.07l0.33-0.48l0.34-0.01c0,0,0.77-0.17,1.03-0.28
	c0.26-0.12,0.76-0.53,0.76-0.53s1.96-0.9,2.23-1.01s1.4-0.64,1.7-0.78c0.3-0.14,2.68-1.3,2.8-1.36c0.3-0.12,0.55-0.2,0.62-0.17
	s0.4,0.72,0.56,0.76c0.01,0,0.12,0.01,0.24-0.05c0.47-0.24,1.28-0.78,1.59-0.97s0.7-0.44,0.76-0.46c0.07-0.02,0.07-0.01,0.11,0.11
	s0.04,1.75,0.06,2.12c0.02,0.38,0.09,4.19,0.16,4.35s0.18,0.21,0.18,0.32s-0.15,0.34-0.2,0.59c-0.05,0.24,0.04,0.48,0,0.61
	c-0.03,0.13-0.11,0.29-0.17,0.44c-0.12,0.26-0.1,0.7-0.14,0.97c-0.04,0.27-0.12,2.27-0.09,2.86s0.07,1.51,0.08,1.96
	s-0.04,3.44-0.07,3.84s-0.02,1.33,0.03,1.41c0.05,0.07,0.55,0.12,0.55,0.12l0.07,1.67c0,0-0.13,0.54-0.16,0.72
	c-0.03,0.17,0,0.48,0.02,0.62s0.12,0.52,0.12,0.52l-0.19,0.69c0,0-0.19,0.89-0.14,1.38c0.05,0.49,0.12,0.95,0.19,1.3
	s0.21,0.98,0.32,1.5c0.11,0.52,0.32,2.05,0.38,2.4c0.06,0.35,0.18,2.17,0.15,2.33c-0.03,0.16-0.11,0.5-0.11,0.5s0.08,0.79,0.06,0.87
	c-0.03,0.07-0.2,0.26-0.31,0.42s-0.14,0.39-0.19,0.66s-0.06,0.75-0.05,0.88c0.01,0.12,0.19,0.3,0.19,0.3l0.42,0.07
	c0,0,0.02,0.22,0.08,0.26c0.07,0.04,0.39,0.05,0.46,0.02s0.13-0.23,0.13-0.23l0.73,0.04c0,0,0.06,0.16,0.11,0.2s0.41,0.02,0.47-0.02
	c0.05-0.05,0.13-0.22,0.13-0.22l0.52-0.12l0.14-0.16l0.04-0.37c0,0-0.09-0.81-0.14-1.05c-0.05-0.24-0.1-0.47-0.1-0.61
	c0-0.14,0.07-0.5,0.06-0.81c-0.01-0.31-0.16-0.89-0.16-0.89s0.08-1.25,0.16-1.76c0.08-0.51,0.45-2.32,0.52-2.84
	c0.07-0.51,0.12-0.92,0.12-1.52c0-0.59-0.07-1.55-0.09-1.67c-0.03-0.12-0.07-0.32-0.11-0.52c-0.04-0.2-0.19-0.61-0.19-0.61
	s0.04-0.05,0.12-0.22s0.06-0.33,0.06-0.58c0-0.25,0.01-0.42,0-0.53s0.03-0.37,0.03-0.37s0.48-1.19,0.59-1.41s0.28-0.57,0.28-0.57
	s1.11-0.07,1.17-0.12s0.03-0.51,0.06-0.57s0.71-0.25,0.71-0.25s0.39,0.39,0.41,0.5s0.01,0.19-0.03,0.22
	c-0.04,0.03-0.48,0.17-0.68,0.3c-0.15,0.09-0.32,0.23-0.4,0.44c-0.07,0.21-0.26,0.6-0.18,1.38c0.04,0.41,0.48,1.12,0.56,1.23
	s0.37,0.39,0.5,0.59c0.13,0.21,0.36,0.37,0.46,0.55c0.11,0.17,0.6,1.01,0.77,1.41c0.18,0.39,0.5,1.09,0.61,1.34
	c0.11,0.24,0.29,0.61,0.45,0.84c0.15,0.23,0.22,0.36,0.46,0.53c0.24,0.17,0.99,0.43,1.54,0.17c0.3-0.15,0.44-0.3,0.53-0.48
	c0.09-0.19,0.11-0.24,0.21-0.61c0.1-0.37,0.13-0.73,0.11-0.97c-0.04-0.52-0.18-0.65-0.3-0.98s-0.36-0.85-0.47-1.15
	c-0.11-0.29-0.22-0.33-0.3-0.8c-0.08-0.47-0.16-0.99-0.16-0.99s-0.01-0.19,0.09-0.25c0.1-0.07,0.41-0.26,0.41-0.26
	s0.73-0.44,0.83-0.52s0.2-0.17,0.3-0.49c0.1-0.32,0.07-0.58,0.04-1.13c-0.01-0.26-0.2-0.84-0.33-1.28
	c-0.15-0.51-0.29-0.91-0.29-0.91s0.21-0.12,0.27-0.2s0.09-0.16,0.05-0.35s-0.5-1.63-0.61-2.01s-0.23-1.14-0.36-1.64
	s-0.35-1.39-0.47-1.88s-0.29-1.07-0.38-1.44s-0.36-1.52-0.45-1.76s-0.33-0.52-0.33-0.52s-0.06-0.53-0.23-0.85
	c0.02-0.15,0.11-0.23,0.19-0.68s-0.39-3-0.39-3l-0.05-0.4l0.97,1.45l0.67,0.73c0,0,1.08,0.92,1.36,1.16s1.42,1.25,1.42,1.25
	l1.66,1.41l0.98,0.91l0.45,0.42c0,0,0.34,0.56,0.45,0.68c0.11,0.12,0.27,0.24,0.38,0.35c0.11,0.11,1.13,0.64,1.29,0.68
	c0.16,0.04,0.55,0.11,0.55,0.11s0.3-0.03,0.38-0.01c0.09,0.02,0.21,0.04,0.46-0.04c0.08-0.03,0.05-0.27,0.11-0.27
	c0.05,0,0.12,0.01,0.22,0c0.1-0.01,0.14-0.06,0.19-0.11s0.08-0.08,0.09-0.2C35.77,27.92,35.69,27.57,35.69,27.57z"/>
<path id="skin-leg-r" class="st1" d="M26.65,37.5c0,0-0.56-0.73-0.8-0.94s-0.58-0.36-0.58-0.36s0.01-0.35-0.01-0.41
	c-0.02-0.06-0.04-0.08-0.14-0.07c-0.1,0.01-0.6,0.14-0.69,0.13c-0.09-0.01-1.4-0.2-1.46-0.19s-0.19,0.02-0.24,0.02
	c-0.04-0.01-0.36-0.38-0.36-0.38s0.54-0.16,0.99-0.32s1.11-0.38,1.39-0.47s1.07-0.3,1.09-0.29c0.02,0.01,0.01-0.43,0.08-0.39
	c0.07,0.04,0.27,0.36,0.27,0.36l0.25,0.05c0,0,0.24,0.74,0.3,0.98s0.31,0.91,0.32,1.22s0.03,0.74-0.07,0.84S26.65,37.5,26.65,37.5z"
	/>
<path class="st2" d="M26.35,43.04c0,0-0.15-0.05-0.29-0.01s-0.2,0.11-0.22,0.22c-0.01,0.09-0.05,0.23,0.02,0.34s0.55,0.17,0.55,0.17
	s-0.15,0.43-0.22,0.55s-0.16,0.22-0.46,0.28c-0.2,0.04-0.43,0-0.72-0.14c-0.28-0.14-0.51-0.5-0.51-0.5s-0.36-0.71-0.56-1.23
	c-0.21-0.52-0.63-1.81-0.63-1.81l-0.14-0.02l1.43-0.97l1.61,2.09c0,0,0.25,0.37,0.31,0.68s-0.04,0.51-0.04,0.51L26.35,43.04
	L26.35,43.04z"/>
<path class="st0" d="M25.37,42.77c-0.05-0.09-0.04-0.37,0.05-0.43c0.1-0.06,0.38-0.04,0.43,0.05c0.04,0.09,0.01,0.23-0.04,0.28
	c-0.04,0.06-0.25,0.15-0.16,0.12C25.74,42.78,25.42,42.86,25.37,42.77z"/>
<path class="st0" d="M25.33,44.21c0,0-0.24,0.03-0.31-0.1s0.08-0.37,0.08-0.37s0.23-0.13,0.3-0.11c0.07,0.02,0.26,0.21,0.24,0.38
	S25.33,44.21,25.33,44.21L25.33,44.21z"/>
<path id="player-sock-r" class="st3" d="M25.53,38.17c-0.06,0.02-0.29-0.04-0.29-0.04s-0.27-0.52-0.79-1s-1.3-0.71-1.3-0.71
	s0.14-0.24,0.32-0.25c0.18-0.01,0.51,0.01,0.85,0.11c0.34,0.1,1.02,0.5,1.25,0.72s0.72,0.83,0.72,0.83s-0.71,0.02-0.73,0.05
	c-0.02,0.03-0.02,0.14-0.02,0.14S25.59,38.14,25.53,38.17z"/>
<path class="st0" d="M25.04,42c-0.08-0.05-0.12-0.16-0.12-0.16s0-0.21,0.11-0.25s0.32-0.01,0.35,0.02c0.04,0.03,0.12,0.16,0.12,0.16
	s-0.07,0.21-0.18,0.27C25.21,42.1,25.11,42.05,25.04,42z"/>
<path class="st0" d="M24.57,43.39c0.08,0.05-0.16-0.12-0.19-0.17s0.01-0.22,0.1-0.28c0.09-0.06,0.36-0.03,0.43,0.05
	c0.07,0.08,0.07,0.38-0.06,0.43C24.72,43.47,24.49,43.33,24.57,43.39z"/>
<path class="st0" d="M24.09,42c0.07-0.04,0.39,0.01,0.43,0.06c0.04,0.04,0.02,0.37-0.06,0.43c-0.08,0.05-0.4,0.04-0.43-0.05
	C24,42.33,24.01,42.04,24.09,42z"/>
<path class="st2" d="M23.57,39.93c0,0-0.69,0.46-0.79,0.48c-0.09,0.01-0.08-0.07-0.12-0.16C22.61,40.16,23,39.86,23,39.86
	s1.22-0.75,1.31-0.75s0.22,0.08,0.22,0.08s0.04,0.04-0.02,0.14C24.46,39.44,23.57,39.93,23.57,39.93L23.57,39.93z"/>
<path class="st2" d="M22.77,39.4l-0.48,0.37c0,0-0.12-0.06-0.26-0.16s-0.54-0.7-0.61-1c-0.04-0.17-0.11-0.49-0.05-0.83
	c0.05-0.26,0.06-0.45,0.23-0.62s0.24-0.25,0.48-0.31c0.24-0.05,0.48-0.04,0.71,0.09c0.23,0.14,0.78,0.55,0.98,0.81
	s0.42,0.67,0.42,0.67l-0.02,0.14L22.77,39.4L22.77,39.4z"/>
<path class="st0" d="M22.86,38.5c-0.11-0.11-0.06-0.46,0.09-0.53c0.16-0.07,0.33,0.03,0.44,0.14s0,0.45-0.08,0.49
	C23.22,38.64,22.98,38.61,22.86,38.5z"/>
<path class="st0" d="M22.38,37.85c-0.06-0.08-0.18-0.36-0.08-0.39c0.11-0.03,0.45-0.05,0.57,0.07c0.12,0.13-0.02,0.35-0.1,0.38
	S22.44,37.92,22.38,37.85z"/>
<path class="st0" d="M22.03,38.43c0,0-0.18,0.07-0.29-0.04c-0.1-0.11-0.09-0.51,0.07-0.57c0.17-0.06,0.18-0.12,0.29,0.04
	c0.1,0.15,0.05,0.73,0.05,0.73s0.33-0.06,0.43,0.05c0.09,0.12,0.03,0.39-0.05,0.43s-0.34,0.01-0.43-0.06S22.03,38.43,22.03,38.43z"
	/>
<path id="skin-leg-l" class="st1" d="M18.84,37.5c-0.1,0.21-0.35,0.73-0.35,0.73s-0.75-0.14-1.15-0.17s-1.6-0.07-1.6-0.07
	s-0.11-1.81-0.06-1.81s2.25,0.19,2.25,0.19l1.36,0.07c0,0-0.07,0.25-0.14,0.41S18.93,37.28,18.84,37.5z"/>
<path id="player-sock-l" class="st3" d="M18.49,41.08c-0.03-0.23-0.15-0.48-0.26-0.69S18,40.03,18,40.03l0.09-0.14l0,0l0.16-0.08
	c0,0,0.12-0.19,0.14-0.42s-0.03-0.56-0.12-0.65s-0.22-0.12-0.55-0.16s-1.54-0.08-1.74-0.08c-0.2,0-0.32-0.02-0.38,0.05
	c-0.06,0.06-0.19,0.37-0.12,0.55c0.07,0.18,0.23,0.29,0.33,0.38s0.23,0.1,0.23,0.1s0.16,0,0.21,0.06s-0.02,0.15-0.1,0.22
	c-0.2,0.15-0.48,0.14-0.48,0.14s-0.07,0.06-0.14,0.19s-0.17,0.66-0.19,0.88s-0.05,0.47-0.03,0.8s0.14,1.27,0.22,1.56
	s0.25,0.99,0.32,1.39s0.39,3.09,0.39,3.09l0.06,1.67l0.31-0.41l0.41-0.06l0.55,0.08l0.24,0.59l0.08-2.01c0,0,0.48-2.47,0.6-3.06
	s0.17-1.52,0.17-2.03S18.51,41.31,18.49,41.08z"/>
<path class="st0" d="M17.79,44.22c-0.06-0.07-0.15-2.69-0.08-2.72c0.07-0.03,0.26,0.13,0.29,0.28c0.04,0.14,0.03,0.65,0.03,0.86
	c0,0.21-0.02,1.34-0.1,1.44C17.85,44.17,17.79,44.22,17.79,44.22S17.86,44.32,17.79,44.22z"/>
<path class="st0" d="M17.53,37.39c-0.09-0.01-0.3-0.08-0.44-0.08c-0.14,0-0.42,0.05-0.45,0.05s-0.07-0.11,0.03-0.17
	c0.1-0.06,0.43-0.21,0.53-0.22c0.1-0.01,0.14-0.02,0.22,0c0.08,0.02,0.28,0.15,0.33,0.27c0.05,0.11,0.05,0.22,0.05,0.22
	S17.62,37.4,17.53,37.39z"/>
<polygon class="st2" points="16.38,52.45 16.06,52.34 15.97,52.14 16.52,52.24 17.52,52.26 18.02,52.11 17.96,52.31 17.58,52.49 "/>
<path id="skin-arm-r" class="st1" d="M33.77,27.2l1.09,0.82c0,0,0.07,0.16,0.02,0.21c-0.05,0.04-0.21-0.04-0.21-0.04l-1.18-0.72
	l-0.1,0.08l0.74,0.5c0,0,0.12,0.06,0.04,0.14s-0.23-0.04-0.23-0.04s-0.49-0.26-0.68-0.34s-0.35-0.13-0.57-0.29
	c-0.21-0.16-0.38-0.57-0.56-0.77c-0.18-0.19-3.36-3.09-3.82-3.51s-1.39-1.21-1.39-1.21l-0.72-0.62l0.03-0.28l0.36-0.37l0.05-0.28
	l-1.05,0.27l-0.64-0.84l-0.56-0.85l1.33-0.16l1.31-0.28l0.65,1.03l0.64,0.83l1.32,1.55l2.93,3.31l0.7,0.08l0.67,0.28l0.48,0.57
	l0.77,0.74c0,0,0.16,0.19,0.1,0.25s-0.21,0.02-0.21,0.02l-0.98-0.77l-0.05,0.16l1.18,0.96c0,0,0.13,0.11,0.06,0.23
	c-0.07,0.12-0.29,0-0.29,0l-1.17-0.8L33.77,27.2z"/>
<path id="player-jersey" class="st3" d="M24.97,18.57c-0.47,0.08-0.96,0.12-0.96,0.12s-0.13-0.33-0.2-0.58
	c-0.07-0.25-0.25-1.06-0.33-1.28s-0.17-0.53-0.23-0.76s-0.12-0.58-0.19-0.81s-0.08-0.55-0.19-0.58c-0.15-0.04-0.21-0.08-0.21,0.04
	s0.01,0.22,0.05,0.38s0.06,0.37,0.1,0.58c0.04,0.21,0.1,0.59,0.16,0.85c0.07,0.25,0.4,1.54,0.48,1.89c0.08,0.35,0.16,0.77,0.22,1.08
	s0.45,3.09,0.42,3.25s-0.15,0.5-0.32,0.58s-0.85,0.22-1.3,0.27s-2.04,0.01-2.42,0.05s-2.41,0.07-2.68,0.03s-0.55-0.21-0.71-0.36
	s-0.28-0.35-0.32-0.45c-0.04-0.1,0.02-0.78-0.03-0.86c-0.05-0.08-0.09-0.15-0.15-0.14s-0.04-0.02-0.14,0
	c-0.1,0.02-0.26,0.42-0.27,0.58s-0.08,0.67-0.12,0.72c-0.04,0.05-0.22-0.2-0.3-0.28c-0.07-0.08-0.1-2.46-0.1-2.78
	c0-0.39-0.06-1.84-0.06-2.19s-0.03-1.96-0.03-1.96l0.16-0.3l0.23-0.46l0-0.14l-0.15-0.14l-0.14,0l-0.45,0.81l-0.58,0.38l-1.66,1.08
	l-0.39,0.22c0,0-0.32-0.53-0.5-0.84c-0.18-0.31-0.67-1.16-0.84-1.48c-0.25-0.45-0.55-1.05-0.56-1.09s0.86-0.72,0.86-0.72l1.91-1.62
	l0.98-0.88c0,0,0.86-0.8,1.16-1.01s0.72-0.52,1.06-0.66s2.25-0.58,2.25-0.58l0.72-0.08c0,0,0.12,0.13,0.27,0.23s0.5,0.25,0.69,0.31
	s0.55,0.17,1,0.29c0.33,0.08,0.67,0.14,0.89,0.15s0.47,0.02,0.61,0s0.22-0.08,0.22-0.08s0.44,0.27,0.66,0.44s1.34,0.99,1.57,1.21
	s0.87,0.91,0.96,1.09s0.24,0.4,0.31,0.71s0.68,4.27,0.68,4.27l0.17,0.86l0,0.14c0,0-0.35,0.19-0.78,0.25S24.97,18.57,24.97,18.57
	L24.97,18.57C24.97,18.57,25.44,18.49,24.97,18.57z"/>
<path class="st0" d="M19.51,22.75c-0.02,0.11-0.04,0.17-0.14,0.15c-0.1-0.02-0.51-3-0.53-3.14c-0.01-0.13,0.22-0.44,0.27-0.58
	c0.05-0.15,0.14-3.34,0.18-3.45s0.04-0.19,0.14-0.15s-0.02,4.22-0.01,4.44S19.51,22.75,19.51,22.75S19.53,22.64,19.51,22.75z"/>
<path id="skin-arm-l" class="st1" d="M9.9,16.42c0,0.08,0.1,0.22,0.11,0.38c0,0.16,0.03,0.36,0.03,0.36l-0.31,0.25L7.5,18.59
	c0,0-2.54,1.14-2.73,1.24c-0.19,0.1-1.07,0.51-1.07,0.51s-0.49,0.36-0.61,0.4c-0.12,0.04-0.69,0.22-0.8,0.2
	c-0.11-0.03-0.36-0.13-0.46-0.16c-0.09-0.03-0.07-0.12-0.12-0.16c-0.05-0.04-0.15-0.19-0.27-0.18c-0.11,0.01-0.17,0-0.28,0.06
	c-0.11,0.06-0.07,0.13-0.08,0.19c-0.02,0.06-0.05,0.24,0,0.3c0.05,0.07,0.31,0.32,0.33,0.4c0.02,0.08-0.02,0.11-0.07,0.12
	c-0.05,0.01-0.36-0.12-0.47-0.17S0.75,21.12,0.69,21s-0.06-0.41-0.02-0.51s0.03-0.18,0.1-0.26c0.07-0.08,0.1-0.2,0.23-0.26
	c0.13-0.07,0.67-0.16,0.67-0.16l0.84-0.02l0.58-0.15l5.27-3.75L9,15.4l1.02-0.82l1.2,2.11c0,0-0.5,0.2-0.6,0.2
	c-0.1-0.01-0.49-0.41-0.58-0.47C9.94,16.36,9.9,16.34,9.9,16.42z"/>
<path id="player-shorts" class="st2" d="M26.44,32.57c-0.12-0.38-0.27-0.9-0.38-1.43s-0.28-1.2-0.45-1.85s-0.46-1.68-0.55-2.08
	s-0.31-1.28-0.36-1.42s-0.17-0.53-0.19-0.63s-0.15-0.26-0.26-0.26s-0.29,0-0.4,0.02s-1.03,0.05-1.16,0.03
	c-0.14-0.02-0.48,0.02-0.6,0.01c-0.12-0.01-0.17-0.01-0.24-0.07c-0.08-0.06-0.19-0.13-0.15-0.22c0.04-0.1,0.13-0.11,0.22-0.11
	c0.09,0.01,1.57-0.03,1.73-0.06s0.39-0.2,0.42-0.28s-0.09-0.5-0.25-0.48s-0.85,0.2-1.21,0.23s-1.18,0.04-1.41,0.05
	c-0.23,0.02-1.5,0.08-1.83,0.06s-1.85,0.06-2.02,0.03c-0.17-0.03-1.22-0.32-1.36-0.32c-0.14,0-0.51-0.04-0.53,0.03
	s-0.18,0.38-0.11,0.45c0.06,0.07,0.21,0.07,0.37,0.09c0.15,0.02,0.66,0.15,0.92,0.2c0.28,0.05,0.49,0.04,0.49,0.13
	C17.13,24.8,16.9,25,16.8,25.03s-1.3-0.23-1.4-0.17c-0.11,0.07-0.21,0.25-0.25,0.44c-0.04,0.19-0.12,0.97-0.17,1.59
	s-0.05,1.37-0.04,1.77c0.01,0.4,0.06,1.81,0.08,2.09S15,31.88,15,32.61c-0.01,0.73-0.02,1.76-0.02,1.94c0,0.37-0.07,1.01,0,1.08
	s0.8,0.09,0.8,0.09s0.62,0.04,0.96,0.07s1.49,0.12,1.83,0.14s1.08,0.04,1.31,0.05s0.66-0.07,0.66-0.07l0.04-0.54l0.03-0.63
	c0,0,0.01-0.44,0.03-0.52s0.15-0.08,0.25,0.06c0.1,0.14,0.06,0.17,0.09,0.33s0.14,0.58,0.14,0.58s1.23-0.36,1.58-0.47
	c0.5-0.16,1.42-0.45,1.81-0.58s0.59-0.2,0.77-0.27s0.21-0.04,0.25-0.11c0.02-0.04,0.07-0.41,0.14-0.59s0.18-0.11,0.27,0
	s0.27,0.43,0.32,0.5c0.04,0.06,0.33,0.03,0.41,0c0.07-0.03,0.09-0.03,0.09-0.14S26.56,32.96,26.44,32.57z M21.77,29.63l-0.35,0.05
	l-0.76,0.27l-0.16,0.36l-0.07,0.38l0.01,0.6l-0.09-0.19l-0.1-0.53l-0.13-0.16l-0.08-0.06l-0.81-0.09l-1.29-0.08l-0.25-0.04
	l0.06-0.18l0.26-0.25l0.94,0.16l1.06-0.25l-0.01-0.43l0.03-0.45l0.32-0.29l0.26,0.62l0.34,0.14l0.33,0.03l0.43-0.08l0.3,0.26
	L21.77,29.63z"/>
<path id="skin-neck" class="st1" d="M19.67,8.25l0.08-0.21l0.08-0.17l0.35,0.26l0.29,0.06l0.48,0.1l0.14,0.27l0.25-0.21l0.16-0.04
	l0.43-0.07l0.27,0l0.39-0.06L22.57,9c0,0-0.2,0.06-0.42,0.05s-0.55-0.06-0.86-0.14s-0.79-0.2-1.08-0.33S19.67,8.25,19.67,8.25z"/>
<polygon id="hair" class="st0" points="24.58,4.01 24.72,3.55 24.76,3.46 24.41,2.53 24.11,2.11 23.8,1.66 23.65,1.75 23.18,1.38 
	22.51,1.21 22.42,1.1 21.7,1.19 21.09,1.38 20.59,1.29 20.46,1.42 20.09,1.49 19.63,1.97 19.3,2.46 19.23,2.78 19.04,2.83 
	19.17,3.37 18.87,3.81 19.08,4.26 19.03,4.68 19.29,5.36 19.27,5.74 19.38,6.12 19.66,6.36 19.75,6.57 19.79,7.25 20.25,7.63 
	20.53,7.7 21.03,7.82 21.18,7.99 21.52,7.92 21.68,7.88 22.04,7.86 22.46,7.82 22.69,7.74 22.9,7.41 23.18,7.39 23.65,6.86 
	24.05,6.1 24.27,5.64 24.38,5.27 24.47,4.66 24.79,4.51 "/>
</svg>
