<?xml version="1.0" encoding="utf-8"?>
<!-- Generator: Adobe Illustrator 16.0.4, SVG Export Plug-In . SVG Version: 6.00 Build 0)  -->
<!DOCTYPE svg PUBLIC "-//W3C//DTD SVG 1.1//EN" "http://www.w3.org/Graphics/SVG/1.1/DTD/svg11.dtd">
<svg version="1.1" id="Ebene_1" xmlns="http://www.w3.org/2000/svg" xmlns:xlink="http://www.w3.org/1999/xlink" x="0px" y="0px"
	 width="27.337px" height="50.921px" viewBox="0 0 27.337 50.921" enable-background="new 0 0 27.337 50.921" xml:space="preserve">
<path fill-rule="evenodd" clip-rule="evenodd" fill="#1A1A18" d="M26.522,22.636l-0.688-0.954l-1.373-1.177l-0.553-0.672
	l-1.232-1.984l-1.025-1.61c0,0-1.189-1.951-1.438-2.316c-0.25-0.365-0.51-0.791-0.51-0.791s0.127-0.158,0.141-0.232
	c0.015-0.073-0.355-0.468-0.688-0.891c-0.33-0.423-0.698-0.83-1.125-1.359c-0.516-0.641-0.797-1.031-1.234-1.453
	c-0.453-0.437-1.062-1.078-1.5-1.203c-0.255-0.073-0.593-0.111-0.922-0.141c-0.235-0.021-1.036,0.021-1.199,0.029
	c-0.055-0.154-0.094-0.296-0.099-0.495c0.3-0.166,0.518-0.349,0.679-0.503c-0.07,0.307,0.079,0.517,0.06,0.671
	c0.206,0,0.237-0.079,0.349-0.222c0,0-0.031,0.413,0.143,0.349c0.191-0.069,0.381-0.127,0.492-0.381c0,0-0.045,0.359,0.032,0.429
	c0.108,0.096,0.369-0.193,0.413-0.265c-0.027,0.058-0.08,0.186-0.08,0.186s0.486-0.104,0.632-0.467
	c0.114-0.285,0.139-0.463,0.125-0.844c-0.009-0.264-0.081-0.523-0.172-1.062c-0.043-0.256-0.156-0.734-0.203-1.109
	c-0.049-0.39-0.11-0.925-0.16-1.294c-0.095-0.714-0.064-1.107-0.324-1.628c-0.223-0.444-0.654-0.597-1.031-0.609
	c-0.477-0.016-0.912,0.094-1.197,0.459c-0.038,0.048-0.085,0.084-0.131,0.119c-0.094,0.018-0.167,0.055-0.233,0.092
	c-0.416-0.123-0.801-0.19-1.235-0.155c-0.523,0.043-1.213,0.265-1.609,0.531C8.958,2.134,8.812,2.513,8.39,3.123
	C8.133,3.493,8.093,3.56,7.843,3.81C7.462,4.06,7.635,4.218,7.921,4.201c0.001,0-0.016,0.109-0.109,0.234
	C7.72,4.488,8.015,4.576,8.64,4.576c0.059-0.002,0.285,0.695,0.25,0.804C8.886,5.405,8.886,5.426,8.882,5.452L8.56,5.397
	c0,0,0.14,0.065,0.312,0.149c-0.03,0.251-0.045,0.485-0.044,0.67C8.83,6.705,8.921,7.076,9.046,7.498
	c0.141,0.422,0.401,0.864,0.719,1.297c0.241,0.187,0.312,0.188,0.641,0.234c0.003,0,0.005,0.002,0.008,0.003
	c-0.109,0.094-0.278,0.236-0.444,0.353c-0.172,0.121-0.766,0.531-1.047,0.891c-0.157,0.202-0.272,0.414-0.375,0.688
	c-0.102,0.273-0.265,1.139-0.312,1.5c-0.047,0.362-0.2,1.31-0.266,1.578c-0.096,0.391-0.258,1.18-0.357,1.486
	c-0.13,0.398-0.312,0.758-0.305,0.803c0.008,0.045,0.058,0.058,0.058,0.058l-0.014,0.017l-0.652,0.887l-0.501,0.739l-0.416,0.618
	l-1.097,1.449L2.77,22.219c0,0-0.368,0.066-0.602,0.162s-0.52,0.314-0.698,0.455s-0.476,0.421-0.574,0.611
	c-0.097,0.191-0.225,0.602-0.243,0.734s-0.041,0.304-0.029,0.38c0.011,0.077,0.12,0.208,0.141,0.245
	c0.021,0.037,0.186,0.11,0.346,0.125c0.053,0.004,0.125,0.149,0.175,0.178c0.048,0.028,0.136-0.057,0.194-0.008
	c0.059,0.051,0.175,0.227,0.261,0.264s0.207,0.125,0.324,0.125s0.198-0.104,0.343-0.155c0.145-0.05,0.448-0.293,0.448-0.293
	s0.337-0.19,0.55-0.37c0.214-0.182,0.366-0.336,0.502-0.561c0.136-0.223,0.342-0.717,0.342-0.717s1.701-1.631,2.067-1.95
	c0.367-0.319,2.064-1.926,2.312-2.188c0.248-0.262,1.046-1.232,1.046-1.232l0.673,0.296l0.372-0.937c0,0,0.25,0.734,0.422,1.422
	c0.146,0.58,0.297,1.359,0.344,1.766c0.032,0.279,0.031,0.797,0.031,0.797s-0.175,0.172-0.271,0.318
	c-0.097,0.147-0.131,0.279-0.055,0.457c0.075,0.178,0.088,0.189,0.027,0.234c-0.062,0.046-0.184,0.222-0.285,0.37
	s-0.662,1.281-0.792,1.562c-0.129,0.281-0.291,0.771-0.666,1.667c-0.336,0.801-0.926,2.222-1.159,2.897
	c-0.232,0.676-0.816,2.379-0.861,2.572c-0.042,0.178-0.124,0.191,0.07,0.27c0.128,0.053,0.299,0.113,0.299,0.113
	s-0.134,0.787-0.142,1.107c-0.009,0.363,0.068,0.793,0.128,1.054c0.059,0.261,0.18,0.616,0.172,0.733
	c-0.008,0.119-0.172,0.531-0.149,1.021c0.024,0.539,0.183,1.068,0.319,1.289c0.081,0.13,0.173,0.195,0.219,0.249
	c0.046,0.055,0.069,0.323,0.165,0.765s0.41,1.603,0.41,1.603c0.111,0.496,0.233,0.977,0.479,1.94
	c0.167,0.654,0.224,1.008,0.241,1.034c0.01,0.014-0.215,0.028-0.249,0.137c-0.033,0.108-0.006,0.4-0.006,0.4
	s-0.498,0.115-0.775,0.22c-0.278,0.105-1.173,0.381-1.497,0.547c-0.314,0.162-0.616,0.309-0.808,0.5
	c-0.147,0.146-0.117,0.428-0.024,0.654c0.093,0.228,0.254,0.349,0.461,0.406c0.207,0.057,0.362,0.09,0.362,0.09l0.407,0.098
	c0,0-0.001,0.148,0.054,0.193c0.055,0.043,0.301,0.043,0.383,0.043s0.146-0.165,0.146-0.165l0.544,0.048l1.267,0.175
	c0,0,0.012,0.218,0.081,0.235c0.07,0.016,0.234,0.016,0.316,0.016S10.515,46,10.515,46l1.005,0.077c0,0,0.086,0.199,0.146,0.218
	c0.059,0.019,0.188,0.008,0.246-0.023c0.06-0.031,0.12-0.227,0.12-0.227s0.362-0.105,0.451-0.146
	c0.09-0.041-0.021-0.137-0.007-0.236c0.015-0.099,0.151-0.555,0.165-0.717c0.015-0.161,0.009-0.56-0.037-0.809
	c-0.045-0.25-0.235-0.584-0.264-0.645c-0.027-0.061-0.084-0.604-0.097-0.795c-0.012-0.191-0.062-0.389-0.085-0.76
	c-0.023-0.373-0.179-3.104-0.179-3.104s-0.031-0.568-0.109-0.896s-0.329-0.834-0.329-0.834s-0.136-0.295-0.149-0.344
	c0.014-0.059,0.036-0.25,0.075-0.391c0.038-0.142,0.069-0.165,0.067-0.426c-0.002-0.26-0.133-0.855-0.207-1.082
	c-0.096-0.295-0.236-0.461-0.236-0.461s0.093-0.445,0.219-0.668c0.127-0.225,0.634-0.886,0.634-0.886l0.466,0.073
	c0,0,0.228,0.049,0.328,0.045c0.1-0.006,0.031-0.212,0.091-0.188c0.059,0.025,0.091,0.107,0.137,0.206s0.175,0.794,0.175,0.794
	l0.166,0.838c0,0,0.156,0.774,0.211,0.907c0.055,0.132,0.097,0.31,0.076,0.442c-0.021,0.131-0.048,0.25-0.041,0.396
	c0.006,0.146,0.047,0.646,0.116,0.749c0.068,0.103,0.068,0.353,0.096,0.823c0.026,0.471,0.246,2.264,0.396,3.308
	c0.151,1.044,0.378,2.133,0.378,2.133l0.191,1.134c0,0-0.063,0.351-0.159,0.629c-0.094,0.277,0.01,0.623,0.01,0.623
	s-0.292,1.004-0.356,1.352c-0.063,0.349-0.319,1.695-0.328,1.882c-0.01,0.187-0.049,0.515,0.039,0.646
	c0.089,0.129,0.338,0.322,0.338,0.322s0.093,0.189,0.12,0.248c0.028,0.059,0.247,0.059,0.315,0.045
	c0.068-0.016,0.114-0.166,0.114-0.166l1.01-0.005c0,0,0.072,0.104,0.145,0.167c0.073,0.062,0.278,0.033,0.36-0.025
	c0.083-0.06,0.104-0.195,0.104-0.195s0.469-0.479,0.586-0.708s0.195-0.706,0.203-0.892c0.01-0.264-0.007-0.418-0.006-0.496
	c0.002-0.076,0.088-0.459,0.113-0.709s-0.021-0.76-0.029-0.955s-0.065-0.33-0.066-0.428c-0.002-0.117,0.129-0.695,0.121-0.867
	c-0.008-0.17-0.137-0.517-0.137-0.517s-0.094-0.583-0.102-0.952c-0.008-0.368,0.062-2.006,0.062-2.006l0.062-2.316
	c0,0-0.113-1.564-0.197-1.841s-0.268-0.64-0.268-0.64s0.131-0.846,0.061-1.151s-0.266-0.437-0.266-0.437s0.133-0.451,0.268-0.771
	c0.134-0.321,0.595-0.86,0.595-0.86s0.253,0.079,0.442,0.054c0.19-0.023,0.381-0.082,0.466-0.176s0.196-0.824,0.232-1.221
	c0.038-0.396,0.202-1.736,0.21-2.396c0.01-0.661,0.213-3.427,0.256-3.829c0.041-0.404,0.258-1.348,0.286-1.588
	c0.028-0.242,0.041-0.656,0.021-0.794c-0.047-0.521-0.199-0.847-0.205-0.904s0.104-0.192,0.11-0.323s-0.013-0.54-0.044-0.718
	c-0.031-0.179-0.146-0.627-0.146-0.627l-0.072-0.49c0,0-0.152-0.867-0.277-1.585s-0.578-2.859-0.578-2.859s0.875,0.906,1.438,1.531
	s2.256,2.652,2.256,2.652l1.014,1.271l0.43,1.319l0.252,0.373l0.543,0.537l0.61,0.543l0.524,0.037l0.062-0.096l0.497,0.35
	l0.281-0.088l0.282-0.234l0.288-0.178l0.1-0.422L26.522,22.636z"/>
<path id="skin-arm-l" fill="#F9CAA9" d="M18.349,14.426c0.288-0.265,0.438-0.396,0.657-0.617s0.373-0.417,0.373-0.417l0.668,0.993
	l3.902,6.158l0.278,0.363l0.2,0.157l1.062,0.824l0.67,0.844l0.159,0.885l-0.175,0.129l-0.136-0.141l-0.123-0.469l-0.079-0.115
	l0.112,0.711l0.014,0.275l-0.095,0.087L25.665,24l-0.283-0.88l-0.205-0.439l-0.061-0.029l-0.125-0.043l-0.357-0.037l-0.08,0.146
	l0.104,0.302l0.309,0.481l0.033,0.255l-0.207,0.015l-0.479-0.454l-0.571-0.594l-0.269-0.788l-0.139-0.407l-0.15-0.295l-3.238-3.846
	l-1.273-1.389l-0.861-1.059C17.811,14.938,18.062,14.691,18.349,14.426z"/>
<path id="skin-arm-r" fill-rule="evenodd" clip-rule="evenodd" fill="#F9CAA9" d="M1.235,23.601c0,0,0.254-0.293,0.389-0.414
	c0.134-0.122,0.436-0.376,0.634-0.447s0.607-0.138,0.607-0.138l0.372-0.385l0.933-0.975l0.006,0.004l0.864-1.018l1.381-1.852
	l0.646-0.929l0.62-0.813c0,0,0.52,0.436,0.816,0.67s0.766,0.531,0.766,0.531S9.05,18.179,8.738,18.57s-1.75,1.766-2.344,2.312
	s-2.402,2.194-2.402,2.194l-0.164,0.266c0,0-0.041,0.156-0.125,0.344S3.39,24.155,3.39,24.155s-0.438,0.287-0.502,0.319
	s-0.049-0.226-0.118-0.351c-0.068-0.125-0.417-0.214-0.427-0.217c-0.012-0.004,0.298-0.164,0.298-0.164l0.548-0.337l-0.184-0.091
	l-0.052-0.029L2.76,23.325l-0.284,0.137l-0.604,0.055c0,0-0.295,0.266-0.417,0.334s-0.25,0.039-0.315,0.039
	C1.073,23.889,1.235,23.601,1.235,23.601z"/>
<path id="skin-arm-r-1" fill="#F9CAA9" d="M1.242,24.513c0.077-0.007,0.527-0.237,0.527-0.237s0.138-0.215,0.146-0.264
	c0.007-0.051-0.066-0.1-0.066-0.1s-0.256,0.104-0.379,0.167c-0.122,0.063-0.174,0.022-0.273,0.059
	c-0.1,0.037-0.14,0.081-0.146,0.173c-0.005,0.092,0.023,0.128,0.023,0.128S1.165,24.52,1.242,24.513z"/>
<path id="skin-arm-r-2" fill="#F9CAA9" d="M1.9,24.717c0.104-0.035,0.268-0.173,0.268-0.173l0.056-0.137c0,0-0.041-0.05-0.075-0.093
	C2.113,24.271,2,24.268,2,24.268l-0.146,0.165l-0.233,0.119l-0.09,0.076c0,0-0.035,0.022,0.021,0.097
	c0.055,0.074,0.074,0.057,0.074,0.057S1.796,24.75,1.9,24.717z"/>
<path id="skin-arm-r-3" fill="#F9CAA9" d="M2.038,24.813c0,0,0.136-0.064,0.222-0.127c0.087-0.062,0.151-0.182,0.151-0.182h0.142
	c0,0,0.062,0.117,0.017,0.229c-0.046,0.111-0.209,0.201-0.209,0.201S2.172,25.008,2.082,25c-0.092-0.01-0.136-0.092-0.136-0.092
	l0.033-0.078L2.038,24.813z"/>
<path id="skin-leg-l" fill="#F9CAA9" d="M14.144,35.416c0,0,0.619-0.012,0.975-0.056c0.356-0.044,1.044-0.261,1.044-0.261
	s0.172-0.609,0.285-0.9c0.111-0.291,0.492-0.794,0.492-0.794s-0.977-0.217-1.446-0.263c-0.471-0.046-2.041-0.104-2.041-0.104
	s0.007,0.297,0.064,0.631c0.059,0.334,0.151,0.823,0.192,1.014c0.04,0.191,0.164,0.53,0.232,0.618S14.144,35.416,14.144,35.416z"/>
<path fill-rule="evenodd" clip-rule="evenodd" fill="#1A1A18" d="M14.325,34.345c0.083-0.014,0.124-0.19,0.083-0.234
	c-0.042-0.045-0.404-0.059-0.404-0.059s-0.048,0.149,0.021,0.234C14.092,34.373,14.243,34.361,14.325,34.345z"/>
<path id="player-sock-l" fill-rule="evenodd" clip-rule="evenodd" fill="#0068B4" d="M14.122,37.066
	c0.107,0.059,0.363,0.038,0.447,0.107c0.085,0.068,0.072,0.144-0.003,0.194c-0.077,0.051-0.416,0.229-0.417,0.315
	c-0.002,0.088,0.055,0.884,0.102,1.258s0.238,1.873,0.32,2.417c0.049,0.316,0.44,2.487,0.481,2.722
	c0.039,0.233,0.132,0.612,0.126,0.805c-0.005,0.193-0.039,0.471-0.028,0.582c0.01,0.111,0.008,0.258,0.084,0.295
	c0.077,0.037,0.521-0.469,0.521-0.469l0.356,0.203l0.188,0.568l0.271-0.09l0.123-0.602L16.6,44.914l0.218-0.275l-0.022-0.755
	l-0.034-0.614c0,0,0.128-3.499,0.11-4.087c-0.019-0.587-0.212-1.653-0.236-1.768c-0.023-0.114-0.105-0.3-0.174-0.296
	c-0.068,0.006-0.104,0.106-0.183,0.093s-0.224-0.076-0.267-0.104c-0.045-0.028-0.045-0.131,0.002-0.194
	c0.053-0.072,0.307-0.229,0.369-0.384c0.064-0.155,0.037-0.64,0.01-0.772c-0.028-0.133-0.125-0.224-0.207-0.235
	c-0.081-0.013-0.189,0.017-0.334,0.045s-0.703,0.192-0.902,0.198c-0.2,0.006-0.827,0.008-0.883,0.066
	c-0.057,0.059-0.098,0.278-0.098,0.455c0,0.176-0.006,0.434,0.041,0.514C14.056,36.88,14.013,37.008,14.122,37.066z"/>
<path id="player-shirt" fill-rule="evenodd" clip-rule="evenodd" fill="#0068B4" d="M15.942,13.923
	c0.299,0.356,0.688,0.844,0.889,1.076c0.082,0.095,0.09,0.106,0.277-0.042s0.775-0.646,0.775-0.646l0.948-0.881l0.457-0.521
	l-0.757-0.993c-0.859-1.047-1.716-2.173-1.938-2.406c-0.221-0.232-0.814-0.801-0.906-0.875c-0.09-0.075-0.349-0.268-0.5-0.312
	c-0.15-0.044-0.714-0.103-1.078-0.109s-0.656,0.031-0.656,0.031S13,9.307,12.704,10.025s-0.891,2.047-0.891,2.047
	s-0.438-0.875-0.641-1.391s-0.594-1.312-0.594-1.312s-0.73,0.526-0.895,0.667c-0.163,0.141-0.451,0.403-0.554,0.552
	c-0.103,0.148-0.229,0.374-0.271,0.547c-0.04,0.174-0.352,1.66-0.406,2.057c-0.056,0.396-0.138,0.806-0.191,1.108
	c-0.056,0.303-0.205,1.031-0.274,1.277c-0.068,0.247-0.209,0.651-0.209,0.651s0.158,0.132,0.436,0.346
	c0.276,0.214,0.577,0.436,0.961,0.693c0.384,0.256,0.945,0.462,0.945,0.462l0.286-0.797c0,0-0.101-0.417-0.234-0.953
	c-0.156-0.625-0.212-1.039-0.234-1.156c-0.023-0.117-0.049-0.446-0.016-0.5c0.033-0.053,0.104-0.062,0.156-0.031
	s0.156,0.562,0.438,1.375c0.233,0.673,0.378,1.049,0.516,1.484s0.478,1.628,0.547,1.969c0.068,0.341,0.281,1.359,0.328,1.844
	c0.029,0.297-0.012,0.319,0.016,0.422c0.069,0.059,0.158,0.053,0.418,0.098c0.26,0.044,1.491,0.223,1.944,0.234
	c0.547,0.016,1.703-0.057,2.053-0.102c0.349-0.047,1.095-0.193,1.286-0.288s0.301-0.277,0.514-0.289
	c0.212-0.012,0.404,0.032,0.459-0.056s0.012-0.204-0.018-0.458c-0.041-0.353-0.309-1.854-0.422-2.484
	c-0.156-0.875-0.512-2.396-0.594-2.625c-0.082-0.229-0.07-0.284-0.312-0.094c-0.219,0.172-0.379,0.242-0.484,0.156
	c-0.104-0.085-0.822-0.951-0.969-1.109c-0.145-0.159-0.452-0.653-0.662-0.893c-0.143-0.163-0.159-0.237-0.163-0.328
	s0.14,0.001,0.259,0.015C15.351,13.177,15.643,13.568,15.942,13.923z"/>
<path id="player-shorts" fill-rule="evenodd" clip-rule="evenodd" fill="#FFFFFF" d="M12.422,32.478
	c0.037,0.006,0.07-0.107,0.101-0.266c0.077-0.41,0.133-1.086,0.133-1.086s0.068-0.547,0.13-1.148s0.177-1.994,0.177-1.994
	l-0.054-0.557c0,0-0.773-0.611-0.855-0.676s-0.249-0.099-0.282-0.192c-0.033-0.092,0.473-0.049,0.556-0.02
	c0.082,0.029,0.311,0.199,0.436,0.277c0.125,0.076,0.254,0.195,0.32,0.202c0.065,0.006-0.154-0.761-0.141-0.913
	c0.015-0.154,0.305-0.545,0.399-0.541c0.094,0.005-0.017,1.148,0.032,1.193c0.049,0.047,0.578,0.076,0.621,0.113
	c0.043,0.036-0.056,0.17-0.116,0.272c-0.06,0.101-0.349,0.441-0.402,0.506c-0.082,0.109-0.261,0.17-0.288,0.279
	c-0.026,0.109-0.115,2.004-0.115,2.004l-0.082,2.471l0.096,0.176l2.375,0.186l0.889,0.162l1.458,0.24l0.22-0.072
	c0,0,0.062-0.296,0.137-0.779c0.076-0.484,0.197-2.014,0.24-2.572c0.041-0.559,0.148-2.457,0.148-2.457l0.092-1.098l-0.005-0.2
	c0,0-0.53,0.141-0.603,0.141c-0.072-0.001-0.137-0.092-0.159-0.193c-0.021-0.102,0.051-0.075,0.335-0.16
	c0.282-0.086,0.326-0.193,0.422-0.369c0.098-0.175,0.247-0.75,0.262-0.984c0.014-0.232,0.08-0.325,0.047-0.846
	s-0.141-0.812-0.238-0.887c-0.096-0.075-0.756,0.065-0.871,0.01s-0.465-0.217-0.488-0.298s0.848-0.212,1.028-0.213
	c0.18-0.001,0.312,0.028,0.413,0.028c0.102,0.001,0.069-0.243,0.075-0.371c0.007-0.129-0.03-0.35-0.114-0.363
	c-0.084-0.016-0.357-0.014-0.439-0.021c-0.083-0.008-0.254,0.139-0.401,0.197s-0.968,0.3-1.282,0.342
	c-0.316,0.041-1.307,0.122-1.797,0.133c-0.489,0.012-1.699-0.102-1.978-0.148s-1.019-0.213-1.141-0.167
	c-0.123,0.047-0.185,0.21-0.15,0.297c0.035,0.088,0.466,0.118,0.602,0.126c0.084,0.006,0.173,0.066,0.179,0.139
	s-0.288,0.111-0.527,0.173c-0.239,0.062-0.396,0.052-0.547,0.302c-0.148,0.249-0.602,1.082-0.875,1.771
	c-0.272,0.689-0.78,1.896-0.979,2.396c-0.199,0.499-0.74,1.812-0.945,2.431c-0.205,0.617-0.493,1.558-0.534,1.676
	c-0.041,0.117-0.122,0.233,0,0.279c0.122,0.045,0.273,0.073,0.492,0.132c0.22,0.06,1.711,0.411,2.259,0.544
	S12.299,32.464,12.422,32.478z"/>
<path fill-rule="evenodd" clip-rule="evenodd" fill="#1A1A18" d="M16.502,18.544c-0.165,0.072-0.771,0.193-0.954,0.287
	c-0.183,0.093-0.582,0.737-0.834,0.827c-0.253,0.09-0.458,0.038-0.485,0.034s0.586-0.84,0.8-0.98
	c0.213-0.14,0.886-0.582,1.097-0.641c0.212-0.058,0.964-0.429,1.025-0.354c0.062,0.075-0.021,0.381-0.082,0.471
	C17.008,18.278,16.502,18.544,16.502,18.544S16.667,18.472,16.502,18.544z"/>
<path id="player-sock-r" fill="#0068B4" d="M9.864,41.726c-0.138-0.559-0.315-1.221-0.452-1.75s-0.319-1.311-0.406-1.677
	s-0.206-0.771-0.201-0.862s0.077-0.055,0.164-0.133c0.087-0.077,0.063-0.273,0-0.381s-0.246,0.059-0.405-0.078
	S8.257,36.07,8.257,36.07s-0.005-0.303,0.013-0.5c0.019-0.195,0.104-0.372,0.17-0.395c0.068-0.021,0.905,0.045,1.19-0.021
	c0.284-0.064,0.834-0.377,0.979-0.387c0.144-0.01,0.256,0.07,0.315,0.221c0.062,0.151,0.129,0.529,0.136,0.833
	c0.008,0.304-0.023,0.612-0.091,0.708c-0.065,0.096-0.504,0.11-0.559,0.258c-0.055,0.146-0.034,0.282,0.093,0.332
	s0.4-0.156,0.482-0.127s0.401,0.612,0.516,1.181c0.113,0.569,0.214,3.813,0.214,3.813l0.113,1.154l-1.174,0.492l-0.498-0.492
	l-0.09-0.501C10.067,42.639,9.984,42.218,9.864,41.726z"/>
<path id="skin-leg-r" fill="#F9CAA9" d="M10.918,33.532c-0.056,0.108-0.245,0.612-0.295,0.705c-0.049,0.095-0.817,0.427-1.049,0.481
	c-0.232,0.054-1.107,0.054-1.135-0.02c-0.028-0.074-0.166-0.561-0.206-0.706c-0.067-0.249-0.128-0.539-0.137-0.779
	c-0.009-0.239,0.1-1.005,0.05-0.774s0.115-0.49,0.115-0.49l2.385,0.574l0.784,0.222C11.431,32.745,10.973,33.423,10.918,33.532z"/>
<path fill="#1A1A18" d="M8.591,33.632c-0.083-0.051-0.129-0.242-0.136-0.391c-0.002-0.072,0-0.146,0-0.146s0.149,0.161,0.279,0.265
	c0.129,0.104,0.339,0.241,0.339,0.241S8.675,33.684,8.591,33.632z"/>
<path fill="#FFFFFF" d="M12.881,1.473c0,0-0.05-0.056,0.355,0.026c0.312,0.064,0.691,0.247,0.872,0.647
	c0.145,0.318,0.123,0.565,0.123,0.565s-0.322-0.395-0.624-0.698C13.27,1.675,12.881,1.473,12.881,1.473z"/>
<path id="hair-p" fill="#F7DD7F" d="M13.022,1.257c0.125-0.165,0.571-0.508,1.206-0.349c0.77,0.192,0.808,0.81,0.968,2.491
	c0.096,1,0.21,1.411,0.317,1.952c0.138,0.685,0.35,1.317-0.074,1.938c0.161-0.235-0.147-0.842-0.147-0.842
	c0.006,0.125,0.072,0.346,0.015,0.528c-0.066,0.213-0.261,0.382-0.288,0.405c0.154-0.321-0.182-0.868-0.182-0.868
	c-0.055,0.293-0.123,0.619-0.464,0.877c0.083-0.062,0.094-0.706,0.094-0.706c-0.067,0.233-0.43,0.358-0.446,0.548
	c0.02-0.236-0.071-0.495,0.058-0.641c0.328-0.375,0.469-0.672,0.547-1.047c0.125-0.516,0.155-0.945,0.109-1.359
	c-0.047-0.422-0.108-0.659-0.281-1.234c0-0.396-0.014-0.596-0.109-0.844c-0.156-0.406-0.332-0.517-0.547-0.656
	C13.484,1.248,13.022,1.257,13.022,1.257z"/>
<path id="skin-face" fill-rule="evenodd" clip-rule="evenodd" fill="#F9CAA9" d="M12.781,7.229c0.444-0.129,0.706-0.613,0.77-1.06
	c0,0,0.006-0.301-0.343-0.276c-0.229,0.017-0.411,0.047-0.729,0.501c-0.568-1.357,0.004-1.874-0.303-1.728
	c-0.29,0.128-0.787,0.249-1.243,0.303c-0.413,0.048-0.632,0.042-0.818-0.015c-0.167-0.016-0.106-0.167-0.167-0.167
	C9.852,4.871,9.735,4.894,9.31,4.818C9.083,4.743,9.356,4.545,9.205,4.637C9.052,4.712,9.098,4.682,9.018,4.715
	C9.047,4.842,9.076,4.925,9.13,5.151c0.132-0.022,0.251-0.044,0.375-0.004c0.12,0.039,0.156,0.219,0.122,0.207
	c-0.129-0.049-0.33-0.088-0.467-0.079c0,0,0,0,0,0.001c0.022,0.053-0.014,0.168-0.008,0.239c0.119-0.023,0.463-0.079,0.654,0.042
	c0.101,0.055,0.097,0.157,0.126,0.267c0.052,0.201-0.001,0.48-0.001,0.48S9.904,6.159,9.884,6.039
	C9.869,5.953,9.864,5.876,9.819,5.823C9.633,5.607,9.583,5.939,9.424,5.844C9.353,5.802,9.26,5.753,9.165,5.703
	C9.07,6.101,9.104,6.577,9.189,6.986c0.109,0.522,0.314,0.966,0.79,1.627c0,0,0.632,0.462,1.875-0.264
	c0.18-0.188,0.355,0.655-0.916,0.848c0.188,0.422,0.375,0.875,0.844,1.969c0.009,0.02,0.243-0.481,0.5-1.062
	c0.33-0.745,0.718-1.531,0.75-1.828C12.891,7.885,12.735,7.525,12.781,7.229z M10.61,5.173c0.131-0.012,0.576,0.136,0.896,0.12
	L10.59,5.429C10.59,5.429,10.258,5.205,10.61,5.173z M10.598,6.91L10.53,6.932l-0.083,0.069l-0.03,0.061l-0.021-0.02l-0.04-0.162
	L10.598,6.91z M9.917,6.834l0.046-0.03l0.015,0.228l-0.065-0.05L9.917,6.834z M10.255,8.111c0,0-0.249-0.023-0.269-0.14
	c-0.004-0.024,0.093-0.02,0.093-0.02l0.134,0.013c0.072,0.01,0.179,0.038,0.179,0.038l0.001,0.075L10.255,8.111z M10.637,7.783
	c-0.091-0.002-0.202,0.043-0.202,0.043L10.333,7.85c0,0-0.146-0.021-0.19-0.008L10.002,7.82c0,0-0.047-0.06-0.1-0.084
	C9.78,7.678,9.56,7.672,9.56,7.672L9.518,7.597c0,0,0.035-0.018,0.066-0.023c0.1-0.021,0.166,0,0.277,0.005
	c0.143,0.007,0.062-0.08,0.256,0.01c0.062,0.029,0.047-0.041,0.161,0.009c0.114,0.048,0.428,0.072,0.428,0.072s0.348,0,0.273,0.05
	C10.89,7.782,10.775,7.788,10.637,7.783z M11.225,7.687c-0.217-0.044-0.13-0.111-0.13-0.111c0.036-0.095,0.144-0.031,0.177-0.032
	L11.225,7.687z M11.66,5.819c-0.024,0.01-0.202,0.008-0.337,0.004c-0.074,0.063-0.146,0.12-0.238,0.13
	c-0.093,0.012-0.168-0.069-0.223-0.101c-0.024-0.015-0.061-0.026-0.096-0.029c-0.01,0.004-0.014,0-0.023,0.006
	c-0.032,0.004-0.064,0.014-0.078,0.055c-0.001,0.004-0.015-0.005-0.025-0.011c-0.001,0-0.002-0.001-0.003-0.001
	c-0.022-0.013-0.047-0.031-0.047-0.031l0.004-0.004c-0.057-0.057-0.088-0.173-0.077-0.233c0.064-0.022,0.151-0.009,0.243,0.015
	c0.221-0.008,0.314-0.066,0.53,0.01c0.033,0.011,0.063,0.038,0.092,0.065c0.048-0.008,0.124-0.007,0.273,0.025
	c0.205,0,0.351-0.068,0.351-0.068S11.699,5.803,11.66,5.819z M12.766,6.644c0.075-0.061,0.313,0.007,0.298-0.316
	c-0.007-0.136,0.005-0.2,0.051-0.23c0.045-0.03,0.167,0.024,0.167,0.024s-0.048,0.203-0.125,0.451c-0.018,0.056-0.1,0.107-0.1,0.107
	l-0.045,0.021c0,0-0.095-0.015-0.141,0.018c-0.045,0.033-0.041,0.111-0.105,0.091C12.713,6.792,12.69,6.704,12.766,6.644z"/>
<path id="hair" fill-rule="evenodd" clip-rule="evenodd" fill="#F7DD7F" d="M14.373,3.859c-0.14-0.653-0.247-0.79-0.443-1.072
	c-0.383-0.551-0.699-0.794-1.011-0.995c-0.277-0.179-0.839-0.448-1.639-0.368c0,0-0.298,0.019-0.582,0.092
	c-0.345,0.089-0.695,0.241-0.812,0.322C9.73,1.947,9.555,2.057,9.396,2.221C9.197,2.428,9.024,2.687,8.967,2.757
	C8.894,2.836,8.6,3.339,8.401,3.615C8.199,3.894,8.027,4.008,8.039,4.021c0.046,0.048,0.183,0.011,0.386,0.012
	C8.336,4.138,8.358,4.161,8.187,4.319C8.708,4.35,8.875,4.396,9.4,4.205c0.342-0.215,0.416,0.03,0.033,0.388
	c0.569,0.112,0.793-0.394,0.877-0.311c0.041,0.042,0.261,0.153-0.103,0.373c0.464,0.186,1.979-0.33,2.12-0.377
	s0.299-0.046,0.266,0.359c-0.022,0.274-0.085,0.624-0.069,0.716c0.057,0.341,0.069,0.456,0.069,0.456
	c0.234-0.266,0.643-0.235,0.75-0.25c0.359,0.016,0.43,0.203,0.479,0.443c0,0.229-0.104,0.402-0.123,0.459
	c-0.035,0.106-0.015,0.107-0.015,0.107s0.488-0.403,0.628-1.057C14.452,4.86,14.512,4.513,14.373,3.859z M14.183,4.758
	c-0.02,0.092-0.021-0.215-0.065-0.563c-0.042-0.324-0.252-0.888-0.14-0.716C14.189,3.805,14.295,4.253,14.183,4.758z"/>
</svg>
