<?xml version="1.0" encoding="utf-8"?>
<!-- Generator: Adobe Illustrator 16.0.4, SVG Export Plug-In . SVG Version: 6.00 Build 0)  -->
<!DOCTYPE svg PUBLIC "-//W3C//DTD SVG 1.1//EN" "http://www.w3.org/Graphics/SVG/1.1/DTD/svg11.dtd">
<svg version="1.1" id="Ebene_1" xmlns="http://www.w3.org/2000/svg" xmlns:xlink="http://www.w3.org/1999/xlink" x="0px" y="0px"
	 width="29.762px" height="51.509px" viewBox="0 0 29.762 51.509" enable-background="new 0 0 29.762 51.509" xml:space="preserve">
<path fill-rule="evenodd" clip-rule="evenodd" fill="#1A1A18" d="M0.762,22.786c0.027-0.127,0.178-0.471,0.285-0.62
	s0.389-0.476,0.389-0.476l0.408-0.565l0.52-1.062l0.873-1.792c0,0,0.594-1.182,0.889-1.678c0.295-0.495,0.885-1.344,0.885-1.344
	l0.309-0.502l-0.029-0.072c0,0,1.555-1.942,1.778-2.259c0.223-0.318,0.775-0.99,0.978-1.215c0.317-0.355,0.926-1.002,1.289-1.293
	c0.306-0.244,0.762-0.404,1.003-0.485c0.331-0.109,0.958-0.267,1.505-0.321c0.514-0.051,0.896-0.072,1.238-0.077
	c-0.1-0.189-0.238-0.458-0.336-0.675c-0.162-0.36-0.271-0.629-0.271-0.629s-0.155-0.078-0.248-0.175
	c-0.16-0.172-0.191-0.331-0.246-0.495c-0.055-0.165-0.106-0.577-0.119-0.683c-0.015-0.104,0.126-0.33,0.126-0.33
	s-0.198-0.417-0.28-0.853c-0.085-0.436-0.069-0.728-0.072-1.113c-0.004-0.384,0.271-1.168,0.61-1.56
	c0.157-0.202,0.292-0.308,0.603-0.456c0.133-0.064,0.277-0.155,0.459-0.202c0.01-0.049-0.014-0.233,0.096-0.422
	c0.156-0.272,0.34-0.501,0.65-0.688c0.32-0.194,0.971-0.245,1.334,0c0.388,0.264,0.385,0.334,0.604,0.675
	c0.196,0.309,0.092,0.488,0.092,0.488s0.718,0.406,1.039,0.876c0.278,0.409,0.71,1.039,0.313,2.671l-0.199,0.74
	c0,0,0.084-0.007,0.146,0.161c0.064,0.166,0.01,0.469-0.042,0.653c-0.052,0.183-0.329,0.541-0.514,0.688
	c-0.185,0.146-0.275,0.148-0.275,0.148s-0.216,0.39-0.434,0.759c-0.216,0.37-0.32,0.589-0.32,0.589l-0.003,0.006
	c0.537,0.067,0.974,0.138,1.141,0.167c0.586,0.104,1.152,0.22,1.617,0.54c0.464,0.319,1.294,1.223,1.722,1.87
	c0.39,0.59,0.933,1.327,1.208,1.769c0.178,0.286,0.506,0.802,0.687,1.104c0.251,0.421,0.226,0.438,0.164,0.518
	c-0.056,0.072,0,0.067,0,0.067s0.333,0.533,0.718,1.068c0.383,0.535,1.606,2.25,1.961,2.604c0.354,0.354,1.752,1.853,1.873,1.92
	c0.12,0.067,0.376,0.064,0.602,0.158c0.227,0.093,0.605,0.356,0.7,0.451s0.452,0.433,0.577,0.607
	c0.123,0.174,0.229,0.586,0.246,0.733c0.018,0.148,0.029,0.379,0.029,0.379s-0.01,0.11-0.139,0.246
	c-0.129,0.137-0.345,0.127-0.345,0.127s-0.098,0.165-0.175,0.18s-0.195-0.005-0.195-0.005s-0.138,0.178-0.26,0.264
	c-0.121,0.086-0.312,0.068-0.312,0.068s-0.313-0.064-0.45-0.109c-0.136-0.047-0.285-0.205-0.447-0.287
	c-0.271-0.136-0.457-0.355-0.457-0.355s-0.35-0.303-0.506-0.556c-0.155-0.252-0.414-0.795-0.414-0.795s-0.924-0.826-1.527-1.304
	c-0.602-0.478-1.746-1.444-1.746-1.444s-0.703-0.613-1.068-1.022c-0.365-0.408-1.027-1.257-1.027-1.257l-0.084-0.18l-0.076,0.048
	c0,0-0.374,0.221-0.506,0.224c-0.039,0.001-0.117,0.089-0.188-0.034c-0.2-0.356-0.838-1.419-0.838-1.419s-0.114,0.356-0.15,0.638
	c-0.078,0.613-0.262,1.887-0.357,3.058c-0.073,0.883-0.133,2.592-0.133,2.592l0.071,0.562c0,0-0.03,0.203,0.04,0.268
	c0.07,0.063,0.24,0.238,0.256,0.404c0.016,0.168-0.141,0.416-0.096,0.473c0.047,0.057,0.166,0.264,0.314,0.473
	c0.147,0.207,0.522,0.771,0.722,1.157s1.378,2.776,1.378,2.776l1.718,3.977l0.194,0.53l-0.098,0.157c0,0,0.076,0.181,0.124,0.52
	c0.048,0.34,0.056,1.125,0.036,1.356s-0.037,0.822-0.037,0.822s0.164,0.433,0.197,0.593c0.032,0.158,0.08,0.473,0.03,0.69
	c-0.05,0.217-0.096,0.384-0.159,0.526c-0.062,0.144-0.174,0.274-0.174,0.274s-0.076,0.438-0.088,0.755
	c-0.01,0.316-0.359,4.979-0.359,4.979s-0.028,1.303-0.037,1.609c-0.007,0.014,0.128,0.086,0.141,0.189
	c0.007,0.064,0.01,0.301,0.041,0.396s0.137,0.278,0.26,0.358s2.617,0.817,2.819,0.93c0.203,0.112,0.684,0.462,0.743,0.644
	s-0.009,0.482-0.1,0.645c-0.09,0.161-0.195,0.164-0.365,0.245s-0.504,0.155-0.504,0.155l-0.415,0.051c0,0,0.008,0.176-0.04,0.257
	c-0.049,0.081-0.295,0.021-0.35,0.026c-0.055,0.004-0.176-0.216-0.176-0.216l-0.779,0.075l-0.928,0.104c0,0-0.021,0.159-0.09,0.202
	c-0.069,0.044-0.301,0.011-0.369-0.005s-0.16-0.154-0.16-0.154l-0.975,0.034l-0.317-0.02c0,0-0.022,0.108-0.079,0.148
	c-0.058,0.041-0.276-0.021-0.33-0.052c-0.055-0.03-0.065-0.177-0.065-0.177s-0.424-0.08-0.519-0.141
	c-0.096-0.061-0.023-0.265,0.02-0.353c0.043-0.087-0.134-0.323-0.212-0.532c-0.077-0.209-0.099-0.51-0.097-0.748
	s0.278-0.82,0.278-0.82l-0.056-1.061c0,0-0.049-0.693-0.059-0.899c-0.004-0.097-0.081-0.815-0.156-1.458
	c-0.084-0.721-0.119-0.863-0.168-1.367c-0.05-0.503-0.077-0.615-0.104-1.06c-0.026-0.444-0.042-0.96-0.011-1.363
	c0.032-0.403,0.086-0.501,0.138-0.649c0.051-0.148,0.329-0.727,0.339-0.777c-0.021-0.057-0.234-0.544-0.232-0.986
	c0.003-0.443,0.104-0.779,0.191-1.092c0,0-0.139-0.5-0.251-0.66c-0.134-0.193-0.491-0.555-0.491-0.555l-1.257,0.363
	c0,0-0.329,0.123-0.413,0.118c-0.083-0.005-0.155-0.155-0.155-0.155l-1.035-2.224l0.041,1.323l-0.006,1.147
	c0,0-0.028,0.14-0.116,0.165c-0.089,0.027-0.645,0.066-0.645,0.066s-0.082,0.398-0.146,0.615c-0.064,0.217-0.303,1.342-0.311,1.461
	c-0.007,0.119-0.06,0.379-0.03,0.535c0.028,0.158,0.042,0.262,0.059,0.395c0.019,0.131-0.013,0.459-0.03,0.689
	c-0.008,0.073-0.06,0.277-0.088,0.336c-0.051,0.106,0.022,0.227,0.032,0.525c0.005,0.168-0.005,0.434-0.038,0.754
	c-0.025,0.256-0.109,0.844-0.14,1.115c-0.096,0.852-0.159,1.391-0.22,1.835s-0.186,1.29-0.226,1.753s-0.164,1.418-0.139,1.535
	c0.026,0.117,0.087,0.312,0.087,0.312s0.064-0.011,0.052,0.192s-0.046,0.614-0.046,0.614s0.227,0.761,0.263,0.896
	c0.036,0.137,0.198,0.652,0.219,0.918c0.021,0.267-0.042,0.676-0.084,0.808c-0.042,0.133-0.112,0.263-0.21,0.351
	c-0.096,0.088-0.229,0.172-0.229,0.172s-0.03,0.16-0.075,0.197c-0.043,0.037-0.271,0.032-0.328,0.039
	c-0.058,0.008-0.057-0.145-0.057-0.145l-0.828,0.01c0,0-0.057,0.113-0.102,0.143c-0.043,0.029-0.292,0.023-0.338-0.006
	c-0.047-0.029-0.079-0.232-0.079-0.232s-0.082-0.064-0.192-0.125c-0.111-0.059-0.203-0.156-0.203-0.156s-0.108-0.443-0.142-0.852
	c-0.034-0.407,0.01-1.139,0.01-1.139l-0.033-0.472c0,0-0.03-0.209-0.056-0.371c-0.024-0.161,0.077-0.251,0.077-0.251
	s-0.033-0.422-0.037-0.557c-0.005-0.136,0.08-0.408,0.08-0.408l0.008-0.582c0,0-0.16-1.481-0.204-2.217
	c-0.043-0.736-0.137-2.341-0.159-2.781c-0.024-0.441,0.005-1.471,0.023-1.823s0.171-0.438,0.173-0.527
	c0-0.088-0.057-0.194-0.104-0.397c-0.064-0.281,0.02-0.539,0.043-0.688s0.148-0.317,0.143-0.38c-0.005-0.062-0.102-0.57-0.203-0.848
	c-0.1-0.277-0.428-1.145-0.428-1.145s-0.357-0.031-0.535-0.037c-0.178-0.008-0.188-0.021-0.207-0.229s-0.036-0.752-0.036-0.752
	l-0.071-7.009l-0.167-0.788l-0.058-1.13l-0.006-0.86l0.084-0.512c0,0,0.092-0.567,0.15-0.787s0.13-0.439,0.13-0.439l-0.032-0.34
	c0,0-0.054-0.221-0.092-0.784c-0.039-0.563-0.172-2.065-0.213-2.503c-0.04-0.438-0.102-1.153-0.163-1.581
	c-0.063-0.428-0.146-0.768-0.146-0.768s-0.841,0.943-0.953,1.08s-0.143,0.1-0.266,0.012c-0.123-0.087-0.642-0.51-0.711-0.558
	c-0.07-0.048-0.431,0.396-0.571,0.585c-0.14,0.189-1.71,2.374-1.956,2.75c-0.245,0.377-0.995,1.573-0.995,1.573l0.019,0.812
	c0,0-0.037,0.408-0.095,0.613c-0.058,0.204-0.147,0.668-0.147,0.668s-0.102,0.228-0.168,0.341c-0.068,0.114-0.256,0.306-0.445,0.405
	c-0.082,0.044-0.201,0.074-0.412,0.111C2.25,24.847,2.114,24.948,2,24.97c-0.17,0.035-0.307-0.011-0.363-0.025
	c-0.17-0.042-0.336-0.164-0.375-0.179c-0.039-0.014-0.053-0.286-0.053-0.286S1.15,24.5,1.067,24.405
	c-0.084-0.098-0.125-0.319-0.125-0.319s-0.044-0.116-0.094-0.198c-0.049-0.082-0.126-0.393-0.122-0.656
	C0.73,22.966,0.735,22.912,0.762,22.786z"/>
<path id="skin-arm-l" fill-rule="evenodd" clip-rule="evenodd" fill="#F9CAA9" d="M28.422,22.198c0,0-0.263-0.326-0.39-0.412
	c-0.125-0.085-0.4-0.333-0.636-0.443c-0.235-0.109-0.608-0.134-0.608-0.134l-0.373-0.383c0,0-1.242-1.167-1.762-1.789
	c-0.469-0.563-1.371-1.763-1.371-1.763l-1.332-1.849c0,0-0.546,0.383-0.855,0.555c-0.442,0.243-0.816,0.514-0.816,0.514
	s0.312,0.511,0.498,0.769c0.185,0.258,0.584,0.681,0.688,0.82c0.103,0.139,0.453,0.438,0.453,0.438l3.746,3.17l0.166,0.264
	l0.126,0.344l0.314,0.466c0,0,0.386,0.32,0.419,0.347c0.033,0.025,0.068,0.019,0.068,0.019s0.066-0.286,0.148-0.372
	c0.125-0.131,0.393-0.238,0.41-0.248s-0.299-0.162-0.299-0.162s-0.497-0.229-0.512-0.316c-0.014-0.086,0.105-0.164,0.197-0.139
	c0.093,0.025,0.193,0.038,0.193,0.038s0.125,0.097,0.285,0.134c0.158,0.038,0.604,0.053,0.604,0.053s0.29,0.262,0.419,0.33
	c0.13,0.067,0.225,0.099,0.315,0.037C28.559,22.458,28.422,22.198,28.422,22.198z"/>
<path id="skin-arm-l-1" fill="#F9CAA9" d="M28.419,23.11c0,0-0.447-0.172-0.529-0.232c-0.082-0.062-0.158-0.174-0.145-0.265
	c0.013-0.092,0.064-0.101,0.064-0.101s0.166,0.057,0.261,0.117c0.096,0.061,0.204,0.12,0.354,0.137
	c0.089,0.012,0.186,0.14,0.186,0.14s0.033,0.071-0.023,0.128C28.53,23.092,28.419,23.11,28.419,23.11z"/>
<path id="skin-arm-l-2" fill="#F9CAA9" d="M27.761,23.317l-0.268-0.171c0,0-0.112-0.116,0.018-0.229
	c0.059-0.049,0.148-0.047,0.148-0.047l0.147,0.164l0.233,0.117l0.092,0.076c0,0,0.018,0.042-0.021,0.096
	c-0.037,0.057-0.074,0.059-0.074,0.059L27.761,23.317z"/>
<path id="skin-arm-l-3" fill="#F9CAA9" d="M27.625,23.415l-0.223-0.125l-0.152-0.182c0,0-0.097-0.049-0.142,0
	c-0.045,0.05-0.016,0.23-0.016,0.23l0.21,0.199c0,0,0.2,0.072,0.278,0.064c0.078-0.009,0.135-0.092,0.135-0.092l-0.033-0.078
	L27.625,23.415z"/>
<path id="skin-arm-r" fill-rule="evenodd" clip-rule="evenodd" fill="#F9CAA9" d="M1.217,23.918c0,0,0.03,0.119,0.063,0.176
	s0.124,0.098,0.124,0.098l-0.002-0.143l0.061-0.254l0.052-0.21c0,0,0.073-0.195,0.051-0.166c-0.022,0.03,0.083-0.018,0.091,0.065
	c0.008,0.084-0.131,0.464-0.131,0.464l-0.02,0.354c0,0,0.039,0.224,0.125,0.274s0.184,0.052,0.266-0.012
	c0.082-0.065,0.062-0.1,0.062-0.1s-0.136-0.179-0.145-0.221c-0.009-0.041,0.131-0.332,0.131-0.332s0.133-0.176,0.228-0.277
	s0.349-0.334,0.408-0.332c0.06,0,0.108,0.105,0.108,0.105s-0.104,0.524-0.066,0.423c0.038-0.101-0.136,0.296-0.136,0.296
	s-0.065,0.205,0.015,0.219c0.082,0.016,0.227-0.072,0.227-0.072s0.234-0.23,0.296-0.354c0.061-0.124,0.239-0.95,0.255-1.138
	c0.016-0.188-0.057-0.938-0.057-0.938l0.387-0.686c0,0,2.374-3.53,2.688-3.936c0.314-0.405,0.509-0.555,0.509-0.555l-0.613-0.592
	l-0.632-0.851l-0.604,0.803l-1.08,1.781l-1.717,3.5l-0.195,0.319c0,0-0.527,0.585-0.59,0.71c-0.062,0.124-0.191,0.348-0.191,0.348
	s-0.088,0.17-0.114,0.243S0.99,23.192,1,23.301c0.01,0.11,0.025,0.141,0.031,0.178c0.004,0.036,0.072,0.164,0.072,0.164l0.091-0.42
	c0,0,0.035-0.075,0.066-0.102c0.035-0.03,0.067-0.012,0.077,0.014c0.018,0.047-0.111,0.508-0.111,0.508L1.217,23.918z"/>
<path id="player-shirt" fill-rule="evenodd" clip-rule="evenodd" fill="#0068B4" d="M7.234,16.478
	c0.202,0.179,0.459,0.404,0.649,0.509c0.086,0.048,0.156-0.001,0.164-0.012c0.1-0.125,0.277-0.346,0.485-0.609
	c0.211-0.266,0.414-0.525,0.483-0.625c0.162-0.234,0.385-0.584,0.464-0.708c0.077-0.124,0.202-0.304,0.286-0.417
	c0.085-0.114,0.858-0.901,0.964-0.971c0.106-0.069,0.221-0.201,0.302-0.244c0.082-0.042,0.174-0.075,0.209-0.013
	c0.036,0.062,0.071,0.139,0.011,0.224c-0.061,0.086-0.419,0.293-0.503,0.368c-0.186,0.164-0.512,0.585-0.488,0.704
	c0.023,0.118,0.605,0.656,0.665,0.745c0.06,0.089,0.087,0.183,0.011,0.223c-0.076,0.041-0.139,0.078-0.312,0.019
	c-0.174-0.058-0.652-0.614-0.652-0.614l-0.203,0.219l-0.355,0.601c0,0,0.113,0.783,0.184,1.206c0.068,0.414,0.162,1.706,0.245,2.457
	c0.037,0.341,0.176,2.11,0.185,2.434c0.006,0.221,0.047,0.456,0.102,0.486c0.074,0.041,0.123,0.045,0.438,0.08
	c0.314,0.033,1.283,0.195,1.789,0.307c0.403,0.088,1.17,0.113,1.487,0.121c0.316,0.008,0.757-0.016,1.175-0.082
	s1.039-0.18,1.379-0.244c0.339-0.062,0.644-0.161,0.74-0.168c0.138-0.01,0.137,0.014,0.134-0.197
	c-0.004-0.211-0.02-0.734-0.02-0.734s0.027-0.655,0.086-1.53c0.08-1.233,0.275-2.855,0.295-3.059
	c0.074-0.733,0.24-1.356,0.324-1.745c0.084-0.39,0.092-1.148,0.157-1.624c0.036-0.265,0.091-0.442,0.185-0.418
	c0.057,0.014,0.071,0.194,0.069,0.407c-0.003,0.282-0.04,1.042-0.044,1.125c-0.007,0.146,0.164,0.456,0.378,0.818
	c0.214,0.362,0.422,0.728,0.502,0.898c0.081,0.171,0.114,0.171,0.296,0.111c0.219-0.073,0.788-0.475,1.293-0.78
	c0.504-0.305,0.904-0.6,1.01-0.672c0.107-0.071-0.028-0.264-0.028-0.264s-1.613-2.496-1.755-2.711
	c-0.58-0.884-1.365-1.724-1.799-1.98c-0.505-0.299-0.937-0.308-1.442-0.413c-0.436-0.09-0.956-0.161-0.956-0.161l-0.73,1.838
	l-0.586,1.507c0,0-0.746-1.479-0.944-1.965c-0.251-0.616-0.722-1.545-0.722-1.545s-0.782,0.051-1.346,0.136
	c-0.628,0.095-1.109,0.222-1.449,0.379c-0.818,0.378-2.947,3.126-3.156,3.411c-0.271,0.371-1.115,1.421-1.115,1.421
	s0.009,0.094,0.075,0.213c0.067,0.119,0.328,0.465,0.514,0.657S7.031,16.297,7.234,16.478z"/>
<path fill-rule="evenodd" clip-rule="evenodd" fill="#1A1A18" d="M11.235,20.754c0.041,0.004,0.091-0.151,0.078-0.441
	c-0.012-0.29-0.152-0.854-0.217-1.184c-0.064-0.33,0.043-0.918,0.07-1.013c0.027-0.095,0.116-0.17,0.039-0.221
	c-0.077-0.051-0.336-0.032-0.449,0.139c-0.113,0.17,0,0.324,0.007,0.572c0.007,0.292,0.3,1.607,0.326,1.776
	C11.115,20.55,11.196,20.75,11.235,20.754z"/>
<path fill-rule="evenodd" clip-rule="evenodd" fill="#1A1A18" d="M15.953,21.415c0.093,0.018,0.076-0.468,0.135-0.592
	c0.059-0.124,0.143-1.337,0.143-1.337s-0.104-0.889-0.041-1.255c0.062-0.366,0.145-0.912,0.229-1.226
	c0.084-0.315-0.194-0.043-0.302,0.243c-0.106,0.287-0.207,0.608-0.267,0.872c-0.059,0.265-0.172,0.664-0.169,0.838
	c0.004,0.174,0.118,0.602,0.107,1.017C15.778,20.391,15.864,21.397,15.953,21.415z"/>
<polygon id="skin-leg-r" fill="#F9CAA9" points="13.678,37.045 12.76,37.075 12.104,37.065 11.462,36.922 11.365,36.553 
	11.145,35.838 10.893,34.948 12.703,34.958 14.149,34.875 14.03,35.491 13.911,36.048 13.781,36.606 "/>
<path fill-rule="evenodd" clip-rule="evenodd" fill="#1A1A18" d="M12.878,36.239c-0.112,0.039-0.235,0.037-0.356-0.038
	c-0.122-0.075,0.021-0.21,0.021-0.21s0.418-0.027,0.507,0c0.09,0.028,0.096,0.076,0.017,0.169
	C12.987,36.251,12.878,36.239,12.878,36.239S12.99,36.199,12.878,36.239z"/>
<path id="player-sock-r" fill-rule="evenodd" clip-rule="evenodd" fill="#0068B4" d="M13.752,38.516
	c-0.077,0.143-0.42,0.179-0.496,0.26c-0.077,0.082-0.113,0.127,0.013,0.193c0.126,0.067,0.387,0.156,0.433,0.291
	c0.045,0.135,0.006,0.948-0.04,1.261c-0.047,0.313-0.431,3.724-0.454,3.993c-0.021,0.269-0.072,0.887-0.111,1.188
	c-0.037,0.3-0.086,0.812-0.086,0.812s0.061,0.509,0.059,0.579c0,0.07-0.014,0.281-0.07,0.3c-0.059,0.019-0.418-0.415-0.542-0.438
	c-0.124-0.022-0.29,0.167-0.347,0.225s-0.174,0.234-0.261,0.254c-0.086,0.02-0.22-0.061-0.276-0.074
	c-0.055-0.013-0.014-0.124-0.052-0.268c-0.038-0.143,0.077-0.418,0.071-0.463c-0.008-0.045-0.094-0.1-0.131-0.236
	c-0.036-0.135,0.035-0.352,0.025-0.529c-0.012-0.179-0.098-1.016-0.098-1.016s-0.189-3.135-0.211-3.738
	c-0.021-0.605,0.024-1.805,0.024-1.869s-0.038-0.207,0.045-0.293c0.067-0.07,0.194-0.02,0.303-0.029
	c0.108-0.008,0.236-0.086,0.263-0.119c0.026-0.034,0.025-0.104-0.014-0.193c-0.037-0.092-0.287-0.256-0.386-0.361
	c-0.099-0.104-0.099-0.326-0.106-0.502c-0.01-0.25,0.054-0.296,0.102-0.365c0.017-0.023,0.217,0.023,0.307,0.037
	c0.09,0.013,0.265,0.064,0.52,0.066c0.254,0,0.676,0.014,0.943,0c0.269-0.014,0.453-0.082,0.528,0.004s0.079,0.096,0.099,0.226
	s0.043,0.269,0.049,0.397S13.828,38.374,13.752,38.516z"/>
<path id="player-shorts" fill-rule="evenodd" clip-rule="evenodd" fill="#FFFFFF" d="M16.819,34.024
	c-0.013,0.003-0.045-0.028-0.078-0.091c-0.21-0.421-0.724-1.54-0.724-1.54l-0.657-1.365l0.009-1.801c0,0-0.094-0.447-0.017-0.561
	c0.076-0.111,0.739-0.609,0.87-0.655c0.133-0.046,0.232-0.078,0.287-0.185c0.055-0.107-0.452-0.043-0.555-0.032
	c-0.158,0.017-0.308,0.197-0.44,0.265c-0.133,0.068-0.258,0.209-0.326,0.195c-0.068-0.013,0.131-0.796,0.162-0.91
	c0.031-0.113-0.305-0.535-0.387-0.549s-0.02,1.104-0.061,1.191c-0.041,0.089-0.6,0.058-0.622,0.098
	c-0.022,0.041,0.025,0.168,0.108,0.275s0.312,0.435,0.393,0.517c0.08,0.081,0.213,0.144,0.22,0.224
	c0.008,0.08,0.03,3.449,0.03,3.449l-0.012,1.755c0,0,0.004,0.101-0.05,0.12c-0.054,0.019-1.288,0.104-1.712,0.111
	s-1.164,0.03-1.479,0.036c-0.426,0.009-1.008-0.015-1.008-0.015s-0.553,0.006-0.635,0.006c-0.039-0.002-0.079-0.006-0.095-0.105
	c-0.017-0.107-0.01-0.311-0.01-0.311l-0.005-2.624c0,0-0.016-3.618-0.021-3.894c-0.008-0.273-0.061-0.458,0.043-0.46
	c0.104-0.003,0.518,0.185,0.598,0.154c0.078-0.031,0.178-0.097,0.164-0.188s-0.051-0.092-0.149-0.123
	c-0.245-0.076-0.63-0.414-0.708-0.507c-0.077-0.093-0.09-0.272-0.127-0.419c-0.039-0.146-0.049-0.516-0.079-0.714
	s-0.009-0.339-0.017-0.511c-0.006-0.172,0.033-0.348,0.109-0.553c0.046-0.127,0.123-0.149,0.177-0.143
	c0.14,0.016,0.667,0.09,0.869,0.03s0.593-0.235,0.495-0.285c-0.098-0.051-0.828-0.247-1.022-0.238s-0.431,0.104-0.477,0.046
	c-0.046-0.057,0.077-0.812,0.185-0.818c0.106-0.006,0.297,0.014,0.456,0.027c0.159,0.012,0.46,0.074,0.696,0.113
	c0.186,0.029,0.485,0.07,1.018,0.17c0.534,0.098,1.531,0.172,1.874,0.162c0.344-0.01,1.921-0.238,2.181-0.291
	c0.261-0.055,1.007-0.229,1.08-0.209c0.073,0.021,0.218,0.08,0.212,0.191s-0.041,0.298-0.133,0.315
	c-0.23,0.044-0.721,0.013-0.706,0.064c0.02,0.072,0.441,0.157,0.571,0.229c0.129,0.073,0.311,0.139,0.483,0.352
	c0.173,0.215,0.88,1.432,1.093,1.832s0.627,1.29,0.844,1.756c0.218,0.465,0.693,1.412,0.84,1.775s0.73,1.754,0.828,1.969
	c0.099,0.215,0.328,0.81,0.338,0.853c0.011,0.042,0.028,0.077-0.036,0.132c-0.065,0.057-1.64,0.581-1.64,0.581l-2.199,0.771
	C17.866,33.694,16.908,34.002,16.819,34.024z"/>
<path id="player-sock-l" fill="#0068B4" d="M21.361,42.825c0.033-0.402,0.092-2.143,0.138-2.654c0.046-0.511,0.184-2.1,0.184-2.1
	s-0.028-0.311-0.04-0.412c-0.011-0.1-0.185-0.161-0.239-0.25c-0.056-0.09,0.194-0.185,0.36-0.324
	c0.165-0.139,0.211-0.437,0.211-0.437s0.092-0.29,0.051-0.518c-0.04-0.228-0.099-0.462-0.228-0.495
	c-0.128-0.035-0.575,0.035-1.04,0.028c-0.467-0.007-1.193-0.06-1.281-0.026c-0.088,0.035-0.151,0.095-0.184,0.226
	c-0.033,0.131-0.053,0.388-0.055,0.575s-0.028,0.379,0.125,0.527c0.153,0.15,0.52,0.264,0.566,0.35
	c0.049,0.086-0.023,0.237-0.1,0.278c-0.074,0.04-0.268-0.045-0.383,0.024c-0.117,0.067-0.305,0.586-0.382,0.802
	c-0.077,0.217-0.112,0.516-0.12,0.675c-0.009,0.158-0.013,0.385,0.004,0.662c0.018,0.276,0.03,0.535,0.064,0.869
	s0.273,2.443,0.273,2.443l0.118,1.479l0.077,1.006c0,0,0.015,0.133,0.114,0.16c0.172,0.045,0.675,0.338,1.004,0.328
	c0.328-0.01,0.757-0.418,0.771-0.424s-0.065-0.236-0.081-0.512S21.326,43.227,21.361,42.825z"/>
<polygon id="skin-leg-l" fill="#F9CAA9" points="18.96,34.117 19.256,34.6 19.493,35.194 20.669,35.213 21.81,35.167
	21.906,34.057 21.882,33.341 21.729,32.838 20.076,33.43 19.301,33.692 18.771,33.904 "/>
<path fill="#1A1A18" d="M21.404,34.257c0.101-0.126,0.116-0.4,0.116-0.4l-0.007-0.146c0,0-0.152,0.177-0.264,0.281
	c-0.113,0.104-0.327,0.261-0.327,0.261S21.305,34.383,21.404,34.257z"/>
<path id="hair-p" fill="#F7DD7F" d="M13.628,1.534c0,0,0.309-0.72,1.096-0.708c0.755,0.011,1.069,0.733,1.069,0.733
	s-0.332-0.355-1.023-0.366C14.014,1.183,13.628,1.534,13.628,1.534z"/>
<path fill="#FFFFFF" d="M13.655,1.782c0,0,0.395-0.336,1.116-0.326c0.609,0.009,1.013,0.405,1.013,0.405s-0.482-0.187-1.043-0.196
	C14.198,1.657,13.655,1.782,13.655,1.782z"/>
<path id="hair" fill-rule="evenodd" clip-rule="evenodd" fill="#F7DD7F" d="M16.469,5.208c-0.008,0-0.125,0.107-0.133,0.087
	C16.192,4.91,16.204,4.354,16.3,3.926c0.026-0.115-0.226,0.165-0.293,0.616C15.94,4.993,16.031,5.2,16.031,5.2
	s-1.178-1.786-1.175-1.747c0.045,0.71,0.326,0.733,0.851,1.699c0.031,0.109-1.303-1.438-1.419-1.68
	c-0.121-0.028-0.16,0.227,1.177,1.763c0.09,0.125-1.704-1.246-1.772-1.362c-0.063-0.109,0.194,0.279,1.041,1.084
	c0.089,0.083-1.548-0.342-1.725-1.477C13,3.423,12.82,3.522,12.781,4.27c-0.024,0.534-0.222,1.505-0.233,1.407
	C12.53,5.541,12.41,5.45,12.243,5.85c-0.062-0.084-0.214-0.643-0.3-1.398c-0.047-0.729,0.256-1.497,0.668-1.895
	c0.296-0.275,0.807-0.542,1.704-0.596c0.778-0.048,1.156,0.012,1.714,0.263c0.54,0.278,0.841,0.625,0.988,0.866
	c0.146,0.239,0.339,0.567,0.291,1.292c-0.018,0.544-0.245,1.299-0.334,1.537C16.9,6.115,16.775,6.32,16.794,6.264
	c0.153-0.438,0.005-0.669,0.024-0.792c0.026-0.181-0.243,0.394-0.228,0.206C16.624,5.25,16.469,5.208,16.469,5.208z"/>
<path id="skin-face" fill-rule="evenodd" clip-rule="evenodd" fill="#F9CAA9" d="M12.246,6.368
	c-0.047,0.186,0.023,0.386,0.111,0.723c0.074,0.279,0.354,0.386,0.354,0.386s0.214,0.589,0.501,1.071
	c0.327,0.489,0.664,0.959,1.229,0.968c0.554,0.008,0.985-0.508,1.293-0.93c0.321-0.48,0.604-1.036,0.604-1.036l0.062-0.116
	c0,0,0.154,0.061,0.223,0.007c0.13-0.103,0.429-0.459,0.46-0.779c0.014-0.146-0.109-0.226-0.109-0.226s-0.074,0.142-0.179,0.28
	c-0.104,0.138-0.276,0.272-0.276,0.272l0.034-0.854l-0.138,0.123c0,0-0.071-0.187-0.06-0.364c-0.006-0.168-0.053-0.274-0.053-0.274
	l-0.146,0.089l-0.046-0.284c0,0-0.001,0.027-0.028,0.102c-0.037,0.024-0.262-0.142-0.299-0.13c-0.047,0.055-0.186-0.003-0.187,0.048
	c-0.001,0.064-0.236,0.095-0.327,0.012L14.97,5.239c-0.074-0.048-0.183,0.046-0.364,0.013c-0.182-0.032-0.782-0.271-0.852-0.33
	c-0.498-0.296-0.644-0.542-0.644-0.542s-0.032-0.017-0.087,0.509c-0.039,0.361-0.105,0.483-0.154,0.715
	c-0.051,0.232-0.244,0.744-0.244,0.744s-0.004-0.333-0.123-0.348C12.383,5.988,12.293,6.182,12.246,6.368z M14.153,6.066
	L13.391,5.78c0.473,0.153,0.575,0.073,0.711,0.083C14.372,5.887,14.153,6.066,14.153,6.066z M14.496,7.45
	c-0.095,0.02-0.24-0.032-0.24-0.032l0.131-0.09C14.387,7.327,14.428,7.424,14.496,7.45z M14.617,8.102
	c-0.131,0.075-0.172-0.003-0.231-0.026l0.09-0.07C14.557,8.007,14.644,8.029,14.617,8.102z M14.898,7.424L14.871,7.44l-0.11,0.035
	l-0.124-0.023l0.162-0.122L14.898,7.424z M15.801,5.848L15.03,6.111c0,0-0.215-0.187,0.058-0.201
	C15.223,5.904,15.324,5.987,15.801,5.848z M15.434,6.534c0,0-0.047,0.026-0.219-0.005c-0.063-0.01-0.162-0.127-0.188-0.107
	c-0.147,0.127-0.035,0.255-0.069,0.246c-0.091-0.025-0.06-0.239-0.06-0.239s0.012-0.2,0.275-0.233
	c0.172-0.022,0.518,0.037,0.568,0.036l0.484-0.012l-0.383,0.184l-0.229-0.016l-0.039,0.018C15.576,6.405,15.625,6.463,15.434,6.534z
	 M13.755,8.213c-0.07-0.063,0.286-0.016,0.286-0.016s0.145,0.033,0.269-0.001c0.123-0.035,0.167,0.038,0.224-0.004
	c0.203-0.152,0.227,0.034,0.374,0.045c0.144,0.011,0.269-0.021,0.369,0.013c0.03,0.01,0.108,0.023,0.108,0.023l-0.17,0.081
	c0,0-0.227-0.024-0.358,0.021c-0.06,0.019-0.144,0.064-0.144,0.064s0.043,0.103,0.023,0.166c-0.035,0.116-0.293,0.106-0.293,0.106
	l-0.135-0.053l0.01-0.078c0,0,0.114-0.014,0.188-0.013c0.054-0.001-0.046-0.142-0.046-0.142s-0.237-0.028-0.332-0.037
	C13.99,8.375,13.838,8.29,13.755,8.213z M12.895,6.169l0.484,0.027c0.05,0.002,0.398-0.047,0.568-0.019
	c0.264,0.041,0.268,0.241,0.268,0.241s0.027,0.214-0.066,0.237c-0.033,0.008,0.083-0.116-0.062-0.248
	c-0.021-0.021-0.125,0.093-0.189,0.102c-0.172,0.026-0.219-0.001-0.219-0.001c-0.189-0.077-0.139-0.133-0.139-0.133l-0.038-0.019
	l-0.229,0.009L12.895,6.169z"/>
<path id="skin-neck" fill-rule="evenodd" clip-rule="evenodd" fill="#F9CAA9" d="M14.472,11.907l0.895-2.315
	c0,0-0.262,0.34-0.896,0.331C13.783,9.912,13.383,9.5,13.383,9.5L14.472,11.907z"/>
</svg>
