<?xml version="1.0" encoding="utf-8"?>
<!-- Generator: Adobe Illustrator 16.0.4, SVG Export Plug-In . SVG Version: 6.00 Build 0)  -->
<!DOCTYPE svg PUBLIC "-//W3C//DTD SVG 1.1//EN" "http://www.w3.org/Graphics/SVG/1.1/DTD/svg11.dtd">
<svg version="1.1" id="Ebene_1" xmlns="http://www.w3.org/2000/svg" xmlns:xlink="http://www.w3.org/1999/xlink" x="0px" y="0px"
	 width="27.337px" height="50.921px" viewBox="0 0 27.337 50.921" enable-background="new 0 0 27.337 50.921" xml:space="preserve">
<path fill-rule="evenodd" clip-rule="evenodd" fill="#1A1A18" d="M0.816,22.636l0.688-0.954l1.373-1.177l0.553-0.672l1.232-1.984
	l1.025-1.61c0,0,1.189-1.951,1.438-2.316c0.25-0.365,0.51-0.791,0.51-0.791S7.507,12.974,7.494,12.9
	c-0.015-0.073,0.355-0.468,0.688-0.891c0.33-0.423,0.698-0.83,1.125-1.359c0.516-0.641,0.797-1.031,1.234-1.453
	c0.453-0.437,1.062-1.078,1.5-1.203c0.255-0.073,0.593-0.111,0.922-0.141c0.235-0.021,1.036,0.021,1.199,0.029
	c0.055-0.154,0.094-0.296,0.099-0.495c-0.3-0.166-0.518-0.349-0.679-0.503c0.07,0.307-0.079,0.517-0.06,0.671
	c-0.206,0-0.237-0.079-0.349-0.222c0,0,0.031,0.413-0.143,0.349c-0.191-0.069-0.381-0.127-0.492-0.381c0,0,0.045,0.359-0.032,0.429
	c-0.108,0.096-0.369-0.193-0.413-0.265c0.027,0.058,0.08,0.186,0.08,0.186s-0.486-0.104-0.632-0.467
	c-0.114-0.285-0.139-0.463-0.125-0.844c0.009-0.264,0.081-0.523,0.172-1.062c0.043-0.256,0.156-0.734,0.203-1.109
	c0.049-0.39,0.11-0.925,0.16-1.294c0.095-0.714,0.064-1.107,0.324-1.628c0.223-0.444,0.654-0.597,1.031-0.609
	c0.477-0.016,0.912,0.094,1.197,0.459c0.038,0.048,0.085,0.084,0.131,0.119c0.094,0.018,0.167,0.055,0.233,0.092
	c0.416-0.123,0.801-0.19,1.235-0.155c0.523,0.043,1.213,0.265,1.609,0.531c0.667,0.449,0.812,0.828,1.234,1.438
	c0.257,0.37,0.297,0.438,0.547,0.688c0.381,0.25,0.208,0.408-0.078,0.391c-0.001,0,0.016,0.109,0.109,0.234
	c0.092,0.053-0.203,0.141-0.828,0.141c-0.059-0.002-0.285,0.695-0.25,0.804c0.004,0.025,0.004,0.047,0.008,0.072l0.322-0.055
	c0,0-0.14,0.065-0.312,0.149c0.03,0.251,0.045,0.485,0.044,0.67c-0.002,0.489-0.094,0.859-0.219,1.281
	c-0.141,0.422-0.401,0.864-0.719,1.297c-0.241,0.187-0.312,0.188-0.641,0.234c-0.003,0-0.005,0.002-0.008,0.003
	c0.109,0.094,0.278,0.236,0.444,0.353c0.172,0.121,0.766,0.531,1.047,0.891c0.157,0.202,0.272,0.414,0.375,0.688
	c0.102,0.273,0.265,1.139,0.312,1.5c0.047,0.362,0.2,1.31,0.266,1.578c0.096,0.391,0.258,1.18,0.357,1.486
	c0.13,0.398,0.312,0.758,0.305,0.803c-0.008,0.045-0.058,0.058-0.058,0.058l0.014,0.017l0.652,0.887l0.501,0.739l0.416,0.618
	l1.097,1.449l1.915,2.121c0,0,0.368,0.066,0.602,0.162s0.52,0.314,0.698,0.455s0.476,0.421,0.574,0.611
	c0.097,0.191,0.225,0.602,0.243,0.734s0.041,0.304,0.029,0.38c-0.011,0.077-0.12,0.208-0.141,0.245
	c-0.021,0.037-0.186,0.11-0.346,0.125c-0.053,0.004-0.125,0.149-0.175,0.178c-0.048,0.028-0.136-0.057-0.194-0.008
	c-0.059,0.051-0.175,0.227-0.261,0.264s-0.207,0.125-0.324,0.125s-0.198-0.104-0.343-0.155c-0.145-0.05-0.448-0.293-0.448-0.293
	s-0.337-0.19-0.55-0.37c-0.214-0.182-0.366-0.336-0.502-0.561c-0.136-0.223-0.342-0.717-0.342-0.717s-1.701-1.631-2.067-1.95
	c-0.367-0.319-2.064-1.926-2.312-2.188c-0.248-0.262-1.046-1.232-1.046-1.232l-0.673,0.296l-0.372-0.937c0,0-0.25,0.734-0.422,1.422
	c-0.146,0.58-0.297,1.359-0.344,1.766c-0.032,0.279-0.031,0.797-0.031,0.797s0.175,0.172,0.271,0.318
	c0.097,0.147,0.131,0.279,0.055,0.457c-0.075,0.178-0.088,0.189-0.027,0.234c0.062,0.046,0.184,0.222,0.285,0.37
	s0.662,1.281,0.792,1.562c0.129,0.281,0.291,0.771,0.666,1.667c0.336,0.801,0.926,2.222,1.159,2.897
	c0.232,0.676,0.816,2.379,0.861,2.572c0.042,0.178,0.124,0.191-0.07,0.27c-0.128,0.053-0.299,0.113-0.299,0.113
	s0.134,0.787,0.142,1.107c0.009,0.363-0.068,0.793-0.128,1.054c-0.059,0.261-0.18,0.616-0.172,0.733
	c0.008,0.119,0.172,0.531,0.149,1.021c-0.024,0.539-0.183,1.068-0.319,1.289c-0.081,0.13-0.173,0.195-0.219,0.249
	c-0.046,0.055-0.069,0.323-0.165,0.765s-0.41,1.603-0.41,1.603c-0.111,0.496-0.233,0.977-0.479,1.94
	c-0.167,0.654-0.224,1.008-0.241,1.034c-0.01,0.014,0.215,0.028,0.249,0.137c0.033,0.108,0.006,0.4,0.006,0.4
	s0.498,0.115,0.775,0.22c0.278,0.105,1.173,0.381,1.497,0.547c0.314,0.162,0.616,0.309,0.808,0.5
	c0.147,0.146,0.117,0.428,0.024,0.654c-0.093,0.228-0.254,0.349-0.461,0.406c-0.207,0.057-0.362,0.09-0.362,0.09L19.8,45.679
	c0,0,0.001,0.148-0.054,0.193c-0.055,0.043-0.301,0.043-0.383,0.043s-0.146-0.165-0.146-0.165l-0.544,0.048l-1.267,0.175
	c0,0-0.012,0.218-0.081,0.235c-0.07,0.016-0.234,0.016-0.316,0.016S16.823,46,16.823,46l-1.005,0.077c0,0-0.086,0.199-0.146,0.218
	c-0.059,0.019-0.188,0.008-0.246-0.023c-0.06-0.031-0.12-0.227-0.12-0.227s-0.362-0.105-0.451-0.146
	c-0.09-0.041,0.021-0.137,0.007-0.236c-0.015-0.099-0.151-0.555-0.165-0.717c-0.015-0.161-0.009-0.56,0.037-0.809
	c0.045-0.25,0.235-0.584,0.264-0.645c0.027-0.061,0.084-0.604,0.097-0.795c0.012-0.191,0.062-0.389,0.085-0.76
	c0.023-0.373,0.179-3.104,0.179-3.104s0.031-0.568,0.109-0.896s0.329-0.834,0.329-0.834s0.136-0.295,0.149-0.344
	c-0.014-0.059-0.036-0.25-0.075-0.391c-0.038-0.142-0.069-0.165-0.067-0.426c0.002-0.26,0.133-0.855,0.207-1.082
	c0.096-0.295,0.236-0.461,0.236-0.461s-0.093-0.445-0.219-0.668c-0.127-0.225-0.634-0.886-0.634-0.886l-0.466,0.073
	c0,0-0.228,0.049-0.328,0.045c-0.1-0.006-0.031-0.212-0.091-0.188c-0.059,0.025-0.091,0.107-0.137,0.206s-0.175,0.794-0.175,0.794
	l-0.166,0.838c0,0-0.156,0.774-0.211,0.907c-0.055,0.132-0.097,0.31-0.076,0.442c0.021,0.131,0.048,0.25,0.041,0.396
	c-0.006,0.146-0.047,0.646-0.116,0.749c-0.068,0.103-0.068,0.353-0.096,0.823c-0.026,0.471-0.246,2.264-0.396,3.308
	c-0.151,1.044-0.378,2.133-0.378,2.133l-0.191,1.134c0,0,0.063,0.351,0.159,0.629c0.094,0.277-0.01,0.623-0.01,0.623
	s0.292,1.004,0.356,1.352c0.063,0.349,0.319,1.695,0.328,1.882c0.01,0.187,0.049,0.515-0.039,0.646
	c-0.089,0.129-0.338,0.322-0.338,0.322s-0.093,0.189-0.12,0.248c-0.028,0.059-0.247,0.059-0.315,0.045
	c-0.068-0.016-0.114-0.166-0.114-0.166l-1.01-0.005c0,0-0.072,0.104-0.145,0.167c-0.073,0.062-0.278,0.033-0.36-0.025
	c-0.083-0.06-0.104-0.195-0.104-0.195s-0.469-0.479-0.586-0.708s-0.195-0.706-0.203-0.892c-0.01-0.264,0.007-0.418,0.006-0.496
	c-0.002-0.076-0.088-0.459-0.113-0.709s0.021-0.76,0.029-0.955s0.065-0.33,0.066-0.428c0.002-0.117-0.129-0.695-0.121-0.867
	c0.008-0.17,0.137-0.517,0.137-0.517s0.094-0.583,0.102-0.952c0.008-0.368-0.062-2.006-0.062-2.006l-0.062-2.316
	c0,0,0.113-1.564,0.197-1.841s0.268-0.64,0.268-0.64s-0.131-0.846-0.061-1.151s0.266-0.437,0.266-0.437s-0.133-0.451-0.268-0.771
	c-0.134-0.321-0.595-0.86-0.595-0.86s-0.253,0.079-0.442,0.054c-0.19-0.023-0.381-0.082-0.466-0.176s-0.196-0.824-0.232-1.221
	c-0.038-0.396-0.202-1.736-0.21-2.396c-0.01-0.661-0.213-3.427-0.256-3.829c-0.041-0.404-0.258-1.348-0.286-1.588
	c-0.028-0.242-0.041-0.656-0.021-0.794c0.047-0.521,0.199-0.847,0.205-0.904s-0.104-0.192-0.11-0.323s0.013-0.54,0.044-0.718
	c0.031-0.179,0.146-0.627,0.146-0.627l0.072-0.49c0,0,0.152-0.867,0.277-1.585s0.578-2.859,0.578-2.859s-0.875,0.906-1.438,1.531
	s-2.256,2.652-2.256,2.652L4.49,21.48l-0.43,1.319l-0.252,0.373l-0.543,0.537l-0.61,0.543L2.13,24.29l-0.062-0.096l-0.497,0.35
	l-0.281-0.088l-0.282-0.234L0.72,24.043l-0.1-0.422L0.816,22.636z"/>
<path id="skin-arm-r" fill="#F9CAA9" d="M8.989,14.426c-0.288-0.265-0.438-0.396-0.657-0.617s-0.373-0.417-0.373-0.417l-0.668,0.993
	l-3.902,6.158L3.11,20.906l-0.2,0.157l-1.062,0.824l-0.67,0.844l-0.159,0.885l0.175,0.129l0.136-0.141l0.123-0.469l0.079-0.115
	l-0.112,0.711l-0.014,0.275L1.5,24.093L1.673,24l0.283-0.88l0.205-0.439l0.061-0.029l0.125-0.043l0.357-0.037l0.08,0.146
	l-0.104,0.302L2.373,23.5l-0.033,0.255l0.207,0.015l0.479-0.454l0.571-0.594l0.269-0.788l0.139-0.407l0.15-0.295l3.238-3.846
	l1.273-1.389l0.861-1.059C9.527,14.938,9.276,14.691,8.989,14.426z"/>
<path id="skin-arm-l" fill-rule="evenodd" clip-rule="evenodd" fill="#F9CAA9" d="M26.103,23.601c0,0-0.254-0.293-0.389-0.414
	c-0.134-0.122-0.436-0.376-0.634-0.447s-0.607-0.138-0.607-0.138l-0.372-0.385l-0.933-0.975l-0.006,0.004l-0.864-1.018l-1.381-1.852
	l-0.646-0.929l-0.62-0.813c0,0-0.52,0.436-0.816,0.67s-0.766,0.531-0.766,0.531s0.219,0.344,0.531,0.734s1.75,1.766,2.344,2.312
	s2.402,2.194,2.402,2.194l0.164,0.266c0,0,0.041,0.156,0.125,0.344s0.312,0.469,0.312,0.469s0.438,0.287,0.502,0.319
	s0.049-0.226,0.118-0.351c0.068-0.125,0.417-0.214,0.427-0.217c0.012-0.004-0.298-0.164-0.298-0.164l-0.548-0.337l0.184-0.091
	l0.052-0.029l0.193,0.039l0.284,0.137l0.604,0.055c0,0,0.295,0.266,0.417,0.334s0.25,0.039,0.315,0.039
	C26.265,23.889,26.103,23.601,26.103,23.601z"/>
<path id="skin-arm-l-1" fill="#F9CAA9" d="M26.096,24.513c-0.077-0.007-0.527-0.237-0.527-0.237s-0.138-0.215-0.146-0.264
	c-0.007-0.051,0.066-0.1,0.066-0.1s0.256,0.104,0.379,0.167c0.122,0.063,0.174,0.022,0.273,0.059c0.1,0.037,0.14,0.081,0.146,0.173
	c0.005,0.092-0.023,0.128-0.023,0.128S26.173,24.52,26.096,24.513z"/>
<path id="skin-arm-l-2" fill="#F9CAA9" d="M25.438,24.717c-0.104-0.035-0.268-0.173-0.268-0.173l-0.056-0.137
	c0,0,0.041-0.05,0.075-0.093c0.035-0.044,0.147-0.047,0.147-0.047l0.146,0.165l0.233,0.119l0.09,0.076c0,0,0.035,0.022-0.021,0.097
	c-0.055,0.074-0.074,0.057-0.074,0.057S25.542,24.75,25.438,24.717z"/>
<path id="skin-arm-l-3" fill="#F9CAA9" d="M25.3,24.813c0,0-0.136-0.064-0.222-0.127c-0.087-0.062-0.151-0.182-0.151-0.182h-0.142
	c0,0-0.062,0.117-0.017,0.229c0.046,0.111,0.209,0.201,0.209,0.201s0.188,0.074,0.278,0.066c0.092-0.01,0.136-0.092,0.136-0.092
	l-0.033-0.078L25.3,24.813z"/>
<path id="skin-leg-r" fill="#F9CAA9" d="M13.194,35.416c0,0-0.619-0.012-0.975-0.056c-0.356-0.044-1.044-0.261-1.044-0.261
	s-0.172-0.609-0.285-0.9c-0.111-0.291-0.492-0.794-0.492-0.794s0.977-0.217,1.446-0.263c0.471-0.046,2.041-0.104,2.041-0.104
	s-0.007,0.297-0.064,0.631c-0.059,0.334-0.151,0.823-0.192,1.014c-0.04,0.191-0.164,0.53-0.232,0.618S13.194,35.416,13.194,35.416z"
	/>
<path fill-rule="evenodd" clip-rule="evenodd" fill="#1A1A18" d="M13.013,34.345c-0.083-0.014-0.124-0.19-0.083-0.234
	c0.042-0.045,0.404-0.059,0.404-0.059s0.048,0.149-0.021,0.234C13.246,34.373,13.095,34.361,13.013,34.345z"/>
<path id="player-sock-r" fill-rule="evenodd" clip-rule="evenodd" fill="#0068B4" d="M13.216,37.066
	c-0.107,0.059-0.363,0.038-0.447,0.107c-0.085,0.068-0.072,0.144,0.003,0.194c0.077,0.051,0.416,0.229,0.417,0.315
	c0.002,0.088-0.055,0.884-0.102,1.258s-0.238,1.873-0.32,2.417c-0.049,0.316-0.44,2.487-0.481,2.722
	c-0.039,0.233-0.132,0.612-0.126,0.805c0.005,0.193,0.039,0.471,0.028,0.582c-0.01,0.111-0.008,0.258-0.084,0.295
	c-0.077,0.037-0.521-0.469-0.521-0.469l-0.356,0.203l-0.188,0.568l-0.271-0.09l-0.123-0.602l0.094-0.459l-0.218-0.275l0.022-0.755
	l0.034-0.614c0,0-0.128-3.499-0.11-4.087c0.019-0.587,0.212-1.653,0.236-1.768c0.023-0.114,0.105-0.3,0.174-0.296
	c0.068,0.006,0.104,0.106,0.183,0.093s0.224-0.076,0.267-0.104c0.045-0.028,0.045-0.131-0.002-0.194
	c-0.053-0.072-0.307-0.229-0.369-0.384c-0.064-0.155-0.037-0.64-0.01-0.772c0.028-0.133,0.125-0.224,0.207-0.235
	c0.081-0.013,0.189,0.017,0.334,0.045s0.703,0.192,0.902,0.198c0.2,0.006,0.827,0.008,0.883,0.066
	c0.057,0.059,0.098,0.278,0.098,0.455c0,0.176,0.006,0.434-0.041,0.514C13.282,36.88,13.325,37.008,13.216,37.066z"/>
<path id="player-shirt" fill-rule="evenodd" clip-rule="evenodd" fill="#0068B4" d="M11.396,13.923
	c-0.299,0.356-0.688,0.844-0.889,1.076c-0.082,0.095-0.09,0.106-0.277-0.042s-0.775-0.646-0.775-0.646l-0.948-0.881l-0.457-0.521
	l0.757-0.993c0.859-1.047,1.716-2.173,1.938-2.406c0.221-0.232,0.814-0.801,0.906-0.875c0.09-0.075,0.349-0.268,0.5-0.312
	c0.15-0.044,0.714-0.103,1.078-0.109s0.656,0.031,0.656,0.031s0.453,1.062,0.75,1.781s0.891,2.047,0.891,2.047
	s0.438-0.875,0.641-1.391s0.594-1.312,0.594-1.312s0.73,0.526,0.895,0.667c0.163,0.141,0.451,0.403,0.554,0.552
	c0.103,0.148,0.229,0.374,0.271,0.547c0.04,0.174,0.352,1.66,0.406,2.057c0.056,0.396,0.138,0.806,0.191,1.108
	c0.056,0.303,0.205,1.031,0.274,1.277c0.068,0.247,0.209,0.651,0.209,0.651s-0.158,0.132-0.436,0.346
	c-0.276,0.214-0.577,0.436-0.961,0.693c-0.384,0.256-0.945,0.462-0.945,0.462l-0.286-0.797c0,0,0.101-0.417,0.234-0.953
	c0.156-0.625,0.212-1.039,0.234-1.156c0.023-0.117,0.049-0.446,0.016-0.5c-0.033-0.053-0.104-0.062-0.156-0.031
	s-0.156,0.562-0.438,1.375c-0.233,0.673-0.378,1.049-0.516,1.484s-0.478,1.628-0.547,1.969c-0.068,0.341-0.281,1.359-0.328,1.844
	c-0.029,0.297,0.012,0.319-0.016,0.422c-0.069,0.059-0.158,0.053-0.418,0.098c-0.26,0.044-1.491,0.223-1.944,0.234
	c-0.547,0.016-1.703-0.057-2.053-0.102c-0.349-0.047-1.095-0.193-1.286-0.288s-0.301-0.277-0.514-0.289
	c-0.212-0.012-0.404,0.032-0.459-0.056s-0.012-0.204,0.018-0.458c0.041-0.353,0.309-1.854,0.422-2.484
	c0.156-0.875,0.512-2.396,0.594-2.625c0.082-0.229,0.07-0.284,0.312-0.094c0.219,0.172,0.379,0.242,0.484,0.156
	c0.104-0.085,0.822-0.951,0.969-1.109c0.145-0.159,0.452-0.653,0.662-0.893c0.143-0.163,0.159-0.237,0.163-0.328
	s-0.14,0.001-0.259,0.015C11.987,13.177,11.695,13.568,11.396,13.923z"/>
<path id="player-shorts" fill-rule="evenodd" clip-rule="evenodd" fill="#FFFFFF" d="M14.916,32.478
	c-0.037,0.006-0.07-0.107-0.101-0.266c-0.077-0.41-0.133-1.086-0.133-1.086s-0.068-0.547-0.13-1.148s-0.177-1.994-0.177-1.994
	l0.054-0.557c0,0,0.773-0.611,0.855-0.676s0.249-0.099,0.282-0.192c0.033-0.092-0.473-0.049-0.556-0.02
	c-0.082,0.029-0.311,0.199-0.436,0.277c-0.125,0.076-0.254,0.195-0.32,0.202c-0.065,0.006,0.154-0.761,0.141-0.913
	c-0.015-0.154-0.305-0.545-0.399-0.541c-0.094,0.005,0.017,1.148-0.032,1.193c-0.049,0.047-0.578,0.076-0.621,0.113
	c-0.043,0.036,0.056,0.17,0.116,0.272c0.06,0.101,0.349,0.441,0.402,0.506c0.082,0.109,0.261,0.17,0.288,0.279
	c0.026,0.109,0.115,2.004,0.115,2.004l0.082,2.471l-0.096,0.176l-2.375,0.186l-0.889,0.162l-1.458,0.24l-0.22-0.072
	c0,0-0.062-0.296-0.137-0.779c-0.076-0.484-0.197-2.014-0.24-2.572c-0.041-0.559-0.148-2.457-0.148-2.457l-0.092-1.098l0.005-0.2
	c0,0,0.53,0.141,0.603,0.141c0.072-0.001,0.137-0.092,0.159-0.193c0.021-0.102-0.051-0.075-0.335-0.16
	c-0.282-0.086-0.326-0.193-0.422-0.369c-0.098-0.175-0.247-0.75-0.262-0.984c-0.014-0.232-0.08-0.325-0.047-0.846
	s0.141-0.812,0.238-0.887c0.096-0.075,0.756,0.065,0.871,0.01s0.465-0.217,0.488-0.298s-0.848-0.212-1.028-0.213
	c-0.18-0.001-0.312,0.028-0.413,0.028c-0.102,0.001-0.069-0.243-0.075-0.371c-0.007-0.129,0.03-0.35,0.114-0.363
	c0.084-0.016,0.357-0.014,0.439-0.021c0.083-0.008,0.254,0.139,0.401,0.197s0.968,0.3,1.282,0.342
	c0.316,0.041,1.307,0.122,1.797,0.133c0.489,0.012,1.699-0.102,1.978-0.148s1.019-0.213,1.141-0.167
	c0.123,0.047,0.185,0.21,0.15,0.297c-0.035,0.088-0.466,0.118-0.602,0.126c-0.084,0.006-0.173,0.066-0.179,0.139
	s0.288,0.111,0.527,0.173c0.239,0.062,0.396,0.052,0.547,0.302c0.148,0.249,0.602,1.082,0.875,1.771
	c0.272,0.689,0.78,1.896,0.979,2.396c0.199,0.499,0.74,1.812,0.945,2.431c0.205,0.617,0.493,1.558,0.534,1.676
	c0.041,0.117,0.122,0.233,0,0.279c-0.122,0.045-0.273,0.073-0.492,0.132c-0.22,0.06-1.711,0.411-2.259,0.544
	S15.039,32.464,14.916,32.478z"/>
<path fill-rule="evenodd" clip-rule="evenodd" fill="#1A1A18" d="M10.835,18.544c0.165,0.072,0.771,0.193,0.954,0.287
	c0.183,0.093,0.582,0.737,0.834,0.827c0.253,0.09,0.458,0.038,0.485,0.034s-0.586-0.84-0.8-0.98
	c-0.213-0.14-0.886-0.582-1.097-0.641c-0.212-0.058-0.964-0.429-1.025-0.354c-0.062,0.075,0.021,0.381,0.082,0.471
	C10.33,18.278,10.835,18.544,10.835,18.544S10.671,18.472,10.835,18.544z"/>
<path id="player-sock-l" fill="#0068B4" d="M17.474,41.726c0.138-0.559,0.315-1.221,0.452-1.75s0.319-1.311,0.406-1.677
	s0.206-0.771,0.201-0.862s-0.077-0.055-0.164-0.133c-0.087-0.077-0.063-0.273,0-0.381s0.246,0.059,0.405-0.078
	s0.306-0.775,0.306-0.775s0.005-0.303-0.013-0.5c-0.019-0.195-0.104-0.372-0.17-0.395c-0.068-0.021-0.905,0.045-1.19-0.021
	c-0.284-0.064-0.834-0.377-0.979-0.387c-0.144-0.01-0.256,0.07-0.315,0.221c-0.062,0.151-0.129,0.529-0.136,0.833
	c-0.008,0.304,0.023,0.612,0.091,0.708c0.065,0.096,0.504,0.11,0.559,0.258c0.055,0.146,0.034,0.282-0.093,0.332
	s-0.4-0.156-0.482-0.127s-0.401,0.612-0.516,1.181c-0.113,0.569-0.214,3.813-0.214,3.813l-0.113,1.154l1.174,0.492l0.498-0.492
	l0.09-0.501C17.271,42.639,17.354,42.218,17.474,41.726z"/>
<path id="skin-leg-l" fill="#F9CAA9" d="M16.419,33.532c0.056,0.108,0.245,0.612,0.295,0.705
	c0.049,0.095,0.817,0.427,1.049,0.481c0.232,0.054,1.107,0.054,1.135-0.02c0.028-0.074,0.166-0.561,0.206-0.706
	c0.067-0.249,0.128-0.539,0.137-0.779c0.009-0.239-0.1-1.005-0.05-0.774s-0.115-0.49-0.115-0.49l-2.385,0.574l-0.784,0.222
	C15.907,32.745,16.365,33.423,16.419,33.532z"/>
<path fill="#1A1A18" d="M18.747,33.632c0.083-0.051,0.129-0.242,0.136-0.391c0.002-0.072,0-0.146,0-0.146s-0.149,0.161-0.279,0.265
	c-0.129,0.104-0.339,0.241-0.339,0.241S18.663,33.684,18.747,33.632z"/>
<path fill="#FFFFFF" d="M14.457,1.473c0,0,0.05-0.056-0.355,0.026c-0.312,0.064-0.691,0.247-0.872,0.647
	c-0.145,0.318-0.123,0.565-0.123,0.565s0.322-0.395,0.624-0.698C14.068,1.675,14.457,1.473,14.457,1.473z"/>
<path id="hair-p" fill="#F7DD7F" d="M14.316,1.257c-0.125-0.165-0.571-0.508-1.206-0.349c-0.77,0.192-0.808,0.81-0.968,2.491
	c-0.096,1-0.21,1.411-0.317,1.952c-0.138,0.685-0.35,1.317,0.074,1.938c-0.161-0.235,0.147-0.842,0.147-0.842
	c-0.006,0.125-0.072,0.346-0.015,0.528c0.066,0.213,0.261,0.382,0.288,0.405c-0.154-0.321,0.182-0.868,0.182-0.868
	c0.055,0.293,0.123,0.619,0.464,0.877c-0.083-0.062-0.094-0.706-0.094-0.706c0.067,0.233,0.43,0.358,0.446,0.548
	c-0.02-0.236,0.071-0.495-0.058-0.641c-0.328-0.375-0.469-0.672-0.547-1.047c-0.125-0.516-0.155-0.945-0.109-1.359
	c0.047-0.422,0.108-0.659,0.281-1.234c0-0.396,0.014-0.596,0.109-0.844c0.156-0.406,0.332-0.517,0.547-0.656
	C13.854,1.248,14.316,1.257,14.316,1.257z"/>
<path id="skin-face" fill-rule="evenodd" clip-rule="evenodd" fill="#F9CAA9" d="M14.306,8.275c0.032,0.297,0.42,1.083,0.75,1.828
	c0.257,0.582,0.491,1.082,0.5,1.062c0.469-1.094,0.656-1.547,0.844-1.969c-1.271-0.193-1.096-1.036-0.916-0.848
	c1.243,0.727,1.875,0.264,1.875,0.264c0.476-0.662,0.681-1.105,0.79-1.627c0.085-0.409,0.119-0.885,0.024-1.283
	c-0.096,0.05-0.188,0.099-0.26,0.141c-0.159,0.095-0.209-0.237-0.395-0.021c-0.045,0.053-0.05,0.129-0.065,0.215
	c-0.02,0.121-0.048,0.265-0.048,0.265s-0.053-0.279-0.001-0.48c0.029-0.11,0.025-0.212,0.126-0.267
	c0.191-0.121,0.535-0.065,0.654-0.042c0.006-0.07-0.03-0.186-0.008-0.239c0,0,0-0.001,0-0.001c-0.137-0.009-0.338,0.03-0.467,0.079
	c-0.034,0.012,0.002-0.168,0.122-0.207c0.124-0.041,0.243-0.019,0.375,0.004c0.055-0.226,0.083-0.309,0.112-0.436
	c-0.08-0.033-0.034-0.003-0.187-0.079c-0.151-0.091,0.122,0.106-0.105,0.182c-0.425,0.076-0.542,0.052-0.637-0.03
	c-0.061,0,0,0.151-0.167,0.167c-0.187,0.058-0.405,0.063-0.818,0.015c-0.456-0.055-0.953-0.175-1.243-0.303
	c-0.307-0.146,0.266,0.37-0.303,1.728c-0.318-0.455-0.5-0.485-0.729-0.501c-0.349-0.025-0.343,0.276-0.343,0.276
	c0.063,0.447,0.325,0.93,0.77,1.06C14.603,7.525,14.447,7.885,14.306,8.275z M16.748,5.429l-0.915-0.136
	c0.319,0.016,0.765-0.132,0.896-0.12C17.08,5.205,16.748,5.429,16.748,5.429z M16.982,6.88l-0.04,0.162l-0.021,0.02l-0.03-0.061
	l-0.083-0.069L16.74,6.91L16.982,6.88z M17.426,6.981l-0.065,0.05l0.015-0.228l0.046,0.03L17.426,6.981z M16.945,8.077l0.001-0.075
	c0,0,0.106-0.028,0.179-0.038l0.134-0.013c0,0,0.097-0.005,0.093,0.02c-0.02,0.117-0.269,0.14-0.269,0.14L16.945,8.077z
	 M16.358,7.72c-0.074-0.051,0.273-0.05,0.273-0.05s0.313-0.024,0.428-0.072c0.114-0.05,0.099,0.021,0.161-0.009
	c0.193-0.09,0.113-0.003,0.256-0.01c0.111-0.005,0.178-0.026,0.277-0.005c0.031,0.005,0.066,0.023,0.066,0.023l-0.042,0.076
	c0,0-0.22,0.005-0.343,0.063c-0.053,0.025-0.1,0.084-0.1,0.084l-0.141,0.022c-0.045-0.013-0.19,0.008-0.19,0.008l-0.102-0.024
	c0,0-0.111-0.045-0.202-0.043C16.563,7.788,16.448,7.782,16.358,7.72z M16.066,7.544c0.033,0,0.141-0.063,0.177,0.032
	c0,0,0.087,0.066-0.13,0.111L16.066,7.544z M15.333,5.651c0,0,0.146,0.068,0.351,0.068c0.149-0.033,0.226-0.033,0.273-0.025
	c0.028-0.027,0.059-0.054,0.092-0.065c0.216-0.076,0.31-0.018,0.53-0.01c0.092-0.024,0.179-0.037,0.243-0.015
	c0.011,0.06-0.021,0.176-0.077,0.233l0.004,0.004c0,0-0.024,0.018-0.047,0.031c-0.001,0-0.002,0.001-0.003,0.001
	c-0.011,0.006-0.024,0.015-0.025,0.011c-0.014-0.041-0.046-0.051-0.078-0.055c-0.01-0.005-0.014-0.002-0.023-0.006
	c-0.035,0.002-0.071,0.014-0.096,0.029c-0.055,0.032-0.13,0.113-0.223,0.101c-0.092-0.01-0.164-0.067-0.238-0.13
	c-0.135,0.004-0.312,0.005-0.337-0.004C15.639,5.803,15.333,5.651,15.333,5.651z M14.572,6.81c-0.064,0.021-0.061-0.058-0.105-0.091
	c-0.046-0.033-0.141-0.018-0.141-0.018L14.281,6.68c0,0-0.082-0.051-0.1-0.107c-0.077-0.248-0.125-0.451-0.125-0.451
	s0.122-0.055,0.167-0.024c0.046,0.03,0.058,0.094,0.051,0.23c-0.016,0.323,0.223,0.255,0.298,0.316
	C14.648,6.704,14.625,6.792,14.572,6.81z"/>
<path id="hair" fill-rule="evenodd" clip-rule="evenodd" fill="#F7DD7F" d="M13.026,5.513c0.14,0.653,0.628,1.057,0.628,1.057
	s0.021,0-0.015-0.107c-0.02-0.058-0.123-0.23-0.123-0.459c0.049-0.241,0.119-0.428,0.479-0.443c0.107,0.015,0.516-0.016,0.75,0.25
	c0,0,0.013-0.115,0.069-0.456c0.016-0.092-0.047-0.442-0.069-0.716c-0.033-0.406,0.125-0.406,0.266-0.359s1.656,0.562,2.12,0.377
	c-0.363-0.22-0.144-0.332-0.103-0.373c0.084-0.083,0.308,0.422,0.877,0.311c-0.383-0.358-0.309-0.604,0.033-0.388
	c0.524,0.19,0.692,0.145,1.213,0.114c-0.171-0.158-0.149-0.181-0.237-0.285c0.203-0.001,0.34,0.036,0.386-0.012
	c0.012-0.014-0.16-0.127-0.362-0.407c-0.199-0.276-0.493-0.778-0.566-0.857c-0.057-0.07-0.229-0.33-0.429-0.536
	c-0.159-0.165-0.334-0.274-0.49-0.383c-0.116-0.081-0.467-0.233-0.812-0.322c-0.284-0.073-0.582-0.092-0.582-0.092
	c-0.8-0.081-1.361,0.188-1.639,0.368c-0.312,0.201-0.628,0.444-1.011,0.995c-0.196,0.282-0.304,0.419-0.443,1.072
	C12.826,4.513,12.886,4.86,13.026,5.513z M13.36,3.479c0.112-0.172-0.098,0.392-0.14,0.716c-0.045,0.348-0.046,0.656-0.065,0.563
	C13.042,4.253,13.149,3.805,13.36,3.479z"/>
</svg>
