<?xml version="1.0" encoding="utf-8"?>
<!-- Generator: Adobe Illustrator 16.0.4, SVG Export Plug-In . SVG Version: 6.00 Build 0)  -->
<!DOCTYPE svg PUBLIC "-//W3C//DTD SVG 1.1//EN" "http://www.w3.org/Graphics/SVG/1.1/DTD/svg11.dtd" [
	<!ENTITY ns_flows "http://ns.adobe.com/Flows/1.0/">
	<!ENTITY ns_extend "http://ns.adobe.com/Extensibility/1.0/">
	<!ENTITY ns_ai "http://ns.adobe.com/AdobeIllustrator/10.0/">
	<!ENTITY ns_graphs "http://ns.adobe.com/Graphs/1.0/">
]>
<svg version="1.1" id="Ebene_1" xmlns:x="&ns_extend;" xmlns:i="&ns_ai;" xmlns:graph="&ns_graphs;"
	 xmlns="http://www.w3.org/2000/svg" xmlns:xlink="http://www.w3.org/1999/xlink" xmlns:a="http://ns.adobe.com/AdobeSVGViewerExtensions/3.0/"
	 x="0px" y="0px" width="30.8px" height="53.2px" viewBox="0 0 30.8 53.2" style="enable-background:new 0 0 30.8 53.2;"
	 xml:space="preserve">
<style type="text/css">
<![CDATA[
	.st0{fill:#1A1A18;}
	.st1{fill-rule:evenodd;clip-rule:evenodd;fill:#1A1A18;}
	.st2{fill:#FBCDAA;}
	.st3{fill-rule:evenodd;clip-rule:evenodd;fill:#FBCDAA;}
	.st4{fill:#0068B4;}
	.st5{fill-rule:evenodd;clip-rule:evenodd;fill:#FFFFFF;}
	.st6{fill-rule:evenodd;clip-rule:evenodd;fill:#0068B4;}
]]>
</style>
<path class="st1" d="M30.11,23.52l-0.78-1.01l-1.57-1.25l-0.63-0.71l-1.41-2.11l-1.17-1.71c0,0-1.36-2.07-1.64-2.46
	s-0.58-0.84-0.58-0.84s0.16-0.17,0.17-0.25s-0.26-0.45-0.64-0.89s-0.51-0.58-0.99-1.15c-0.47-0.57-1.15-1.43-1.5-1.77
	c-0.35-0.34-0.92-0.88-1.09-1.03c-0.17-0.15-0.6-0.34-0.73-0.41c-0.13-0.07-0.5-0.12-0.88-0.16C16.37,7.74,15.4,7.7,15.4,7.7
	l-0.41,0.03l-0.11-0.8l0.07-0.55l0.27-0.81l0.11-0.6l0-0.54l0.12-0.17l0.16-0.22l-0.27-0.54l0.05-0.44l0.21-0.11l-0.92-1.46
	L13.9,0.83l-0.37,0.06l-0.27-0.27L12.08,0.4l-0.05-0.11l-1.01,0.38l-0.67,0.18l-0.11,0.33L9.48,1.29L9.27,1.67L8.85,2.16L8.49,3.03
	l0.22,0.71L8.64,4.44l0.53,0.87l0.36,0.84c0,0,0.89,1.74,1.02,1.96c0.12,0.23,0.39,0.57,0.45,0.63c0.06,0.06,0.12,0.1,0.25,0.14
	C11.39,8.94,11.62,9,11.62,9l-0.15,0.08l-0.28,0.21L10.47,9.9c0,0-0.39,0.37-0.56,0.59c-0.17,0.22-0.33,0.44-0.45,0.73
	c-0.12,0.29-0.23,1.02-0.28,1.41c-0.05,0.38-0.23,1.54-0.3,1.83c-0.11,0.42-0.24,1.2-0.35,1.52c-0.15,0.42-0.43,1.12-0.42,1.17
	c0.01,0.05,0.07,0.06,0.07,0.06l-0.01,0.02l-0.75,0.94l-0.57,0.79L6.36,19.6l-1.25,1.54L2.92,23.4c0,0-0.42,0.07-0.69,0.17
	c-0.27,0.1-0.59,0.33-0.8,0.48c-0.2,0.15-0.54,0.45-0.65,0.65c-0.11,0.2-0.26,0.64-0.28,0.78c-0.02,0.14-0.05,0.32-0.03,0.4
	c0.01,0.08,0.14,0.22,0.16,0.26c0.02,0.04,0.21,0.12,0.39,0.13c0.06,0,0.14,0.16,0.2,0.19s0.16-0.06,0.22-0.01
	c0.07,0.05,0.2,0.24,0.3,0.28c0.1,0.04,0.24,0.13,0.37,0.13s0.23-0.11,0.39-0.17c0.17-0.05,0.51-0.31,0.51-0.31S3.4,26.2,3.65,26
	c0.24-0.19,0.42-0.36,0.57-0.59c0.16-0.24,0.39-0.76,0.39-0.76s1.57-1.39,1.99-1.73s1.42-1.11,1.88-1.5s0.93-0.81,1.21-1.09
	c0.28-0.28,1.12-1.39,1.12-1.39l0.77,0.32l0.47-1.07c0,0,0.02,0,0.06,0.06s0.25,0.81,0.38,1.44s0.34,1.73,0.38,2.03
	s0.08,0.53,0.08,0.53s-0.14,0.11-0.25,0.27s-0.15,0.29-0.06,0.48c0.09,0.19,0.1,0.2,0.03,0.25c-0.07,0.05-0.31,0.2-0.42,0.36
	c-0.12,0.16-0.65,1.14-0.8,1.44c-0.15,0.3-0.39,0.91-0.75,1.77s-1.08,2.62-1.34,3.34s-0.93,2.53-0.98,2.73
	c-0.05,0.19-0.14,0.2,0.08,0.29c0.15,0.05,0.34,0.12,0.34,0.12s-0.15,0.84-0.16,1.18c-0.01,0.39,0.08,0.84,0.15,1.12
	c0.07,0.28,0.21,0.65,0.2,0.78c-0.01,0.13-0.2,0.56-0.17,1.08c0.03,0.57,0.21,1.14,0.37,1.37c0.09,0.14,0.2,0.21,0.25,0.27
	c0.05,0.06,0.08,0.34,0.19,0.81s0.47,1.7,0.47,1.7c0.13,0.53,0.27,1.04,0.55,2.06c0.19,0.69,0.25,1.07,0.28,1.1
	c0.01,0.02-0.25,0.03-0.28,0.15c-0.04,0.12-0.01,0.43-0.01,0.43s-0.57,0.12-0.89,0.23c-0.32,0.11-1.34,0.4-1.71,0.58
	c-0.36,0.17-0.7,0.33-0.92,0.53c-0.17,0.16-0.13,0.46-0.03,0.7c0.11,0.24,0.29,0.37,0.53,0.43s0.41,0.1,0.41,0.1l0.46,0.1
	c0,0,0,0.16,0.06,0.21s0.34,0.05,0.44,0.05s0.17-0.18,0.17-0.18l0.62,0.05l1.45,0.19c0,0,0.01,0.23,0.09,0.25s0.27,0.02,0.36,0.02
	s0.21-0.24,0.21-0.24l1.15,0.08c0,0,0.1,0.21,0.17,0.23s0.21,0.01,0.28-0.03s0.14-0.24,0.14-0.24s0.41-0.11,0.52-0.16
	c0.1-0.04-0.02-0.14-0.01-0.25s0.17-0.59,0.19-0.76c0.02-0.17,0.01-0.59-0.04-0.86c-0.05-0.26-0.27-0.62-0.3-0.68
	c-0.03-0.06-0.1-0.64-0.11-0.85c-0.01-0.2-0.07-0.41-0.1-0.81c-0.03-0.39-0.2-3.3-0.2-3.3s-0.04-0.6-0.12-0.95
	c-0.09-0.35-0.38-0.89-0.38-0.89s-0.15-0.31-0.17-0.37c0.02-0.06,0.04-0.27,0.09-0.42c0.04-0.15,0.08-0.17,0.08-0.45
	c0-0.28-0.15-0.91-0.24-1.15c-0.11-0.31-0.27-0.49-0.27-0.49s0.11-0.47,0.25-0.71s0.72-0.94,0.72-0.94L14,34.45
	c0,0,0.26,0.05,0.37,0.05c0.11-0.01,0.04-0.22,0.1-0.2c0.07,0.03,0.1,0.12,0.16,0.22c0.05,0.11,0.2,0.84,0.2,0.84l0.19,0.89
	c0,0,0.18,0.82,0.24,0.96s0.11,0.33,0.09,0.47c-0.02,0.14-0.05,0.27-0.05,0.42c0.01,0.16,0.05,0.69,0.13,0.8s0.08,0.38,0.11,0.88
	s0.28,2.41,0.45,3.52s0.43,2.27,0.43,2.27l0.22,1.21c0,0-0.07,0.37-0.18,0.67c-0.11,0.29,0.01,0.66,0.01,0.66s-0.33,1.07-0.41,1.44
	c-0.07,0.37-0.36,1.8-0.38,2s-0.06,0.55,0.04,0.69s0.39,0.34,0.39,0.34s0.11,0.2,0.14,0.26s0.28,0.06,0.36,0.05s0.13-0.18,0.13-0.18
	l1.15-0.01c0,0,0.08,0.11,0.17,0.18c0.08,0.07,0.32,0.04,0.41-0.03s0.12-0.21,0.12-0.21s0.54-0.51,0.67-0.75s0.22-0.75,0.23-0.95
	c0.01-0.28-0.01-0.45-0.01-0.53s0.1-0.49,0.13-0.75s-0.02-0.81-0.03-1.02c-0.01-0.21-0.07-0.35-0.08-0.46
	c0-0.12,0.15-0.74,0.14-0.92c-0.01-0.18-0.16-0.55-0.16-0.55s-0.11-0.62-0.12-1.01c-0.01-0.39,0.07-2.13,0.07-2.13l0.07-2.46
	c0,0-0.13-1.66-0.23-1.96c-0.1-0.29-0.3-0.68-0.3-0.68s0.15-0.9,0.07-1.22c-0.08-0.33-0.3-0.46-0.3-0.46s0.15-0.48,0.3-0.82
	c0.15-0.34,0.68-0.91,0.68-0.91s0.29,0.08,0.5,0.06c0.22-0.03,0.43-0.09,0.53-0.19c0.1-0.1,0.22-0.88,0.27-1.3
	c0.04-0.42,0.23-1.85,0.24-2.55s0.24-3.64,0.29-4.07c0.05-0.43,0.29-1.43,0.33-1.69c0.03-0.26,0.04-0.7,0.02-0.84
	c-0.05-0.55-0.23-0.9-0.23-0.96c-0.01-0.06,0.12-0.2,0.12-0.34c0.01-0.14-0.01-0.57-0.05-0.76c-0.04-0.19-0.17-0.67-0.17-0.67
	l-0.08-0.52l-0.3-2.26l-0.33-1.62l-0.26-0.76l0.14,0.16l1.27,1.27l2.72,2.93l1.16,1.35l0.49,1.4l0.29,0.4l0.62,0.57l0.7,0.58
	l0.6,0.04l0.07-0.1l0.57,0.37l0.32-0.09l0.32-0.25l0.33-0.19l0.11-0.45L30.11,23.52z"/>
<path id="skin-face" class="st2" d="M14.89,5.72c0,0-0.18-0.03-0.23-0.08c-0.05-0.04,0.13-0.4,0.24-0.47s0.07-0.18,0.07-0.18
	s0.01-0.26-0.11-0.22s-0.58,0.6-0.64,0.6s-0.86-1.19-0.86-1.19s-0.18-0.56-0.32-0.65s-1.18-0.49-1.18-0.49s-0.37,0.13-0.42,0.13
	c-0.05,0-0.04-0.13-0.12-0.13c-0.07,0-0.18-0.03-0.27,0c-0.09,0.04-0.92,0.56-1.01,0.66C9.97,3.8,9.72,4.34,9.69,4.45
	C9.66,4.57,9.74,4.72,9.79,4.79c0.05,0.07-0.03,0.65,0,0.82s0.27,0.81,0.36,1.02c0.09,0.21,0.69,1.29,0.69,1.29s0.33,0.44,0.4,0.51
	s0.27,0.09,0.27,0.09s0.3,0.01,0.45,0c0.15-0.01,0.15-0.03,0.37-0.11s0.9-0.62,1.05-0.74c0.15-0.12,0.21-0.38,0.21-0.38
	s0.04-0.05,0.11-0.05s0.21,0.16,0.21,0.16s-0.14,0.3-0.21,0.38s-1.09,1.16-1.09,1.16l-0.25,0.34l0.14,0.54l0.55,1.24l0.38,0.78
	l0.43-1.4l0.66-2.22l-0.05-1.17l-0.07-0.77l0.48-0.38L14.89,5.72z"/>
<path class="st1" d="M11.3,7.14l0.18,0.05l0.06,0.1L11.3,7.4l0.06,0.1l0.36,0.1l0.12-0.06l0.12-0.32l-0.12,0.06l0.48-0.22L12.44,7
	l0.12-0.06L11.72,6.9c0,0-0.73,0.11-0.78,0.13c-0.04,0.03-0.03,0.04,0.06,0.11S11.3,7.14,11.3,7.14L11.3,7.14z"/>
<polygon class="st1" points="12.15,6.24 11.83,6.14 11.79,6.31 12.05,6.3 12.15,6.24 "/>
<path class="st1" d="M12.73,4.83c0.07-0.07-0.11-0.33-0.11-0.33s0.15-0.11,0.31-0.12s0.38,0.18,0.38,0.18l-0.05-0.11
	c0,0-0.25-0.22-0.38-0.22c-0.13,0-0.48,0.11-0.48,0.11l-0.43,0.22l0.05,0.11c0,0,0.16,0.25,0.3,0.29S12.62,4.94,12.73,4.83z"/>
<path class="st1" d="M10.24,4.53c0.08,0,0.25,0.11,0.25,0.11s-0.14,0.18-0.05,0.28c0.08,0.1,0.21,0.17,0.28,0.16
	c0.08-0.01,0.22-0.18,0.22-0.18l0.1-0.01l0.16,0.16l0.05,0.42l0.01-0.62l-0.08-0.15l-0.16-0.18c0,0-0.08-0.08-0.25-0.11
	C10.65,4.4,10.3,4.37,10.3,4.37s-0.12,0.06-0.21,0.1c-0.1,0.06,0.01,0.06,0.01,0.06L10.24,4.53C10.24,4.53,10.16,4.53,10.24,4.53z"
	/>
<path id="skin-arm-l" class="st2" d="M20.78,14.8c0.33-0.28,0.5-0.42,0.75-0.66s0.43-0.44,0.43-0.44l0.71,0.89l4.51,6.71l0.32,0.39
	l0.23,0.17l1.21,0.88l0.76,0.9l0.18,0.94l-0.2,0.14l-0.15-0.15l-0.14-0.5l-0.09-0.12l0.13,0.76l0.02,0.29l-0.11,0.09l-0.2-0.1
	l-0.32-0.94l-0.23-0.47l-0.07-0.03l-0.14-0.05l-0.41-0.04l-0.09,0.16l0.12,0.32l0.35,0.51l0.04,0.27l-0.24,0.02l-0.55-0.48
	l-0.65-0.63l-0.31-0.84l-0.16-0.43l-0.17-0.31l-3.7-4.09l-1.45-1.48l-0.98-1.12C20.17,15.34,20.45,15.08,20.78,14.8z"/>
<path id="skin-arm-r" class="st3" d="M1.17,24.87c0,0,0.29-0.31,0.44-0.44s0.5-0.4,0.72-0.48c0.23-0.08,0.69-0.15,0.69-0.15
	l0.42-0.41l1.06-1.03l0.01,0l0.99-1.08l1.58-1.97l0.74-0.99l0.71-0.87l0.78,0.67l0.38,0.29l0.61,0.39l-0.37,0.56
	c0,0-0.57,0.67-0.78,0.88s-0.52,0.47-0.52,0.47l-4.32,3.59l-0.19,0.28c0,0-0.05,0.17-0.14,0.37c-0.1,0.2-0.36,0.5-0.36,0.5
	s-0.5,0.3-0.57,0.34C2.98,25.83,3,25.55,2.92,25.42c-0.08-0.13-0.48-0.23-0.49-0.23c-0.01,0,0.34-0.17,0.34-0.17l0.63-0.36
	l-0.21-0.1l-0.06-0.03l-0.22,0.04l-0.33,0.15L1.9,24.78c0,0-0.34,0.28-0.48,0.36c-0.14,0.07-0.28,0.04-0.36,0.04
	C0.98,25.17,1.17,24.87,1.17,24.87z"/>
<path id="skin-arm-r-3" class="st2" d="M1.18,25.84c0.09-0.01,0.6-0.25,0.6-0.25s0.16-0.23,0.17-0.28c0.01-0.05-0.07-0.11-0.07-0.11
	s-0.29,0.11-0.43,0.18c-0.14,0.07-0.2,0.02-0.31,0.06c-0.11,0.04-0.16,0.09-0.17,0.18s0.03,0.14,0.03,0.14S1.09,25.84,1.18,25.84z"
	/>
<path id="skin-arm-r-2" class="st2" d="M1.93,26.05c0.12-0.04,0.3-0.18,0.3-0.18l0.06-0.14c0,0-0.05-0.05-0.09-0.1
	c-0.04-0.05-0.17-0.05-0.17-0.05l-0.17,0.17l-0.27,0.13l-0.1,0.08c0,0-0.04,0.02,0.02,0.1s0.08,0.06,0.08,0.06
	S1.81,26.09,1.93,26.05z"/>
<path id="skin-arm-r-1" class="st2" d="M2.08,26.15c0,0,0.16-0.07,0.25-0.13s0.17-0.19,0.17-0.19l0.16,0c0,0,0.07,0.13,0.02,0.24
	c-0.05,0.12-0.24,0.21-0.24,0.21s-0.21,0.08-0.32,0.07c-0.1-0.01-0.15-0.1-0.15-0.1l0.04-0.08L2.08,26.15z"/>
<polygon class="st5" points="17.69,52.07 17.23,51.88 16.66,52.03 16.91,52.26 17.55,52.25 "/>
<path id="skin-leg-l" class="st2" d="M15.98,37.11c0,0,0.71-0.01,1.11-0.06s1.19-0.28,1.19-0.28s0.2-0.65,0.32-0.96
	c0.13-0.31,0.56-0.84,0.56-0.84s-1.11-0.23-1.65-0.28s-2.33-0.11-2.33-0.11s0.01,0.31,0.07,0.67c0.07,0.35,0.17,0.88,0.22,1.08
	s0.19,0.56,0.27,0.66S15.98,37.11,15.98,37.11z"/>
<path class="st1" d="M16.19,35.97c0.09-0.02,0.14-0.2,0.09-0.25s-0.46-0.06-0.46-0.06s-0.05,0.16,0.02,0.25
	C15.92,36,16.09,35.98,16.19,35.97z"/>
<path id="player-sock-l" class="st6" d="M15.95,38.86c0.12,0.06,0.42,0.04,0.51,0.11c0.1,0.07,0.08,0.15,0,0.21
	c-0.09,0.05-0.47,0.24-0.48,0.34c0,0.09,0.06,0.94,0.12,1.34c0.05,0.4,0.27,1.99,0.37,2.57c0.05,0.34,0.5,2.64,0.55,2.89
	c0.04,0.25,0.15,0.65,0.14,0.86s-0.04,0.5-0.03,0.62c0.01,0.12,0.01,0.28,0.1,0.31s0.59-0.5,0.59-0.5l0.41,0.22l0.21,0.61l0.31-0.1
	l0.14-0.64l-0.11-0.49l0.25-0.29l-0.03-0.8l-0.04-0.65c0,0,0.15-3.72,0.12-4.34c-0.02-0.62-0.24-1.76-0.27-1.88s-0.12-0.32-0.2-0.31
	s-0.12,0.11-0.21,0.1c-0.09-0.01-0.25-0.08-0.3-0.11s-0.05-0.14,0-0.21c0.06-0.08,0.35-0.24,0.42-0.41
	c0.07-0.16,0.04-0.68,0.01-0.82s-0.14-0.24-0.23-0.25c-0.09-0.01-0.21,0.02-0.38,0.05c-0.17,0.03-0.8,0.21-1.03,0.21
	c-0.23,0.01-0.94,0.01-1.01,0.07c-0.06,0.06-0.11,0.3-0.11,0.48s-0.01,0.46,0.05,0.55C15.88,38.66,15.83,38.8,15.95,38.86z"/>
<path id="player-jersey" class="st6" d="M18.03,14.26c0.34,0.38,0.78,0.9,1.01,1.14c0.09,0.1,0.1,0.11,0.32-0.04
	s0.89-0.69,0.89-0.69l1.08-0.94l0.52-0.55l-0.7-0.98c-0.87-1.09-1.1-1.4-1.35-1.7c-0.27-0.31-0.62-0.72-0.87-0.97
	s-0.97-0.9-1.07-0.98s-0.35-0.24-0.53-0.28s-1.05-0.15-1.47-0.16C15.44,8.1,14.9,8.18,14.9,8.18l-0.14,0.54l-0.23,0.73l-0.27,0.96
	l-0.71,2.21l-0.1-0.04l-0.61-1.08l-0.58-1.15l-0.35-0.94l-0.38,0.23c0,0-0.45,0.34-0.63,0.49c-0.19,0.15-0.52,0.43-0.63,0.59
	c-0.12,0.16-0.37,0.51-0.41,0.69s-0.15,0.67-0.15,0.67s-0.15,0.99-0.21,1.41s-0.16,0.86-0.22,1.18c-0.06,0.32-0.23,1.1-0.31,1.36
	c-0.08,0.26-0.31,1.01-0.31,1.01s0.18,0.14,0.5,0.37s0.66,0.46,1.1,0.74c0.44,0.27,1.08,0.49,1.08,0.49l0.28-0.82l-0.22-0.93
	c0,0-0.31-1.76-0.33-1.88c-0.03-0.12-0.01-0.28,0.03-0.33s0.12-0.18,0.18-0.15s0.54,1.81,0.67,2.17c0.13,0.36,0.45,0.97,0.61,1.43
	c0.16,0.46,0.41,1.75,0.48,2.12c0.08,0.36,0.16,1.02,0.22,1.33s0.08,0.52,0.11,0.62c0.08,0.06,0.28,0.08,0.58,0.12
	s1.7,0.24,2.22,0.25c0.62,0.02,1.95-0.06,2.34-0.11c0.4-0.05,1.25-0.2,1.47-0.31c0.22-0.1,0.34-0.29,0.59-0.31
	c0.24-0.01,0.46,0.04,0.52-0.06s0.07-0.25,0.03-0.52c-0.05-0.38-0.24-1.86-0.35-2.53s-0.54-2.05-0.63-2.3
	c-0.09-0.24-0.12-0.4-0.43-0.28s-0.56,0.09-0.68,0s-0.44-0.72-0.61-0.89s-0.38-0.21-0.54-0.28s-0.15-0.45-0.22-0.67
	s-0.7-0.76-0.7-0.86s0.16,0,0.3,0.02S17.69,13.89,18.03,14.26z"/>
<path id="player-shorts" class="st5" d="M14.02,33.98c0.04,0,0.08-0.12,0.11-0.28c0.09-0.44,0.15-1.15,0.15-1.15
	s0.08-0.58,0.15-1.22c0.07-0.64,0.2-2.12,0.2-2.12l-0.06-0.59c0,0-0.88-0.65-0.98-0.72s-0.29-0.11-0.32-0.2s0.54-0.05,0.63-0.02
	c0.09,0.03,0.36,0.21,0.5,0.29c0.14,0.08,0.29,0.21,0.37,0.22c0.07,0.01-0.18-0.81-0.16-0.97c0.02-0.16,0.35-0.58,0.46-0.57
	s-0.02,1.22,0.04,1.27s0.66,0.08,0.71,0.12c0.05,0.04-0.06,0.18-0.13,0.29s-0.4,0.47-0.46,0.54c-0.09,0.12-0.3,0.18-0.33,0.3
	s-0.13,2.13-0.13,2.13l-0.09,2.62l0.11,0.19l2.71,0.2l1.02,0.17l1.66,0.26l0.25-0.08c0,0,0.07-0.31,0.16-0.83s0.23-2.14,0.27-2.73
	s0.17-2.61,0.17-2.61l0.1-1.17l-0.01-0.21c0,0-0.61,0.15-0.69,0.15c-0.08,0-0.16-0.1-0.18-0.21c-0.03-0.11,0.06-0.08,0.38-0.17
	c0.32-0.09,0.37-0.21,0.48-0.39c0.11-0.19,0.28-0.8,0.3-1.04c0.02-0.25,0.09-0.35,0.05-0.9c-0.04-0.55-0.16-0.86-0.27-0.94
	s-0.86,0.07-0.99,0.01c-0.13-0.06-0.53-0.23-0.56-0.32c-0.03-0.09,0.97-0.23,1.17-0.23c0.21,0,0.36,0.03,0.47,0.03
	c0.12,0,0.08-0.26,0.09-0.4c0.01-0.14-0.03-0.37-0.13-0.39c-0.1-0.02-0.41-0.01-0.5-0.02c-0.09-0.01-0.29,0.15-0.46,0.21
	s-1.1,0.32-1.46,0.36s-1.49,0.13-2.05,0.14s-1.94-0.11-2.26-0.16c-0.32-0.05-1.16-0.23-1.3-0.18c-0.14,0.05-0.21,0.22-0.17,0.32
	c0.04,0.09,0.53,0.12,0.69,0.13c0.1,0,0.2,0.07,0.2,0.15s-0.33,0.12-0.6,0.18c-0.27,0.07-0.57,0.13-0.74,0.39
	c-0.17,0.27-0.72,1.13-1.03,1.86s-0.72,1.73-0.94,2.26c-0.23,0.53-0.87,2.16-1.1,2.81s-0.56,1.66-0.61,1.78s-0.14,0.25,0,0.3
	c0.14,0.05,0.31,0.08,0.56,0.14s1.95,0.44,2.58,0.58S13.87,33.97,14.02,33.98z"/>
<path class="st1" d="M18.67,19.17c-0.19,0.08-0.88,0.21-1.09,0.31s-0.66,0.78-0.95,0.88c-0.29,0.1-0.52,0.04-0.55,0.04
	c-0.03,0,0.67-0.89,0.91-1.04c0.24-0.15,1.01-0.62,1.25-0.68c0.24-0.06,1.1-0.46,1.17-0.38s-0.02,0.41-0.09,0.5
	C19.25,18.89,18.67,19.17,18.67,19.17S18.86,19.1,18.67,19.17z"/>
<polygon class="st5" points="10.82,47.83 10.84,47.64 11.02,47.66 11.4,47.69 11.86,47.88 11.15,47.89 10.97,47.88 10.82,47.83 "/>
<path id="player-sock-r" class="st4" d="M11.09,43.81c-0.16-0.59-0.36-1.3-0.52-1.86s-0.36-1.39-0.46-1.78
	c-0.1-0.39-0.23-0.82-0.23-0.92c0.01-0.1,0.09-0.06,0.19-0.14c0.1-0.08,0.07-0.29,0-0.41c-0.07-0.11-0.28,0.06-0.46-0.08
	c-0.18-0.15-0.35-0.82-0.35-0.82s0-0.32,0.02-0.53c0.02-0.21,0.12-0.4,0.19-0.42c0.08-0.02,1.03,0.05,1.36-0.02
	c0.33-0.07,0.95-0.4,1.12-0.41c0.17-0.01,0.29,0.07,0.36,0.24c0.07,0.16,0.15,0.56,0.15,0.88c0.01,0.32-0.03,0.65-0.1,0.75
	s-0.58,0.12-0.64,0.27s-0.04,0.3,0.11,0.35s0.46-0.17,0.55-0.13s0.46,0.65,0.59,1.25c0.13,0.61,0.24,4.05,0.24,4.05l0.13,1.23
	L12,45.84l-0.57-0.52l-0.1-0.53C11.33,44.78,11.23,44.34,11.09,43.81z"/>
<path id="skin-leg-r" class="st2" d="M12.3,35.1c-0.06,0.12-0.28,0.65-0.34,0.75c-0.06,0.1-0.93,0.45-1.2,0.51
	c-0.26,0.06-1.26,0.06-1.29-0.02s-0.19-0.6-0.23-0.75c-0.08-0.27-0.15-0.57-0.16-0.83c-0.01-0.26,0.11-1.07,0.06-0.82
	c-0.06,0.25,0.13-0.52,0.13-0.52l2.72,0.61l0.89,0.24C12.88,34.27,12.36,34.99,12.3,35.1z"/>
<path class="st0" d="M9.64,35.21c-0.09-0.05-0.15-0.26-0.15-0.42c0-0.08,0-0.16,0-0.16s0.17,0.17,0.32,0.28
	c0.15,0.11,0.39,0.26,0.39,0.26S9.74,35.27,9.64,35.21z"/>
<polygon class="st1" points="11.57,6.3 11.55,6.2 11.36,6.26 11.31,6.33 11.48,6.3 "/>
<path id="hair" class="st1" d="M14.99,4.47l-0.21-0.01l-0.34,0.27l-0.18,0.18l-0.61-0.95c0,0-0.2-0.55-0.31-0.65
	s-1.38-0.54-1.38-0.54L11.6,2.84l-0.05-0.12l-0.61,0.07c0,0-0.91,0.47-1.07,0.66c-0.15,0.19-0.48,0.9-0.5,1.05
	C9.36,4.65,9.52,4.95,9.52,4.95v0.54L9.37,5.03L8.92,4.32l0.07-0.73L8.81,2.98l0.36-0.77l0.34-0.36l0.23-0.32l0.77-0.14l0.1-0.28
	l0.57-0.12l0.72-0.33l0.05,0.1l1.2,0.16l0.28,0.31l0.41-0.05l0.63,0.57l0.76,1.09l-0.12,0.05L15.03,3.5l0.23,0.46l-0.15,0.19
	L15,4.29L14.99,4.47z"/>
</svg>
