<?xml version="1.0" encoding="utf-8"?>
<!-- Generator: Adobe Illustrator 16.0.4, SVG Export Plug-In . SVG Version: 6.00 Build 0)  -->
<!DOCTYPE svg PUBLIC "-//W3C//DTD SVG 1.1//EN" "http://www.w3.org/Graphics/SVG/1.1/DTD/svg11.dtd" [
	<!ENTITY ns_flows "http://ns.adobe.com/Flows/1.0/">
	<!ENTITY ns_extend "http://ns.adobe.com/Extensibility/1.0/">
	<!ENTITY ns_ai "http://ns.adobe.com/AdobeIllustrator/10.0/">
	<!ENTITY ns_graphs "http://ns.adobe.com/Graphs/1.0/">
]>
<svg version="1.1" id="Ebene_1" xmlns:x="&ns_extend;" xmlns:i="&ns_ai;" xmlns:graph="&ns_graphs;"
	 xmlns="http://www.w3.org/2000/svg" xmlns:xlink="http://www.w3.org/1999/xlink" xmlns:a="http://ns.adobe.com/AdobeSVGViewerExtensions/3.0/"
	 x="0px" y="0px" width="30.8px" height="53.2px" viewBox="0 0 30.8 53.2" style="enable-background:new 0 0 30.8 53.2;"
	 xml:space="preserve">
<style type="text/css">
<![CDATA[
	.st0{fill:#1A1A18;}
	.st1{fill-rule:evenodd;clip-rule:evenodd;fill:#1A1A18;}
	.st2{fill:#FBCDAA;}
	.st3{fill-rule:evenodd;clip-rule:evenodd;fill:#FBCDAA;}
	.st4{fill:#0068B4;}
	.st5{fill-rule:evenodd;clip-rule:evenodd;fill:#FFFFFF;}
	.st6{fill-rule:evenodd;clip-rule:evenodd;fill:#0068B4;}
]]>
</style>
<path class="st1" d="M0.69,23.52l0.78-1.01l1.57-1.25l0.63-0.71l1.41-2.11l1.17-1.71c0,0,1.36-2.07,1.64-2.46s0.58-0.84,0.58-0.84
	s-0.16-0.17-0.17-0.25s0.26-0.45,0.64-0.89s0.51-0.58,0.99-1.15c0.47-0.57,1.15-1.43,1.5-1.77c0.35-0.34,0.92-0.88,1.09-1.03
	c0.17-0.15,0.6-0.34,0.73-0.41c0.13-0.07,0.5-0.12,0.88-0.16c0.3-0.03,1.27-0.07,1.27-0.07l0.41,0.03l0.11-0.8l-0.07-0.55
	l-0.27-0.81l-0.11-0.6l0-0.54l-0.12-0.17L15.2,4.04l0.27-0.54l-0.05-0.44l-0.21-0.11l0.92-1.46l0.78-0.66l0.37,0.06l0.27-0.27
	l1.18-0.21l0.05-0.11l1.01,0.38l0.67,0.18l0.11,0.33l0.75,0.11l0.21,0.38l0.42,0.49l0.36,0.87l-0.22,0.71l0.07,0.71l-0.53,0.87
	l-0.36,0.84c0,0-0.89,1.74-1.02,1.96c-0.12,0.23-0.39,0.57-0.45,0.63c-0.06,0.06-0.12,0.1-0.25,0.14C19.41,8.94,19.18,9,19.18,9
	l0.15,0.08l0.28,0.21l0.73,0.61c0,0,0.39,0.37,0.56,0.59c0.17,0.22,0.33,0.44,0.45,0.73c0.12,0.29,0.23,1.02,0.28,1.41
	c0.05,0.38,0.23,1.54,0.3,1.83c0.11,0.42,0.24,1.2,0.35,1.52c0.15,0.42,0.43,1.12,0.42,1.17c-0.01,0.05-0.07,0.06-0.07,0.06
	l0.01,0.02l0.75,0.94l0.57,0.79l0.48,0.66l1.25,1.54l2.19,2.25c0,0,0.42,0.07,0.69,0.17c0.27,0.1,0.59,0.33,0.8,0.48
	c0.2,0.15,0.54,0.45,0.65,0.65c0.11,0.2,0.26,0.64,0.28,0.78c0.02,0.14,0.05,0.32,0.03,0.4c-0.01,0.08-0.14,0.22-0.16,0.26
	c-0.02,0.04-0.21,0.12-0.39,0.13c-0.06,0-0.14,0.16-0.2,0.19s-0.16-0.06-0.22-0.01c-0.07,0.05-0.2,0.24-0.3,0.28
	c-0.1,0.04-0.24,0.13-0.37,0.13s-0.23-0.11-0.39-0.17c-0.17-0.05-0.51-0.31-0.51-0.31S27.4,26.2,27.15,26
	c-0.24-0.19-0.42-0.36-0.57-0.59c-0.16-0.24-0.39-0.76-0.39-0.76s-1.57-1.39-1.99-1.73s-1.42-1.11-1.88-1.5s-0.93-0.81-1.21-1.09
	C20.83,20.05,20,18.94,20,18.94l-0.77,0.32l-0.47-1.07c0,0-0.02,0-0.06,0.06s-0.25,0.81-0.38,1.44s-0.34,1.73-0.38,2.03
	s-0.08,0.53-0.08,0.53s0.14,0.11,0.25,0.27s0.15,0.29,0.06,0.48c-0.09,0.19-0.1,0.2-0.03,0.25c0.07,0.05,0.31,0.2,0.42,0.36
	c0.12,0.16,0.65,1.14,0.8,1.44c0.15,0.3,0.39,0.91,0.75,1.77s1.08,2.62,1.34,3.34s0.93,2.53,0.98,2.73c0.05,0.19,0.14,0.2-0.08,0.29
	c-0.15,0.05-0.34,0.12-0.34,0.12s0.15,0.84,0.16,1.18c0.01,0.39-0.08,0.84-0.15,1.12c-0.07,0.28-0.21,0.65-0.2,0.78
	c0.01,0.13,0.2,0.56,0.17,1.08c-0.03,0.57-0.21,1.14-0.37,1.37c-0.09,0.14-0.2,0.21-0.25,0.27c-0.05,0.06-0.08,0.34-0.19,0.81
	s-0.47,1.7-0.47,1.7c-0.13,0.53-0.27,1.04-0.55,2.06c-0.19,0.69-0.25,1.07-0.28,1.1c-0.01,0.02,0.25,0.03,0.28,0.15
	c0.04,0.12,0.01,0.43,0.01,0.43s0.57,0.12,0.89,0.23c0.32,0.11,1.34,0.4,1.71,0.58c0.36,0.17,0.7,0.33,0.92,0.53
	c0.17,0.16,0.13,0.46,0.03,0.7c-0.11,0.24-0.29,0.37-0.53,0.43s-0.41,0.1-0.41,0.1l-0.46,0.1c0,0,0,0.16-0.06,0.21
	s-0.34,0.05-0.44,0.05s-0.17-0.18-0.17-0.18l-0.62,0.05l-1.45,0.19c0,0-0.01,0.23-0.09,0.25s-0.27,0.02-0.36,0.02
	s-0.21-0.24-0.21-0.24l-1.15,0.08c0,0-0.1,0.21-0.17,0.23s-0.21,0.01-0.28-0.03s-0.14-0.24-0.14-0.24s-0.41-0.11-0.52-0.16
	c-0.1-0.04,0.02-0.14,0.01-0.25s-0.17-0.59-0.19-0.76c-0.02-0.17-0.01-0.59,0.04-0.86c0.05-0.26,0.27-0.62,0.3-0.68
	c0.03-0.06,0.1-0.64,0.11-0.85c0.01-0.2,0.07-0.41,0.1-0.81c0.03-0.39,0.2-3.3,0.2-3.3s0.04-0.6,0.12-0.95
	c0.09-0.35,0.38-0.89,0.38-0.89s0.15-0.31,0.17-0.37c-0.02-0.06-0.04-0.27-0.09-0.42c-0.04-0.15-0.08-0.17-0.08-0.45
	c0-0.28,0.15-0.91,0.24-1.15c0.11-0.31,0.27-0.49,0.27-0.49s-0.11-0.47-0.25-0.71s-0.72-0.94-0.72-0.94l-0.53,0.08
	c0,0-0.26,0.05-0.37,0.05c-0.11-0.01-0.04-0.22-0.1-0.2c-0.07,0.03-0.1,0.12-0.16,0.22c-0.05,0.11-0.2,0.84-0.2,0.84l-0.19,0.89
	c0,0-0.18,0.82-0.24,0.96s-0.11,0.33-0.09,0.47c0.02,0.14,0.05,0.27,0.05,0.42c-0.01,0.16-0.05,0.69-0.13,0.8s-0.08,0.38-0.11,0.88
	s-0.28,2.41-0.45,3.52s-0.43,2.27-0.43,2.27l-0.22,1.21c0,0,0.07,0.37,0.18,0.67c0.11,0.29-0.01,0.66-0.01,0.66s0.33,1.07,0.41,1.44
	c0.07,0.37,0.36,1.8,0.38,2s0.06,0.55-0.04,0.69s-0.39,0.34-0.39,0.34s-0.11,0.2-0.14,0.26s-0.28,0.06-0.36,0.05
	s-0.13-0.18-0.13-0.18l-1.15-0.01c0,0-0.08,0.11-0.17,0.18c-0.08,0.07-0.32,0.04-0.41-0.03s-0.12-0.21-0.12-0.21
	s-0.54-0.51-0.67-0.75s-0.22-0.75-0.23-0.95c-0.01-0.28,0.01-0.45,0.01-0.53s-0.1-0.49-0.13-0.75s0.02-0.81,0.03-1.02
	c0.01-0.21,0.07-0.35,0.08-0.46c0-0.12-0.15-0.74-0.14-0.92c0.01-0.18,0.16-0.55,0.16-0.55s0.11-0.62,0.12-1.01
	c0.01-0.39-0.07-2.13-0.07-2.13l-0.07-2.46c0,0,0.13-1.66,0.23-1.96c0.1-0.29,0.3-0.68,0.3-0.68s-0.15-0.9-0.07-1.22
	c0.08-0.33,0.3-0.46,0.3-0.46s-0.15-0.48-0.3-0.82c-0.15-0.34-0.68-0.91-0.68-0.91s-0.29,0.08-0.5,0.06
	c-0.22-0.03-0.43-0.09-0.53-0.19c-0.1-0.1-0.22-0.88-0.27-1.3c-0.04-0.42-0.23-1.85-0.24-2.55s-0.24-3.64-0.29-4.07
	c-0.05-0.43-0.29-1.43-0.33-1.69c-0.03-0.26-0.04-0.7-0.02-0.84c0.05-0.55,0.23-0.9,0.23-0.96c0.01-0.06-0.12-0.2-0.12-0.34
	c-0.01-0.14,0.01-0.57,0.05-0.76c0.04-0.19,0.17-0.67,0.17-0.67l0.08-0.52l0.3-2.26l0.33-1.62l0.26-0.76l-0.14,0.16l-1.27,1.27
	l-2.72,2.93l-1.16,1.35l-0.49,1.4l-0.29,0.4l-0.62,0.57l-0.7,0.58l-0.6,0.04l-0.07-0.1l-0.57,0.37l-0.32-0.09l-0.32-0.25l-0.33-0.19
	l-0.11-0.45L0.69,23.52z"/>
<path id="skin-face" class="st2" d="M15.91,5.72c0,0,0.18-0.03,0.23-0.08c0.05-0.04-0.13-0.4-0.24-0.47s-0.07-0.18-0.07-0.18
	s-0.01-0.26,0.11-0.22s0.58,0.6,0.64,0.6s0.86-1.19,0.86-1.19s0.18-0.56,0.32-0.65s1.18-0.49,1.18-0.49s0.37,0.13,0.42,0.13
	c0.05,0,0.04-0.13,0.12-0.13c0.07,0,0.18-0.03,0.27,0c0.09,0.04,0.92,0.56,1.01,0.66c0.09,0.1,0.34,0.64,0.37,0.75
	c0.03,0.12-0.05,0.26-0.11,0.33c-0.05,0.07,0.03,0.65,0,0.82s-0.27,0.81-0.36,1.02c-0.09,0.21-0.69,1.29-0.69,1.29
	s-0.33,0.44-0.4,0.51s-0.27,0.09-0.27,0.09s-0.3,0.01-0.45,0c-0.15-0.01-0.15-0.03-0.37-0.11s-0.9-0.62-1.05-0.74
	c-0.15-0.12-0.21-0.38-0.21-0.38s-0.04-0.05-0.11-0.05s-0.21,0.16-0.21,0.16s0.14,0.3,0.21,0.38s1.09,1.16,1.09,1.16l0.25,0.34
	L18.3,9.79l-0.55,1.24l-0.38,0.78l-0.43-1.4l-0.66-2.22l0.05-1.17l0.07-0.77l-0.48-0.38L15.91,5.72z"/>
<path class="st1" d="M19.5,7.14l-0.18,0.05l-0.06,0.1L19.5,7.4l-0.06,0.1l-0.36,0.1l-0.12-0.06l-0.12-0.32l0.12,0.06l-0.48-0.22
	L18.36,7l-0.12-0.06l0.83-0.04c0,0,0.73,0.11,0.78,0.13c0.04,0.03,0.03,0.04-0.06,0.11S19.5,7.14,19.5,7.14L19.5,7.14z"/>
<polygon class="st1" points="18.65,6.24 18.97,6.14 19.01,6.31 18.75,6.3 18.65,6.24 "/>
<path class="st1" d="M18.07,4.83C18,4.76,18.17,4.5,18.17,4.5s-0.15-0.11-0.31-0.12s-0.38,0.18-0.38,0.18l0.05-0.11
	c0,0,0.25-0.22,0.38-0.22c0.13,0,0.48,0.11,0.48,0.11l0.43,0.22l-0.05,0.11c0,0-0.16,0.25-0.3,0.29S18.18,4.94,18.07,4.83z"/>
<path class="st1" d="M20.56,4.53c-0.08,0-0.25,0.11-0.25,0.11s0.14,0.18,0.05,0.28c-0.08,0.1-0.21,0.17-0.28,0.16
	C20,5.08,19.86,4.91,19.86,4.91l-0.1-0.01L19.6,5.06l-0.05,0.42l-0.01-0.62l0.08-0.15l0.16-0.18c0,0,0.08-0.08,0.25-0.11
	c0.13-0.02,0.49-0.05,0.49-0.05s0.12,0.06,0.21,0.1c0.1,0.06-0.01,0.06-0.01,0.06L20.56,4.53C20.56,4.53,20.64,4.53,20.56,4.53z"/>
<path id="skin-arm-r" class="st2" d="M10.02,14.8c-0.33-0.28-0.5-0.42-0.75-0.66S8.84,13.7,8.84,13.7l-0.71,0.89L3.63,21.3
	l-0.32,0.39l-0.23,0.17l-1.21,0.88l-0.76,0.9l-0.18,0.94l0.2,0.14l0.15-0.15l0.14-0.5l0.09-0.12l-0.13,0.76l-0.02,0.29l0.11,0.09
	l0.2-0.1l0.32-0.94l0.23-0.47l0.07-0.03l0.14-0.05l0.41-0.04l0.09,0.16l-0.12,0.32l-0.35,0.51l-0.04,0.27l0.24,0.02l0.55-0.48
	l0.65-0.63l0.31-0.84l0.16-0.43l0.17-0.31l3.7-4.09l1.45-1.48l0.98-1.12C10.63,15.34,10.35,15.08,10.02,14.8z"/>
<path id="skin-arm-l" class="st3" d="M29.63,24.87c0,0-0.29-0.31-0.44-0.44s-0.5-0.4-0.72-0.48c-0.23-0.08-0.69-0.15-0.69-0.15
	l-0.42-0.41l-1.06-1.03l-0.01,0l-0.99-1.08l-1.58-1.97l-0.74-0.99l-0.71-0.87l-0.78,0.67l-0.38,0.29l-0.61,0.39l0.37,0.56
	c0,0,0.57,0.67,0.78,0.88s0.52,0.47,0.52,0.47l4.32,3.59l0.19,0.28c0,0,0.05,0.17,0.14,0.37c0.1,0.2,0.36,0.5,0.36,0.5
	s0.5,0.3,0.57,0.34c0.07,0.03,0.06-0.24,0.13-0.37c0.08-0.13,0.48-0.23,0.49-0.23c0.01,0-0.34-0.17-0.34-0.17l-0.63-0.36l0.21-0.1
	l0.06-0.03l0.22,0.04l0.33,0.15l0.69,0.06c0,0,0.34,0.28,0.48,0.36c0.14,0.07,0.28,0.04,0.36,0.04
	C29.82,25.17,29.63,24.87,29.63,24.87z"/>
<path id="skin-arm-l-3" class="st2" d="M29.62,25.84c-0.09-0.01-0.6-0.25-0.6-0.25s-0.16-0.23-0.17-0.28
	c-0.01-0.05,0.07-0.11,0.07-0.11s0.29,0.11,0.43,0.18c0.14,0.07,0.2,0.02,0.31,0.06c0.11,0.04,0.16,0.09,0.17,0.18
	s-0.03,0.14-0.03,0.14S29.71,25.84,29.62,25.84z"/>
<path id="skin-arm-l-2" class="st2" d="M28.87,26.05c-0.12-0.04-0.3-0.18-0.3-0.18l-0.06-0.14c0,0,0.05-0.05,0.09-0.1
	c0.04-0.05,0.17-0.05,0.17-0.05l0.17,0.17l0.27,0.13l0.1,0.08c0,0,0.04,0.02-0.02,0.1s-0.08,0.06-0.08,0.06S28.99,26.09,28.87,26.05
	z"/>
<path id="skin-arm-l-1" class="st2" d="M28.72,26.15c0,0-0.16-0.07-0.25-0.13s-0.17-0.19-0.17-0.19l-0.16,0c0,0-0.07,0.13-0.02,0.24
	c0.05,0.12,0.24,0.21,0.24,0.21s0.21,0.08,0.32,0.07c0.1-0.01,0.15-0.1,0.15-0.1l-0.04-0.08L28.72,26.15z"/>
<polygon class="st5" points="13.11,52.07 13.57,51.88 14.14,52.03 13.89,52.26 13.25,52.25 "/>
<path id="skin-leg-r" class="st2" d="M14.82,37.11c0,0-0.71-0.01-1.11-0.06s-1.19-0.28-1.19-0.28s-0.2-0.65-0.32-0.96
	c-0.13-0.31-0.56-0.84-0.56-0.84s1.11-0.23,1.65-0.28s2.33-0.11,2.33-0.11s-0.01,0.31-0.07,0.67c-0.07,0.35-0.17,0.88-0.22,1.08
	s-0.19,0.56-0.27,0.66S14.82,37.11,14.82,37.11z"/>
<path class="st1" d="M14.61,35.97c-0.09-0.02-0.14-0.2-0.09-0.25s0.46-0.06,0.46-0.06s0.05,0.16-0.02,0.25
	C14.88,36,14.71,35.98,14.61,35.97z"/>
<path id="player-sock-r" class="st6" d="M14.85,38.86c-0.12,0.06-0.42,0.04-0.51,0.11c-0.1,0.07-0.08,0.15,0,0.21
	c0.09,0.05,0.47,0.24,0.48,0.34c0,0.09-0.06,0.94-0.12,1.34c-0.05,0.4-0.27,1.99-0.37,2.57c-0.05,0.34-0.5,2.64-0.55,2.89
	c-0.04,0.25-0.15,0.65-0.14,0.86s0.04,0.5,0.03,0.62c-0.01,0.12-0.01,0.28-0.1,0.31s-0.59-0.5-0.59-0.5l-0.41,0.22l-0.21,0.61
	l-0.31-0.1l-0.14-0.64l0.11-0.49l-0.25-0.29l0.03-0.8l0.04-0.65c0,0-0.15-3.72-0.12-4.34c0.02-0.62,0.24-1.76,0.27-1.88
	s0.12-0.32,0.2-0.31s0.12,0.11,0.21,0.1c0.09-0.01,0.25-0.08,0.3-0.11s0.05-0.14,0-0.21c-0.06-0.08-0.35-0.24-0.42-0.41
	c-0.07-0.16-0.04-0.68-0.01-0.82s0.14-0.24,0.23-0.25c0.09-0.01,0.21,0.02,0.38,0.05c0.17,0.03,0.8,0.21,1.03,0.21
	c0.23,0.01,0.94,0.01,1.01,0.07c0.06,0.06,0.11,0.3,0.11,0.48s0.01,0.46-0.05,0.55C14.92,38.66,14.97,38.8,14.85,38.86z"/>
<path id="player-jersey" class="st6" d="M12.77,14.26c-0.34,0.38-0.78,0.9-1.01,1.14c-0.09,0.1-0.1,0.11-0.32-0.04
	s-0.89-0.69-0.89-0.69l-1.08-0.94l-0.52-0.55l0.7-0.98c0.87-1.09,1.1-1.4,1.35-1.7c0.27-0.31,0.62-0.72,0.87-0.97
	s0.97-0.9,1.07-0.98s0.35-0.24,0.53-0.28s1.05-0.15,1.47-0.16c0.42-0.01,0.95,0.07,0.95,0.07l0.14,0.54l0.23,0.73l0.27,0.96
	l0.71,2.21l0.1-0.04l0.61-1.08l0.58-1.15l0.35-0.94l0.38,0.23c0,0,0.45,0.34,0.63,0.49c0.19,0.15,0.52,0.43,0.63,0.59
	c0.12,0.16,0.37,0.51,0.41,0.69s0.15,0.67,0.15,0.67s0.15,0.99,0.21,1.41s0.16,0.86,0.22,1.18c0.06,0.32,0.23,1.1,0.31,1.36
	c0.08,0.26,0.31,1.01,0.31,1.01s-0.18,0.14-0.5,0.37s-0.66,0.46-1.1,0.74c-0.44,0.27-1.08,0.49-1.08,0.49l-0.28-0.82l0.22-0.93
	c0,0,0.31-1.76,0.33-1.88c0.03-0.12,0.01-0.28-0.03-0.33s-0.12-0.18-0.18-0.15s-0.54,1.81-0.67,2.17c-0.13,0.36-0.45,0.97-0.61,1.43
	c-0.16,0.46-0.41,1.75-0.48,2.12c-0.08,0.36-0.16,1.02-0.22,1.33s-0.08,0.52-0.11,0.62c-0.08,0.06-0.28,0.08-0.58,0.12
	s-1.7,0.24-2.22,0.25c-0.62,0.02-1.95-0.06-2.34-0.11c-0.4-0.05-1.25-0.2-1.47-0.31c-0.22-0.1-0.34-0.29-0.59-0.31
	c-0.24-0.01-0.46,0.04-0.52-0.06s-0.07-0.25-0.03-0.52c0.05-0.38,0.24-1.86,0.35-2.53s0.54-2.05,0.63-2.3
	c0.09-0.24,0.12-0.4,0.43-0.28s0.56,0.09,0.68,0s0.44-0.72,0.61-0.89s0.38-0.21,0.54-0.28s0.15-0.45,0.22-0.67s0.7-0.76,0.7-0.86
	s-0.16,0-0.3,0.02S13.11,13.89,12.77,14.26z"/>
<path id="player-shorts" class="st5" d="M16.78,33.98c-0.04,0-0.08-0.12-0.11-0.28c-0.09-0.44-0.15-1.15-0.15-1.15
	s-0.08-0.58-0.15-1.22c-0.07-0.64-0.2-2.12-0.2-2.12l0.06-0.59c0,0,0.88-0.65,0.98-0.72s0.29-0.11,0.32-0.2s-0.54-0.05-0.63-0.02
	c-0.09,0.03-0.36,0.21-0.5,0.29c-0.14,0.08-0.29,0.21-0.37,0.22c-0.07,0.01,0.18-0.81,0.16-0.97c-0.02-0.16-0.35-0.58-0.46-0.57
	s0.02,1.22-0.04,1.27s-0.66,0.08-0.71,0.12c-0.05,0.04,0.06,0.18,0.13,0.29s0.4,0.47,0.46,0.54c0.09,0.12,0.3,0.18,0.33,0.3
	s0.13,2.13,0.13,2.13l0.09,2.62l-0.11,0.19l-2.71,0.2l-1.02,0.17l-1.66,0.26l-0.25-0.08c0,0-0.07-0.31-0.16-0.83
	S10,31.67,9.96,31.08s-0.17-2.61-0.17-2.61l-0.1-1.17l0.01-0.21c0,0,0.61,0.15,0.69,0.15c0.08,0,0.16-0.1,0.18-0.21
	c0.03-0.11-0.06-0.08-0.38-0.17c-0.32-0.09-0.37-0.21-0.48-0.39c-0.11-0.19-0.28-0.8-0.3-1.04c-0.02-0.25-0.09-0.35-0.05-0.9
	c0.04-0.55,0.16-0.86,0.27-0.94s0.86,0.07,0.99,0.01c0.13-0.06,0.53-0.23,0.56-0.32c0.03-0.09-0.97-0.23-1.17-0.23
	c-0.21,0-0.36,0.03-0.47,0.03c-0.12,0-0.08-0.26-0.09-0.4c-0.01-0.14,0.03-0.37,0.13-0.39c0.1-0.02,0.41-0.01,0.5-0.02
	c0.09-0.01,0.29,0.15,0.46,0.21s1.1,0.32,1.46,0.36s1.49,0.13,2.05,0.14s1.94-0.11,2.26-0.16c0.32-0.05,1.16-0.23,1.3-0.18
	c0.14,0.05,0.21,0.22,0.17,0.32c-0.04,0.09-0.53,0.12-0.69,0.13c-0.1,0-0.2,0.07-0.2,0.15s0.33,0.12,0.6,0.18
	c0.27,0.07,0.57,0.13,0.74,0.39c0.17,0.27,0.72,1.13,1.03,1.86s0.72,1.73,0.94,2.26c0.23,0.53,0.87,2.16,1.1,2.81
	s0.56,1.66,0.61,1.78s0.14,0.25,0,0.3c-0.14,0.05-0.31,0.08-0.56,0.14s-1.95,0.44-2.58,0.58S16.93,33.97,16.78,33.98z"/>
<path class="st1" d="M12.13,19.17c0.19,0.08,0.88,0.21,1.09,0.31s0.66,0.78,0.95,0.88c0.29,0.1,0.52,0.04,0.55,0.04
	c0.03,0-0.67-0.89-0.91-1.04c-0.24-0.15-1.01-0.62-1.25-0.68c-0.24-0.06-1.1-0.46-1.17-0.38s0.02,0.41,0.09,0.5
	C11.55,18.89,12.13,19.17,12.13,19.17S11.94,19.1,12.13,19.17z"/>
<polygon class="st5" points="19.98,47.83 19.96,47.64 19.78,47.66 19.4,47.69 18.94,47.88 19.65,47.89 19.83,47.88 19.98,47.83 "/>
<path id="player-sock-l" class="st4" d="M19.71,43.81c0.16-0.59,0.36-1.3,0.52-1.86s0.36-1.39,0.46-1.78
	c0.1-0.39,0.23-0.82,0.23-0.92c-0.01-0.1-0.09-0.06-0.19-0.14c-0.1-0.08-0.07-0.29,0-0.41c0.07-0.11,0.28,0.06,0.46-0.08
	c0.18-0.15,0.35-0.82,0.35-0.82s0-0.32-0.02-0.53c-0.02-0.21-0.12-0.4-0.19-0.42c-0.08-0.02-1.03,0.05-1.36-0.02
	c-0.33-0.07-0.95-0.4-1.12-0.41c-0.17-0.01-0.29,0.07-0.36,0.24c-0.07,0.16-0.15,0.56-0.15,0.88c-0.01,0.32,0.03,0.65,0.1,0.75
	s0.58,0.12,0.64,0.27s0.04,0.3-0.11,0.35s-0.46-0.17-0.55-0.13s-0.46,0.65-0.59,1.25c-0.13,0.61-0.24,4.05-0.24,4.05l-0.13,1.23
	l1.34,0.52l0.57-0.52l0.1-0.53C19.47,44.78,19.57,44.34,19.71,43.81z"/>
<path id="skin-leg-l" class="st2" d="M18.5,35.1c0.06,0.12,0.28,0.65,0.34,0.75c0.06,0.1,0.93,0.45,1.2,0.51
	c0.26,0.06,1.26,0.06,1.29-0.02s0.19-0.6,0.23-0.75c0.08-0.27,0.15-0.57,0.16-0.83c0.01-0.26-0.11-1.07-0.06-0.82
	c0.06,0.25-0.13-0.52-0.13-0.52l-2.72,0.61l-0.89,0.24C17.92,34.27,18.44,34.99,18.5,35.1z"/>
<path class="st0" d="M21.16,35.21c0.09-0.05,0.15-0.26,0.15-0.42c0-0.08,0-0.16,0-0.16s-0.17,0.17-0.32,0.28
	c-0.15,0.11-0.39,0.26-0.39,0.26S21.06,35.27,21.16,35.21z"/>
<polygon class="st1" points="19.23,6.3 19.25,6.2 19.44,6.26 19.49,6.33 19.32,6.3 "/>
<path id="hair" class="st1" d="M15.81,4.47l0.21-0.01l0.34,0.27l0.18,0.18l0.61-0.95c0,0,0.2-0.55,0.31-0.65s1.38-0.54,1.38-0.54
	l0.34,0.07l0.05-0.12l0.61,0.07c0,0,0.91,0.47,1.07,0.66c0.15,0.19,0.48,0.9,0.5,1.05c0.02,0.15-0.14,0.45-0.14,0.45v0.54l0.14-0.45
	l0.45-0.71l-0.07-0.73l0.18-0.61l-0.36-0.77l-0.34-0.36l-0.23-0.32l-0.77-0.14l-0.1-0.28l-0.57-0.12L18.9,0.65l-0.05,0.1l-1.2,0.16
	l-0.28,0.31l-0.41-0.05l-0.63,0.57l-0.76,1.09l0.12,0.05l0.08,0.62l-0.23,0.46l0.15,0.19l0.11,0.14L15.81,4.47z"/>
</svg>
