<?xml version="1.0" encoding="utf-8"?>
<!-- Generator: Adobe Illustrator 16.0.4, SVG Export Plug-In . SVG Version: 6.00 Build 0)  -->
<!DOCTYPE svg PUBLIC "-//W3C//DTD SVG 1.1//EN" "http://www.w3.org/Graphics/SVG/1.1/DTD/svg11.dtd" [
	<!ENTITY ns_flows "http://ns.adobe.com/Flows/1.0/">
	<!ENTITY ns_extend "http://ns.adobe.com/Extensibility/1.0/">
	<!ENTITY ns_ai "http://ns.adobe.com/AdobeIllustrator/10.0/">
	<!ENTITY ns_graphs "http://ns.adobe.com/Graphs/1.0/">
]>
<svg version="1.1" id="Ebene_1" xmlns:x="&ns_extend;" xmlns:i="&ns_ai;" xmlns:graph="&ns_graphs;"
	 xmlns="http://www.w3.org/2000/svg" xmlns:xlink="http://www.w3.org/1999/xlink" xmlns:a="http://ns.adobe.com/AdobeSVGViewerExtensions/3.0/"
	 x="0px" y="0px" width="33.1px" height="53.2px" viewBox="0 0 33.1 53.2" style="enable-background:new 0 0 33.1 53.2;"
	 xml:space="preserve">
<style type="text/css">
<![CDATA[
	.st0{fill:#1A1A18;}
	.st1{fill-rule:evenodd;clip-rule:evenodd;fill:#1A1A18;}
	.st2{fill:#FBCDAA;}
	.st3{fill-rule:evenodd;clip-rule:evenodd;fill:#FBCDAA;}
	.st4{fill:#0068B4;}
	.st5{fill-rule:evenodd;clip-rule:evenodd;fill:#FFFFFF;}
	.st6{fill-rule:evenodd;clip-rule:evenodd;fill:#0068B4;}
]]>
</style>
<path class="st0" d="M0.43,23.24c0.03-0.13,0.19-0.5,0.31-0.66c0.12-0.16,0.44-0.51,0.44-0.51l0.46-0.61l0.58-1.14l0.96-1.92
	c0,0,0.66-1.27,0.98-1.8s0.99-1.44,0.99-1.44l0.34-0.54l-0.03-0.14c0,0,0.61-0.84,0.79-1.07s0.87-1.05,1.12-1.39
	c0.25-0.34,0.67-0.81,0.87-1.08s0.82-1.01,1.13-1.31s0.56-0.47,0.84-0.61s0.6-0.24,0.88-0.33c0.38-0.12,0.62-0.22,0.86-0.26
	s0.62-0.11,0.95-0.14s0.84-0.1,0.84-0.1l0-0.02l0.2-0.23l0.08-0.23l0.01-0.62l-0.17-0.5l-0.13-0.02l-0.21-0.24L13.37,5.9l-0.36-0.54
	l0-0.53l-0.05-0.71l-0.37-0.26l0.35-0.51l-0.07-0.52l-0.1-0.13l0.7-1.23L13.98,1l0.41-0.44l0.15,0.14l0.25-0.26l0.79-0.07l0.1-0.12
	l0.86,0.23l0.65,0.27l0.59-0.04l0.12,0.16l0.4,0.12l0.48,0.59l0.29,0.67l0.06,0.29l0.2,0.12l-0.2,0.6l0.26,0.54l-0.31,0.46
	l0.01,0.47l-0.38,0.71l-0.04,0.46l-0.17,0.4L18.15,6.5l-0.25,0.84l-0.04,0.53l0.08,0.35l0.08,0.08l0.96,0.17
	c0,0,0.72,0.12,0.88,0.17c0.17,0.05,0.59,0.19,0.77,0.26c0.18,0.07,0.48,0.27,0.68,0.38c0.64,0.36,1.12,0.97,1.12,0.97
	s0.44,0.53,0.8,1.11c0.32,0.51,0.53,1.07,0.72,1.39c0.19,0.31,0.54,1.04,0.75,1.36c0.29,0.44,0.34,0.57,0.27,0.66
	c-0.06,0.08-0.07,0.09-0.07,0.09l0.76,0.92l0.59,0.77l0.49,0.65l1.28,1.51c0,0,2.03,1.94,2.17,2.01s0.69,0.16,0.69,0.16
	s0.7,0.37,0.81,0.47c0.11,0.1,0.52,0.45,0.67,0.64c0.14,0.18,0.27,0.62,0.29,0.78c0.02,0.16,0.04,0.4,0.04,0.4s-0.01,0.12-0.16,0.26
	s-0.39,0.14-0.39,0.14s-0.11,0.18-0.2,0.19s-0.22,0-0.22,0s-0.15,0.19-0.29,0.29s-0.36,0.08-0.36,0.08s-0.36-0.06-0.52-0.11
	c-0.16-0.05-0.33-0.21-0.52-0.3c-0.31-0.14-0.53-0.37-0.53-0.37s-0.4-0.32-0.59-0.58c-0.18-0.27-0.4-0.75-0.4-0.75l-1.96-1.49
	l-1.9-1.46c0,0-0.81-0.64-1.24-1.07c-0.43-0.43-1.2-1.32-1.2-1.32l-0.2-0.27l-0.11,0.05c0,0-0.46,0.21-0.61,0.21
	c-0.04,0-0.11,0.01-0.19-0.12c-0.23-0.38-0.54-0.84-0.54-0.84s-0.1,0.3-0.23,0.67c-0.11,0.32-0.26,0.69-0.29,0.99
	c-0.08,0.65-0.19,1.5-0.27,2.31c-0.09,0.94-0.12,2.16-0.12,2.16l0.07,0.73c0,0-0.03,0.22,0.05,0.28c0.08,0.07,0.28,0.25,0.3,0.43
	c0.02,0.18-0.15,0.44-0.1,0.5c0.05,0.06,0.19,0.28,0.37,0.5s0.61,0.81,0.84,1.22s1.62,2.93,1.62,2.93l2.03,4.2l0.23,0.56l-0.11,0.17
	c0,0,0.09,0.19,0.15,0.55c0.06,0.36,0.08,1.19,0.06,1.44c-0.02,0.25-0.03,0.87-0.03,0.87s0.19,0.46,0.23,0.63
	c0.04,0.17,0.1,0.5,0.05,0.73c-0.05,0.23-0.1,0.41-0.17,0.56c-0.07,0.15-0.2,0.29-0.2,0.29s-0.08,0.47-0.09,0.8
	c-0.01,0.34-0.32,5.3-0.32,5.3s-0.01,1.38-0.02,1.71c-0.01,0.01,0.15,0.09,0.16,0.2c0.01,0.07,0.02,0.32,0.05,0.42
	s0.16,0.29,0.3,0.38c0.14,0.08,3,0.83,3.23,0.94c0.23,0.12,0.79,0.48,0.86,0.67c0.07,0.19,0,0.51-0.1,0.69
	c-0.1,0.17-0.22,0.18-0.41,0.27c-0.19,0.09-0.57,0.17-0.57,0.17l-0.47,0.06c0,0,0.01,0.19-0.04,0.27c-0.05,0.09-0.34,0.03-0.4,0.03
	c-0.06,0.01-0.21-0.23-0.21-0.23l-0.89,0.09l-1.06,0.13c0,0-0.02,0.17-0.1,0.22s-0.34,0.02-0.42,0s-0.19-0.16-0.19-0.16l-1.11,0.05
	l-0.36-0.02c0,0-0.03,0.12-0.09,0.16c-0.06,0.04-0.31-0.02-0.38-0.05s-0.08-0.19-0.08-0.19s-0.48-0.08-0.59-0.14
	s-0.03-0.28,0.02-0.38s-0.16-0.34-0.25-0.56c-0.09-0.22-0.12-0.54-0.12-0.79s0.3-0.88,0.3-0.88l-0.08-1.13c0,0-0.07-0.74-0.08-0.96
	c-0.01-0.1-0.11-0.87-0.2-1.55c-0.11-0.77-0.15-0.92-0.21-1.45c-0.07-0.53-0.1-0.65-0.14-1.12C21,40.91,20.97,40.37,21,39.94
	s0.09-0.53,0.15-0.69c0.05-0.16,0.36-0.78,0.37-0.83c-0.03-0.06-0.28-0.58-0.28-1.05c-0.01-0.47,0.1-0.83,0.2-1.16
	c0,0-0.17-0.53-0.3-0.7c-0.16-0.2-0.57-0.58-0.57-0.58l-1.43,0.41c0,0-0.38,0.14-0.47,0.13c-0.1,0-0.18-0.16-0.18-0.16l-1.22-2.35
	l0.07,1.41l0.01,1.22c0,0-0.03,0.15-0.13,0.18c-0.1,0.03-0.73,0.08-0.73,0.08s-0.09,0.42-0.16,0.66s-0.32,1.43-0.33,1.56
	c-0.01,0.13-0.06,0.4-0.03,0.57s0.05,0.28,0.08,0.42c0.02,0.14-0.01,0.49-0.02,0.73c-0.01,0.08-0.06,0.3-0.09,0.36
	c-0.05,0.11,0.03,0.24,0.05,0.56c0.01,0.18,0,0.46-0.03,0.8c-0.02,0.27-0.11,0.9-0.14,1.19c-0.09,0.91-0.16,1.48-0.22,1.95
	c-0.06,0.47-0.19,1.37-0.23,1.87c-0.04,0.49-0.16,1.51-0.13,1.63s0.11,0.33,0.11,0.33s0.07-0.01,0.06,0.2
	c-0.01,0.22-0.04,0.65-0.04,0.65s0.27,0.8,0.32,0.95c0.04,0.14,0.24,0.69,0.27,0.97c0.03,0.28-0.04,0.72-0.08,0.86
	c-0.05,0.14-0.12,0.28-0.23,0.38c-0.11,0.09-0.26,0.19-0.26,0.19s-0.03,0.17-0.08,0.21c-0.05,0.04-0.31,0.04-0.38,0.05
	c-0.07,0.01-0.07-0.15-0.07-0.15l-0.95,0.02c0,0-0.06,0.12-0.11,0.15c-0.05,0.03-0.33,0.03-0.39,0c-0.05-0.03-0.09-0.25-0.09-0.25
	s-0.1-0.07-0.22-0.13c-0.13-0.06-0.23-0.16-0.23-0.16s-0.13-0.47-0.18-0.9c-0.05-0.43-0.01-1.21-0.01-1.21l-0.05-0.5
	c0,0-0.04-0.22-0.07-0.39s0.08-0.27,0.08-0.27s-0.04-0.45-0.05-0.59c-0.01-0.14,0.09-0.44,0.09-0.44l0-0.62c0,0-0.21-1.57-0.27-2.35
	s-0.2-2.49-0.23-2.95s-0.02-1.56,0-1.94s0.19-0.47,0.19-0.56s-0.07-0.21-0.12-0.42c-0.08-0.3,0.01-0.57,0.04-0.73
	c0.02-0.16,0.16-0.34,0.16-0.41c-0.01-0.06-0.13-0.6-0.25-0.9c-0.12-0.29-0.51-1.21-0.51-1.21s-0.41-0.03-0.61-0.03
	c-0.2,0-0.21-0.02-0.24-0.24s-0.05-0.8-0.05-0.8l-0.2-7.45l-0.21-0.83l-0.08-1.2l-0.02-0.91L10.33,24c0,0,0.09-0.6,0.16-0.84
	s0.14-0.47,0.14-0.47l-0.04-0.36l-0.08-1.01l-0.42-2.5c0,0-0.16-0.89-0.23-1.34s-0.23-0.95-0.23-0.95l-0.63,0.75
	c0,0-0.11,0.1-0.24,0.24c-0.13,0.15-0.15,0.16-0.3,0.07s-0.72-0.51-0.8-0.56S7.03,17.4,6.88,17.6s-1.83,2.53-2.11,2.94
	c-0.27,0.4-1.11,1.69-1.11,1.69l0.04,0.86c0,0-0.04,0.43-0.1,0.65s-0.16,0.71-0.16,0.71s-0.11,0.25-0.19,0.37
	c-0.07,0.12-0.29,0.33-0.5,0.44c-0.09,0.05-0.23,0.08-0.47,0.12c-0.12,0.02-0.28,0.13-0.41,0.16c-0.19,0.04-0.35-0.01-0.41-0.02
	c-0.2-0.04-0.39-0.17-0.43-0.18s-0.06-0.3-0.06-0.3S0.9,25.05,0.8,24.95c-0.1-0.1-0.15-0.34-0.15-0.34s-0.05-0.12-0.11-0.21
	c-0.06-0.09-0.15-0.41-0.15-0.7S0.4,23.37,0.43,23.24z"/>
<path id="skin-arm-l" class="st3" d="M31.99,22.17c0,0-0.3-0.34-0.45-0.43c-0.15-0.09-0.46-0.35-0.73-0.46
	c-0.27-0.11-0.7-0.13-0.7-0.13l-0.43-0.4c0,0-1.44-1.22-2.04-1.87c-0.54-0.59-1.62-1.94-1.62-1.94l-0.76-0.97l-0.71-0.83
	c0,0-0.68,0.36-1.03,0.55c-0.5,0.27-0.97,0.5-0.97,0.5s0.41,0.6,0.63,0.87c0.21,0.27,0.68,0.71,0.8,0.86
	c0.12,0.15,0.52,0.46,0.52,0.46l4.33,3.31l0.19,0.28l0.15,0.36l0.37,0.49c0,0,0.45,0.33,0.48,0.36c0.04,0.03,0.08,0.02,0.08,0.02
	s0.07-0.3,0.16-0.4c0.14-0.14,0.44-0.26,0.46-0.27c0.02-0.01-0.34-0.17-0.34-0.17s-0.57-0.24-0.59-0.33s0.12-0.18,0.22-0.15
	s0.22,0.04,0.22,0.04s0.14,0.1,0.33,0.14c0.18,0.04,0.69,0.04,0.69,0.04s0.33,0.27,0.48,0.34s0.26,0.1,0.36,0.03
	C32.15,22.44,31.99,22.17,31.99,22.17z"/>
<path id="skin-arm-l-3" class="st2" d="M32,23.14c0,0-0.51-0.18-0.61-0.24c-0.1-0.06-0.18-0.18-0.17-0.28
	c0.01-0.1,0.07-0.11,0.07-0.11s0.19,0.06,0.3,0.12s0.23,0.12,0.41,0.14c0.1,0.01,0.21,0.15,0.21,0.15s0.04,0.07-0.03,0.14
	S32,23.14,32,23.14z"/>
<path id="skin-arm-l-2" class="st2" d="M31.25,23.37l-0.31-0.18c0,0-0.13-0.12,0.02-0.24c0.07-0.05,0.17-0.05,0.17-0.05l0.17,0.17
	l0.27,0.12l0.11,0.08c0,0,0.02,0.04-0.02,0.1c-0.04,0.06-0.08,0.06-0.08,0.06L31.25,23.37z"/>
<path id="skin-arm-l-1" class="st2" d="M31.1,23.47l-0.26-0.13l-0.18-0.19c0,0-0.11-0.05-0.16,0s-0.01,0.24-0.01,0.24l0.24,0.21
	c0,0,0.23,0.07,0.32,0.06c0.09-0.01,0.15-0.1,0.15-0.1l-0.04-0.08L31.1,23.47z"/>
<path id="skin-arm-r" class="st3" d="M0.97,24.43c0,0,0.04,0.13,0.07,0.19s0.14,0.1,0.14,0.1l0-0.15l0.07-0.27l0.05-0.22
	c0,0,0.08-0.21,0.05-0.18c-0.03,0.03,0.09-0.02,0.11,0.07c0.01,0.09-0.14,0.5-0.14,0.5L1.3,24.84c0,0,0.05,0.24,0.15,0.29
	s0.21,0.05,0.3-0.02C1.84,25.04,1.82,25,1.82,25s-0.16-0.19-0.17-0.23c-0.01-0.04,0.14-0.35,0.14-0.35s0.15-0.19,0.25-0.3
	c0.11-0.11,0.39-0.36,0.46-0.36s0.13,0.11,0.13,0.11s-0.11,0.56-0.07,0.45c0.04-0.11-0.15,0.32-0.15,0.32s-0.07,0.22,0.02,0.23
	c0.09,0.01,0.26-0.08,0.26-0.08s0.26-0.25,0.33-0.38c0.07-0.13,0.26-1.01,0.27-1.21c0.01-0.2-0.08-1-0.08-1l0.43-0.74l2.92-4.15
	l0.73-0.58l-0.78-0.7l-0.74-0.89L5.1,15.99L3.9,17.9L2,21.64l-0.22,0.34c0,0-0.59,0.63-0.66,0.76c-0.07,0.13-0.21,0.37-0.21,0.37
	s-0.1,0.18-0.12,0.26c-0.03,0.08-0.09,0.28-0.07,0.4s0.03,0.15,0.04,0.19c0.01,0.04,0.09,0.17,0.09,0.17l0.1-0.45
	c0,0,0.04-0.08,0.07-0.11c0.04-0.03,0.08-0.01,0.09,0.01c0.02,0.05-0.12,0.54-0.12,0.54L0.97,24.43z"/>
<path id="player-jersey" class="st6" d="M7.7,16.43c0.23,0.19,0.53,0.42,0.75,0.53c0.1,0.05,0.18,0,0.19-0.02
	c0.11-0.13,0.31-0.37,0.54-0.65c0.24-0.29,0.46-0.56,0.54-0.67c0.18-0.25,0.43-0.63,0.52-0.76c0.09-0.13,0.22-0.33,0.32-0.45
	c0.09-0.12,0.2-0.57,0.35-0.68s0.61-0.29,0.73-0.36c0.12-0.08,0.25-0.22,0.34-0.26c0.09-0.05,0.2-0.08,0.24-0.02
	c0.04,0.06,0.08,0.15,0.02,0.24c-0.07,0.09-0.48,0.31-0.57,0.4c-0.09,0.08-0.39,0.29-0.45,0.39c-0.06,0.1-0.12,0.24-0.09,0.37
	s0.7,0.69,0.77,0.78s0.1,0.19,0.02,0.24c-0.09,0.04-0.16,0.08-0.36,0.03s-0.63-0.55-0.63-0.55l-0.35,0.14l-0.38,0.57l-0.25,0.51
	c0,0,0.08,0.21,0.13,0.4c0.02,0.09,0.12,0.41,0.2,0.86c0.09,0.44,0.17,1.01,0.2,1.2c0.08,0.39,0.14,0.83,0.2,1.19
	s0.12,0.97,0.19,1.34s0.09,0.7,0.11,1.05c0.01,0.23,0.06,0.48,0.12,0.52c0.09,0.04,0.14,0.05,0.5,0.08c0.36,0.03,1.47,0.19,2.05,0.3
	c0.46,0.09,1.34,0.1,1.7,0.11c0.36,0,0.86-0.03,1.34-0.11c0.48-0.08,1.18-0.21,1.57-0.28s0.73-0.18,0.84-0.19
	c0.16-0.01,0.19-0.08,0.18-0.3s-0.04-0.75-0.04-0.75s0.02-0.81,0.11-1.74c0.1-1.07,0.27-2.28,0.3-2.5c0.05-0.4,0.4-1.36,0.49-1.72
	s0.18-0.93,0.27-1.22c0.09-0.29,0.19-0.52,0.23-0.72c0.06-0.35,0.15-1.06,0.22-0.93s0.11,0.83,0.11,0.99
	c-0.01,0.15-0.13,0.44-0.14,0.73c-0.01,0.28,0,0.66,0,0.66s0.39,0.58,0.49,0.76c0.09,0.18,0.08,0.2,0.29,0.13
	c0.25-0.08,0.95-0.4,0.95-0.4l1.27-0.61c0,0,0.45-0.27,0.57-0.35c0.12-0.08-0.04-0.28-0.04-0.28l-0.26-0.45c0,0-0.95-1.91-1.17-2.29
	c-0.22-0.37-0.88-1.3-1.1-1.48s-0.52-0.39-0.73-0.53s-0.45-0.29-0.72-0.4s-0.45-0.17-0.69-0.22c-0.25-0.04-0.26-0.11-0.67-0.15
	s-1.02-0.12-1.02-0.12l-0.55,1.18l-0.58,1.08l-0.79,1.35l-0.75-1.1c0,0-0.22-0.36-0.52-0.84s-1.09-1.72-1.09-1.72
	s-0.44-0.05-0.66-0.03s-0.62,0.09-0.86,0.12s-0.45,0.1-0.8,0.21c-0.36,0.11-0.67,0.2-1.04,0.39s-0.98,0.81-1.35,1.25
	S7.41,12.6,7.17,12.9s-1.2,1.61-1.2,1.61s0.05,0.18,0.12,0.31s0.38,0.49,0.6,0.69S7.47,16.24,7.7,16.43z"/>
<path class="st1" d="M12.35,20.91c0.04,0,0.1-0.16,0.08-0.47s-0.19-0.91-0.27-1.25c-0.08-0.35,0.03-0.98,0.06-1.08
	c0.03-0.1,0.13-0.18,0.04-0.24c-0.09-0.05-0.38-0.03-0.51,0.15c-0.13,0.18,0,0.35,0.02,0.61c0.01,0.31,0.37,1.7,0.4,1.88
	C12.2,20.69,12.3,20.91,12.35,20.91z"/>
<path class="st1" d="M17.96,22.21c0.1,0.02,0.13-0.41,0.2-0.54s0.09-2.16,0.09-2.16s-0.18-1.27-0.12-1.66
	c0.06-0.39,0.2-0.64,0.29-0.98s0.27-0.59,0.31-0.74s0.14-0.37,0.09-0.36c-0.04,0-0.15,0.15-0.22,0.25c-0.07,0.11-0.4,0.81-0.52,1.11
	s-0.23,0.65-0.29,0.93s-0.19,0.71-0.18,0.89c0.01,0.19,0.25,1.33,0.25,1.77C17.84,21.18,17.96,22.21,17.96,22.21
	S17.85,22.19,17.96,22.21z"/>
<polygon class="st5" points="13.82,52.22 14.27,52.01 14.85,52.2 14.6,52.39 13.96,52.4 "/>
<polygon id="skin-leg-r" class="st2" points="15.42,38.18 14.37,38.23 13.62,38.23 12.88,38.09 12.77,37.7 12.5,36.94 12.2,36 
	14.27,35.98 15.92,35.87 15.79,36.53 15.67,37.12 15.52,37.71 "/>
<path class="st1" d="M14.49,37.34c-0.13,0.04-0.27,0.04-0.41-0.03s0.02-0.22,0.02-0.22s0.48-0.04,0.58-0.01
	c0.1,0.03,0.11,0.08,0.02,0.18S14.49,37.34,14.49,37.34S14.61,37.3,14.49,37.34z"/>
<path id="player-sock-r" class="st6" d="M15.52,39.74c-0.09,0.15-0.48,0.2-0.56,0.29s-0.13,0.14,0.02,0.21
	c0.14,0.07,0.44,0.16,0.5,0.3c0.05,0.14,0.02,1.01-0.02,1.34c-0.05,0.33-0.43,3.96-0.45,4.25c-0.02,0.29-0.07,0.94-0.11,1.26
	s-0.08,0.87-0.08,0.87s0.08,0.54,0.08,0.61s-0.01,0.3-0.07,0.32c-0.07,0.02-0.48-0.44-0.63-0.46s-0.33,0.18-0.39,0.24
	c-0.06,0.06-0.2,0.25-0.29,0.27c-0.1,0.02-0.25-0.06-0.32-0.08c-0.06-0.01-0.02-0.13-0.06-0.28c-0.05-0.15,0.08-0.45,0.07-0.49
	c-0.01-0.05-0.11-0.1-0.15-0.25c-0.04-0.14,0.03-0.37,0.02-0.56s-0.13-1.08-0.13-1.08s-0.27-3.33-0.31-3.97s0-1.92,0-1.99
	c0-0.07-0.05-0.22,0.05-0.31c0.08-0.08,0.22-0.02,0.35-0.04c0.12-0.01,0.27-0.1,0.3-0.13c0.03-0.04,0.03-0.11-0.02-0.21
	c-0.05-0.1-0.33-0.27-0.45-0.38c-0.12-0.11-0.12-0.34-0.13-0.53c-0.02-0.27,0.06-0.32,0.11-0.39c0.02-0.03,0.25,0.02,0.35,0.03
	c0.1,0.01,0.3,0.07,0.59,0.06c0.29,0,0.77,0,1.08-0.01c0.3-0.02,0.52-0.09,0.6,0c0.09,0.09,0.09,0.1,0.12,0.24
	c0.02,0.14,0.05,0.28,0.06,0.42C15.64,39.45,15.61,39.59,15.52,39.74z"/>
<path id="player-shorts" class="st5" d="M18.95,34.92c-0.02,0-0.05-0.03-0.09-0.1c-0.25-0.44-0.85-1.62-0.85-1.62l-0.77-1.44
	l-0.02-1.91c0,0-0.11-0.48-0.03-0.6c0.08-0.12,0.83-0.66,0.98-0.71c0.15-0.05,0.26-0.09,0.32-0.2s-0.52-0.04-0.63-0.03
	c-0.18,0.02-0.35,0.22-0.5,0.29s-0.29,0.22-0.37,0.21c-0.08-0.01,0.14-0.85,0.17-0.97s-0.36-0.56-0.45-0.58
	c-0.09-0.01,0,1.17-0.05,1.27s-0.69,0.07-0.71,0.11c-0.03,0.04,0.03,0.18,0.13,0.29c0.1,0.11,0.36,0.46,0.46,0.54
	s0.25,0.15,0.26,0.23c0.01,0.09,0.09,3.67,0.09,3.67l0.02,1.86c0,0,0.01,0.11-0.05,0.13s-1.47,0.13-1.95,0.15s-1.33,0.05-1.69,0.06
	c-0.48,0.02-1.15,0-1.15,0s-0.63,0.02-0.72,0.02c-0.04,0-0.09,0-0.11-0.11c-0.02-0.11-0.02-0.33-0.02-0.33l-0.05-2.79
	c0,0-0.08-3.84-0.09-4.14c-0.01-0.29-0.08-0.49,0.04-0.49c0.12,0,0.59,0.19,0.68,0.15c0.09-0.03,0.2-0.11,0.19-0.2
	c-0.02-0.1-0.06-0.1-0.17-0.13c-0.28-0.08-0.73-0.43-0.82-0.53c-0.09-0.1-0.11-0.29-0.15-0.44c-0.05-0.15-0.06-0.55-0.1-0.76
	c-0.04-0.21-0.02-0.36-0.03-0.54c-0.01-0.18,0.03-0.37,0.11-0.59c0.05-0.14,0.14-0.16,0.2-0.16c0.16,0.02,0.76,0.09,0.99,0.02
	c0.23-0.07,0.67-0.26,0.56-0.31c-0.11-0.05-0.95-0.25-1.17-0.24c-0.22,0.01-0.49,0.12-0.54,0.06c-0.05-0.06,0.07-0.86,0.2-0.87
	c0.12-0.01,0.34,0.01,0.52,0.02c0.18,0.01,0.53,0.07,0.8,0.11c0.21,0.03,0.55,0.07,1.17,0.16c0.61,0.1,1.75,0.16,2.14,0.14
	c0.39-0.02,2.19-0.29,2.48-0.35s1.14-0.26,1.23-0.24s0.25,0.08,0.25,0.2c-0.01,0.12-0.04,0.32-0.15,0.34
	c-0.26,0.05-0.82,0.03-0.8,0.08c0.02,0.08,0.51,0.16,0.66,0.23c0.15,0.08,0.36,0.14,0.56,0.37s1.03,1.51,1.28,1.93
	s0.74,1.36,0.99,1.85c0.26,0.49,0.81,1.49,0.99,1.87s0.86,1.85,0.98,2.08c0.12,0.23,0.39,0.86,0.4,0.9
	c0.01,0.04,0.03,0.08-0.04,0.14c-0.07,0.06-1.86,0.64-1.86,0.64l-2.5,0.85C20.14,34.56,19.05,34.9,18.95,34.92z"/>
<polygon class="st5" points="25.5,49.84 25.48,49.65 25.29,49.66 24.92,49.69 24.46,49.86 25.16,49.89 25.35,49.88 25.5,49.84 "/>
<path id="player-sock-l" class="st4" d="M24.28,44.2c0.03-0.43,0.07-2.28,0.11-2.82c0.04-0.54,0.17-2.23,0.17-2.23
	s-0.04-0.33-0.05-0.44c-0.02-0.11-0.21-0.17-0.28-0.26s0.22-0.2,0.41-0.35c0.19-0.15,0.23-0.47,0.23-0.47s0.1-0.31,0.05-0.55
	c-0.05-0.24-0.12-0.49-0.27-0.52c-0.15-0.04-0.66,0.05-1.19,0.05s-1.36-0.04-1.46-0.01c-0.1,0.04-0.17,0.1-0.21,0.24
	c-0.04,0.14-0.05,0.41-0.05,0.61c0,0.2-0.03,0.4,0.15,0.56s0.6,0.27,0.65,0.36c0.05,0.09-0.03,0.25-0.11,0.3
	c-0.09,0.04-0.31-0.04-0.44,0.03c-0.13,0.08-0.34,0.63-0.42,0.86c-0.09,0.23-0.12,0.55-0.12,0.72c-0.01,0.17-0.01,0.41,0.02,0.7
	c0.02,0.29,0.04,0.57,0.09,0.92s0.36,2.59,0.36,2.59l0.16,1.57l0.11,1.07c0,0,0.02,0.14,0.13,0.17c0.2,0.05,0.78,0.35,1.15,0.33
	s0.86-0.46,0.88-0.46c0.02-0.01-0.08-0.25-0.1-0.54C24.22,46.34,24.25,44.63,24.28,44.2z"/>
<polygon id="skin-leg-l" class="st2" points="21.39,34.99 21.74,35.5 22.02,36.12 23.36,36.13 24.67,36.06 24.76,34.88
	24.72,34.12 24.53,33.58 22.66,34.24 21.77,34.53 21.18,34.76 "/>
<path class="st0" d="M24.19,35.1c0.11-0.13,0.12-0.43,0.12-0.43l-0.01-0.16c0,0-0.17,0.19-0.3,0.3c-0.13,0.11-0.37,0.28-0.37,0.28
	S24.07,35.23,24.19,35.1z"/>
<path id="skin-face" class="st3" d="M18.3,5.59L17.87,6.4c0,0-0.31,0.89-0.41,1.12s-0.48,0.89-0.78,1.13
	c-0.16,0.13-0.21,0.11-0.34,0.14c-0.14,0.03-0.52,0.04-0.76-0.03s-0.71-0.5-0.89-0.79s-0.38-0.69-0.38-0.69s-0.28-0.92-0.27-0.99
	c0-0.07,0.15-0.01,0.13-0.11c-0.02-0.1-0.15-0.25-0.22-0.26c-0.07-0.01-0.24-0.02-0.24-0.02s-0.11-0.07-0.23-0.3
	s-0.18-0.46-0.18-0.46l0.01-0.12c0,0,0.2-0.22,0.14-0.23c-0.06-0.01-0.07,0.29-0.03,0.36s0.22,0.26,0.22,0.26l0.12-0.01l0.01-0.17
	l0.17-0.92l0.19-0.46l0.28-0.44l0.56-0.23l0.37-0.09l0.2-0.05l0.33,0.14L16,3.02l0.8-0.01l0.32,0.12l0.52,0.38l0.24,0.54l0.17,0.32
	L18.03,4.6l0.22,0.26l0.14-0.23l0.01-0.12l0.12,0.01l-0.01,0.12L18.3,5.59L18.3,5.59z"/>
<path id="skin-neck" class="st3" d="M15.19,10.27c-0.3-0.43-0.97-1.55-0.97-1.55l0.16-0.06l-0.02-0.4c0,0,0.44,0.39,0.69,0.61
	s0.46,0.35,0.64,0.35c0.18,0.01,0.63,0.06,0.85-0.04s0.4-0.28,0.55-0.43c0.15-0.15,0.33-0.51,0.33-0.51l0.11,0.46l0.08,0.07
	c0,0-0.33,0.68-0.44,0.89c-0.11,0.21-0.46,0.9-0.46,0.9l-0.61,1.09C16.09,11.63,15.49,10.71,15.19,10.27z"/>
<polygon class="st1" points="16.02,6.65 16.03,6.53 16.13,6.46 16.34,6.55 16.08,6.65 "/>
<polygon class="st1" points="15.51,6.61 15.44,6.52 15.58,6.41 15.8,6.55 15.62,6.69 "/>
<path class="st1" d="M17.39,4.69l-0.12,0.08c0,0,0.09,0.23-0.02,0.34c-0.1,0.12-0.27,0.15-0.38,0.14s-0.22-0.19-0.22-0.19
	l-0.11-0.01l-0.17,0.77l0.02-0.96c0,0,0.15-0.27,0.23-0.29c0.08-0.03,0.56-0.05,0.71-0.04c0.15,0.01,0.22,0.11,0.22,0.11L17.5,4.75
	L17.39,4.69L17.39,4.69z"/>
<path class="st1" d="M14.86,4.68c0,0-0.14-0.15-0.2-0.12c-0.06,0.02-0.4,0.14-0.4,0.14l0.06-0.11c0,0,0.28-0.22,0.39-0.21
	c0.18,0.02,0.49,0.12,0.49,0.12s0.33,0.1,0.39,0.18s-0.01,0.16-0.01,0.16s-0.16,0.25-0.33,0.28s-0.3,0.01-0.36-0.14
	C14.82,4.83,14.86,4.68,14.86,4.68z"/>
<polygon class="st1" points="16.12,7.38 16.05,7.53 16.15,7.53 16.35,7.63 16.38,7.71 16.23,7.78 15.78,7.75 15.67,7.49 15.55,7.39 
	15.25,7.22 15.12,7.14 15.13,7.08 15.31,7.09 15.9,7.19 16.59,7.15 16.66,7.22 16.39,7.33 "/>
<path id="hair" class="st1" d="M19.05,3.69l-0.22-0.38L19,2.8l-0.18-0.1l-0.1-0.43L18.5,1.75l-0.44-0.51l-0.36-0.1l-0.1-0.14
	l-0.53,0.03l-0.59-0.23l-0.67-0.22l-0.09,0.1l-0.82,0.09l-0.37,0.27l-0.13-0.12l-0.3,0.35L13.74,1.6L13.1,2.63l0.09,0.11l0.08,0.61
	l-0.31,0.41l0.29,0.17l0.02,0.56l0.08-0.15l0.25,0.07c0,0,0.12-0.49,0.2-0.64c0.12-0.23,0.32-0.56,0.46-0.67
	c0.14-0.11,0.67-0.26,0.67-0.26l0.37-0.08l0.23-0.05l0.25,0.14l0.16-0.15l1.03-0.02c0,0,0.14,0.06,0.23,0.13
	c0.09,0.07,0.68,0.34,0.7,0.42c0.02,0.07,0.09,0.28,0.16,0.4c0.07,0.11,0.23,0.44,0.26,0.52c0,0.01,0.18-0.06,0.18-0.06
	s0.32,0.15,0.26,0.38c0.02,0.06,0.01,0.2,0.03,0.26l0.09-0.19l-0.02-0.46L19.05,3.69z"/>
</svg>
