<?xml version="1.0" encoding="utf-8"?>
<!-- Generator: Adobe Illustrator 16.0.4, SVG Export Plug-In . SVG Version: 6.00 Build 0)  -->
<!DOCTYPE svg PUBLIC "-//W3C//DTD SVG 1.1//EN" "http://www.w3.org/Graphics/SVG/1.1/DTD/svg11.dtd">
<svg version="1.1" id="Ebene_1" xmlns="http://www.w3.org/2000/svg" xmlns:xlink="http://www.w3.org/1999/xlink" x="0px" y="0px"
	 width="29.762px" height="51.509px" viewBox="0 0 29.762 51.509" enable-background="new 0 0 29.762 51.509" xml:space="preserve">
<path fill-rule="evenodd" clip-rule="evenodd" fill="#1A1A18" d="M29,22.786c-0.027-0.127-0.178-0.471-0.285-0.62
	s-0.389-0.476-0.389-0.476l-0.408-0.565l-0.52-1.062l-0.873-1.792c0,0-0.594-1.182-0.889-1.678
	c-0.295-0.495-0.885-1.344-0.885-1.344l-0.309-0.502l0.029-0.072c0,0-1.555-1.942-1.778-2.259c-0.223-0.318-0.775-0.99-0.978-1.215
	c-0.317-0.355-0.926-1.002-1.289-1.293c-0.306-0.244-0.762-0.404-1.003-0.485c-0.331-0.109-0.958-0.267-1.505-0.321
	c-0.514-0.051-0.896-0.072-1.238-0.077c0.1-0.189,0.238-0.458,0.336-0.675c0.162-0.36,0.271-0.629,0.271-0.629
	s0.155-0.078,0.248-0.175c0.16-0.172,0.191-0.331,0.246-0.495c0.055-0.165,0.106-0.577,0.119-0.683
	c0.015-0.104-0.126-0.33-0.126-0.33s0.198-0.417,0.28-0.853c0.085-0.436,0.069-0.728,0.072-1.113c0.004-0.384-0.271-1.168-0.61-1.56
	c-0.157-0.202-0.292-0.308-0.603-0.456c-0.133-0.064-0.277-0.155-0.459-0.202c-0.01-0.049,0.014-0.233-0.096-0.422
	c-0.156-0.272-0.34-0.501-0.65-0.688c-0.32-0.194-0.971-0.245-1.334,0c-0.388,0.264-0.385,0.334-0.604,0.675
	c-0.196,0.309-0.092,0.488-0.092,0.488s-0.718,0.406-1.039,0.876c-0.278,0.409-0.709,1.039-0.314,2.671l0.2,0.74
	c0,0-0.084-0.007-0.147,0.161c-0.064,0.166-0.009,0.469,0.042,0.653c0.052,0.183,0.329,0.541,0.514,0.688
	c0.185,0.146,0.275,0.148,0.275,0.148s0.216,0.39,0.434,0.759c0.216,0.37,0.32,0.589,0.32,0.589l0.003,0.006
	c-0.537,0.067-0.974,0.138-1.141,0.167c-0.586,0.104-1.153,0.22-1.617,0.54c-0.464,0.319-1.294,1.223-1.722,1.87
	c-0.39,0.59-0.933,1.327-1.208,1.769c-0.178,0.286-0.506,0.802-0.687,1.104c-0.251,0.421-0.226,0.438-0.164,0.518
	c0.056,0.072,0,0.067,0,0.067s-0.333,0.533-0.717,1.068c-0.383,0.535-1.607,2.25-1.961,2.604s-1.752,1.853-1.873,1.92
	s-0.376,0.064-0.603,0.158s-0.604,0.356-0.7,0.451c-0.095,0.095-0.452,0.433-0.577,0.607c-0.124,0.174-0.229,0.586-0.247,0.733
	c-0.017,0.148-0.029,0.379-0.029,0.379s0.01,0.11,0.139,0.246c0.129,0.137,0.345,0.127,0.345,0.127s0.098,0.165,0.175,0.18
	s0.195-0.005,0.195-0.005s0.138,0.178,0.26,0.264c0.121,0.086,0.312,0.068,0.312,0.068s0.313-0.064,0.45-0.109
	c0.136-0.047,0.285-0.205,0.447-0.287c0.272-0.136,0.458-0.355,0.458-0.355s0.349-0.303,0.505-0.556
	c0.156-0.252,0.414-0.795,0.414-0.795s0.925-0.826,1.527-1.304c0.602-0.478,1.747-1.444,1.747-1.444s0.702-0.613,1.067-1.022
	c0.366-0.408,1.028-1.257,1.028-1.257l0.083-0.18l0.077,0.048c0,0,0.374,0.221,0.506,0.224c0.039,0.001,0.117,0.089,0.187-0.034
	c0.201-0.356,0.838-1.419,0.838-1.419s0.115,0.356,0.15,0.638c0.079,0.613,0.263,1.887,0.358,3.058
	c0.073,0.883,0.133,2.592,0.133,2.592l-0.072,0.562c0,0,0.03,0.203-0.04,0.268c-0.07,0.063-0.24,0.238-0.256,0.404
	c-0.016,0.168,0.141,0.416,0.095,0.473s-0.166,0.264-0.313,0.473c-0.148,0.207-0.523,0.771-0.722,1.157s-1.378,2.776-1.378,2.776
	L7.723,31.92l-0.195,0.53l0.099,0.157c0,0-0.076,0.181-0.125,0.52c-0.048,0.34-0.056,1.125-0.036,1.356s0.037,0.822,0.037,0.822
	s-0.164,0.433-0.196,0.593c-0.033,0.158-0.081,0.473-0.031,0.69c0.05,0.217,0.096,0.384,0.159,0.526
	c0.062,0.144,0.174,0.274,0.174,0.274s0.077,0.438,0.088,0.755c0.01,0.316,0.359,4.979,0.359,4.979s0.029,1.303,0.038,1.609
	c0.007,0.014-0.128,0.086-0.141,0.189c-0.007,0.064-0.01,0.301-0.042,0.396c-0.031,0.096-0.136,0.278-0.259,0.358
	s-2.618,0.817-2.82,0.93c-0.203,0.112-0.684,0.462-0.744,0.644c-0.059,0.182,0.009,0.482,0.1,0.645
	c0.091,0.161,0.196,0.164,0.366,0.245s0.503,0.155,0.503,0.155l0.416,0.051c0,0-0.008,0.176,0.04,0.257
	c0.049,0.081,0.296,0.021,0.35,0.026c0.054,0.004,0.176-0.216,0.176-0.216l0.779,0.075l0.928,0.104c0,0,0.021,0.159,0.09,0.202
	c0.069,0.044,0.301,0.011,0.369-0.005c0.068-0.016,0.16-0.154,0.16-0.154L9.34,48.67l0.317-0.02c0,0,0.023,0.108,0.08,0.148
	c0.057,0.041,0.276-0.021,0.33-0.052s0.065-0.177,0.065-0.177s0.424-0.08,0.519-0.141c0.095-0.061,0.024-0.265-0.019-0.353
	c-0.043-0.087,0.133-0.323,0.211-0.532c0.078-0.209,0.099-0.51,0.096-0.748c-0.002-0.238-0.278-0.82-0.278-0.82l0.056-1.061
	c0,0,0.048-0.693,0.059-0.899c0.004-0.097,0.081-0.815,0.156-1.458c0.083-0.721,0.118-0.863,0.167-1.367
	c0.05-0.503,0.077-0.615,0.104-1.06c0.026-0.444,0.042-0.96,0.011-1.363c-0.032-0.403-0.086-0.501-0.138-0.649
	c-0.051-0.148-0.33-0.727-0.338-0.777c0.021-0.057,0.234-0.544,0.232-0.986c-0.003-0.443-0.103-0.779-0.191-1.092
	c0,0,0.139-0.5,0.25-0.66c0.134-0.193,0.491-0.555,0.491-0.555l1.257,0.363c0,0,0.329,0.123,0.413,0.118
	c0.083-0.005,0.155-0.155,0.155-0.155l1.035-2.224l-0.041,1.323l0.006,1.147c0,0,0.028,0.14,0.116,0.165
	c0.089,0.027,0.645,0.066,0.645,0.066s0.082,0.398,0.146,0.615c0.064,0.217,0.303,1.342,0.311,1.461
	c0.007,0.119,0.06,0.379,0.03,0.535c-0.028,0.158-0.042,0.262-0.059,0.395c-0.019,0.131,0.013,0.459,0.03,0.689
	c0.008,0.073,0.06,0.277,0.088,0.336c0.051,0.106-0.022,0.227-0.032,0.525c-0.005,0.168,0.005,0.434,0.038,0.754
	c0.025,0.256,0.109,0.844,0.14,1.115c0.096,0.852,0.159,1.391,0.22,1.835s0.186,1.29,0.226,1.753s0.164,1.418,0.139,1.535
	c-0.026,0.117-0.087,0.312-0.087,0.312s-0.064-0.011-0.052,0.192s0.046,0.614,0.046,0.614s-0.227,0.761-0.263,0.896
	c-0.036,0.137-0.198,0.652-0.219,0.918c-0.021,0.267,0.042,0.676,0.084,0.808c0.042,0.133,0.112,0.263,0.21,0.351
	c0.096,0.088,0.229,0.172,0.229,0.172s0.03,0.16,0.075,0.197c0.043,0.037,0.271,0.032,0.328,0.039
	c0.058,0.008,0.057-0.145,0.057-0.145l0.828,0.01c0,0,0.057,0.113,0.102,0.143c0.043,0.029,0.292,0.023,0.338-0.006
	c0.047-0.029,0.079-0.232,0.079-0.232s0.082-0.064,0.192-0.125c0.111-0.059,0.203-0.156,0.203-0.156s0.108-0.443,0.142-0.852
	c0.034-0.407-0.01-1.139-0.01-1.139l0.033-0.472c0,0,0.03-0.209,0.056-0.371c0.024-0.161-0.077-0.251-0.077-0.251
	s0.033-0.422,0.037-0.557c0.005-0.136-0.08-0.408-0.08-0.408l-0.008-0.582c0,0,0.16-1.481,0.204-2.217
	c0.043-0.736,0.137-2.341,0.159-2.781c0.024-0.441-0.005-1.471-0.023-1.823s-0.171-0.438-0.173-0.527
	c0-0.088,0.057-0.194,0.104-0.397c0.064-0.281-0.02-0.539-0.043-0.688s-0.148-0.317-0.143-0.38c0.005-0.062,0.102-0.57,0.203-0.848
	c0.1-0.277,0.428-1.145,0.428-1.145s0.357-0.031,0.535-0.037c0.178-0.008,0.188-0.021,0.207-0.229s0.036-0.752,0.036-0.752
	l0.071-7.009l0.167-0.788l0.058-1.13l0.006-0.86l-0.084-0.512c0,0-0.092-0.567-0.15-0.787s-0.13-0.439-0.13-0.439l0.032-0.34
	c0,0,0.054-0.221,0.092-0.784c0.039-0.563,0.172-2.065,0.213-2.503c0.04-0.438,0.102-1.153,0.163-1.581
	c0.063-0.428,0.146-0.768,0.146-0.768s0.841,0.943,0.953,1.08s0.143,0.1,0.266,0.012c0.123-0.087,0.642-0.51,0.711-0.558
	c0.07-0.048,0.431,0.396,0.571,0.585c0.14,0.189,1.71,2.374,1.956,2.75c0.245,0.377,0.995,1.573,0.995,1.573l-0.019,0.812
	c0,0,0.037,0.408,0.095,0.613c0.058,0.204,0.147,0.668,0.147,0.668s0.102,0.228,0.168,0.341c0.068,0.114,0.256,0.306,0.445,0.405
	c0.082,0.044,0.201,0.074,0.412,0.111c0.107,0.019,0.244,0.119,0.357,0.142c0.17,0.035,0.307-0.011,0.363-0.025
	c0.17-0.042,0.336-0.164,0.375-0.179c0.039-0.014,0.053-0.286,0.053-0.286s0.06,0.021,0.143-0.075
	c0.084-0.098,0.125-0.319,0.125-0.319s0.044-0.116,0.094-0.198c0.049-0.082,0.126-0.393,0.122-0.656
	C29.032,22.966,29.028,22.912,29,22.786z"/>
<path id="skin-arm-r" fill-rule="evenodd" clip-rule="evenodd" fill="#F9CAA9" d="M1.34,22.198c0,0,0.263-0.326,0.389-0.412
	c0.126-0.085,0.401-0.333,0.636-0.443c0.235-0.109,0.608-0.134,0.608-0.134l0.374-0.383c0,0,1.243-1.167,1.761-1.789
	c0.469-0.563,1.371-1.763,1.371-1.763l1.332-1.849c0,0,0.546,0.383,0.856,0.555c0.442,0.243,0.816,0.514,0.816,0.514
	s-0.312,0.511-0.498,0.769c-0.185,0.258-0.584,0.681-0.688,0.82s-0.453,0.438-0.453,0.438l-3.747,3.17l-0.166,0.264l-0.126,0.344
	l-0.314,0.466c0,0-0.386,0.32-0.419,0.347C3.04,23.137,3.005,23.13,3.005,23.13s-0.066-0.286-0.148-0.372
	c-0.125-0.131-0.393-0.238-0.411-0.248c-0.018-0.01,0.299-0.162,0.299-0.162s0.497-0.229,0.511-0.316
	c0.014-0.086-0.105-0.164-0.197-0.139c-0.092,0.025-0.192,0.038-0.192,0.038s-0.125,0.097-0.286,0.134
	c-0.159,0.038-0.604,0.053-0.604,0.053s-0.29,0.262-0.418,0.33c-0.129,0.067-0.225,0.099-0.315,0.037
	C1.203,22.458,1.34,22.198,1.34,22.198z"/>
<path id="skin-arm-r-1" fill="#F9CAA9" d="M1.344,23.11c0,0,0.446-0.172,0.528-0.232c0.083-0.062,0.158-0.174,0.145-0.265
	c-0.013-0.092-0.064-0.101-0.064-0.101s-0.166,0.057-0.261,0.117c-0.096,0.061-0.204,0.12-0.354,0.137
	c-0.089,0.012-0.186,0.14-0.186,0.14s-0.034,0.071,0.023,0.128C1.233,23.092,1.344,23.11,1.344,23.11z"/>
<path id="skin-arm-r-2" fill="#F9CAA9" d="M2.001,23.317l0.268-0.171c0,0,0.112-0.116-0.018-0.229
	c-0.059-0.049-0.147-0.047-0.147-0.047l-0.148,0.164l-0.234,0.117l-0.091,0.076c0,0-0.018,0.042,0.021,0.096
	c0.038,0.057,0.075,0.059,0.075,0.059L2.001,23.317z"/>
<path id="skin-arm-r-3" fill="#F9CAA9" d="M2.137,23.415L2.36,23.29l0.152-0.182c0,0,0.096-0.049,0.142,0
	c0.045,0.05,0.016,0.23,0.016,0.23l-0.21,0.199c0,0-0.2,0.072-0.279,0.064c-0.077-0.009-0.135-0.092-0.135-0.092l0.034-0.078
	L2.137,23.415z"/>
<path id="skin-arm-l" fill-rule="evenodd" clip-rule="evenodd" fill="#F9CAA9" d="M28.545,23.918c0,0-0.03,0.119-0.063,0.176
	s-0.124,0.098-0.124,0.098l0.002-0.143l-0.061-0.254l-0.052-0.21c0,0-0.073-0.195-0.051-0.166c0.022,0.03-0.083-0.018-0.091,0.065
	c-0.008,0.084,0.131,0.464,0.131,0.464l0.02,0.354c0,0-0.039,0.224-0.125,0.274s-0.184,0.052-0.266-0.012
	c-0.082-0.065-0.062-0.1-0.062-0.1s0.136-0.179,0.145-0.221c0.009-0.041-0.131-0.332-0.131-0.332s-0.133-0.176-0.228-0.277
	s-0.349-0.334-0.408-0.332c-0.06,0-0.108,0.105-0.108,0.105s0.104,0.524,0.066,0.423c-0.038-0.101,0.136,0.296,0.136,0.296
	s0.065,0.205-0.015,0.219c-0.082,0.016-0.227-0.072-0.227-0.072s-0.234-0.23-0.296-0.354c-0.061-0.124-0.239-0.95-0.255-1.138
	c-0.016-0.188,0.057-0.938,0.057-0.938l-0.387-0.686c0,0-2.374-3.53-2.688-3.936c-0.314-0.405-0.509-0.555-0.509-0.555l0.613-0.592
	l0.632-0.851l0.604,0.803l1.08,1.781l1.717,3.5l0.195,0.319c0,0,0.527,0.585,0.59,0.71c0.062,0.124,0.191,0.348,0.191,0.348
	s0.088,0.17,0.114,0.243s0.079,0.265,0.069,0.374c-0.01,0.11-0.025,0.141-0.031,0.178c-0.004,0.036-0.072,0.164-0.072,0.164
	l-0.091-0.42c0,0-0.035-0.075-0.066-0.102c-0.035-0.03-0.067-0.012-0.077,0.014c-0.018,0.047,0.111,0.508,0.111,0.508L28.545,23.918
	z"/>
<path id="player-shirt" fill-rule="evenodd" clip-rule="evenodd" fill="#0068B4" d="M22.529,16.478
	c-0.202,0.179-0.459,0.404-0.649,0.509c-0.086,0.048-0.156-0.001-0.164-0.012c-0.1-0.125-0.277-0.346-0.485-0.609
	c-0.211-0.266-0.414-0.525-0.483-0.625c-0.162-0.234-0.385-0.584-0.464-0.708c-0.077-0.124-0.202-0.304-0.286-0.417
	c-0.085-0.114-0.858-0.901-0.964-0.971c-0.106-0.069-0.221-0.201-0.302-0.244c-0.082-0.042-0.174-0.075-0.209-0.013
	c-0.036,0.062-0.071,0.139-0.011,0.224c0.061,0.086,0.419,0.293,0.503,0.368c0.186,0.164,0.512,0.585,0.488,0.704
	c-0.023,0.118-0.605,0.656-0.665,0.745c-0.06,0.089-0.087,0.183-0.011,0.223c0.076,0.041,0.139,0.078,0.312,0.019
	c0.174-0.058,0.652-0.614,0.652-0.614l0.203,0.219l0.355,0.601c0,0-0.113,0.783-0.184,1.206c-0.068,0.414-0.162,1.706-0.245,2.457
	c-0.037,0.341-0.176,2.11-0.185,2.434c-0.006,0.221-0.047,0.456-0.102,0.486c-0.074,0.041-0.123,0.045-0.438,0.08
	c-0.314,0.033-1.283,0.195-1.789,0.307c-0.403,0.088-1.17,0.113-1.487,0.121c-0.316,0.008-0.757-0.016-1.175-0.082
	s-1.039-0.18-1.379-0.244c-0.339-0.062-0.644-0.161-0.74-0.168c-0.138-0.01-0.137,0.014-0.134-0.197
	c0.004-0.211,0.021-0.734,0.021-0.734s-0.028-0.655-0.086-1.53c-0.081-1.233-0.276-2.855-0.296-3.059
	c-0.074-0.733-0.239-1.356-0.323-1.745c-0.084-0.39-0.093-1.148-0.158-1.624c-0.037-0.265-0.09-0.442-0.185-0.418
	c-0.056,0.014-0.071,0.194-0.069,0.407c0.003,0.282,0.041,1.042,0.044,1.125c0.006,0.146-0.165,0.456-0.378,0.818
	c-0.213,0.362-0.422,0.728-0.502,0.898c-0.082,0.171-0.114,0.171-0.296,0.111c-0.218-0.073-0.788-0.475-1.292-0.78
	c-0.505-0.305-0.905-0.6-1.01-0.672c-0.107-0.071,0.028-0.264,0.028-0.264s1.613-2.496,1.755-2.711
	c0.581-0.884,1.365-1.724,1.798-1.98c0.505-0.299,0.937-0.308,1.442-0.413c0.436-0.09,0.956-0.161,0.956-0.161l0.73,1.838
	l0.586,1.507c0,0,0.746-1.479,0.944-1.965c0.251-0.616,0.722-1.545,0.722-1.545s0.782,0.051,1.346,0.136
	c0.628,0.095,1.109,0.222,1.449,0.379c0.818,0.378,2.947,3.126,3.156,3.411c0.271,0.371,1.115,1.421,1.115,1.421
	s-0.009,0.094-0.075,0.213c-0.067,0.119-0.328,0.465-0.514,0.657S22.731,16.297,22.529,16.478z"/>
<path fill-rule="evenodd" clip-rule="evenodd" fill="#1A1A18" d="M18.528,20.754c-0.041,0.004-0.091-0.151-0.078-0.441
	c0.012-0.29,0.152-0.854,0.217-1.184c0.064-0.33-0.043-0.918-0.07-1.013c-0.027-0.095-0.116-0.17-0.039-0.221
	c0.077-0.051,0.336-0.032,0.449,0.139c0.113,0.17,0,0.324-0.007,0.572c-0.007,0.292-0.3,1.607-0.326,1.776
	C18.647,20.55,18.567,20.75,18.528,20.754z"/>
<path fill-rule="evenodd" clip-rule="evenodd" fill="#1A1A18" d="M13.809,21.415c-0.093,0.018-0.076-0.468-0.135-0.592
	c-0.059-0.124-0.143-1.337-0.143-1.337s0.104-0.889,0.041-1.255c-0.062-0.366-0.145-0.912-0.229-1.226
	c-0.084-0.315,0.194-0.043,0.302,0.243c0.106,0.287,0.207,0.608,0.267,0.872c0.059,0.265,0.172,0.664,0.169,0.838
	c-0.004,0.174-0.118,0.602-0.107,1.017C13.985,20.391,13.899,21.397,13.809,21.415z"/>
<polygon id="skin-leg-l" fill="#F9CAA9" points="16.084,37.045 17.002,37.075 17.658,37.065 18.3,36.922 18.397,36.553 
	18.617,35.838 18.869,34.948 17.059,34.958 15.614,34.875 15.733,35.491 15.851,36.048 15.982,36.606 "/>
<path fill-rule="evenodd" clip-rule="evenodd" fill="#1A1A18" d="M16.884,36.239c0.112,0.039,0.235,0.037,0.356-0.038
	c0.122-0.075-0.021-0.21-0.021-0.21s-0.418-0.027-0.507,0c-0.09,0.028-0.096,0.076-0.017,0.169
	C16.776,36.251,16.884,36.239,16.884,36.239S16.773,36.199,16.884,36.239z"/>
<path id="player-sock-l" fill-rule="evenodd" clip-rule="evenodd" fill="#0068B4" d="M16.01,38.516
	c0.077,0.143,0.42,0.179,0.496,0.26c0.077,0.082,0.113,0.127-0.013,0.193c-0.126,0.067-0.387,0.156-0.433,0.291
	c-0.045,0.135-0.006,0.948,0.04,1.261c0.047,0.313,0.431,3.724,0.454,3.993c0.021,0.269,0.072,0.887,0.111,1.188
	c0.037,0.3,0.086,0.812,0.086,0.812s-0.061,0.509-0.059,0.579c0,0.07,0.014,0.281,0.07,0.3c0.059,0.019,0.418-0.415,0.542-0.438
	c0.124-0.022,0.29,0.167,0.347,0.225s0.174,0.234,0.261,0.254c0.086,0.02,0.22-0.061,0.276-0.074
	c0.055-0.013,0.014-0.124,0.052-0.268c0.038-0.143-0.077-0.418-0.071-0.463c0.008-0.045,0.094-0.1,0.131-0.236
	c0.036-0.135-0.035-0.352-0.025-0.529c0.012-0.179,0.098-1.016,0.098-1.016s0.189-3.135,0.211-3.738
	c0.021-0.605-0.024-1.805-0.024-1.869s0.038-0.207-0.045-0.293c-0.067-0.07-0.194-0.02-0.303-0.029
	c-0.108-0.008-0.236-0.086-0.263-0.119c-0.026-0.034-0.025-0.104,0.014-0.193c0.037-0.092,0.287-0.256,0.386-0.361
	c0.099-0.104,0.099-0.326,0.106-0.502c0.01-0.25-0.054-0.296-0.102-0.365c-0.017-0.023-0.217,0.023-0.307,0.037
	c-0.09,0.013-0.265,0.064-0.52,0.066c-0.254,0-0.676,0.014-0.943,0c-0.269-0.014-0.453-0.082-0.528,0.004s-0.079,0.096-0.099,0.226
	s-0.043,0.269-0.049,0.397S15.934,38.374,16.01,38.516z"/>
<path id="player-shorts" fill-rule="evenodd" clip-rule="evenodd" fill="#FFFFFF" d="M12.943,34.024
	c0.013,0.003,0.045-0.028,0.078-0.091c0.21-0.421,0.724-1.54,0.724-1.54l0.657-1.365l-0.009-1.801c0,0,0.094-0.447,0.017-0.561
	c-0.076-0.111-0.739-0.609-0.87-0.655c-0.133-0.046-0.232-0.078-0.287-0.185c-0.055-0.107,0.452-0.043,0.555-0.032
	c0.158,0.017,0.308,0.197,0.44,0.265c0.133,0.068,0.258,0.209,0.326,0.195c0.068-0.013-0.131-0.796-0.162-0.91
	c-0.031-0.113,0.305-0.535,0.387-0.549s0.02,1.104,0.061,1.191c0.041,0.089,0.6,0.058,0.622,0.098
	c0.022,0.041-0.025,0.168-0.108,0.275s-0.312,0.435-0.393,0.517c-0.08,0.081-0.213,0.144-0.22,0.224
	c-0.008,0.08-0.03,3.449-0.03,3.449l0.012,1.755c0,0-0.004,0.101,0.05,0.12c0.054,0.019,1.288,0.104,1.712,0.111
	s1.164,0.03,1.479,0.036c0.426,0.009,1.008-0.015,1.008-0.015s0.553,0.006,0.635,0.006c0.039-0.002,0.079-0.006,0.095-0.105
	c0.017-0.107,0.01-0.311,0.01-0.311l0.005-2.624c0,0,0.016-3.618,0.021-3.894c0.008-0.273,0.061-0.458-0.043-0.46
	c-0.104-0.003-0.518,0.185-0.598,0.154c-0.078-0.031-0.178-0.097-0.164-0.188s0.051-0.092,0.149-0.123
	c0.245-0.076,0.63-0.414,0.708-0.507c0.077-0.093,0.09-0.272,0.127-0.419c0.039-0.146,0.049-0.516,0.079-0.714
	s0.009-0.339,0.017-0.511c0.006-0.172-0.033-0.348-0.109-0.553c-0.046-0.127-0.123-0.149-0.177-0.143
	c-0.14,0.016-0.667,0.09-0.869,0.03s-0.593-0.235-0.495-0.285c0.098-0.051,0.828-0.247,1.022-0.238s0.431,0.104,0.477,0.046
	c0.046-0.057-0.077-0.812-0.185-0.818c-0.106-0.006-0.297,0.014-0.456,0.027c-0.159,0.012-0.46,0.074-0.696,0.113
	c-0.186,0.029-0.485,0.07-1.018,0.17c-0.534,0.098-1.531,0.172-1.874,0.162c-0.344-0.01-1.921-0.238-2.181-0.291
	c-0.261-0.055-1.007-0.229-1.08-0.209c-0.074,0.021-0.218,0.08-0.211,0.191c0.005,0.111,0.04,0.298,0.132,0.315
	c0.23,0.044,0.722,0.013,0.707,0.064c-0.02,0.072-0.441,0.157-0.571,0.229c-0.129,0.073-0.31,0.139-0.483,0.352
	c-0.172,0.215-0.88,1.432-1.093,1.832c-0.213,0.4-0.626,1.29-0.843,1.756c-0.218,0.465-0.693,1.412-0.84,1.775
	s-0.73,1.754-0.828,1.969c-0.099,0.215-0.328,0.81-0.338,0.853c-0.01,0.042-0.028,0.077,0.037,0.132
	c0.065,0.057,1.64,0.581,1.64,0.581l2.2,0.771C11.896,33.694,12.854,34.002,12.943,34.024z"/>
<path id="player-sock-r" fill="#0068B4" d="M8.402,42.825c-0.033-0.402-0.092-2.143-0.138-2.654c-0.046-0.511-0.184-2.1-0.184-2.1
	s0.028-0.311,0.04-0.412c0.011-0.1,0.185-0.161,0.239-0.25c0.055-0.09-0.194-0.185-0.36-0.324c-0.166-0.139-0.212-0.437-0.212-0.437
	s-0.091-0.29-0.05-0.518c0.04-0.228,0.099-0.462,0.228-0.495c0.128-0.035,0.576,0.035,1.041,0.028
	c0.466-0.007,1.192-0.06,1.281-0.026c0.088,0.035,0.151,0.095,0.184,0.226c0.033,0.131,0.052,0.388,0.054,0.575
	s0.029,0.379-0.124,0.527c-0.154,0.15-0.52,0.264-0.567,0.35s0.024,0.237,0.1,0.278c0.075,0.04,0.268-0.045,0.384,0.024
	c0.116,0.067,0.304,0.586,0.381,0.802c0.078,0.217,0.112,0.516,0.121,0.675c0.008,0.158,0.012,0.385-0.004,0.662
	c-0.018,0.276-0.031,0.535-0.065,0.869s-0.274,2.443-0.274,2.443l-0.118,1.479l-0.078,1.006c0,0-0.014,0.133-0.114,0.16
	c-0.172,0.045-0.675,0.338-1.004,0.328c-0.328-0.01-0.757-0.418-0.771-0.424s0.065-0.236,0.081-0.512
	C8.487,44.831,8.436,43.227,8.402,42.825z"/>
<polygon id="skin-leg-r" fill="#F9CAA9" points="10.802,34.117 10.506,34.6 10.269,35.194 9.093,35.213 7.953,35.167 7.857,34.057 
	7.881,33.341 8.033,32.838 9.686,33.43 10.461,33.692 10.991,33.904 "/>
<path fill="#1A1A18" d="M8.358,34.257c-0.1-0.126-0.116-0.4-0.116-0.4l0.006-0.146c0,0,0.152,0.177,0.265,0.281
	c0.113,0.104,0.327,0.261,0.327,0.261S8.457,34.383,8.358,34.257z"/>
<path id="hair-p" fill="#F7DD7F" d="M16.134,1.534c0,0-0.309-0.72-1.096-0.708c-0.755,0.011-1.069,0.733-1.069,0.733
	s0.332-0.355,1.023-0.366C15.748,1.183,16.134,1.534,16.134,1.534z"/>
<path fill="#FFFFFF" d="M16.108,1.782c0,0-0.395-0.336-1.116-0.326c-0.609,0.009-1.013,0.405-1.013,0.405s0.482-0.187,1.043-0.196
	C15.565,1.657,16.108,1.782,16.108,1.782z"/>
<path id="hair" fill-rule="evenodd" clip-rule="evenodd" fill="#F7DD7F" d="M13.293,5.208c0.008,0,0.125,0.107,0.133,0.087
	c0.145-0.385,0.132-0.942,0.036-1.369c-0.026-0.115,0.226,0.165,0.293,0.616C13.823,4.993,13.731,5.2,13.731,5.2
	s1.178-1.786,1.175-1.747c-0.045,0.71-0.326,0.733-0.851,1.699c-0.031,0.109,1.303-1.438,1.419-1.68
	c0.121-0.028,0.16,0.227-1.177,1.763c-0.09,0.125,1.704-1.246,1.772-1.362c0.063-0.109-0.194,0.279-1.041,1.084
	c-0.089,0.083,1.548-0.342,1.725-1.477c0.009-0.058,0.189,0.042,0.229,0.789c0.024,0.534,0.222,1.505,0.233,1.407
	c0.018-0.135,0.137-0.226,0.304,0.174c0.062-0.084,0.214-0.643,0.3-1.398c0.047-0.729-0.256-1.497-0.668-1.895
	c-0.296-0.275-0.807-0.542-1.704-0.596c-0.778-0.048-1.156,0.012-1.714,0.263c-0.54,0.278-0.841,0.625-0.988,0.866
	c-0.146,0.239-0.34,0.567-0.29,1.292c0.017,0.544,0.245,1.299,0.334,1.537c0.074,0.196,0.198,0.401,0.179,0.345
	c-0.153-0.438-0.005-0.669-0.024-0.792c-0.026-0.181,0.243,0.394,0.228,0.206C13.138,5.25,13.293,5.208,13.293,5.208z"/>
<path id="skin-face" fill-rule="evenodd" clip-rule="evenodd" fill="#F9CAA9" d="M17.26,6.001c-0.119,0.014-0.123,0.348-0.123,0.348
	s-0.193-0.512-0.244-0.744c-0.049-0.232-0.115-0.354-0.154-0.715c-0.055-0.525-0.087-0.509-0.087-0.509s-0.146,0.246-0.644,0.542
	c-0.069,0.059-0.67,0.298-0.852,0.33c-0.182,0.033-0.29-0.061-0.364-0.013L14.49,5.456c-0.091,0.083-0.326,0.052-0.327-0.012
	c-0.001-0.052-0.14,0.007-0.187-0.048c-0.037-0.011-0.262,0.155-0.299,0.13c-0.027-0.074-0.028-0.102-0.028-0.102l-0.046,0.284
	L13.457,5.62c0,0-0.047,0.106-0.053,0.274c0.012,0.177-0.06,0.364-0.06,0.364l-0.138-0.123l0.034,0.854c0,0-0.171-0.135-0.276-0.272
	c-0.105-0.138-0.179-0.28-0.179-0.28s-0.123,0.08-0.109,0.226c0.031,0.319,0.329,0.676,0.459,0.779
	c0.068,0.054,0.223-0.007,0.223-0.007l0.062,0.116c0,0,0.283,0.556,0.604,1.036c0.308,0.422,0.739,0.938,1.293,0.93
	c0.565-0.009,0.902-0.479,1.229-0.968c0.287-0.482,0.501-1.071,0.501-1.071s0.28-0.107,0.354-0.386
	c0.088-0.337,0.158-0.537,0.111-0.723S17.379,5.988,17.26,6.001z M15.66,5.863c0.136-0.01,0.238,0.07,0.711-0.083L15.61,6.066
	C15.61,6.066,15.39,5.887,15.66,5.863z M15.375,7.327l0.131,0.09c0,0-0.146,0.052-0.24,0.032
	C15.334,7.424,15.375,7.327,15.375,7.327z M15.286,8.005l0.09,0.07c-0.06,0.023-0.101,0.101-0.231,0.026
	C15.118,8.029,15.205,8.007,15.286,8.005z M14.963,7.33l0.162,0.122l-0.124,0.023l-0.11-0.035l-0.026-0.017L14.963,7.33z
	 M14.675,5.911c0.272,0.014,0.058,0.201,0.058,0.201l-0.771-0.263C14.438,5.987,14.539,5.904,14.675,5.911z M14.186,6.405
	l-0.039-0.018l-0.229,0.016L13.535,6.22l0.484,0.012c0.051,0,0.396-0.059,0.568-0.036c0.264,0.033,0.275,0.233,0.275,0.233
	s0.031,0.213-0.06,0.239c-0.034,0.009,0.078-0.119-0.069-0.246c-0.025-0.02-0.124,0.097-0.188,0.107
	c-0.172,0.031-0.219,0.005-0.219,0.005C14.137,6.463,14.186,6.405,14.186,6.405z M15.633,8.388
	c-0.095,0.009-0.332,0.037-0.332,0.037s-0.1,0.141-0.046,0.142c0.074,0,0.188,0.013,0.188,0.013l0.01,0.078l-0.135,0.053
	c0,0-0.258,0.01-0.293-0.106c-0.02-0.063,0.023-0.166,0.023-0.166s-0.084-0.045-0.144-0.064c-0.132-0.044-0.358-0.021-0.358-0.021
	l-0.17-0.081c0,0,0.078-0.013,0.108-0.023c0.101-0.034,0.226-0.002,0.369-0.013c0.147-0.011,0.171-0.197,0.374-0.045
	c0.057,0.042,0.101-0.031,0.224,0.004c0.124,0.035,0.269,0.001,0.269,0.001s0.356-0.047,0.286,0.016
	C15.924,8.29,15.773,8.375,15.633,8.388z M16.49,6.365l-0.229-0.009l-0.038,0.019c0,0,0.051,0.056-0.139,0.133
	c0,0-0.047,0.027-0.219,0.001c-0.064-0.008-0.168-0.122-0.189-0.102c-0.146,0.132-0.029,0.256-0.062,0.248
	c-0.094-0.022-0.066-0.237-0.066-0.237s0.004-0.2,0.268-0.241c0.17-0.028,0.519,0.021,0.568,0.019l0.484-0.027L16.49,6.365z"/>
<path id="skin-neck" fill-rule="evenodd" clip-rule="evenodd" fill="#F9CAA9" d="M15.29,11.907l-0.895-2.315
	c0,0,0.262,0.34,0.896,0.331c0.688-0.01,1.088-0.423,1.088-0.423L15.29,11.907z"/>
</svg>
