<?xml version="1.0" encoding="utf-8"?>
<!-- Generator: Adobe Illustrator 16.0.4, SVG Export Plug-In . SVG Version: 6.00 Build 0)  -->
<!DOCTYPE svg PUBLIC "-//W3C//DTD SVG 1.1//EN" "http://www.w3.org/Graphics/SVG/1.1/DTD/svg11.dtd" [
	<!ENTITY ns_flows "http://ns.adobe.com/Flows/1.0/">
	<!ENTITY ns_extend "http://ns.adobe.com/Extensibility/1.0/">
	<!ENTITY ns_ai "http://ns.adobe.com/AdobeIllustrator/10.0/">
	<!ENTITY ns_graphs "http://ns.adobe.com/Graphs/1.0/">
]>
<svg version="1.1" id="Ebene_1" xmlns:x="&ns_extend;" xmlns:i="&ns_ai;" xmlns:graph="&ns_graphs;"
	 xmlns="http://www.w3.org/2000/svg" xmlns:xlink="http://www.w3.org/1999/xlink" xmlns:a="http://ns.adobe.com/AdobeSVGViewerExtensions/3.0/"
	 x="0px" y="0px" width="25.5px" height="53px" viewBox="0 0 25.5 53" style="enable-background:new 0 0 25.5 53;"
	 xml:space="preserve">
<style type="text/css">
<![CDATA[
	.st0{fill:#1A1A18;}
	.st1{fill-rule:evenodd;clip-rule:evenodd;fill:#1A1A18;}
	.st2{fill:#FBCDAA;}
	.st3{fill-rule:evenodd;clip-rule:evenodd;fill:#FBCDAA;}
	.st4{fill:#0068B4;}
	.st5{fill-rule:evenodd;clip-rule:evenodd;fill:#FFFFFF;}
	.st6{fill-rule:evenodd;clip-rule:evenodd;fill:#0068B4;}
]]>
</style>
<path class="st0" d="M0.6,27.13c0.07-0.15,0.41-0.66,0.5-0.79c0.09-0.13,0.46-0.36,0.54-0.46c0.08-0.1,0.94-3.02,0.94-3.02
	l0.43-1.94l0.13-0.8l0.16-0.96L3.56,18c0,0-0.05-0.08-0.12-0.12s0.11-1.29,0.14-1.72c0.03-0.43,0.11-1.02,0.11-1.5
	c0-0.48-0.01-2.07,0.03-2.54c0.02-0.2,0-0.31,0.03-0.49c0.04-0.24,0.12-0.52,0.14-0.62c0.03-0.17,0.06-0.25,0.16-0.42
	s0.35-0.4,0.47-0.51S5.49,9.3,5.49,9.3l0.07-0.07L5.48,9.07L5.12,9.01c0,0-0.19,0-0.32-0.01S4.5,8.93,4.46,8.89
	C4.36,8.81,4.25,8.58,4.25,8.58L4.01,7.91L3.86,7.54c0,0-0.21-0.33-0.24-0.36S3.33,7.13,3.25,7.13C3.17,7.14,3.14,7.12,3.07,7.04
	C3,6.97,2.94,6.95,2.93,6.86C2.89,6.67,2.89,5.97,2.89,5.97l0-0.64L2.81,5.12L2.57,4.77L2.49,3.2L2.17,2.83L2.11,2.17l0.05-0.3
	l0.2,0.08l0.08-0.24l0.24-0.12l0.1-0.56l0.4-0.33l0.57-0.12l0.32-0.12L4.5,0.13L5.42,0.2L6.5-0.02l0.12,0.11l1.13,0.24l0.29,0.36
	l0.46-0.01l0.61,0.89l0.82,1.44L9.75,3.18L9.65,3.6l0.2,0.5L9.72,4.66L9.57,4.99l-0.1,0.49L9.12,6.26L8.9,6.49l-0.2,0.42l0.07,0.41
	l1.2-0.09l1.23,0.01l0.39,0.09l0.67,0.37l0.76,0.53L13.8,8.9l0.67,0.62l0.89,1.1l0.84,0.94l0.59,0.64l0.09,0.21l-0.18,0.24
	l0.03,0.04l0.66,0.94l1.56,2.18l1.55,2.29l1.32,2.01c0,0,0.61,0.87,0.8,1.07c0.19,0.2,1.41,1.09,1.57,1.25
	c0.16,0.16,0.71,0.82,0.79,1.01c0.08,0.19,0.23,0.92,0.22,1.05c-0.01,0.13-0.08,0.37-0.12,0.45c-0.03,0.08-0.26,0.14-0.33,0.19
	c-0.06,0.05-0.25,0.21-0.32,0.25c-0.07,0.04-0.18,0.12-0.32,0.09c-0.14-0.03-0.57-0.37-0.57-0.37s0.06,0.07-0.07,0.1
	c-0.13,0.03-0.37-0.01-0.6-0.08s-0.47-0.33-0.7-0.53c-0.24-0.2-0.62-0.57-0.62-0.57s-0.19-0.19-0.29-0.4
	c-0.1-0.2-0.39-1.28-0.49-1.4c-0.1-0.13-1.53-1.85-1.53-1.85l-3.13-3.4l-0.81-0.79l-0.22-0.2l0.05,0.31l0.14,1.03l0.53,2.78
	l0.23,1.19c0,0-0.02,0.02,0.09,0.14c0.15,0.17,0.23,0.36,0.25,0.53c0.01,0.15,0.05,0.53,0.03,0.66s0.09,0.23,0.19,0.58
	s0.17,0.69,0.2,0.95s0.12,1.03,0.05,1.46c-0.07,0.43-0.15,1.07-0.2,1.24c-0.04,0.17-0.21,0.91-0.27,1.07
	c-0.07,0.15-0.14,0.44-0.19,0.74c-0.05,0.3-0.35,1.92-0.41,2.55c-0.08,0.88-0.22,2.33-0.25,2.97s-0.09,2.09-0.16,2.16
	s-0.09,0.12-0.09,0.12l-0.49-0.03h-0.45c0,0-0.07,0.65-0.05,0.8c0.02,0.15,0.21,0.6,0.28,0.69c0.07,0.09,0.28,0.26,0.35,0.34
	s0.14,0.11,0.27,0.31c0.09,0.15,0.22,0.53,0.26,0.66c0.04,0.12,0.2,0.21,0.28,0.26s0.15,0.09,0.28,0.17
	c0.13,0.09,0.27,0.38,0.38,0.52s0.59,1.27,0.59,1.27s0.62,1.55,0.71,1.81c0.1,0.26,0.45,1.38,0.52,1.62s0.36,1.19,0.43,1.49
	c0.07,0.3,0.4,1.63,0.42,1.7c0.02,0.07,0.18,0.2,0.17,0.34c-0.01,0.14,0.01,0.46,0.05,0.53c0.04,0.07,0.18,0.1,0.2,0.22
	c0.02,0.11-0.05,0.54-0.03,0.64c0.02,0.1,0.4,0.61,0.42,0.81c0.02,0.21-0.03,1.51-0.07,1.58c-0.04,0.08-0.04,0.23-0.17,0.31
	C19.52,52.56,19,52.62,19,52.62s-0.1,0.22-0.15,0.29s-0.31,0.02-0.38,0.01c-0.07,0-0.26-0.31-0.26-0.31l-0.54,0.01
	c0,0-0.07,0.25-0.12,0.27s-0.33,0-0.38-0.01s-0.16-0.22-0.16-0.22l-0.52,0.01l-0.84,0.03l-0.64,0.04l-0.51,0.04
	c0,0-0.06,0.14-0.13,0.19s-0.36,0.06-0.49,0.01s-0.11-0.2-0.11-0.2l-0.25,0l-0.18-0.03c0,0-0.04,0.19-0.12,0.25
	c-0.08,0.06-0.47-0.02-0.52-0.02s-0.14-0.28-0.14-0.28s-0.16-0.03-0.33-0.02s-0.49-0.11-0.61-0.17s-0.29-0.15-0.34-0.31
	s0.02-0.37,0.06-0.46s0.18-0.21,0.29-0.32c0.11-0.11,0.28-0.27,0.52-0.38c0.21-0.1,0.64-0.26,0.98-0.44
	c0.34-0.18,1.62-0.8,1.83-0.98c0.21-0.18,0.74-0.72,0.81-0.93c0.07-0.21,0.04-0.59,0.04-0.59s-0.01-0.36-0.08-0.61
	s-0.12-0.44-0.33-0.8s-1.25-2.23-1.52-2.69s-0.88-1.62-0.94-1.82s-0.09-0.34-0.09-0.34s-0.06-0.01-0.27-0.09
	c-0.16-0.06-0.37-0.16-0.5-0.33s-0.17-0.26-0.24-0.5c-0.07-0.25-0.1-0.46-0.14-0.59c-0.04-0.14-0.1-0.32-0.15-0.38
	c-0.05-0.06-0.41-0.53-0.57-0.68c-0.15-0.15-0.67-0.73-0.79-0.96s-0.3-0.49-0.3-0.49s-0.07-0.02-0.09,0.08
	c-0.03,0.1-0.12,0.42-0.2,0.56c-0.09,0.14-0.34,0.41-0.34,0.41S9.23,38.9,9.2,39c-0.03,0.1,0.04,0.15,0.03,0.3
	c-0.01,0.14-0.08,0.28-0.14,0.53c-0.06,0.25-0.3,1.04-0.48,1.55c-0.18,0.5-0.79,1.89-1.03,2.38c-0.25,0.49-1.43,2.67-1.49,2.81
	c-0.06,0.14-0.1,0.25-0.08,0.38c0.02,0.13,0.05,0.41,0.05,0.51c0,0.1,0.04,0.08,0.02,0.16c-0.02,0.08-0.18,0.45-0.23,0.53
	c-0.04,0.08-0.08,0.12-0.08,0.19c0,0.08,0.04,0.21,0.02,0.31c-0.02,0.11-0.17,0.57-0.21,0.69c-0.04,0.12-0.21,1.25-0.23,1.32
	s-0.11,0.23-0.16,0.33s-0.06,0.07-0.13,0.13C5,51.17,4.8,51.25,4.65,51.26c-0.15,0.02-0.54-0.14-0.54-0.14s0,0.12-0.1,0.14
	s-0.39-0.05-0.45-0.11c-0.06-0.05-0.03-0.14-0.03-0.14l-0.59-0.2l-0.18-0.05c0,0-0.06,0.11-0.12,0.13s-0.36-0.09-0.43-0.17
	c-0.07-0.08,0.01-0.22,0.01-0.22s-0.27-0.17-0.36-0.25c-0.09-0.08-0.27-0.33-0.3-0.53c-0.03-0.2,0.03-0.38,0.07-0.5
	c0.04-0.13,0.25-0.45,0.34-0.62c0.1-0.17,0.61-0.73,0.69-0.83c0.08-0.1,0.3-0.27,0.34-0.36C3.05,47.33,3.26,47,3.26,47
	s0.03-0.8,0.05-0.89c0.02-0.09,0.17-0.13,0.23-0.13C3.61,45.97,3.7,46,3.7,46s0.09-0.06,0.1-0.15s0.13-0.69,0.13-0.69
	s0.74-3.12,0.9-3.87s0.25-1.06,0.36-1.55s0.29-1.22,0.32-1.36c0.05-0.2,0.14-0.45,0.14-0.45s-0.03-0.2,0.02-0.51
	s0.11-0.49,0.23-0.77c0.12-0.28,0.32-0.4,0.32-0.4l0.04-0.74l0.08-1l0.06-0.57c0,0-0.38-0.13-0.45-0.22s0.03-0.31,0.17-0.73
	s0.88-2.79,0.78-2.41c-0.1,0.38,0.93-2.97,0.81-2.58c-0.12,0.4,0.84-3,0.77-2.77c-0.07,0.24,0.13-0.6,0.19-0.96
	c0.02-0.13,0-0.17,0.01-0.22c0.01-0.08-0.06-0.14-0.06-0.23c0-0.12,0.07-0.26,0.03-0.3c-0.07-0.07-0.2-0.23-0.26-0.48
	s0.05-0.51,0.03-0.41c-0.03,0.1,0.06-0.06,0.01-0.23s-1.2-3.62-1.2-3.62L6.96,18.4l-0.25-0.03c0,0-0.26,1.19-0.4,1.74
	c-0.14,0.54-0.38,1.01-0.6,1.52c-0.22,0.51-1.05,2.36-1.05,2.36l-0.96,2.28c0,0,0,0.65-0.01,0.85c-0.01,0.2-0.15,0.54-0.25,0.79
	s-0.39,0.63-0.39,0.63l-0.32,0.51c0,0-0.19,0.17-0.29,0.25s-0.22,0.12-0.38,0.12c-0.17,0-0.39-0.12-0.39-0.12s-0.12,0.11-0.2,0.11
	c-0.08,0-0.26-0.08-0.26-0.08s-0.09,0.1-0.15,0.11c-0.06,0.01-0.26-0.05-0.26-0.05l-0.26-0.16c0,0-0.11-0.22-0.15-0.38
	c-0.04-0.16-0.09-0.75-0.1-0.82S0.53,27.28,0.6,27.13z"/>
<path id="skin-arm-r" class="st3" d="M0.72,27.98c0.01-0.15,0.18-0.49,0.2-0.59c0.02-0.11,0.37-0.67,0.44-0.75s0.57-0.49,0.57-0.49
	l0.19-0.47L3,22.81l0.54-2.46l0.22-1.21l0.25-1.09l1,0.25l0.46,0.09l0.72,0.08c0,0-0.02,0.23-0.08,0.51s-0.23,1.05-0.31,1.28
	c-0.08,0.23-0.15,0.41-0.25,0.65c-0.11,0.24-2.24,5.11-2.25,5.17c-0.01,0.06-0.04,0.33-0.04,0.33s0.04,0.25,0.04,0.39
	c0,0.15-0.02,0.41-0.1,0.6c-0.08,0.2-0.35,0.56-0.35,0.56l-0.06,0.05c0,0-0.07-0.34-0.14-0.37c-0.06-0.03-0.21-0.04-0.3,0.01
	C2.25,27.71,2,27.71,2,27.71l0.23-0.31l0.4-0.6c0,0-0.17-0.01-0.3,0.01c-0.13,0.02-0.12,0.04-0.18,0.13
	c-0.06,0.09-0.13,0.18-0.23,0.27c-0.1,0.1-0.53,0.28-0.59,0.36s-0.21,0.49-0.27,0.53c-0.06,0.04-0.23,0.22-0.3,0.2
	C0.69,28.28,0.71,28.13,0.72,27.98z"/>
<path id="skin-arm-r-3" class="st2" d="M1.16,28.85c0,0,0.37-0.36,0.43-0.49s0.02-0.28,0.02-0.33c0-0.04-0.01-0.1-0.11-0.06
	C1.39,28,1.22,28.25,1.22,28.25l-0.24,0.2l-0.11,0.3c0,0-0.01,0.08,0.08,0.11C1.05,28.89,1.16,28.85,1.16,28.85z"/>
<path id="skin-arm-r-2" class="st2" d="M1.93,28.71l0.19-0.3c0,0,0.03-0.12-0.01-0.16c-0.04-0.04-0.04-0.04-0.12-0.05
	c-0.09-0.01-0.17,0.03-0.17,0.03l-0.07,0.23l-0.18,0.23l-0.06,0.12c0,0,0.02,0.03,0.07,0.08s0.1,0.02,0.1,0.02L1.93,28.71z"/>
<path id="skin-arm-r-1" class="st2" d="M2.12,28.73l0.17-0.23l0.07-0.25c0,0,0.05-0.15,0.14-0.07c0.1,0.08,0.12,0.21,0.12,0.21
	s-0.04,0.16-0.12,0.3c-0.08,0.14-0.18,0.16-0.25,0.2c-0.08,0.04-0.18-0.02-0.18-0.02l0-0.09L2.12,28.73z"/>
<path class="st5" d="M2.3,50.33l0.05-0.13c0,0,0.31-0.07,0.21-0.06c-0.1,0.01,0.25,0.06,0.25,0.06l0.09,0.06l0.05,0.12l-0.02,0.16
	l0.19,0.11l0.4,0.13l0.04-0.19l0.16-0.11c0,0,0.25,0.03,0.34,0.1c0.09,0.07,0.13,0.16,0.13,0.16l-0.04,0.14l0.41,0.1l0.03-0.19
	l-0.59-0.36l-0.64-0.29l-0.62-0.21l-0.61-0.04l-0.18,0.16l0.14,0.12L2.3,50.33z"/>
<polygon class="st5" points="4.18,49.43 4.51,49.69 4.29,49.31 3.57,48.94 3.12,48.85 2.8,48.97 3.47,49.13 3.82,49.26 "/>
<path id="player-jersey" class="st6" d="M4.04,17.47l0.65,0.19l0.78,0.14l1.23,0.08c0,0-0.47-1.11-0.55-1.4s-0.18-0.89-0.2-1.02
	c-0.02-0.13,0-0.26,0-0.32c0-0.06-0.03-0.08,0-0.16c0.03-0.07,0.1-0.13,0.16,0s1.08,2.62,1.18,2.8s0.26,0.35,0.35,0.53
	s0.47,1.38,0.56,1.62s0.67,2.08,0.73,2.16s0.07,0.11,0.21,0.16s0.19,0.02,0.35,0.02s1.55-0.14,1.92-0.21
	c0.63-0.12,1.46-0.29,2.13-0.43c0.58-0.12,2.03-0.3,2.02-0.38c-0.02-0.12-0.14-0.73-0.22-1.23s-0.37-1.95-0.44-2.41
	c-0.09-0.61-0.23-1.01-0.26-1.15c-0.03-0.14-0.2-0.44-0.28-0.55s-0.14-0.26-0.3-0.41s-0.25-0.26-0.41-0.3s-0.29,0.08-0.47,0.16
	s-0.42-0.04-0.55-0.09s-1.28-1.58-1.28-1.58s-0.13-0.17-0.32-0.32c-0.19-0.15-0.39-0.25-0.64-0.32s-0.64-0.16-0.64-0.16
	s-0.1-0.07-0.16-0.16c-0.06-0.09-0.08-0.26,0-0.32c0.08-0.06,0.53-0.05,0.64,0c0.11,0.05,0.32,0.16,0.32,0.16s-0.12-0.23-0.15-0.36
	s0.08-0.33,0.08-0.33s0.17,0.11,0.25,0.16S11,12.3,11,12.3l1.27,1.44c0,0,0.68,1.03,0.82,1s0.67-0.4,0.67-0.4l1.6-1.27l0.88-0.75
	l-0.09-0.14L15.5,11.5l-0.48-0.56l-0.57-0.63l-0.96-1.09L12,7.99l-0.8-0.32h-0.32l-0.7-0.05L8.93,7.76L8.64,7.8L8.22,9.14
	l-0.55,1.61L7.1,12.54l-0.52-1L5.75,9.76L5.68,9.72c0,0-0.73,0.53-0.88,0.68c-0.19,0.17-0.36,0.38-0.42,0.53s-0.21,0.69-0.23,1.19
	c-0.02,0.5-0.01,0.98,0,1.43c0.01,0.44,0.02,1.2,0,1.59s-0.1,1.98-0.1,1.98L4.04,17.47z"/>
<path id="player-sock-l" class="st6" d="M5.05,45.98c0.06,0.08,0.28,0.56,0.4,0.59c0.12,0.03,0.19-0.02,0.19-0.02l0.14-0.33
	c0,0,0.25-0.39,0.4-0.65s0.37-0.78,0.62-1.25c0.25-0.47,0.5-0.95,0.75-1.52S8,41.76,8.11,41.46s0.26-0.74,0.35-1.08
	c0.1-0.34,0.25-0.96,0.23-1.03c-0.01-0.07,0-0.19-0.09-0.27c-0.09-0.07-0.19-0.07-0.3-0.16c-0.1-0.09-0.07-0.35-0.02-0.38
	c0.05-0.03,0.47,0.08,0.66-0.07s0.31-0.68,0.27-0.52s0.08-0.34-0.02-0.43s-0.58-0.23-0.91-0.33s-1.02-0.3-1.31-0.33
	c-0.19-0.02-0.39-0.06-0.46,0.01c-0.07,0.07-0.12,0.04-0.16,0.16s-0.14,0.69-0.14,0.69c0.04,0.14,0.23,0.28,0.43,0.43
	c0.14,0.1,0.28,0.08,0.28,0.13c-0.01,0.12-0.01,0.19-0.12,0.21s-0.67-0.06-0.8,0c-0.08,0.04-0.12,0.14-0.29,0.92
	c-0.18,0.78-_1.33,5.84-1.38,6.08c-0.05,0.25-0.07,0.49-0.07,0.49s0.18-0.13,0.28-0.12C4.66,45.88,4.99,45.9,5.05,45.98z"/>
<path id="skin-leg-l" class="st3" d="M7.16,36.44c0.08,0.03,0.52,0.12,1.04,0.27c0.52,0.15,1.22,0.38,1.22,0.38s0.52-0.84,0.67-1.09
	s0.51-0.58,0.51-0.58s-0.63-0.26-1.14-0.44c-0.67-0.23-1.13-0.4-1.6-0.55C7.39,34.27,7,34.14,7,34.14s-0.06,0.12-0.09,0.35
	s-0.13,1.71-0.1,1.79C6.83,36.38,7.07,36.41,7.16,36.44z"/>
<polygon class="st1" points="8.21,35.96 8.36,35.9 8.38,35.54 7.81,35.44 7.6,35.36 7.52,35.57 7.58,35.72 8.21,35.96 "/>
<path id="player-shorts-l" class="st5" d="M9.19,23.9c-0.05,0.12,0.1,0.12,0.09,0.22s-0.07,0.19-0.11,0.32
	C9.14,24.56,8.47,27,8.47,27l-1.08,3.4c0,0-0.9,2.83-0.81,2.56c0.12-0.38-0.16,0.39-0.11,0.45c0.04,0.06,0.39,0.21,0.48,0.25
	c0.26,0.1,2.34,0.79,2.34,0.79s2.74,0.98,2.84,1.02s0.12,0.05,0.17-0.01c0.04-0.05,0.61-1.43,0.81-1.91s0.88-2.01,1.09-2.53
	s0.66-1.63,0.78-1.89c0.12-0.26,0.49-0.76,0.39-0.69s-0.87,0.6-0.91,0.54c-0.04-0.06,0.19-0.58,0.26-0.68
	c0.07-0.1,0.25-0.28,0.38-0.38c0.13-0.11,0.54-0.39,0.74-0.71c0.2-0.32,0.39-0.84,0.47-1.47c0.08-0.63,0.05-1.41,0.01-1.65
	c-0.04-0.25-0.06-0.51-0.15-0.76s-0.15-0.44-0.24-0.45c-0.09-0.01-0.29-0.04-0.47,0s-0.54,0.15-0.73,0.21s-0.47,0.16-0.55,0.15
	c-0.08-0.01-0.28-0.24-0.16-0.38c0.12-0.14,0.7-0.41,0.99-0.46s0.69-0.03,0.8-0.09s0.12-0.19,0.07-0.33
	c-0.04-0.11-0.04-0.28-0.28-0.26s-0.44,0.08-0.76,0.13s-1.18,0.21-1.65,0.31c-0.47,0.1-1.5,0.26-1.95,0.34s-1.93,0.16-2.08,0.19
	c-0.14,0.03-0.15,0.21-0.12,0.3s0.08,0.08,0.18,0.13c0.1,0.05,0.23,0.1,0.33,0.11c0.1,0,0.43-0.03,0.53-0.03
	c0.1,0,0.21-0.02,0.27,0.08c0.05,0.1,0.09,0.38-0.06,0.44c-0.14,0.06-0.61,0.01-0.73,0C9.39,23.74,9.24,23.78,9.19,23.9z"/>
<path id="skin-leg-r" class="st3" d="M10.68,37.92c0.07,0.19,0.46,0.71,0.61,0.86c0.15,0.15,0.74,0.86,0.8,0.9
	s0.39-0.08,0.67-0.24c0.28-0.17,0.95-0.7,1.06-0.84s0.25-0.29,0.21-0.46c-0.04-0.17-0.17-0.46-0.23-0.73s-0.02-1.05-0.02-1.05
	l-1.41-0.08l-1.22-0.06l-0.44-0.03c0,0-0.1,0.43-0.15,0.82C10.55,37.24,10.62,37.73,10.68,37.92z"/>
<polygon class="st1" points="11.33,37.68 11.49,37.67 11.65,37.65 11.61,37.33 10.96,37.23 10.93,37.4 11.09,37.62 11.33,37.68 "/>
<path id="player-sock-r" class="st4" d="M12.84,41.29c0.21,0,0.46-0.15,0.58-0.2c0.12-0.04,0.12-0.14,0.18-0.14
	c0.06,0,0.16-0.03,0.16,0.02c0,0.05,0.07,0.08,0.06,0.17s-0.12,0.3-0.2,0.34c-0.08,0.04-0.18,0.06-0.21,0.15
	c-0.03,0.08,0,0.25,0.03,0.44s0.39,0.84,0.39,0.84l0.41,0.68l0.55,0.86l1.01,1.88l0.58,1.19l-0.04,0.31l0.14,0.17l-0.04,0.31
	l0.57,0.7l0.28,0.35l0.14,0.17l0.48,0.05l0.18-0.14l0.2-0.3l0.39-0.6l0.02-0.16l-0.1-0.23l-0.15-0.43c0,0-0.11-0.56-0.15-0.82
	s-0.17-0.63-0.26-1.01s-0.33-1-0.45-1.42c-0.13-0.42-0.55-1.55-0.64-1.82c-0.09-0.27-0.41-0.93-0.53-1.24
	c-0.12-0.31-0.43-0.82-0.51-0.96c-0.07-0.14-0.29-0.44-0.46-0.43c-0.17,0.01-0.24,0.11-0.38,0.13c-0.13,0.02-0.25-0.12-0.26-0.2
	c0-0.09,0.05-0.88,0.05-0.73c0.01,0.14-0.04-0.26-0.12-0.39c-0.09-0.14-0.17-0.21-0.26-0.19c-0.09,0.02-0.58,0.61-0.87,0.82
	s-0.68,0.47-0.9,0.58s-0.34,0.1-0.38,0.26s-0.03,0.22-0.01,0.33c0.03,0.14,0.05,0.22,0.12,0.33C12.5,41.11,12.63,41.29,12.84,41.29z
	"/>
<polygon class="st5" points="16.11,51.89 16.39,51.72 16.3,51.59 16.08,51.53 16,51.4 15.51,51.52 15.15,51.54 15.1,51.77 
	15.18,51.9 16.11,51.89 "/>
<polygon class="st1" points="17.86,48.64 18.07,48.19 18.11,47.87 17.95,47.86 17.63,47.82 17.58,48.29 17.4,48.43 17.54,48.61 
	17.86,48.64 "/>
<path id="player-shorts-r" class="st5" d="M15.55,29.3l-0.22,1.97l-0.16,1.91l-0.12,1.58c0,0-0.04,1.04-0.06,1.09
	s0,0.06-0.06,0.12c-0.06,0.05-0.14,0.04-0.54,0s-0.73-0.03-1.03-0.06s-0.67-0.05-0.67-0.08s0.61-1.49,0.61-1.49l1.03-2.42
	L15.55,29.3z"/>
<path class="st1" d="M10.42,25.48c0.07-0.09,0.17-0.11,0.2-0.02c0.03,0.09-0.04,0.37-0.07,0.53c-0.03,0.16-0.07,0.88-0.15,1
	c-0.08,0.11-0.16,0.13-0.26,0.28c-0.09,0.15-0.03,0.25-0.07,0.36c-0.04,0.11-0.12,0.32-0.17,0.3s-0.12-0.38-0.13-0.48
	c-0.01-0.1,0.01-0.3,0.03-0.43c0.02-0.13,0.13-0.37,0.2-0.59c0.07-0.22,0.2-0.51,0.25-0.63C10.3,25.67,10.35,25.57,10.42,25.48z"/>
<path id="skin-arm-l" class="st2" d="M15.43,13.77l0.81-0.69l0.16-0.13l0.71,0.89l4.93,7.35l0.32,0.39l0.23,0.17l1.21,0.88
	c0,0,0.7,0.75,0.77,0.9c0.07,0.15,0.18,0.94,0.18,0.94s-0.1,0.16-0.2,0.14s-0.16-0.15-0.16-0.15l-0.14-0.5l-0.09-0.12l0.13,0.76
	l0.01,0.29l-0.11,0.09l-0.2-0.1l-0.32-0.94c0,0-0.19-0.44-0.23-0.47c-0.04-0.03-0.21-0.08-0.21-0.08s-0.33-0.06-0.41-0.04
	c-0.08,0.03-0.09,0.16-0.09,0.16l0.12,0.32l0.35,0.51c0,0,0.16,0.19,0.04,0.27C23.11,24.69,23,24.63,23,24.63l-0.55-0.48
	c0,0-0.56-0.51-0.65-0.63c-0.09-0.12-0.31-0.84-0.31-0.84l-0.16-0.43l-0.17-0.31L16,16.15l-0.75-0.75l-0.68-0.92L15.43,13.77z"/>
<path id="skin-face" class="st2" d="M2.83,3.77l0.04-0.25c0,0,0.35-0.07,0.55-0.09c0.2-0.02,0.54-0.05,0.54-0.05
	s0.39,0.14,0.56,0.15s0.31-0.01,0.31-0.01L5,3.62l0.74,0.56l1.24,0.78c0,0,0.2-0.55,0.32-0.53c0.12,0.02,0.23,0.25,0.25,0.39
	S7.47,4.99,7.52,5.06c0.05,0.07,0.13,0.18,0.13,0.18S7.74,5.25,7.8,5.2s0.23-0.73,0.28-0.67S7.95,5.38,7.87,5.49S7.7,5.72,7.7,5.72
	s0.04,0.05,0.09,0.14c0.05,0.09,0.08,0.3,0.08,0.3s0.05,0.19,0.09,0.45s0.22,1.17,0.22,1.17L7.51,9.86l-0.55,1.65l-0.5-1.1
	L5.92,9.12L5.81,8.85L5.53,8.83L6.66,7.7l0.17-0.35l0.11-0.18L6.9,7.03l-0.43,0.1L6.45,7.45L5.39,8.39c0,0-0.29,0.17-0.43,0.18
	C4.82,8.59,4.75,8.61,4.67,8.51S4.46,8.08,4.46,8.08L4.39,7.8l0.07-0.1c0,0,0.12-0.15,0.11-0.18s-0.01-0.06-0.07-0.1
	S4.29,7.38,4.29,7.38l-0.2-0.24l0.37-0.26c0,0,0.04-0.12-0.03-0.14c-0.08-0.02-0.27-0.12-0.42-0.1C3.86,6.66,3.58,6.72,3.58,6.72
	S3.43,6.77,3.34,6.72S3.27,6.53,3.27,6.53l0.01-1.21L3.23,5.06L3.5,4.96l0.14,0.14c0,0,0.13,0.28,0.21,0.29s0.35-0.04,0.41-0.13
	C4.3,5.17,4.29,5.11,4.26,5.03S4.2,4.9,4.2,4.9l0.02-0.08c0,0,0.16-0.17,0.24-0.2c0.08-0.03,0.33-0.05,0.25-0.02
	C4.63,4.64,4.79,4.54,4.79,4.54S4.73,4.46,4.57,4.45S4.06,4.49,4.06,4.49L3.47,4.64c0,0-0.38,0.13-0.43,0.11S2.88,4.56,2.88,4.56
	L2.83,3.77z"/>
<path id="hair" class="st0" d="M8.62,6.3l-0.1,0.22L8.37,6.75L8.23,6.27L8.1,5.73l0.07-0.11l0.18-0.61c0,0,0.09-0.57,0.04-0.77
	C8.33,4.05,7.96,4.1,7.74,4.32C7.71,4.29,7.41,3.94,7.28,3.96c-0.25,0.03-0.35,0.5-0.45,0.51C6.72,4.48,5.8,3.75,5.8,3.75L4.94,3.17
	L4.49,3.22L4.08,3.05H3.67L3.22,3.11L2.84,3.17l-0.4-0.45L2.41,2.33L2.52,2.4L2.63,2l0.31-0.16l0.08-0.52l0.36-0.31L3.9,0.89
	l0.29-0.11l0.38-0.31L5.4,0.53l0.9-0.2l0.11,0.1l1.09,0.2l0.34,0.37L8.25,1l0.51,0.73l0.74,1.22L9.36,3.1l-0.1,0.54L9.44,4.1
	L9.33,4.61L9.2,4.92L9.11,5.36L8.81,6.1L8.62,6.3z"/>
</svg>
