<?xml version="1.0" encoding="utf-8"?>
<!-- Generator: Adobe Illustrator 16.0.4, SVG Export Plug-In . SVG Version: 6.00 Build 0)  -->
<!DOCTYPE svg PUBLIC "-//W3C//DTD SVG 1.1//EN" "http://www.w3.org/Graphics/SVG/1.1/DTD/svg11.dtd">
<svg version="1.1" id="Ebene_1" xmlns="http://www.w3.org/2000/svg" xmlns:xlink="http://www.w3.org/1999/xlink" x="0px" y="0px"
	 width="23.11px" height="51.39px" viewBox="0 0 23.11 51.39" enable-background="new 0 0 23.11 51.39" xml:space="preserve">
<path fill-rule="evenodd" clip-rule="evenodd" fill="#1A1A18" d="M22.196,26.333c-0.063-0.141-0.358-0.623-0.437-0.742
	c-0.078-0.118-0.4-0.336-0.473-0.432c-0.071-0.098-0.821-2.838-0.821-2.838L20.085,20.5l-0.118-0.752l-0.143-0.901L19.6,17.582
	c0,0-0.008-0.034,0.047-0.078s-0.037-0.844-0.062-1.25c-0.025-0.407-0.111-1.581-0.109-2.031s0.01-1.806-0.031-2.25
	c-0.047-0.516-0.109-0.875-0.391-1.297c-0.102-0.153-0.426-0.471-0.531-0.578s-0.604-0.543-0.604-0.543l-0.076-0.045
	c0.149-0.279,0.24-0.455,0.289-0.459c0.163-0.013,0.768,0.405,1.177,0.121c0.267-0.155,0.237-0.425,0.427-0.598
	c0.219-0.199,0.425-0.152,0.289-0.41c-0.009-0.018,0.08-0.021,0.18-0.104c0.148-0.093,0.029-0.29,0.115-0.523
	c0.143-0.031,0.211,0.031,0.43-0.092c0.133-0.048-0.004-0.744-0.004-0.744L20.66,6.203l-0.017-0.098
	c0.097-0.021,0.202-0.051,0.202-0.051s-0.124-0.029-0.219-0.048l-0.004-0.027c0,0,0.197-0.049,0.205-0.327
	c0.01-0.278-0.016-0.5-0.016-0.5s0.402,0.004,0.66-0.118c0.213-0.101-0.133-0.324,0.086-0.337c0.231-0.014,0.14-0.296-0.023-0.429
	c-0.286-0.234-0.317-0.337-0.521-0.634c-0.292-0.423-0.361-0.556-0.46-0.694C20.279,2.55,19.914,2.237,19.502,2
	c-0.374-0.218-1.245-0.501-2.168-0.514c-0.316,0.008-0.887,0.041-1.389,0.241c-0.092-0.042-0.221-0.085-0.369-0.114
	c-0.045-0.035-0.094-0.068-0.129-0.118c-0.203-0.289-0.391-0.406-0.604-0.547s-0.492-0.242-0.781-0.25
	c-0.391-0.011-0.717,0.057-0.984,0.266c-0.236,0.185-0.424,0.465-0.615,1.109c-0.161,0.546-0.428,1.616-0.719,2.547
	c-0.279,0.896-0.578,1.547-0.531,2.047c0.037,0.384,0.148,0.472,0.297,0.719c0.312,0.516,0.547,0.219,0.547,0.219
	c-0.016,0.109,0.312,0.234,0.391,0.203c0.135-0.054,0.156-0.202,0.109-0.406c0.156,0.281,0.281,0.312,0.281,0.312
	c0.109,0.047,0.437,0.172,0.312-0.172c0.234,0.25,0.328,0.094,0.39-0.172c-0.007-0.058,0.072-0.271,0.188-0.484
	c0.111-0.204,0.322-0.408,0.359-0.5c0.109,0.062,0.193,0.22,0.303,0.391C14.521,6.98,14.797,7.214,15,7.464
	c0.062,0.077,0.186,0.322,0.297,0.553c-0.219-0.032-0.559-0.079-0.838-0.107c-0.453-0.047-1.109-0.047-1.453-0.016
	c-0.344,0.031-0.766,0.156-1.297,0.547c-0.317,0.233-1.203,1.047-1.766,1.703C9.44,10.732,8.6,11.66,8.6,11.66L8.022,12.3
	L7.94,12.498l0.154,0.194l-0.03,0.037l-0.576,0.885l-1.294,2.015L4.741,17.91l-1.132,1.791c0,0-0.53,0.816-0.7,1.008
	c-0.17,0.192-1.235,1.029-1.373,1.177c-0.139,0.147-0.62,0.776-0.687,0.954c-0.067,0.178-0.2,0.866-0.195,0.985
	c0.004,0.119,0.073,0.345,0.1,0.423c0.027,0.078,0.231,0.127,0.286,0.177c0.056,0.049,0.223,0.2,0.283,0.235
	c0.06,0.034,0.159,0.11,0.281,0.088c0.122-0.024,0.498-0.35,0.498-0.35s-0.05,0.07,0.061,0.095c0.111,0.024,0.319-0.007,0.521-0.078
	s0.408-0.312,0.615-0.502c0.206-0.189,0.541-0.537,0.541-0.537s0.168-0.183,0.252-0.373s0.34-1.199,0.431-1.319
	c0.091-0.121,1.343-1.746,1.343-1.746l2.742-3.194l1.211-1.396c0,0-0.172,0.719-0.297,1.328S9.026,19.07,8.944,19.55
	s-0.265,1.262-0.265,1.262s0.015,0.016-0.082,0.133c-0.134,0.164-0.206,0.338-0.22,0.5c-0.012,0.142-0.043,0.498-0.027,0.617
	c0.018,0.12-0.076,0.217-0.164,0.544s-0.15,0.647-0.178,0.897s-0.102,0.965-0.044,1.372s0.134,1.005,0.171,1.169
	s0.182,0.861,0.24,1.005c0.057,0.144,0.12,0.415,0.164,0.699c0.043,0.282,0.309,1.802,0.358,2.399
	c0.069,0.823,0.192,2.191,0.22,2.793c0.027,0.604,0.081,1.971,0.137,2.029c0.055,0.059,0.082,0.117,0.082,0.117l0.426-0.029h0.396
	c0,0,0.063,0.609,0.045,0.754c-0.02,0.144-0.188,0.568-0.246,0.65c-0.061,0.08-0.247,0.244-0.307,0.316
	c-0.059,0.072-0.123,0.103-0.232,0.294c-0.081,0.142-0.196,0.501-0.229,0.618c-0.031,0.117-0.174,0.201-0.246,0.24
	c-0.073,0.038-0.133,0.083-0.247,0.164c-0.114,0.08-0.238,0.361-0.333,0.484c-0.096,0.125-0.521,1.193-0.521,1.193
	s-0.541,1.46-0.626,1.703c-0.084,0.242-0.392,1.299-0.457,1.527c-0.064,0.229-0.315,1.117-0.374,1.401
	c-0.061,0.283-0.352,1.538-0.37,1.602s-0.159,0.188-0.151,0.324c0.01,0.136-0.008,0.437-0.041,0.5
	c-0.031,0.062-0.159,0.099-0.178,0.206c-0.018,0.106,0.046,0.51,0.027,0.602c-0.018,0.094-0.351,0.57-0.369,0.766
	c-0.018,0.195,0.026,1.42,0.059,1.49c0.032,0.072,0.039,0.217,0.152,0.291c0.113,0.075,0.565,0.125,0.565,0.125
	s0.086,0.207,0.127,0.272c0.041,0.064,0.27,0.016,0.329,0.011c0.059-0.005,0.227-0.289,0.227-0.289l0.471,0.014
	c0,0,0.064,0.23,0.105,0.25c0.041,0.021,0.285,0.004,0.336-0.008c0.052-0.011,0.144-0.209,0.144-0.209l0.452,0.011l0.734,0.029
	l0.557,0.036l0.444,0.034c0,0,0.056,0.136,0.11,0.181s0.316,0.057,0.432,0.012c0.117-0.045,0.092-0.188,0.092-0.188l0.218-0.006
	l0.161-0.024c0,0,0.036,0.179,0.105,0.235c0.069,0.055,0.414-0.021,0.452-0.023c0.038-0.001,0.122-0.264,0.122-0.264
	s0.141-0.026,0.293-0.021c0.153,0.005,0.434-0.101,0.534-0.162c0.102-0.062,0.255-0.141,0.299-0.291s-0.018-0.346-0.052-0.43
	c-0.035-0.082-0.16-0.197-0.258-0.305c-0.099-0.106-0.249-0.254-0.454-0.355c-0.187-0.094-0.562-0.244-0.854-0.416
	c-0.295-0.173-1.423-0.754-1.605-0.92c-0.182-0.164-0.651-0.674-0.711-0.875S8.86,46.059,8.86,46.059s0.011-0.342,0.065-0.576
	c0.056-0.235,0.109-0.412,0.288-0.75c0.178-0.338,1.095-2.102,1.327-2.528c0.233-0.427,0.774-1.524,0.825-1.71
	c0.051-0.188,0.078-0.319,0.078-0.319s0.051-0.01,0.233-0.088c0.137-0.059,0.319-0.151,0.438-0.309s0.146-0.245,0.21-0.476
	s0.087-0.43,0.123-0.558c0.037-0.128,0.088-0.3,0.131-0.361s0.359-0.499,0.496-0.64c0.135-0.143,0.585-0.686,0.695-0.906
	c0.11-0.221,0.265-0.461,0.265-0.461s0.06-0.018,0.083,0.074s0.101,0.393,0.178,0.529s0.301,0.383,0.301,0.383
	s0.047,0.039,0.068,0.131c0.023,0.094-0.035,0.145-0.027,0.28c0.01,0.137,0.074,0.261,0.123,0.5
	c0.051,0.239,0.265,0.981,0.424,1.456c0.16,0.475,0.689,1.773,0.904,2.234c0.215,0.459,1.25,2.51,1.301,2.646
	c0.05,0.138,0.087,0.231,0.068,0.353c-0.019,0.122-0.042,0.383-0.044,0.48s-0.036,0.08-0.019,0.155
	c0.017,0.075,0.161,0.419,0.199,0.497c0.037,0.078,0.066,0.111,0.065,0.184c-0.001,0.07-0.037,0.191-0.019,0.293
	c0.018,0.102,0.149,0.533,0.186,0.647c0.037,0.115,0.189,1.172,0.201,1.246c0.014,0.075,0.097,0.22,0.137,0.31
	c0.041,0.088,0.051,0.064,0.113,0.121c0.064,0.056,0.243,0.123,0.373,0.141c0.129,0.018,0.473-0.132,0.473-0.132
	s-0.004,0.11,0.084,0.132c0.088,0.023,0.34-0.049,0.396-0.102s0.025-0.131,0.025-0.131l0.517-0.184l0.157-0.051
	c0,0,0.055,0.101,0.107,0.119c0.053,0.018,0.312-0.082,0.375-0.159c0.062-0.078-0.01-0.203-0.01-0.203s0.234-0.161,0.311-0.239
	c0.075-0.077,0.24-0.312,0.268-0.496s-0.03-0.353-0.063-0.474c-0.032-0.122-0.216-0.425-0.302-0.581
	c-0.088-0.158-0.531-0.688-0.604-0.783s-0.266-0.258-0.299-0.338s-0.22-0.394-0.22-0.394s-0.022-0.754-0.042-0.838
	c-0.018-0.084-0.146-0.121-0.205-0.125c-0.059-0.003-0.137,0.022-0.137,0.022s-0.078-0.053-0.086-0.144
	c-0.009-0.091-0.119-0.651-0.119-0.651s-0.648-2.936-0.785-3.641c-0.137-0.706-0.219-1-0.314-1.456s-0.25-1.147-0.283-1.284
	c-0.045-0.186-0.123-0.426-0.123-0.426s0.023-0.187-0.019-0.48c-0.04-0.294-0.101-0.465-0.2-0.725
	c-0.101-0.261-0.283-0.373-0.283-0.373l-0.032-0.7l-0.068-0.941l-0.055-0.536c0,0,0.329-0.125,0.393-0.209s-0.028-0.295-0.15-0.691
	c-0.123-0.396-0.771-2.625-0.679-2.268c0.078,0.309-0.594-2.021-0.705-2.402c-0.018-0.086-0.738-2.836-0.678-2.626
	c0.062,0.225-0.116-0.567-0.17-0.907c-0.018-0.119-0.004-0.161-0.009-0.21c-0.008-0.077,0.052-0.136,0.05-0.216
	c-0.003-0.114-0.061-0.244-0.023-0.284c0.064-0.069,0.18-0.22,0.229-0.451c0.051-0.231-0.046-0.479-0.022-0.387
	c0.022,0.093-0.051-0.058-0.007-0.218c0.02-0.072,0.215-0.899,0.43-1.617c0.261-0.872,0.75-2.172,0.75-2.172l0.321,0.016
	c0,0,0.229,1.124,0.351,1.633c0.121,0.51,0.33,0.952,0.527,1.43s0.919,2.219,0.919,2.219l0.837,2.144c0,0,0.003,0.614,0.01,0.805
	c0.005,0.19,0.127,0.511,0.217,0.742c0.09,0.229,0.34,0.594,0.34,0.594l0.279,0.478c0,0,0.168,0.157,0.25,0.231
	c0.083,0.072,0.189,0.111,0.334,0.114c0.146,0.003,0.343-0.11,0.343-0.11s0.103,0.099,0.173,0.099c0.068,0,0.229-0.077,0.229-0.077
	s0.079,0.096,0.13,0.102c0.051,0.005,0.231-0.047,0.231-0.047l0.228-0.152c0,0,0.094-0.207,0.13-0.354
	c0.036-0.148,0.081-0.711,0.086-0.775C22.461,27.091,22.26,26.472,22.196,26.333z"/>
<path id="skin-arm-l" fill-rule="evenodd" clip-rule="evenodd" fill="#F9CAA9" d="M22.09,27.131
	c-0.012-0.143-0.162-0.457-0.176-0.557c-0.014-0.102-0.326-0.631-0.383-0.704c-0.055-0.073-0.502-0.457-0.502-0.457l-0.164-0.444
	l-0.672-2.387l-0.516-2.234l-0.266-1.406l-0.266-1.203c0,0-0.469,0.172-0.844,0.234s-1,0.141-1,0.141s0.016,0.283,0.066,0.554
	c0.053,0.271,0.206,0.985,0.274,1.206c0.069,0.219,0.128,0.385,0.222,0.611c0.094,0.226,1.965,4.803,1.973,4.859
	c0.01,0.057,0.037,0.316,0.037,0.316s-0.033,0.23-0.03,0.367s0.019,0.385,0.087,0.569c0.066,0.186,0.306,0.527,0.306,0.527
	l0.053,0.05c0,0,0.065-0.319,0.12-0.347c0.053-0.029,0.184-0.034,0.262,0.005c0.079,0.039,0.299,0.044,0.299,0.044l-0.198-0.289
	l-0.353-0.564c0,0,0.151-0.014,0.262,0.006s0.106,0.041,0.156,0.127c0.05,0.084,0.115,0.168,0.199,0.258
	c0.083,0.09,0.459,0.262,0.518,0.338s0.18,0.465,0.235,0.499s0.204,0.207,0.267,0.186C22.119,27.414,22.101,27.273,22.09,27.131z"/>
<path id="skin-arm-l-1" fill="#F9CAA9" d="M21.706,27.943c0,0-0.327-0.338-0.374-0.463s-0.021-0.267-0.021-0.307
	c0.001-0.039,0.009-0.092,0.101-0.058c0.092,0.033,0.24,0.263,0.24,0.263l0.213,0.19l0.096,0.285c0,0,0.01,0.073-0.073,0.103
	C21.805,27.987,21.706,27.943,21.706,27.943z"/>
<path id="skin-arm-l-2" fill="#F9CAA9" d="M21.032,27.812l-0.167-0.282c0,0-0.025-0.109,0.006-0.148
	c0.029-0.041,0.031-0.041,0.105-0.047c0.075-0.008,0.152,0.028,0.152,0.028l0.062,0.218l0.161,0.219L21.4,27.91
	c0,0-0.017,0.031-0.059,0.076c-0.043,0.045-0.09,0.016-0.09,0.016L21.032,27.812z"/>
<path id="skin-arm-l-3" fill="#F9CAA9" d="M20.869,27.832l-0.146-0.22l-0.062-0.235c0,0-0.039-0.143-0.125-0.068
	c-0.088,0.076-0.11,0.197-0.11,0.197s0.036,0.152,0.104,0.28c0.069,0.128,0.156,0.154,0.222,0.192
	c0.066,0.039,0.158-0.016,0.158-0.016l0.003-0.087L20.869,27.832z"/>
<path fill-rule="evenodd" clip-rule="evenodd" fill="#FFFFFF" d="M20.709,48.154l-0.047-0.121c0,0-0.27-0.07-0.18-0.061
	c0.09,0.009-0.217,0.061-0.217,0.061l-0.076,0.061l-0.047,0.111l0.018,0.152l-0.17,0.102l-0.348,0.121l-0.039-0.182l-0.136-0.107
	c0,0-0.222,0.033-0.298,0.098c-0.075,0.063-0.113,0.152-0.113,0.152l0.037,0.131l-0.358,0.092l-0.029-0.184l0.521-0.334l0.557-0.273
	l0.548-0.193l0.538-0.041l0.161,0.152l-0.123,0.112L20.709,48.154z"/>
<path id="player-shirt" fill-rule="evenodd" clip-rule="evenodd" fill="#0068B4" d="M19.188,17.238l-0.567,0.182l-0.685,0.133
	l-1.081,0.073c0,0,0.416-1.048,0.486-1.319s0.161-0.841,0.178-0.961c0.016-0.119-0.003-0.245,0-0.3c0.003-0.054,0.025-0.079,0-0.147
	c-0.024-0.068-0.091-0.123-0.14,0c-0.05,0.123-0.175,0.896-0.779,1.896c-0.098,0.162-0.291,0.562-0.396,0.855
	c-0.063,0.178-0.458,1.229-0.657,1.904c-0.068,0.232-0.591,1.961-0.636,2.036c-0.046,0.075-0.065,0.101-0.186,0.154
	c-0.12,0.053-0.167,0.021-0.308,0.021c-0.141,0.002-1.361-0.135-1.683-0.198c-0.552-0.108-1.277-0.27-1.865-0.402
	c-0.508-0.113-1.774-0.278-1.766-0.354c0.014-0.117,0.112-0.523,0.184-0.996c0.07-0.473,0.436-2.162,0.521-2.584
	c0.121-0.601,0.445-1.846,0.635-2.338c0.07-0.182,0.071-0.104,0.109-0.078c0.116,0.078,0.453,0.257,0.609,0.328
	c0.157,0.072,0.288,0.046,0.406,0s0.391-0.438,0.656-0.812s0.74-0.971,0.906-1.109c0.165-0.139,0.266-0.066,0.487-0.126
	c0.222-0.061,0.56-0.147,0.56-0.147s0.09-0.066,0.143-0.151c0.052-0.085,0.07-0.246,0-0.298s-0.465-0.051-0.562,0
	s-0.283,0.066-0.283,0.066s0.104-0.133,0.131-0.251c0.027-0.117-0.068-0.309-0.068-0.309s-0.146,0.106-0.219,0.147
	c-0.073,0.041-0.234,0.222-0.234,0.222l-1.016,1.378c0,0-0.685,0.944-0.812,0.915c-0.127-0.03-0.584-0.379-0.584-0.379l-1.404-1.193
	L8.5,12.389l0.082-0.131c0,0,0.519-0.599,0.878-1.005s0.859-0.969,1.172-1.328s1.203-1.141,1.578-1.375s0.609-0.297,1.062-0.328
	c0.391-0.027,1.049,0.018,1.297,0.047c0.531,0.062,0.891,0.172,0.891,0.172l0.297,1.297l0.453,1.641l0.266,1.047l0.5-1.016
	l0.711-1.429l0.059-0.034c0,0,0.639,0.501,0.775,0.636c0.166,0.164,0.338,0.51,0.393,0.655s0.163,0.496,0.18,0.963
	c0.027,0.773,0.003,1.227,0,1.343c-0.012,0.419,0.038,1.5,0.055,1.866C19.164,15.775,19.188,17.238,19.188,17.238z"/>
<path id="player-sock-r" fill-rule="evenodd" clip-rule="evenodd" fill="#0068B4" d="M18.299,44.066
	c-0.053,0.078-0.248,0.525-0.35,0.551c-0.1,0.027-0.164-0.021-0.164-0.021l-0.123-0.309c0,0-0.219-0.367-0.348-0.613
	c-0.127-0.246-0.327-0.734-0.547-1.176c-0.219-0.441-0.438-0.896-0.656-1.426s-0.393-0.975-0.493-1.265s-0.224-0.699-0.311-1.019
	c-0.086-0.32-0.215-0.901-0.205-0.971c0.009-0.068,0.004-0.18,0.081-0.25c0.078-0.068,0.17-0.062,0.261-0.146
	c0.092-0.084,0.06-0.328,0.015-0.354c-0.046-0.024-0.411,0.074-0.58-0.068s-0.272-0.641-0.238-0.489
	c0.033,0.151-0.068-0.323,0.02-0.408c0.088-0.084,0.506-0.221,0.794-0.309c0.287-0.088,0.89-0.279,1.149-0.309
	c0.168-0.019,0.34-0.058,0.402,0.008c0.063,0.065,0.107,0.038,0.141,0.147c0.031,0.109,0.119,0.649,0.119,0.649
	c-0.032,0.136-0.199,0.262-0.375,0.401c-0.123,0.098-0.244,0.074-0.24,0.121c0.008,0.113,0.008,0.178,0.104,0.197
	c0.097,0.02,0.588-0.055,0.698,0.005c0.073,0.039,0.101,0.129,0.255,0.866c0.156,0.736,1.164,5.49,1.207,5.723
	c0.044,0.232,0.062,0.463,0.062,0.463s-0.16-0.122-0.246-0.11C18.643,43.968,18.352,43.988,18.299,44.066z"/>
<path id="skin-leg-r" fill-rule="evenodd" clip-rule="evenodd" fill="#F9CAA9" d="M16.453,35.088
	c-0.073,0.027-0.457,0.109-0.912,0.254c-0.457,0.144-1.068,0.352-1.068,0.352s-0.455-0.789-0.586-1.027
	c-0.13-0.239-0.445-0.548-0.445-0.548s0.55-0.243,1-0.411c0.588-0.221,0.994-0.377,1.4-0.52s0.748-0.26,0.748-0.26
	s0.057,0.115,0.083,0.33c0.026,0.213,0.11,1.604,0.089,1.688S16.525,35.062,16.453,35.088z"/>
<polygon fill-rule="evenodd" clip-rule="evenodd" fill="#1A1A18" points="15.531,34.641 15.402,34.581 15.385,34.245 15.881,34.15 
	16.064,34.076 16.139,34.271 16.082,34.41 15.531,34.641 "/>
<path id="player-shorts-r" fill-rule="evenodd" clip-rule="evenodd" fill="#FFFFFF" d="M14.67,23.289
	c0.045,0.111-0.084,0.115-0.081,0.209s0.065,0.179,0.096,0.299c0.03,0.118,0.616,2.406,0.616,2.406l0.945,3.2
	c0,0,0.791,2.658,0.713,2.407c-0.108-0.353,0.137,0.368,0.096,0.427c-0.036,0.053-0.343,0.202-0.424,0.234
	c-0.23,0.094-2.049,0.746-2.049,0.746s-2.397,0.924-2.488,0.957c-0.09,0.032-0.108,0.043-0.146-0.006
	c-0.039-0.05-0.538-1.348-0.713-1.793c-0.174-0.447-0.768-1.893-0.957-2.383S9.7,28.454,9.593,28.213
	c-0.106-0.24-0.427-0.715-0.342-0.646s0.763,0.564,0.794,0.508c0.03-0.057-0.168-0.546-0.227-0.641
	c-0.059-0.094-0.215-0.262-0.328-0.361c-0.113-0.1-0.476-0.368-0.65-0.667c-0.174-0.3-0.344-0.789-0.41-1.382
	c-0.066-0.594-0.043-1.323-0.006-1.554c0.035-0.231,0.05-0.481,0.131-0.716c0.083-0.235,0.133-0.416,0.211-0.422
	c0.077-0.004,0.25-0.037,0.41,0.001s0.47,0.138,0.637,0.198c0.166,0.061,0.409,0.154,0.479,0.145s0.244-0.225,0.144-0.354
	c-0.101-0.127-0.613-0.381-0.869-0.431c-0.258-0.05-0.605-0.023-0.699-0.088c-0.093-0.064-0.106-0.182-0.061-0.31
	c0.037-0.106,0.031-0.258,0.246-0.242c0.215,0.018,0.387,0.072,0.664,0.125c0.275,0.054,1.031,0.199,1.441,0.295
	c0.408,0.097,1.316,0.242,1.709,0.317c0.392,0.075,1.692,0.153,1.818,0.179c0.125,0.027,0.134,0.199,0.109,0.283
	c-0.025,0.082-0.07,0.072-0.158,0.121c-0.086,0.049-0.199,0.099-0.287,0.104c-0.086,0.005-0.38-0.028-0.465-0.026
	c-0.088,0.001-0.189-0.017-0.234,0.073s-0.076,0.359,0.049,0.416c0.126,0.057,0.534,0.006,0.643,0.002
	C14.496,23.136,14.627,23.175,14.67,23.289z"/>
<path id="skin-leg-l" fill-rule="evenodd" clip-rule="evenodd" fill="#F9CAA9" d="M13.364,36.48
	c-0.06,0.182-0.401,0.666-0.531,0.806s-0.65,0.812-0.705,0.851c-0.055,0.039-0.342-0.07-0.588-0.229
	c-0.247-0.158-0.835-0.658-0.932-0.791c-0.095-0.133-0.222-0.269-0.187-0.428c0.037-0.16,0.15-0.43,0.2-0.689
	s0.014-0.985,0.014-0.985l1.237-0.078l1.067-0.059l0.382-0.029c0,0,0.087,0.405,0.133,0.769
	C13.484,35.841,13.424,36.299,13.364,36.48z"/>
<polygon fill-rule="evenodd" clip-rule="evenodd" fill="#1A1A18" points="12.802,36.26 12.663,36.242 12.523,36.225 12.555,35.928 
	13.119,35.834 13.146,35.995 13.008,36.201 12.802,36.26 "/>
<path id="player-sock-l" fill="#0068B4" d="M11.476,39.656c-0.183,0.004-0.403-0.146-0.505-0.188
	c-0.102-0.042-0.102-0.136-0.156-0.134c-0.055,0.004-0.141-0.027-0.139,0.018s-0.059,0.08-0.049,0.158
	c0.009,0.078,0.102,0.28,0.172,0.318s0.161,0.059,0.184,0.137c0.023,0.078,0.003,0.238-0.028,0.415s-0.339,0.794-0.339,0.794
	l-0.356,0.642l-0.481,0.809l-0.889,1.774l-0.51,1.117l0.031,0.295l-0.125,0.164l0.029,0.297l-0.494,0.66l-0.248,0.331l-0.121,0.165
	l-0.418,0.049l-0.156-0.131l-0.17-0.28l-0.343-0.561L6.35,46.358l0.089-0.219l0.127-0.407c0,0,0.095-0.523,0.132-0.77
	c0.037-0.245,0.146-0.59,0.229-0.951s0.285-0.941,0.396-1.338s0.48-1.461,0.562-1.715s0.355-0.873,0.465-1.166
	c0.109-0.295,0.379-0.773,0.443-0.901s0.258-0.415,0.406-0.404c0.15,0.013,0.215,0.106,0.333,0.125s0.224-0.108,0.226-0.19
	c0.002-0.084-0.043-0.828-0.048-0.691s0.032-0.24,0.11-0.367c0.076-0.129,0.15-0.199,0.23-0.179
	c0.079,0.021,0.504,0.572,0.764,0.771c0.259,0.198,0.591,0.445,0.789,0.546c0.195,0.101,0.297,0.097,0.332,0.248
	c0.037,0.151,0.025,0.21,0.01,0.312c-0.022,0.129-0.044,0.205-0.109,0.314C11.772,39.484,11.659,39.651,11.476,39.656z"/>
<polygon fill-rule="evenodd" clip-rule="evenodd" fill="#1A1A18" points="7.079,46.57 6.892,46.143 6.86,45.846 7,45.829 
	7.28,45.795 7.327,46.242 7.479,46.371 7.358,46.537 7.079,46.57 "/>
<path id="player-shorts-l" fill-rule="evenodd" clip-rule="evenodd" fill="#FFFFFF" d="M9.1,28.375l0.192,1.853l0.136,1.794
	l0.109,1.484c0,0,0.039,0.977,0.056,1.029s-0.002,0.061,0.048,0.107c0.051,0.049,0.119,0.034,0.475,0.005
	c0.356-0.03,0.645-0.03,0.904-0.06s0.588-0.043,0.588-0.072s-0.537-1.406-0.537-1.406l-0.902-2.279L9.1,28.375z"/>
<path fill-rule="evenodd" clip-rule="evenodd" fill="#1A1A18" d="M13.6,24.776c-0.062-0.082-0.146-0.104-0.172-0.019
	c-0.027,0.084,0.035,0.348,0.059,0.495s0.059,0.829,0.131,0.937c0.07,0.107,0.143,0.122,0.223,0.262
	c0.081,0.14,0.029,0.234,0.062,0.342c0.032,0.106,0.104,0.301,0.15,0.286c0.047-0.018,0.103-0.355,0.115-0.451
	s-0.007-0.282-0.024-0.401c-0.017-0.121-0.112-0.354-0.175-0.561c-0.062-0.207-0.179-0.482-0.223-0.595
	C13.701,24.958,13.66,24.857,13.6,24.776z"/>
<path id="skin-arm-r" fill="#F9CAA9" d="M9.209,13.761l-0.713-0.647l-0.138-0.121l-0.634,0.979l-4.304,6.773l-0.279,0.363
	l-0.198,0.157L1.881,22.09c0,0-0.609,0.703-0.669,0.845c-0.061,0.142-0.159,0.885-0.159,0.885s0.085,0.148,0.174,0.129
	s0.136-0.142,0.136-0.142l0.124-0.468l0.079-0.117l-0.113,0.712l-0.013,0.275l0.095,0.087l0.173-0.094l0.282-0.879
	c0,0,0.168-0.412,0.207-0.439C2.233,22.856,2.38,22.81,2.38,22.81s0.287-0.06,0.356-0.036c0.07,0.023,0.08,0.146,0.08,0.146
	l-0.104,0.303l-0.309,0.482c0,0-0.139,0.181-0.032,0.254c0.106,0.074,0.206,0.016,0.206,0.016l0.479-0.455
	c0,0,0.49-0.48,0.572-0.594s0.269-0.787,0.269-0.787l0.139-0.408l0.149-0.295L8.706,16l0.676-0.824l0.582-0.748L9.209,13.761z"/>
<path id="skin-face" fill="#F9CAA9" d="M15.898,8.517c0,0,0.135,0.57,0.326,1.299c0.172,0.656,0.391,1.406,0.391,1.406l1.223-2.423
	c0,0,0.096-0.19,0.217-0.165c0.412,0.087,0.801,0.5,1.152,0.208c0.145-0.121,0.181-0.411,0.309-0.547
	c0.116-0.125,0.185-0.043,0.221-0.107c0.07-0.123-0.088-0.18-0.088-0.18l-0.291-0.161l-0.002-0.082c0,0,0.102-0.103,0.23,0.008
	c0.127,0.113,0.479,0.213,0.416,0.008c-0.02-0.067,0.092-0.469,0.09-0.492c0.053,0.025,0.213,0.012,0.375,0
	c0.073-0.053-0.02-0.345-0.029-0.479c-0.01-0.134-0.143-0.605-0.143-0.605l-0.046-0.012l-0.038,0.173c0,0-0.145-0.039-0.209-0.089
	c-0.039-0.029-0.105-0.071-0.143-0.094c-0.059-0.008-0.117-0.019-0.156-0.036c-0.107-0.046-0.375-0.222-0.355-0.235
	C19.687,6.067,19.619,5.984,19.785,6c0.025,0.004,0.127,0.01,0.226,0.018c0.143-0.021,0.284-0.047,0.293-0.068
	c0.027-0.064,0.233-0.205,0.07-0.217c-0.134-0.01-0.659-0.216-0.432-0.137c0.229,0.079,0.548-0.043,0.548-0.043
	s0.004-0.368-0.045-0.391c-0.281-0.118-0.188-0.103-0.384-0.22c-0.224-0.135,0.09,0.13-0.179,0.177
	c-0.371,0.047-0.615-0.117-0.564-0.048c0.148,0.166-0.086,0.173-0.129,0.178c-0.277,0.024-0.35,0.063-0.846-0.253
	c-0.034-0.022,0.08,0.497-0.125,0.947c-0.426,0.932-0.719,1.312-0.794,0.964C17.33,6.468,17.26,6.371,17,6.148
	c-0.105-0.091-0.275-0.151-0.424-0.167c-0.288-0.03-0.447,0.355-0.357,0.62c0.115,0.333,0.507,0.442,0.562,0.487
	c0.024,0.021,0.011,0.067-0.064,0.083C16.625,7.192,16.47,7.18,16.47,7.18l-0.221,0.645C16.249,7.825,15.902,8.584,15.898,8.517z
	 M16.968,6.811c-0.162,0.036-0.226-0.026-0.226-0.026l-0.054-0.029c0,0-0.099-0.071-0.114-0.142
	c-0.072-0.309-0.083-0.236-0.073-0.315C16.512,6.22,16.6,6.18,16.68,6.22c0.079,0.039,0.055-0.06,0.033,0.105
	c-0.037,0.284,0.213,0.391,0.354,0.427l0.112,0.023c0.035,0.069,0.061,0.155-0.012,0.166C17.08,6.888,16.986,6.807,16.968,6.811z"/>
<path id="hair-p" fill="#F7DD7F" d="M15.188,1.636c-0.064-0.103-0.334-0.337-0.578-0.484c-0.164-0.1-0.384-0.154-0.766-0.125
	c-0.779,0.061-0.851,0.456-1.333,2.047c-0.312,1.031-0.422,1.562-0.594,2.031c-0.236,0.646-0.641,1.531-0.062,2.188
	c-0.184-0.21,0.215-0.813,0.215-0.813c-0.016,0.122-0.1,0.333-0.059,0.517c0.049,0.215,0.225,0.396,0.25,0.422
	c-0.125-0.328,0.26-0.946,0.26-0.946c0.029,0.292,0.068,0.618,0.381,0.899c-0.075-0.068,0.078-0.891,0.078-0.891
	c0.047,0.234,0.281,0.578,0.281,0.766c0-0.676,0.547-0.562,0.641-1.344c-0.094-0.703-0.234-1.156-0.016-2.047
	c-0.094-0.281,0.039-0.964,0.1-1.219c0.094-0.391,0.312-0.688,0.531-0.812C14.825,1.647,15.188,1.636,15.188,1.636z"/>
<path id="hair" fill-rule="evenodd" clip-rule="evenodd" fill="#F7DD7F" d="M14.609,6.503c0.203,0.334,0.744,0.598,1.098,1.544
	c0.037,0.119,0.176-0.16,0.322-0.551c0.061-0.166,0.081-0.201,0.154-0.388c-0.307-0.291-0.314-0.598-0.318-0.823
	C15.86,6,16.13,5.76,16.258,5.719c0.315-0.137,0.514-0.049,0.705,0.046c0.307,0.153,0.602,0.439,0.662,0.746
	c0.029,0.145,0.237-0.444,0.425-0.991c0.072-0.21-0.001-0.556,0.015-0.729c0.017-0.207,0.184-0.278,0.302-0.184
	c0.071,0.073,0.323,0.366,0.718,0.274c-0.335-0.259-0.178-0.421-0.133-0.458c0.094-0.073,0.258,0.455,0.837,0.408
	c-0.341-0.399-0.239-0.634,0.077-0.382c0.576,0.34,0.691,0.492,1.318,0.368c-0.15-0.177-0.255-0.315-0.33-0.428
	c0.201,0.022,0.333,0.073,0.384,0.031c0.014-0.012-0.106-0.061-0.321-0.33c-0.115-0.146-0.205-0.302-0.319-0.49
	c-0.028-0.06-0.073-0.132-0.138-0.22c-0.086-0.136-0.223-0.322-0.327-0.446s-0.25-0.291-0.366-0.366
	c-0.275-0.179-0.592-0.422-1.188-0.591c-1.388-0.414-2.323-0.031-2.516,0.05c-0.276,0.117-0.927,0.47-1.264,0.876
	c-0.41,0.414-0.528,1-0.572,1.263C14.04,5.31,14.31,6.011,14.609,6.503z M15.033,3.597c0.17-0.247-0.096,0.536-0.102,0.973
	c-0.006,0.469,0.062,0.877,0.004,0.757C14.611,4.675,14.712,4.062,15.033,3.597z"/>
<path fill="#FFFFFF" d="M15.686,1.938c0,0-0.084-0.099-0.485-0.029c-0.356,0.062-0.542,0.093-0.758,0.449
	c-0.179,0.293-0.3,1.005-0.3,1.005s0.361-0.634,0.701-0.928C15.325,2.02,15.686,1.938,15.686,1.938z"/>
</svg>
