<?xml version="1.0" encoding="utf-8"?>
<!-- Generator: Adobe Illustrator 16.0.4, SVG Export Plug-In . SVG Version: 6.00 Build 0)  -->
<!DOCTYPE svg PUBLIC "-//W3C//DTD SVG 1.1//EN" "http://www.w3.org/Graphics/SVG/1.1/DTD/svg11.dtd" [
	<!ENTITY ns_flows "http://ns.adobe.com/Flows/1.0/">
	<!ENTITY ns_extend "http://ns.adobe.com/Extensibility/1.0/">
	<!ENTITY ns_ai "http://ns.adobe.com/AdobeIllustrator/10.0/">
	<!ENTITY ns_graphs "http://ns.adobe.com/Graphs/1.0/">
]>
<svg version="1.1" id="Ebene_1" xmlns:x="&ns_extend;" xmlns:i="&ns_ai;" xmlns:graph="&ns_graphs;"
	 xmlns="http://www.w3.org/2000/svg" xmlns:xlink="http://www.w3.org/1999/xlink" xmlns:a="http://ns.adobe.com/AdobeSVGViewerExtensions/3.0/"
	 x="0px" y="0px" width="25.5px" height="53px" viewBox="0 0 25.5 53" style="enable-background:new 0 0 25.5 53;"
	 xml:space="preserve">
<style type="text/css">
<![CDATA[
	.st0{fill:#1A1A18;}
	.st1{fill-rule:evenodd;clip-rule:evenodd;fill:#1A1A18;}
	.st2{fill:#FBCDAA;}
	.st3{fill-rule:evenodd;clip-rule:evenodd;fill:#FBCDAA;}
	.st4{fill:#0068B4;}
	.st5{fill-rule:evenodd;clip-rule:evenodd;fill:#FFFFFF;}
	.st6{fill-rule:evenodd;clip-rule:evenodd;fill:#0068B4;}
]]>
</style>
<path class="st0" d="M24.9,27.13c-0.07-0.15-0.41-0.66-0.5-0.79c-0.09-0.13-0.46-0.36-0.54-0.46c-0.08-0.1-0.94-3.02-0.94-3.02
	l-0.43-1.94l-0.13-0.8l-0.16-0.96L21.94,18c0,0,0.05-0.08,0.12-0.12s-0.11-1.29-0.14-1.72c-0.03-0.43-0.11-1.02-0.11-1.5
	c0-0.48,0.01-2.07-0.03-2.54c-0.02-0.2,0-0.31-0.03-0.49c-0.04-0.24-0.12-0.52-0.14-0.62c-0.03-0.17-0.06-0.25-0.16-0.42
	s-0.35-0.4-0.47-0.51S20.01,9.3,20.01,9.3l-0.07-0.07l0.08-0.17l0.37-0.06c0,0,0.19,0,0.32-0.01s0.3-0.07,0.34-0.11
	c0.09-0.08,0.21-0.32,0.21-0.32l0.23-0.66l0.16-0.37c0,0,0.21-0.33,0.24-0.36s0.29-0.05,0.36-0.04c0.08,0.01,0.11-0.02,0.18-0.09
	c0.07-0.07,0.13-0.1,0.14-0.19c0.03-0.18,0.03-0.89,0.03-0.89l0-0.64l0.08-0.21l0.24-0.35l0.08-1.57l0.31-0.37l0.06-0.66l-0.05-0.3
	l-0.2,0.08l-0.08-0.24l-0.24-0.12l-0.1-0.56l-0.4-0.33l-0.57-0.12l-0.32-0.12L21,0.13L20.08,0.2L19-0.02l-0.12,0.11l-1.13,0.24
	l-0.29,0.36l-0.46-0.01l-0.61,0.89l-0.82,1.44l0.17,0.16l0.1,0.43l-0.2,0.5l0.13,0.56l0.15,0.33l0.1,0.49l0.35,0.79l0.22,0.23
	l0.2,0.42l-0.07,0.41l-1.2-0.09l-1.23,0.01l-0.39,0.09l-0.67,0.37l-0.76,0.53L11.7,8.9l-0.67,0.62l-0.89,1.1l-0.84,0.94l-0.59,0.64
	L8.61,12.4l0.18,0.24l-0.03,0.04l-0.66,0.94l-1.56,2.18L5,18.08l-1.32,2.01c0,0-0.61,0.87-0.8,1.07c-0.19,0.2-1.41,1.09-1.57,1.25
	c-0.16,0.16-0.71,0.82-0.79,1.01c-0.08,0.19-0.23,0.92-0.22,1.05c0.01,0.13,0.08,0.37,0.12,0.45c0.03,0.08,0.26,0.14,0.33,0.19
	c0.06,0.05,0.25,0.21,0.32,0.25c0.07,0.04,0.18,0.12,0.32,0.09c0.14-0.03,0.57-0.37,0.57-0.37s-0.06,0.07,0.07,0.1
	c0.13,0.03,0.37-0.01,0.6-0.08s0.47-0.33,0.7-0.53c0.24-0.2,0.62-0.57,0.62-0.57s0.19-0.19,0.29-0.4c0.1-0.2,0.39-1.28,0.49-1.4
	c0.1-0.13,1.53-1.85,1.53-1.85l3.13-3.4l0.81-0.79l0.22-0.2l-0.05,0.31l-0.14,1.03L9.7,20.08l-0.23,1.19c0,0,0.02,0.02-0.09,0.14
	c-0.15,0.17-0.23,0.36-0.25,0.53c-0.01,0.15-0.05,0.53-0.03,0.66S9,22.83,8.9,23.17s-0.17,0.69-0.2,0.95s-0.12,1.03-0.05,1.46
	c0.07,0.43,0.15,1.07,0.2,1.24C8.89,27,9.05,27.74,9.12,27.9c0.07,0.15,0.14,0.44,0.19,0.74c0.05,0.3,0.35,1.92,0.41,2.55
	c0.08,0.88,0.22,2.33,0.25,2.97s0.09,2.09,0.16,2.16s0.09,0.12,0.09,0.12l0.49-0.03h0.45c0,0,0.07,0.65,0.05,0.8
	c-0.02,0.15-0.21,0.6-0.28,0.69c-0.07,0.09-0.28,0.26-0.35,0.34s-0.14,0.11-0.27,0.31c-0.09,0.15-0.22,0.53-0.26,0.66
	c-0.04,0.12-0.2,0.21-0.28,0.26s-0.15,0.09-0.28,0.17c-0.13,0.09-0.27,0.38-0.38,0.52s-0.59,1.27-0.59,1.27s-0.62,1.55-0.71,1.81
	c-0.1,0.26-0.45,1.38-0.52,1.62s-0.36,1.19-0.43,1.49c-0.07,0.3-0.4,1.63-0.42,1.7c-0.02,0.07-0.18,0.2-0.17,0.34
	c0.01,0.14-0.01,0.46-0.05,0.53c-0.04,0.07-0.18,0.1-0.2,0.22c-0.02,0.11,0.05,0.54,0.03,0.64c-0.02,0.1-0.4,0.61-0.42,0.81
	c-0.02,0.21,0.03,1.51,0.07,1.58c0.04,0.08,0.04,0.23,0.17,0.31c0.13,0.08,0.65,0.13,0.65,0.13s0.1,0.22,0.15,0.29
	s0.31,0.02,0.38,0.01c0.07,0,0.26-0.31,0.26-0.31l0.54,0.01c0,0,0.07,0.25,0.12,0.27s0.33,0,0.38-0.01s0.16-0.22,0.16-0.22L9,52.67
	l0.84,0.03l0.64,0.04l0.51,0.04c0,0,0.06,0.14,0.13,0.19s0.36,0.06,0.49,0.01s0.11-0.2,0.11-0.2l0.25,0l0.18-0.03
	c0,0,0.04,0.19,0.12,0.25c0.08,0.06,0.47-0.02,0.52-0.02s0.14-0.28,0.14-0.28s0.16-0.03,0.33-0.02s0.49-0.11,0.61-0.17
	s0.29-0.15,0.34-0.31s-0.02-0.37-0.06-0.46s-0.18-0.21-0.29-0.32c-0.11-0.11-0.28-0.27-0.52-0.38c-0.21-0.1-0.64-0.26-0.98-0.44
	c-0.34-0.18-1.62-0.8-1.83-0.98c-0.21-0.18-0.74-0.72-0.81-0.93c-0.07-0.21-0.04-0.59-0.04-0.59s0.01-0.36,0.08-0.61
	s0.12-0.44,0.33-0.8s1.25-2.23,1.52-2.69s0.88-1.62,0.94-1.82s0.09-0.34,0.09-0.34s0.06-0.01,0.27-0.09
	c0.16-0.06,0.37-0.16,0.5-0.33s0.17-0.26,0.24-0.5c0.07-0.25,0.1-0.46,0.14-0.59c0.04-0.14,0.1-0.32,0.15-0.38
	c0.05-0.06,0.41-0.53,0.57-0.68c0.15-0.15,0.67-0.73,0.79-0.96s0.3-0.49,0.3-0.49s0.07-0.02,0.09,0.08c0.03,0.1,0.12,0.42,0.2,0.56
	c0.09,0.14,0.34,0.41,0.34,0.41S16.27,38.9,16.3,39c0.03,0.1-0.04,0.15-0.03,0.3c0.01,0.14,0.08,0.28,0.14,0.53
	c0.06,0.25,0.3,1.04,0.48,1.55c0.18,0.5,0.79,1.89,1.03,2.38c0.25,0.49,1.43,2.67,1.49,2.81c0.06,0.14,0.1,0.25,0.08,0.38
	c-0.02,0.13-0.05,0.41-0.05,0.51c0,0.1-0.04,0.08-0.02,0.16c0.02,0.08,0.18,0.45,0.23,0.53c0.04,0.08,0.08,0.12,0.08,0.19
	c0,0.08-0.04,0.21-0.02,0.31c0.02,0.11,0.17,0.57,0.21,0.69c0.04,0.12,0.21,1.25,0.23,1.32s0.11,0.23,0.16,0.33s0.06,0.07,0.13,0.13
	c0.07,0.06,0.28,0.13,0.42,0.15c0.15,0.02,0.54-0.14,0.54-0.14s0,0.12,0.1,0.14s0.39-0.05,0.45-0.11c0.06-0.05,0.03-0.14,0.03-0.14
	l0.59-0.2l0.18-0.05c0,0,0.06,0.11,0.12,0.13s0.36-0.09,0.43-0.17c0.07-0.08-0.01-0.22-0.01-0.22s0.27-0.17,0.36-0.25
	c0.09-0.08,0.27-0.33,0.3-0.53c0.03-0.2-0.03-0.38-0.07-0.5c-0.04-0.13-0.25-0.45-0.34-0.62c-0.1-0.17-0.61-0.73-0.69-0.83
	c-0.08-0.1-0.3-0.27-0.34-0.36C22.45,47.33,22.24,47,22.24,47s-0.03-0.8-0.05-0.89c-0.02-0.09-0.17-0.13-0.23-0.13
	c-0.07,0-0.16,0.02-0.16,0.02s-0.09-0.06-0.1-0.15s-0.13-0.69-0.13-0.69s-0.74-3.12-0.9-3.87s-0.25-1.06-0.36-1.55
	s-0.29-1.22-0.32-1.36c-0.05-0.2-0.14-0.45-0.14-0.45s0.03-0.2-0.02-0.51s-0.11-0.49-0.23-0.77c-0.12-0.28-0.32-0.4-0.32-0.4
	l-0.04-0.74l-0.08-1l-0.06-0.57c0,0,0.38-0.13,0.45-0.22s-0.03-0.31-0.17-0.73s-0.88-2.79-0.78-2.41c0.1,0.38-0.93-2.97-0.81-2.58
	c0.12,0.4-0.84-3-0.77-2.77c0.07,0.24-0.13-0.6-0.19-0.96c-0.02-0.13,0-0.17-0.01-0.22c-0.01-0.08,0.06-0.14,0.06-0.23
	c0-0.12-0.07-0.26-0.03-0.3c0.07-0.07,0.2-0.23,0.26-0.48s-0.05-0.51-0.03-0.41c0.03,0.1-0.06-0.06-0.01-0.23s1.2-3.62,1.2-3.62
	l0.26-0.36l0.25-0.03c0,0,0.26,1.19,0.4,1.74c0.14,0.54,0.38,1.01,0.6,1.52c0.22,0.51,1.05,2.36,1.05,2.36l0.96,2.28
	c0,0,0,0.65,0.01,0.85c0.01,0.2,0.15,0.54,0.25,0.79s0.39,0.63,0.39,0.63l0.32,0.51c0,0,0.19,0.17,0.29,0.25s0.22,0.12,0.38,0.12
	c0.17,0,0.39-0.12,0.39-0.12s0.12,0.11,0.2,0.11c0.08,0,0.26-0.08,0.26-0.08s0.09,0.1,0.15,0.11c0.06,0.01,0.26-0.05,0.26-0.05
	l0.26-0.16c0,0,0.11-0.22,0.15-0.38c0.04-0.16,0.09-0.75,0.1-0.82S24.97,27.28,24.9,27.13z"/>
<path id="skin-arm-l" class="st3" d="M24.78,27.98c-0.01-0.15-0.18-0.49-0.2-0.59c-0.02-0.11-0.37-0.67-0.44-0.75
	s-0.57-0.49-0.57-0.49l-0.19-0.47l-0.88-2.87l-0.54-2.46l-0.22-1.21l-0.25-1.09l-1,0.25l-0.46,0.09l-0.72,0.08
	c0,0,0.02,0.23,0.08,0.51s0.23,1.05,0.31,1.28c0.08,0.23,0.15,0.41,0.25,0.65c0.11,0.24,2.24,5.11,2.25,5.17
	c0.01,0.06,0.04,0.33,0.04,0.33s-0.04,0.25-0.04,0.39c0,0.15,0.02,0.41,0.1,0.6c0.08,0.2,0.35,0.56,0.35,0.56l0.06,0.05
	c0,0,0.07-0.34,0.14-0.37c0.06-0.03,0.21-0.04,0.3,0.01c0.09,0.04,0.34,0.05,0.34,0.05l-0.23-0.31l-0.4-0.6c0,0,0.17-0.01,0.3,0.01
	c0.13,0.02,0.12,0.04,0.18,0.13c0.06,0.09,0.13,0.18,0.23,0.27c0.1,0.1,0.53,0.28,0.59,0.36s0.21,0.49,0.27,0.53
	c0.06,0.04,0.23,0.22,0.3,0.2C24.81,28.28,24.79,28.13,24.78,27.98z"/>
<path id="skin-arm-l-3" class="st2" d="M24.34,28.85c0,0-0.37-0.36-0.43-0.49s-0.02-0.28-0.02-0.33c0-0.04,0.01-0.1,0.11-0.06
	c0.11,0.04,0.28,0.28,0.28,0.28l0.24,0.2l0.11,0.3c0,0,0.01,0.08-0.08,0.11C24.45,28.89,24.34,28.85,24.34,28.85z"/>
<path id="skin-arm-l-2" class="st2" d="M23.57,28.71l-0.19-0.3c0,0-0.03-0.12,0.01-0.16c0.04-0.04,0.04-0.04,0.12-0.05
	c0.09-0.01,0.17,0.03,0.17,0.03l0.07,0.23l0.18,0.23l0.06,0.12c0,0-0.02,0.03-0.07,0.08s-0.1,0.02-0.1,0.02L23.57,28.71z"/>
<path id="skin-arm-l-1" class="st2" d="M23.38,28.73l-0.17-0.23l-0.07-0.25c0,0-0.05-0.15-0.14-0.07c-0.1,0.08-0.12,0.21-0.12,0.21
	s0.04,0.16,0.12,0.3c0.08,0.14,0.18,0.16,0.25,0.2c0.08,0.04,0.18-0.02,0.18-0.02l0-0.09L23.38,28.73z"/>
<path class="st5" d="M23.2,50.33l-0.05-0.13c0,0-0.31-0.07-0.21-0.06c0.1,0.01-0.25,0.06-0.25,0.06l-0.09,0.06l-0.05,0.12l0.02,0.16
	l-0.19,0.11l-0.4,0.13l-0.04-0.19l-0.16-0.11c0,0-0.25,0.03-0.34,0.1c-0.09,0.07-0.13,0.16-0.13,0.16l0.04,0.14l-0.41,0.1
	l-0.03-0.19l0.59-0.36l0.64-0.29l0.62-0.21l0.61-0.04l0.18,0.16l-0.14,0.12L23.2,50.33z"/>
<polygon class="st5" points="21.32,49.43 20.99,49.69 21.21,49.31 21.93,48.94 22.38,48.85 22.7,48.97 22.03,49.13 21.68,49.26 "/>
<path id="player-jersey" class="st6" d="M21.46,17.47l-0.65,0.19l-0.78,0.14l-1.23,0.08c0,0,0.47-1.11,0.55-1.4s0.18-0.89,0.2-1.02
	c0.02-0.13,0-0.26,0-0.32c0-0.06,0.03-0.08,0-0.16c-0.03-0.07-0.1-0.13-0.16,0s-1.08,2.62-1.18,2.8s-0.26,0.35-0.35,0.53
	s-0.47,1.38-0.56,1.62s-0.67,2.08-0.73,2.16s-0.07,0.11-0.21,0.16s-0.19,0.02-0.35,0.02s-1.55-0.14-1.92-0.21
	c-0.63-0.12-1.46-0.29-2.13-0.43c-0.58-0.12-2.03-0.3-2.02-0.38c0.02-0.12,0.14-0.73,0.22-1.23s0.37-1.95,0.44-2.41
	c0.09-0.61,0.23-1.01,0.26-1.15c0.03-0.14,0.2-0.44,0.28-0.55s0.14-0.26,0.3-0.41s0.25-0.26,0.41-0.3s0.29,0.08,0.47,0.16
	s0.42-0.04,0.55-0.09s1.28-1.58,1.28-1.58s0.13-0.17,0.32-0.32c0.19-0.15,0.39-0.25,0.64-0.32s0.64-0.16,0.64-0.16
	s0.1-0.07,0.16-0.16c0.06-0.09,0.08-0.26,0-0.32c-0.08-0.06-0.53-0.05-0.64,0c-0.11,0.05-0.32,0.16-0.32,0.16s0.12-0.23,0.15-0.36
	s-0.08-0.33-0.08-0.33s-0.17,0.11-0.25,0.16S14.5,12.3,14.5,12.3l-1.27,1.44c0,0-0.68,1.03-0.82,1s-0.67-0.4-0.67-0.4l-1.6-1.27
	l-0.88-0.75l0.09-0.14L10,11.5l0.48-0.56l0.57-0.63l0.96-1.09l1.49-1.22l0.8-0.32h0.32l0.7-0.05l1.24,0.13l0.29,0.04l0.42,1.34
	l0.55,1.61l0.58,1.78l0.52-1l0.83-1.78l0.07-0.04c0,0,0.73,0.53,0.88,0.68c0.19,0.17,0.36,0.38,0.42,0.53s0.21,0.69,0.23,1.19
	c0.02,0.5,0.01,0.98,0,1.43c-0.01,0.44-0.02,1.2,0,1.59s0.1,1.98,0.1,1.98L21.46,17.47z"/>
<path id="player-sock-r" class="st6" d="M20.45,45.98c-0.06,0.08-0.28,0.56-0.4,0.59c-0.12,0.03-0.19-0.02-0.19-0.02l-0.14-0.33
	c0,0-0.25-0.39-0.4-0.65s-0.37-0.78-0.62-1.25c-0.25-0.47-0.5-0.95-0.75-1.52s-0.45-1.04-0.56-1.34s-0.26-0.74-0.35-1.08
	c-0.1-0.34-0.25-0.96-0.23-1.03c0.01-0.07,0-0.19,0.09-0.27c0.09-0.07,0.19-0.07,0.3-0.16c0.1-0.09,0.07-0.35,0.02-0.38
	c-0.05-0.03-0.47,0.08-0.66-0.07s-0.31-0.68-0.27-0.52s-0.08-0.34,0.02-0.43s0.58-0.23,0.91-0.33s1.02-0.3,1.31-0.33
	c0.19-0.02,0.39-0.06,0.46,0.01c0.07,0.07,0.12,0.04,0.16,0.16s0.14,0.69,0.14,0.69c-0.04,0.14-0.23,0.28-0.43,0.43
	c-0.14,0.1-0.28,0.08-0.28,0.13c0.01,0.12,0.01,0.19,0.12,0.21s0.67-0.06,0.8,0c0.08,0.04,0.12,0.14,0.29,0.92
	c0.18,0.78,1.33,5.84,1.38,6.08c0.05,0.25,0.07,0.49,0.07,0.49s-0.18-0.13-0.28-0.12C20.84,45.88,20.51,45.9,20.45,45.98z"/>
<path id="skin-leg-r" class="st3" d="M18.34,36.44c-0.08,0.03-0.52,0.12-1.04,0.27c-0.52,0.15-1.22,0.38-1.22,0.38
	s-0.52-0.84-0.67-1.09s-0.51-0.58-0.51-0.58s0.63-0.26,1.14-0.44c0.67-0.23,1.13-0.4,1.6-0.55c0.46-0.15,0.85-0.28,0.85-0.28
	s0.06,0.12,0.09,0.35s0.13,1.71,0.1,1.79C18.67,36.38,18.43,36.41,18.34,36.44z"/>
<polygon class="st1" points="17.29,35.96 17.14,35.9 17.12,35.54 17.69,35.44 17.9,35.36 17.98,35.57 17.92,35.72 17.29,35.96 "/>
<path id="player-shorts-r" class="st5" d="M16.31,23.9c0.05,0.12-0.1,0.12-0.09,0.22s0.07,0.19,0.11,0.32
	c0.04,0.13,0.71,2.56,0.71,2.56l1.08,3.4c0,0,0.9,2.83,0.81,2.56c-0.12-0.38,0.16,0.39,0.11,0.45c-0.04,0.06-0.39,0.21-0.48,0.25
	c-0.26,0.1-2.34,0.79-2.34,0.79s-2.74,0.98-2.84,1.02s-0.12,0.05-0.17-0.01c-0.04-0.05-0.61-1.43-0.81-1.91s-0.88-2.01-1.09-2.53
	s-0.66-1.63-0.78-1.89c-0.12-0.26-0.49-0.76-0.39-0.69s0.87,0.6,0.91,0.54c0.04-0.06-0.19-0.58-0.26-0.68
	c-0.07-0.1-0.25-0.28-0.38-0.38c-0.13-0.11-0.54-0.39-0.74-0.71c-0.2-0.32-0.39-0.84-0.47-1.47c-0.08-0.63-0.05-1.41-0.01-1.65
	c0.04-0.25,0.06-0.51,0.15-0.76s0.15-0.44,0.24-0.45c0.09-0.01,0.29-0.04,0.47,0s0.54,0.15,0.73,0.21s0.47,0.16,0.55,0.15
	c0.08-0.01,0.28-0.24,0.16-0.38c-0.12-0.14-0.7-0.41-0.99-0.46s-0.69-0.03-0.8-0.09s-0.12-0.19-0.07-0.33
	c0.04-0.11,0.04-0.28,0.28-0.26s0.44,0.08,0.76,0.13s1.18,0.21,1.65,0.31c0.47,0.1,1.5,0.26,1.95,0.34s1.93,0.16,2.08,0.19
	c0.14,0.03,0.15,0.21,0.12,0.3s-0.08,0.08-0.18,0.13c-0.1,0.05-0.23,0.1-0.33,0.11c-0.1,0-0.43-0.03-0.53-0.03
	c-0.1,0-0.21-0.02-0.27,0.08c-0.05,0.1-0.09,0.38,0.06,0.44c0.14,0.06,0.61,0.01,0.73,0C16.11,23.74,16.26,23.78,16.31,23.9z"/>
<path id="skin-leg-l" class="st3" d="M14.82,37.92c-0.07,0.19-0.46,0.71-0.61,0.86c-0.15,0.15-0.74,0.86-0.8,0.9
	s-0.39-0.08-0.67-0.24c-0.28-0.17-0.95-0.7-1.06-0.84s-0.25-0.29-0.21-0.46c0.04-0.17,0.17-0.46,0.23-0.73s0.02-1.05,0.02-1.05
	l1.41-0.08l1.22-0.06l0.44-0.03c0,0,0.1,0.43,0.15,0.82C14.95,37.24,14.88,37.73,14.82,37.92z"/>
<polygon class="st1" points="14.17,37.68 14.01,37.67 13.85,37.65 13.89,37.33 14.54,37.23 14.57,37.4 14.41,37.62 14.17,37.68 "/>
<path id="player-sock-l" class="st4" d="M12.66,41.29c-0.21,0-0.46-0.15-0.58-0.2c-0.12-0.04-0.12-0.14-0.18-0.14
	c-0.06,0-0.16-0.03-0.16,0.02c0,0.05-0.07,0.08-0.06,0.17s0.12,0.3,0.2,0.34c0.08,0.04,0.18,0.06,0.21,0.15
	c0.03,0.08,0,0.25-0.03,0.44s-0.39,0.84-0.39,0.84l-0.41,0.68l-0.55,0.86l-1.01,1.88l-0.58,1.19l0.04,0.31l-0.14,0.17l0.04,0.31
	l-0.57,0.7l-0.28,0.35l-0.14,0.17l-0.48,0.05l-0.18-0.14l-0.2-0.3l-0.39-0.6l-0.02-0.16l0.1-0.23l0.15-0.43c0,0,0.11-0.56,0.15-0.82
	s0.17-0.63,0.26-1.01s0.33-1,0.45-1.42c0.13-0.42,0.55-1.55,0.64-1.82c0.09-0.27,0.41-0.93,0.53-1.24c0.12-0.31,0.43-0.82,0.51-0.96
	c0.07-0.14,0.29-0.44,0.46-0.43c0.17,0.01,0.24,0.11,0.38,0.13c0.13,0.02,0.25-0.12,0.26-0.2c0-0.09-0.05-0.88-0.05-0.73
	c-0.01,0.14,0.04-0.26,0.12-0.39c0.09-0.14,0.17-0.21,0.26-0.19c0.09,0.02,0.58,0.61,0.87,0.82s0.68,0.47,0.9,0.58
	s0.34,0.1,0.38,0.26s0.03,0.22,0.01,0.33c-0.03,0.14-0.05,0.22-0.12,0.33C13,41.11,12.87,41.29,12.66,41.29z"/>
<polygon class="st5" points="9.39,51.89 9.11,51.72 9.2,51.59 9.42,51.53 9.5,51.4 9.99,51.52 10.35,51.54 10.4,51.77 10.32,51.9 
	9.39,51.89 "/>
<polygon class="st1" points="7.64,48.64 7.43,48.19 7.39,47.87 7.55,47.86 7.87,47.82 7.92,48.29 8.1,48.43 7.96,48.61 7.64,48.64 
	"/>
<path id="player-shorts-l" class="st5" d="M9.95,29.3l0.22,1.97l0.16,1.91l0.12,1.58c0,0,0.04,1.04,0.06,1.09s0,0.06,0.06,0.12
	c0.06,0.05,0.14,0.04,0.54,0s0.73-0.03,1.03-0.06s0.67-0.05,0.67-0.08s-0.61-1.49-0.61-1.49l-1.03-2.42L9.95,29.3z"/>
<path class="st1" d="M15.08,25.48c-0.07-0.09-0.17-0.11-0.2-0.02c-0.03,0.09,0.04,0.37,0.07,0.53c0.03,0.16,0.07,0.88,0.15,1
	c0.08,0.11,0.16,0.13,0.26,0.28c0.09,0.15,0.03,0.25,0.07,0.36c0.04,0.11,0.12,0.32,0.17,0.3s0.12-0.38,0.13-0.48
	c0.01-0.1-0.01-0.3-0.03-0.43c-0.02-0.13-0.13-0.37-0.2-0.59c-0.07-0.22-0.2-0.51-0.25-0.63C15.2,25.67,15.15,25.57,15.08,25.48z"/>
<path id="skin-arm-r" class="st2" d="M10.07,13.77l-0.81-0.69L9.1,12.96l-0.71,0.89L3.46,21.2l-0.32,0.39l-0.23,0.17l-1.21,0.88
	c0,0-0.7,0.75-0.77,0.9c-0.07,0.15-0.18,0.94-0.18,0.94s0.1,0.16,0.2,0.14s0.16-0.15,0.16-0.15l0.14-0.5l0.09-0.12l-0.13,0.76
	L1.2,24.88l0.11,0.09l0.2-0.1l0.32-0.94c0,0,0.19-0.44,0.23-0.47c0.04-0.03,0.21-0.08,0.21-0.08s0.33-0.06,0.41-0.04
	c0.08,0.03,0.09,0.16,0.09,0.16l-0.12,0.32L2.3,24.34c0,0-0.16,0.19-0.04,0.27c0.12,0.08,0.24,0.02,0.24,0.02l0.55-0.48
	c0,0,0.56-0.51,0.65-0.63c0.09-0.12,0.31-0.84,0.31-0.84l0.16-0.43l0.17-0.31l5.16-5.78l0.75-0.75l0.68-0.92L10.07,13.77z"/>
<path id="skin-face" class="st2" d="M22.67,3.77l-0.04-0.25c0,0-0.35-0.07-0.55-0.09c-0.2-0.02-0.54-0.05-0.54-0.05
	s-0.39,0.14-0.56,0.15s-0.31-0.01-0.31-0.01l-0.18,0.1l-0.74,0.56l-1.24,0.78c0,0-0.2-0.55-0.32-0.53
	c-0.12,0.02-0.23,0.25-0.25,0.39s0.08,0.18,0.03,0.24c-0.05,0.07-0.13,0.18-0.13,0.18S17.76,5.25,17.7,5.2s-0.23-0.73-0.28-0.67
	s0.14,0.85,0.21,0.95s0.17,0.23,0.17,0.23s-0.04,0.05-0.09,0.14c-0.05,0.09-0.08,0.3-0.08,0.3s-0.05,0.19-0.09,0.45
	s-0.22,1.17-0.22,1.17l0.68,2.08l0.55,1.65l0.5-1.1l0.54-1.29l0.11-0.27l0.28-0.02L18.84,7.7l-0.17-0.35l-0.11-0.18l0.03-0.14
	l0.43,0.1l0.02,0.32l1.06,0.94c0,0,0.29,0.17,0.43,0.18c0.14,0.01,0.21,0.04,0.29-0.06s0.21-0.43,0.21-0.43l0.07-0.28l-0.07-0.1
	c0,0-0.12-0.15-0.11-0.18s0.01-0.06,0.07-0.1s0.21-0.05,0.21-0.05l0.2-0.24l-0.37-0.26c0,0-0.04-0.12,0.03-0.14
	c0.08-0.02,0.27-0.12,0.42-0.1c0.15,0.02,0.43,0.09,0.43,0.09s0.15,0.04,0.23-0.01s0.07-0.19,0.07-0.19l-0.01-1.21l0.06-0.25
	L22,4.96l-0.14,0.14c0,0-0.13,0.28-0.21,0.29s-0.35-0.04-0.41-0.13c-0.06-0.09-0.04-0.15-0.01-0.23S21.3,4.9,21.3,4.9l-0.02-0.08
	c0,0-0.16-0.17-0.24-0.2c-0.08-0.03-0.33-0.05-0.25-0.02c0.08,0.03-0.09-0.07-0.09-0.07s0.07-0.08,0.22-0.08s0.51,0.04,0.51,0.04
	l0.59,0.15c0,0,0.38,0.13,0.43,0.11s0.16-0.19,0.16-0.19L22.67,3.77z"/>
<path id="hair" class="st0" d="M16.88,6.3l0.1,0.22l0.15,0.23l0.13-0.48l0.13-0.55l-0.07-0.11l-0.18-0.61c0,0-0.09-0.57-0.04-0.77
	c0.05-0.2,0.43-0.14,0.64,0.07c0.03-0.03,0.33-0.38,0.46-0.36c0.25,0.03,0.35,0.5,0.45,0.51c0.1,0.02,1.03-0.72,1.03-0.72l0.86-0.57
	l0.45,0.05l0.41-0.17h0.41l0.45,0.06l0.38,0.06l0.4-0.45l0.03-0.39L22.98,2.4L22.87,2l-0.31-0.16l-0.08-0.52l-0.36-0.31L21.6,0.89
	l-0.29-0.11l-0.38-0.31L20.1,0.53l-0.9-0.2l-0.11,0.1L18,0.63l-0.34,0.37L17.25,1l-0.51,0.73l-0.74,1.22l0.15,0.15l0.1,0.54
	L16.06,4.1l0.12,0.52l0.13,0.3l0.09,0.45l0.3,0.73L16.88,6.3z"/>
</svg>
