<?xml version="1.0" encoding="utf-8"?>
<!-- Generator: Adobe Illustrator 16.0.4, SVG Export Plug-In . SVG Version: 6.00 Build 0)  -->
<!DOCTYPE svg PUBLIC "-//W3C//DTD SVG 1.1//EN" "http://www.w3.org/Graphics/SVG/1.1/DTD/svg11.dtd">
<svg version="1.1" id="Ebene_1" xmlns="http://www.w3.org/2000/svg" xmlns:xlink="http://www.w3.org/1999/xlink" x="0px" y="0px"
	 width="23.11px" height="51.39px" viewBox="0 0 23.11 51.39" enable-background="new 0 0 23.11 51.39" xml:space="preserve">
<path fill-rule="evenodd" clip-rule="evenodd" fill="#1A1A18" d="M0.914,26.333c0.063-0.141,0.358-0.623,0.437-0.742
	c0.078-0.118,0.4-0.336,0.473-0.432c0.071-0.098,0.821-2.838,0.821-2.838L3.025,20.5l0.118-0.752l0.143-0.901l0.225-1.265
	c0,0,0.008-0.034-0.047-0.078s0.037-0.844,0.062-1.25c0.025-0.407,0.111-1.581,0.109-2.031s-0.01-1.806,0.031-2.25
	c0.047-0.516,0.109-0.875,0.391-1.297c0.102-0.153,0.426-0.471,0.531-0.578s0.604-0.543,0.604-0.543l0.076-0.045
	C5.119,9.23,5.028,9.055,4.979,9.05C4.816,9.037,4.212,9.456,3.803,9.171C3.536,9.017,3.565,8.746,3.376,8.574
	c-0.219-0.199-0.425-0.152-0.289-0.41c0.009-0.018-0.08-0.021-0.18-0.104c-0.148-0.093-0.029-0.29-0.115-0.523
	c-0.143-0.031-0.211,0.031-0.43-0.092C2.229,7.397,2.366,6.701,2.366,6.701L2.45,6.203l0.017-0.098
	C2.37,6.084,2.265,6.054,2.265,6.054s0.124-0.029,0.219-0.048l0.004-0.027c0,0-0.197-0.049-0.205-0.327
	c-0.01-0.278,0.016-0.5,0.016-0.5s-0.402,0.004-0.66-0.118C1.425,4.934,1.771,4.71,1.552,4.697C1.32,4.683,1.412,4.4,1.575,4.268
	c0.286-0.234,0.317-0.337,0.521-0.634c0.292-0.423,0.361-0.556,0.46-0.694C2.831,2.55,3.196,2.237,3.608,2
	c0.374-0.218,1.245-0.501,2.168-0.514c0.316,0.008,0.887,0.041,1.389,0.241c0.092-0.042,0.221-0.085,0.369-0.114
	c0.045-0.035,0.094-0.068,0.129-0.118c0.203-0.289,0.391-0.406,0.604-0.547s0.492-0.242,0.781-0.25
	c0.391-0.011,0.717,0.057,0.984,0.266c0.236,0.185,0.424,0.465,0.615,1.109c0.161,0.546,0.428,1.616,0.719,2.547
	c0.279,0.896,0.578,1.547,0.531,2.047C11.86,7.051,11.749,7.14,11.6,7.386c-0.312,0.516-0.547,0.219-0.547,0.219
	c0.016,0.109-0.312,0.234-0.391,0.203c-0.135-0.054-0.156-0.202-0.109-0.406c-0.156,0.281-0.281,0.312-0.281,0.312
	c-0.109,0.047-0.437,0.172-0.312-0.172c-0.234,0.25-0.328,0.094-0.39-0.172C9.576,7.313,9.497,7.1,9.382,6.886
	c-0.111-0.204-0.322-0.408-0.359-0.5C8.913,6.449,8.829,6.606,8.72,6.777C8.589,6.98,8.313,7.214,8.11,7.464
	C8.049,7.542,7.925,7.786,7.813,8.017C8.032,7.985,8.372,7.938,8.651,7.91c0.453-0.047,1.109-0.047,1.453-0.016
	c0.344,0.031,0.766,0.156,1.297,0.547c0.317,0.233,1.203,1.047,1.766,1.703c0.503,0.588,1.343,1.516,1.343,1.516l0.578,0.641
	l0.082,0.197l-0.154,0.194l0.031,0.037l0.576,0.885l1.293,2.015l1.453,2.281l1.133,1.791c0,0,0.529,0.816,0.699,1.008
	c0.17,0.192,1.235,1.029,1.373,1.177c0.139,0.147,0.62,0.776,0.688,0.954c0.066,0.178,0.199,0.866,0.194,0.985
	c-0.004,0.119-0.073,0.345-0.101,0.423s-0.23,0.127-0.285,0.177c-0.057,0.049-0.223,0.2-0.283,0.235
	c-0.061,0.034-0.16,0.11-0.281,0.088c-0.121-0.024-0.498-0.35-0.498-0.35s0.051,0.07-0.061,0.095s-0.318-0.007-0.521-0.078
	c-0.201-0.071-0.408-0.312-0.615-0.502c-0.205-0.189-0.541-0.537-0.541-0.537s-0.168-0.183-0.252-0.373s-0.34-1.199-0.43-1.319
	c-0.092-0.121-1.344-1.746-1.344-1.746l-2.742-3.194l-1.211-1.396c0,0,0.172,0.719,0.297,1.328s0.496,2.395,0.578,2.875
	s0.266,1.262,0.266,1.262s-0.016,0.016,0.082,0.133c0.133,0.164,0.205,0.338,0.219,0.5c0.012,0.142,0.043,0.498,0.027,0.617
	c-0.018,0.12,0.076,0.217,0.164,0.544s0.15,0.647,0.178,0.897s0.102,0.965,0.045,1.372c-0.059,0.407-0.135,1.005-0.172,1.169
	s-0.182,0.861-0.24,1.005c-0.057,0.144-0.119,0.415-0.164,0.699c-0.043,0.282-0.309,1.802-0.357,2.399
	c-0.07,0.823-0.193,2.191-0.221,2.793c-0.027,0.604-0.08,1.971-0.137,2.029c-0.055,0.059-0.082,0.117-0.082,0.117l-0.426-0.029
	h-0.396c0,0-0.063,0.609-0.045,0.754c0.02,0.144,0.188,0.568,0.246,0.65c0.061,0.08,0.248,0.244,0.306,0.316
	s0.123,0.103,0.232,0.294c0.082,0.142,0.197,0.501,0.229,0.618s0.174,0.201,0.246,0.24c0.074,0.038,0.133,0.083,0.248,0.164
	c0.113,0.08,0.238,0.361,0.332,0.484c0.096,0.125,0.521,1.193,0.521,1.193s0.541,1.46,0.627,1.703
	c0.084,0.242,0.391,1.299,0.457,1.527c0.064,0.229,0.314,1.117,0.373,1.401c0.061,0.283,0.352,1.538,0.371,1.602
	c0.018,0.063,0.158,0.188,0.15,0.324c-0.01,0.136,0.008,0.437,0.041,0.5c0.031,0.062,0.16,0.099,0.178,0.206
	c0.018,0.106-0.045,0.51-0.027,0.602c0.018,0.094,0.352,0.57,0.369,0.766s-0.025,1.42-0.059,1.49
	c-0.031,0.072-0.039,0.217-0.152,0.291c-0.113,0.075-0.564,0.125-0.564,0.125s-0.086,0.207-0.127,0.272
	c-0.041,0.064-0.27,0.016-0.33,0.011c-0.059-0.005-0.227-0.289-0.227-0.289l-0.471,0.014c0,0-0.064,0.23-0.105,0.25
	c-0.041,0.021-0.285,0.004-0.336-0.008c-0.051-0.011-0.143-0.209-0.143-0.209l-0.453,0.011l-0.734,0.029l-0.557,0.036l-0.444,0.034
	c0,0-0.056,0.136-0.11,0.181s-0.316,0.057-0.432,0.012c-0.117-0.045-0.092-0.188-0.092-0.188l-0.218-0.006l-0.161-0.024
	c0,0-0.036,0.179-0.105,0.235c-0.069,0.055-0.414-0.021-0.452-0.023c-0.038-0.001-0.122-0.264-0.122-0.264s-0.141-0.026-0.293-0.021
	c-0.153,0.005-0.434-0.101-0.534-0.162c-0.102-0.062-0.255-0.141-0.299-0.291s0.018-0.346,0.052-0.43
	c0.035-0.082,0.16-0.197,0.258-0.305c0.099-0.106,0.249-0.254,0.454-0.355c0.187-0.094,0.562-0.244,0.854-0.416
	c0.295-0.173,1.423-0.754,1.605-0.92c0.182-0.164,0.652-0.674,0.711-0.875c0.061-0.201,0.029-0.551,0.029-0.551
	s-0.01-0.342-0.064-0.576c-0.057-0.235-0.109-0.412-0.289-0.75c-0.178-0.338-1.094-2.102-1.327-2.528
	c-0.233-0.427-0.774-1.524-0.825-1.71c-0.051-0.188-0.078-0.319-0.078-0.319s-0.051-0.01-0.233-0.088
	c-0.137-0.059-0.319-0.151-0.438-0.309s-0.146-0.245-0.21-0.476s-0.087-0.43-0.123-0.558c-0.037-0.128-0.088-0.3-0.131-0.361
	s-0.359-0.499-0.496-0.64c-0.135-0.143-0.585-0.686-0.695-0.906c-0.11-0.221-0.265-0.461-0.265-0.461s-0.06-0.018-0.083,0.074
	s-0.101,0.393-0.178,0.529s-0.301,0.383-0.301,0.383s-0.047,0.039-0.068,0.131c-0.023,0.094,0.035,0.145,0.027,0.28
	c-0.01,0.137-0.074,0.261-0.123,0.5C8.3,38.514,8.086,39.256,7.927,39.73c-0.16,0.475-0.689,1.773-0.904,2.234
	c-0.215,0.459-1.25,2.51-1.301,2.646c-0.05,0.138-0.087,0.231-0.068,0.353c0.019,0.122,0.042,0.383,0.044,0.48
	s0.036,0.08,0.019,0.155c-0.017,0.075-0.161,0.419-0.199,0.497c-0.037,0.078-0.066,0.111-0.065,0.184
	c0.001,0.07,0.037,0.191,0.019,0.293c-0.018,0.102-0.149,0.533-0.186,0.647c-0.037,0.115-0.189,1.172-0.201,1.246
	c-0.014,0.075-0.097,0.22-0.137,0.31c-0.041,0.088-0.051,0.064-0.113,0.121C4.769,48.952,4.59,49.02,4.46,49.037
	c-0.129,0.018-0.473-0.132-0.473-0.132s0.004,0.11-0.084,0.132c-0.088,0.023-0.34-0.049-0.396-0.102s-0.025-0.131-0.025-0.131
	l-0.517-0.184L2.808,48.57c0,0-0.055,0.101-0.107,0.119c-0.053,0.018-0.312-0.082-0.375-0.159c-0.062-0.078,0.01-0.203,0.01-0.203
	s-0.234-0.161-0.311-0.239c-0.075-0.077-0.24-0.312-0.268-0.496s0.03-0.353,0.063-0.474c0.032-0.122,0.216-0.425,0.302-0.581
	c0.088-0.158,0.531-0.688,0.604-0.783s0.266-0.258,0.299-0.338s0.22-0.394,0.22-0.394s0.022-0.754,0.042-0.838
	c0.018-0.084,0.146-0.121,0.205-0.125c0.059-0.003,0.137,0.022,0.137,0.022s0.078-0.053,0.086-0.144
	c0.009-0.091,0.119-0.651,0.119-0.651s0.648-2.936,0.785-3.641c0.137-0.706,0.219-1,0.314-1.456s0.25-1.147,0.283-1.284
	c0.045-0.186,0.123-0.426,0.123-0.426S5.315,36.294,5.357,36c0.04-0.294,0.101-0.465,0.2-0.725c0.101-0.261,0.283-0.373,0.283-0.373
	l0.032-0.7l0.068-0.941l0.055-0.536c0,0-0.329-0.125-0.393-0.209s0.028-0.295,0.15-0.691c0.123-0.396,0.771-2.625,0.679-2.268
	c-0.078,0.309,0.594-2.021,0.705-2.402c0.018-0.086,0.738-2.836,0.678-2.626c-0.062,0.225,0.116-0.567,0.17-0.907
	c0.018-0.119,0.004-0.161,0.009-0.21c0.008-0.077-0.052-0.136-0.05-0.216c0.003-0.114,0.061-0.244,0.023-0.284
	c-0.064-0.069-0.18-0.22-0.229-0.451c-0.051-0.231,0.046-0.479,0.022-0.387c-0.022,0.093,0.051-0.058,0.007-0.218
	c-0.02-0.072-0.215-0.899-0.43-1.617c-0.261-0.872-0.75-2.172-0.75-2.172l-0.321,0.016c0,0-0.229,1.124-0.351,1.633
	c-0.121,0.51-0.33,0.952-0.527,1.43s-0.919,2.219-0.919,2.219l-0.837,2.144c0,0-0.003,0.614-0.01,0.805
	c-0.005,0.19-0.127,0.511-0.217,0.742c-0.09,0.229-0.34,0.594-0.34,0.594l-0.279,0.478c0,0-0.168,0.157-0.25,0.231
	c-0.083,0.072-0.189,0.111-0.334,0.114c-0.146,0.003-0.343-0.11-0.343-0.11s-0.103,0.099-0.173,0.099
	c-0.068,0-0.229-0.077-0.229-0.077s-0.079,0.096-0.13,0.102c-0.051,0.005-0.231-0.047-0.231-0.047L0.87,28.283
	c0,0-0.094-0.207-0.13-0.354c-0.036-0.148-0.081-0.711-0.086-0.775C0.649,27.091,0.851,26.472,0.914,26.333z"/>
<path id="skin-arm-r" fill-rule="evenodd" clip-rule="evenodd" fill="#F9CAA9" d="M1.021,27.131
	c0.012-0.143,0.162-0.457,0.176-0.557c0.014-0.102,0.326-0.631,0.383-0.704c0.055-0.073,0.502-0.457,0.502-0.457l0.164-0.444
	l0.672-2.387l0.516-2.234l0.266-1.406l0.266-1.203c0,0,0.469,0.172,0.844,0.234s1,0.141,1,0.141s-0.016,0.283-0.066,0.554
	c-0.053,0.271-0.206,0.985-0.274,1.206c-0.069,0.219-0.128,0.385-0.222,0.611c-0.094,0.226-1.965,4.803-1.973,4.859
	C3.263,25.4,3.235,25.66,3.235,25.66s0.033,0.23,0.03,0.367s-0.019,0.385-0.087,0.569c-0.066,0.186-0.306,0.527-0.306,0.527
	l-0.053,0.05c0,0-0.065-0.319-0.12-0.347c-0.053-0.029-0.184-0.034-0.262,0.005C2.359,26.87,2.14,26.875,2.14,26.875l0.198-0.289
	l0.353-0.564c0,0-0.151-0.014-0.262,0.006s-0.106,0.041-0.156,0.127c-0.05,0.084-0.115,0.168-0.199,0.258
	c-0.083,0.09-0.459,0.262-0.518,0.338s-0.18,0.465-0.235,0.499s-0.204,0.207-0.267,0.186C0.991,27.414,1.01,27.273,1.021,27.131z"/>
<path id="skin-arm-r-1" fill="#F9CAA9" d="M1.404,27.943c0,0,0.327-0.338,0.374-0.463s0.021-0.267,0.021-0.307
	c-0.001-0.039-0.009-0.092-0.101-0.058c-0.092,0.033-0.24,0.263-0.24,0.263l-0.213,0.19l-0.096,0.285c0,0-0.01,0.073,0.073,0.103
	C1.306,27.987,1.404,27.943,1.404,27.943z"/>
<path id="skin-arm-r-2" fill="#F9CAA9" d="M2.078,27.812l0.167-0.282c0,0,0.025-0.109-0.006-0.148
	C2.21,27.34,2.208,27.34,2.134,27.334c-0.075-0.008-0.152,0.028-0.152,0.028L1.92,27.58l-0.161,0.219L1.71,27.91
	c0,0,0.017,0.031,0.059,0.076c0.043,0.045,0.09,0.016,0.09,0.016L2.078,27.812z"/>
<path id="skin-arm-r-3" fill="#F9CAA9" d="M2.241,27.832l0.146-0.22l0.062-0.235c0,0,0.039-0.143,0.125-0.068
	c0.088,0.076,0.11,0.197,0.11,0.197s-0.036,0.152-0.104,0.28c-0.069,0.128-0.156,0.154-0.222,0.192
	c-0.066,0.039-0.158-0.016-0.158-0.016l-0.003-0.087L2.241,27.832z"/>
<path fill-rule="evenodd" clip-rule="evenodd" fill="#FFFFFF" d="M2.401,48.154l0.047-0.121c0,0,0.27-0.07,0.18-0.061
	c-0.09,0.009,0.217,0.061,0.217,0.061l0.076,0.061l0.047,0.111L2.95,48.357l0.17,0.102l0.348,0.121l0.039-0.182l0.136-0.107
	c0,0,0.222,0.033,0.298,0.098c0.075,0.063,0.113,0.152,0.113,0.152l-0.037,0.131l0.358,0.092l0.029-0.184l-0.521-0.334l-0.557-0.273
	l-0.548-0.193l-0.538-0.041L2.08,47.891l0.123,0.112L2.401,48.154z"/>
<path id="player-shirt" fill-rule="evenodd" clip-rule="evenodd" fill="#0068B4" d="M3.923,17.238l0.567,0.182l0.685,0.133
	l1.081,0.073c0,0-0.416-1.048-0.486-1.319s-0.161-0.841-0.178-0.961c-0.016-0.119,0.003-0.245,0-0.3
	c-0.003-0.054-0.025-0.079,0-0.147c0.024-0.068,0.091-0.123,0.14,0c0.05,0.123,0.175,0.896,0.779,1.896
	c0.098,0.162,0.291,0.562,0.396,0.855c0.063,0.178,0.458,1.229,0.657,1.904c0.068,0.232,0.591,1.961,0.636,2.036
	c0.046,0.075,0.065,0.101,0.186,0.154c0.12,0.053,0.167,0.021,0.308,0.021c0.141,0.002,1.361-0.135,1.683-0.198
	c0.552-0.108,1.277-0.27,1.865-0.402c0.508-0.113,1.775-0.278,1.765-0.354c-0.014-0.117-0.111-0.523-0.184-0.996
	c-0.07-0.473-0.436-2.162-0.521-2.584c-0.121-0.601-0.445-1.846-0.634-2.338c-0.07-0.182-0.071-0.104-0.109-0.078
	c-0.116,0.078-0.453,0.257-0.609,0.328c-0.157,0.072-0.288,0.046-0.406,0s-0.391-0.438-0.656-0.812s-0.74-0.971-0.906-1.109
	c-0.165-0.139-0.266-0.066-0.487-0.126c-0.222-0.061-0.56-0.147-0.56-0.147s-0.09-0.066-0.143-0.151
	c-0.052-0.085-0.07-0.246,0-0.298s0.465-0.051,0.562,0s0.283,0.066,0.283,0.066s-0.104-0.133-0.131-0.251
	c-0.027-0.117,0.068-0.309,0.068-0.309s0.146,0.106,0.219,0.147c0.073,0.041,0.234,0.222,0.234,0.222l1.016,1.378
	c0,0,0.685,0.944,0.812,0.915c0.127-0.03,0.584-0.379,0.584-0.379l1.404-1.193l0.77-0.707l-0.082-0.131c0,0-0.52-0.599-0.879-1.005
	s-0.859-0.969-1.171-1.328s-1.203-1.141-1.578-1.375s-0.609-0.297-1.062-0.328C9.448,8.195,8.79,8.24,8.542,8.269
	C8.011,8.332,7.651,8.441,7.651,8.441L7.354,9.738l-0.453,1.641l-0.266,1.047l-0.5-1.016L5.425,9.98L5.366,9.947
	c0,0-0.639,0.501-0.775,0.636c-0.166,0.164-0.338,0.51-0.393,0.655s-0.163,0.496-0.18,0.963c-0.027,0.773-0.003,1.227,0,1.343
	c0.012,0.419-0.038,1.5-0.055,1.866C3.946,15.775,3.923,17.238,3.923,17.238z"/>
<path id="player-sock-l" fill-rule="evenodd" clip-rule="evenodd" fill="#0068B4" d="M4.812,44.066
	c0.053,0.078,0.248,0.525,0.35,0.551c0.1,0.027,0.164-0.021,0.164-0.021l0.123-0.309c0,0,0.219-0.367,0.348-0.613
	c0.127-0.246,0.327-0.734,0.547-1.176c0.219-0.441,0.438-0.896,0.656-1.426s0.393-0.975,0.493-1.265s0.224-0.699,0.311-1.019
	c0.086-0.32,0.215-0.901,0.205-0.971c-0.009-0.068-0.004-0.18-0.081-0.25c-0.078-0.068-0.17-0.062-0.261-0.146
	c-0.092-0.084-0.06-0.328-0.015-0.354c0.046-0.024,0.411,0.074,0.58-0.068s0.272-0.641,0.238-0.489
	c-0.033,0.151,0.068-0.323-0.02-0.408c-0.088-0.084-0.506-0.221-0.794-0.309c-0.287-0.088-0.89-0.279-1.149-0.309
	c-0.168-0.019-0.34-0.058-0.402,0.008c-0.063,0.065-0.107,0.038-0.141,0.147C5.933,35.75,5.845,36.29,5.845,36.29
	c0.032,0.136,0.199,0.262,0.375,0.401c0.123,0.098,0.244,0.074,0.24,0.121c-0.008,0.113-0.008,0.178-0.104,0.197
	c-0.097,0.02-0.588-0.055-0.698,0.005c-0.073,0.039-0.101,0.129-0.255,0.866c-0.156,0.736-1.164,5.49-1.207,5.723
	c-0.044,0.232-0.062,0.463-0.062,0.463s0.16-0.122,0.246-0.11C4.468,43.968,4.759,43.988,4.812,44.066z"/>
<path id="skin-leg-l" fill-rule="evenodd" clip-rule="evenodd" fill="#F9CAA9" d="M6.657,35.088
	c0.073,0.027,0.457,0.109,0.912,0.254c0.457,0.144,1.068,0.352,1.068,0.352s0.455-0.789,0.586-1.027
	c0.13-0.239,0.445-0.548,0.445-0.548s-0.55-0.243-1-0.411c-0.588-0.221-0.994-0.377-1.4-0.52s-0.748-0.26-0.748-0.26
	s-0.057,0.115-0.083,0.33c-0.026,0.213-0.11,1.604-0.089,1.688S6.585,35.062,6.657,35.088z"/>
<polygon fill-rule="evenodd" clip-rule="evenodd" fill="#1A1A18" points="7.579,34.641 7.708,34.581 7.726,34.245 7.229,34.15 
	7.046,34.076 6.972,34.271 7.028,34.41 7.579,34.641 "/>
<path id="player-shorts-l" fill-rule="evenodd" clip-rule="evenodd" fill="#FFFFFF" d="M8.44,23.289
	c-0.045,0.111,0.084,0.115,0.081,0.209s-0.065,0.179-0.096,0.299c-0.03,0.118-0.616,2.406-0.616,2.406l-0.945,3.2
	c0,0-0.791,2.658-0.713,2.407c0.108-0.353-0.137,0.368-0.096,0.427c0.036,0.053,0.343,0.202,0.424,0.234
	c0.23,0.094,2.049,0.746,2.049,0.746s2.397,0.924,2.488,0.957c0.09,0.032,0.108,0.043,0.146-0.006
	c0.039-0.05,0.538-1.348,0.713-1.793c0.174-0.447,0.768-1.893,0.957-2.383s0.578-1.538,0.685-1.779
	c0.105-0.24,0.426-0.715,0.342-0.646c-0.086,0.068-0.763,0.564-0.794,0.508c-0.03-0.057,0.168-0.546,0.226-0.641
	c0.059-0.094,0.215-0.262,0.328-0.361c0.113-0.1,0.477-0.368,0.65-0.667s0.344-0.789,0.41-1.382
	c0.066-0.594,0.043-1.323,0.006-1.554c-0.035-0.231-0.049-0.481-0.131-0.716c-0.082-0.235-0.133-0.416-0.211-0.422
	c-0.076-0.004-0.25-0.037-0.41,0.001s-0.469,0.138-0.637,0.198c-0.166,0.061-0.409,0.154-0.479,0.145s-0.244-0.225-0.144-0.354
	c0.101-0.127,0.613-0.381,0.869-0.431c0.258-0.05,0.605-0.023,0.699-0.088s0.107-0.182,0.061-0.31
	c-0.037-0.106-0.031-0.258-0.246-0.242c-0.215,0.018-0.387,0.072-0.664,0.125c-0.275,0.054-1.031,0.199-1.441,0.295
	c-0.408,0.097-1.316,0.242-1.709,0.317c-0.392,0.075-1.692,0.153-1.818,0.179c-0.125,0.027-0.134,0.199-0.109,0.283
	c0.025,0.082,0.07,0.072,0.158,0.121c0.086,0.049,0.199,0.099,0.287,0.104c0.086,0.005,0.38-0.028,0.465-0.026
	c0.088,0.001,0.189-0.017,0.234,0.073s0.076,0.359-0.049,0.416c-0.126,0.057-0.534,0.006-0.643,0.002
	C8.614,23.136,8.483,23.175,8.44,23.289z"/>
<path id="skin-leg-r" fill-rule="evenodd" clip-rule="evenodd" fill="#F9CAA9" d="M9.746,36.48
	c0.06,0.182,0.401,0.666,0.531,0.806s0.65,0.812,0.705,0.851c0.055,0.039,0.342-0.07,0.588-0.229
	c0.247-0.158,0.835-0.658,0.932-0.791c0.095-0.133,0.222-0.269,0.187-0.428c-0.037-0.16-0.15-0.43-0.2-0.689
	s-0.014-0.985-0.014-0.985l-1.237-0.078l-1.067-0.059l-0.382-0.029c0,0-0.087,0.405-0.133,0.769
	C9.626,35.841,9.687,36.299,9.746,36.48z"/>
<polygon fill-rule="evenodd" clip-rule="evenodd" fill="#1A1A18" points="10.308,36.26 10.448,36.242 10.587,36.225 10.555,35.928 
	9.992,35.834 9.964,35.995 10.102,36.201 10.308,36.26 "/>
<path id="player-sock-r" fill="#0068B4" d="M11.634,39.656c0.183,0.004,0.403-0.146,0.505-0.188
	c0.102-0.042,0.102-0.136,0.156-0.134c0.055,0.004,0.141-0.027,0.139,0.018s0.059,0.08,0.049,0.158
	c-0.009,0.078-0.102,0.28-0.172,0.318s-0.161,0.059-0.184,0.137c-0.023,0.078-0.003,0.238,0.028,0.415s0.339,0.794,0.339,0.794
	l0.356,0.642l0.481,0.809l0.889,1.774l0.51,1.117l-0.031,0.295l0.125,0.164l-0.029,0.297l0.494,0.66l0.248,0.331l0.121,0.165
	l0.418,0.049l0.156-0.131l0.17-0.28l0.344-0.561l0.014-0.146l-0.088-0.219l-0.127-0.407c0,0-0.096-0.523-0.133-0.77
	c-0.037-0.245-0.145-0.59-0.229-0.951s-0.285-0.941-0.396-1.338c-0.109-0.396-0.48-1.461-0.562-1.715s-0.355-0.873-0.465-1.166
	c-0.109-0.295-0.379-0.773-0.443-0.901s-0.258-0.415-0.406-0.404c-0.15,0.013-0.215,0.106-0.332,0.125
	c-0.119,0.019-0.225-0.108-0.227-0.19c-0.002-0.084,0.043-0.828,0.049-0.691c0.004,0.137-0.033-0.24-0.111-0.367
	c-0.076-0.129-0.15-0.199-0.23-0.179c-0.079,0.021-0.504,0.572-0.764,0.771c-0.259,0.198-0.591,0.445-0.789,0.546
	c-0.195,0.101-0.297,0.097-0.332,0.248c-0.037,0.151-0.025,0.21-0.01,0.312c0.022,0.129,0.044,0.205,0.109,0.314
	C11.338,39.484,11.452,39.651,11.634,39.656z"/>
<polygon fill-rule="evenodd" clip-rule="evenodd" fill="#1A1A18" points="16.031,46.57 16.219,46.143 16.25,45.846 16.111,45.829 
	15.83,45.795 15.783,46.242 15.631,46.371 15.752,46.537 16.031,46.57 "/>
<path id="player-shorts-r" fill-rule="evenodd" clip-rule="evenodd" fill="#FFFFFF" d="M14.01,28.375l-0.191,1.853l-0.137,1.794
	l-0.109,1.484c0,0-0.039,0.977-0.055,1.029c-0.018,0.053,0.002,0.061-0.049,0.107c-0.051,0.049-0.119,0.034-0.474,0.005
	c-0.356-0.03-0.645-0.03-0.904-0.06s-0.588-0.043-0.588-0.072s0.537-1.406,0.537-1.406l0.902-2.279L14.01,28.375z"/>
<path fill-rule="evenodd" clip-rule="evenodd" fill="#1A1A18" d="M9.511,24.776c0.062-0.082,0.146-0.104,0.172-0.019
	c0.027,0.084-0.035,0.348-0.059,0.495s-0.059,0.829-0.131,0.937c-0.07,0.107-0.143,0.122-0.223,0.262
	c-0.081,0.14-0.029,0.234-0.062,0.342c-0.032,0.106-0.104,0.301-0.15,0.286c-0.047-0.018-0.103-0.355-0.115-0.451
	s0.007-0.282,0.024-0.401c0.017-0.121,0.112-0.354,0.175-0.561c0.062-0.207,0.179-0.482,0.223-0.595
	C9.409,24.958,9.45,24.857,9.511,24.776z"/>
<path id="skin-arm-l" fill="#F9CAA9" d="M13.9,13.761l0.713-0.647l0.139-0.121l0.633,0.979l4.305,6.773l0.279,0.363l0.197,0.157
	l1.062,0.824c0,0,0.609,0.703,0.67,0.845s0.159,0.885,0.159,0.885s-0.085,0.148-0.174,0.129s-0.136-0.142-0.136-0.142l-0.123-0.468
	l-0.079-0.117l0.113,0.712l0.013,0.275l-0.095,0.087l-0.173-0.094l-0.283-0.879c0,0-0.168-0.412-0.207-0.439
	c-0.037-0.028-0.184-0.074-0.184-0.074s-0.287-0.06-0.357-0.036s-0.08,0.146-0.08,0.146l0.104,0.303l0.309,0.482
	c0,0,0.139,0.181,0.033,0.254c-0.107,0.074-0.207,0.016-0.207,0.016l-0.479-0.455c0,0-0.49-0.48-0.572-0.594
	s-0.268-0.787-0.268-0.787l-0.139-0.408l-0.15-0.295L14.404,16l-0.676-0.824l-0.582-0.748L13.9,13.761z"/>
<path id="skin-face" fill="#F9CAA9" d="M6.861,7.825L6.641,7.18c0,0-0.155,0.012-0.246-0.008C6.319,7.156,6.306,7.109,6.33,7.088
	c0.055-0.045,0.446-0.153,0.562-0.487c0.09-0.264-0.069-0.65-0.357-0.62C6.386,5.998,6.216,6.058,6.11,6.148
	c-0.26,0.222-0.33,0.319-0.425,0.758C5.61,7.255,5.317,6.875,4.892,5.942c-0.205-0.45-0.091-0.969-0.125-0.947
	C4.271,5.312,4.198,5.273,3.921,5.249C3.878,5.244,3.644,5.236,3.792,5.07c0.051-0.069-0.193,0.095-0.564,0.048
	C2.959,5.072,3.272,4.806,3.049,4.941c-0.195,0.117-0.103,0.102-0.384,0.22C2.616,5.184,2.62,5.552,2.62,5.552
	s0.319,0.123,0.548,0.043c0.228-0.08-0.298,0.127-0.432,0.137C2.573,5.745,2.779,5.886,2.807,5.95
	C2.815,5.971,2.957,5.997,3.1,6.018C3.198,6.01,3.3,6.004,3.325,6c0.166-0.016,0.099,0.067,0.438-0.088
	c0.02,0.013-0.248,0.189-0.355,0.235C3.368,6.164,3.31,6.175,3.251,6.183C3.214,6.207,3.147,6.248,3.108,6.277
	C3.044,6.328,2.899,6.367,2.899,6.367L2.861,6.193L2.815,6.206c0,0-0.133,0.471-0.143,0.605C2.663,6.945,2.57,7.237,2.644,7.29
	c0.162,0.012,0.322,0.025,0.375,0c-0.002,0.023,0.109,0.425,0.09,0.492C3.046,7.987,3.397,7.887,3.524,7.774
	c0.129-0.111,0.23-0.008,0.23-0.008L3.753,7.848L3.462,8.009c0,0-0.158,0.057-0.088,0.18C3.41,8.252,3.479,8.171,3.595,8.295
	c0.128,0.136,0.164,0.427,0.309,0.547c0.352,0.292,0.74-0.121,1.152-0.208c0.121-0.025,0.217,0.165,0.217,0.165l1.223,2.423
	c0,0,0.219-0.75,0.391-1.406c0.191-0.729,0.326-1.299,0.326-1.299C7.208,8.584,6.861,7.825,6.861,7.825z M5.942,6.941
	C5.87,6.931,5.896,6.845,5.931,6.776l0.112-0.023c0.142-0.037,0.392-0.143,0.354-0.427C6.376,6.161,6.352,6.259,6.431,6.22
	c0.08-0.04,0.168,0,0.179,0.079c0.01,0.079-0.001,0.006-0.073,0.315c-0.016,0.07-0.114,0.142-0.114,0.142L6.368,6.785
	c0,0-0.063,0.062-0.226,0.026C6.124,6.807,6.03,6.888,5.942,6.941z"/>
<path id="hair-p" fill="#F7DD7F" d="M7.923,1.636c0.064-0.103,0.334-0.337,0.578-0.484c0.164-0.1,0.384-0.154,0.766-0.125
	c0.779,0.061,0.851,0.456,1.333,2.047c0.312,1.031,0.422,1.562,0.594,2.031c0.236,0.646,0.641,1.531,0.062,2.188
	c0.184-0.21-0.215-0.813-0.215-0.813c0.016,0.122,0.1,0.333,0.059,0.517c-0.049,0.215-0.225,0.396-0.25,0.422
	c0.125-0.328-0.26-0.946-0.26-0.946c-0.029,0.292-0.068,0.618-0.381,0.899c0.075-0.068-0.078-0.891-0.078-0.891
	c-0.047,0.234-0.281,0.578-0.281,0.766c0-0.676-0.547-0.562-0.641-1.344c0.094-0.703,0.234-1.156,0.016-2.047
	c0.094-0.281-0.039-0.964-0.1-1.219C9.032,2.246,8.813,1.949,8.595,1.824C8.285,1.647,7.923,1.636,7.923,1.636z"/>
<path id="hair" fill-rule="evenodd" clip-rule="evenodd" fill="#F7DD7F" d="M8.885,4.167C8.841,3.905,8.723,3.318,8.312,2.904
	c-0.337-0.406-0.987-0.76-1.264-0.876c-0.192-0.081-1.128-0.464-2.516-0.05C3.937,2.147,3.62,2.39,3.345,2.569
	C3.229,2.644,3.083,2.81,2.979,2.935S2.737,3.245,2.651,3.381c-0.064,0.087-0.109,0.16-0.138,0.22
	C2.399,3.789,2.31,3.944,2.194,4.09C1.979,4.36,1.859,4.409,1.873,4.42C1.924,4.463,2.056,4.412,2.257,4.39
	c-0.075,0.113-0.18,0.251-0.33,0.428c0.627,0.124,0.742-0.028,1.318-0.368c0.316-0.252,0.418-0.017,0.077,0.382
	c0.579,0.047,0.743-0.48,0.837-0.408C4.204,4.46,4.361,4.622,4.026,4.881c0.395,0.092,0.646-0.201,0.718-0.274
	c0.118-0.094,0.285-0.022,0.302,0.184C5.062,4.964,4.988,5.31,5.061,5.52c0.188,0.547,0.396,1.136,0.425,0.991
	c0.061-0.307,0.355-0.593,0.662-0.746c0.191-0.095,0.39-0.183,0.705-0.046C6.98,5.76,7.25,6,7.245,6.285
	C7.241,6.51,7.233,6.817,6.927,7.108C7,7.294,7.021,7.33,7.081,7.496c0.146,0.392,0.285,0.67,0.322,0.551
	c0.354-0.946,0.895-1.21,1.098-1.544C8.801,6.011,9.07,5.31,8.885,4.167z M8.175,5.327c-0.059,0.12,0.01-0.288,0.004-0.757
	C8.173,4.133,7.907,3.35,8.077,3.597C8.398,4.062,8.499,4.675,8.175,5.327z"/>
<path fill="#FFFFFF" d="M7.425,1.938c0,0,0.084-0.099,0.485-0.029c0.356,0.062,0.542,0.093,0.758,0.449
	c0.179,0.293,0.3,1.005,0.3,1.005S8.606,2.729,8.267,2.435C7.785,2.02,7.425,1.938,7.425,1.938z"/>
</svg>
