<?xml version="1.0" encoding="utf-8"?>
<!-- Generator: Adobe Illustrator 16.0.4, SVG Export Plug-In . SVG Version: 6.00 Build 0)  -->
<!DOCTYPE svg PUBLIC "-//W3C//DTD SVG 1.1//EN" "http://www.w3.org/Graphics/SVG/1.1/DTD/svg11.dtd">
<svg version="1.1" id="Ebene_1" xmlns="http://www.w3.org/2000/svg" xmlns:xlink="http://www.w3.org/1999/xlink" x="0px" y="0px"
	 width="29.252px" height="48.792px" viewBox="0 0 29.252 48.792" enable-background="new 0 0 29.252 48.792" xml:space="preserve">
<path fill="#1A1A18" d="M28.652,45.912c-0.016-0.265-0.326-0.352-0.41-0.353c-0.085-0.001-0.48,0.067-0.556,0.039
	c-0.077-0.025-0.729-0.262-0.808-0.32c-0.076-0.058-0.499-0.583-0.589-0.651s-0.263-0.017-0.334-0.057
	c-0.071-0.041-0.255-0.495-0.313-0.643s-0.961-5.22-1.057-5.853c-0.097-0.632-0.426-1.572-0.494-1.808s-0.342-0.809-0.396-0.867
	c-0.055-0.06,0.127-0.059,0.123-0.162c-0.003-0.104-0.185-0.631-0.291-0.815c-0.105-0.185-0.195-0.344-0.246-0.44
	s-0.141-0.183-0.205-0.309s-0.435-1.082-0.435-1.082s0.16-0.109,0.247-0.162c0.086-0.052,0.061-0.121,0.033-0.194
	c-0.077-0.197-0.245-0.631-0.432-1.109c-0.298-0.761-0.644-1.643-0.752-1.9c-0.26-0.618-0.664-1.545-0.906-2.162
	c-0.244-0.616-1.099-2.923-1.232-3.245c-0.133-0.323-0.383-0.795-0.383-0.795s0.091-0.26,0.082-0.519
	c-0.01-0.259-0.119-0.465-0.215-0.612c-0.033-0.048-0.043-0.12-0.057-0.188h0.002c0,0-0.057-0.075-0.104-0.575
	s-0.056-0.94-0.04-1.644c0.013-0.594,0.091-1.323,0.167-2.292c0.094-1.203,0.229-1.688,0.229-1.688s1.115,0.888,1.663,1.255
	c0.548,0.368,0.649,0.469,1.191,0.714c0.52,0.234,0.757,0.338,1,0.391c0.244,0.053,0.521,0.086,0.669,0.072
	c0.15-0.014,0.351-0.144,0.479-0.367c0.13-0.225,0.204-0.385,0.219-0.854c0.014-0.44-0.151-0.976-0.329-1.41
	c-0.191-0.472-0.494-1.072-0.494-1.072l-0.285-0.555l0.096-0.173c0,0,0.041-0.054,0-0.112c-0.113-0.162-0.527-0.643-0.604-0.763
	c-0.179-0.275-0.657-0.712-0.833-0.938c-0.175-0.226-0.448-0.452-0.667-0.673c-0.219-0.22-0.985-0.83-1.141-0.984
	s-0.739-0.599-1.281-0.891c-0.261-0.141-0.599-0.349-0.891-0.453c-0.209-0.075-0.389-0.163-0.5-0.203s-0.391-0.203-0.391-0.203
	l-0.312-0.125c0.069-0.081-0.041,0.044,0.172-0.422c0.187-0.406,0.297-0.531,0.297-0.531s0.284-0.189,0.375-0.281
	c0.157-0.163,0.226-0.469,0.281-0.625c0.056-0.158,0.01-0.531,0.01-0.672c0-0.102-0.136-0.185-0.136-0.185s0.146-0.528,0.232-0.946
	c0.086-0.419,0.102-0.689,0.11-1.059c0.009-0.37-0.179-1.076-0.499-1.457c-0.147-0.196-0.307-0.361-0.602-0.509
	c-0.128-0.063-0.495-0.234-0.668-0.282c-0.009-0.047-0.188-0.254-0.484-0.438c-0.306-0.191-1.039-0.215-1.391,0.016
	c-0.377,0.248-0.469,0.484-0.469,0.484s-0.856,0.458-1.172,0.906c-0.145,0.205-0.38,0.529-0.438,1.062
	c-0.052,0.475-0.016,1.031,0.219,1.844l0.062,0.484c0,0-0.108-0.004-0.172,0.156c-0.064,0.158-0.088,0.275-0.041,0.453
	c0.048,0.176,0.151,0.621,0.328,0.766c0.175,0.143,0.328,0.281,0.328,0.281s0.188,0.25,0.328,0.641
	c0.035,0.098,0.034,0.142,0.078,0.188c-0.095,0.06-0.196,0.12-0.344,0.156c-0.202,0.051-0.963,0.201-1.531,0.391
	c-0.281,0.094-0.692,0.268-0.984,0.438c-0.293,0.17-1.206,0.793-1.453,1.016c-0.247,0.224-0.734,0.656-1.203,1.109
	c-0.358,0.347-1.12,1.123-1.281,1.36c-0.161,0.235-0.231,0.268-0.354,0.415c-0.084,0.101-0.109,0.154-0.021,0.23
	c0.089,0.078,0.122,0.181,0.122,0.181l-0.417,0.692c0,0-0.528,1.037-0.608,1.225s-0.26,0.806-0.177,1.261
	c0.059,0.323,0.138,0.735,0.589,0.985c0.324,0.18,0.854,0.252,1.378,0.001s1.185-0.706,1.185-0.706l0.984-0.705l0.575-0.412
	l0.338-0.277c0,0,0.138,0.39,0.156,0.859c0.018,0.47,0.062,1.275,0.062,1.688c0,0.411-0.034,1.51-0.062,2.25
	c-0.021,0.542,0.015,0.964,0.007,0.989c0,0-0.15,0.198-0.219,0.306c-0.068,0.105-0.133,0.3-0.137,0.44
	c-0.004,0.14-0.007,0.277-0.004,0.389c0.004,0.111-0.195,0.389-0.26,0.478c-0.065,0.089-0.202,0.295-0.395,0.619
	c-0.191,0.322-0.582,0.842-0.826,1.3c-0.242,0.456-1.062,2.054-1.271,2.438c-0.208,0.383-0.881,1.756-1.104,2.25
	c-0.223,0.493-0.914,1.94-1.065,2.353c-0.03,0.084-0.044,0.153,0.028,0.205c0.071,0.051,0.33,0.17,0.33,0.17l-0.332,1.488
	c0,0-0.268,0.299-0.387,0.452s-0.294,0.618-0.297,0.801c-0.003,0.182-0.041,0.396-0.041,0.515c0,0.117-0.627,3.184-0.627,3.184
	l-0.677,4.102l-0.183,0.857c0,0-0.123,0.004-0.167,0.069s-0.093,0.685-0.144,0.728s-0.177-0.023-0.271,0.054
	c-0.094,0.077-0.048,0.432-0.14,0.519c-0.091,0.089-0.714,0.511-0.792,0.534c-0.08,0.024-0.32,0.056-0.398,0.084
	s-0.293-0.014-0.379,0.058c-0.086,0.07-0.213,0.562-0.223,0.7s0.006,0.277,0.031,0.392c0.027,0.114,0.318,0.493,0.318,0.493
	s0.003,0.218,0.014,0.287c0.01,0.069,0.112,0.151,0.144,0.154c0.03,0.003,0.082-0.071,0.082-0.071l0.913,0.226
	c0,0,0.041,0.093,0.072,0.133c0.031,0.039,0.119,0.034,0.164,0.021c0.045-0.012,0.104-0.11,0.104-0.11l0.772-0.005l0.377,0.132
	c0,0-0.018,0.162,0.037,0.221c0.054,0.06,0.157,0.039,0.229,0.028c0.072-0.013,0.098-0.218,0.098-0.218l0.287-0.026l0.303-0.085
	c0,0,0.027,0.072,0.082,0.119c0.055,0.051,0.088,0.043,0.146-0.02s0.1-0.176,0.1-0.176l0.168-0.113c0,0,0.07-0.035,0.143-0.109
	c0.073-0.076,0.119-0.16,0.145-0.265c0.025-0.105,0.018-0.234,0.008-0.391s-0.045-0.359-0.041-0.515
	C5.3,46.22,5.252,45.989,5.27,45.817c0.016-0.17,0.092-0.771,0.096-0.896c0.003-0.126-0.08-0.421-0.052-0.627
	c0.027-0.205,0.034-0.645,0.147-1.064s0.799-2.417,1.023-2.962c0.226-0.546,0.447-1.058,0.747-2.029
	c0.3-0.971,0.431-1.446,0.423-1.618c-0.014-0.309-0.246-0.469-0.145-0.543c0.104-0.074,0.119-0.374,0.119-0.374
	s0.191-0.154,0.203-0.392c0.005-0.108-0.005-0.209,0.068-0.367c0.128-0.277,0.184-0.454,0.365-0.609s0.826-0.596,0.826-0.596
	s0.467,0.185,0.779,0.293c0.312,0.109,0.575,0.191,0.74,0.251c0.164,0.059,0.211-0.024,0.275-0.159
	c0.066-0.135,0.479-0.869,0.479-0.869s1.686-3.135,1.909-3.509c0.223-0.374,0.393-0.64,0.492-0.684
	c0.101-0.043,0.418,0.044,0.553,0.075c0.134,0.029,0.246-0.03,0.287,0.059c0.041,0.088,1.123,1.72,1.409,2.22
	c0.259,0.449,1.662,2.933,1.943,3.426c0.082,0.132,0.107,0.159,0.219,0.103c0.11-0.059,1.108-0.529,1.108-0.529
	s0.247,0.161,0.548,0.427c0.301,0.265,0.622,0.444,0.667,0.523s0.188,0.241,0.212,0.403c0.024,0.16,0.064,0.646,0.162,0.734
	c0.139,0.128,0.271,0.235,0.271,0.235s0.072,0.581,0.07,0.896c-0.004,0.313,0.144,1.045,0.256,1.376
	c0.113,0.329,1.639,4.286,1.704,4.476c0.065,0.19,0.181,1.016,0.185,1.125s-0.055,0.461-0.073,0.607
	c-0.019,0.149,0.05,0.626,0.063,0.748s-0.063,0.608-0.079,0.762c-0.017,0.153,0.029,0.743,0.061,0.794
	c0.032,0.051,0.21,0.135,0.21,0.135s-0.007,0.116,0.023,0.163c0.031,0.046,0.106,0.085,0.164,0.073
	c0.059-0.012,0.08-0.084,0.08-0.084l0.178,0.059c0,0,0.026,0.141,0.058,0.173c0.03,0.032,0.202,0.07,0.247,0.059
	c0.044-0.013,0.068-0.117,0.068-0.117l0.51-0.026l0.774-0.127l0.152-0.022c0,0,0.055,0.146,0.112,0.163
	c0.059,0.018,0.124-0.014,0.164-0.044c0.042-0.029,0.008-0.157,0.008-0.157l0.946-0.135c0,0,0.025,0.066,0.11,0.099
	c0.086,0.032,0.12,0.011,0.191-0.045c0.073-0.056,0.056-0.146,0.056-0.146l0.567-0.173c0,0,0.023,0.067,0.094,0.043
	c0.082-0.029,0.082-0.015,0.092-0.076c0.016-0.097-0.006-0.167-0.006-0.167l0.236-0.262c0,0,0.029,0.091,0.088,0.078
	c0.058-0.012,0.062-0.025,0.082-0.117c0.027-0.133,0.009-0.161,0.009-0.161S28.668,46.179,28.652,45.912z"/>
<path id="skin-leg-l" fill-rule="evenodd" clip-rule="evenodd" fill="#F9CAA9" d="M7.446,34.395c0,0,0.132-0.315,0.163-0.434
	c0.032-0.119-0.004-0.177-0.041-0.221c-0.036-0.046-0.086-0.177-0.082-0.221c0.005-0.046,0.05-0.205,0.103-0.177
	S7.933,33.8,8.02,33.807c0.086,0.005,0.538-0.304,0.538-0.304s-0.78-0.382-0.985-0.47c-0.206-0.088-0.721-0.336-0.928-0.44
	c-0.209-0.104-0.576-0.265-0.576-0.265l-0.287,1.213l-0.02,0.154c0,0,0.537,0.249,0.893,0.382
	C7.011,34.209,7.446,34.395,7.446,34.395z"/>
<path id="skin-leg-r" fill-rule="evenodd" clip-rule="evenodd" fill="#F9CAA9" d="M20.792,33.577
	c-0.26,0.146-1.139,0.582-1.139,0.582l0.416,0.286l0.651,0.536l0.958-0.536l1.006-0.484l-0.431-1.185c0,0-0.318,0.2-0.513,0.302
	C21.546,33.181,21.025,33.446,20.792,33.577z"/>
<path id="goalie-sock-r" fill-rule="evenodd" clip-rule="evenodd" fill="#FFFFFF" d="M21.245,36.105
	c0.082,0.147,0.738-0.265,0.861-0.308c0.124-0.045,0.164-0.119,0.273-0.074s0.248,0.029,0.123,0.279
	c-0.123,0.25-0.695,0.687-0.695,0.687s-0.159,0.091-0.139,0.316c0.02,0.228-0.035,0.7,0.092,1.276
	c0.127,0.577,0.367,1.145,0.637,1.853c0.271,0.709,0.797,2.041,0.924,2.403c0.127,0.364,0.257,0.74,0.309,0.927
	c0.051,0.187,0.113,1.019,0.185,1.081c0.071,0.062,0.221-0.284,0.304-0.288c0.082-0.004,1.062,0.922,1.229,0.944
	c0.168,0.022,0.102-0.452,0.08-0.538c-0.021-0.087-0.166-0.415-0.216-0.56c-0.052-0.145-0.128-0.693-0.186-1.059
	c-0.058-0.364-0.355-1.865-0.469-2.511c-0.112-0.646-0.452-2.513-0.575-3.029c-0.123-0.516-0.486-1.457-0.619-1.715
	c-0.133-0.259-0.301-0.313-0.34-0.365s-0.043-0.156,0.027-0.18c0.07-0.022,0.178-0.06,0.192-0.151s-0.088-0.31-0.146-0.43
	c-0.058-0.118-0.208-0.353-0.305-0.323c-0.096,0.029-1.151,0.531-1.327,0.632c-0.176,0.1-0.445,0.261-0.451,0.323
	c-0.008,0.062,0.163,0.235,0.178,0.411C21.204,35.886,21.206,35.994,21.245,36.105z"/>
<path id="goalie-sock-l" fill-rule="evenodd" clip-rule="evenodd" fill="#FFFFFF" d="M7.219,35.525
	c-0.043,0.081,0.044,0.229-0.062,0.266s-0.702-0.36-0.78-0.287s-0.1,0.06-0.041,0.176c0.059,0.118,0.732,0.633,0.799,0.882
	c0.064,0.248-0.064,0.561-0.224,1.126c-0.161,0.564-0.981,2.696-1.118,3.078c-0.137,0.383-0.74,2.279-0.781,2.471
	c-0.04,0.19-0.062,1.089-0.134,1.154s-0.257-0.446-0.328-0.441c-0.071,0.007-0.765,0.553-0.842,0.552
	c-0.078-0.001-0.142-0.617-0.144-0.86c-0.003-0.243,0.266-1.753,0.316-2.13s0.215-1.2,0.365-1.994s0.73-3.85,0.775-3.946
	s0.297-0.036,0.391-0.066s0.013-0.299-0.002-0.37s-0.233-0.042-0.301-0.175c-0.07-0.133,0.031-0.277,0.117-0.425
	c0.087-0.148,0.266-0.34,0.348-0.325s0.7,0.28,0.7,0.28s0.878,0.325,0.979,0.404c0.101,0.08,0.133,0.259,0.13,0.39
	C7.381,35.415,7.263,35.446,7.219,35.525z"/>
<path id="goalie-shorts" fill-rule="evenodd" clip-rule="evenodd" fill="#1A1A18" d="M19.243,24.023c0,0-0.25-0.618-0.41-0.676
	c-0.161-0.058-0.915-0.051-1.037-0.058c-0.205-0.016-0.284-0.001-0.383-0.074c-0.1-0.073-0.131-0.242-0.068-0.279
	c0.098-0.059,0.441-0.051,0.561-0.059c0.232-0.015,0.544-0.023,0.698-0.059c0.153-0.037,0.116-0.263,0.147-0.33
	c0.03-0.067-0.055-0.234-0.147-0.243c-0.093-0.01-0.773,0.012-1.352,0.028c-0.577,0.015-1.438-0.051-2.072-0.103
	c-0.633-0.051-1.268-0.009-2.003-0.118s-2.2-0.418-2.296-0.404c-0.069,0.011-0.181,0.088-0.205,0.191
	c-0.023,0.104-0.005,0.274,0.055,0.368c0.061,0.094,1.578,0.201,1.624,0.307s0.076,0.237,0,0.304
	c-0.077,0.065-0.181,0.108-0.348,0.116c-0.167,0.009-1.406-0.258-1.499-0.169c-0.092,0.089-0.43,0.572-0.52,0.706
	c-0.093,0.133-0.609,0.899-0.853,1.326c-0.243,0.428-0.562,1.006-0.75,1.375c-0.188,0.368-0.728,1.439-0.896,1.771
	c-0.168,0.332-0.78,1.568-0.959,1.979c-0.178,0.412-0.588,1.271-0.711,1.565c-0.034,0.08-0.04,0.129,0.041,0.191
	c0.08,0.061,0.333,0.193,0.557,0.295c0.223,0.102,0.948,0.47,1.496,0.733c0.547,0.266,1.355,0.618,1.629,0.722
	c0.252,0.094,0.767,0.279,0.903,0.322c0.138,0.045,0.165-0.014,0.247-0.176c0.025-0.053,0.227-0.463,0.574-1.117
	c0.821-1.544,1.937-3.472,1.898-3.544c-0.037-0.072-0.605-0.442-0.848-0.618c-0.242-0.175-0.797-0.764-0.78-0.822
	s0.174-0.061,0.231-0.06c0.059,0.001,0.625,0.337,0.85,0.5c0.223,0.163,0.816,0.44,0.902,0.471s0.312,0.028,0.439,0.065
	c0.126,0.038,0.281,0.095,0.464,0.104s1.091-0.259,1.499-0.353c0.408-0.095,0.884-0.186,0.979-0.14
	c0.098,0.045,0.036,0.127-0.016,0.182c-0.051,0.054-0.168,0.229-0.622,0.369s-1.216,0.33-1.184,0.404
	c0.031,0.074,0.256,0.41,0.41,0.661s0.777,1.205,1.055,1.729c0.277,0.522,1.504,2.692,1.563,2.815
	c0.059,0.123,0.059,0.152,0.197,0.096c0.246-0.117,0.83-0.391,1.254-0.596c0.547-0.264,1.506-0.765,1.889-0.985
	c0.383-0.22,0.779-0.457,0.902-0.544c0.124-0.088,0.041-0.209,0.041-0.209L19.243,24.023z"/>
<path id="skin-arm-l" fill="#F9CAA9" d="M9.975,15.216l-1.053,0.118c0,0-0.426,0.35-0.477,0.382
	c-0.052,0.032-0.14,0.076-0.226,0.054c-0.087-0.021-0.065-0.031-0.073-0.125c-0.007-0.093,0.093-0.233,0.238-0.352
	s0.318-0.373,0.318-0.373l-0.699-0.51L7.414,14l-0.537-0.402c0,0-0.306,0.49-0.483,0.791c-0.177,0.301-0.457,0.806-0.557,1.127
	c-0.099,0.32-0.144,0.644-0.101,0.85s0.047,0.365,0.146,0.499c0.055,0.071,0.159,0.208,0.334,0.295
	c0.15,0.074,0.367,0.107,0.473,0.105c0.226-0.002,0.535-0.127,0.719-0.223c0.182-0.097,1.1-0.66,1.439-0.926s0.51-0.455,0.686-0.588
	C9.707,15.396,9.975,15.216,9.975,15.216z"/>
<path id="goalie-shirt" fill="#962467" d="M22.49,12.778c-0.254-0.353-1.289-1.426-1.771-1.854
	c-0.481-0.428-1.041-0.896-1.729-1.354c-0.212-0.142-0.589-0.376-0.901-0.501c-0.22-0.088-0.566-0.244-0.734-0.297
	c-0.168-0.052-0.469-0.182-0.469-0.182s-0.28-0.02-0.546-0.006c-0.324,0.016-0.82,0.025-1.078,0
	c-0.284-0.028-0.587-0.075-0.828-0.094s-0.609-0.088-0.609-0.088s-0.221,0.08-0.438,0.127c-0.16,0.034-0.452,0.086-0.452,0.086
	s-0.776,0.183-1.234,0.329c-0.319,0.102-0.749,0.385-1.062,0.583c-0.313,0.199-1.242,0.896-1.667,1.292
	c-0.424,0.397-1.169,1.162-1.375,1.396c-0.204,0.235-0.76,0.818-0.686,0.734c0.075-0.084-0.075,0.066,0.021,0.131
	c0.095,0.064,0.523,0.434,0.523,0.434s0.884,0.614,1.138,0.828c0.255,0.214,0.878,0.561,0.878,0.561s0.084-0.021,0.334-0.167
	c0.068-0.029,0.512-0.37,0.688-0.458c0.291-0.146,0.688-0.391,0.787-0.387c0.1,0.004,0.203,0.146,0.213,0.244
	c0.01,0.098-0.638,0.813-0.646,0.892c-0.008,0.08,0.095,0.544,0.125,0.834c0.031,0.29,0.033,0.867,0.042,1.229
	s0.024,1.456,0.021,1.75c-0.002,0.292-0.041,1.584-0.041,1.584l0.07,0.717c0,0-0.016,0.095,0.074,0.12
	c0.088,0.025,1.535,0.269,2.019,0.35c0.483,0.079,1.389,0.146,2.201,0.178s1.471,0.064,1.895,0.064s0.844-0.043,0.844-0.043
	s0.266-0.026,0.35-0.043c0.084-0.018,0.079-0.091,0.079-0.091l-0.034-0.655c0,0,0.027-0.645,0.041-1.13s0.043-0.951,0.064-1.571
	c0.027-0.794,0.121-1.72,0.146-2.021c0.041-0.471,0.152-0.88,0.125-1.042c-0.027-0.16-0.47-0.745-0.482-0.834
	c-0.012-0.087,0.111-0.279,0.215-0.256c0.102,0.022,0.271,0.09,0.476,0.216c0.438,0.271,0.753,0.438,0.792,0.458
	c0.271,0.146,0.5,0.354,0.583,0.333c0.083-0.021,0.483-0.263,0.765-0.446c0.279-0.186,1.312-0.918,1.312-0.918
	s0.323-0.27,0.418-0.341c0.096-0.073,0.07-0.064,0.025-0.148C22.924,13.236,22.669,13.027,22.49,12.778z"/>
<path fill-rule="evenodd" clip-rule="evenodd" fill="#1A1A18" d="M15.051,16.24c-0.006-0.271-0.122-1.2-0.051-1.485
	c0.072-0.286,0.29-1.256,0.297-1.5c0.008-0.242-0.207-0.958-0.209-1.106c-0.002-0.149,0.017-0.331-0.041-0.439
	c-0.057-0.107-0.099-0.039-0.146,0.074c-0.047,0.113-0.04,2.158-0.092,2.421c-0.051,0.265-0.292,0.996-0.302,1.314
	c-0.009,0.317,0.03,1.505,0.099,1.734c0.07,0.229,0.103,0.59,0.154,0.675c0.053,0.084,0.116,0.125,0.234,0.031
	c0.119-0.095,0.25-0.343,0.267-0.607C15.278,17.085,15.058,16.512,15.051,16.24z"/>
<path id="skin-arm-r" fill="#F9CAA9" d="M19.9,15.509l1.05,0.141c0,0,0.356,0.306,0.47,0.393c0.113,0.088,0.157,0.079,0.225,0.062
	c0.066-0.018,0.155-0.115,0.124-0.177c-0.03-0.062-0.146-0.135-0.279-0.305c-0.134-0.168-0.284-0.375-0.284-0.375
	s0.42-0.308,0.682-0.499s0.36-0.235,0.599-0.396c0.238-0.162,0.544-0.39,0.544-0.39s0.254,0.405,0.467,0.802
	c0.213,0.396,0.5,0.999,0.569,1.352c0.067,0.354,0.136,0.721,0,1.015c-0.138,0.293-0.242,0.452-0.548,0.426
	c-0.305-0.026-0.707-0.174-1.01-0.322c-0.305-0.148-0.518-0.22-0.76-0.375s-1.031-0.712-1.211-0.838
	C20.355,15.895,19.9,15.509,19.9,15.509z"/>
<path id="skin-face-l" fill-rule="evenodd" clip-rule="evenodd" fill="#F9CAA9" d="M14.683,8.194
	c-0.185-0.155-0.493-0.444-0.706-0.703c-0.257-0.314-0.518-0.697-0.734-1.001c-0.063-0.089-0.416-0.651-0.416-0.53
	s0.034,0.307,0.092,0.484s0.26,0.289,0.337,0.334c0.076,0.045,0.139,0.114,0.261,0.334c0.091,0.166,0.479,0.707,0.651,0.988
	c0,0,0.113,0.008,0.236,0.043S14.683,8.194,14.683,8.194z"/>
<path id="skin-face-r" fill-rule="evenodd" clip-rule="evenodd" fill="#F9CAA9" d="M16.433,8.194
	c0.204-0.323,0.531-0.885,0.623-1.052c0.121-0.22,0.184-0.288,0.26-0.333c0.076-0.046,0.279-0.156,0.337-0.334
	s0.076-0.379,0.076-0.5s-0.246,0.35-0.308,0.439c-0.201,0.292-0.447,0.665-0.627,0.971c-0.081,0.138-0.243,0.369-0.361,0.496
	c-0.11,0.117-0.224,0.235-0.391,0.344c0,0,0.094-0.002,0.203-0.017S16.433,8.194,16.433,8.194z"/>
<path id="hair" fill-rule="evenodd" clip-rule="evenodd" fill="#F7DD7F" d="M17.618,2.454c-0.123-0.248-0.475-0.649-0.964-0.82
	c-0.05-0.018-0.105-0.062-0.149-0.077c0.107,0.62,0.06,0.909-0.094,1.622c-0.031,0.145-0.014,0.232,0.03,0.525
	c0.074,0.502,0.217,1.279,0.275,1.611c0.071,0.404,0.094,0.592,0.064,1.195c-0.02,0.387-0.362,0.776-0.445,0.852
	c-0.152,0.14-0.223,0.108-0.223,0.108s-0.234,0.251-0.336,0.217c-0.139-0.046-0.134-0.173-0.169-0.217
	c-0.034-0.044-0.015,0.124-0.138,0.201c-0.043,0.027-0.23,0.077-0.337-0.155c-0.052-0.111-0.017,0.082-0.138,0.155
	c-0.129,0.078-0.24-0.147-0.26-0.216c-0.059-0.189,0.045-0.031-0.123-0.017c-0.168,0.017-0.307-0.137-0.448-0.368
	c-0.083-0.135-0.276-0.682-0.214-1.146c0.022-0.175,0.11-0.89,0.148-1.292c0.045-0.496,0.062-1.216,0.03-1.471
	c-0.046-0.356-0.247-0.99-0.109-1.5c-0.384,0.186-0.626,0.466-0.812,0.668c-0.199,0.217-0.459,0.727-0.443,1.223
	c0.015,0.496,0.076,0.991,0.184,1.409c0.107,0.417,0.117,0.712,0.117,0.712s0.398,0.496,0.674,0.976
	c0.156,0.271,0.439,0.63,0.674,0.866c0.245,0.248,0.659,0.631,0.94,0.631c0.367,0,0.755-0.371,0.836-0.46
	c0.408-0.446,0.462-0.608,0.813-1.196c0.165-0.275,0.373-0.593,0.472-0.77c0.123-0.221,0.184-0.542,0.229-0.806
	c0.071-0.405,0.188-0.759,0.173-1.238C17.864,3.198,17.741,2.702,17.618,2.454z"/>
<path id="hair-p" fill="#F7DD7F" d="M16.536,6.272c-0.026-0.351-0.062-0.844-0.141-1.188c-0.026-0.164-0.221-1.17-0.26-1.707
	c-0.017,0.007-0.03,0.013-0.053,0.02c-0.075,0.021-0.188,0.125-0.188,0.125s0.062-0.094,0.172-0.297
	c0.039-0.072,0.061-0.146,0.077-0.214c0.11-0.411,0.134-0.876,0.128-1.021c-0.028-0.794-0.331-1.098-0.993-1.109
	c-0.536-0.012-0.955,0.264-1.021,0.99c-0.008,0.09-0.02,0.226,0.012,0.463c0.021,0.16,0.081,0.401,0.101,0.57
	c0.016,0.064,0.043,0.153,0.087,0.258c0.094,0.219,0.172,0.359,0.172,0.359s-0.107-0.09-0.151-0.13
	c-0.002,0.007-0.037-0.003-0.075-0.015c0.001,0.57-0.074,1.639-0.133,2.094c-0.001,0.004-0.261,1.076,0.25,1.598
	c0.036,0.036,0.019,0.041,0.058-0.205c0.033-0.217,0.145-0.338,0.158-0.296c0.09,0.28,0.198,0.55,0.195,0.846
	c0.002-0.188,0.131-0.64,0.18-0.874c0,0,0.301,0.848,0.258,0.94c0.159-0.343,0.171-0.652,0.203-0.944c0,0,0.378,0.621,0.25,0.948
	c0.025-0.024,0.203-0.204,0.254-0.419c0.043-0.184-0.039-0.396-0.053-0.518c0,0,0.356,0.381,0.231,0.553
	C16.444,6.841,16.56,6.577,16.536,6.272z M15.74,2.399c-0.055,0.109-0.043-0.521-0.084-0.689c-0.098-0.391-0.338-0.472-0.07-0.403
	C15.838,1.372,16.037,1.8,15.74,2.399z"/>
</svg>
