<?xml version="1.0" encoding="utf-8"?>
<!-- Generator: Adobe Illustrator 16.0.4, SVG Export Plug-In . SVG Version: 6.00 Build 0)  -->
<!DOCTYPE svg PUBLIC "-//W3C//DTD SVG 1.1//EN" "http://www.w3.org/Graphics/SVG/1.1/DTD/svg11.dtd">
<svg version="1.1" id="Ebene_1" xmlns="http://www.w3.org/2000/svg" xmlns:xlink="http://www.w3.org/1999/xlink" x="0px" y="0px"
	 width="29.252px" height="48.792px" viewBox="0 0 29.252 48.792" enable-background="new 0 0 29.252 48.792" xml:space="preserve">
<path fill="#1A1A18" d="M0.601,45.912c0.016-0.265,0.326-0.352,0.41-0.353c0.085-0.001,0.48,0.067,0.556,0.039
	c0.077-0.025,0.729-0.262,0.808-0.32c0.076-0.058,0.499-0.583,0.589-0.651s0.263-0.017,0.334-0.057
	c0.071-0.041,0.255-0.495,0.313-0.643s0.961-5.22,1.057-5.853c0.097-0.632,0.426-1.572,0.494-1.808s0.342-0.809,0.396-0.867
	c0.055-0.06-0.127-0.059-0.123-0.162c0.003-0.104,0.185-0.631,0.291-0.815c0.105-0.185,0.195-0.344,0.246-0.44
	s0.141-0.183,0.205-0.309s0.435-1.082,0.435-1.082s-0.16-0.109-0.247-0.162c-0.086-0.052-0.061-0.121-0.033-0.194
	c0.077-0.197,0.245-0.631,0.432-1.109c0.298-0.761,0.644-1.643,0.752-1.9c0.26-0.618,0.664-1.545,0.906-2.162
	c0.244-0.616,1.099-2.923,1.232-3.245c0.133-0.323,0.383-0.795,0.383-0.795s-0.091-0.26-0.082-0.519
	c0.01-0.259,0.119-0.465,0.215-0.612c0.033-0.048,0.043-0.12,0.057-0.188h-0.002c0,0,0.057-0.075,0.104-0.575s0.056-0.94,0.04-1.644
	c-0.013-0.594-0.091-1.323-0.167-2.292c-0.094-1.203-0.229-1.688-0.229-1.688s-1.115,0.888-1.663,1.255
	c-0.548,0.368-0.649,0.469-1.191,0.714c-0.52,0.234-0.757,0.338-1,0.391c-0.244,0.053-0.521,0.086-0.669,0.072
	c-0.15-0.014-0.351-0.144-0.479-0.367c-0.13-0.225-0.204-0.385-0.219-0.854c-0.014-0.44,0.151-0.976,0.329-1.41
	c0.191-0.472,0.494-1.072,0.494-1.072l0.285-0.555l-0.096-0.173c0,0-0.041-0.054,0-0.112c0.113-0.162,0.527-0.643,0.604-0.763
	c0.179-0.275,0.657-0.712,0.833-0.938c0.175-0.226,0.448-0.452,0.667-0.673c0.219-0.22,0.985-0.83,1.141-0.984
	s0.739-0.599,1.281-0.891c0.261-0.141,0.599-0.349,0.891-0.453c0.209-0.075,0.389-0.163,0.5-0.203s0.391-0.203,0.391-0.203
	l0.312-0.125c-0.069-0.081,0.041,0.044-0.172-0.422c-0.187-0.406-0.297-0.531-0.297-0.531s-0.284-0.189-0.375-0.281
	c-0.157-0.163-0.226-0.469-0.281-0.625c-0.056-0.158-0.01-0.531-0.01-0.672c0-0.102,0.136-0.185,0.136-0.185
	s-0.146-0.528-0.232-0.946c-0.086-0.419-0.102-0.689-0.11-1.059c-0.009-0.37,0.179-1.076,0.499-1.457
	c0.147-0.196,0.307-0.361,0.602-0.509c0.128-0.063,0.495-0.234,0.668-0.282c0.009-0.047,0.188-0.254,0.484-0.438
	c0.306-0.191,1.039-0.215,1.391,0.016c0.377,0.248,0.469,0.484,0.469,0.484s0.856,0.458,1.172,0.906
	c0.145,0.205,0.38,0.529,0.438,1.062c0.052,0.475,0.016,1.031-0.219,1.844l-0.062,0.484c0,0,0.108-0.004,0.172,0.156
	c0.064,0.158,0.088,0.275,0.041,0.453c-0.048,0.176-0.151,0.621-0.328,0.766c-0.175,0.143-0.328,0.281-0.328,0.281
	s-0.188,0.25-0.328,0.641c-0.035,0.098-0.034,0.142-0.078,0.188c0.095,0.06,0.196,0.12,0.344,0.156
	c0.202,0.051,0.963,0.201,1.531,0.391c0.281,0.094,0.692,0.268,0.984,0.438c0.293,0.17,1.206,0.793,1.453,1.016
	c0.247,0.224,0.734,0.656,1.203,1.109c0.358,0.347,1.12,1.123,1.281,1.36c0.161,0.235,0.231,0.268,0.354,0.415
	c0.084,0.101,0.109,0.154,0.021,0.23c-0.089,0.078-0.122,0.181-0.122,0.181l0.417,0.692c0,0,0.528,1.037,0.608,1.225
	s0.26,0.806,0.177,1.261c-0.059,0.323-0.138,0.735-0.589,0.985c-0.324,0.18-0.854,0.252-1.378,0.001s-1.185-0.706-1.185-0.706
	l-0.984-0.705l-0.575-0.412l-0.338-0.277c0,0-0.138,0.39-0.156,0.859c-0.018,0.47-0.062,1.275-0.062,1.688
	c0,0.411,0.034,1.51,0.062,2.25c0.021,0.542-0.015,0.964-0.007,0.989c0,0,0.15,0.198,0.219,0.306c0.068,0.105,0.133,0.3,0.137,0.44
	c0.004,0.14,0.007,0.277,0.004,0.389c-0.004,0.111,0.195,0.389,0.26,0.478c0.065,0.089,0.202,0.295,0.395,0.619
	c0.191,0.322,0.582,0.842,0.826,1.3c0.242,0.456,1.062,2.054,1.271,2.438c0.208,0.383,0.881,1.756,1.104,2.25
	c0.223,0.493,0.914,1.94,1.065,2.353c0.03,0.084,0.044,0.153-0.028,0.205c-0.071,0.051-0.33,0.17-0.33,0.17l0.332,1.488
	c0,0,0.268,0.299,0.387,0.452s0.294,0.618,0.297,0.801c0.003,0.182,0.041,0.396,0.041,0.515c0,0.117,0.627,3.184,0.627,3.184
	l0.677,4.102l0.183,0.857c0,0,0.123,0.004,0.167,0.069s0.093,0.685,0.144,0.728s0.177-0.023,0.271,0.054
	c0.094,0.077,0.048,0.432,0.14,0.519c0.091,0.089,0.714,0.511,0.792,0.534c0.08,0.024,0.32,0.056,0.398,0.084
	s0.293-0.014,0.379,0.058c0.086,0.07,0.213,0.562,0.223,0.7s-0.006,0.277-0.031,0.392c-0.027,0.114-0.318,0.493-0.318,0.493
	s-0.003,0.218-0.014,0.287c-0.01,0.069-0.112,0.151-0.144,0.154c-0.03,0.003-0.082-0.071-0.082-0.071l-0.913,0.226
	c0,0-0.041,0.093-0.072,0.133c-0.031,0.039-0.119,0.034-0.164,0.021c-0.045-0.012-0.104-0.11-0.104-0.11l-0.772-0.005l-0.377,0.132
	c0,0,0.018,0.162-0.037,0.221c-0.054,0.06-0.157,0.039-0.229,0.028c-0.072-0.013-0.098-0.218-0.098-0.218l-0.287-0.026l-0.303-0.085
	c0,0-0.027,0.072-0.082,0.119c-0.055,0.051-0.088,0.043-0.146-0.02s-0.1-0.176-0.1-0.176l-0.168-0.113c0,0-0.07-0.035-0.143-0.109
	c-0.073-0.076-0.119-0.16-0.145-0.265c-0.025-0.105-0.018-0.234-0.008-0.391s0.045-0.359,0.041-0.515
	c-0.003-0.156,0.045-0.387,0.027-0.559c-0.016-0.17-0.092-0.771-0.096-0.896c-0.003-0.126,0.08-0.421,0.052-0.627
	c-0.027-0.205-0.034-0.645-0.147-1.064s-0.799-2.417-1.023-2.962c-0.226-0.546-0.447-1.058-0.747-2.029
	c-0.3-0.971-0.431-1.446-0.423-1.618c0.014-0.309,0.246-0.469,0.145-0.543c-0.104-0.074-0.119-0.374-0.119-0.374
	s-0.191-0.154-0.203-0.392c-0.005-0.108,0.005-0.209-0.068-0.367c-0.128-0.277-0.184-0.454-0.365-0.609s-0.826-0.596-0.826-0.596
	s-0.467,0.185-0.779,0.293c-0.312,0.109-0.575,0.191-0.74,0.251c-0.164,0.059-0.211-0.024-0.275-0.159
	c-0.066-0.135-0.479-0.869-0.479-0.869s-1.686-3.135-1.909-3.509c-0.223-0.374-0.393-0.64-0.492-0.684
	c-0.101-0.043-0.418,0.044-0.553,0.075c-0.134,0.029-0.246-0.03-0.287,0.059c-0.041,0.088-1.123,1.72-1.409,2.22
	c-0.259,0.449-1.662,2.933-1.943,3.426c-0.082,0.132-0.107,0.159-0.219,0.103c-0.11-0.059-1.108-0.529-1.108-0.529
	s-0.247,0.161-0.548,0.427c-0.301,0.265-0.622,0.444-0.667,0.523s-0.188,0.241-0.212,0.403c-0.024,0.16-0.064,0.646-0.162,0.734
	c-0.139,0.128-0.271,0.235-0.271,0.235s-0.072,0.581-0.07,0.896c0.004,0.313-0.144,1.045-0.256,1.376
	c-0.113,0.329-1.639,4.286-1.704,4.476c-0.065,0.19-0.181,1.016-0.185,1.125s0.055,0.461,0.073,0.607
	c0.019,0.149-0.05,0.626-0.063,0.748s0.063,0.608,0.079,0.762c0.017,0.153-0.029,0.743-0.061,0.794
	c-0.032,0.051-0.21,0.135-0.21,0.135s0.007,0.116-0.023,0.163c-0.031,0.046-0.106,0.085-0.164,0.073
	c-0.059-0.012-0.08-0.084-0.08-0.084l-0.178,0.059c0,0-0.026,0.141-0.058,0.173c-0.03,0.032-0.202,0.07-0.247,0.059
	c-0.044-0.013-0.068-0.117-0.068-0.117l-0.51-0.026l-0.774-0.127l-0.152-0.022c0,0-0.055,0.146-0.112,0.163
	c-0.059,0.018-0.124-0.014-0.164-0.044c-0.042-0.029-0.008-0.157-0.008-0.157l-0.946-0.135c0,0-0.025,0.066-0.11,0.099
	c-0.086,0.032-0.12,0.011-0.191-0.045c-0.073-0.056-0.056-0.146-0.056-0.146l-0.567-0.173c0,0-0.023,0.067-0.094,0.043
	c-0.082-0.029-0.082-0.015-0.092-0.076c-0.016-0.097,0.006-0.167,0.006-0.167l-0.236-0.262c0,0-0.029,0.091-0.088,0.078
	c-0.058-0.012-0.062-0.025-0.082-0.117c-0.027-0.133-0.009-0.161-0.009-0.161S0.584,46.179,0.601,45.912z"/>
<path id="skin-leg-l" fill-rule="evenodd" clip-rule="evenodd" fill="#F9CAA9" d="M21.807,34.395c0,0-0.132-0.315-0.163-0.434
	c-0.032-0.119,0.004-0.177,0.041-0.221c0.036-0.046,0.086-0.177,0.082-0.221c-0.005-0.046-0.05-0.205-0.103-0.177
	s-0.345,0.457-0.432,0.464c-0.086,0.005-0.538-0.304-0.538-0.304s0.78-0.382,0.985-0.47c0.206-0.088,0.721-0.336,0.928-0.44
	c0.209-0.104,0.576-0.265,0.576-0.265l0.287,1.213l0.02,0.154c0,0-0.537,0.249-0.893,0.382
	C22.241,34.209,21.807,34.395,21.807,34.395z"/>
<path id="skin-leg-r" fill-rule="evenodd" clip-rule="evenodd" fill="#F9CAA9" d="M8.46,33.577c0.26,0.146,1.139,0.582,1.139,0.582
	l-0.416,0.286l-0.651,0.536l-0.958-0.536l-1.006-0.484l0.431-1.185c0,0,0.318,0.2,0.513,0.302
	C7.706,33.181,8.228,33.446,8.46,33.577z"/>
<path id="goalie-sock-r" fill-rule="evenodd" clip-rule="evenodd" fill="#FFFFFF" d="M8.007,36.105
	c-0.082,0.147-0.738-0.265-0.861-0.308c-0.124-0.045-0.164-0.119-0.273-0.074s-0.248,0.029-0.123,0.279
	c0.123,0.25,0.695,0.687,0.695,0.687s0.159,0.091,0.139,0.316c-0.02,0.228,0.035,0.7-0.092,1.276
	c-0.127,0.577-0.367,1.145-0.637,1.853c-0.271,0.709-0.797,2.041-0.924,2.403c-0.127,0.364-0.257,0.74-0.309,0.927
	c-0.051,0.187-0.113,1.019-0.185,1.081c-0.071,0.062-0.221-0.284-0.304-0.288c-0.082-0.004-1.062,0.922-1.229,0.944
	c-0.168,0.022-0.102-0.452-0.08-0.538c0.021-0.087,0.166-0.415,0.216-0.56c0.052-0.145,0.128-0.693,0.186-1.059
	c0.058-0.364,0.355-1.865,0.469-2.511c0.112-0.646,0.452-2.513,0.575-3.029c0.123-0.516,0.486-1.457,0.619-1.715
	c0.133-0.259,0.301-0.313,0.34-0.365s0.043-0.156-0.027-0.18c-0.07-0.022-0.178-0.06-0.192-0.151s0.088-0.31,0.146-0.43
	c0.058-0.118,0.208-0.353,0.305-0.323c0.096,0.029,1.151,0.531,1.327,0.632c0.176,0.1,0.445,0.261,0.451,0.323
	c0.008,0.062-0.163,0.235-0.178,0.411C8.048,35.886,8.046,35.994,8.007,36.105z"/>
<path id="goalie-sock-l" fill-rule="evenodd" clip-rule="evenodd" fill="#FFFFFF" d="M22.033,35.525
	c0.043,0.081-0.044,0.229,0.062,0.266s0.702-0.36,0.78-0.287s0.1,0.06,0.041,0.176c-0.059,0.118-0.732,0.633-0.799,0.882
	c-0.064,0.248,0.064,0.561,0.224,1.126c0.161,0.564,0.981,2.696,1.118,3.078c0.137,0.383,0.74,2.279,0.781,2.471
	c0.04,0.19,0.062,1.089,0.134,1.154s0.257-0.446,0.328-0.441c0.071,0.007,0.765,0.553,0.842,0.552
	c0.078-0.001,0.142-0.617,0.144-0.86c0.003-0.243-0.266-1.753-0.316-2.13s-0.215-1.2-0.365-1.994s-0.73-3.85-0.775-3.946
	s-0.297-0.036-0.391-0.066s-0.013-0.299,0.002-0.37s0.233-0.042,0.301-0.175c0.07-0.133-0.031-0.277-0.117-0.425
	c-0.087-0.148-0.266-0.34-0.348-0.325s-0.7,0.28-0.7,0.28s-0.878,0.325-0.979,0.404c-0.101,0.08-0.133,0.259-0.13,0.39
	C21.871,35.415,21.99,35.446,22.033,35.525z"/>
<path id="goalie-shorts" fill-rule="evenodd" clip-rule="evenodd" fill="#1A1A18" d="M10.009,24.023c0,0,0.25-0.618,0.41-0.676
	c0.161-0.058,0.915-0.051,1.037-0.058c0.205-0.016,0.284-0.001,0.383-0.074c0.1-0.073,0.131-0.242,0.068-0.279
	c-0.098-0.059-0.441-0.051-0.561-0.059c-0.232-0.015-0.544-0.023-0.698-0.059c-0.153-0.037-0.116-0.263-0.147-0.33
	c-0.03-0.067,0.055-0.234,0.147-0.243c0.093-0.01,0.773,0.012,1.352,0.028c0.577,0.015,1.438-0.051,2.072-0.103
	c0.633-0.051,1.268-0.009,2.003-0.118s2.2-0.418,2.296-0.404c0.069,0.011,0.181,0.088,0.205,0.191
	c0.023,0.104,0.005,0.274-0.055,0.368c-0.061,0.094-1.578,0.201-1.624,0.307s-0.076,0.237,0,0.304
	c0.077,0.065,0.181,0.108,0.348,0.116c0.167,0.009,1.406-0.258,1.499-0.169c0.092,0.089,0.43,0.572,0.52,0.706
	c0.093,0.133,0.609,0.899,0.853,1.326c0.243,0.428,0.562,1.006,0.75,1.375c0.188,0.368,0.728,1.439,0.896,1.771
	c0.168,0.332,0.78,1.568,0.959,1.979c0.178,0.412,0.588,1.271,0.711,1.565c0.034,0.08,0.04,0.129-0.041,0.191
	c-0.08,0.061-0.333,0.193-0.557,0.295c-0.223,0.102-0.948,0.47-1.496,0.733c-0.547,0.266-1.355,0.618-1.629,0.722
	c-0.252,0.094-0.767,0.279-0.903,0.322c-0.138,0.045-0.165-0.014-0.247-0.176c-0.025-0.053-0.227-0.463-0.574-1.117
	c-0.821-1.544-1.937-3.472-1.898-3.544c0.037-0.072,0.605-0.442,0.848-0.618c0.242-0.175,0.797-0.764,0.78-0.822
	s-0.174-0.061-0.231-0.06c-0.059,0.001-0.625,0.337-0.85,0.5c-0.223,0.163-0.816,0.44-0.902,0.471s-0.312,0.028-0.439,0.065
	c-0.126,0.038-0.281,0.095-0.464,0.104s-1.091-0.259-1.499-0.353c-0.408-0.095-0.884-0.186-0.979-0.14
	c-0.098,0.045-0.036,0.127,0.016,0.182c0.051,0.054,0.168,0.229,0.622,0.369s1.216,0.33,1.184,0.404
	c-0.031,0.074-0.256,0.41-0.41,0.661s-0.777,1.205-1.055,1.729c-0.277,0.522-1.504,2.692-1.563,2.815
	c-0.059,0.123-0.059,0.152-0.197,0.096c-0.246-0.117-0.83-0.391-1.254-0.596c-0.547-0.264-1.506-0.765-1.889-0.985
	c-0.383-0.22-0.779-0.457-0.902-0.544c-0.124-0.088-0.041-0.209-0.041-0.209L10.009,24.023z"/>
<path id="skin-arm-l" fill="#F9CAA9" d="M19.278,15.216l1.053,0.118c0,0,0.426,0.35,0.477,0.382c0.052,0.032,0.14,0.076,0.226,0.054
	c0.087-0.021,0.065-0.031,0.073-0.125c0.007-0.093-0.093-0.233-0.238-0.352s-0.318-0.373-0.318-0.373l0.699-0.51l0.59-0.41
	l0.537-0.402c0,0,0.306,0.49,0.483,0.791c0.177,0.301,0.457,0.806,0.557,1.127c0.099,0.32,0.144,0.644,0.101,0.85
	s-0.047,0.365-0.146,0.499c-0.055,0.071-0.159,0.208-0.334,0.295c-0.15,0.074-0.367,0.107-0.473,0.105
	c-0.226-0.002-0.535-0.127-0.719-0.223c-0.182-0.097-1.1-0.66-1.439-0.926s-0.51-0.455-0.686-0.588
	C19.545,15.396,19.278,15.216,19.278,15.216z"/>
<path id="goalie-shirt" fill="#962467" d="M6.763,12.778c0.254-0.353,1.289-1.426,1.771-1.854c0.481-0.428,1.041-0.896,1.729-1.354
	c0.212-0.142,0.589-0.376,0.901-0.501c0.22-0.088,0.566-0.244,0.734-0.297c0.168-0.052,0.469-0.182,0.469-0.182
	s0.28-0.02,0.546-0.006c0.324,0.016,0.82,0.025,1.078,0c0.284-0.028,0.587-0.075,0.828-0.094s0.609-0.088,0.609-0.088
	s0.221,0.08,0.438,0.127c0.16,0.034,0.452,0.086,0.452,0.086s0.776,0.183,1.234,0.329c0.319,0.102,0.749,0.385,1.062,0.583
	c0.313,0.199,1.242,0.896,1.667,1.292c0.424,0.397,1.169,1.162,1.375,1.396c0.204,0.235,0.76,0.818,0.686,0.734
	c-0.075-0.084,0.075,0.066-0.021,0.131c-0.095,0.064-0.523,0.434-0.523,0.434s-0.884,0.614-1.138,0.828
	c-0.255,0.214-0.878,0.561-0.878,0.561s-0.084-0.021-0.334-0.167c-0.068-0.029-0.512-0.37-0.688-0.458
	c-0.291-0.146-0.688-0.391-0.787-0.387c-0.1,0.004-0.203,0.146-0.213,0.244c-0.01,0.098,0.638,0.813,0.646,0.892
	c0.008,0.08-0.095,0.544-0.125,0.834c-0.031,0.29-0.033,0.867-0.042,1.229s-0.024,1.456-0.021,1.75
	c0.002,0.292,0.041,1.584,0.041,1.584l-0.07,0.717c0,0,0.016,0.095-0.074,0.12c-0.088,0.025-1.535,0.269-2.019,0.35
	c-0.483,0.079-1.389,0.146-2.201,0.178s-1.471,0.064-1.895,0.064s-0.844-0.043-0.844-0.043s-0.266-0.026-0.35-0.043
	c-0.084-0.018-0.079-0.091-0.079-0.091l0.034-0.655c0,0-0.027-0.645-0.041-1.13s-0.043-0.951-0.064-1.571
	c-0.027-0.794-0.121-1.72-0.146-2.021c-0.041-0.471-0.152-0.88-0.125-1.042c0.027-0.16,0.47-0.745,0.482-0.834
	c0.012-0.087-0.111-0.279-0.215-0.256c-0.102,0.022-0.271,0.09-0.476,0.216c-0.438,0.271-0.753,0.438-0.792,0.458
	c-0.271,0.146-0.5,0.354-0.583,0.333c-0.083-0.021-0.483-0.263-0.765-0.446c-0.279-0.186-1.312-0.918-1.312-0.918
	s-0.323-0.27-0.418-0.341c-0.096-0.073-0.07-0.064-0.025-0.148C6.328,13.236,6.583,13.027,6.763,12.778z"/>
<path fill-rule="evenodd" clip-rule="evenodd" fill="#1A1A18" d="M14.201,16.24c0.006-0.271,0.122-1.2,0.051-1.485
	c-0.072-0.286-0.29-1.256-0.297-1.5c-0.008-0.242,0.207-0.958,0.209-1.106c0.002-0.149-0.017-0.331,0.041-0.439
	c0.057-0.107,0.099-0.039,0.146,0.074c0.047,0.113,0.04,2.158,0.092,2.421c0.051,0.265,0.292,0.996,0.302,1.314
	c0.009,0.317-0.03,1.505-0.099,1.734c-0.07,0.229-0.103,0.59-0.154,0.675c-0.053,0.084-0.116,0.125-0.234,0.031
	c-0.119-0.095-0.25-0.343-0.267-0.607C13.975,17.085,14.195,16.512,14.201,16.24z"/>
<path id="skin-arm-r" fill="#F9CAA9" d="M9.353,15.509l-1.05,0.141c0,0-0.356,0.306-0.47,0.393
	c-0.113,0.088-0.157,0.079-0.225,0.062c-0.066-0.018-0.155-0.115-0.124-0.177c0.03-0.062,0.146-0.135,0.279-0.305
	c0.134-0.168,0.284-0.375,0.284-0.375s-0.42-0.308-0.682-0.499s-0.36-0.235-0.599-0.396c-0.238-0.162-0.544-0.39-0.544-0.39
	s-0.254,0.405-0.467,0.802c-0.213,0.396-0.5,0.999-0.569,1.352c-0.067,0.354-0.136,0.721,0,1.015
	c0.138,0.293,0.242,0.452,0.548,0.426c0.305-0.026,0.707-0.174,1.01-0.322c0.305-0.148,0.518-0.22,0.76-0.375
	s1.031-0.712,1.211-0.838C8.898,15.895,9.353,15.509,9.353,15.509z"/>
<path id="skin-face-l" fill-rule="evenodd" clip-rule="evenodd" fill="#F9CAA9" d="M14.57,8.194
	c0.185-0.155,0.493-0.444,0.706-0.703c0.257-0.314,0.518-0.697,0.734-1.001c0.063-0.089,0.416-0.651,0.416-0.53
	s-0.034,0.307-0.092,0.484s-0.26,0.289-0.337,0.334c-0.076,0.045-0.139,0.114-0.261,0.334c-0.091,0.166-0.479,0.707-0.651,0.988
	c0,0-0.113,0.008-0.236,0.043S14.57,8.194,14.57,8.194z"/>
<path id="skin-face-r" fill-rule="evenodd" clip-rule="evenodd" fill="#F9CAA9" d="M12.82,8.194
	c-0.204-0.323-0.531-0.885-0.623-1.052c-0.121-0.22-0.184-0.288-0.26-0.333c-0.076-0.046-0.279-0.156-0.337-0.334
	s-0.076-0.379-0.076-0.5s0.246,0.35,0.308,0.439c0.201,0.292,0.447,0.665,0.627,0.971c0.081,0.138,0.243,0.369,0.361,0.496
	c0.11,0.117,0.224,0.235,0.391,0.344c0,0-0.094-0.002-0.203-0.017S12.82,8.194,12.82,8.194z"/>
<path id="hair" fill-rule="evenodd" clip-rule="evenodd" fill="#F7DD7F" d="M11.634,2.454c0.123-0.248,0.475-0.649,0.964-0.82
	c0.05-0.018,0.105-0.062,0.149-0.077c-0.107,0.62-0.06,0.909,0.094,1.622c0.031,0.145,0.014,0.232-0.03,0.525
	c-0.074,0.502-0.217,1.279-0.275,1.611c-0.071,0.404-0.094,0.592-0.064,1.195c0.02,0.387,0.362,0.776,0.445,0.852
	c0.152,0.14,0.223,0.108,0.223,0.108s0.234,0.251,0.336,0.217c0.139-0.046,0.134-0.173,0.169-0.217
	c0.034-0.044,0.015,0.124,0.138,0.201c0.043,0.027,0.23,0.077,0.337-0.155c0.052-0.111,0.017,0.082,0.138,0.155
	c0.129,0.078,0.24-0.147,0.26-0.216c0.059-0.189-0.045-0.031,0.123-0.017c0.168,0.017,0.307-0.137,0.448-0.368
	c0.083-0.135,0.276-0.682,0.214-1.146c-0.022-0.175-0.11-0.89-0.148-1.292c-0.045-0.496-0.062-1.216-0.03-1.471
	c0.046-0.356,0.247-0.99,0.109-1.5c0.384,0.186,0.626,0.466,0.812,0.668c0.199,0.217,0.459,0.727,0.443,1.223
	c-0.015,0.496-0.076,0.991-0.184,1.409c-0.107,0.417-0.117,0.712-0.117,0.712s-0.398,0.496-0.674,0.976
	c-0.156,0.271-0.439,0.63-0.674,0.866c-0.245,0.248-0.659,0.631-0.94,0.631c-0.367,0-0.755-0.371-0.836-0.46
	c-0.408-0.446-0.462-0.608-0.813-1.196c-0.165-0.275-0.373-0.593-0.472-0.77c-0.123-0.221-0.184-0.542-0.229-0.806
	c-0.071-0.405-0.188-0.759-0.173-1.238C11.389,3.198,11.511,2.702,11.634,2.454z"/>
<path id="hair-p" fill="#F7DD7F" d="M12.997,7.101c-0.125-0.172,0.231-0.553,0.231-0.553c-0.014,0.122-0.096,0.334-0.053,0.518
	c0.051,0.215,0.229,0.395,0.254,0.419c-0.128-0.327,0.25-0.948,0.25-0.948c0.032,0.292,0.044,0.602,0.203,0.944
	c-0.043-0.093,0.258-0.94,0.258-0.94c0.049,0.234,0.178,0.687,0.18,0.874c-0.003-0.296,0.105-0.565,0.195-0.846
	c0.014-0.042,0.125,0.079,0.158,0.296c0.039,0.246,0.021,0.241,0.058,0.205c0.511-0.521,0.251-1.594,0.25-1.598
	c-0.059-0.455-0.134-1.523-0.133-2.094c-0.038,0.012-0.073,0.021-0.075,0.015c-0.044,0.04-0.151,0.13-0.151,0.13
	s0.078-0.141,0.172-0.359c0.044-0.104,0.071-0.193,0.087-0.258c0.02-0.169,0.079-0.41,0.101-0.57
	c0.031-0.237,0.02-0.373,0.012-0.463c-0.065-0.727-0.484-1.002-1.021-0.99c-0.662,0.012-0.965,0.315-0.993,1.109
	c-0.006,0.145,0.018,0.609,0.128,1.021c0.017,0.067,0.038,0.142,0.077,0.214c0.109,0.203,0.172,0.297,0.172,0.297
	s-0.112-0.104-0.188-0.125c-0.022-0.007-0.036-0.013-0.053-0.02c-0.039,0.537-0.233,1.543-0.26,1.707
	c-0.078,0.344-0.114,0.837-0.141,1.188C12.693,6.577,12.809,6.841,12.997,7.101z M13.666,1.307c0.268-0.068,0.027,0.013-0.07,0.403
	c-0.041,0.168-0.029,0.799-0.084,0.689C13.215,1.8,13.414,1.372,13.666,1.307z"/>
</svg>
