<?xml version="1.0" encoding="utf-8"?>
<!-- Generator: Adobe Illustrator 16.0.4, SVG Export Plug-In . SVG Version: 6.00 Build 0)  -->
<!DOCTYPE svg PUBLIC "-//W3C//DTD SVG 1.1//EN" "http://www.w3.org/Graphics/SVG/1.1/DTD/svg11.dtd" [
	<!ENTITY ns_flows "http://ns.adobe.com/Flows/1.0/">
	<!ENTITY ns_extend "http://ns.adobe.com/Extensibility/1.0/">
	<!ENTITY ns_ai "http://ns.adobe.com/AdobeIllustrator/10.0/">
	<!ENTITY ns_graphs "http://ns.adobe.com/Graphs/1.0/">
]>
<svg version="1.1" id="Ebene_1" xmlns:x="&ns_extend;" xmlns:i="&ns_ai;" xmlns:graph="&ns_graphs;"
	 xmlns="http://www.w3.org/2000/svg" xmlns:xlink="http://www.w3.org/1999/xlink" xmlns:a="http://ns.adobe.com/AdobeSVGViewerExtensions/3.0/"
	 x="0px" y="0px" width="32.6px" height="50.5px" viewBox="0 0 32.6 50.5" style="enable-background:new 0 0 32.6 50.5;"
	 xml:space="preserve">
<style type="text/css">
<![CDATA[
	.st0{fill:#1A1A18;}
	.st1{fill-rule:evenodd;clip-rule:evenodd;fill:#1A1A18;}
	.st2{fill:#FBCDAA;}
	.st3{fill:#FFFFFF;}
	.st4{fill:#9E2A6A;}
	.st5{fill-rule:evenodd;clip-rule:evenodd;fill:#FBCDAA;}
	.st6{fill-rule:evenodd;clip-rule:evenodd;fill:#FFFFFF;}
]]>
</style>
<path class="st0" d="M0.29,47.99c0.02-0.28,0.37-0.37,0.47-0.38s0.55,0.07,0.63,0.04c0.09-0.03,0.83-0.28,0.92-0.34
	s0.57-0.62,0.67-0.69s0.3-0.02,0.38-0.06s0.29-0.53,0.36-0.68s1.1-5.55,1.21-6.22s0.48-1.67,0.56-1.92s0.39-0.86,0.45-0.92
	s-0.14-0.06-0.14-0.17c0-0.11,0.21-0.67,0.33-0.87s0.22-0.37,0.28-0.47s0.16-0.19,0.23-0.33s0.5-1.15,0.5-1.15s-0.18-0.12-0.28-0.17
	c-0.1-0.06-0.07-0.13-0.04-0.21c0.09-0.21,0.28-0.67,0.49-1.18c0.34-0.81,0.73-1.75,0.86-2.02c0.3-0.66,0.76-1.64,1.04-2.3
	s1.19-2.94,1.34-3.28S11,23.84,11,23.84s-0.1-0.28-0.09-0.55s0.14-0.49,0.25-0.65c0.04-0.05,0.05-0.13,0.06-0.2h0l0.05-0.75
	l-0.05-1.64l-0.06-1.88l-0.19-2.06l-0.09-0.26c0,0-1.15,0.77-1.78,1.16s-0.87,0.54-1.48,0.8c-0.59,0.25-0.83,0.34-1.11,0.4
	s-0.5,0.07-0.67,0.06s-0.4-0.15-0.55-0.39s-0.23-0.41-0.25-0.91c-0.02-0.47,0.17-1.04,0.38-1.5c0.22-0.5,0.57-1.14,0.57-1.14
	l0.33-0.59l-0.12-0.1c0,0-0.03-0.14,0.01-0.2c0.13-0.17,0.46-0.65,0.55-0.78c0.2-0.29,0.83-1,1.03-1.23s0.81-0.86,1.06-1.09
	S9.36,9.9,9.54,9.73s0.62-0.5,1-0.72c0.18-0.11,0.67-0.4,0.99-0.5s0.77-0.22,1.02-0.25s0.54-0.06,0.67-0.1s0.47-0.3,0.47-0.3
	l0.13-0.03l0.07-0.54l-0.13-0.15l-0.09-0.59l-0.35-0.23l-0.2-0.42l-0.04-0.44l-0.41-0.74l-0.01-0.48l-0.31-0.49l0.28-0.55L12.4,2.62
	l0.22-0.1l0.03-0.37l0.3-0.62l0.46-0.61l0.42-0.15l0.13-0.17l0.59,0.03l0.68-0.31l0.83-0.23l0.12,0.12l0.81,0.08l0.26,0.25
	l0.17-0.13l0.46,0.49l0.45,0.41l0.73,1.24L19,2.68l-0.09,0.5l0.37,0.55l-0.36,0.29l-0.06,0.81l-0.34,0.83l-0.2,0.56l-0.36,0.53
	L17.85,7.1l-0.18,0.09l0.05,0.55l0,0c0,0,0.3,0.13,0.54,0.19s0.82,0.1,1.32,0.19c0.22,0.04,1.14,0.29,1.48,0.48s1.13,0.71,1.41,0.95
	s1.02,0.85,1.39,1.25s1.15,1.29,1.33,1.54s0.36,0.45,0.5,0.61c0.1,0.11,0.12,0.16,0.02,0.25s-0.21,0.17-0.21,0.17l0.48,0.74
	c0,0,0.6,1.1,0.7,1.3s0.29,0.86,0.2,1.34c-0.07,0.34-0.16,0.78-0.67,1.05c-0.37,0.19-0.97,0.27-1.57,0s-1.35-0.75-1.35-0.75
	l-1.12-0.75l-0.66-0.44l-0.34-0.2c0,0-0.12,0.79-0.14,1.29s-0.04,1.09-0.04,1.53s0.03,1.45,0.05,1.94s0.07,1.27,0.08,1.3
	c0,0,0.17,0.21,0.25,0.32s0.15,0.32,0.16,0.47c0,0.15,0.01,0.29,0,0.41s0.22,0.41,0.3,0.51s0.23,0.31,0.45,0.66s0.68,0.98,0.96,1.47
	c0.28,0.48,1.04,1.9,1.27,2.31s1.01,1.94,1.27,2.46s1.02,2.18,1.19,2.62c0.04,0.09,0.05,0.16-0.03,0.22
	c-0.08,0.05-0.38,0.18-0.38,0.18l0.38,1.58c0,0,0.31,0.32,0.44,0.48s0.34,0.66,0.34,0.85c0,0.19,0.05,0.42,0.05,0.55
	s0.72,3.38,0.72,3.38l0.77,4.36l0.21,0.91c0,0,0.14,0,0.19,0.07s0.11,0.73,0.16,0.77s0.2-0.02,0.31,0.06s0.05,0.46,0.16,0.55
	s0.82,0.54,0.91,0.57s0.37,0.06,0.45,0.09s0.33-0.01,0.43,0.06c0.1,0.07,0.24,0.6,0.25,0.74s-0.01,0.29-0.04,0.42
	s-0.36,0.52-0.36,0.52s0,0.23-0.02,0.31s-0.13,0.16-0.16,0.16s-0.09-0.08-0.09-0.08l-1.04,0.24c0,0-0.05,0.1-0.08,0.14
	s-0.14,0.04-0.19,0.02S30.21,50,30.21,50l-0.88-0.01l-0.43,0.14c0,0,0.02,0.17-0.04,0.24s-0.18,0.04-0.26,0.03s-0.11-0.23-0.11-0.23
	l-0.33-0.03l-0.35-0.09c0,0-0.03,0.08-0.09,0.13c-0.06,0.05-0.1,0.04-0.17-0.02s-0.11-0.19-0.11-0.19l-0.19-0.12
	c0,0-0.08-0.04-0.16-0.12s-0.14-0.17-0.16-0.28s-0.02-0.25-0.01-0.41s0.05-0.38,0.05-0.55s0.05-0.41,0.03-0.59s-0.11-0.82-0.11-0.95
	s0.09-0.45,0.06-0.67s-0.04-0.69-0.17-1.13s-0.91-2.57-1.17-3.15s-0.51-1.12-0.85-2.16s-0.49-1.54-0.48-1.72
	c0.02-0.33,0.28-0.5,0.16-0.58s-0.14-0.4-0.14-0.4s-0.22-0.16-0.23-0.42c0-0.12,0.01-0.22-0.08-0.39c-0.15-0.29-0.21-0.48-0.42-0.65
	s-0.94-0.63-0.94-0.63s-0.53,0.2-0.89,0.31c-0.36,0.12-0.66,0.2-0.84,0.27s-0.24-0.03-0.32-0.17s-0.55-0.92-0.55-0.92
	s-1.92-3.33-2.18-3.73s-0.45-0.68-0.56-0.73s-0.48,0.05-0.63,0.08c-0.15,0.03-0.28-0.03-0.33,0.06s-1.28,1.83-1.61,2.36
	c-0.3,0.48-1.9,3.12-2.22,3.64c-0.09,0.14-0.12,0.17-0.25,0.11c-0.13-0.06-1.27-0.56-1.27-0.56s-0.28,0.17-0.62,0.45
	s-0.71,0.47-0.76,0.56s-0.21,0.26-0.24,0.43s-0.07,0.69-0.18,0.78c-0.16,0.14-0.31,0.25-0.31,0.25s-0.08,0.62-0.08,0.95
	c0,0.33-0.16,1.11-0.29,1.46s-1.87,4.56-1.95,4.76s-0.21,1.08-0.21,1.2s0.06,0.49,0.08,0.65c0.02,0.16-0.06,0.67-0.07,0.79
	s0.07,0.65,0.09,0.81s-0.03,0.79-0.07,0.84s-0.24,0.14-0.24,0.14s0.01,0.12-0.03,0.17S5.97,50.11,5.9,50.1s-0.09-0.09-0.09-0.09
	l-0.2,0.06c0,0-0.03,0.15-0.07,0.18s-0.23,0.08-0.28,0.06s-0.08-0.12-0.08-0.12L4.6,50.17l-0.88-0.13l-0.17-0.02
	c0,0-0.06,0.15-0.13,0.17c-0.07,0.02-0.14-0.02-0.19-0.05s-0.01-0.17-0.01-0.17l-1.08-0.14c0,0-0.03,0.07-0.13,0.1
	s-0.14,0.01-0.22-0.05s-0.06-0.16-0.06-0.16l-0.65-0.18c0,0-0.03,0.07-0.11,0.05c-0.09-0.03-0.09-0.02-0.11-0.08
	c-0.02-0.1,0.01-0.18,0.01-0.18l-0.27-0.28c0,0-0.03,0.1-0.1,0.08c-0.07-0.01-0.07-0.03-0.09-0.12c-0.03-0.14-0.01-0.17-0.01-0.17
	S0.27,48.28,0.29,47.99z"/>
<path id="skin-leg-r" class="st5" d="M24.5,35.75c0,0-0.15-0.34-0.19-0.46s0-0.19,0.05-0.23s0.1-0.19,0.09-0.23
	s-0.06-0.22-0.12-0.19s-0.39,0.49-0.49,0.49s-0.61-0.32-0.61-0.32s0.89-0.41,1.12-0.5s0.82-0.36,1.06-0.47s0.66-0.28,0.66-0.28
	l0.33,1.29l0.02,0.16c0,0-0.61,0.26-1.02,0.41S24.5,35.75,24.5,35.75z"/>
<path id="skin-leg-l" class="st5" d="M9.26,34.88c0.3,0.16,1.3,0.62,1.3,0.62l-0.48,0.3l-0.74,0.57l-1.09-0.57L7.1,35.29
	l0.49-1.26c0,0,0.36,0.21,0.59,0.32S9,34.75,9.26,34.88z"/>
<path id="goalie-sock-l" class="st6" d="M8.74,37.57c-0.09,0.16-0.84-0.28-0.98-0.33s-0.19-0.12-0.31-0.08s-0.28,0.03-0.14,0.3
	s0.79,0.73,0.79,0.73s0.18,0.09,0.16,0.34s0.04,0.74-0.11,1.36s-0.42,1.22-0.73,1.97s-0.91,2.17-1.05,2.55s-0.29,0.79-0.35,0.98
	s-0.13,1.08-0.21,1.15s-0.25-0.3-0.35-0.31s-1.21,0.98-1.4,1s-0.12-0.48-0.09-0.57s0.19-0.44,0.25-0.59s0.14-0.74,0.21-1.12
	s0.41-1.98,0.54-2.67s0.52-2.67,0.66-3.22s0.55-1.55,0.71-1.82s0.34-0.33,0.39-0.39s0.05-0.17-0.03-0.19
	c-0.08-0.02-0.2-0.06-0.22-0.16s0.1-0.33,0.17-0.46s0.24-0.38,0.35-0.34s1.32,0.56,1.52,0.67c0.2,0.11,0.51,0.28,0.52,0.34
	c0.01,0.07-0.19,0.25-0.2,0.44S8.79,37.45,8.74,37.57z"/>
<path class="st6" d="M5.13,49.71l-0.19,0.03c0,0,0.03-0.1,0.15-0.19s0.09-0.08,0.2-0.06c0.11,0.03,0.06,0.14,0.03,0.19
	S5.13,49.71,5.13,49.71L5.13,49.71z"/>
<path class="st3" d="M28.79,49.39l-0.89-0.11c0,0,0.23-0.23,0.39-0.19S28.79,49.39,28.79,49.39L28.79,49.39z"/>
<path id="goalie-sock-r" class="st6" d="M24.76,36.96c0.05,0.08-0.05,0.24,0.07,0.28s0.8-0.38,0.89-0.3s0.11,0.06,0.05,0.19
	s-0.84,0.67-0.91,0.94c-0.08,0.26,0.07,0.6,0.25,1.2s1.12,2.87,1.28,3.27s0.84,2.42,0.89,2.62s0.07,1.16,0.15,1.23
	s0.29-0.48,0.38-0.47s0.87,0.59,0.96,0.59s0.16-0.66,0.16-0.91s-0.3-1.86-0.36-2.26s-0.25-1.28-0.42-2.12S27.32,37.1,27.26,37
	s-0.34-0.04-0.45-0.07s-0.01-0.32,0-0.39s0.27-0.04,0.34-0.19s-0.04-0.29-0.14-0.45s-0.3-0.36-0.4-0.34s-0.8,0.3-0.8,0.3
	s-1,0.34-1.12,0.43s-0.15,0.27-0.15,0.41S24.71,36.87,24.76,36.96z"/>
<path id="goalie-shorts" class="st1" d="M10.97,24.9c0,0,0.29-0.66,0.47-0.72s1.04-0.05,1.18-0.06c0.23-0.02,0.32,0,0.44-0.08
	c0.11-0.08,0.15-0.26,0.08-0.3c-0.11-0.06-0.5-0.05-0.64-0.06c-0.27-0.02-0.62-0.02-0.8-0.06c-0.18-0.04-0.13-0.28-0.17-0.35
	s0.06-0.25,0.17-0.26c0.11-0.01,0.88,0.01,1.54,0.03s1.75-0.05,2.47-0.11c0.72-0.05,1.59-0.17,2.43-0.29s2.51-0.44,2.62-0.43
	c0.08,0.01,0.21,0.09,0.23,0.2c0.03,0.11,0.01,0.29-0.06,0.39s-1.8,0.21-1.85,0.33s-0.09,0.25,0,0.32s0.21,0.12,0.4,0.12
	s1.61-0.27,1.71-0.18s0.49,0.61,0.59,0.75s0.53,0.76,0.81,1.22c0.28,0.45,0.72,1.26,0.94,1.66s0.77,1.36,0.96,1.71
	s0.82,1.6,1.02,2.04s0.7,1.58,0.84,1.89c0.04,0.08,0.05,0.14-0.05,0.2c-0.09,0.06-0.38,0.21-0.64,0.31s-1.08,0.5-1.71,0.78
	s-1.55,0.66-1.86,0.77c-0.29,0.1-0.88,0.3-1.03,0.34s-0.19-0.02-0.28-0.19c-0.03-0.06-0.26-0.49-0.66-1.19
	c-0.94-1.64-2.21-3.69-2.17-3.77s0.69-0.47,0.97-0.66s0.91-0.81,0.89-0.87s-0.2-0.06-0.27-0.06s-0.71,0.36-0.97,0.53
	s-0.93,0.47-1.03,0.5s-0.36,0.03-0.5,0.07s-0.32,0.1-0.53,0.11s-1.25-0.27-1.71-0.38s-1.01-0.2-1.12-0.15s-0.04,0.14,0.02,0.19
	s0.19,0.24,0.71,0.39s1.39,0.35,1.35,0.43s-0.29,0.44-0.47,0.7s-0.89,1.28-1.2,1.84s-1.72,2.86-1.79,2.99
	c-0.07,0.13-0.07,0.16-0.23,0.1c-0.28-0.12-0.95-0.42-1.43-0.63c-0.62-0.28-1.72-0.81-2.16-1.05s-0.89-0.49-1.03-0.58
	c-0.14-0.09-0.05-0.22-0.05-0.22L10.97,24.9z"/>
<path id="skin-arm-r" class="st2" d="M21.61,15.37l1.2,0.12c0,0,0.49,0.37,0.54,0.41s0.16,0.08,0.26,0.06s0.08-0.03,0.08-0.13
	s-0.11-0.25-0.27-0.37s-0.36-0.4-0.36-0.4l0.8-0.54l0.67-0.44l0.61-0.43c0,0,0.35,0.52,0.55,0.84s0.52,0.86,0.64,1.2
	s0.16,0.68,0.12,0.9s-0.05,0.39-0.17,0.53c-0.06,0.08-0.18,0.22-0.38,0.31c-0.17,0.08-0.42,0.11-0.54,0.11
	c-0.26,0-0.61-0.13-0.82-0.24s-1.26-0.7-1.64-0.98s-0.58-0.48-0.78-0.62S21.61,15.37,21.61,15.37z"/>
<path id="goalie-jersey" class="st4" d="M7.33,12.59c0.29-0.37,1.64-1.85,2.19-2.31s1.24-0.92,1.99-1.3
	c0.26-0.13,0.89-0.32,1.15-0.36s0.54-0.03,0.73-0.09s0.55-0.3,0.55-0.3s1.17,0.07,1.5,0.07s1.07-0.06,1.34-0.08s0.72-0.08,0.72-0.08
	s0.09,0,0.26,0.06s0.61,0.15,0.61,0.15s0.78,0.09,1.16,0.17s1.16,0.3,1.52,0.51s1.28,0.98,1.76,1.4s1.44,1.5,1.67,1.75
	s0.7,0.86,0.62,0.78c-0.09-0.09,0.09,0.07-0.02,0.14s-0.6,0.46-0.6,0.46s-1.01,0.65-1.3,0.88S22.39,15,22.39,15
	s-0.71-0.02-0.79-0.05s-0.81-0.48-0.98-0.61s-0.38-0.38-0.5-0.37s-0.23,0.15-0.24,0.26s0.77,1.08,0.78,1.16s-0.03,0.51-0.06,0.82
	s-0.05,0.7-0.06,1.08s-0.03,1.09-0.03,1.4s0.04,2.05,0.04,2.05l0.01,0.94c0,0,0.02,0.1-0.08,0.13c-0.1,0.03-1.75,0.29-2.31,0.37
	s-1.05,0.14-1.67,0.22s-1.75,0.13-1.75,0.13s-1.01,0.07-1.5,0.07s-0.96-0.05-0.96-0.05s-0.3-0.03-0.4-0.05s-0.09-0.1-0.09-0.1
	l-0.03-0.73c0,0-0.02-0.58-0.03-1.09s-0.07-1.08-0.09-1.73c-0.03-0.84-0.11-1.67-0.14-1.98c-0.05-0.5-0.16-1.02-0.12-1.19
	s0.63-1.05,0.64-1.14s-0.13-0.3-0.24-0.27s-0.25,0.21-0.44,0.39s-0.86,0.57-0.91,0.59s-0.76,0.1-0.86,0.08s-0.46-0.26-0.77-0.46
	s-1.5-0.97-1.5-0.97s-0.37-0.29-0.48-0.36s-0.08-0.1-0.03-0.19S7.12,12.85,7.33,12.59z"/>
<path class="st1" d="M15.82,16.46c0.01-0.29,0.14-1.28,0.06-1.58s-0.33-1.33-0.34-1.59s0.24-1.02,0.24-1.18s-0.02-0.35,0.05-0.47
	s0.11-0.04,0.17,0.08s0.05,2.29,0.1,2.57s0.33,1.06,0.34,1.4s-0.03,1.6-0.11,1.84s-0.12,0.63-0.18,0.72s-0.13,0.13-0.27,0.03
	s-0.28-0.36-0.3-0.65S15.81,16.75,15.82,16.46z"/>
<path id="skin-arm-l" class="st2" d="M10.28,15.68l-1.2,0.15c0,0-0.41,0.33-0.54,0.42s-0.18,0.08-0.26,0.06s-0.18-0.12-0.14-0.19
	s0.17-0.14,0.32-0.32s0.33-0.4,0.33-0.4s-0.48-0.33-0.78-0.53s-0.41-0.25-0.68-0.42s-0.62-0.41-0.62-0.41s-0.29,0.43-0.53,0.85
	s-0.57,1.06-0.65,1.44s-0.16,0.77,0,1.08s0.28,0.48,0.62,0.45s0.81-0.19,1.15-0.34s0.59-0.23,0.87-0.4s1.18-0.76,1.38-0.89
	S10.28,15.68,10.28,15.68z"/>
<path id="skin-neck" class="st5" d="M14.28,7.84l0.08-0.3c0,0,0.25-0.08,0.51-0.11s0.66-0.02,0.69-0.02s0.08,0.25,0.18,0.25
	s0.14-0.23,0.21-0.25s0.5-0.05,0.82-0.06c0.25-0.01,0.45,0.06,0.45,0.06l0.03,0.36c0,0-0.53,0.05-0.82,0.08S15.39,7.9,15.09,7.9
	S14.28,7.84,14.28,7.84z"/>
<polygon id="hair" class="st1" points="18.53,3.13 18.61,2.65 18.63,2.55 18.14,1.67 17.78,1.29 17.31,0.83 17.17,0.94 16.8,0.62 
	16.05,0.56 15.95,0.46 15.21,0.72 14.62,0.99 14.1,0.97 13.99,1.12 13.63,1.25 13.23,1.79 12.97,2.33 12.96,2.69 12.77,2.77 
	12.97,3.26 12.73,3.74 13.01,4.17 13.02,4.59 13.41,5.35 13.45,5.74 13.62,6.1 14.02,6.35 14.06,6.63 14.15,6.97 14.42,7.14 
	15.04,7.1 15.58,7.06 15.75,7.2 15.97,7.03 16.15,7.01 17.22,6.97 17.55,6.88 17.64,6.52 18.03,6.09 18.24,5.49 18.53,4.75 
	18.56,3.82 18.82,3.6 "/>
</svg>
