<?xml version="1.0" encoding="utf-8"?>
<!-- Generator: Adobe Illustrator 16.0.4, SVG Export Plug-In . SVG Version: 6.00 Build 0)  -->
<!DOCTYPE svg PUBLIC "-//W3C//DTD SVG 1.1//EN" "http://www.w3.org/Graphics/SVG/1.1/DTD/svg11.dtd" [
	<!ENTITY ns_flows "http://ns.adobe.com/Flows/1.0/">
	<!ENTITY ns_extend "http://ns.adobe.com/Extensibility/1.0/">
	<!ENTITY ns_ai "http://ns.adobe.com/AdobeIllustrator/10.0/">
	<!ENTITY ns_graphs "http://ns.adobe.com/Graphs/1.0/">
]>
<svg version="1.1" id="Ebene_1" xmlns:x="&ns_extend;" xmlns:i="&ns_ai;" xmlns:graph="&ns_graphs;"
	 xmlns="http://www.w3.org/2000/svg" xmlns:xlink="http://www.w3.org/1999/xlink" xmlns:a="http://ns.adobe.com/AdobeSVGViewerExtensions/3.0/"
	 x="0px" y="0px" width="27.2px" height="49.6px" viewBox="0 0 27.2 49.6" style="enable-background:new 0 0 27.2 49.6;"
	 xml:space="preserve">
<style type="text/css">
<![CDATA[
	.st0{fill-rule:evenodd;clip-rule:evenodd;fill:#1A1A18;}
	.st1{fill:#FBCDAA;}
	.st2{fill:#FFFFFF;}
	.st3{fill:#9E2A6A;}
	.st4{fill-rule:evenodd;clip-rule:evenodd;fill:#FBCDAA;}
	.st5{fill-rule:evenodd;clip-rule:evenodd;fill:#FFFFFF;}
]]>
</style>
<path class="st0" d="M0.36,22.39c0.04-0.25,0.38-0.48,0.38-0.48s-0.16-0.31-0.17-0.53s0.12-0.4,0.25-0.5
	c0.13-0.1,0.55-0.16,0.55-0.16l0.4,0.02c0,0-0.12-0.08-0.16-0.14c-0.03-0.04-0.06-0.19-0.02-0.32c0.03-0.11,0.12-0.19,0.23-0.27
	c0.25-0.17,0.75-0.08,0.75-0.08s0.76,0.16,1.06,0.21c0.3,0.05,0.55,0.14,0.79,0.21c0.23,0.08,0.96,0.41,0.96,0.41s0.3,0.2,0.35,0.21
	S5.9,20.92,6,20.85s0.58-0.13,0.74,0c0,0,0,0,0,0c0.45-0.4,1.29-1.16,1.41-1.29c0.15-0.17,0.26-0.54,0.35-0.8
	c0.09-0.26,0.22-0.6,0.22-0.6s-0.05-0.06-0.13-0.09c-0.08-0.03,0.03-0.29-0.01-0.17s0.3-0.77,0.3-0.77L9.6,15.3
	c0,0,0.61-1.69,0.74-2.16c0.13-0.46,0.55-1.58,0.65-1.82s0.16-0.4,0.35-0.67c0.18-0.27,0.53-0.75,0.74-1.02s0.71-0.65,0.71-0.65
	l-0.26-0.57c0,0-0.25,0.08-0.4,0.08c-0.15,0-0.41-0.04-0.5-0.08c-0.3-0.14-0.36-0.22-0.43-0.4c-0.03-0.08-0.06-0.38-0.06-0.52
	s-0.11-0.73-0.16-0.92s-0.28-0.7-0.32-0.92s0.12-0.79,0.12-0.79s-0.12-0.28-0.13-0.43c-0.01-0.1-0.02-0.25-0.02-0.31
	s-0.03-0.15-0.03-0.22s0.03-0.38,0.03-0.43c0-0.05-0.17-0.78-0.17-0.78l0.08-0.8l0.55-0.42l0.19-0.41l0.8-0.02l0.11-0.32l0.96-0.33
	l0.8-0.02l1.61,0.49l0.23,0.31l0.33-0.05l0.65,0.89l0.69,1.14l0.12,0.26L17.4,3.52l-0.14,0.38l0.25,0.58l-0.38,0.35l-0.04,0.61
	l-0.18,0.6l-0.29,0.59l0.15,0.35l-0.22,0.1l-0.48,0.64l0.03,0.07c0,0,0.62,0.1,0.73,0.12c0.12,0.03,0.34,0.08,0.59,0.16
	s0.64,0.21,0.89,0.33s0.58,0.31,1.12,0.84c0.14,0.14,0.45,0.44,0.8,0.92s0.67,1.07,0.86,1.44s0.53,1.16,0.7,1.73
	c0.09,0.29,0.31,1.21,0.39,1.53s0.34,1.41,0.41,1.69s0.31,1.3,0.39,1.8c0.04,0.28,0.17,1.05,0.22,1.66
	c0.02,0.31,0.03,1.04,0.03,1.04s0.19,0.15,0.27,0.29s0.12,0.43,0.15,0.51c0.06,0.18,0.2,0.24,0.32,0.45s0.3,0.96,0.43,1.57
	c0.09,0.44,0.15,1.05,0.16,1.47c0.01,0.41,0,1.44-0.13,2.14s-0.42,1.57-0.47,2c-0.02,0.19-0.09,1.05-0.12,1.84
	c-0.03,0.76-0.02,1.45-0.02,1.52c0,0.14,0.02,0.13-0.08,0.16s-0.53,0.12-0.53,0.12s-0.11,0.33-0.11,0.48s0.1,0.6,0.19,0.66
	c0.09,0.06,0.34,0.22,0.52,0.45s0.3,0.64,0.31,0.81C24.11,35.68,24,36,24,36s0.22,0.53,0.28,0.83c0.06,0.31,0.45,2.56,0.54,2.93
	c0.08,0.37,0.37,1.47,0.49,1.84c0.12,0.37,0.64,2.28,0.64,2.28s0.21,0,0.28,0.1c0.06,0.1,0.06,0.36,0.08,0.44
	c0.03,0.08,0.36,0.71,0.44,0.87c0.08,0.16,0.01,0.29,0.01,0.44s0.03,0.58,0.03,0.67c0.01,0.09,0.05,0.13,0.05,0.21
	c0,0.08-0.51,0.34-0.51,0.41c0,0.07,0,0.16-0.06,0.24s-0.2,0.05-0.29,0.04c-0.09-0.01-0.12-0.14-0.12-0.14l-0.25,0.01
	c0,0-0.04,0.15-0.09,0.21c-0.05,0.05-0.17,0.04-0.25,0.01c-0.08-0.02-0.16-0.19-0.16-0.19s-0.26-0.15-0.37-0.17
	c-0.1-0.02-1.08-0.16-1.08-0.16l-1.48-0.19l-0.44-0.08c0,0-0.12,0.12-0.19,0.13c-0.07,0.01-0.18-0.03-0.28-0.08
	c-0.09-0.05-0.09-0.19-0.09-0.19L21,46.41l-0.25-0.08c0,0-0.04,0.11-0.1,0.11c-0.06,0.01-0.24-0.06-0.3-0.12
	c-0.06-0.06-0.13-0.19-0.13-0.19s-0.2-0.11-0.32-0.18c-0.12-0.07-0.28-0.3-0.28-0.59c-0.01-0.3,0.12-0.58,0.41-0.66
	c0.22-0.06,1.95-0.34,2.12-0.38s0.41-0.09,0.47-0.13c0.06-0.04,0.07-0.48,0.1-0.55s0.21-0.12,0.21-0.12s-0.13-0.66-0.25-1.03
	c-0.13-0.37-0.16-0.59-0.36-1.06s-1.59-3.29-1.75-3.66s-0.1-0.69-0.1-0.69s-0.25-0.32-0.29-0.53c-0.04-0.21-0.07-0.39-0.09-0.69
	s0.05-0.59,0.05-0.59s-0.62-0.77-0.82-1.16s-0.42-0.92-0.42-0.92s-0.69-0.02-0.79-0.02s-0.12,0-0.14-0.1s-0.25-1.06-0.25-1.06
	s-0.73,1.08-1,1.47c-0.22,0.32-0.74,1.1-0.93,1.39c-0.04,0.06-0.12,0.12-0.2,0.07c-0.06-0.04-0.98-0.47-1.23-0.61
	c-0.04-0.02-0.07-0.04-0.07-0.04s-0.84,0.86-0.95,1.16s-0.17,0.62-0.17,0.62s0.16,0.04,0.31,0.19s0.36,0.43,0.4,0.68
	c0.05,0.3,0.02,0.65-0.01,0.93c-0.02,0.14,0.08,0.22,0.12,0.27c0.14,0.14,0.36,0.66,0.52,1.03c0.11,0.27,0.34,1.3,0.41,1.7
	c0.14,0.84,0.09,1.75,0.16,2.03s0.69,2.26,0.78,2.37c0.09,0.1,0.33,0.29,0.39,0.41s0.12,0.78,0.08,0.87
	c-0.04,0.09,0.17,0.29,0.2,0.38c0.03,0.1-0.14,0.11-0.18,0.17c-0.04,0.07,0.14,0.72,0.15,0.89c0,0.17-0.22,0.45-0.3,0.56
	c-0.08,0.11-0.32,0.27-0.32,0.27s0.01,0.23-0.07,0.28c-0.04,0.02-0.3,0.06-0.36,0.05c-0.06-0.01-0.08-0.17-0.08-0.17L15.08,49
	c0,0-0.07,0.18-0.11,0.2c-0.03,0.02-0.21,0.05-0.26,0c-0.04-0.04-0.13-0.22-0.13-0.22l-0.84-0.2l-1.42-0.25l-0.38-0.09
	c0,0-0.11,0.12-0.14,0.16s-0.24-0.01-0.3-0.07s-0.16-0.22-0.16-0.22l-0.28-0.05c0,0-0.04,0.19-0.12,0.18
	c-0.08-0.01-0.24-0.02-0.29-0.09c-0.06-0.07-0.09-0.2-0.09-0.2s-0.21-0.01-0.4-0.09C9.97,48,9.71,47.75,9.64,47.53
	c-0.07-0.22,0.06-0.52,0.17-0.63c0.11-0.11,0.2-0.23,0.56-0.36s1.8-0.42,1.92-0.51s0.3-0.33,0.37-0.38
	c0.07-0.04,0.24-0.03,0.32-0.08c0.08-0.05,0.08-0.24,0.04-0.32s-0.82-2.28-1.03-2.84c-0.22-0.56-0.89-2.05-1.01-2.39
	s-0.3-0.84-0.3-0.97c0-0.13,0.03-0.22,0.02-0.3c-0.02-0.1-0.14-0.14-0.22-0.2c-0.14-0.14-0.26-0.22-0.31-0.54
	c-0.05-0.31-0.02-0.99-0.02-0.99s-0.21-0.51-0.34-0.92c-0.13-0.41-0.27-0.67-0.27-1.33s0.19-1.02,0.32-1.41
	c0.13-0.4,0.57-1.32,0.57-1.32s-0.32-0.2-0.4-0.24c-0.07-0.04-0.05-0.07-0.01-0.16c0.06-0.14,0.77-1.35,0.96-1.71
	c0.19-0.37,1.06-1.79,1.44-2.47c0.38-0.68,1.15-2.09,1.35-2.48c0.19-0.39,0.64-1.2,0.73-1.39s0.37-0.55,0.35-0.67
	c-0.02-0.11,0-0.36,0.01-0.6s0.11-0.52,0.14-0.58s-0.3-1.07-0.42-1.36c-0.12-0.29-0.56-1.27-0.71-1.63s-0.42-1.07-0.42-1.07
	s-0.06,0.18-0.18,0.59s-0.25,0.84-0.3,0.98s-0.06,0.18-0.17,0.16s-0.95-0.23-0.95-0.23s-0.34,0.66-0.5,0.96s-0.37,0.74-0.47,0.9
	s-0.56,0.49-0.71,0.6c-0.16,0.1-1.46,0.85-1.72,1c-0.16,0.09-0.44,0.24-0.71,0.37c-0.03,0.14-0.16,0.28-0.21,0.34
	c-0.06,0.08-0.53,0.28-0.84,0.22c-0.11-0.02-0.2,0.1-0.36,0.17c-0.28,0.12-0.67,0.16-1.11,0.2C4.81,23.96,4.54,24,4.12,24
	s-1.44,0.01-1.44,0.01l-0.45-0.04c0,0-0.18-0.08-0.28-0.17s-0.15-0.2-0.19-0.28c-0.04-0.08,0.05-0.3,0.05-0.3s-0.41-0.04-0.57-0.05
	c-0.17-0.01-0.36,0.01-0.48-0.04c-0.13-0.05-0.27-0.19-0.33-0.34C0.36,22.64,0.32,22.64,0.36,22.39z"/>
<path id="goalie-jersey" class="st3" d="M22,15.94c0.09,0.42,0.34,1.5,0.44,1.94s0.22,1.22,0.25,1.59s0.08,0.78,0.08,0.95
	c0,0.09-0.01,0.28-0.02,0.37c-0.02,0.15-0.03,0.13-0.14,0.15s-1.22,0.01-1.22,0.01s-0.36,0-0.65-0.04s-0.41,0.02-0.48-0.27
	c-0.07-0.28-0.34-2.1-0.37-2.27c-0.06-0.33-0.15-0.5-0.26-0.76c-0.11-0.27-0.27-0.71-0.36-0.99s-0.15-0.54-0.21-0.58
	s-0.09-0.07-0.15,0.01c-0.05,0.08-0.11,0.18-0.12,0.3c-0.01,0.12,0,0.77,0.1,1.17c0.1,0.4,0.56,1.75,0.62,2.15s-0.04,0.87-0.06,1.03
	c-0.03,0.16-0.02,0.16-0.11,0.2s-0.31,0.11-0.57,0.16c-0.25,0.05-0.86,0.18-1.35,0.27s-1.47,0.18-1.67,0.22
	c-0.2,0.04-0.24,0.03-0.3-0.12c-0.09-0.23-0.27-0.72-0.47-1.25s-1.22-2.86-1.26-3.06c-0.05-0.21,0.14-1.09,0.12-1.18
	c-0.03-0.09-0.06-0.18-0.14-0.12s-0.46,1.14-0.61,1.62c-0.12,0.39-0.29,0.91-0.4,1.22c-0.02,0.05-0.03,0.16-0.17,0.12
	c-0.14-0.03-0.89-0.22-1.32-0.36s-1.01-0.28-1.32-0.41c-0.22-0.09-0.48-0.16-0.58-0.22c-0.1-0.06-0.1-0.07-0.03-0.27
	c0.11-0.33,0.45-1.25,0.64-1.81c0.19-0.56,0.81-2.33,1.02-2.87c0.17-0.46,0.45-1.35,0.66-1.76c0.18-0.34,0.56-0.78,0.74-1.02
	s0.44-0.48,0.54-0.61s0.27-0.24,0.27-0.24l0.97-0.2l1.28-0.4l0.84-0.43c0,0,0.52,0.08,0.91,0.18s0.72,0.22,1.16,0.47
	S19,9.34,19.45,9.87c0.18,0.21,0.47,0.55,0.63,0.82s0.48,0.83,0.64,1.14s0.41,0.84,0.67,1.63C21.53,13.88,21.9,15.52,22,15.94z"/>
<path class="st0" d="M15.16,16.16c-0.02,0.11-0.04,0.16-0.14,0.16c-0.09,0-0.54-0.96-0.67-0.97s-0.4,0.06-0.44,0.04
	s0.26-0.45,0.38-0.7c0.12-0.25,0.48-1.06,0.51-1.1s0.29-0.12,0.3-0.02s-0.24,0.68-0.24,0.85C14.87,14.59,15.16,16.16,15.16,16.16
	S15.18,16.05,15.16,16.16z"/>
<path id="skin-arm" class="st1" d="M10.4,20.96c-0.17,0.18-0.65,0.45-0.9,0.6s-1.29,0.8-1.62,0.97c-0.1,0.05-0.13,0.07-0.25,0.13
	c-0.27-0.5-0.52-0.94-0.7-1.5c0.61-0.55,1.67-1.49,1.67-1.49l0.21-0.53l0.33-0.86l0.64,0.27l1.64,0.47c0,0-0.41,0.85-0.49,1.02
	S10.58,20.78,10.4,20.96z"/>
<path id="skin-leg-r" class="st4" d="M19.53,33.2c0,0,0.03,0.29,0.2,0.6c0.16,0.31,0.66,0.88,0.66,0.88s0.34-0.16,0.52-0.23
	c0.17-0.07,0.66-0.22,0.89-0.25s0.92-0.12,0.92-0.12s-0.15-0.29-0.15-0.48c0-0.09,0.11-0.46,0.11-0.46s-0.45,0.04-0.88,0.05
	c-0.43,0.02-0.72,0.03-1.09,0.02C20.34,33.2,19.53,33.2,19.53,33.2z"/>
<path id="goalie-sock-r" class="st5" d="M20.73,36.5c0.06,0.11,0.1,0.2,0.24,0.21s0.55-0.26,0.61-0.22s0.07,0.03,0.07,0.14
	c0,0.11,0.01,0.1-0.07,0.21c-0.08,0.12-0.38,0.25-0.49,0.36c-0.11,0.11-0.14,0.26-0.11,0.4c0.03,0.14,1.43,3.07,1.58,3.45
	c0.15,0.38,0.53,1.45,0.59,1.73s0.12,0.58,0.2,0.62c0.08,0.04,0.47,0.01,0.55,0.11c0.08,0.1,0.19,0.42,0.3,0.44
	c0.11,0.02,0.52,0.03,0.62-0.02c0.1-0.04,0.19-0.44,0.27-0.58c0.08-0.14,0.15-0.32,0.14-0.43s-0.11-0.36-0.25-0.86
	s-0.36-1.32-0.45-1.7c-0.09-0.39-0.39-1.77-0.45-2.17s-0.17-1-0.22-1.16c-0.05-0.17-0.08-0.43-0.18-0.53
	c-0.1-0.1-0.14-0.16-0.23-0.18c-0.17-0.03-0.25-0.11-0.25-0.2s-0.01-0.16,0.04-0.25c0.04-0.09,0.29-0.08,0.34-0.24
	s-0.04-0.49-0.23-0.71c-0.19-0.23-0.27-0.28-0.39-0.32c-0.13-0.04-0.88,0.06-1.18,0.13c-0.3,0.07-0.58,0.19-0.75,0.29
	c-0.16,0.11-0.29,0.29-0.35,0.46s-0.11,0.32-0.1,0.49C20.59,36.17,20.73,36.5,20.73,36.5L20.73,36.5
	C20.73,36.5,20.67,36.39,20.73,36.5z"/>
<polygon class="st5" points="23.91,46.13 23.8,45.78 23.19,45.68 23.28,46.04 23.91,46.13 "/>
<path class="st5" d="M25.7,44.4c0,0,0.12-0.1,0.07-0.21s-0.13-0.21-0.13-0.21L25.44,44l-0.06,0.3L25.7,44.4L25.7,44.4z"/>
<path class="st5" d="M25.85,46.61c0,0,0.25,0.01,0.4-0.07c0.15-0.08,0.14-0.31,0.14-0.31l-0.89,0.34l-0.05,0.1L25.85,46.61
	L25.85,46.61z"/>
<polygon class="st5" points="13.78,48.29 13.62,47.93 12.94,47.84 13.15,48.15 13.78,48.29 "/>
<path id="goalie-sock-l" class="st5" d="M15.09,45.96c0.08-0.04,0.22-0.62,0.26-0.71c0.01-0.02,0.04-0.06,0.01-0.14
	c-0.12-0.33-0.29-0.84-0.36-1.06c-0.09-0.3-0.36-1.13-0.39-1.34c-0.03-0.21,0.02-0.5,0-0.99s-0.08-0.8-0.16-1.23
	c-0.08-0.43-0.31-1.19-0.45-1.47c-0.14-0.29-0.27-0.59-0.41-0.71c-0.14-0.12-0.48-0.1-0.61-0.1c-0.12,0-0.14-0.06-0.16-0.12
	s0.09-0.11,0.25-0.22c0.14-0.1,0.31-0.16,0.36-0.22c0.05-0.06,0.08-0.37,0.04-0.56c-0.04-0.19-0.21-0.36-0.32-0.45
	c-0.11-0.09-0.2-0.17-0.36-0.16c-0.16,0.01-0.73,0.17-0.97,0.26c-0.32,0.12-0.42,0.14-1.1,0.37c-0.09,0.07-0.08,0.13-0.08,0.13
	s-0.06,0.27-0.03,0.45s0.01,0.41,0.27,0.57c0.15,0.09,0.41,0.06,0.48,0.19c0.07,0.12-0.01,0.19-0.06,0.31
	c-0.05,0.12-0.19,0.13-0.2,0.23c-0.02,0.1,0.04,0.41,0.21,0.86s1.03,2.5,1.03,2.5s0.9,2.49,0.95,2.58s0.38,0.49,0.43,0.63
	s0.04,0.38,0.09,0.46c0.05,0.08,0.66,0.14,0.74,0.14C14.64,46.14,15,46.01,15.09,45.96z"/>
<path class="st5" d="M15.52,48.25l0.03,0.11c0,0,0.38,0.04,0.49-0.09c0.11-0.14,0.02-0.17,0.02-0.17L15.52,48.25L15.52,48.25z"/>
<path id="skin-leg-l" class="st4" d="M12.7,35.98c0,0,0.18-0.64,0.28-0.81c0.16-0.27,0.83-1.12,0.83-1.12l-1.14-0.62
	c0,0-1.3-0.82-1.32-0.84c-0.02-0.02,0.2-0.57,0.17-0.55c-0.03,0.02-0.33,0.41-0.37,0.41c-0.04,0-0.33-0.19-0.33-0.19
	s-0.41,0.78-0.55,1.17s-0.25,0.72-0.27,0.88s-0.03,0.6,0.02,0.87s0.17,0.7,0.28,0.94s0.27,0.5,0.27,0.5s0.79-0.25,1.06-0.33
	C11.91,36.21,12.7,35.98,12.7,35.98z"/>
<path class="st0" d="M12.37,35.48c0.04-0.06,0.13-0.25,0.13-0.37s0.15-0.3,0.17-0.32c0.02-0.03,0.02-0.1-0.05-0.1
	s-0.47,0.26-0.55,0.35c-0.08,0.09-0.12,0.53-0.08,0.54C12.02,35.59,12.33,35.54,12.37,35.48z"/>
<path id="goalie-shorts" class="st0" d="M23.67,28.51c0,0-0.15,0.55-0.21,0.95c-0.06,0.42-0.14,1.57-0.13,1.99
	c0.01,0.33-0.02,0.98-0.02,1.06c0,0.08,0.02,0.08-0.08,0.11c-0.11,0.03-0.32,0.09-0.59,0.1c-0.28,0.01-0.93,0.1-1.39,0.09
	s-1.43-0.02-1.69-0.02c-0.21,0-1.13-0.04-1.19-0.03c-0.06,0.01-0.08-0.02-0.1-0.12c-0.02-0.09-0.22-1.04-0.19-1.14
	s1.48-2.8,1.6-2.91c0.12-0.12,1.05-0.56,1.15-0.54c0.11,0.02,0.23,0.11,0.33,0.11c0.1,0,0.26-0.05,0.31-0.09
	c0.05-0.04-0.09-0.32-0.14-0.36c-0.06-0.04-0.32-0.12-0.41-0.12c-0.1,0-0.36,0.07-0.42,0.02c-0.05-0.05,0.32-0.45,0.39-0.52
	c0.07-0.06,0.08-0.34,0.09-0.38c0.01-0.04-0.11-0.28-0.18-0.28s-0.16,0.17-0.19,0.21c-0.03,0.04-0.09,0.19-0.18,0.32
	c-0.09,0.13-0.37,0.28-0.48,0.41c-0.11,0.13-0.41,0.43-0.48,0.45c-0.07,0.02-0.61-0.11-0.84-0.17c-0.23-0.06-0.35-0.16-0.57-0.27
	c-0.22-0.11-0.41-0.22-0.6-0.27c-0.19-0.04-0.47-0.15-0.51-0.06c-0.04,0.09-0.07,0.21,0.08,0.39c0.16,0.18,0.3,0.22,0.49,0.34
	c0.18,0.11,0.41,0.24,0.62,0.28c0.22,0.04,0.41,0.05,0.65,0.16c0.24,0.11,0.46,0.19,0.43,0.27s-1.29,2.44-1.6,2.93
	c-0.27,0.44-1.9,2.79-1.97,2.9c-0.07,0.1-0.09,0.07-0.27,0c-0.25-0.11-0.45-0.24-0.88-0.45c-0.43-0.21-1.04-0.54-1.5-0.79
	c-0.36-0.2-0.91-0.58-1.12-0.72c-0.13-0.07-0.06-0.14-0.06-0.14s0.28-0.89,0.27-0.94c-0.01-0.06-0.2-0.2-0.27-0.17
	c-0.11,0.05-0.45,0.58-0.59,0.76c-0.02,0.03-0.02,0.07-0.12,0c-0.08-0.05-0.32-0.17-0.46-0.25c-0.17-0.09-0.12-0.08-0.06-0.21
	c0.05-0.11,0.54-0.91,0.81-1.38c0.27-0.46,0.47-0.76,0.74-1.28c0.28-0.51,0.58-1.07,0.83-1.49c0.25-0.42,2-3.55,2.08-3.73
	c0.09-0.19,0.3-0.49,0.29-0.56c-0.01-0.07-0.04-0.31-0.04-0.46s0.02-0.43,0.14-0.44c0.12-0.01,0.38-0.01,0.64-0.06
	c0.25-0.05,1.37-0.2,1.86-0.3c0.49-0.1,1.61-0.35,1.83-0.35c0.23-0.01,0.78,0,1.13,0.01c0.35,0.01,1.74,0.01,1.86,0.06
	s0.12,0.05,0.2,0.16s0.12,0.22,0.02,0.28s-2.14-0.03-2.39-0.02c-0.25,0.02-0.58,0.08-0.71,0.14c-0.13,0.06-0.21,0.17-0.21,0.22
	s-0.04,0.09,0.01,0.13c0.05,0.04,0.26,0.03,0.37,0.04c0.11,0,0.3-0.02,0.5-0.03c0.2-0.01,2.28-0.06,2.37-0.05s0.28-0.06,0.36,0.01
	c0.09,0.06,0.2,0.23,0.22,0.31s0.15,0.32,0.24,0.72s0.25,1.25,0.28,1.89c0.03,0.64,0.01,1.4-0.08,1.98
	C23.89,27.78,23.67,28.51,23.67,28.51z"/>
<path id="skin-face" class="st4" d="M12.67,5.19c-0.04-0.06-0.54-0.2-0.61-0.24c-0.07-0.05-0.17-0.24-0.19-0.31
	s-0.03-0.34-0.04-0.41C11.81,4.17,11.73,4.07,11.66,4c-0.07-0.07-0.31-0.28-0.31-0.28S11.2,3.6,11.12,3.57
	c-0.08-0.03-0.17-0.05-0.22-0.02c-0.05,0.04-0.13,0.25-0.11,0.3c0.02,0.05,0.24,0.23,0.25,0.3s-0.03,0.25-0.02,0.33
	s0.1,0.36,0.08,0.44C11.09,5,11.01,5.34,11,5.45s-0.04,0.23-0.02,0.33s0.27,0.59,0.34,0.76c0.06,0.18,0.13,0.81,0.14,0.92
	s0.09,0.48,0.09,0.48s0.12,0.11,0.29,0.16s0.34,0.01,0.46-0.07s0.29-0.31,0.29-0.31S12.77,8,12.88,8.23s0.29,0.6,0.29,0.6
	s0.7-0.13,0.95-0.2C14.37,8.56,15,8.37,15.17,8.3s0.55-0.31,0.55-0.31L15.6,7.8c0,0-0.12-0.12-0.17-0.09
	c-0.05,0.04-0.09,0.22-0.15,0.23c-0.06,0.01-0.19-0.18-0.26-0.18c-0.06,0-0.67,0.19-0.76,0.2c-0.09,0.01-0.3-0.07-0.39-0.13
	s-0.98-1.15-1.01-1.27C12.84,6.43,12.71,5.25,12.67,5.19z"/>
<path class="st2" d="M7.11,22.52c0.08,0.17,0.23,0.37,0.23,0.45s-0.03,0.06-0.1,0.15c-0.07,0.09-0.29,0.11-0.39,0.13
	s-0.24-0.24-0.32-0.29s-0.23-0.12-0.21-0.01s0.12,0.28,0.05,0.35s-0.6,0.21-0.94,0.25c-0.34,0.04-1.14,0.09-1.14,0.09l-0.96,0.01
	H2.78L2.37,23.6l-0.12-0.12l0.02-0.18l0.12-0.12l1-0.09l-0.02-0.21l-2.29-0.06c0,0-0.28-0.09-0.3-0.28
	c-0.03-0.28,0.18-0.31,0.18-0.31L3.3,22.2l-0.02-0.26c0,0-2.02-0.27-2.14-0.29c-0.12-0.03-0.15-0.14-0.15-0.34s0.29-0.25,0.29-0.25
	l2.1,0.2l0.06-0.2l-1.36-0.42c0,0-0.18-0.16-0.1-0.29s0.31-0.12,0.31-0.12s1.77,0.31,1.99,0.4c0.22,0.09,0.7,0.29,0.8,0.35
	c0.1,0.06,0.4,0.22,0.49,0.31s0.09,0.28,0.18,0.33s0.12-0.01,0.15-0.04s-0.01-0.17,0.02-0.25s0.14-0.14,0.26-0.18s0.33-0.1,0.4-0.01
	s0.14,0.42,0.25,0.69S7.03,22.34,7.11,22.52z"/>
<path class="st0" d="M4.08,21.17c0,0,0.12-0.12,0.24-0.01s0.03,0.28-0.02,0.32s-0.13,0.08-0.24,0.02
	C3.95,21.43,4.08,21.17,4.08,21.17z"/>
<path class="st0" d="M3.77,22.25c0,0-0.05-0.07,0.01-0.16s0.17-0.15,0.17-0.15s0.04,0.23-0.02,0.32S3.77,22.25,3.77,22.25
	L3.77,22.25z"/>
<path id="hair" class="st0" d="M16.78,4.58l-0.02,0.67L16.6,5.83l-0.37,0.69l0.14,0.29l-0.2,0.08l-0.25,0.34l-0.15,0.18
	c-0.06,0-0.37-0.14-0.37-0.14l-0.18,0.23c0,0-0.18-0.07-0.27-0.08s-0.59,0.14-0.67,0.17c-0.09,0.03-0.29-0.19-0.39-0.25
	c-0.14-0.09-0.62-0.85-0.72-1c-0.1-0.15-0.13-1.3-0.23-1.4c-0.1-0.1-0.61-0.2-0.7-0.26c-0.09-0.06-0.1-0.29-0.1-0.39
	c0-0.1-0.06-0.23-0.12-0.31c-0.06-0.09-0.08-0.16-0.17-0.25c-0.09-0.09-0.15-0.12-0.24-0.19c-0.09-0.07-0.3-0.29-0.35-0.29
	c-0.05,0-0.16-0.08-0.29-0.05c-0.06,0.02-0.06-0.01-0.09-0.17c-0.03-0.14-0.09-0.32-0.09-0.39c-0.02-0.17,0.03-0.55,0.03-0.55
	l0.44-0.33l0.16-0.34l0.86-0.05l0.12-0.29l0.79-0.32l0.72-0.02l1.42,0.44l0.29,0.36l0.34-0.05l0.53,0.76l0.58,0.87l0.11,0.21
	l-0.15,0.09L16.9,3.88l0.23,0.48L16.78,4.58z"/>
</svg>
