<?xml version="1.0" encoding="utf-8"?>
<!-- Generator: Adobe Illustrator 16.0.4, SVG Export Plug-In . SVG Version: 6.00 Build 0)  -->
<!DOCTYPE svg PUBLIC "-//W3C//DTD SVG 1.1//EN" "http://www.w3.org/Graphics/SVG/1.1/DTD/svg11.dtd" [
	<!ENTITY ns_flows "http://ns.adobe.com/Flows/1.0/">
	<!ENTITY ns_extend "http://ns.adobe.com/Extensibility/1.0/">
	<!ENTITY ns_ai "http://ns.adobe.com/AdobeIllustrator/10.0/">
	<!ENTITY ns_graphs "http://ns.adobe.com/Graphs/1.0/">
]>
<svg version="1.1" id="Ebene_1" xmlns:x="&ns_extend;" xmlns:i="&ns_ai;" xmlns:graph="&ns_graphs;"
	 xmlns="http://www.w3.org/2000/svg" xmlns:xlink="http://www.w3.org/1999/xlink" xmlns:a="http://ns.adobe.com/AdobeSVGViewerExtensions/3.0/"
	 x="0px" y="0px" width="27.2px" height="49.6px" viewBox="0 0 27.2 49.6" style="enable-background:new 0 0 27.2 49.6;"
	 xml:space="preserve">
<style type="text/css">
<![CDATA[
	.st0{fill-rule:evenodd;clip-rule:evenodd;fill:#1A1A18;}
	.st1{fill:#FBCDAA;}
	.st2{fill:#FFFFFF;}
	.st3{fill:#9E2A6A;}
	.st4{fill-rule:evenodd;clip-rule:evenodd;fill:#FBCDAA;}
	.st5{fill-rule:evenodd;clip-rule:evenodd;fill:#FFFFFF;}
]]>
</style>
<path class="st0" d="M26.84,22.39c-0.04-0.25-0.38-0.48-0.38-0.48s0.16-0.31,0.17-0.53s-0.12-0.4-0.25-0.5
	c-0.13-0.1-0.55-0.16-0.55-0.16l-0.4,0.02c0,0,0.12-0.08,0.16-0.14c0.03-0.04,0.06-0.19,0.02-0.32c-0.03-0.11-0.12-0.19-0.23-0.27
	c-0.25-0.17-0.75-0.08-0.75-0.08s-0.76,0.16-1.06,0.21c-0.3,0.05-0.55,0.14-0.79,0.21c-0.23,0.08-0.96,0.41-0.96,0.41
	s-0.3,0.2-0.35,0.21s-0.18-0.07-0.29-0.14s-0.58-0.13-0.74,0c0,0,0,0,0,0c-0.45-0.4-1.29-1.16-1.41-1.29
	c-0.15-0.17-0.26-0.54-0.35-0.8c-0.09-0.26-0.22-0.6-0.22-0.6s0.05-0.06,0.13-0.09c0.08-0.03-0.03-0.29,0.01-0.17
	s-0.3-0.77-0.3-0.77L17.6,15.3c0,0-0.61-1.69-0.74-2.16c-0.13-0.46-0.55-1.58-0.65-1.82s-0.16-0.4-0.35-0.67
	c-0.18-0.27-0.53-0.75-0.74-1.02s-0.71-0.65-0.71-0.65l0.26-0.57c0,0,0.25,0.08,0.4,0.08c0.15,0,0.41-0.04,0.5-0.08
	c0.3-0.14,0.36-0.22,0.43-0.4c0.03-0.08,0.06-0.38,0.06-0.52s0.11-0.73,0.16-0.92s0.28-0.7,0.32-0.92s-0.12-0.79-0.12-0.79
	s0.12-0.28,0.13-0.43c0.01-0.1,0.02-0.25,0.02-0.31s0.03-0.15,0.03-0.22s-0.03-0.38-0.03-0.43c0-0.05,0.17-0.78,0.17-0.78l-0.08-0.8
	l-0.55-0.42l-0.19-0.41l-0.8-0.02l-0.11-0.32L14.06,0.4l-0.8-0.02l-1.61,0.49l-0.24,0.31l-0.33-0.05l-0.65,0.89L9.74,3.15L9.62,3.41
	L9.8,3.52l0.14,0.38L9.69,4.47l0.38,0.35l0.04,0.61l0.18,0.6l0.29,0.59l-0.15,0.35l0.22,0.1l0.48,0.64l-0.03,0.07
	c0,0-0.62,0.1-0.73,0.12c-0.12,0.03-0.34,0.08-0.59,0.16S9.14,8.27,8.89,8.39S8.31,8.7,7.76,9.23c-0.15,0.14-0.45,0.44-0.8,0.92
	s-0.67,1.07-0.86,1.44s-0.53,1.16-0.7,1.73c-0.09,0.29-0.31,1.21-0.39,1.53s-0.34,1.41-0.41,1.69s-0.31,1.3-0.39,1.8
	C4.17,18.62,4.05,19.39,4,20c-0.02,0.31-0.03,1.04-0.03,1.04s-0.19,0.15-0.27,0.29s-0.12,0.43-0.15,0.51
	c-0.06,0.18-0.2,0.24-0.31,0.45s-0.3,0.96-0.43,1.57c-0.09,0.44-0.15,1.05-0.16,1.47c-0.01,0.41,0,1.44,0.13,2.14s0.42,1.57,0.47,2
	c0.02,0.19,0.09,1.05,0.12,1.84c0.03,0.76,0.02,1.45,0.02,1.52c0,0.14-0.02,0.13,0.08,0.16C3.56,33.01,4,33.11,4,33.11
	s0.11,0.33,0.11,0.48s-0.1,0.6-0.19,0.66c-0.09,0.06-0.34,0.22-0.52,0.45c-0.17,0.22-0.3,0.64-0.31,0.81C3.09,35.68,3.2,36,3.2,36
	s-0.22,0.53-0.28,0.83c-0.06,0.31-0.45,2.56-0.54,2.93c-0.08,0.37-0.37,1.47-0.49,1.84s-0.65,2.28-0.65,2.28s-0.21,0-0.27,0.1
	s-0.06,0.36-0.08,0.44c-0.03,0.08-0.36,0.71-0.44,0.87c-0.08,0.16-0.01,0.29-0.01,0.44S0.4,46.3,0.39,46.39
	c-0.01,0.09-0.05,0.13-0.05,0.21c0,0.08,0.51,0.34,0.51,0.41s0,0.16,0.06,0.24s0.2,0.05,0.29,0.04s0.11-0.14,0.11-0.14l0.25,0.01
	c0,0,0.04,0.15,0.09,0.21c0.05,0.05,0.17,0.04,0.25,0.01s0.16-0.19,0.16-0.19s0.26-0.15,0.37-0.17c0.1-0.02,1.08-0.16,1.08-0.16
	L5,46.66l0.44-0.08c0,0,0.12,0.12,0.19,0.13c0.07,0.01,0.18-0.03,0.28-0.08s0.09-0.19,0.09-0.19l0.21-0.05l0.25-0.08
	c0,0,0.04,0.11,0.1,0.11c0.06,0.01,0.24-0.06,0.3-0.12s0.13-0.19,0.13-0.19s0.2-0.11,0.32-0.18c0.12-0.07,0.28-0.3,0.28-0.59
	c0.01-0.3-0.12-0.58-0.41-0.66c-0.22-0.06-1.95-0.34-2.12-0.38s-0.41-0.09-0.47-0.13c-0.06-0.04-0.07-0.48-0.1-0.55
	s-0.21-0.12-0.21-0.12s0.13-0.66,0.25-1.03c0.13-0.37,0.16-0.59,0.36-1.06s1.59-3.29,1.75-3.66s0.1-0.69,0.1-0.69
	s0.25-0.32,0.29-0.53c0.04-0.21,0.07-0.39,0.09-0.69c0.02-0.3-0.05-0.59-0.05-0.59s0.62-0.77,0.82-1.16s0.42-0.92,0.42-0.92
	S9,33.17,9.09,33.17s0.12,0,0.14-0.1s0.25-1.06,0.25-1.06s0.73,1.08,1,1.47c0.22,0.32,0.74,1.1,0.93,1.39
	c0.04,0.06,0.12,0.12,0.2,0.07c0.06-0.04,0.98-0.47,1.23-0.61c0.04-0.02,0.07-0.04,0.07-0.04s0.84,0.86,0.95,1.16
	s0.17,0.62,0.17,0.62s-0.16,0.04-0.31,0.19s-0.36,0.43-0.4,0.68c-0.05,0.3-0.02,0.65,0.01,0.93c0.02,0.14-0.08,0.22-0.12,0.27
	c-0.14,0.14-0.36,0.66-0.52,1.03c-0.11,0.27-0.34,1.3-0.41,1.7c-0.14,0.84-0.09,1.75-0.16,2.03s-0.69,2.26-0.78,2.37
	c-0.09,0.1-0.33,0.29-0.39,0.41s-0.12,0.78-0.08,0.87c0.04,0.09-0.17,0.29-0.2,0.38s0.15,0.11,0.18,0.17
	c0.04,0.07-0.14,0.72-0.15,0.89s0.22,0.45,0.3,0.56c0.08,0.11,0.32,0.27,0.32,0.27s-0.01,0.23,0.07,0.28
	c0.04,0.02,0.3,0.06,0.36,0.05c0.06-0.01,0.08-0.17,0.08-0.17L12.12,49c0,0,0.07,0.18,0.11,0.2c0.03,0.02,0.22,0.05,0.26,0
	s0.14-0.22,0.14-0.22l0.84-0.2l1.42-0.25l0.38-0.09c0,0,0.11,0.12,0.14,0.16s0.24-0.01,0.3-0.07s0.16-0.22,0.16-0.22l0.28-0.05
	c0,0,0.04,0.19,0.12,0.18c0.08-0.01,0.24-0.02,0.29-0.09c0.06-0.07,0.09-0.2,0.09-0.2s0.21-0.01,0.4-0.09
	c0.19-0.07,0.45-0.32,0.52-0.54c0.07-0.22-0.06-0.52-0.17-0.63c-0.11-0.11-0.2-0.23-0.56-0.36s-1.8-0.42-1.92-0.51
	s-0.3-0.33-0.37-0.38c-0.07-0.04-0.24-0.03-0.32-0.08c-0.08-0.05-0.08-0.24-0.04-0.32s0.82-2.28,1.03-2.84
	c0.22-0.56,0.89-2.05,1.01-2.39s0.3-0.84,0.3-0.97c0-0.13-0.03-0.22-0.02-0.3c0.02-0.1,0.14-0.14,0.22-0.2
	c0.14-0.14,0.26-0.22,0.31-0.54c0.05-0.31,0.02-0.99,0.02-0.99s0.21-0.51,0.34-0.92c0.13-0.41,0.27-0.67,0.27-1.33
	s-0.19-1.02-0.32-1.41c-0.13-0.4-0.57-1.32-0.57-1.32s0.32-0.2,0.4-0.24c0.07-0.04,0.05-0.07,0.01-0.16
	c-0.06-0.14-0.77-1.35-0.96-1.71c-0.19-0.37-1.06-1.79-1.44-2.47c-0.38-0.68-1.15-2.09-1.35-2.48c-0.19-0.39-0.64-1.2-0.73-1.39
	s-0.37-0.55-0.35-0.67c0.02-0.11,0-0.36-0.01-0.6s-0.11-0.52-0.14-0.58s0.3-1.07,0.42-1.36c0.12-0.29,0.56-1.27,0.71-1.63
	s0.42-1.07,0.42-1.07s0.06,0.18,0.18,0.59s0.25,0.84,0.3,0.98s0.06,0.18,0.17,0.16s0.95-0.23,0.95-0.23s0.34,0.66,0.5,0.96
	s0.37,0.74,0.47,0.9s0.56,0.49,0.71,0.6c0.16,0.1,1.46,0.85,1.72,1c0.16,0.09,0.44,0.24,0.71,0.37c0.03,0.14,0.16,0.28,0.21,0.34
	c0.06,0.08,0.53,0.28,0.84,0.22c0.11-0.02,0.2,0.1,0.36,0.17c0.28,0.12,0.67,0.16,1.11,0.2c0.44,0.04,0.71,0.08,1.13,0.08
	s1.44,0.01,1.44,0.01l0.45-0.04c0,0,0.18-0.08,0.28-0.17s0.15-0.2,0.19-0.28c0.04-0.08-0.05-0.3-0.05-0.3s0.41-0.04,0.57-0.05
	c0.17-0.01,0.36,0.01,0.48-0.04c0.13-0.05,0.27-0.19,0.33-0.34C26.84,22.64,26.88,22.64,26.84,22.39z"/>
<path id="goalie-jersey" class="st3" d="M5.2,15.94c-0.09,0.42-0.34,1.5-0.44,1.94s-0.22,1.22-0.25,1.59s-0.08,0.78-0.08,0.95
	c0,0.09,0.01,0.28,0.02,0.37c0.02,0.15,0.03,0.13,0.14,0.15s1.22,0.01,1.22,0.01s0.36,0,0.65-0.04s0.41,0.02,0.48-0.27
	s0.34-2.1,0.37-2.27c0.06-0.33,0.15-0.5,0.26-0.76s0.27-0.71,0.36-0.99s0.15-0.54,0.21-0.58s0.09-0.07,0.15,0.01s0.11,0.18,0.12,0.3
	s0,0.77-0.1,1.17c-0.1,0.4-0.56,1.75-0.62,2.15s0.04,0.87,0.06,1.03c0.03,0.16,0.02,0.16,0.11,0.2s0.31,0.11,0.57,0.16
	c0.25,0.05,0.86,0.18,1.35,0.27s1.47,0.18,1.67,0.22c0.2,0.04,0.24,0.03,0.3-0.12c0.09-0.23,0.27-0.72,0.47-1.25
	s1.22-2.86,1.26-3.06c0.05-0.21-0.14-1.09-0.12-1.18c0.03-0.09,0.06-0.18,0.14-0.12s0.46,1.14,0.61,1.62
	c0.12,0.39,0.29,0.91,0.4,1.22c0.02,0.05,0.03,0.16,0.17,0.12c0.14-0.03,0.89-0.22,1.32-0.36s1.01-0.28,1.32-0.41
	c0.22-0.09,0.48-0.16,0.58-0.22c0.1-0.06,0.1-0.07,0.03-0.27c-0.11-0.33-0.45-1.25-0.64-1.81c-0.19-0.56-0.81-2.33-1.02-2.87
	c-0.17-0.46-0.45-1.35-0.66-1.76c-0.18-0.34-0.56-0.78-0.74-1.02s-0.44-0.48-0.54-0.61s-0.27-0.24-0.27-0.24l-0.97-0.2l-1.28-0.4
	l-0.84-0.43c0,0-0.52,0.08-0.91,0.18S9.36,8.61,8.92,8.86S8.2,9.34,7.75,9.87c-0.17,0.21-0.47,0.55-0.63,0.82s-0.48,0.83-0.64,1.14
	s-0.41,0.84-0.67,1.63C5.67,13.88,5.3,15.52,5.2,15.94z"/>
<path class="st0" d="M12.04,16.16c0.02,0.11,0.04,0.16,0.14,0.16s0.54-0.96,0.67-0.97s0.4,0.06,0.44,0.04s-0.26-0.45-0.38-0.7
	c-0.12-0.25-0.48-1.06-0.51-1.1s-0.29-0.12-0.3-0.02s0.24,0.68,0.24,0.85C12.33,14.59,12.04,16.16,12.04,16.16
	S12.02,16.05,12.04,16.16z"/>
<path id="skin-arm" class="st1" d="M16.8,20.96c0.17,0.18,0.65,0.45,0.9,0.6s1.29,0.8,1.62,0.97c0.1,0.05,0.13,0.07,0.25,0.13
	c0.27-0.5,0.52-0.94,0.7-1.5c-0.61-0.55-1.67-1.49-1.67-1.49l-0.21-0.53l-0.33-0.86l-0.64,0.27l-1.64,0.47c0,0,0.41,0.85,0.49,1.02
	S16.62,20.78,16.8,20.96z"/>
<path id="skin-leg-l" class="st4" d="M7.67,33.2c0,0-0.03,0.29-0.2,0.6c-0.16,0.31-0.66,0.88-0.66,0.88s-0.34-0.16-0.52-0.23
	c-0.17-0.07-0.66-0.22-0.89-0.25s-0.92-0.12-0.92-0.12s0.15-0.29,0.15-0.48c0-0.09-0.11-0.46-0.11-0.46s0.45,0.04,0.88,0.05
	c0.43,0.02,0.72,0.03,1.09,0.02C6.86,33.2,7.67,33.2,7.67,33.2z"/>
<path id="goalie-sock-l" class="st5" d="M6.47,36.5c-0.06,0.11-0.1,0.2-0.24,0.21s-0.55-0.26-0.61-0.22s-0.07,0.03-0.07,0.14
	c0,0.11-0.01,0.1,0.07,0.21C5.7,36.97,6,37.1,6.11,37.2c0.11,0.11,0.14,0.26,0.11,0.4c-0.03,0.14-1.43,3.07-1.58,3.45
	c-0.15,0.38-0.53,1.45-0.59,1.73s-0.12,0.58-0.2,0.62c-0.08,0.04-0.47,0.01-0.55,0.11c-0.08,0.1-0.19,0.42-0.3,0.44
	s-0.52,0.03-0.62-0.02s-0.19-0.44-0.27-0.58s-0.15-0.32-0.14-0.43s0.11-0.36,0.25-0.86s0.36-1.32,0.45-1.7
	c0.09-0.39,0.39-1.77,0.45-2.17s0.17-1,0.22-1.16s0.08-0.43,0.18-0.53c0.1-0.1,0.14-0.16,0.23-0.18C3.92,36.31,4,36.23,4,36.14
	s0.01-0.16-0.04-0.25c-0.04-0.09-0.29-0.08-0.34-0.24s0.04-0.49,0.23-0.71c0.19-0.23,0.27-0.28,0.39-0.32
	c0.13-0.04,0.88,0.06,1.17,0.13c0.3,0.07,0.58,0.19,0.75,0.29c0.16,0.11,0.29,0.29,0.35,0.46s0.11,0.32,0.1,0.49
	C6.61,36.17,6.47,36.5,6.47,36.5L6.47,36.5C6.47,36.5,6.53,36.39,6.47,36.5z"/>
<polygon class="st5" points="3.29,46.13 3.4,45.78 4.01,45.68 3.92,46.04 3.29,46.13 "/>
<path class="st5" d="M1.5,44.4c0,0-0.12-0.1-0.07-0.21s0.13-0.21,0.13-0.21L1.76,44l0.06,0.3L1.5,44.4L1.5,44.4z"/>
<path class="st5" d="M1.35,46.61c0,0-0.25,0.01-0.4-0.07s-0.14-0.31-0.14-0.31l0.89,0.34l0.05,0.1L1.35,46.61L1.35,46.61z"/>
<polygon class="st5" points="13.42,48.29 13.58,47.93 14.26,47.84 14.05,48.15 13.42,48.29 "/>
<path id="goalie-sock-r" class="st5" d="M12.11,45.96c-0.08-0.04-0.22-0.62-0.26-0.71c-0.01-0.02-0.04-0.06-0.01-0.14
	c0.12-0.33,0.29-0.84,0.36-1.06c0.08-0.3,0.36-1.13,0.39-1.34c0.03-0.21-0.01-0.5,0-0.99s0.08-0.8,0.16-1.23
	c0.08-0.43,0.31-1.19,0.45-1.47c0.14-0.29,0.27-0.59,0.41-0.71c0.14-0.12,0.48-0.1,0.61-0.1c0.12,0,0.14-0.06,0.16-0.12
	s-0.09-0.11-0.25-0.22c-0.14-0.1-0.31-0.16-0.36-0.22c-0.05-0.06-0.08-0.37-0.04-0.56c0.04-0.19,0.21-0.36,0.32-0.45
	c0.11-0.09,0.2-0.17,0.36-0.16c0.16,0.01,0.73,0.17,0.97,0.26c0.32,0.12,0.42,0.14,1.1,0.37c0.09,0.07,0.08,0.13,0.08,0.13
	s0.06,0.27,0.03,0.45s-0.01,0.41-0.27,0.57c-0.15,0.09-0.41,0.06-0.48,0.19c-0.07,0.12,0.01,0.19,0.06,0.31
	c0.05,0.12,0.19,0.13,0.2,0.23c0.02,0.1-0.04,0.41-0.21,0.86s-1.03,2.5-1.03,2.5s-0.9,2.49-0.95,2.58s-0.38,0.49-0.43,0.63
	s-0.04,0.38-0.09,0.46c-0.05,0.08-0.66,0.14-0.74,0.14C12.56,46.14,12.2,46.01,12.11,45.96z"/>
<path class="st5" d="M11.68,48.25l-0.03,0.11c0,0-0.38,0.04-0.49-0.09c-0.11-0.14-0.02-0.17-0.02-0.17L11.68,48.25L11.68,48.25z"/>
<path id="skin-leg-r" class="st4" d="M14.5,35.98c0,0-0.18-0.64-0.28-0.81c-0.16-0.27-0.83-1.12-0.83-1.12l1.14-0.62
	c0,0,1.3-0.82,1.32-0.84c0.02-0.02-0.2-0.57-0.17-0.55c0.03,0.02,0.33,0.41,0.37,0.41c0.04,0,0.33-0.19,0.33-0.19
	s0.41,0.78,0.55,1.17s0.25,0.72,0.27,0.88s0.03,0.6-0.02,0.87s-0.17,0.7-0.28,0.94s-0.27,0.5-0.27,0.5s-0.79-0.25-1.06-0.33
	C15.29,36.21,14.5,35.98,14.5,35.98z"/>
<path class="st0" d="M14.83,35.48c-0.04-0.06-0.13-0.25-0.13-0.37s-0.15-0.3-0.17-0.32c-0.02-0.03-0.02-0.1,0.05-0.1
	s0.47,0.26,0.55,0.35c0.08,0.09,0.12,0.53,0.08,0.54C15.18,35.59,14.87,35.54,14.83,35.48z"/>
<path id="goalie-shorts" class="st0" d="M3.53,28.51c0,0,0.15,0.55,0.21,0.95c0.06,0.42,0.14,1.57,0.13,1.99
	c-0.01,0.33,0.02,0.98,0.02,1.06c0,0.08-0.02,0.08,0.08,0.11c0.11,0.03,0.32,0.09,0.59,0.1c0.28,0.01,0.93,0.1,1.39,0.09
	s1.43-0.02,1.69-0.02c0.21,0,1.13-0.04,1.19-0.03c0.06,0.01,0.08-0.02,0.1-0.12c0.02-0.09,0.23-1.04,0.19-1.14s-1.48-2.8-1.6-2.91
	c-0.12-0.12-1.05-0.56-1.15-0.54c-0.1,0.02-0.23,0.11-0.33,0.11c-0.1,0-0.26-0.05-0.31-0.09c-0.05-0.04,0.09-0.32,0.14-0.36
	c0.06-0.04,0.32-0.12,0.41-0.12c0.1,0,0.36,0.07,0.42,0.02s-0.32-0.45-0.39-0.52c-0.07-0.06-0.08-0.34-0.09-0.38
	c-0.01-0.04,0.11-0.28,0.18-0.28s0.16,0.17,0.19,0.21c0.03,0.04,0.09,0.19,0.18,0.32c0.09,0.13,0.37,0.28,0.48,0.41
	s0.42,0.43,0.48,0.45s0.61-0.11,0.84-0.17c0.23-0.06,0.35-0.16,0.57-0.27c0.22-0.11,0.41-0.22,0.6-0.27
	c0.19-0.04,0.47-0.15,0.51-0.06c0.04,0.09,0.08,0.21-0.08,0.39c-0.16,0.18-0.3,0.22-0.49,0.34c-0.18,0.11-0.41,0.24-0.62,0.28
	c-0.22,0.04-0.41,0.05-0.65,0.16c-0.24,0.11-0.46,0.19-0.43,0.27s1.29,2.44,1.6,2.93c0.27,0.44,1.9,2.79,1.97,2.9
	c0.07,0.1,0.09,0.07,0.27,0c0.25-0.11,0.45-0.24,0.88-0.45c0.43-0.21,1.04-0.54,1.49-0.79c0.36-0.2,0.91-0.58,1.12-0.72
	c0.13-0.07,0.06-0.14,0.06-0.14s-0.28-0.89-0.27-0.94c0.01-0.06,0.2-0.2,0.27-0.17c0.11,0.05,0.45,0.58,0.59,0.76
	c0.02,0.03,0.02,0.07,0.12,0c0.08-0.05,0.32-0.17,0.46-0.25c0.17-0.09,0.12-0.08,0.06-0.21c-0.05-0.11-0.54-0.91-0.81-1.38
	c-0.27-0.46-0.47-0.76-0.74-1.28c-0.28-0.51-0.58-1.07-0.83-1.49c-0.25-0.42-2-3.55-2.09-3.73s-0.3-0.49-0.29-0.56
	s0.04-0.31,0.04-0.46s-0.02-0.43-0.14-0.44c-0.12-0.01-0.38-0.01-0.64-0.06s-1.37-0.2-1.86-0.3c-0.49-0.1-1.61-0.35-1.83-0.35
	c-0.23-0.01-0.78,0-1.13,0.01c-0.35,0.01-1.74,0.01-1.86,0.06s-0.12,0.05-0.2,0.16c-0.08,0.11-0.12,0.22-0.02,0.28
	s2.14-0.03,2.39-0.02c0.25,0.02,0.58,0.08,0.71,0.14c0.13,0.06,0.21,0.17,0.21,0.22c-0.01,0.05,0.04,0.09-0.01,0.13
	c-0.06,0.04-0.26,0.03-0.37,0.04c-0.11,0-0.3-0.02-0.5-0.03c-0.2-0.01-2.28-0.06-2.37-0.05s-0.28-0.06-0.36,0.01
	c-0.09,0.06-0.2,0.23-0.22,0.31c-0.02,0.09-0.15,0.32-0.24,0.72c-0.09,0.4-0.25,1.25-0.28,1.89c-0.03,0.64-0.01,1.4,0.08,1.98
	C3.31,27.78,3.53,28.51,3.53,28.51z"/>
<path id="skin-face" class="st4" d="M14.53,5.19c0.04-0.06,0.54-0.2,0.61-0.24c0.07-0.05,0.17-0.24,0.19-0.31s0.03-0.34,0.04-0.41
	c0.01-0.06,0.09-0.16,0.16-0.23c0.07-0.07,0.31-0.28,0.31-0.28S16,3.6,16.08,3.57c0.08-0.03,0.17-0.05,0.22-0.02
	c0.05,0.04,0.13,0.25,0.11,0.3c-0.02,0.05-0.24,0.23-0.25,0.3s0.03,0.25,0.02,0.33s-0.1,0.36-0.08,0.44
	c0.02,0.08,0.1,0.42,0.12,0.53s0.04,0.23,0.02,0.33s-0.27,0.59-0.34,0.76c-0.06,0.18-0.13,0.81-0.14,0.92s-0.09,0.48-0.09,0.48
	s-0.12,0.11-0.29,0.16s-0.34,0.01-0.46-0.07s-0.29-0.31-0.29-0.31S14.43,8,14.32,8.23s-0.29,0.6-0.29,0.6s-0.7-0.13-0.95-0.2
	S12.2,8.37,12.03,8.3s-0.55-0.31-0.55-0.31L11.6,7.8c0,0,0.12-0.12,0.17-0.09c0.05,0.04,0.09,0.22,0.15,0.23
	c0.06,0.01,0.19-0.18,0.26-0.18s0.67,0.19,0.76,0.2c0.09,0.01,0.29-0.07,0.39-0.13s0.98-1.15,1.01-1.27
	C14.36,6.43,14.49,5.25,14.53,5.19z"/>
<path class="st2" d="M20.09,22.52c-0.08,0.17-0.23,0.37-0.23,0.45s0.03,0.06,0.1,0.15c0.07,0.09,0.29,0.11,0.39,0.13
	s0.24-0.24,0.32-0.29s0.23-0.12,0.21-0.01s-0.12,0.28-0.05,0.35s0.6,0.21,0.94,0.25c0.34,0.04,1.14,0.09,1.14,0.09l0.96,0.01h0.57
	l0.41-0.05l0.12-0.12l-0.02-0.18l-0.12-0.12l-1-0.09l0.02-0.21l2.29-0.06c0,0,0.28-0.09,0.3-0.28c0.03-0.28-0.18-0.31-0.18-0.31
	L23.9,22.2l0.02-0.26c0,0,2.02-0.27,2.14-0.29c0.12-0.03,0.15-0.14,0.15-0.34s-0.29-0.25-0.29-0.25l-2.1,0.2l-0.06-0.2l1.36-0.42
	c0,0,0.18-0.16,0.1-0.29s-0.31-0.12-0.31-0.12s-1.77,0.31-1.99,0.4c-0.22,0.09-0.7,0.29-0.8,0.35c-0.1,0.06-0.4,0.22-0.49,0.31
	s-0.09,0.28-0.18,0.33s-0.12-0.01-0.15-0.04s0.01-0.17-0.02-0.25s-0.14-0.14-0.26-0.18s-0.33-0.1-0.4-0.01s-0.14,0.42-0.25,0.69
	S20.17,22.34,20.09,22.52z"/>
<path class="st0" d="M23.12,21.17c0,0-0.12-0.12-0.24-0.01s-0.03,0.28,0.02,0.32s0.13,0.08,0.24,0.02
	C23.25,21.43,23.12,21.17,23.12,21.17z"/>
<path class="st0" d="M23.43,22.25c0,0,0.05-0.07-0.01-0.16s-0.17-0.15-0.17-0.15s-0.04,0.23,0.02,0.32S23.43,22.25,23.43,22.25
	L23.43,22.25z"/>
<path id="hair" class="st0" d="M10.42,4.58l0.02,0.67l0.16,0.59l0.37,0.69l-0.14,0.29l0.2,0.08l0.25,0.34l0.15,0.18
	c0.06,0,0.37-0.14,0.37-0.14l0.18,0.23c0,0,0.18-0.07,0.27-0.08s0.59,0.14,0.67,0.17c0.09,0.03,0.29-0.19,0.39-0.25
	c0.14-0.09,0.62-0.85,0.72-1c0.1-0.15,0.13-1.3,0.23-1.4c0.1-0.1,0.61-0.2,0.7-0.26c0.09-0.06,0.1-0.29,0.1-0.39
	c0-0.1,0.06-0.23,0.12-0.31c0.06-0.09,0.08-0.16,0.17-0.25c0.09-0.09,0.15-0.12,0.24-0.19c0.09-0.07,0.3-0.29,0.35-0.29
	c0.05,0,0.16-0.08,0.29-0.05c0.06,0.02,0.06-0.01,0.09-0.17c0.03-0.14,0.09-0.32,0.09-0.39c0.02-0.17-0.03-0.55-0.03-0.55
	l-0.44-0.33l-0.16-0.34l-0.86-0.05L14.8,1.09l-0.79-0.32L13.3,0.76L11.88,1.2l-0.29,0.36l-0.33-0.05l-0.53,0.76l-0.58,0.87
	l-0.11,0.21l0.16,0.09l0.11,0.44l-0.23,0.48L10.42,4.58z"/>
</svg>
