<?xml version="1.0" encoding="utf-8"?>
<!-- Generator: Adobe Illustrator 16.0.4, SVG Export Plug-In . SVG Version: 6.00 Build 0)  -->
<!DOCTYPE svg PUBLIC "-//W3C//DTD SVG 1.1//EN" "http://www.w3.org/Graphics/SVG/1.1/DTD/svg11.dtd">
<svg version="1.1" id="Ebene_1" xmlns="http://www.w3.org/2000/svg" xmlns:xlink="http://www.w3.org/1999/xlink" x="0px" y="0px"
	 width="24.475px" height="48.05px" viewBox="0 0 24.475 48.05" enable-background="new 0 0 24.475 48.05" xml:space="preserve">
<path fill-rule="evenodd" clip-rule="evenodd" fill="#1A1A18" d="M23.838,22.184c-0.031-0.234-0.329-0.456-0.329-0.456
	s0.138-0.295,0.151-0.5s-0.105-0.377-0.217-0.468c-0.112-0.091-0.482-0.153-0.482-0.153l-0.35,0.021c0,0,0.102-0.071,0.144-0.133
	c0.024-0.034,0.051-0.175,0.015-0.296c-0.029-0.101-0.107-0.179-0.205-0.25c-0.215-0.157-0.656-0.074-0.656-0.074
	s-0.666,0.152-0.929,0.202c-0.263,0.048-0.483,0.127-0.688,0.197c-0.203,0.071-0.841,0.387-0.841,0.387s-0.267,0.185-0.308,0.199
	s-0.156-0.064-0.249-0.128s-0.509-0.12-0.649-0.003c-0.002,0.001-0.002,0.001-0.005,0.003c-0.392-0.38-1.133-1.092-1.231-1.214
	c-0.131-0.164-0.223-0.509-0.303-0.755c-0.08-0.244-0.197-0.562-0.197-0.562s0.047-0.054,0.116-0.082
	c0.069-0.027-0.026-0.272,0.007-0.164c0.035,0.107-0.265-0.729-0.265-0.729l-0.621-1.713c0,0-0.532-1.594-0.648-2.029
	c-0.114-0.436-0.483-1.49-0.565-1.713s-0.143-0.377-0.305-0.631c-0.161-0.253-0.464-0.705-0.648-0.956
	c-0.184-0.252-0.766-0.679-0.766-0.679L12.75,9.484c0.092-0.2,0.35-0.596,0.424-0.693c0.268,0.083,0.475,0.093,0.635,0.062
	c0.353-0.066,0.481-0.325,0.551-0.422c0.1-0.138,0.141-0.547,0.281-1c0.037-0.118,0.11-0.512,0.25-0.562
	c0.172-0.062,0.303-0.095,0.359-0.188c0.092-0.149-0.027-0.445-0.047-0.484C15.094,5.978,15.069,5.878,15,5.713
	c0.081-0.04,0.227-0.156,0.227-0.156s-0.14-0.011-0.213-0.02l0.124-0.506l0.107-0.24c0,0,0.156,0.062,0.438,0.094
	c0.209,0.023,0.497-0.084,0.469-0.156c-0.098-0.26-0.228-0.336-0.297-0.562c0.4,0.027,0.831-0.161,0.522-0.344
	c-0.435-0.34-0.498-0.467-0.632-0.641c-0.052-0.066-0.599-0.984-0.859-1.203c-0.575-0.482-1.075-0.689-1.493-0.812
	c-0.217-0.064-0.824-0.177-1.531-0.094c-0.406,0.047-0.805,0.153-1.134,0.28c-0.132-0.073-0.281,0.005-0.305-0.03
	C10.21,1.019,9.964,0.859,9.784,0.76C9.62,0.669,9.22,0.588,8.97,0.635C8.608,0.703,8.46,0.772,8.206,0.947
	C8.001,1.088,7.69,1.525,7.487,2.213C7.385,2.558,7.254,3.028,7.063,3.619C6.953,3.962,6.809,4.386,6.674,4.744
	c-0.236,0.625-0.345,0.984-0.33,1.375C6.36,6.505,6.348,6.583,6.412,6.885c0.082,0.385,0.34,0.344,0.34,0.344
	C6.737,7.338,7.025,7.481,7.096,7.525C7.221,7.603,7.455,7.51,7.409,7.306c0.138,0.276,0.234,0.359,0.234,0.359
	c0.109,0.047,0.438,0.219,0.391-0.109c0.107,0.448,0.375,0.312,0.438,0.047c-0.007-0.058,0.07-0.458,0.186-0.672
	c0.074-0.137,0.264-0.54,0.359-0.719C9.204,6.869,9.32,7.024,9.574,7.32c0.188,0.219,0.297,0.5,0.469,0.828
	c0.064,0.123,0.028,0.212-0.003,0.317l-0.012-0.005c0,0-0.462,0.118-0.562,0.141c-0.109,0.023-1,0.391-1.297,0.562
	C7.956,9.287,7.694,9.399,7.215,9.898c-0.128,0.133-0.449,0.482-0.75,0.938c-0.301,0.456-0.875,1.438-1.094,2.172
	c-0.082,0.273-0.438,1.344-0.609,2.016c-0.078,0.303-0.346,1.399-0.401,1.659c-0.054,0.259-0.273,1.22-0.342,1.69
	c-0.037,0.259-0.15,0.984-0.191,1.559C3.807,20.219,3.8,20.907,3.8,20.907s-0.165,0.142-0.233,0.274
	c-0.068,0.131-0.107,0.4-0.128,0.479c-0.049,0.168-0.174,0.227-0.277,0.425c-0.101,0.199-0.266,0.904-0.375,1.478
	c-0.079,0.412-0.132,0.993-0.141,1.378c-0.01,0.385,0.004,1.356,0.113,2.018s0.367,1.479,0.411,1.883
	c0.02,0.178,0.083,0.992,0.109,1.734c0.026,0.713,0.015,1.361,0.015,1.426c0,0.133-0.015,0.125,0.068,0.15
	c0.082,0.025,0.463,0.115,0.463,0.115s0.099,0.309,0.099,0.455s-0.086,0.562-0.165,0.617c-0.08,0.053-0.3,0.209-0.452,0.42
	c-0.15,0.211-0.263,0.604-0.269,0.768c-0.005,0.166,0.091,0.459,0.091,0.459s-0.194,0.498-0.248,0.783
	c-0.054,0.289-0.397,2.412-0.472,2.754c-0.074,0.344-0.323,1.381-0.432,1.73c-0.109,0.348-0.565,2.145-0.565,2.145
	s-0.186-0.002-0.241,0.094c-0.055,0.096-0.049,0.336-0.073,0.414s-0.316,0.668-0.389,0.812c-0.072,0.146-0.006,0.271-0.012,0.416
	c-0.005,0.143-0.023,0.545-0.029,0.631c-0.004,0.086-0.043,0.121-0.044,0.197c-0.001,0.08,0.447,0.322,0.449,0.385
	c0.001,0.062,0.001,0.15,0.057,0.223c0.055,0.074,0.179,0.045,0.253,0.037c0.074-0.008,0.1-0.129,0.1-0.129l0.22,0.012
	c0,0,0.033,0.141,0.079,0.193c0.046,0.049,0.149,0.031,0.221,0.01c0.071-0.02,0.14-0.182,0.14-0.182s0.231-0.137,0.32-0.158
	c0.09-0.018,0.95-0.15,0.95-0.15l1.293-0.184l0.383-0.072c0,0,0.101,0.113,0.166,0.127c0.064,0.012,0.159-0.025,0.242-0.072
	c0.082-0.047,0.077-0.174,0.077-0.174l0.186-0.047l0.218-0.074c0,0,0.03,0.102,0.083,0.107c0.054,0.008,0.209-0.059,0.261-0.113
	c0.052-0.057,0.113-0.182,0.113-0.182s0.172-0.1,0.281-0.168c0.108-0.068,0.241-0.279,0.247-0.559
	c0.005-0.281-0.11-0.545-0.356-0.617c-0.191-0.057-1.71-0.324-1.854-0.354c-0.144-0.029-0.357-0.08-0.408-0.121
	c-0.05-0.041-0.063-0.457-0.091-0.521c-0.028-0.062-0.181-0.115-0.181-0.115s0.11-0.621,0.221-0.967
	c0.11-0.348,0.138-0.555,0.315-1.002c0.178-0.449,1.396-3.096,1.534-3.447c0.137-0.354,0.087-0.648,0.087-0.648
	s0.215-0.303,0.255-0.5c0.039-0.195,0.059-0.367,0.082-0.646c0.021-0.279-0.046-0.559-0.046-0.559s0.539-0.721,0.717-1.088
	c0.178-0.367,0.367-0.861,0.367-0.861s0.606-0.018,0.688-0.018c0.082-0.002,0.108,0,0.123-0.096
	c0.013-0.098,0.219-0.996,0.219-0.996s0.644,1.016,0.876,1.383c0.192,0.303,0.651,1.037,0.814,1.305
	c0.035,0.055,0.11,0.109,0.171,0.062c0.053-0.043,0.855-0.447,1.082-0.572c0.037-0.02,0.058-0.031,0.058-0.031
	s0.736,0.809,0.832,1.09c0.096,0.279,0.15,0.588,0.15,0.588s-0.141,0.039-0.269,0.174s-0.312,0.402-0.353,0.643
	c-0.049,0.285-0.021,0.609,0.006,0.873c0.014,0.131-0.07,0.209-0.109,0.25c-0.123,0.133-0.314,0.617-0.452,0.971
	c-0.097,0.25-0.297,1.227-0.355,1.602c-0.123,0.795-0.082,1.648-0.137,1.912s-0.603,2.129-0.684,2.225
	c-0.083,0.098-0.292,0.277-0.344,0.387c-0.053,0.107-0.106,0.734-0.073,0.818c0.034,0.084-0.149,0.271-0.174,0.361
	s0.128,0.1,0.162,0.16c0.033,0.062-0.125,0.68-0.128,0.842c-0.003,0.162,0.193,0.418,0.266,0.525s0.284,0.254,0.284,0.254
	s-0.006,0.221,0.061,0.258c0.032,0.02,0.265,0.062,0.316,0.051c0.052-0.014,0.071-0.162,0.071-0.162l0.244,0.016
	c0,0,0.064,0.17,0.094,0.188s0.189,0.043,0.226,0.002c0.037-0.043,0.119-0.205,0.119-0.205l0.733-0.189l1.244-0.232l0.329-0.084
	c0,0,0.093,0.113,0.125,0.148s0.214-0.014,0.261-0.062c0.045-0.051,0.139-0.211,0.139-0.211l0.242-0.049
	c0,0,0.039,0.182,0.105,0.172c0.065-0.006,0.207-0.018,0.257-0.08s0.082-0.188,0.082-0.188s0.181-0.01,0.351-0.08
	s0.397-0.305,0.457-0.512c0.061-0.207-0.054-0.49-0.15-0.592c-0.096-0.1-0.177-0.221-0.492-0.336
	c-0.314-0.115-1.575-0.395-1.685-0.484c-0.108-0.088-0.266-0.314-0.323-0.354c-0.06-0.043-0.214-0.027-0.281-0.08
	c-0.066-0.051-0.066-0.229-0.039-0.301c0.027-0.074,0.717-2.141,0.905-2.674c0.189-0.531,0.778-1.928,0.888-2.25
	c0.11-0.324,0.263-0.787,0.26-0.912c-0.003-0.127-0.027-0.207-0.013-0.279c0.018-0.096,0.125-0.129,0.191-0.191
	c0.123-0.133,0.229-0.211,0.271-0.504c0.043-0.289,0.021-0.936,0.021-0.936s0.18-0.482,0.295-0.869
	c0.114-0.387,0.232-0.631,0.232-1.25c0-0.617-0.168-0.955-0.283-1.33c-0.113-0.375-0.5-1.244-0.5-1.244s0.285-0.188,0.35-0.227
	c0.064-0.035,0.047-0.064,0.01-0.154c-0.055-0.131-0.676-1.266-0.844-1.609c-0.169-0.346-0.932-1.682-1.263-2.322
	c-0.329-0.641-1.009-1.963-1.178-2.331s-0.562-1.132-0.644-1.308c-0.082-0.178-0.319-0.521-0.303-0.63
	c0.016-0.105,0.002-0.342-0.011-0.562c-0.014-0.221-0.096-0.485-0.124-0.545c-0.027-0.059,0.235-1.238,0.335-1.513
	c0.101-0.274,0.5-1.243,0.625-1.583s0.333-0.833,0.333-0.833s0.103,0.269,0.212,0.65c0.109,0.383,0.219,0.794,0.26,0.927
	c0.04,0.133,0.058,0.17,0.146,0.15c0.087-0.018,0.831-0.213,0.831-0.213s0.297,0.621,0.433,0.9c0.138,0.28,0.323,0.694,0.415,0.848
	c0.093,0.152,0.488,0.465,0.626,0.564c0.138,0.097,1.276,0.798,1.508,0.942c0.137,0.086,0.389,0.224,0.623,0.344
	c0.027,0.131,0.144,0.259,0.188,0.322c0.049,0.071,0.459,0.262,0.734,0.202c0.098-0.021,0.176,0.096,0.314,0.162
	c0.246,0.117,0.587,0.153,0.971,0.191c0.385,0.038,0.621,0.072,0.988,0.073s1.259,0.005,1.259,0.005l0.397-0.034
	c0,0,0.16-0.079,0.25-0.164s0.13-0.19,0.164-0.264c0.035-0.071-0.041-0.286-0.041-0.286s0.355-0.037,0.504-0.044
	s0.311,0.014,0.42-0.033c0.111-0.047,0.232-0.178,0.287-0.317C23.838,22.419,23.868,22.418,23.838,22.184z"/>
<path id="goalie-sock-l" fill-rule="evenodd" clip-rule="evenodd" fill="#FFFFFF" d="M5.992,35.456
	c-0.057,0.102-0.084,0.184-0.207,0.201c-0.124,0.018-0.486-0.242-0.538-0.207s-0.061,0.029-0.062,0.133
	c-0.002,0.107-0.011,0.092,0.062,0.203c0.073,0.109,0.337,0.236,0.431,0.336c0.094,0.098,0.121,0.242,0.094,0.377
	c-0.027,0.135-1.253,2.887-1.382,3.25c-0.129,0.361-0.465,1.367-0.52,1.631c-0.055,0.266-0.105,0.547-0.178,0.588
	c-0.074,0.041-0.412,0.014-0.48,0.102c-0.068,0.09-0.168,0.398-0.262,0.414c-0.094,0.014-0.454,0.025-0.541-0.018
	c-0.086-0.041-0.165-0.41-0.235-0.541c-0.071-0.133-0.136-0.303-0.124-0.4c0.011-0.1,0.094-0.336,0.217-0.805
	c0.124-0.471,0.318-1.24,0.397-1.604c0.079-0.365,0.342-1.662,0.397-2.043c0.055-0.383,0.147-0.938,0.19-1.094
	c0.043-0.156,0.067-0.404,0.157-0.502c0.091-0.096,0.123-0.154,0.2-0.17c0.151-0.029,0.224-0.105,0.221-0.186
	c-0.002-0.078,0.006-0.148-0.032-0.23c-0.038-0.082-0.25-0.074-0.302-0.227c-0.051-0.15,0.034-0.457,0.203-0.672
	c0.17-0.213,0.233-0.264,0.345-0.299c0.113-0.033,0.769,0.057,1.029,0.121c0.261,0.066,0.514,0.18,0.654,0.277
	c0.141,0.098,0.251,0.271,0.305,0.428c0.055,0.156,0.1,0.297,0.091,0.461C6.114,35.148,5.992,35.456,5.992,35.456L5.992,35.456
	C5.992,35.456,6.049,35.353,5.992,35.456z"/>
<path id="goalie-sock-r" fill-rule="evenodd" clip-rule="evenodd" fill="#FFFFFF" d="M10.936,44.361
	c-0.073-0.039-0.19-0.584-0.228-0.672c-0.009-0.021-0.037-0.057-0.01-0.133c0.109-0.309,0.259-0.787,0.315-0.998
	c0.075-0.283,0.314-1.064,0.342-1.262c0.028-0.195-0.013-0.475,0-0.93c0.014-0.457,0.072-0.752,0.139-1.156
	c0.066-0.402,0.274-1.117,0.395-1.389s0.24-0.555,0.359-0.666c0.12-0.111,0.421-0.098,0.53-0.098c0.109,0,0.123-0.059,0.137-0.117
	c0.015-0.059-0.082-0.102-0.219-0.205c-0.125-0.096-0.271-0.154-0.315-0.207s-0.069-0.35-0.035-0.529
	c0.035-0.176,0.186-0.338,0.281-0.426c0.096-0.088,0.177-0.16,0.315-0.152c0.137,0.006,0.641,0.154,0.848,0.24
	c0.281,0.115,0.364,0.131,0.961,0.344c0.08,0.068,0.072,0.127,0.072,0.127s0.057,0.25,0.025,0.42
	c-0.032,0.168-0.012,0.389-0.237,0.535c-0.128,0.084-0.362,0.059-0.425,0.178c-0.061,0.115,0.01,0.182,0.055,0.293
	c0.047,0.111,0.164,0.125,0.179,0.221c0.014,0.094-0.03,0.387-0.18,0.811c-0.149,0.426-0.905,2.35-0.905,2.35
	s-0.791,2.338-0.831,2.426c-0.041,0.09-0.334,0.459-0.379,0.598s-0.036,0.357-0.082,0.43c-0.046,0.076-0.575,0.129-0.646,0.131
	C11.328,44.527,11.009,44.402,10.936,44.361z"/>
<path id="skin-leg-r" fill-rule="evenodd" clip-rule="evenodd" fill="#F9CAA9" d="M13.024,34.972c0,0-0.156-0.604-0.245-0.766
	c-0.137-0.25-0.725-1.059-0.725-1.059l0.995-0.58c0,0,1.138-0.773,1.153-0.787c0.017-0.018-0.17-0.539-0.146-0.52
	s0.291,0.387,0.324,0.387c0.035,0,0.289-0.176,0.289-0.176s0.355,0.734,0.479,1.104c0.123,0.367,0.223,0.68,0.234,0.832
	s0.025,0.562-0.016,0.814c-0.041,0.25-0.15,0.66-0.246,0.881s-0.232,0.471-0.232,0.471s-0.696-0.23-0.932-0.309
	C13.721,35.185,13.024,34.972,13.024,34.972z"/>
<path fill-rule="evenodd" clip-rule="evenodd" fill="#1A1A18" d="M13.313,34.501c-0.038-0.055-0.113-0.24-0.111-0.348
	c0.002-0.109-0.13-0.279-0.146-0.307c-0.016-0.023-0.019-0.094,0.044-0.096s0.416,0.244,0.485,0.326
	c0.07,0.084,0.106,0.496,0.07,0.512C13.618,34.601,13.35,34.552,13.313,34.501z"/>
<path id="goalie-shorts" fill-rule="evenodd" clip-rule="evenodd" fill="#1A1A18" d="M3.415,27.937c0,0,0.129,0.521,0.18,0.889
	c0.055,0.396,0.125,1.475,0.118,1.869c-0.007,0.309,0.018,0.926,0.019,0.998s-0.019,0.07,0.073,0.1
	c0.091,0.031,0.277,0.082,0.519,0.094c0.243,0.012,0.819,0.09,1.215,0.088c0.396-0.002,1.255-0.021,1.477-0.018
	c0.185,0.004,0.988-0.033,1.042-0.023s0.07-0.021,0.089-0.109c0.02-0.088,0.197-0.984,0.17-1.072s-1.299-2.631-1.403-2.742
	c-0.103-0.109-0.917-0.527-1.01-0.512c-0.092,0.02-0.204,0.105-0.291,0.105c-0.088,0.002-0.23-0.043-0.276-0.078
	c-0.045-0.037,0.076-0.307,0.125-0.342c0.05-0.033,0.28-0.113,0.363-0.117c0.084-0.004,0.319,0.062,0.365,0.014
	c0.047-0.047-0.276-0.424-0.34-0.486c-0.064-0.061-0.07-0.32-0.081-0.359s0.092-0.268,0.157-0.264s0.145,0.16,0.166,0.199
	c0.022,0.039,0.081,0.178,0.16,0.299c0.081,0.123,0.323,0.264,0.421,0.385s0.364,0.406,0.423,0.426
	c0.058,0.018,0.532-0.104,0.733-0.16c0.201-0.057,0.31-0.15,0.502-0.252c0.192-0.1,0.358-0.211,0.521-0.252
	c0.164-0.037,0.412-0.139,0.445-0.053c0.034,0.088,0.067,0.201-0.073,0.371c-0.14,0.172-0.266,0.213-0.427,0.32
	c-0.161,0.105-0.355,0.223-0.547,0.264c-0.192,0.041-0.362,0.045-0.571,0.148c-0.209,0.102-0.4,0.176-0.38,0.248
	c0.021,0.074,1.133,2.293,1.398,2.756c0.235,0.41,1.665,2.627,1.729,2.729c0.062,0.096,0.082,0.07,0.233,0
	c0.219-0.104,0.395-0.227,0.772-0.422c0.376-0.195,0.911-0.504,1.308-0.74c0.317-0.188,0.8-0.545,0.979-0.682
	c0.115-0.068,0.051-0.135,0.051-0.135s-0.244-0.836-0.236-0.889s0.173-0.189,0.232-0.16c0.096,0.043,0.396,0.545,0.514,0.713
	c0.021,0.031,0.018,0.062,0.107,0.006c0.07-0.045,0.284-0.162,0.405-0.234c0.151-0.088,0.11-0.074,0.057-0.195
	c-0.048-0.105-0.47-0.855-0.708-1.295c-0.238-0.436-0.409-0.717-0.652-1.203c-0.242-0.482-0.504-1.002-0.723-1.396
	c-0.218-0.395-1.752-3.339-1.827-3.513c-0.075-0.174-0.26-0.461-0.249-0.531c0.01-0.069,0.038-0.29,0.038-0.437
	c0-0.147-0.018-0.403-0.123-0.412c-0.105-0.009-0.336-0.011-0.558-0.058c-0.222-0.045-1.199-0.187-1.632-0.281
	c-0.432-0.096-1.407-0.324-1.607-0.332c-0.2-0.006-0.684,0-0.993,0.01c-0.311,0.008-1.526,0.01-1.633,0.057
	c-0.106,0.045-0.105,0.047-0.175,0.148c-0.068,0.102-0.105,0.207-0.018,0.266c0.087,0.059,1.875-0.03,2.097-0.016
	c0.222,0.015,0.506,0.072,0.617,0.131c0.111,0.061,0.185,0.159,0.18,0.207c-0.006,0.048,0.038,0.087-0.011,0.127
	c-0.049,0.038-0.227,0.029-0.32,0.032c-0.093,0.003-0.266-0.021-0.44-0.031s-2.001-0.057-2.073-0.048s-0.242-0.052-0.318,0.009
	c-0.077,0.06-0.172,0.213-0.192,0.293c-0.021,0.082-0.13,0.303-0.208,0.681c-0.08,0.379-0.216,1.173-0.244,1.775
	c-0.027,0.603-0.005,1.314,0.073,1.861C3.225,27.253,3.415,27.937,3.415,27.937z"/>
<path id="skin-leg-l" fill-rule="evenodd" clip-rule="evenodd" fill="#F9CAA9" d="M7.043,32.355c0,0-0.028,0.277-0.171,0.564
	s-0.581,0.83-0.581,0.83s-0.3-0.152-0.452-0.219c-0.152-0.068-0.575-0.207-0.78-0.236c-0.206-0.029-0.802-0.117-0.802-0.117
	s0.131-0.277,0.131-0.455c0-0.088-0.097-0.432-0.097-0.432s0.392,0.033,0.771,0.047c0.38,0.018,0.635,0.029,0.952,0.021
	C6.333,32.355,7.043,32.355,7.043,32.355z"/>
<path id="skin-arm-l" fill="#F9CAA9" d="M15.038,20.836c0.15,0.169,0.566,0.418,0.789,0.566c0.225,0.146,1.135,0.755,1.418,0.913
	c0.084,0.047,0.117,0.068,0.216,0.119c0.231-0.471,0.451-0.882,0.616-1.411c-0.537-0.519-1.46-1.406-1.46-1.406l-0.183-0.5
	l-0.287-0.808l-0.562,0.253l-1.438,0.446c0,0,0.356,0.801,0.425,0.957C14.641,20.122,14.887,20.668,15.038,20.836z"/>
<path fill="#FFFFFF" d="M17.924,22.302c-0.067,0.162-0.198,0.352-0.201,0.426s0.022,0.058,0.084,0.14
	c0.063,0.082,0.258,0.105,0.338,0.123c0.082,0.018,0.215-0.222,0.277-0.271c0.064-0.051,0.2-0.111,0.18-0.015
	c-0.02,0.097-0.102,0.266-0.047,0.328s0.524,0.193,0.824,0.231c0.298,0.036,0.994,0.088,0.994,0.088l0.843,0.011h0.503l0.357-0.046
	l0.102-0.11l-0.021-0.165l-0.1-0.108l-0.873-0.089l0.021-0.198l2.002-0.055c0,0,0.243-0.087,0.262-0.261
	c0.026-0.265-0.159-0.291-0.159-0.291l-2.054-0.033l0.021-0.242c0,0,1.771-0.251,1.879-0.275c0.106-0.025,0.134-0.128,0.134-0.319
	s-0.257-0.232-0.257-0.232l-1.838,0.188l-0.052-0.188l1.19-0.396c0,0,0.156-0.148,0.084-0.273c-0.072-0.127-0.268-0.113-0.268-0.113
	s-1.551,0.294-1.746,0.375c-0.193,0.082-0.613,0.271-0.697,0.331c-0.085,0.06-0.349,0.208-0.429,0.296
	c-0.081,0.088-0.08,0.26-0.155,0.307c-0.076,0.045-0.104-0.006-0.131-0.039s0.012-0.16-0.016-0.236
	c-0.025-0.076-0.12-0.135-0.223-0.172c-0.104-0.037-0.291-0.098-0.348-0.009s-0.126,0.397-0.222,0.648
	C18.089,21.905,17.993,22.139,17.924,22.302z"/>
<path fill-rule="evenodd" clip-rule="evenodd" fill="#1A1A18" d="M20.581,21.037c0,0-0.103-0.115-0.209-0.014
	c-0.105,0.103-0.025,0.264,0.017,0.301s0.116,0.08,0.208,0.016C20.688,21.276,20.581,21.037,20.581,21.037z"/>
<path fill-rule="evenodd" clip-rule="evenodd" fill="#1A1A18" d="M20.846,22.047c0,0,0.045-0.068-0.008-0.149
	s-0.146-0.141-0.146-0.141s-0.037,0.218,0.016,0.301C20.758,22.139,20.846,22.047,20.846,22.047L20.846,22.047z"/>
<path id="goalie-shirt" fill="#962467" d="M4.881,16.11c-0.082,0.396-0.301,1.409-0.383,1.821c-0.082,0.411-0.191,1.146-0.219,1.5
	c-0.027,0.353-0.068,0.735-0.068,0.897c0,0.08,0.005,0.266,0.013,0.347c0.014,0.138,0.028,0.123,0.124,0.138
	c0.095,0.015,1.073,0.007,1.073,0.007s0.317-0.003,0.566-0.034c0.25-0.031,0.358,0.017,0.42-0.25
	c0.062-0.267,0.294-1.979,0.322-2.134c0.055-0.309,0.133-0.467,0.231-0.719c0.098-0.252,0.235-0.663,0.317-0.928
	s0.133-0.505,0.183-0.547s0.082-0.069,0.127,0.012c0.045,0.079,0.1,0.167,0.107,0.285s0.002,0.725-0.084,1.098
	c-0.086,0.372-0.493,1.646-0.542,2.024c-0.051,0.377,0.03,0.818,0.051,0.973c0.022,0.154,0.018,0.146,0.095,0.188
	c0.077,0.04,0.276,0.104,0.498,0.152c0.222,0.05,0.756,0.171,1.181,0.257c0.424,0.086,1.286,0.166,1.464,0.205
	c0.178,0.035,0.206,0.025,0.26-0.119c0.082-0.22,0.208-1.004,0.385-1.504s1.062-2.578,1.104-2.771
	c0.042-0.193-0.096-0.803-0.074-0.889c0.022-0.085,0.052-0.166,0.12-0.11c0.066,0.056,0.404,1.073,0.536,1.52
	c0.109,0.366,0.256,0.858,0.352,1.152c0.014,0.046,0.027,0.147,0.149,0.118c0.124-0.032,0.782-0.206,1.158-0.338
	c0.376-0.133,0.882-0.266,1.155-0.383c0.197-0.085,0.417-0.148,0.506-0.206c0.09-0.059,0.086-0.066,0.028-0.25
	c-0.097-0.309-0.396-1.173-0.56-1.703c-0.166-0.531-0.714-2.192-0.893-2.697c-0.151-0.431-0.396-1.274-0.577-1.652
	c-0.155-0.324-0.49-0.732-0.647-0.964c-0.156-0.23-0.39-0.451-0.472-0.569c-0.083-0.118-0.232-0.229-0.232-0.229l-0.848-0.186
	l-1.124-0.374L9.949,8.843c0,0-0.282,0.016-0.609,0.149C8.918,9.164,8.645,9.288,8.262,9.523C7.878,9.759,7.54,10.052,7.147,10.55
	c-0.153,0.194-0.446,0.619-0.583,0.875c-0.137,0.258-0.405,0.713-0.542,1c-0.137,0.289-0.33,0.835-0.562,1.584
	C5.34,14.394,4.963,15.718,4.881,16.11z"/>
<path fill-rule="evenodd" clip-rule="evenodd" fill="#1A1A18" d="M10.87,16.318c0.02,0.099,0.039,0.153,0.119,0.148
	s0.472-0.9,0.584-0.915c0.111-0.017,0.354,0.058,0.383,0.035s-0.229-0.419-0.333-0.654c-0.104-0.235-0.419-0.994-0.446-1.034
	c-0.027-0.039-0.253-0.108-0.263-0.015c-0.01,0.094,0.214,0.637,0.211,0.799C11.123,14.844,10.87,16.318,10.87,16.318
	S10.851,16.219,10.87,16.318z"/>
<path id="skin-face" fill-rule="evenodd" clip-rule="evenodd" fill="#F9CAA9" d="M10.402,8.633
	c-0.016,0.031,0.438,0.281,1.219,0.578c0.212,0.081,0.562,0.094,0.812,0.172c0.125-0.27,0.594-0.984,0.594-0.984
	s0.268,0.095,0.404,0.124c0.166,0.061,0.332,0.059,0.455-0.015c0.151-0.091,0.175-0.079,0.312-0.458
	c0.08-0.217,0.16-0.604,0.198-0.745c0.038-0.143,0.147-0.46,0.218-0.581c0.031-0.055,0.26-0.031,0.318-0.113
	c0.072-0.102-0.029-0.303-0.029-0.303s-0.147-0.297-0.216-0.469c-0.116-0.012-0.263-0.031-0.308-0.051
	c-0.078-0.034-0.312-0.21-0.299-0.223c0.244,0.119,0.23,0.075,0.348,0.078c0.031,0.004,0.193-0.058,0.247-0.059
	c0.029-0.127,0.075-0.284,0.075-0.284V5.297c-0.066-0.016-0.137-0.02-0.227-0.02c-0.091,0.015-0.273,0.061-0.32,0.063
	c-0.015-0.021,0.271-0.14,0.308-0.167c0.034-0.025,0.231-0.04,0.278-0.043l0.076-0.203l0.091-0.137c0,0-0.392,0.076-0.53,0.061
	c-0.176-0.018-0.363-0.061-0.363-0.061s0,0.273-0.046,0.395c-0.075,0.288-0.136,0.455-0.243,0.772
	c-0.08,0.242-0.189,0.572-0.318,0.743c-0.066,0.089-0.006,0.014-0.211,0.106c-0.09,0.04-0.102-0.199-0.137-0.334
	c-0.059-0.223-0.132-0.424-0.233-0.55c-0.094-0.116-0.327-0.208-0.466-0.183c-0.098,0.018-0.33,0.014-0.29,0.461
	c0.026,0.287,0.27,0.574,0.391,0.757c0.086,0.129,0.014,0.31-0.489,0.562c-0.455,0.227-0.461,0.228-0.871,0.44
	c-0.337,0.175-0.609,0.453-0.609,0.453S10.468,8.501,10.402,8.633z M14.149,7.421L14.2,7.526c-0.037,0.068-0.1,0.133-0.182,0.08
	C13.977,7.463,14.094,7.462,14.149,7.421z M12.54,5.995l0.161,0.641C12.701,6.635,12.283,6.321,12.54,5.995z"/>
<path fill="#FFFFFF" d="M9.574,3.181c-0.062,0.162,0.172-0.016,0.469-0.25c0.284-0.225,0.391-0.475,0.48-0.797
	c0.029-0.107,0.042-0.196,0.044-0.267c0.002-0.077,0.007-0.165-0.028-0.161c-0.074,0.006-0.094-0.033-0.125,0.084
	c-0.072,0.27-0.184,0.496-0.266,0.641C9.953,2.776,9.623,3.055,9.574,3.181z"/>
<path id="hair" fill-rule="evenodd" clip-rule="evenodd" fill="#F7DD7F" d="M9.257,5.784c0.153,0.613,0.291,0.98,0.765,1.578
	c0.095,0.119,0.357,0.688,0.414,0.688c0.066,0,0.414-0.383,0.857-0.552c0.303-0.114,0.864-0.396,0.849-0.505
	c-0.011-0.079-0.423-0.441-0.28-1.163c0.078-0.307,0.243-0.415,0.428-0.437c0.036-0.002,0.072-0.004,0.106-0.002
	c0.017,0,0.034,0,0.051,0.002c0.064,0.006,0.125,0.018,0.181,0.033c0.007,0.002,0.014,0.004,0.021,0.006
	c0.058,0.018,0.111,0.038,0.156,0.06c0.306,0.154,0.46,0.552,0.521,0.857c0.029,0.146,0.135-0.279,0.322-0.826
	c0.072-0.21,0.168-0.577,0.184-0.751c0.017-0.206-0.037-0.553,0.081-0.459c0.071,0.073,0.555,0.261,0.949,0.168
	c-0.335-0.259-0.199-0.178-0.153-0.214c0.094-0.073,0.447,0.399,1.026,0.353c-0.171-0.199-0.438-0.885-0.307-0.812
	c0.169,0.093,0.276,0.123,0.536,0.093c0.062,0.015-0.266-0.177-0.429-0.46c-0.125-0.217-0.289-0.489-0.483-0.755
	c-0.002-0.003-0.006-0.009-0.007-0.011c-0.245-0.443-0.749-0.792-1.041-0.949c-0.294-0.156-0.666-0.346-1.438-0.367
	c-0.689-0.02-1.241,0.161-1.641,0.305c-0.091,0.032-0.015,0.399-0.152,0.798c-0.05,0.144-0.157,0.42-0.414,0.612
	c-0.306,0.23-0.505,0.367-0.781,0.475C9.546,3.561,9.548,3.926,9.502,4.453C9.471,4.804,9.379,5.325,9.257,5.784z M10.482,3.748
	c0.236-0.185,0.031,0.137-0.107,0.551c-0.146,0.445-0.204,0.973-0.201,0.84C10.191,4.33,10.036,4.095,10.482,3.748z"/>
<path id="hair-p" fill="#F7DD7F" d="M6.833,5.047c0.179-0.498,0.466-1.131,0.763-2.256c0.267-1.012,0.498-1.404,0.781-1.625
	c0.169-0.132,0.321-0.232,0.609-0.281c0.734-0.125,1.123,0.469,1.232,0.641c0,0-0.078,0.25-0.154,0.391
	C9.796,2.412,9.75,2.463,9.485,2.791C9.414,2.879,9.362,2.943,9.318,3.011C9.202,3.113,8.979,3.319,8.876,3.478l0.355-0.027
	C9.224,3.672,9.209,4.009,9.121,4.644C9.027,5.441,8.97,5.65,8.751,6.135C8.532,6.666,8.345,6.775,8.22,7.306
	c0.043-0.183-0.202-0.438-0.249-0.672c0,0-0.248,0.729-0.172,0.797C7.487,7.15,7.485,6.848,7.456,6.556c0,0-0.422,0.375-0.297,0.703
	C7.133,7.234,6.975,7.152,6.927,6.936C6.886,6.754,6.954,6.444,6.97,6.322c0,0-0.3,0.275-0.234,0.547
	C6.562,6.155,6.61,5.666,6.833,5.047z"/>
</svg>
