<?xml version="1.0" encoding="utf-8"?>
<!-- Generator: Adobe Illustrator 16.0.4, SVG Export Plug-In . SVG Version: 6.00 Build 0)  -->
<!DOCTYPE svg PUBLIC "-//W3C//DTD SVG 1.1//EN" "http://www.w3.org/Graphics/SVG/1.1/DTD/svg11.dtd">
<svg version="1.1" id="Ebene_1" xmlns="http://www.w3.org/2000/svg" xmlns:xlink="http://www.w3.org/1999/xlink" x="0px" y="0px"
	 width="24.475px" height="48.05px" viewBox="0 0 24.475 48.05" enable-background="new 0 0 24.475 48.05" xml:space="preserve">
<path fill-rule="evenodd" clip-rule="evenodd" fill="#1A1A18" d="M0.637,22.184c0.031-0.234,0.329-0.456,0.329-0.456
	s-0.138-0.295-0.151-0.5s0.105-0.377,0.217-0.468c0.112-0.091,0.482-0.153,0.482-0.153l0.35,0.021c0,0-0.102-0.071-0.144-0.133
	c-0.024-0.034-0.051-0.175-0.015-0.296c0.029-0.101,0.107-0.179,0.205-0.25c0.215-0.157,0.656-0.074,0.656-0.074
	s0.666,0.152,0.929,0.202c0.263,0.048,0.483,0.127,0.688,0.197c0.203,0.071,0.841,0.387,0.841,0.387s0.267,0.185,0.308,0.199
	s0.156-0.064,0.249-0.128s0.509-0.12,0.649-0.003c0.002,0.001,0.002,0.001,0.005,0.003c0.392-0.38,1.133-1.092,1.231-1.214
	c0.131-0.164,0.223-0.509,0.303-0.755c0.08-0.244,0.197-0.562,0.197-0.562s-0.047-0.054-0.116-0.082
	c-0.069-0.027,0.026-0.272-0.007-0.164c-0.035,0.107,0.265-0.729,0.265-0.729l0.621-1.713c0,0,0.532-1.594,0.648-2.029
	c0.114-0.436,0.483-1.49,0.565-1.713s0.143-0.377,0.305-0.631c0.161-0.253,0.464-0.705,0.648-0.956
	c0.184-0.252,0.766-0.679,0.766-0.679l0.063-0.023c-0.092-0.2-0.35-0.596-0.424-0.693c-0.268,0.083-0.475,0.093-0.635,0.062
	c-0.353-0.066-0.481-0.325-0.551-0.422c-0.1-0.138-0.141-0.547-0.281-1c-0.037-0.118-0.11-0.512-0.25-0.562
	C9.413,6.806,9.282,6.774,9.225,6.681C9.133,6.532,9.252,6.236,9.272,6.197c0.109-0.219,0.135-0.319,0.203-0.484
	c-0.081-0.04-0.227-0.156-0.227-0.156s0.14-0.011,0.213-0.02L9.337,5.031L9.23,4.791c0,0-0.156,0.062-0.438,0.094
	C8.583,4.908,8.295,4.801,8.324,4.728c0.098-0.26,0.228-0.336,0.297-0.562C8.22,4.193,7.79,4.005,8.098,3.822
	c0.435-0.34,0.498-0.467,0.632-0.641c0.052-0.066,0.599-0.984,0.859-1.203c0.575-0.482,1.075-0.689,1.493-0.812
	c0.217-0.064,0.824-0.177,1.531-0.094c0.406,0.047,0.805,0.153,1.134,0.28c0.132-0.073,0.281,0.005,0.305-0.03
	c0.213-0.303,0.458-0.463,0.639-0.562c0.164-0.091,0.564-0.172,0.814-0.125c0.361,0.068,0.51,0.138,0.764,0.312
	c0.205,0.141,0.516,0.578,0.719,1.266c0.102,0.346,0.232,0.815,0.424,1.406c0.11,0.343,0.254,0.768,0.389,1.125
	c0.236,0.625,0.346,0.984,0.33,1.375c-0.016,0.386-0.004,0.464-0.068,0.766c-0.081,0.385-0.34,0.344-0.34,0.344
	c0.016,0.109-0.272,0.253-0.344,0.297c-0.125,0.078-0.358-0.015-0.312-0.219c-0.139,0.276-0.234,0.359-0.234,0.359
	c-0.109,0.047-0.438,0.219-0.391-0.109c-0.107,0.448-0.375,0.312-0.438,0.047c0.008-0.058-0.07-0.458-0.186-0.672
	c-0.074-0.137-0.264-0.54-0.359-0.719c-0.188,0.656-0.305,0.812-0.559,1.107c-0.188,0.219-0.297,0.5-0.469,0.828
	c-0.064,0.123-0.027,0.212,0.004,0.317l0.012-0.005c0,0,0.463,0.118,0.562,0.141c0.109,0.023,1,0.391,1.297,0.562
	c0.213,0.123,0.475,0.235,0.953,0.734c0.129,0.133,0.449,0.482,0.75,0.938c0.302,0.456,0.875,1.438,1.094,2.172
	c0.082,0.273,0.438,1.344,0.609,2.016c0.078,0.303,0.346,1.399,0.401,1.659c0.054,0.259,0.273,1.22,0.343,1.69
	c0.037,0.259,0.149,0.984,0.191,1.559c0.02,0.287,0.026,0.976,0.026,0.976s0.165,0.142,0.233,0.274
	c0.068,0.131,0.106,0.4,0.128,0.479c0.05,0.168,0.175,0.227,0.276,0.425c0.102,0.199,0.267,0.904,0.375,1.478
	c0.08,0.412,0.133,0.993,0.141,1.378c0.011,0.385-0.004,1.356-0.113,2.018s-0.367,1.479-0.41,1.883
	c-0.02,0.178-0.082,0.992-0.109,1.734c-0.025,0.713-0.014,1.361-0.014,1.426c0,0.133,0.014,0.125-0.068,0.15
	s-0.463,0.115-0.463,0.115s-0.1,0.309-0.1,0.455s0.086,0.562,0.165,0.617c0.079,0.053,0.3,0.209,0.452,0.42
	c0.15,0.211,0.263,0.604,0.268,0.768c0.006,0.166-0.09,0.459-0.09,0.459s0.193,0.498,0.248,0.783
	c0.053,0.289,0.396,2.412,0.471,2.754c0.074,0.344,0.324,1.381,0.432,1.73c0.109,0.348,0.566,2.145,0.566,2.145
	s0.186-0.002,0.24,0.094s0.049,0.336,0.072,0.414s0.316,0.668,0.389,0.812c0.072,0.146,0.006,0.271,0.013,0.416
	c0.005,0.143,0.023,0.545,0.028,0.631c0.004,0.086,0.043,0.121,0.045,0.197c0.001,0.08-0.447,0.322-0.449,0.385
	s-0.002,0.15-0.057,0.223c-0.055,0.074-0.179,0.045-0.254,0.037c-0.074-0.008-0.1-0.129-0.1-0.129l-0.22,0.012
	c0,0-0.032,0.141-0.079,0.193c-0.045,0.049-0.148,0.031-0.221,0.01c-0.071-0.02-0.14-0.182-0.14-0.182s-0.231-0.137-0.32-0.158
	c-0.091-0.018-0.95-0.15-0.95-0.15l-1.293-0.184l-0.383-0.072c0,0-0.101,0.113-0.165,0.127c-0.063,0.012-0.159-0.025-0.241-0.072
	s-0.078-0.174-0.078-0.174l-0.186-0.047l-0.217-0.074c0,0-0.031,0.102-0.083,0.107c-0.054,0.008-0.21-0.059-0.261-0.113
	c-0.053-0.057-0.113-0.182-0.113-0.182s-0.172-0.1-0.281-0.168c-0.108-0.068-0.241-0.279-0.246-0.559
	c-0.006-0.281,0.109-0.545,0.355-0.617c0.191-0.057,1.711-0.324,1.855-0.354c0.143-0.029,0.356-0.08,0.407-0.121
	c0.05-0.041,0.063-0.457,0.091-0.521c0.028-0.062,0.182-0.115,0.182-0.115s-0.111-0.621-0.221-0.967
	c-0.111-0.348-0.139-0.555-0.316-1.002c-0.178-0.449-1.396-3.096-1.533-3.447c-0.137-0.354-0.088-0.648-0.088-0.648
	s-0.215-0.303-0.254-0.5c-0.039-0.195-0.06-0.367-0.082-0.646c-0.021-0.279,0.047-0.559,0.047-0.559s-0.539-0.721-0.717-1.088
	c-0.179-0.367-0.367-0.861-0.367-0.861s-0.605-0.018-0.688-0.018c-0.082-0.002-0.109,0-0.123-0.096
	c-0.014-0.098-0.219-0.996-0.219-0.996s-0.645,1.016-0.877,1.383c-0.191,0.303-0.65,1.037-0.813,1.305
	c-0.034,0.055-0.11,0.109-0.171,0.062c-0.053-0.043-0.855-0.447-1.082-0.572c-0.037-0.02-0.058-0.031-0.058-0.031
	s-0.736,0.809-0.832,1.09c-0.096,0.279-0.15,0.588-0.15,0.588s0.141,0.039,0.269,0.174s0.312,0.402,0.353,0.643
	c0.049,0.285,0.021,0.609-0.006,0.873c-0.014,0.131,0.07,0.209,0.109,0.25c0.123,0.133,0.314,0.617,0.452,0.971
	c0.097,0.25,0.297,1.227,0.355,1.602c0.123,0.795,0.082,1.648,0.137,1.912s0.603,2.129,0.685,2.225
	c0.082,0.098,0.291,0.277,0.344,0.387c0.053,0.107,0.106,0.734,0.072,0.818c-0.033,0.084,0.149,0.271,0.175,0.361
	s-0.128,0.1-0.161,0.16c-0.033,0.062,0.125,0.68,0.128,0.842s-0.193,0.418-0.267,0.525c-0.072,0.107-0.283,0.254-0.283,0.254
	s0.006,0.221-0.061,0.258c-0.033,0.02-0.265,0.062-0.317,0.051c-0.052-0.014-0.071-0.162-0.071-0.162l-0.244,0.016
	c0,0-0.064,0.17-0.094,0.188s-0.189,0.043-0.226,0.002c-0.037-0.043-0.119-0.205-0.119-0.205l-0.733-0.189l-1.244-0.232
	l-0.329-0.084c0,0-0.093,0.113-0.125,0.148s-0.214-0.014-0.261-0.062c-0.045-0.051-0.139-0.211-0.139-0.211l-0.242-0.049
	c0,0-0.039,0.182-0.105,0.172c-0.065-0.006-0.207-0.018-0.257-0.08s-0.082-0.188-0.082-0.188s-0.181-0.01-0.351-0.08
	s-0.397-0.305-0.457-0.512c-0.061-0.207,0.054-0.49,0.15-0.592c0.096-0.1,0.177-0.221,0.492-0.336
	c0.314-0.115,1.575-0.395,1.685-0.484c0.108-0.088,0.266-0.314,0.323-0.354c0.06-0.043,0.214-0.027,0.281-0.08
	c0.066-0.051,0.066-0.229,0.039-0.301c-0.027-0.074-0.717-2.141-0.905-2.674c-0.189-0.531-0.778-1.928-0.888-2.25
	c-0.11-0.324-0.263-0.787-0.26-0.912c0.003-0.127,0.027-0.207,0.013-0.279c-0.018-0.096-0.125-0.129-0.191-0.191
	c-0.123-0.133-0.229-0.211-0.271-0.504c-0.043-0.289-0.021-0.936-0.021-0.936s-0.18-0.482-0.295-0.869
	c-0.114-0.387-0.232-0.631-0.232-1.25c0-0.617,0.168-0.955,0.283-1.33c0.113-0.375,0.5-1.244,0.5-1.244s-0.285-0.188-0.35-0.227
	c-0.064-0.035-0.047-0.064-0.01-0.154c0.055-0.131,0.676-1.266,0.844-1.609c0.169-0.346,0.932-1.682,1.263-2.322
	c0.329-0.641,1.009-1.963,1.178-2.331s0.562-1.132,0.644-1.308c0.082-0.178,0.319-0.521,0.303-0.63
	c-0.016-0.105-0.002-0.342,0.011-0.562c0.014-0.221,0.096-0.485,0.124-0.545c0.027-0.059-0.235-1.238-0.335-1.513
	c-0.101-0.274-0.5-1.243-0.625-1.583s-0.333-0.833-0.333-0.833s-0.103,0.269-0.212,0.65c-0.109,0.383-0.219,0.794-0.26,0.927
	c-0.04,0.133-0.058,0.17-0.146,0.15c-0.087-0.018-0.831-0.213-0.831-0.213s-0.297,0.621-0.433,0.9
	c-0.138,0.28-0.323,0.694-0.415,0.848c-0.093,0.152-0.488,0.465-0.626,0.564c-0.138,0.097-1.276,0.798-1.508,0.942
	c-0.137,0.086-0.389,0.224-0.623,0.344c-0.027,0.131-0.144,0.259-0.188,0.322c-0.049,0.071-0.459,0.262-0.734,0.202
	c-0.098-0.021-0.176,0.096-0.314,0.162c-0.246,0.117-0.587,0.153-0.971,0.191c-0.385,0.038-0.621,0.072-0.988,0.073
	s-1.259,0.005-1.259,0.005l-0.397-0.034c0,0-0.16-0.079-0.25-0.164s-0.13-0.19-0.164-0.264c-0.035-0.071,0.041-0.286,0.041-0.286
	s-0.355-0.037-0.504-0.044s-0.311,0.014-0.42-0.033C0.87,22.831,0.749,22.7,0.694,22.56C0.637,22.419,0.608,22.418,0.637,22.184z"/>
<path id="goalie-sock-r" fill-rule="evenodd" clip-rule="evenodd" fill="#FFFFFF" d="M18.483,35.456
	c0.058,0.102,0.084,0.184,0.207,0.201c0.125,0.018,0.486-0.242,0.538-0.207s0.061,0.029,0.062,0.133
	c0.003,0.107,0.011,0.092-0.062,0.203c-0.072,0.109-0.338,0.236-0.431,0.336c-0.094,0.098-0.12,0.242-0.094,0.377
	c0.027,0.135,1.253,2.887,1.382,3.25c0.13,0.361,0.465,1.367,0.521,1.631c0.055,0.266,0.104,0.547,0.178,0.588
	s0.412,0.014,0.479,0.102c0.068,0.09,0.168,0.398,0.262,0.414c0.094,0.014,0.454,0.025,0.541-0.018
	c0.086-0.041,0.164-0.41,0.234-0.541c0.071-0.133,0.137-0.303,0.124-0.4c-0.011-0.1-0.094-0.336-0.217-0.805
	c-0.124-0.471-0.318-1.24-0.397-1.604c-0.078-0.365-0.342-1.662-0.396-2.043c-0.055-0.383-0.147-0.938-0.189-1.094
	c-0.043-0.156-0.067-0.404-0.158-0.502c-0.09-0.096-0.122-0.154-0.199-0.17c-0.151-0.029-0.225-0.105-0.222-0.186
	c0.003-0.078-0.007-0.148,0.032-0.23c0.038-0.082,0.25-0.074,0.302-0.227c0.052-0.15-0.034-0.457-0.203-0.672
	c-0.17-0.213-0.233-0.264-0.345-0.299c-0.113-0.033-0.769,0.057-1.029,0.121c-0.26,0.066-0.514,0.18-0.653,0.277
	c-0.141,0.098-0.251,0.271-0.306,0.428s-0.1,0.297-0.091,0.461C18.362,35.148,18.483,35.456,18.483,35.456L18.483,35.456
	C18.483,35.456,18.426,35.353,18.483,35.456z"/>
<path id="goalie-sock-l" fill-rule="evenodd" clip-rule="evenodd" fill="#FFFFFF" d="M13.54,44.361
	c0.073-0.039,0.19-0.584,0.228-0.672c0.009-0.021,0.037-0.057,0.01-0.133c-0.109-0.309-0.259-0.787-0.315-0.998
	c-0.075-0.283-0.314-1.064-0.342-1.262c-0.028-0.195,0.013-0.475,0-0.93c-0.014-0.457-0.072-0.752-0.139-1.156
	c-0.066-0.402-0.274-1.117-0.395-1.389s-0.24-0.555-0.359-0.666c-0.12-0.111-0.421-0.098-0.53-0.098
	c-0.109,0-0.123-0.059-0.137-0.117c-0.015-0.059,0.082-0.102,0.219-0.205c0.125-0.096,0.271-0.154,0.315-0.207
	s0.069-0.35,0.035-0.529c-0.035-0.176-0.186-0.338-0.281-0.426c-0.096-0.088-0.177-0.16-0.315-0.152
	c-0.137,0.006-0.641,0.154-0.848,0.24c-0.281,0.115-0.364,0.131-0.961,0.344c-0.08,0.068-0.072,0.127-0.072,0.127
	s-0.057,0.25-0.025,0.42c0.032,0.168,0.012,0.389,0.237,0.535c0.128,0.084,0.362,0.059,0.425,0.178
	c0.061,0.115-0.01,0.182-0.055,0.293c-0.047,0.111-0.164,0.125-0.179,0.221c-0.014,0.094,0.03,0.387,0.18,0.811
	c0.149,0.426,0.905,2.35,0.905,2.35s0.791,2.338,0.831,2.426c0.041,0.09,0.334,0.459,0.379,0.598s0.036,0.357,0.082,0.43
	c0.046,0.076,0.575,0.129,0.646,0.131C13.147,44.527,13.467,44.402,13.54,44.361z"/>
<path id="skin-leg-l" fill-rule="evenodd" clip-rule="evenodd" fill="#F9CAA9" d="M11.452,34.972c0,0,0.156-0.604,0.245-0.766
	c0.137-0.25,0.725-1.059,0.725-1.059l-0.995-0.58c0,0-1.138-0.773-1.153-0.787c-0.017-0.018,0.17-0.539,0.146-0.52
	s-0.291,0.387-0.324,0.387c-0.035,0-0.289-0.176-0.289-0.176s-0.355,0.734-0.479,1.104c-0.123,0.367-0.223,0.68-0.234,0.832
	S9.069,33.97,9.11,34.222c0.041,0.25,0.15,0.66,0.246,0.881s0.232,0.471,0.232,0.471s0.696-0.23,0.932-0.309
	C10.754,35.185,11.452,34.972,11.452,34.972z"/>
<path id="skin-leg-r" fill-rule="evenodd" clip-rule="evenodd" fill="#F9CAA9" d="M17.432,32.355c0,0,0.028,0.277,0.172,0.564
	c0.143,0.287,0.58,0.83,0.58,0.83s0.301-0.152,0.452-0.219c0.151-0.068,0.575-0.207,0.78-0.236s0.801-0.117,0.801-0.117
	s-0.131-0.277-0.131-0.455c0-0.088,0.098-0.432,0.098-0.432s-0.392,0.033-0.771,0.047c-0.379,0.018-0.635,0.029-0.951,0.021
	C18.143,32.355,17.432,32.355,17.432,32.355z"/>
<path fill-rule="evenodd" clip-rule="evenodd" fill="#1A1A18" d="M11.163,34.501c0.038-0.055,0.113-0.24,0.111-0.348
	c-0.002-0.109,0.13-0.279,0.146-0.307c0.016-0.023,0.019-0.094-0.044-0.096s-0.416,0.244-0.485,0.326
	c-0.07,0.084-0.106,0.496-0.07,0.512C10.858,34.601,11.125,34.552,11.163,34.501z"/>
<path id="goalie-shorts" fill-rule="evenodd" clip-rule="evenodd" fill="#1A1A18" d="M21.061,27.937c0,0-0.129,0.521-0.18,0.889
	c-0.055,0.396-0.126,1.475-0.118,1.869c0.007,0.309-0.019,0.926-0.019,0.998c-0.002,0.072,0.018,0.07-0.074,0.1
	c-0.091,0.031-0.276,0.082-0.519,0.094c-0.243,0.012-0.819,0.09-1.216,0.088c-0.396-0.002-1.254-0.021-1.477-0.018
	c-0.186,0.004-0.988-0.033-1.041-0.023c-0.055,0.01-0.07-0.021-0.09-0.109s-0.197-0.984-0.17-1.072s1.299-2.631,1.402-2.742
	c0.104-0.109,0.918-0.527,1.01-0.512c0.092,0.02,0.204,0.105,0.291,0.105c0.089,0.002,0.23-0.043,0.277-0.078
	c0.045-0.037-0.076-0.307-0.125-0.342c-0.05-0.033-0.279-0.113-0.363-0.117s-0.318,0.062-0.365,0.014
	c-0.047-0.047,0.277-0.424,0.341-0.486c0.063-0.061,0.069-0.32,0.081-0.359c0.01-0.039-0.093-0.268-0.157-0.264
	s-0.145,0.16-0.166,0.199c-0.022,0.039-0.081,0.178-0.16,0.299c-0.081,0.123-0.323,0.264-0.421,0.385s-0.363,0.406-0.423,0.426
	c-0.058,0.018-0.532-0.104-0.733-0.16s-0.31-0.15-0.502-0.252c-0.191-0.1-0.357-0.211-0.521-0.252
	c-0.163-0.037-0.412-0.139-0.444-0.053c-0.034,0.088-0.067,0.201,0.073,0.371c0.14,0.172,0.266,0.213,0.428,0.32
	c0.16,0.105,0.355,0.223,0.547,0.264c0.192,0.041,0.361,0.045,0.57,0.148c0.21,0.102,0.4,0.176,0.381,0.248
	c-0.021,0.074-1.133,2.293-1.398,2.756c-0.234,0.41-1.664,2.627-1.729,2.729c-0.062,0.096-0.082,0.07-0.233,0
	c-0.219-0.104-0.395-0.227-0.772-0.422c-0.376-0.195-0.911-0.504-1.308-0.74c-0.317-0.188-0.8-0.545-0.979-0.682
	c-0.115-0.068-0.051-0.135-0.051-0.135s0.244-0.836,0.236-0.889s-0.173-0.189-0.232-0.16c-0.096,0.043-0.396,0.545-0.514,0.713
	c-0.021,0.031-0.018,0.062-0.107,0.006c-0.07-0.045-0.284-0.162-0.405-0.234c-0.151-0.088-0.11-0.074-0.057-0.195
	c0.048-0.105,0.47-0.855,0.708-1.295c0.238-0.436,0.409-0.717,0.652-1.203c0.242-0.482,0.504-1.002,0.723-1.396
	c0.218-0.395,1.752-3.339,1.827-3.513c0.075-0.174,0.26-0.461,0.249-0.531c-0.01-0.069-0.038-0.29-0.038-0.437
	c0-0.147,0.018-0.403,0.123-0.412c0.105-0.009,0.336-0.011,0.558-0.058c0.222-0.045,1.199-0.187,1.632-0.281
	c0.432-0.096,1.407-0.324,1.607-0.332c0.199-0.006,0.684,0,0.992,0.01c0.311,0.008,1.527,0.01,1.633,0.057
	c0.106,0.045,0.105,0.047,0.176,0.148c0.068,0.102,0.105,0.207,0.018,0.266c-0.087,0.059-1.875-0.03-2.097-0.016
	s-0.506,0.072-0.616,0.131c-0.111,0.061-0.186,0.159-0.18,0.207s-0.038,0.087,0.011,0.127c0.05,0.038,0.228,0.029,0.319,0.032
	c0.094,0.003,0.267-0.021,0.44-0.031s2.001-0.057,2.073-0.048c0.071,0.009,0.241-0.052,0.317,0.009
	c0.077,0.06,0.172,0.213,0.192,0.293c0.02,0.082,0.129,0.303,0.207,0.681c0.08,0.379,0.217,1.173,0.244,1.775
	c0.027,0.603,0.006,1.314-0.072,1.861C21.25,27.253,21.061,27.937,21.061,27.937z"/>
<path id="skin-arm-r" fill="#F9CAA9" d="M9.438,20.836c-0.15,0.169-0.566,0.418-0.789,0.566c-0.225,0.146-1.135,0.755-1.418,0.913
	c-0.084,0.047-0.117,0.068-0.216,0.119c-0.231-0.471-0.451-0.882-0.616-1.411c0.537-0.519,1.46-1.406,1.46-1.406l0.183-0.5
	l0.287-0.808l0.562,0.253l1.438,0.446c0,0-0.356,0.801-0.425,0.957C9.834,20.122,9.588,20.668,9.438,20.836z"/>
<path fill="#FFFFFF" d="M6.551,22.302c0.067,0.162,0.198,0.352,0.201,0.426s-0.022,0.058-0.084,0.14
	c-0.063,0.082-0.258,0.105-0.338,0.123c-0.082,0.018-0.215-0.222-0.277-0.271c-0.064-0.051-0.2-0.111-0.18-0.015
	c0.02,0.097,0.102,0.266,0.047,0.328s-0.524,0.193-0.824,0.231c-0.298,0.036-0.994,0.088-0.994,0.088l-0.843,0.011H2.756
	l-0.357-0.046l-0.102-0.11l0.021-0.165l0.1-0.108l0.873-0.089L3.27,22.646l-2.002-0.055c0,0-0.243-0.087-0.262-0.261
	C0.98,22.066,1.166,22.04,1.166,22.04l2.054-0.033l-0.021-0.242c0,0-1.771-0.251-1.879-0.275c-0.106-0.025-0.134-0.128-0.134-0.319
	s0.257-0.232,0.257-0.232l1.838,0.188l0.052-0.188l-1.19-0.396c0,0-0.156-0.148-0.084-0.273c0.072-0.127,0.268-0.113,0.268-0.113
	s1.551,0.294,1.746,0.375c0.193,0.082,0.613,0.271,0.697,0.331c0.085,0.06,0.349,0.208,0.429,0.296
	c0.081,0.088,0.08,0.26,0.155,0.307c0.076,0.045,0.104-0.006,0.131-0.039s-0.012-0.16,0.016-0.236
	c0.025-0.076,0.12-0.135,0.223-0.172c0.104-0.037,0.291-0.098,0.348-0.009s0.126,0.397,0.222,0.648
	C6.386,21.905,6.483,22.139,6.551,22.302z"/>
<path fill-rule="evenodd" clip-rule="evenodd" fill="#1A1A18" d="M3.895,21.037c0,0,0.103-0.115,0.209-0.014
	c0.105,0.103,0.025,0.264-0.017,0.301s-0.116,0.08-0.208,0.016C3.788,21.276,3.895,21.037,3.895,21.037z"/>
<path fill-rule="evenodd" clip-rule="evenodd" fill="#1A1A18" d="M3.629,22.047c0,0-0.045-0.068,0.008-0.149
	s0.146-0.141,0.146-0.141s0.037,0.218-0.016,0.301C3.717,22.139,3.629,22.047,3.629,22.047L3.629,22.047z"/>
<path id="goalie-shirt" fill="#962467" d="M19.594,16.11c0.082,0.396,0.301,1.409,0.383,1.821c0.082,0.411,0.191,1.146,0.22,1.5
	c0.027,0.353,0.067,0.735,0.067,0.897c0,0.08-0.005,0.266-0.013,0.347c-0.014,0.138-0.028,0.123-0.124,0.138
	s-1.072,0.007-1.072,0.007s-0.317-0.003-0.566-0.034c-0.25-0.031-0.357,0.017-0.42-0.25s-0.295-1.979-0.322-2.134
	c-0.055-0.309-0.133-0.467-0.23-0.719s-0.235-0.663-0.317-0.928s-0.134-0.505-0.183-0.547c-0.051-0.042-0.082-0.069-0.127,0.012
	c-0.046,0.079-0.1,0.167-0.107,0.285s-0.002,0.725,0.084,1.098c0.086,0.372,0.494,1.646,0.543,2.024
	c0.051,0.377-0.03,0.818-0.051,0.973c-0.022,0.154-0.019,0.146-0.096,0.188c-0.077,0.04-0.275,0.104-0.498,0.152
	c-0.223,0.05-0.756,0.171-1.181,0.257c-0.424,0.086-1.286,0.166-1.464,0.205c-0.178,0.035-0.207,0.025-0.26-0.119
	c-0.082-0.22-0.208-1.004-0.385-1.504s-1.062-2.578-1.104-2.771c-0.042-0.193,0.096-0.803,0.074-0.889
	c-0.022-0.085-0.052-0.166-0.12-0.11c-0.066,0.056-0.404,1.073-0.536,1.52c-0.109,0.366-0.256,0.858-0.352,1.152
	c-0.014,0.046-0.027,0.147-0.149,0.118c-0.124-0.032-0.782-0.206-1.158-0.338c-0.376-0.133-0.882-0.266-1.155-0.383
	c-0.197-0.085-0.417-0.148-0.506-0.206c-0.09-0.059-0.086-0.066-0.028-0.25c0.097-0.309,0.396-1.173,0.56-1.703
	c0.166-0.531,0.714-2.192,0.893-2.697c0.151-0.431,0.396-1.274,0.577-1.652c0.155-0.324,0.49-0.732,0.647-0.964
	c0.156-0.23,0.39-0.451,0.472-0.569c0.083-0.118,0.232-0.229,0.232-0.229l0.848-0.186l1.124-0.374l0.735-0.405
	c0,0,0.282,0.016,0.609,0.149c0.422,0.172,0.695,0.296,1.078,0.531c0.385,0.235,0.723,0.528,1.115,1.026
	c0.152,0.194,0.445,0.619,0.583,0.875c0.138,0.258,0.405,0.713,0.542,1c0.137,0.289,0.33,0.835,0.562,1.584
	C19.135,14.394,19.512,15.718,19.594,16.11z"/>
<path fill-rule="evenodd" clip-rule="evenodd" fill="#1A1A18" d="M13.605,16.318c-0.02,0.099-0.039,0.153-0.119,0.148
	s-0.472-0.9-0.584-0.915c-0.111-0.017-0.354,0.058-0.383,0.035s0.229-0.419,0.333-0.654c0.104-0.235,0.419-0.994,0.446-1.034
	c0.027-0.039,0.253-0.108,0.263-0.015c0.01,0.094-0.214,0.637-0.211,0.799C13.353,14.844,13.605,16.318,13.605,16.318
	S13.625,16.219,13.605,16.318z"/>
<path id="skin-face" fill-rule="evenodd" clip-rule="evenodd" fill="#F9CAA9" d="M13.933,8.414c0,0-0.272-0.278-0.609-0.453
	c-0.409-0.213-0.416-0.214-0.871-0.44c-0.502-0.252-0.575-0.433-0.489-0.562c0.122-0.183,0.365-0.47,0.391-0.757
	c0.04-0.447-0.192-0.443-0.29-0.461c-0.139-0.025-0.372,0.066-0.466,0.183c-0.102,0.126-0.175,0.327-0.233,0.55
	c-0.035,0.135-0.047,0.374-0.137,0.334c-0.205-0.093-0.145-0.018-0.211-0.106C10.889,6.53,10.78,6.2,10.7,5.958
	c-0.107-0.317-0.168-0.484-0.243-0.772c-0.046-0.121-0.046-0.395-0.046-0.395s-0.188,0.043-0.363,0.061
	c-0.139,0.016-0.53-0.061-0.53-0.061l0.091,0.137l0.076,0.203c0.047,0.003,0.244,0.018,0.278,0.043
	c0.036,0.027,0.322,0.146,0.308,0.167c-0.047-0.003-0.229-0.049-0.32-0.063c-0.09,0-0.16,0.004-0.227,0.02v0.004
	c0,0,0.046,0.157,0.075,0.284c0.054,0.001,0.216,0.062,0.247,0.059c0.117-0.003,0.104,0.041,0.348-0.078
	c0.014,0.013-0.221,0.188-0.299,0.223c-0.045,0.02-0.191,0.039-0.308,0.051C9.718,6.01,9.571,6.307,9.571,6.307
	S9.469,6.509,9.542,6.61C9.6,6.692,9.829,6.669,9.86,6.723c0.07,0.121,0.18,0.438,0.218,0.581c0.038,0.142,0.118,0.528,0.198,0.745
	c0.138,0.379,0.161,0.367,0.312,0.458c0.123,0.073,0.289,0.075,0.455,0.015c0.137-0.029,0.404-0.124,0.404-0.124
	s0.469,0.715,0.594,0.984c0.25-0.078,0.6-0.091,0.812-0.172c0.781-0.297,1.234-0.547,1.219-0.578
	C14.007,8.501,13.933,8.414,13.933,8.414z M10.458,7.606c-0.082,0.053-0.145-0.012-0.182-0.08l0.051-0.105
	C10.381,7.462,10.499,7.463,10.458,7.606z M11.775,6.635l0.161-0.641C12.192,6.321,11.775,6.635,11.775,6.635z"/>
<path fill="#FFFFFF" d="M14.902,3.181c0.062,0.162-0.172-0.016-0.469-0.25c-0.284-0.225-0.391-0.475-0.48-0.797
	c-0.029-0.107-0.042-0.196-0.044-0.267c-0.002-0.077-0.007-0.165,0.028-0.161c0.074,0.006,0.094-0.033,0.125,0.084
	c0.071,0.27,0.184,0.496,0.266,0.641C14.523,2.776,14.853,3.055,14.902,3.181z"/>
<path id="hair" fill-rule="evenodd" clip-rule="evenodd" fill="#F7DD7F" d="M14.973,4.453c-0.045-0.527-0.044-0.892-0.076-0.904
	c-0.275-0.107-0.475-0.244-0.781-0.475c-0.256-0.192-0.363-0.469-0.413-0.612c-0.138-0.398-0.061-0.766-0.152-0.798
	C13.151,1.52,12.599,1.34,11.91,1.359c-0.771,0.021-1.144,0.211-1.438,0.367C10.18,1.884,9.676,2.232,9.431,2.676
	C9.43,2.677,9.426,2.683,9.424,2.686C9.23,2.952,9.066,3.224,8.941,3.441c-0.163,0.283-0.49,0.475-0.429,0.46
	c0.26,0.03,0.367,0,0.536-0.093C9.18,3.736,8.913,4.422,8.742,4.621c0.579,0.047,0.933-0.426,1.026-0.353
	C9.814,4.304,9.95,4.223,9.615,4.482c0.395,0.093,0.878-0.095,0.949-0.168c0.118-0.094,0.064,0.253,0.081,0.459
	c0.016,0.174,0.111,0.541,0.184,0.751c0.188,0.547,0.293,0.973,0.322,0.826c0.061-0.306,0.215-0.703,0.521-0.857
	c0.044-0.021,0.098-0.042,0.156-0.06c0.007-0.002,0.014-0.004,0.021-0.006c0.056-0.016,0.117-0.027,0.181-0.033
	c0.017-0.002,0.034-0.002,0.051-0.002c0.034-0.002,0.07,0,0.106,0.002c0.186,0.021,0.35,0.13,0.428,0.437
	c0.143,0.722-0.269,1.084-0.28,1.163c-0.016,0.109,0.546,0.391,0.849,0.505c0.444,0.169,0.792,0.552,0.857,0.552
	c0.057,0,0.319-0.569,0.414-0.688c0.475-0.598,0.611-0.965,0.766-1.578C15.096,5.325,15.004,4.804,14.973,4.453z M14.301,5.138
	c0.004,0.133-0.055-0.395-0.201-0.84c-0.138-0.414-0.342-0.735-0.106-0.551C14.44,4.095,14.285,4.33,14.301,5.138z"/>
<path id="hair-p" fill="#F7DD7F" d="M17.643,5.047c-0.18-0.498-0.467-1.131-0.764-2.256c-0.267-1.012-0.498-1.404-0.781-1.625
	c-0.169-0.132-0.32-0.232-0.609-0.281c-0.734-0.125-1.123,0.469-1.232,0.641c0,0,0.078,0.25,0.154,0.391
	c0.269,0.496,0.314,0.547,0.58,0.875c0.07,0.088,0.123,0.152,0.167,0.221c0.116,0.102,0.339,0.308,0.442,0.467l-0.355-0.027
	c0.008,0.221,0.021,0.558,0.11,1.193c0.094,0.797,0.151,1.006,0.37,1.49c0.219,0.531,0.406,0.641,0.531,1.172
	c-0.043-0.183,0.201-0.438,0.248-0.672c0,0,0.248,0.729,0.172,0.797c0.312-0.281,0.314-0.583,0.344-0.875
	c0,0,0.422,0.375,0.297,0.703c0.025-0.025,0.184-0.107,0.232-0.323c0.041-0.183-0.027-0.492-0.043-0.614c0,0,0.3,0.275,0.234,0.547
	C17.914,6.155,17.866,5.666,17.643,5.047z"/>
</svg>
