<?xml version="1.0" encoding="utf-8"?>
<!-- Generator: Adobe Illustrator 16.0.4, SVG Export Plug-In . SVG Version: 6.00 Build 0)  -->
<!DOCTYPE svg PUBLIC "-//W3C//DTD SVG 1.1//EN" "http://www.w3.org/Graphics/SVG/1.1/DTD/svg11.dtd" [
	<!ENTITY ns_flows "http://ns.adobe.com/Flows/1.0/">
	<!ENTITY ns_extend "http://ns.adobe.com/Extensibility/1.0/">
	<!ENTITY ns_ai "http://ns.adobe.com/AdobeIllustrator/10.0/">
	<!ENTITY ns_graphs "http://ns.adobe.com/Graphs/1.0/">
]>
<svg version="1.1" id="Ebene_1" xmlns:x="&ns_extend;" xmlns:i="&ns_ai;" xmlns:graph="&ns_graphs;"
	 xmlns="http://www.w3.org/2000/svg" xmlns:xlink="http://www.w3.org/1999/xlink" xmlns:a="http://ns.adobe.com/AdobeSVGViewerExtensions/3.0/"
	 x="0px" y="0px" width="32.6px" height="50.5px" viewBox="0 0 32.6 50.5" style="enable-background:new 0 0 32.6 50.5;"
	 xml:space="preserve">
<style type="text/css">
<![CDATA[
	.st0{fill:#1A1A18;}
	.st1{fill-rule:evenodd;clip-rule:evenodd;fill:#1A1A18;}
	.st2{fill:#FBCDAA;}
	.st3{fill:#FFFFFF;}
	.st4{fill:#9E2A6A;}
	.st5{fill-rule:evenodd;clip-rule:evenodd;fill:#FBCDAA;}
	.st6{fill-rule:evenodd;clip-rule:evenodd;fill:#FFFFFF;}
]]>
</style>
<path class="st0" d="M32.31,47.99c-0.02-0.28-0.37-0.37-0.47-0.38s-0.55,0.07-0.63,0.04c-0.09-0.03-0.83-0.28-0.92-0.34
	s-0.57-0.62-0.67-0.69s-0.3-0.02-0.38-0.06s-0.29-0.53-0.36-0.68s-1.1-5.55-1.21-6.22s-0.48-1.67-0.56-1.92s-0.39-0.86-0.45-0.92
	s0.14-0.06,0.14-0.17c0-0.11-0.21-0.67-0.33-0.87s-0.22-0.37-0.28-0.47s-0.16-0.19-0.23-0.33s-0.5-1.15-0.5-1.15
	s0.18-0.12,0.28-0.17c0.1-0.06,0.07-0.13,0.04-0.21c-0.09-0.21-0.28-0.67-0.49-1.18c-0.34-0.81-0.73-1.75-0.86-2.02
	c-0.3-0.66-0.76-1.64-1.04-2.3s-1.19-2.94-1.34-3.28s-0.44-0.84-0.44-0.84s0.1-0.28,0.09-0.55s-0.14-0.49-0.25-0.65
	c-0.04-0.05-0.05-0.13-0.06-0.2h0l-0.05-0.75l0.05-1.64l0.06-1.88l0.19-2.06l0.09-0.26c0,0,1.15,0.77,1.78,1.16s0.87,0.54,1.48,0.8
	c0.59,0.25,0.83,0.34,1.11,0.4s0.5,0.07,0.67,0.06s0.4-0.15,0.55-0.39s0.23-0.41,0.25-0.91c0.02-0.47-0.17-1.04-0.38-1.5
	c-0.22-0.5-0.57-1.14-0.57-1.14l-0.33-0.59l0.12-0.1c0,0,0.03-0.14-0.01-0.2c-0.13-0.17-0.46-0.65-0.55-0.78
	c-0.2-0.29-0.83-1-1.03-1.23s-0.81-0.86-1.06-1.09s-0.54-0.43-0.72-0.59s-0.62-0.5-1-0.72c-0.18-0.11-0.67-0.4-0.99-0.5
	s-0.77-0.22-1.02-0.25s-0.54-0.06-0.67-0.1s-0.47-0.3-0.47-0.3l-0.13-0.03L18.7,7.28l0.13-0.15l0.09-0.59l0.35-0.23l0.2-0.42
	l0.04-0.44l0.41-0.74l0.01-0.48l0.31-0.49L19.96,3.2l0.24-0.59l-0.22-0.1l-0.03-0.37l-0.3-0.62l-0.46-0.61l-0.42-0.15L18.64,0.6
	l-0.59,0.03l-0.68-0.31l-0.83-0.23l-0.12,0.12l-0.81,0.08l-0.26,0.25l-0.17-0.13L14.73,0.9l-0.45,0.41l-0.73,1.24l0.05,0.13
	l0.09,0.5l-0.37,0.55l0.36,0.29l0.06,0.81l0.34,0.83l0.2,0.56l0.36,0.53l0.11,0.36l0.18,0.09l-0.05,0.55l0,0c0,0-0.3,0.13-0.54,0.19
	s-0.82,0.1-1.32,0.19c-0.22,0.04-1.14,0.29-1.48,0.48s-1.13,0.71-1.41,0.95S9.12,10.4,8.74,10.8s-1.15,1.29-1.33,1.54
	s-0.36,0.45-0.5,0.61c-0.1,0.11-0.12,0.16-0.02,0.25s0.21,0.17,0.21,0.17l-0.48,0.74c0,0-0.6,1.1-0.7,1.3s-0.29,0.86-0.2,1.34
	c0.07,0.34,0.16,0.78,0.67,1.05c0.37,0.19,0.97,0.27,1.57,0s1.35-0.75,1.35-0.75l1.12-0.75l0.66-0.44l0.34-0.2
	c0,0,0.12,0.79,0.14,1.29s0.04,1.09,0.04,1.53s-0.03,1.45-0.05,1.94s-0.07,1.27-0.08,1.3c0,0-0.17,0.21-0.25,0.32
	s-0.15,0.32-0.16,0.47c0,0.15-0.01,0.29,0,0.41s-0.22,0.41-0.3,0.51s-0.23,0.31-0.45,0.66s-0.68,0.98-0.96,1.47
	c-0.28,0.48-1.04,1.9-1.27,2.31S7.1,29.8,6.84,30.33s-1.02,2.18-1.19,2.62c-0.04,0.09-0.05,0.16,0.03,0.22
	c0.08,0.05,0.38,0.18,0.38,0.18l-0.38,1.58c0,0-0.31,0.32-0.44,0.48s-0.34,0.66-0.34,0.85c0,0.19-0.05,0.42-0.05,0.55
	s-0.72,3.38-0.72,3.38l-0.77,4.36l-0.21,0.91c0,0-0.14,0-0.19,0.07s-0.11,0.73-0.16,0.77s-0.2-0.02-0.31,0.06s-0.05,0.46-0.16,0.55
	s-0.82,0.54-0.91,0.57s-0.37,0.06-0.45,0.09s-0.33-0.01-0.43,0.06c-0.1,0.07-0.24,0.6-0.25,0.74s0.01,0.29,0.04,0.42
	s0.36,0.52,0.36,0.52s0,0.23,0.02,0.31s0.13,0.16,0.16,0.16s0.09-0.08,0.09-0.08l1.04,0.24c0,0,0.05,0.1,0.08,0.14
	s0.14,0.04,0.19,0.02S2.39,50,2.39,50l0.88-0.01l0.43,0.14c0,0-0.02,0.17,0.04,0.24s0.18,0.04,0.26,0.03s0.11-0.23,0.11-0.23
	l0.33-0.03l0.35-0.09c0,0,0.03,0.08,0.09,0.13c0.06,0.05,0.1,0.04,0.17-0.02s0.11-0.19,0.11-0.19l0.19-0.12c0,0,0.08-0.04,0.16-0.12
	s0.14-0.17,0.16-0.28s0.02-0.25,0.01-0.41s-0.05-0.38-0.05-0.55s-0.05-0.41-0.03-0.59s0.11-0.82,0.11-0.95s-0.09-0.45-0.06-0.67
	s0.04-0.69,0.17-1.13s0.91-2.57,1.17-3.15s0.51-1.12,0.85-2.16s0.49-1.54,0.48-1.72c-0.02-0.33-0.28-0.5-0.16-0.58
	s0.14-0.4,0.14-0.4s0.22-0.16,0.23-0.42c0-0.12-0.01-0.22,0.08-0.39c0.15-0.29,0.21-0.48,0.42-0.65s0.94-0.63,0.94-0.63
	s0.53,0.2,0.89,0.31c0.36,0.12,0.66,0.2,0.84,0.27s0.24-0.03,0.32-0.17s0.55-0.92,0.55-0.92s1.92-3.33,2.18-3.73
	s0.45-0.68,0.56-0.73s0.48,0.05,0.63,0.08c0.15,0.03,0.28-0.03,0.33,0.06s1.28,1.83,1.61,2.36c0.3,0.48,1.9,3.12,2.22,3.64
	c0.09,0.14,0.12,0.17,0.25,0.11c0.13-0.06,1.27-0.56,1.27-0.56s0.28,0.17,0.62,0.45s0.71,0.47,0.76,0.56s0.21,0.26,0.24,0.43
	s0.07,0.69,0.18,0.78c0.16,0.14,0.31,0.25,0.31,0.25s0.08,0.62,0.08,0.95c0,0.33,0.16,1.11,0.29,1.46s1.87,4.56,1.95,4.76
	s0.21,1.08,0.21,1.2s-0.06,0.49-0.08,0.65c-0.02,0.16,0.06,0.67,0.07,0.79s-0.07,0.65-0.09,0.81s0.03,0.79,0.07,0.84
	s0.24,0.14,0.24,0.14s-0.01,0.12,0.03,0.17s0.12,0.09,0.19,0.08s0.09-0.09,0.09-0.09l0.2,0.06c0,0,0.03,0.15,0.07,0.18
	s0.23,0.08,0.28,0.06s0.08-0.12,0.08-0.12L28,50.17l0.88-0.13l0.17-0.02c0,0,0.06,0.15,0.13,0.17c0.07,0.02,0.14-0.02,0.19-0.05
	s0.01-0.17,0.01-0.17l1.08-0.14c0,0,0.03,0.07,0.13,0.1s0.14,0.01,0.22-0.05s0.06-0.16,0.06-0.16l0.65-0.18c0,0,0.03,0.07,0.11,0.05
	c0.09-0.03,0.09-0.02,0.11-0.08c0.02-0.1-0.01-0.18-0.01-0.18l0.27-0.28c0,0,0.03,0.1,0.1,0.08c0.07-0.01,0.07-0.03,0.09-0.12
	c0.03-0.14,0.01-0.17,0.01-0.17S32.33,48.28,32.31,47.99z"/>
<path id="skin-leg-l" class="st5" d="M8.1,35.75c0,0,0.15-0.34,0.19-0.46s0-0.19-0.05-0.23s-0.1-0.19-0.09-0.23s0.06-0.22,0.12-0.19
	s0.39,0.49,0.49,0.49s0.61-0.32,0.61-0.32s-0.89-0.41-1.12-0.5s-0.82-0.36-1.06-0.47s-0.66-0.28-0.66-0.28L6.2,34.85l-0.02,0.16
	c0,0,0.61,0.26,1.02,0.41S8.1,35.75,8.1,35.75z"/>
<path id="skin-leg-r" class="st5" d="M23.34,34.88c-0.3,0.16-1.3,0.62-1.3,0.62l0.48,0.3l0.74,0.57l1.09-0.57l1.15-0.52l-0.49-1.26
	c0,0-0.36,0.21-0.59,0.32S23.6,34.75,23.34,34.88z"/>
<path id="goalie-sock-r" class="st6" d="M23.86,37.57c0.09,0.16,0.84-0.28,0.98-0.33s0.19-0.12,0.31-0.08s0.28,0.03,0.14,0.3
	s-0.79,0.73-0.79,0.73s-0.18,0.09-0.16,0.34s-0.04,0.74,0.11,1.36s0.42,1.22,0.73,1.97s0.91,2.17,1.05,2.55s0.29,0.79,0.35,0.98
	s0.13,1.08,0.21,1.15s0.25-0.3,0.35-0.31s1.21,0.98,1.4,1s0.12-0.48,0.09-0.57s-0.19-0.44-0.25-0.59s-0.14-0.74-0.21-1.12
	s-0.41-1.98-0.54-2.67s-0.52-2.67-0.66-3.22s-0.55-1.55-0.71-1.82s-0.34-0.33-0.39-0.39s-0.05-0.17,0.03-0.19
	c0.08-0.02,0.2-0.06,0.22-0.16s-0.1-0.33-0.17-0.46s-0.24-0.38-0.35-0.34s-1.32,0.56-1.52,0.67c-0.2,0.11-0.51,0.28-0.52,0.34
	c-0.01,0.07,0.19,0.25,0.2,0.44S23.81,37.45,23.86,37.57z"/>
<path class="st6" d="M27.47,49.71l0.19,0.03c0,0-0.03-0.1-0.15-0.19s-0.09-0.08-0.2-0.06c-0.11,0.03-0.06,0.14-0.03,0.19
	S27.47,49.71,27.47,49.71L27.47,49.71z"/>
<path class="st3" d="M3.81,49.39l0.89-0.11c0,0-0.23-0.23-0.39-0.19S3.81,49.39,3.81,49.39L3.81,49.39z"/>
<path id="goalie-sock-l" class="st6" d="M7.84,36.96c-0.05,0.08,0.05,0.24-0.07,0.28s-0.8-0.38-0.89-0.3S6.77,37,6.84,37.12
	s0.84,0.67,0.91,0.94c0.08,0.26-0.07,0.6-0.25,1.2s-1.12,2.87-1.28,3.27s-0.84,2.42-0.89,2.62s-0.07,1.16-0.15,1.23
	S4.88,45.9,4.8,45.91s-0.87,0.59-0.96,0.59s-0.16-0.66-0.16-0.91s0.3-1.86,0.36-2.26s0.25-1.28,0.42-2.12S5.28,37.1,5.34,37
	s0.34-0.04,0.45-0.07s0.01-0.32,0-0.39s-0.27-0.04-0.34-0.19s0.04-0.29,0.14-0.45s0.3-0.36,0.4-0.34s0.8,0.3,0.8,0.3
	s1,0.34,1.12,0.43s0.15,0.27,0.15,0.41S7.89,36.87,7.84,36.96z"/>
<path id="goalie-shorts" class="st1" d="M21.63,24.9c0,0-0.29-0.66-0.47-0.72s-1.04-0.05-1.18-0.06c-0.23-0.02-0.32,0-0.44-0.08
	c-0.11-0.08-0.15-0.26-0.08-0.3c0.11-0.06,0.5-0.05,0.64-0.06c0.27-0.02,0.62-0.02,0.8-0.06c0.18-0.04,0.13-0.28,0.17-0.35
	s-0.06-0.25-0.17-0.26c-0.11-0.01-0.88,0.01-1.54,0.03s-1.75-0.05-2.47-0.11c-0.72-0.05-1.59-0.17-2.43-0.29s-2.51-0.44-2.62-0.43
	c-0.08,0.01-0.21,0.09-0.23,0.2c-0.03,0.11-0.01,0.29,0.06,0.39s1.8,0.21,1.85,0.33s0.09,0.25,0,0.32s-0.21,0.12-0.4,0.12
	s-1.61-0.27-1.71-0.18s-0.49,0.61-0.59,0.75s-0.53,0.76-0.81,1.22c-0.28,0.45-0.72,1.26-0.94,1.66s-0.77,1.36-0.96,1.71
	s-0.82,1.6-1.02,2.04s-0.7,1.58-0.84,1.89c-0.04,0.08-0.05,0.14,0.05,0.2c0.09,0.06,0.38,0.21,0.64,0.31s1.08,0.5,1.71,0.78
	s1.55,0.66,1.86,0.77c0.29,0.1,0.88,0.3,1.03,0.34s0.19-0.02,0.28-0.19c0.03-0.06,0.26-0.49,0.66-1.19
	c0.94-1.64,2.21-3.69,2.17-3.77s-0.69-0.47-0.97-0.66s-0.91-0.81-0.89-0.87s0.2-0.06,0.27-0.06s0.71,0.36,0.97,0.53
	s0.93,0.47,1.03,0.5s0.36,0.03,0.5,0.07s0.32,0.1,0.53,0.11s1.25-0.27,1.71-0.38s1.01-0.2,1.12-0.15s0.04,0.14-0.02,0.19
	s-0.19,0.24-0.71,0.39s-1.39,0.35-1.35,0.43s0.29,0.44,0.47,0.7s0.89,1.28,1.2,1.84s1.72,2.86,1.79,2.99
	c0.07,0.13,0.07,0.16,0.23,0.1c0.28-0.12,0.95-0.42,1.43-0.63c0.62-0.28,1.72-0.81,2.16-1.05s0.89-0.49,1.03-0.58
	c0.14-0.09,0.05-0.22,0.05-0.22L21.63,24.9z"/>
<path id="skin-arm-l" class="st2" d="M10.99,15.37l-1.2,0.12c0,0-0.49,0.37-0.54,0.41s-0.16,0.08-0.26,0.06s-0.08-0.03-0.08-0.13
	s0.11-0.25,0.27-0.37s0.36-0.4,0.36-0.4l-0.8-0.54l-0.67-0.44l-0.61-0.43c0,0-0.35,0.52-0.55,0.84s-0.52,0.86-0.64,1.2
	s-0.16,0.68-0.12,0.9s0.05,0.39,0.17,0.53c0.06,0.08,0.18,0.22,0.38,0.31c0.17,0.08,0.42,0.11,0.54,0.11c0.26,0,0.61-0.13,0.82-0.24
	s1.26-0.7,1.64-0.98s0.58-0.48,0.78-0.62S10.99,15.37,10.99,15.37z"/>
<path id="goalie-jersey" class="st4" d="M25.27,12.59c-0.29-0.37-1.64-1.85-2.19-2.31s-1.24-0.92-1.99-1.3
	c-0.26-0.13-0.89-0.32-1.15-0.36S19.4,8.59,19.2,8.54s-0.55-0.3-0.55-0.3s-1.17,0.07-1.5,0.07s-1.07-0.06-1.34-0.08
	s-0.72-0.08-0.72-0.08s-0.09,0-0.26,0.06s-0.61,0.15-0.61,0.15s-0.78,0.09-1.16,0.17s-1.16,0.3-1.52,0.51s-1.28,0.98-1.76,1.4
	s-1.44,1.5-1.67,1.75s-0.7,0.86-0.62,0.78c0.09-0.09-0.09,0.07,0.02,0.14s0.6,0.46,0.6,0.46s1.01,0.65,1.3,0.88s0.8,0.56,0.8,0.56
	s0.71-0.02,0.79-0.05s0.81-0.48,0.98-0.61s0.38-0.38,0.5-0.37s0.23,0.15,0.24,0.26s-0.77,1.08-0.78,1.16s0.03,0.51,0.06,0.82
	s0.05,0.7,0.06,1.08s0.03,1.09,0.03,1.4s-0.04,2.05-0.04,2.05l-0.01,0.94c0,0-0.02,0.1,0.08,0.13c0.1,0.03,1.75,0.29,2.31,0.37
	s1.05,0.14,1.67,0.22s1.75,0.13,1.75,0.13s1.01,0.07,1.5,0.07s0.96-0.05,0.96-0.05s0.3-0.03,0.4-0.05s0.09-0.1,0.09-0.1l0.03-0.73
	c0,0,0.02-0.58,0.03-1.09s0.07-1.08,0.09-1.73c0.03-0.84,0.11-1.67,0.14-1.98c0.05-0.5,0.16-1.02,0.12-1.19s-0.63-1.05-0.64-1.14
	s0.13-0.3,0.24-0.27s0.25,0.21,0.44,0.39s0.86,0.57,0.91,0.59s0.76,0.1,0.86,0.08s0.46-0.26,0.77-0.46s1.5-0.97,1.5-0.97
	s0.37-0.29,0.48-0.36s0.08-0.1,0.03-0.19S25.48,12.85,25.27,12.59z"/>
<path class="st1" d="M16.79,16.46c-0.01-0.29-0.14-1.28-0.06-1.58s0.33-1.33,0.34-1.59s-0.24-1.02-0.24-1.18s0.02-0.35-0.05-0.47
	s-0.11-0.04-0.17,0.08s-0.05,2.29-0.1,2.57s-0.33,1.06-0.34,1.4s0.03,1.6,0.11,1.84s0.12,0.63,0.18,0.72s0.13,0.13,0.27,0.03
	s0.28-0.36,0.3-0.65S16.79,16.75,16.79,16.46z"/>
<path id="skin-arm-r" class="st2" d="M22.32,15.68l1.2,0.15c0,0,0.41,0.33,0.54,0.42s0.18,0.08,0.26,0.06s0.18-0.12,0.14-0.19
	s-0.17-0.14-0.32-0.32s-0.33-0.4-0.33-0.4s0.48-0.33,0.78-0.53s0.41-0.25,0.68-0.42s0.62-0.41,0.62-0.41s0.29,0.43,0.53,0.85
	s0.57,1.06,0.65,1.44s0.16,0.77,0,1.08s-0.28,0.48-0.62,0.45s-0.81-0.19-1.15-0.34s-0.59-0.23-0.87-0.4s-1.18-0.76-1.38-0.89
	S22.32,15.68,22.32,15.68z"/>
<path id="skin-neck" class="st5" d="M18.33,7.84l-0.08-0.3c0,0-0.25-0.08-0.51-0.11s-0.66-0.02-0.69-0.02s-0.08,0.25-0.18,0.25
	s-0.14-0.23-0.21-0.25s-0.5-0.05-0.82-0.06c-0.25-0.01-0.45,0.06-0.45,0.06l-0.03,0.36c0,0,0.53,0.05,0.82,0.08s1.06,0.05,1.36,0.05
	S18.33,7.84,18.33,7.84z"/>
<polygon id="hair" class="st1" points="14.07,3.13 13.99,2.65 13.97,2.55 14.46,1.67 14.82,1.29 15.29,0.83 15.43,0.94 15.8,0.62 
	16.55,0.56 16.65,0.46 17.39,0.72 17.98,0.99 18.5,0.97 18.61,1.12 18.97,1.25 19.37,1.79 19.63,2.33 19.64,2.69 19.83,2.77 
	19.64,3.26 19.87,3.74 19.6,4.17 19.59,4.59 19.19,5.35 19.15,5.74 18.98,6.1 18.58,6.35 18.54,6.63 18.46,6.97 18.19,7.14 
	17.56,7.1 17.03,7.06 16.85,7.2 16.64,7.03 16.45,7.01 15.39,6.97 15.06,6.88 14.96,6.52 14.57,6.09 14.36,5.49 14.07,4.75 
	14.04,3.82 13.78,3.6 "/>
</svg>
