<?xml version="1.0" encoding="utf-8"?>
<!-- Generator: Adobe Illustrator 16.0.4, SVG Export Plug-In . SVG Version: 6.00 Build 0)  -->
<!DOCTYPE svg PUBLIC "-//W3C//DTD SVG 1.1//EN" "http://www.w3.org/Graphics/SVG/1.1/DTD/svg11.dtd">
<svg version="1.1" id="Ebene_1" xmlns="http://www.w3.org/2000/svg" xmlns:xlink="http://www.w3.org/1999/xlink" x="0px" y="0px"
	 width="24.658px" height="49.833px" viewBox="0 0 24.658 49.833" enable-background="new 0 0 24.658 49.833" xml:space="preserve">
<path fill-rule="evenodd" clip-rule="evenodd" fill="#1A1A18" d="M23.876,47.929c-0.029-0.213-0.264-0.615-0.401-0.895
	c-0.108-0.217-0.71-1.115-0.71-1.115l-0.74-0.992l-0.35-0.4l-0.116-0.375l-0.243-0.23c0,0,0.047-0.201,0.008-0.281
	c-0.039-0.082-0.215-0.199-0.215-0.199l-0.02-0.119l-0.529-3.645l-0.282-2.168l-0.14-0.512l-0.008-0.328l-0.031-0.697l-0.246-0.482
	l-0.142-0.295l-0.097-0.52l-0.11-1.088l-0.106-0.752c0,0,0.135-0.059,0.213-0.117c0.031-0.025,0.096-0.061,0.082-0.119
	c-0.055-0.234-0.195-0.719-0.195-0.719l-0.416-1.439l-0.515-1.939l-0.455-1.549c0,0-0.614-2.004-0.753-2.416
	c-0.139-0.41-0.305-0.865-0.4-1.012c-0.097-0.146-0.155-0.221-0.155-0.221s0.103-0.16,0.07-0.381s-0.186-0.367-0.196-0.412
	c-0.012-0.043-0.038-0.252-0.038-0.252s-0.069-1.121-0.083-1.312c-0.042-0.562,0.014-1.473,0.021-1.812s0.073-0.893,0.073-0.893
	s0.963,0.985,1.243,1.244c0.281,0.259,0.956,0.63,1.174,0.667c0.219,0.039,0.573,0.101,1.052-0.167
	c0.381-0.212,0.654-0.471,0.646-1.043c-0.008-0.601-0.231-1.566-0.357-2.092s-0.32-1.1-0.32-1.1s0.07-0.041,0.211-0.119
	c0.141-0.079,0.18-0.121,0.139-0.224c-0.042-0.104-0.279-0.723-0.378-0.948c-0.288-0.652-0.848-1.753-0.946-1.933
	c-0.096-0.182-0.582-0.86-0.801-1.153c-0.221-0.293-0.803-0.93-1.036-1.137c-0.298-0.264-0.782-0.597-0.94-0.668
	c-0.159-0.069-0.705-0.254-1.018-0.339c-0.391-0.108-1.141-0.245-1.141-0.245l-0.016-0.001c0.063-0.104,0.123-0.207,0.168-0.3
	c0.174-0.354,0.35-0.659,0.35-0.659s0.09-0.017,0.186-0.11c0.166-0.167,0.201-0.325,0.262-0.487c0.06-0.162,0.125-0.574,0.143-0.678
	c0.017-0.104-0.117-0.335-0.117-0.335s0.213-0.41,0.311-0.844c0.098-0.431,0.092-0.724,0.107-1.109
	c0.016-0.385-0.232-1.175-0.559-1.577c-0.15-0.208-0.283-0.318-0.588-0.479c-0.131-0.066-0.271-0.162-0.451-0.217
	c-0.008-0.048,0.021-0.232-0.082-0.423c-0.148-0.278-0.324-0.513-0.627-0.709C12.949,0.854,12.3,0.78,11.929,1.014
	c-0.396,0.252-0.395,0.322-0.625,0.655c-0.207,0.303-0.108,0.483-0.108,0.483s-0.731,0.382-1.067,0.843
	c-0.291,0.398-0.744,1.014-0.4,2.66l0.176,0.745c0,0-0.085-0.01-0.153,0.153C9.681,6.719,9.726,7.025,9.771,7.21
	c0.047,0.186,0.311,0.553,0.492,0.705c0.18,0.151,0.259,0.086,0.259,0.086s0.188,0.379,0.393,0.755
	c0.048,0.087,0.093,0.166,0.137,0.239l-0.062,0.02c0,0-1.039,0.249-1.327,0.334S8.765,9.691,8.384,9.947
	c-0.375,0.252-0.609,0.491-1.013,0.864c-0.402,0.371-0.786,1.002-0.964,1.285c-0.072,0.115-0.496,0.721-0.775,1.331
	c-0.175,0.384-0.568,1.103-0.65,1.394C4.9,15.11,4.755,15.537,4.755,15.537s-0.037,0.04,0.038,0.108
	c0.075,0.067,0.255,0.16,0.255,0.16s-0.219,0.878-0.3,1.202c-0.081,0.323-0.233,1.156-0.267,1.394
	c-0.035,0.237-0.079,0.833,0.031,1.106c0.109,0.273,0.319,0.445,0.563,0.57c0.37,0.19,0.73,0.107,1.167,0.057
	c0.436-0.051,0.973-0.521,1.258-0.777c0.285-0.255,1.055-1.16,1.055-1.16l0.027,0.292c0,0,0.082,0.596,0.098,0.979
	c0.016,0.382,0.006,1.104,0.021,1.354c0.015,0.25-0.042,0.688-0.042,0.688l-0.096,0.229L8.39,22.05c0,0-0.059,0.262-0.046,0.363
	s0.015,0.221-0.054,0.34C8.222,22.87,7.996,23.21,7.996,23.21s-0.248,0.5-0.397,0.896c-0.149,0.398-0.551,1.576-0.551,1.576
	l-0.404,1.355L5.859,29.45l-0.594,1.887c0,0-0.315,1.045-0.355,1.146c-0.041,0.104-0.02,0.162,0.107,0.213
	c0.126,0.051,0.372,0.162,0.372,0.162l-0.115,0.752l-0.122,1.082l-0.102,0.52l-0.145,0.295c0,0-0.193,0.25-0.252,0.48
	c-0.021,0.088-0.068,0.178-0.084,0.307c-0.025,0.209-0.012,0.455-0.012,0.455l0.045,0.262l-0.111,0.518l-0.338,2.152l-0.569,3.641
	l-0.021,0.117c0,0-0.186,0.111-0.217,0.197c-0.033,0.088,0.003,0.281,0.003,0.281l-0.245,0.227l-0.121,0.375l-0.396,0.588
	l-0.716,0.834c0,0-0.562,0.811-0.707,1.055s-0.396,0.84-0.396,0.84s-0.064,0.322-0.016,0.5c0.049,0.176,0.084,0.283,0.218,0.391
	c0.133,0.107,0.331,0.15,0.331,0.15l0.133,0.064c0,0,0.08,0.023,0.244,0.023c0.165-0.002,0.707-0.08,0.707-0.08l0.139-0.121
	c0,0,0.057,0.08,0.14,0.109c0.082,0.029,0.205-0.121,0.246-0.18c0.04-0.059,0.013-0.176,0.013-0.176l0.264-0.162l0.214-0.148
	c0,0,0.083,0.059,0.138,0.059s0.218-0.119,0.231-0.162c0.013-0.045-0.015-0.191-0.015-0.191l1.046-0.844l0.313-0.248l0.101-0.135
	c0,0,0.146,0.109,0.189,0.098c0.043-0.01,0.111-0.084,0.138-0.158c0.027-0.072,0-0.176,0-0.176l0.178-0.221l0.176-0.223
	c0,0,0.074,0.066,0.11,0.029c0.027-0.029,0.055-0.029,0.095-0.162c0.041-0.133-0.043-0.234-0.043-0.234l0.164-0.375l0.022-0.729
	l-0.069-0.238l0.041-0.08l-0.027-0.164l-0.062-0.391c0,0,0.038-0.104,0.155-0.756c0.119-0.65,0.295-0.975,0.471-1.389
	c0.176-0.41,0.469-1.205,0.469-1.205l0.49-1.443l0.195-0.738l0.049-0.426l0.214-0.355c0,0,0.13-0.295,0.161-0.58
	s-0.014-0.682-0.014-0.682l0.176-0.707c0,0,0.218-0.412,0.421-0.752c0.204-0.338,0.51-0.779,0.51-0.779l0.47,0.111l1.145,0.211
	l0.443-1.611l0.541-1.898l0.242-0.766l0.111,0.123l0.479,1.564l0.437,1.277l0.396,1.277l0.123,0.066l1.662-0.404l0.446,0.807
	l0.348,0.707l0.128,0.703l0.02,0.686l0.154,0.588l0.219,0.291l0.035,0.488l0.189,0.74l0.472,1.453l0.52,1.395l0.392,1.211
	l0.148,0.758c0,0-0.044,0.279-0.066,0.391c-0.023,0.113,0.012,0.246,0.012,0.246l-0.072,0.234c0,0-0.016,0.58,0.014,0.73
	c0.029,0.152,0.348,0.613,0.348,0.613s0.052,0.312,0.061,0.359c0.008,0.045,0.16,0.176,0.188,0.176s0.136-0.088,0.136-0.088
	l0.399,0.41l0.356,0.381c0,0-0.041,0.104-0.026,0.16c0.014,0.061,0.165,0.148,0.192,0.162c0.027,0.016,0.119-0.061,0.119-0.061
	s0.528,0.4,0.677,0.527c0.219,0.191,0.426,0.307,0.426,0.307s-0.027,0.148-0.014,0.193c0.014,0.043,0.151,0.131,0.191,0.131
	c0.042,0,0.138-0.074,0.138-0.074l0.233,0.131c0,0,0.029,0.15,0.057,0.207c0.027,0.059,0.108,0.086,0.163,0.1
	c0.056,0.016,0.147-0.088,0.147-0.088l0.182,0.088c0,0,0.435,0.078,0.562,0.07c0.126-0.006,0.362-0.076,0.362-0.076
	s0.193-0.045,0.332-0.148c0.139-0.102,0.248-0.309,0.262-0.412C23.932,48.195,23.904,48.142,23.876,47.929z"/>
<polygon id="skin-leg-r" fill-rule="evenodd" clip-rule="evenodd" fill="#F9CAA9" points="7.843,33.454 8.783,33.679 8.935,33.741 
	8.424,34.589 8.037,35.269 7.869,35.913 7.025,35.796 6.257,35.607 5.5,35.29 5.712,33.638 5.835,32.952 6.651,33.179 "/>
<path id="goalie-sock-r" fill-rule="evenodd" clip-rule="evenodd" fill="#FFFFFF" d="M7.009,37.603
	c0.098,0.076,0.395,0.039,0.452,0.115c0.057,0.078,0.034,0.576-0.089,0.924c-0.123,0.346-0.496,1.385-0.496,1.385l-0.883,2.23
	l-0.183,0.848l-0.116,0.752L5.5,44.165l-0.256-0.111L4.9,43.669l-0.381-0.287l-0.215-0.066l-0.291-0.033
	c0,0,0.023-0.371,0.062-0.621c0.04-0.25,0.18-1.051,0.254-1.59c0.072-0.539,0.413-2.529,0.467-2.883
	c0.054-0.352,0.082-0.736,0.135-0.869c0.053-0.131,0.3-0.096,0.401-0.1c0.103-0.004,0.144-0.027,0.15-0.111
	s-0.255-0.203-0.392-0.391c-0.137-0.189-0.049-0.525-0.049-0.525s0.141-0.357,0.291-0.402s0.308,0.115,0.606,0.217
	c0.298,0.104,0.655,0.182,1.066,0.25c0.41,0.068,0.694,0.047,0.78,0.156c0.085,0.105,0.092,0.229,0.055,0.422
	c-0.039,0.195-0.098,0.295-0.19,0.363c-0.094,0.066-0.614-0.021-0.675,0.074C6.914,37.37,6.912,37.527,7.009,37.603z"/>
<path fill-rule="evenodd" clip-rule="evenodd" fill="#1A1A18" d="M6.179,34.849c-0.124-0.047-0.164-0.25-0.164-0.25
	s0.004-0.109,0.118-0.088c0.112,0.025,0.472,0.145,0.478,0.201c0.006,0.059,0.021,0.25-0.076,0.25
	C6.439,34.962,6.179,34.849,6.179,34.849z"/>
<path id="goalie-shorts" fill-rule="evenodd" clip-rule="evenodd" fill="#1A1A18" d="M13.994,33.763l-0.166-0.42L12.71,29.82
	l-0.312-1.086l-0.01-0.809c0,0,0.105-0.012,0.383-0.115c0.276-0.104,0.631-0.359,0.795-0.449c0.164-0.088,0.38-0.186,0.428-0.273
	c0.035-0.066-0.396-0.141-0.549-0.088c-0.154,0.053-0.725,0.447-0.802,0.385s-0.222-0.648-0.343-0.781s-0.524-0.291-0.534-0.154
	c-0.011,0.141,0.396,0.67,0.454,0.838c0.059,0.17-0.867,0.031-1.012,0.098c-0.064,0.031-0.116,0.262,0.014,0.299
	c0.128,0.041,0.633,0.078,0.703,0.188c0.068,0.115,0.146,1.35,0.146,1.35l-0.452,1.443l-0.829,3.023l-0.615-0.121l-1.293-0.309
	l-2.1-0.527c0,0-1.121-0.322-1.217-0.338c-0.096-0.012-0.188-0.078-0.151-0.189c0.037-0.109,0.392-1.223,0.392-1.223
	s0.751-2.428,0.896-2.885c0.145-0.455,0.408-1.25,0.621-1.912c0.213-0.664,0.486-1.531,0.486-1.531s0.396-0.988,0.516-1.18
	c0.117-0.191,0.234-0.396,0.354-0.443c0.119-0.043,0.331,0.047,0.637,0.08c0.305,0.035,0.695,0.211,0.768,0.201
	c0.071-0.008-0.004-0.314-0.152-0.439s-0.88-0.209-1.055-0.262c-0.176-0.049-0.139-0.262-0.139-0.262s0.01-0.256,0.136-0.297
	C9,22.015,9.528,22.146,9.708,22.197c0.182,0.049,0.258,0.051,0.439,0.115c0.181,0.064,0.832,0.4,1.089,0.457
	c0.257,0.059,1.169,0.156,1.678,0.184c0.51,0.027,1.212,0.012,1.212,0.012l0.875-0.049l0.548-0.061c0,0,0.537-0.121,0.657-0.105
	c0.119,0.014,0.182,0.131,0.205,0.264c0.025,0.133-0.021,0.221-0.121,0.25s-0.575,0.016-0.575,0.016s-1.063,0.064-1.19,0.109
	s-0.215,0.104-0.219,0.178c-0.003,0.072,0.006,0.131,0.125,0.146c0.119,0.014,1.125,0.055,1.348,0.053
	c0.222,0,0.366-0.076,0.452-0.068c0.085,0.008,0.26,0.021,0.331,0.094c0.072,0.074,0.121,0.146,0.193,0.324
	c0.072,0.174,0.592,1.605,0.592,1.605l0.5,1.652l0.875,3.084c0,0,0.447,1.6,0.503,1.748c0.056,0.146-0.005,0.16-0.249,0.258
	c-0.242,0.096-0.676,0.223-0.676,0.223l-2.379,0.584L13.994,33.763z"/>
<polygon id="skin-leg-l" fill-rule="evenodd" clip-rule="evenodd" fill="#F9CAA9" points="17.009,33.419 16.045,33.644 15.892,33.7 
	16.343,34.525 16.723,35.206 16.885,35.857 17.73,35.747 18.5,35.57 19.259,35.265 19.066,33.609 18.951,32.921 18.133,33.138 "/>
<polygon id="goalie-sock-l" fill-rule="evenodd" clip-rule="evenodd" fill="#FFFFFF" points="17.726,37.556 17.273,37.665 
	17.351,38.587 17.833,39.982 18.691,42.224 18.865,43.075 18.972,43.825 19.166,44.138 19.421,44.031 19.769,43.656 20.152,43.37 
	20.369,43.308 20.66,43.277 20.582,42.575 20.375,40.997 19.966,38.046 19.807,37.304 19.406,37.195 19.257,37.083 19.683,36.681 
	19.708,36.173 19.434,35.669 18.812,35.974 17.744,36.212 16.965,36.29 16.904,36.779 17.089,37.144 17.763,37.228 "/>
<path fill-rule="evenodd" clip-rule="evenodd" fill="#1A1A18" d="M18.387,34.868c0.089,0.035,0.084,0.041,0.199-0.055
	c0.116-0.094,0.165-0.248,0.165-0.248s0.025-0.096-0.115-0.088s-0.45,0.131-0.48,0.195c-0.029,0.064,0.054,0.139,0.054,0.139
	S18.299,34.831,18.387,34.868z"/>
<path id="skin-arm-l" fill-rule="evenodd" clip-rule="evenodd" fill="#F9CAA9" d="M17.713,17.326c0.3-0.168,0.437-0.256,0.437-0.256
	l0.287,0.032l-0.069-0.249l0.054-0.412c0,0,0.423-0.197,0.641-0.286c0.22-0.091,0.616-0.249,0.616-0.249s0.209,0.532,0.333,0.999
	c0.123,0.465,0.238,1.048,0.279,1.352c0.041,0.303,0.113,0.767,0.059,0.909c-0.055,0.145-0.149,0.286-0.342,0.399
	c-0.191,0.114-0.436,0.169-0.553,0.201s-0.211,0.027-0.41-0.042c-0.199-0.07-0.596-0.28-0.886-0.548
	c-0.289-0.268-0.632-0.62-0.839-0.84c-0.206-0.219-0.494-0.537-0.494-0.537S17.414,17.493,17.713,17.326z"/>
<path fill-rule="evenodd" clip-rule="evenodd" fill="#FFFFFF" d="M17.835,15.598l-0.115,0.649l0.045,0.191l0.182,0.043l-0.1,0.226
	l-0.246,0.178l-1.317,0.601c0,0-0.13-0.252-0.104-0.198s-0.027-0.245-0.063-0.265c-0.034-0.02-0.238-0.024-0.287-0.042
	c-0.049-0.02-0.146-0.187-0.194-0.213s-0.257-0.118-0.323-0.167c-0.066-0.05-0.348-0.335-0.441-0.411
	c-0.092-0.077-0.326-0.331-0.49-0.46c-0.166-0.13-0.623-0.387-0.655-0.41c-0.031-0.025-0.114-0.114-0.019-0.275
	c0.095-0.162,0.238-0.206,0.238-0.206l0.994,0.335c0,0,0.083-0.126,0.102-0.219c0.02-0.093-0.036-0.269-0.105-0.578
	c-0.07-0.308-0.145-0.742-0.145-0.742s-0.128-0.377,0.076-0.438c0.282-0.086,0.395,0.412,0.395,0.412l0.394,0.77l0.29-0.063
	l-0.066-1.265c0,0,0.049-0.162,0.228-0.207c0.179-0.044,0.235,0.184,0.235,0.184l0.288,1.214l0.21-0.018l0.233-1.202
	c0,0-0.003-0.109,0.138-0.124s0.196,0.117,0.196,0.117s0.028,0.295,0.036,0.573c0.006,0.222,0.009,0.583,0.009,0.583l0.031,0.175
	l0.12,0.072l0.107-0.344c0,0,0.111-0.15,0.234-0.121c0.123,0.03,0.098,0.24,0.098,0.24L17.835,15.598z"/>
<path id="skin-arm-r" fill-rule="evenodd" clip-rule="evenodd" fill="#F9CAA9" d="M7.433,17.368
	c-0.164-0.106-0.342-0.246-0.342-0.246l-0.396,0.052c0,0,0.134-0.307,0.121-0.366c-0.015-0.059-0.098-0.348-0.098-0.348
	s-0.521-0.237-0.74-0.324c-0.221-0.087-0.493-0.17-0.493-0.17s-0.202,0.521-0.323,1.001c-0.123,0.481-0.228,1.05-0.269,1.354
	c-0.042,0.304-0.105,0.738-0.052,0.91c0.055,0.173,0.208,0.3,0.345,0.396c0.136,0.098,0.604,0.237,0.965,0.151
	c0.362-0.088,0.527-0.211,0.88-0.556c0.354-0.344,1.01-1.062,1.01-1.062l0.312-0.34C8.353,17.82,7.599,17.475,7.433,17.368z"/>
<path id="goalie-shirt" fill-rule="evenodd" clip-rule="evenodd" fill="#962467" d="M19.527,14.292
	c-0.221-0.499-0.566-1.045-0.725-1.372c-0.166-0.346-0.393-0.67-0.645-1.075c-0.238-0.384-0.828-0.955-1.021-1.168
	c-0.266-0.296-0.643-0.56-0.986-0.762c-0.301-0.176-0.816-0.282-1.174-0.37c-0.375-0.092-0.828-0.137-0.828-0.137l-0.402,1.048
	l-0.573,1.269l-0.585,1.121l-0.352-0.773l-0.583-1.295l-0.568-1.403c0,0-0.476,0.082-0.812,0.159
	C9.936,9.611,9.392,9.768,9.119,9.897c-0.275,0.129-0.887,0.576-1.216,0.896c-0.329,0.321-0.97,1.129-1.119,1.38
	c-0.108,0.184-0.265,0.376-0.543,0.908c-0.192,0.368-0.403,0.83-0.62,1.269c-0.184,0.372-0.3,0.908-0.3,0.908
	s-0.03,0.102,0.052,0.145c0.082,0.044,0.212,0.086,0.295,0.126c0.129,0.063,0.529,0.204,0.755,0.302
	c0.225,0.097,0.515,0.24,0.515,0.24l0,0l-0.184-0.997c0,0-0.15-0.796-0.14-0.993s0.042-0.332,0.081-0.441s0.15-0.203,0.245-0.209
	c0.093-0.004,0.383,0.074,0.383,0.074s-0.026-0.307,0.006-0.436s0.086-0.271,0.235-0.395c0.162-0.136,0.397-0.142,0.479-0.119
	c0.157,0.042,0.414,0.249,0.414,0.249s0.014-0.157,0.176-0.265c0.162-0.105,0.49-0.239,0.697-0.138
	c0.178,0.089,0.33,0.508,0.33,0.508s0.207-0.203,0.355-0.27c0.149-0.064,0.262-0.126,0.438-0.06c0.178,0.066,0.4,0.429,0.387,0.645
	c-0.015,0.215-0.093,0.763-0.093,0.763l-0.094,0.518l0.22-0.061c0,0,0.301-0.062,0.49-0.022c0.191,0.039,0.443,0.331,0.469,0.488
	c0.027,0.156,0.082,0.436,0.042,0.509c-0.04,0.075-0.187,0.233-0.366,0.36c-0.18,0.128-0.438,0.295-0.643,0.469
	c-0.207,0.172-0.461,0.497-0.666,0.684c-0.207,0.186-0.355,0.251-0.452,0.334c-0.097,0.084-0.325,0.129-0.367,0.227
	c-0.042,0.099-0.062,0.389-0.157,0.413c-0.098,0.025-0.246,0.031-0.268,0.044c-0.021,0.012-0.032,0.124-0.02,0.223
	c0.014,0.099,0.085,0.516,0.1,0.692c0.014,0.176,0.047,0.827,0.062,1.166c0.016,0.338-0.021,0.772-0.021,1.022
	c0.001,0.248-0.052,0.539-0.052,0.539h0.178l0.425,0.086c0,0,0.233,0.059,0.343,0.072c0.049,0.006,0.096,0.014,0.123-0.25
	c0.014-0.15-0.031-0.561-0.019-0.927c0.003-0.106-0.03-0.305,0.162-0.428c0.164-0.102,0.298-0.129,0.37,0.132
	c0.111,0.397,0.113,0.631,0.101,0.985c-0.013,0.352-0.065,0.588,0.03,0.705c0.039,0.047,0.479,0.291,1.109,0.393
	c0.625,0.1,0.973,0.158,1.164,0.158c0.191-0.002,1.334-0.02,1.701-0.029s1.31-0.131,1.393-0.146
	c0.082-0.016,0.137-0.059,0.135-0.221c0-0.162-0.079-1.395-0.08-1.673c-0.002-0.279,0.021-1.354,0.021-1.604
	c-0.002-0.249,0.111-0.736,0.11-0.824s-0.185-0.039-0.231-0.072c-0.05-0.035-0.188-0.432-0.226-0.48
	c-0.038-0.048-0.216-0.175-0.381-0.297c-0.167-0.122-0.32-0.171-0.522-0.321c-0.201-0.152-0.404-0.416-0.588-0.566
	c-0.181-0.15-0.575-0.433-0.688-0.511c-0.111-0.079-0.343-0.278-0.373-0.386c-0.029-0.109-0.027-0.246-0.002-0.398
	c0.027-0.151,0.206-0.305,0.301-0.397c0.094-0.093,0.164-0.128,0.383-0.147c0.217-0.021,0.534,0.047,0.534,0.047L14.4,13.972
	l-0.099-0.763c0,0-0.002-0.271,0.094-0.441c0.056-0.101,0.124-0.174,0.287-0.209c0.163-0.033,0.315-0.011,0.438,0.059
	c0.123,0.067,0.356,0.263,0.356,0.263s0.019-0.191,0.108-0.299c0.108-0.134,0.176-0.192,0.436-0.252
	c0.109-0.021,0.357,0.021,0.481,0.135c0.122,0.112,0.257,0.243,0.257,0.243s0.117-0.127,0.207-0.205
	c0.092-0.079,0.241-0.073,0.34-0.061c0.099,0.014,0.359,0.16,0.414,0.308c0.056,0.146,0.086,0.66,0.086,0.66
	s0.261-0.058,0.396-0.016c0.137,0.043,0.317,0.279,0.332,0.639c0.014,0.358-0.268,1.786-0.228,1.595s-0.079,0.395-0.079,0.395l0,0
	c0,0,0.559-0.234,0.846-0.354s0.613-0.271,0.723-0.328c0.111-0.058,0.138-0.102,0.083-0.22
	C19.824,15.004,19.719,14.726,19.527,14.292z"/>
<path fill-rule="evenodd" clip-rule="evenodd" fill="#FFFFFF" d="M7.326,15.642l0.119,0.647l-0.043,0.192L7.293,16.63l0.138,0.181
	l0.632,0.379l0.808,0.345c0,0,0.086-0.138,0.124-0.216c0.039-0.077,0.061-0.266,0.061-0.266s0.187-0.01,0.286-0.045
	c0.102-0.034,0.193-0.214,0.193-0.214s0.176-0.075,0.322-0.17s0.438-0.415,0.438-0.415s0.285-0.319,0.488-0.464
	c0.201-0.146,0.65-0.416,0.65-0.416s0.084-0.099,0.015-0.319c-0.05-0.156-0.237-0.16-0.237-0.16s-0.908,0.347-0.993,0.344
	c-0.083-0.002-0.103-0.218-0.103-0.218s0.064-0.302,0.112-0.579c0.054-0.309,0.127-0.743,0.127-0.743s0.065-0.388-0.05-0.433
	c-0.15-0.058-0.244,0.068-0.244,0.068l-0.178,0.343l-0.387,0.773l-0.289-0.062l0.055-1.265c0,0-0.039-0.191-0.203-0.191
	c-0.165,0.001-0.262,0.172-0.262,0.172l-0.277,1.216L8.31,14.26l-0.242-1.2c0,0-0.086-0.153-0.201-0.122
	c-0.115,0.03-0.137,0.104-0.137,0.104l-0.029,0.587l-0.004,0.583l-0.029,0.176L7.548,14.46l-0.11-0.344c0,0-0.073-0.148-0.21-0.104
	c-0.137,0.046-0.121,0.227-0.121,0.227L7.326,15.642z"/>
<path id="hair-p" fill="#F7DD7F" d="M13.66,1.862c0,0-0.285-0.729-1.072-0.744c-0.754-0.014-1.093,0.697-1.093,0.697
	s0.344-0.344,1.035-0.331C13.285,1.498,13.66,1.862,13.66,1.862z"/>
<path fill="#FFFFFF" d="M13.625,2.108c0,0-0.384-0.351-1.105-0.361c-0.609-0.013-1.025,0.371-1.025,0.371s0.488-0.171,1.049-0.162
	C13.085,1.966,13.625,2.108,13.625,2.108z"/>
<path id="hair" fill-rule="evenodd" clip-rule="evenodd" fill="#F7DD7F" d="M10.699,5.44c0.009,0,0.122,0.111,0.129,0.092
	c0.158-0.381,0.164-0.938,0.082-1.367c-0.022-0.115,0.221,0.171,0.272,0.624c0.053,0.454-0.046,0.658-0.046,0.658
	s1.236-1.746,1.232-1.707c-0.068,0.707-0.352,0.722-0.906,1.67c-0.035,0.106,1.35-1.395,1.474-1.634
	c0.121-0.023,0.152,0.232-1.235,1.723c-0.094,0.122,1.745-1.188,1.817-1.301c0.067-0.107-0.204,0.272-1.077,1.049
	c-0.09,0.081,1.56-0.29,1.773-1.42c0.01-0.058,0.188,0.048,0.201,0.798c0.008,0.533,0.174,1.511,0.188,1.413
	c0.022-0.136,0.145-0.223,0.299,0.182c0.063-0.082,0.234-0.636,0.346-1.387c0.07-0.728-0.207-1.504-0.606-1.917
	c-0.286-0.283-0.788-0.567-1.683-0.65c-0.777-0.075-1.156-0.025-1.723,0.206c-0.547,0.259-0.861,0.597-1.016,0.832
	S9.863,3.859,9.888,4.588c0,0.544,0.201,1.307,0.283,1.548c0.067,0.197,0.186,0.406,0.168,0.349
	c-0.139-0.441,0.017-0.669,0.002-0.792c-0.02-0.182,0.23,0.401,0.223,0.213C10.542,5.476,10.699,5.44,10.699,5.44z"/>
<path id="skin-face" fill-rule="evenodd" clip-rule="evenodd" fill="#F9CAA9" d="M14.638,6.364c-0.119,0.01-0.135,0.343-0.135,0.343
	s-0.177-0.519-0.219-0.752c-0.043-0.234-0.104-0.357-0.131-0.72c-0.039-0.526-0.07-0.512-0.07-0.512s-0.154,0.241-0.662,0.521
	c-0.07,0.057-0.68,0.276-0.861,0.301c-0.184,0.027-0.288-0.068-0.363-0.023l-0.31,0.205c-0.093,0.081-0.327,0.043-0.327-0.021
	c0.002-0.052-0.139,0.001-0.184-0.056c-0.037-0.014-0.268,0.146-0.303,0.12c-0.025-0.074-0.025-0.103-0.025-0.103l-0.057,0.283
	l-0.143-0.093c0,0-0.049,0.104-0.061,0.271c0.006,0.178-0.072,0.361-0.072,0.361l-0.133-0.127l0.006,0.854
	c0,0-0.168-0.142-0.268-0.281c-0.101-0.143-0.17-0.285-0.17-0.285s-0.125,0.075-0.116,0.222c0.021,0.319,0.308,0.686,0.435,0.792
	c0.066,0.057,0.223,0,0.223,0l0.059,0.119c0,0,0.265,0.565,0.569,1.058c0.294,0.431,0.709,0.962,1.262,0.971
	c0.565,0.01,0.917-0.45,1.262-0.927c0.303-0.473,0.535-1.055,0.535-1.055s0.284-0.099,0.366-0.374
	c0.1-0.334,0.176-0.533,0.136-0.719C14.841,6.55,14.757,6.353,14.638,6.364z M13.044,6.172c0.135-0.006,0.236,0.078,0.713-0.06
	l-0.771,0.263C12.986,6.375,12.773,6.187,13.044,6.172z M12.71,7.626l0.127,0.096c0,0-0.146,0.048-0.24,0.023
	C12.666,7.723,12.71,7.626,12.71,7.626z M12.599,8.301l0.088,0.073c-0.061,0.021-0.104,0.099-0.232,0.019
	C12.431,8.319,12.519,8.3,12.599,8.301z M12.298,7.617l0.158,0.126l-0.125,0.02l-0.108-0.039l-0.026-0.018L12.298,7.617z
	 M12.057,6.187c0.272,0.022,0.052,0.202,0.052,0.202l-0.764-0.288C11.818,6.258,11.921,6.177,12.057,6.187z M11.552,6.666
	l-0.039-0.02l-0.229,0.01l-0.377-0.197l0.483,0.027c0.051,0.003,0.398-0.045,0.57-0.018c0.263,0.042,0.267,0.243,0.267,0.243
	s0.024,0.215-0.067,0.236c-0.033,0.009,0.083-0.115-0.062-0.248c-0.023-0.021-0.127,0.093-0.19,0.1
	c-0.173,0.028-0.22-0.001-0.22-0.001C11.501,6.722,11.552,6.666,11.552,6.666z M12.933,8.696C12.838,8.7,12.601,8.72,12.601,8.72
	s-0.105,0.14-0.051,0.141c0.074,0.003,0.188,0.021,0.188,0.021l0.008,0.077l-0.138,0.047c0,0-0.259,0.002-0.29-0.115
	c-0.016-0.062,0.03-0.165,0.03-0.165s-0.083-0.047-0.142-0.066c-0.131-0.05-0.357-0.034-0.357-0.034l-0.166-0.086
	c0,0,0.077-0.01,0.107-0.018c0.102-0.034,0.227,0.004,0.369-0.003c0.148-0.005,0.178-0.191,0.375-0.032
	c0.056,0.044,0.103-0.026,0.225,0.012c0.122,0.037,0.27,0.01,0.27,0.01s0.355-0.034,0.284,0.025
	C13.228,8.607,13.074,8.686,12.933,8.696z M13.857,6.702l-0.229-0.018l-0.039,0.018c0,0,0.05,0.059-0.143,0.128
	c0,0-0.048,0.027-0.219-0.006c-0.063-0.01-0.164-0.127-0.187-0.107c-0.149,0.128-0.037,0.256-0.07,0.246
	c-0.092-0.025-0.059-0.238-0.059-0.238s0.011-0.2,0.275-0.232c0.172-0.022,0.518,0.038,0.567,0.036l0.485-0.01L13.857,6.702z"/>
<path id="skin-neck" fill-rule="evenodd" clip-rule="evenodd" fill="#F9CAA9" d="M12.629,11.956l-0.918-2.132
	c0,0,0.259,0.328,0.892,0.34c0.618,0.012,0.89-0.332,0.89-0.332L12.629,11.956z"/>
</svg>
