<?xml version="1.0" encoding="utf-8"?>
<!-- Generator: Adobe Illustrator 16.0.4, SVG Export Plug-In . SVG Version: 6.00 Build 0)  -->
<!DOCTYPE svg PUBLIC "-//W3C//DTD SVG 1.1//EN" "http://www.w3.org/Graphics/SVG/1.1/DTD/svg11.dtd">
<svg version="1.1" id="Ebene_1" xmlns="http://www.w3.org/2000/svg" xmlns:xlink="http://www.w3.org/1999/xlink" x="0px" y="0px"
	 width="28.124px" height="49.993px" viewBox="0 0 28.124 49.993" enable-background="new 0 0 28.124 49.993" xml:space="preserve">
<path fill-rule="evenodd" clip-rule="evenodd" fill="#1A1A18" d="M27.435,23.864l-0.423-0.515c0,0-0.744-0.679-0.945-0.883
	c-0.201-0.203-0.656-0.399-0.656-0.399l-0.085-0.096l0.222-0.253c0,0-0.023-0.323-0.146-0.485c-0.124-0.161-0.328-0.232-0.328-0.232
	l-0.249,0.056c0,0-0.36,0.126-0.509,0.188c-0.146,0.062-0.383,0.025-0.367-0.021c0.016-0.049-0.107-0.225-0.299-0.401
	c-0.191-0.176-0.371-0.186-0.439-0.137s-0.113,0.093-0.113,0.093l-0.003,0.006c-0.371-0.39-0.665-0.712-0.868-0.95
	c-0.451-0.536-1.041-1.342-1.041-1.342s-0.752-1.04-0.998-1.394c-0.246-0.353-0.562-0.794-0.562-0.794s0.05-0.088,0.099-0.152
	c0.05-0.062,0.064-0.062,0.024-0.199c-0.089-0.311-0.3-0.924-0.335-1.045c-0.044-0.152-0.225-0.666-0.344-1.078
	c-0.121-0.41-0.297-0.984-0.391-1.312s-0.396-1.139-0.5-1.359c-0.107-0.22-0.396-0.658-0.516-0.812
	c-0.12-0.154-0.336-0.408-0.578-0.578c-0.217-0.15-0.75-0.513-0.865-0.592c0.053-0.064,0.102-0.128,0.144-0.185
	c0.328-0.047,0.399-0.047,0.641-0.234c0.317-0.434,0.578-0.875,0.719-1.297c0.125-0.422,0.216-0.793,0.219-1.281
	c0.001-0.186-0.044-0.386-0.075-0.637c0.172-0.084,0.203-0.087,0.203-0.087l-0.213-0.008c-0.004-0.025,0.025-0.08,0.021-0.105
	c-0.034-0.108,0.192-0.806,0.251-0.804c0.625,0,0.92-0.087,0.828-0.141c-0.094-0.125-0.11-0.234-0.109-0.234
	c0.286,0.018,0.458-0.141,0.078-0.391c-0.25-0.25-0.29-0.317-0.547-0.688c-0.422-0.609-0.567-0.989-1.234-1.438
	c-0.396-0.267-1.087-0.488-1.61-0.531C15.1,1.08,14.715,1.148,14.299,1.271c-0.066-0.037-0.141-0.074-0.233-0.093
	c-0.046-0.035-0.093-0.071-0.131-0.119c-0.286-0.365-0.722-0.475-1.197-0.459c-0.377,0.013-0.81,0.165-1.031,0.609
	c-0.261,0.521-0.229,0.913-0.325,1.628c-0.049,0.369-0.11,0.904-0.159,1.294c-0.047,0.375-0.16,0.854-0.203,1.109
	c-0.091,0.539-0.163,0.799-0.172,1.062c-0.014,0.381,0.011,0.559,0.125,0.844c0.146,0.363,0.632,0.467,0.632,0.467
	s-0.053-0.128-0.08-0.186c0.044,0.072,0.305,0.361,0.413,0.266c0.077-0.07,0.032-0.43,0.032-0.43
	c0.111,0.254,0.301,0.312,0.492,0.381c0.174,0.064,0.143-0.349,0.143-0.349c0.111,0.144,0.143,0.222,0.349,0.222
	c-0.021-0.154,0.13-0.363,0.06-0.671c0.16,0.153,0.379,0.337,0.679,0.503c-0.007,0.236-0.163,0.73-0.278,1.045l-0.047,0.044
	c0,0-0.738,0.154-1.062,0.25c-0.325,0.098-1.125,0.354-1.344,0.516c-0.115,0.085-0.506,0.293-0.906,0.656
	c-0.359,0.326-0.734,0.805-0.828,0.969c-0.201,0.348-1.08,1.874-1.08,1.874l-0.552,1.014c0,0-0.15,0.265-0.245,0.44
	c-0.08,0.146,0,0.251,0,0.251l0.164,0.146l-0.411,0.771c0,0-1.657,3.242-1.985,3.889c-0.285,0.562-1.041,2.017-1.237,2.396
	c-0.027-0.002-0.058-0.004-0.088-0.014c-0.078-0.024-0.246,0.043-0.38,0.274c-0.131,0.23-0.199,0.438-0.171,0.479
	s-0.187,0.152-0.344,0.142c-0.158-0.012-0.538-0.013-0.538-0.013l-0.252,0.027c0,0-0.176,0.135-0.246,0.33
	c-0.072,0.193-0.004,0.508-0.004,0.508l0.283,0.17l-0.053,0.118c0,0-0.379,0.336-0.512,0.597C1.44,24.489,0.925,25.38,0.925,25.38
	s-0.271,0.471-0.258,0.628c0.014,0.158,0.044,0.357,0.17,0.505c0.125,0.148,0.316,0.077,0.316,0.077s-0.074,0.189-0.021,0.418
	c0.053,0.228,0.16,0.347,0.262,0.41c0.102,0.064,0.288-0.012,0.288-0.012l0.128,0.315c0,0,0.174,0.167,0.381,0.167
	c0.206,0,0.42-0.194,0.42-0.194s0.088,0.087,0.248,0.047c0.16-0.039,0.316-0.128,0.316-0.128l0.219-0.258l0.372-0.963l0.519-0.968
	l0.199-0.422l0.316-0.58l0.22-0.516l0.192-0.201c0,0,0.197-0.19,0.243-0.4c0.035-0.162,0.026-0.408,0.019-0.516l0.637-0.957
	l2.398-3.278l0.592-0.775c0,0,0.011,0.143,0.011,0.379c0,0.234-0.085,1.488-0.085,1.488s-0.12,1.569-0.106,1.702
	c0.014,0.132,0.014,0.396-0.027,0.47c-0.081,0.144-0.065,0.162-0.108,0.324c-0.043,0.161-0.089,0.624-0.059,0.716
	c0.029,0.092,0.104,0.326,0.104,0.326s-0.08,0.196-0.131,0.349c-0.066,0.196-0.094,0.404-0.094,0.549
	c0,0.148,0.031,0.574,0.027,0.765c-0.003,0.189-0.438,3.705-0.492,4.367c-0.055,0.661-0.238,2.501-0.238,2.501l-0.119,1.084
	c0,0-0.088,0.46,0.053,0.501c0.141,0.045,0.615,0.111,0.615,0.111l0.104,0.661l0.062,0.529c0,0-0.208,0.127-0.287,0.242
	c-0.079,0.118-0.086,0.443-0.103,0.64c-0.018,0.199,0.015,0.304-0.016,0.456c-0.029,0.154-0.27,0.45-0.361,0.662
	c-0.093,0.213-0.387,1.459-0.445,1.836c-0.057,0.376-0.113,1.237-0.161,1.6c-0.047,0.364-0.142,1.686-0.218,1.994
	c-0.076,0.311-0.232,0.926-0.232,0.926s-0.156,0.289-0.199,0.458c-0.043,0.168-0.008,0.907-0.008,0.907s0.033,0.129,0.021,0.25
	c-0.014,0.121-0.105,0.433-0.143,0.562c-0.035,0.133-0.332,1.686-0.348,1.908C6.102,47.266,6.088,47.807,6.102,48
	c0.014,0.193,0.182,0.707,0.246,0.84c0.064,0.131,0.254,0.166,0.291,0.193s0.045,0.192,0.082,0.25
	c0.037,0.057,0.304,0.088,0.355,0.071c0.052-0.015,0.064-0.167,0.064-0.167l1.025,0.007c0,0,0.016,0.116,0.07,0.175
	s0.356,0,0.424-0.029c0.069-0.029,0.113-0.206,0.113-0.206s0.092-0.029,0.249-0.132c0.158-0.104,0.169-0.342,0.218-0.531
	c0.051-0.189,0.053-0.423,0.078-0.733c0.023-0.311-0.145-1.24-0.148-1.496c-0.003-0.254,0-1.236,0-1.236s0.004-0.189,0.041-0.265
	c0.038-0.076,0.125-0.252,0.135-0.34c0.01-0.09,0.035-0.229,0.027-0.441c-0.009-0.215-0.125-0.399-0.117-0.554
	c0.008-0.152,0.205-0.704,0.346-1.089c0.141-0.386,0.504-1.4,0.664-1.922c0.16-0.522,0.311-0.89,0.489-1.479
	c0.175-0.58,0.343-1.103,0.384-1.411c0.01-0.08-0.045-0.265-0.014-0.309c0.03-0.046,0.143-0.057,0.242-0.191
	c0.1-0.132,0.174-0.425,0.205-0.64c0.031-0.213,0.038-0.284,0.041-0.463c0.004-0.177-0.023-0.362-0.01-0.425
	c0.014-0.061,0.441-0.884,0.441-0.884l0.457-0.797c0,0,0.184,0.019,0.703,0.019s0.643-0.016,0.752-0.074
	c0.032-0.017,0.037-0.165,0.041-0.279c0.014-0.353,0.018-0.713,0.018-0.713l0.246,0.941c0,0,0.147,0.051,0.271,0.08
	c0.124,0.029,1.04-0.176,1.04-0.176s0.359,0.529,0.451,0.749c0.094,0.219,0.18,0.589,0.18,0.589s-0.211,0.261-0.278,0.506
	c-0.065,0.244-0.072,0.524-0.041,0.685c0.03,0.162,0.092,0.297,0.102,0.375c0.01,0.08-0.186,0.312-0.266,0.552
	c-0.121,0.352-0.254,1.109-0.326,1.499c-0.072,0.388-0.15,1.309-0.219,1.926c0,0.001,0,0.001,0,0.001l-0.005,0.003
	c-0.068,0.618-0.15,1.456-0.206,1.823c-0.055,0.367-0.026,0.456-0.096,0.529c-0.031,0.034-0.071,0.055-0.109,0.08
	c-0.002,0.001-0.002,0.002-0.004,0.003c-0.043,0.029-0.085,0.065-0.115,0.136l0.014,0.002l-0.186,0.514l0.084,0.354
	c0,0-0.099,0.564-0.042,0.709c0.056,0.144,0.705,0.633,0.705,0.633s0.107,0.299,0.124,0.343c0.016,0.044,0.188,0.146,0.215,0.142
	c0.027-0.006,0.119-0.112,0.119-0.112l0.465,0.333l0.42,0.311c0,0-0.021,0.108,0.002,0.164c0.025,0.055,0.188,0.114,0.219,0.123
	c0.029,0.01,0.105-0.08,0.105-0.08s0.592,0.299,0.76,0.398c0.251,0.148,0.297,0.04,0.297,0.04s0,0.149,0.021,0.19
	s0.172,0.104,0.213,0.096c0.04-0.008,0.121-0.098,0.121-0.098l0.252,0.088c0,0,0.056,0.143,0.093,0.194
	c0.036,0.051,0.122,0.064,0.179,0.069c0.057,0.004,0.129-0.113,0.129-0.113l0.195,0.053c0,0,0.441-0.001,0.564-0.029
	c0.124-0.028,0.344-0.141,0.344-0.141s0.182-0.078,0.301-0.204c0.117-0.126,0.188-0.349,0.182-0.452
	c-0.004-0.104-0.04-0.15-0.106-0.354c-0.065-0.204-0.191-0.373-0.377-0.623c-0.146-0.195-0.896-0.969-0.896-0.969l-0.905-0.846
	l-0.363-0.291l0.02,0.003l-0.003-0.005l0.009,0.001l-0.347-0.575l-0.211-0.239c0,0,0.103-0.422,0.243-0.953
	c0.164-0.617,0.686-2.544,0.781-2.911c0.096-0.368,0.205-0.72,0.273-1.073c0.068-0.353,0.076-0.553,0.076-0.553
	s0.152-0.075,0.225-0.197c0.123-0.205,0.182-0.672,0.205-0.955c0.055-0.647-0.096-0.823-0.096-0.823s-0.017,0.029,0.123-0.279
	c0.141-0.312,0.24-0.983,0.271-1.323c0.029-0.339-0.113-1.004-0.113-1.004s0.135-0.071,0.226-0.113
	c0.091-0.043,0.082-0.045,0.069-0.191c-0.015-0.146-0.677-2.497-0.677-2.497l-0.932-3.259l-0.642-2.029l-0.363-1.022l-0.215-0.295
	l0.075-0.224l-0.126-0.533l-0.185-0.312l-0.005-0.44l0.025-1.868l0.2-1.865l-0.003-0.132c0,0,0.104,0.194,0.16,0.28
	c0.057,0.084,0.059,0.078,0.174,0.029s0.279-0.166,0.279-0.166s0.562,0.867,0.863,1.206c0.301,0.338,1.063,1.026,1.063,1.026
	s1.16,1,1.643,1.412c0.364,0.312,0.798,0.667,0.987,0.821c0.032,0.136,0.083,0.315,0.145,0.424c0.104,0.186,0.345,0.302,0.345,0.302
	l0.24,0.129l0.356,0.421l0.465,0.448l0.31,0.335l0.769,0.753l0.627,0.795l0.283,0.176c0,0,0.172,0.033,0.336,0.018
	c0.165-0.014,0.224-0.126,0.224-0.126s0.259,0.115,0.456,0.048c0.196-0.068,0.313-0.284,0.313-0.284l0.032-0.343
	c0,0,0.201,0.013,0.279-0.082s0.146-0.241,0.133-0.478c-0.014-0.234-0.139-0.39-0.139-0.39s0.203,0.004,0.279-0.178
	C27.495,24.219,27.435,23.864,27.435,23.864z"/>
<polygon id="skin-leg-r" fill="#F9CAA9" points="11.043,35.208 10.051,34.958 9.092,34.572 9.066,34.293 9.031,34.028 8.929,33.388 
	10.215,33.563 11.497,33.68 12.055,33.71 11.61,34.64 11.316,35.085 "/>
<polygon fill-rule="evenodd" clip-rule="evenodd" fill="#1A1A18" points="10.6,34.26 10.424,34.21 10.361,34.087 10.307,33.953 
	10.767,33.986 10.797,34.215 10.6,34.26 "/>
<path id="goalie-sock-r" fill-rule="evenodd" clip-rule="evenodd" fill="#FFFFFF" d="M10.836,36.844
	c-0.095,0.044-0.369,0.009-0.457,0.033c-0.089,0.025-0.081,0.069-0.023,0.194c0.057,0.125,0.367,0.25,0.369,0.379
	c0.003,0.129-0.131,0.78-0.276,1.226c-0.146,0.446-0.556,1.74-0.556,1.74l-0.852,2.516c0,0-0.219,0.614-0.237,0.776
	c-0.02,0.163-0.028,0.47-0.052,0.58C8.729,44.4,8.746,44.57,8.629,44.566c-0.119-0.004-0.22-0.343-0.311-0.445
	c-0.205-0.235-0.588-0.177-0.738-0.044c-0.082,0.071-0.197,0.442-0.287,0.456c-0.092,0.012-0.002,0.059-0.11-0.045
	s-0.04-0.513-0.042-0.588c0-0.077,0.085-0.603,0.077-0.698s0.128-0.745,0.128-0.745s0.056-0.232,0.138-0.659
	c0.082-0.426,0.288-2.808,0.369-3.323c0.083-0.514,0.206-0.999,0.302-1.352c0.096-0.354,0.232-0.516,0.301-0.545
	s0.229,0.062,0.229,0.062s0.117,0,0.227-0.062c0.11-0.061,0.035-0.158,0.024-0.189c-0.011-0.032-0.192-0.256-0.26-0.438
	c-0.069-0.18-0.038-0.68,0.026-0.754c0.064-0.073,0.135-0.111,0.261-0.132c0.124-0.021,0.185-0.004,0.315,0.044
	c0.205,0.074,0.749,0.266,0.922,0.316c0.172,0.051,0.544,0.156,0.639,0.17s0.191,0.029,0.273,0.102
	c0.08,0.072,0.084,0.304,0.041,0.501c-0.045,0.195-0.045,0.348-0.133,0.475C10.933,36.799,10.932,36.799,10.836,36.844z"/>
<path id="goalie-shirt" fill-rule="evenodd" clip-rule="evenodd" fill="#962467" d="M11.281,14.969l-0.663,1.075
	c0,0-0.056,0.085-0.124,0.1c-0.076,0.014-0.168-0.045-0.204-0.061c-0.069-0.029-0.521-0.322-0.972-0.646
	c-0.453-0.324-1.008-0.739-1.008-0.739s-0.361-0.275-0.539-0.422c-0.039-0.033-0.006-0.107,0.081-0.279
	c0.141-0.278,0.393-0.716,0.521-0.956c0.273-0.515,0.638-1.132,0.638-1.132s0.181-0.354,0.408-0.757
	c0.228-0.405,0.54-0.681,0.665-0.839c0.172-0.219,0.533-0.53,0.703-0.625c0.297-0.168,0.717-0.418,0.922-0.484
	c0.205-0.064,0.582-0.181,0.844-0.25c0.261-0.067,0.688-0.172,0.688-0.172l0.344,0.625l0.598,1.086l0.496,0.883l0.484,0.891
	c0,0,0.257-0.69,0.359-0.984c0.125-0.359,0.28-0.782,0.359-1.078c0.077-0.298,0.235-0.641,0.235-0.641s0.232,0.089,0.389,0.199
	c0.232,0.162,0.33,0.213,0.486,0.342s0.41,0.441,0.516,0.568c0.104,0.127,0.344,0.496,0.422,0.688s0.197,0.532,0.266,0.734
	c0.068,0.203,0.27,0.834,0.359,1.156c0.09,0.326,0.219,0.719,0.344,1.156c0.162,0.567,0.361,1.149,0.386,1.25
	c0.044,0.18,0.04,0.225-0.027,0.309c-0.097,0.117-0.177,0.18-0.233,0.236c-0.246,0.234-0.594,0.532-0.844,0.729
	c-0.251,0.195-0.552,0.387-0.82,0.505c-0.117,0.052-0.132-0.002-0.137-0.09c-0.006-0.087,0.009-0.439,0.035-0.792
	c0.027-0.353,0.096-1.426,0.109-1.676s-0.02-0.612-0.07-0.69c-0.039-0.061-0.135-0.119-0.141,0.035
	c-0.008,0.154-0.285,1.883-0.345,2.106c-0.06,0.225-0.265,1.062-0.333,1.503c-0.069,0.441-0.16,1.466-0.178,1.765
	c-0.02,0.3-0.054,1.323-0.054,1.323l-0.042,0.999c0,0,0.035,0.159-0.121,0.204c-0.154,0.047-0.34,0.096-0.538,0.119
	c-0.307,0.037-1.291,0.139-1.629,0.148c-0.336,0.008-1.49-0.058-1.764-0.119c-0.275-0.059-0.998-0.336-1.253-0.418
	c-0.254-0.081-0.909-0.212-1.026-0.221c-0.117-0.007-0.375-0.05-0.452-0.044c-0.075,0.007-0.072-0.279-0.081-0.239
	c-0.008,0.04,0.123-1.988,0.123-1.988s0.089-1.968,0.164-2.161c0.074-0.191,0.307-0.612,0.382-0.646
	c0.075-0.031,0.294,0.166,0.411,0.191c0.115,0.028,0.323-0.088,0.438-0.142c0.116-0.051,0.235-0.319,0.335-0.522
	c0.15-0.308,0.466-0.952,0.548-1.153c0.081-0.198,0.3-0.708,0.294-0.8c-0.008-0.09-0.188,0-0.256,0.051
	C11.713,14.232,11.281,14.969,11.281,14.969z"/>
<path id="goalie-shorts" fill-rule="evenodd" clip-rule="evenodd" fill="#1A1A18" d="M14.368,32.609
	c-0.076-0.287-0.167-0.54-0.205-0.735c-0.042-0.205-0.075-0.521-0.068-0.75c0.005-0.228,0.066-3.097,0.067-3.32
	c0.001-0.223-0.054-0.336,0.014-0.412c0.069-0.074,0.715-0.603,0.871-0.655c0.156-0.052,0.305-0.156,0.285-0.186
	c-0.02-0.027-0.42-0.079-0.555-0.031c-0.135,0.047-0.135,0.055-0.23,0.14c-0.096,0.084-0.493,0.365-0.535,0.319
	c-0.041-0.044,0.179-0.773,0.158-0.91c-0.021-0.133-0.371-0.626-0.387-0.549c-0.018,0.077,0.025,1.134-0.057,1.193
	c-0.084,0.061-0.631,0.001-0.625,0.097c0.008,0.096,0.01,0.206,0.111,0.275c0.102,0.07,0.297,0.139,0.398,0.236
	c0.101,0.099,0.191,0.607,0.191,0.607l-0.105,3.159l-0.085,2.101c0,0,0.017,0.176-0.1,0.172c-0.116-0.002-1.671-0.008-1.671-0.008
	l-1.68-0.174c0,0-1.844-0.228-1.926-0.251c-0.082-0.024-0.037-0.193-0.037-0.193s0.16-1.433,0.242-2.506s0.396-3.485,0.452-4.132
	c0.055-0.646,0.173-1.231,0.173-1.231l-0.022-0.797c0,0,0.135-0.785,0.272-0.813c0.139-0.025,0.645,0.029,0.871,0.031
	c0.225,0.002,0.572-0.205,0.494-0.286c-0.078-0.079-0.871-0.248-1.021-0.237c-0.15,0.012-0.382,0.031-0.467-0.003
	c-0.082-0.037-0.016-0.352-0.016-0.352s0.006-0.305,0.121-0.359c0.114-0.054,0.441-0.012,0.441-0.012l0.912,0.172l1.314,0.44
	c0,0,0.854,0.148,1.238,0.143c0.383-0.003,1.675-0.08,1.98-0.101c0.305-0.021,1.053-0.156,1.145-0.14
	c0.091,0.017,0.207,0.279,0.178,0.36c-0.031,0.083-0.536,0.022-0.64,0.052c-0.104,0.031-0.23,0.034-0.229,0.092
	c0.002,0.057,0.445,0.165,0.573,0.228c0.128,0.064,0.422,0.248,0.474,0.377s0.528,1.534,0.618,1.866
	c0.09,0.335,0.818,2.813,0.818,2.813l0.664,2.34c0,0,0.25,0.931,0.318,1.194c0.068,0.265,0.115,0.333-0.024,0.401
	c-0.14,0.07-0.235,0.084-0.632,0.188c-0.397,0.103-1.368,0.338-1.807,0.44c-0.439,0.104-1.477,0.32-1.904,0.39
	c-0.058,0.01-0.094,0.015-0.101,0.015c-0.025-0.004-0.053-0.061-0.08-0.143C14.513,33.036,14.444,32.896,14.368,32.609z"/>
<path fill-rule="evenodd" clip-rule="evenodd" fill="#1A1A18" d="M11.262,19.525c0.275,0.062,0.733-0.019,0.935,0.094
	c0.201,0.111,0.812,0.688,0.924,0.707c0.112,0.021,0.462,0.079,0.485-0.031c0.023-0.107-0.702-0.736-0.906-0.863
	c-0.205-0.127-0.889-0.41-1.163-0.489s-1.024-0.302-1.06-0.213c-0.037,0.09,0.008,0.336,0.137,0.455
	C10.741,19.304,10.984,19.463,11.262,19.525z"/>
<path id="goalie-sock-l" fill="#FFFFFF" d="M17.245,41.593c0.094-0.383,0.355-1.31,0.449-1.677c0.096-0.37,0.273-0.996,0.361-1.357
	c0.159-0.656,0.229-1.181,0.242-1.294c0.014-0.112-0.054-0.204-0.123-0.32s0.219-0.175,0.369-0.247
	c0.15-0.074,0.111-0.359,0.158-0.585c0.047-0.225,0.084-0.611-0.062-0.65c-0.146-0.041-0.642,0.045-0.943,0
	c-0.303-0.045-0.945-0.287-1.068-0.266c-0.125,0.021-0.177,0.193-0.225,0.309c-0.05,0.119-0.103,0.282-0.104,0.397
	c0,0.118-0.018,0.166,0.039,0.289c0.056,0.123,0.629,0.252,0.656,0.371c0.029,0.119-0.119,0.202-0.244,0.189
	c-0.123-0.012-0.209-0.047-0.314-0.025c-0.106,0.018-0.246,0.257-0.342,0.528c-0.098,0.271-0.231,0.942-0.309,1.36
	c-0.076,0.419-0.348,3.009-0.369,3.396c-0.021,0.39-0.096,0.71-0.018,0.821c0.078,0.113,0.367,0.364,0.51,0.414
	c0.144,0.052,0.452-0.171,0.516-0.193c0.066-0.02,0.205-0.4,0.225-0.445s0.205-0.155,0.205-0.155s0.102-0.022,0.156-0.036
	C17.065,42.4,17.149,41.976,17.245,41.593z"/>
<path id="skin-leg-l" fill="#F9CAA9" d="M16.407,34.182c0.098,0.206,0.279,0.594,0.279,0.594s0.844,0.273,1.008,0.273
	c0.166,0,0.934-0.064,0.934-0.064s0.137-0.11,0.197-0.296c0.061-0.184,0.213-0.652,0.246-0.97c0.033-0.316-0.117-0.978-0.117-0.978
	s-0.711,0.146-1.026,0.234c-0.315,0.089-0.753,0.206-1.19,0.31c-0.438,0.103-0.768,0.176-0.768,0.176S16.311,33.978,16.407,34.182z"
	/>
<polygon fill="#1A1A18" points="18.52,34.326 18.65,33.972 18.653,33.839 18.394,34.074 18.083,34.285 "/>
<path id="skin-arm-r" fill="#F9CAA9" d="M8.73,15.535l-0.787-0.558l-0.109-0.104l-0.503,0.865l-3.077,6.054l0.902,0.705
	c0,0,3.666-5.097,3.921-5.468c0.255-0.372,0.556-0.827,0.556-0.827L8.73,15.535z"/>
<polygon id="skin-arm-l" fill-rule="evenodd" clip-rule="evenodd" fill="#F9CAA9" points="22.886,21.047 22.789,20.95 
	21.967,20.124 20.586,18.271 19.94,17.343 19.321,16.528 18.637,17.158 18.308,17.429 17.774,17.8 18.096,18.325 18.78,19.148 
	19.231,19.59 22.093,22.047 "/>
<path fill-rule="evenodd" clip-rule="evenodd" fill="#FFFFFF" d="M24.695,22.183l0.055,0.184c0,0,0.333-0.059,0.458-0.03
	c0.125,0.029,0.53,0.307,0.696,0.447c0.167,0.141,0.901,0.889,0.901,0.889l0.26,0.262c0,0,0.09,0.247,0.021,0.317
	s-0.179,0.025-0.179,0.025l-0.335-0.222l-0.429-0.319l-0.27-0.221l-0.046,0.134l0.636,0.66l0.404,0.459c0,0,0.129,0.213,0.043,0.331
	s-0.242,0.105-0.242,0.105l-0.477-0.458l-0.248-0.25l-0.303-0.284l-0.062,0.153l0.906,1.126c0,0,0.094,0.237-0.023,0.312
	c-0.116,0.075-0.253,0.014-0.253,0.014l-0.896-1.095l-0.092,0.041l0.605,0.935c0,0-0.016,0.122-0.111,0.151
	s-0.209-0.039-0.209-0.039l-0.822-0.964c0,0-0.555-0.52-0.658-0.641s-0.502-0.523-0.639-0.652c-0.136-0.13-0.402-0.431-0.385-0.472
	s0.114-0.239,0.12-0.287s-0.092-0.148-0.159-0.128c-0.068,0.021-0.154,0.22-0.154,0.22s-0.16-0.08-0.338-0.198
	c-0.178-0.117-0.174-0.342-0.174-0.342l0.757-1.059c0,0,0.112-0.153,0.21-0.229c0.097-0.076,0.322,0.08,0.318,0.179
	c-0.003,0.099-0.018,0.295-0.018,0.295s0.162,0.035,0.336,0.052c0.172,0.017,0.467-0.048,0.467-0.048l0.592-0.222
	c0,0,0.055-0.037,0.16,0.059c0.104,0.096,0.123,0.256,0.123,0.256l-0.321,0.352L24.695,22.183z"/>
<path fill-rule="evenodd" clip-rule="evenodd" fill="#FFFFFF" d="M2.802,23.51l-0.001,0.192c0,0-0.334,0.055-0.445,0.122
	c-0.109,0.068-0.418,0.466-0.536,0.653c-0.119,0.188-0.606,1.141-0.606,1.141s-0.166,0.248-0.174,0.335
	c-0.016,0.161-0.014,0.265,0.071,0.308c0.086,0.045,0.178-0.033,0.178-0.033l0.257-0.32l0.317-0.445l0.194-0.298l0.08,0.112
	l-0.418,0.837l-0.254,0.57c0,0-0.063,0.243,0.053,0.328c0.116,0.086,0.26,0.021,0.26,0.021l0.324-0.593l0.165-0.318l0.208-0.37
	l0.104,0.126l-0.543,1.368c0,0-0.023,0.258,0.109,0.291s0.246-0.07,0.246-0.07l0.542-1.336l0.099,0.009L2.72,27.229
	c0,0,0.05,0.111,0.149,0.107s0.188-0.105,0.188-0.105l0.51-1.187c0,0,0.381-0.677,0.445-0.826c0.063-0.148,0.33-0.662,0.422-0.83
	c0.094-0.168,0.262-0.543,0.234-0.575c-0.027-0.033-0.177-0.19-0.195-0.234c-0.02-0.044,0.044-0.171,0.115-0.174
	c0.07-0.002,0.209,0.159,0.209,0.159s0.129-0.129,0.265-0.3c0.136-0.17,0.069-0.383,0.069-0.383L4.109,22.12
	c0,0-0.15-0.108-0.264-0.148c-0.115-0.04-0.285,0.182-0.254,0.274c0.029,0.093,0.1,0.274,0.1,0.274s-0.145,0.087-0.304,0.16
	c-0.159,0.072-0.459,0.106-0.459,0.106l-0.626-0.018c0,0-0.064-0.017-0.136,0.108c-0.072,0.125-0.046,0.284-0.046,0.284l0.406,0.229
	L2.802,23.51z"/>
<path id="skin-face" fill-rule="evenodd" clip-rule="evenodd" fill="#F9CAA9" d="M13.6,8.752c0.113,0.257,1.094,1.984,1.516,2.703
	c0.266-0.734,0.578-1.672,0.839-2.425c-1.271-0.193-1.22-0.906-1.04-0.719c1.243,0.727,1.875,0.264,1.875,0.264
	c0.476-0.661,0.68-1.104,0.789-1.627c0.086-0.408,0.119-0.885,0.025-1.283c-0.096,0.051-0.188,0.1-0.26,0.142
	c-0.159,0.095-0.209-0.237-0.395-0.021c-0.045,0.053-0.051,0.129-0.066,0.215c-0.02,0.121-0.047,0.266-0.047,0.266
	s-0.053-0.279-0.002-0.48c0.029-0.111,0.026-0.213,0.127-0.268c0.191-0.121,0.551-0.103,0.67-0.079
	c0.006-0.07-0.046-0.148-0.023-0.201c0,0,0,0,0-0.001c-0.137-0.009-0.338,0.03-0.467,0.079c-0.034,0.013,0.002-0.168,0.122-0.207
	c0.124-0.041,0.243-0.019,0.375,0.004c0.055-0.227,0.083-0.309,0.112-0.436c-0.08-0.033-0.035-0.003-0.187-0.078
	c-0.151-0.092,0.122,0.105-0.106,0.182c-0.424,0.075-0.541,0.052-0.637-0.031c-0.061,0,0,0.152-0.166,0.168
	c-0.188,0.057-0.405,0.062-0.819,0.015c-0.457-0.055-0.953-0.175-1.243-0.304C14.285,4.483,14.857,5,14.29,6.356
	c-0.318-0.454-0.501-0.484-0.729-0.501c-0.35-0.024-0.343,0.276-0.343,0.276c0.063,0.446,0.325,0.93,0.769,1.059
	C14.082,7.411,13.709,8.455,13.6,8.752z M16.178,5.391l-0.916-0.136c0.319,0.016,0.765-0.133,0.896-0.121
	C16.51,5.168,16.178,5.391,16.178,5.391z M16.413,6.843l-0.041,0.161l-0.02,0.021l-0.031-0.061l-0.082-0.069L16.17,6.872
	L16.413,6.843z M16.857,6.943l-0.065,0.05l0.015-0.227l0.046,0.029L16.857,6.943z M16.375,8.039l0.001-0.075
	c0,0,0.106-0.027,0.179-0.037l0.134-0.014c0,0,0.097-0.004,0.093,0.02c-0.02,0.117-0.269,0.141-0.269,0.141L16.375,8.039z
	 M15.787,7.682c-0.073-0.051,0.273-0.051,0.273-0.051s0.315-0.023,0.429-0.072s0.099,0.021,0.161-0.008
	c0.193-0.091,0.113-0.004,0.256-0.011c0.111-0.005,0.178-0.026,0.277-0.005c0.031,0.006,0.066,0.023,0.066,0.023l-0.042,0.075
	c0,0-0.22,0.005-0.343,0.063c-0.053,0.025-0.1,0.084-0.1,0.084l-0.141,0.022c-0.045-0.013-0.191,0.008-0.191,0.008l-0.101-0.024
	c0,0-0.112-0.045-0.202-0.043C15.993,7.75,15.877,7.745,15.787,7.682z M15.496,7.507c0.033,0,0.141-0.063,0.176,0.031
	c0,0,0.088,0.066-0.129,0.111L15.496,7.507z M14.762,5.613c0,0,0.146,0.067,0.352,0.067c0.149-0.032,0.225-0.033,0.273-0.025
	c0.028-0.026,0.059-0.053,0.092-0.064c0.216-0.076,0.309-0.018,0.529-0.01c0.092-0.024,0.18-0.037,0.245-0.016
	c0.01,0.061-0.021,0.177-0.078,0.234l0.004,0.004c0,0-0.023,0.018-0.047,0.03c0,0.001-0.001,0.001-0.002,0.001
	c-0.011,0.007-0.024,0.016-0.025,0.012c-0.014-0.041-0.046-0.051-0.079-0.055c-0.01-0.006-0.014-0.002-0.023-0.006
	c-0.035,0.002-0.071,0.014-0.096,0.028c-0.055,0.032-0.13,0.112-0.223,0.101c-0.092-0.01-0.164-0.066-0.238-0.129
	c-0.135,0.004-0.312,0.005-0.337-0.005C15.069,5.765,14.762,5.613,14.762,5.613z M14.002,6.772
	c-0.064,0.021-0.061-0.059-0.105-0.091c-0.047-0.032-0.141-0.019-0.141-0.019l-0.045-0.021c0,0-0.082-0.051-0.1-0.106
	c-0.077-0.247-0.125-0.45-0.125-0.45s0.121-0.055,0.167-0.025c0.046,0.031,0.058,0.095,0.05,0.23
	c-0.016,0.322,0.223,0.255,0.299,0.316C14.078,6.667,14.055,6.755,14.002,6.772z"/>
<path id="hair-p" fill="#F7DD7F" d="M13.746,1.219c-0.125-0.164-0.572-0.508-1.207-0.349c-0.77,0.192-0.807,0.81-0.967,2.491
	c-0.096,1-0.21,1.411-0.318,1.952c-0.137,0.686-0.349,1.316,0.074,1.938c-0.16-0.234,0.148-0.842,0.148-0.842
	c-0.006,0.125-0.072,0.346-0.016,0.527c0.067,0.214,0.262,0.383,0.289,0.406c-0.154-0.322,0.182-0.868,0.182-0.868
	c0.055,0.293,0.123,0.619,0.463,0.878c-0.082-0.062-0.093-0.706-0.093-0.706c0.067,0.233,0.43,0.358,0.446,0.548
	c-0.02-0.235,0.07-0.494-0.058-0.641c-0.328-0.375-0.469-0.672-0.547-1.047c-0.125-0.516-0.155-0.945-0.109-1.359
	c0.047-0.422,0.108-0.659,0.281-1.234c0-0.396,0.014-0.596,0.109-0.844c0.156-0.406,0.332-0.517,0.547-0.656
	C13.284,1.21,13.746,1.219,13.746,1.219z"/>
<path fill="#FFFFFF" d="M13.887,1.435c0,0,0.05-0.057-0.355,0.025c-0.312,0.064-0.691,0.248-0.873,0.648
	c-0.144,0.317-0.123,0.564-0.123,0.564s0.322-0.395,0.625-0.697C13.498,1.636,13.887,1.435,13.887,1.435z"/>
<path id="hair" fill-rule="evenodd" clip-rule="evenodd" fill="#F7DD7F" d="M12.456,5.475c0.14,0.653,0.628,1.057,0.628,1.057
	s0.02,0-0.016-0.107c-0.02-0.057-0.122-0.229-0.122-0.459c0.049-0.24,0.119-0.428,0.479-0.443c0.107,0.016,0.516-0.016,0.75,0.25
	c0,0,0.013-0.115,0.069-0.456c0.016-0.092-0.047-0.441-0.069-0.716C14.142,4.195,14.3,4.194,14.44,4.241s1.656,0.562,2.121,0.377
	c-0.363-0.22-0.145-0.331-0.103-0.373c0.084-0.083,0.308,0.423,0.877,0.311c-0.384-0.358-0.31-0.604,0.033-0.388
	c0.524,0.189,0.692,0.145,1.213,0.113c-0.171-0.158-0.149-0.182-0.237-0.285c0.203-0.001,0.34,0.035,0.385-0.012
	c0.012-0.014-0.16-0.128-0.361-0.407c-0.199-0.276-0.493-0.778-0.566-0.857c-0.057-0.07-0.229-0.329-0.43-0.536
	c-0.158-0.164-0.334-0.274-0.49-0.383c-0.115-0.081-0.467-0.232-0.811-0.322c-0.284-0.072-0.582-0.092-0.582-0.092
	c-0.8-0.08-1.361,0.189-1.639,0.368c-0.312,0.201-0.628,0.444-1.011,0.995c-0.196,0.282-0.304,0.419-0.444,1.072
	C12.256,4.474,12.316,4.822,12.456,5.475z M12.79,3.441c0.112-0.172-0.098,0.393-0.14,0.716c-0.045,0.349-0.046,0.655-0.065,0.563
	C12.473,4.215,12.579,3.767,12.79,3.441z"/>
</svg>
