<?xml version="1.0" encoding="utf-8"?>
<!-- Generator: Adobe Illustrator 16.0.4, SVG Export Plug-In . SVG Version: 6.00 Build 0)  -->
<!DOCTYPE svg PUBLIC "-//W3C//DTD SVG 1.1//EN" "http://www.w3.org/Graphics/SVG/1.1/DTD/svg11.dtd" [
	<!ENTITY ns_flows "http://ns.adobe.com/Flows/1.0/">
	<!ENTITY ns_extend "http://ns.adobe.com/Extensibility/1.0/">
	<!ENTITY ns_ai "http://ns.adobe.com/AdobeIllustrator/10.0/">
	<!ENTITY ns_graphs "http://ns.adobe.com/Graphs/1.0/">
]>
<svg version="1.1" id="Ebene_1" xmlns:x="&ns_extend;" xmlns:i="&ns_ai;" xmlns:graph="&ns_graphs;"
	 xmlns="http://www.w3.org/2000/svg" xmlns:xlink="http://www.w3.org/1999/xlink" xmlns:a="http://ns.adobe.com/AdobeSVGViewerExtensions/3.0/"
	 x="0px" y="0px" width="27.2px" height="51.1px" viewBox="0 0 27.2 51.1" style="enable-background:new 0 0 27.2 51.1;"
	 xml:space="preserve">
<style type="text/css">
<![CDATA[
	.st0{fill-rule:evenodd;clip-rule:evenodd;fill:#1A1A18;}
	.st1{fill-rule:evenodd;clip-rule:evenodd;fill:#FBCDAA;}
	.st2{fill-rule:evenodd;clip-rule:evenodd;fill:#FFFFFF;}
	.st3{fill-rule:evenodd;clip-rule:evenodd;fill:#9E2A6A;}
]]>
</style>
<path class="st0" d="M0.42,49.62c0.03-0.23,0.3-0.66,0.45-0.95c0.12-0.23,0.81-1.19,0.81-1.19l0.84-1.06L2.91,46l0.13-0.4l0.28-0.25
	c0,0-0.05-0.21-0.01-0.3c0.04-0.09,0.24-0.21,0.24-0.21l0.02-0.13l0.59-3.88l0.31-2.3l0.16-0.54l0.01-0.35l0.03-0.74l0.28-0.52
	l0.16-0.31l0.11-0.55l0.12-1.16l0.12-0.8c0,0-0.15-0.06-0.24-0.12c-0.04-0.03-0.11-0.06-0.09-0.12c0.06-0.25,0.22-0.77,0.22-0.77
	l0.47-1.53l0.58-2.06L6.9,27.3c0,0,0.69-2.13,0.85-2.57s0.34-0.92,0.45-1.08s0.18-0.23,0.18-0.23s-0.12-0.17-0.08-0.41
	c0.04-0.23,0.21-0.39,0.22-0.44s0-0.25,0-0.25s0.03-0.65,0.01-0.86s0-2.2-0.01-2.56s0.01-0.87,0.01-0.87s-1.1,1.05-1.41,1.33
	c-0.32,0.28-0.99,0.69-1.24,0.73c-0.25,0.04-0.75,0.09-1.3-0.19c-0.44-0.22-0.69-0.39-0.75-1c-0.06-0.61,0.26-1.77,0.41-2.33
	c0.14-0.56,0.36-1.17,0.36-1.17s-0.09-0.05-0.27-0.11c-0.12-0.04-0.19-0.08-0.14-0.19s0.28-0.83,0.38-1.08
	c0.23-0.62,0.56-1.32,0.69-1.64c0.13-0.32,0.52-1.14,0.62-1.33c0.11-0.19,0.31-0.47,0.56-0.78s0.77-0.71,1.06-0.91
	c0.29-0.19,1.14-0.65,1.32-0.72c0.18-0.08,0.68-0.25,1.04-0.33s1.11-0.22,1.11-0.22l0.17-0.11l-0.02-0.35l-0.04-0.19l-0.08-0.61
	l-0.11-0.11L10.67,6.5l-0.14-0.42l-0.36-0.54l0-0.53l-0.05-0.71L9.75,4.03l0.35-0.51L10.03,3l-0.1-0.13l0.7-1.22l0.52-0.48
	l0.41-0.44l0.15,0.13l0.25-0.26l0.79-0.07l0.1-0.12l0.86,0.23l0.65,0.28l0.59-0.03l0.11,0.16l0.4,0.12l0.48,0.59l0.29,0.67
	l0.06,0.29l0.2,0.13l-0.2,0.6l0.26,0.54l-0.31,0.46l0.01,0.47l-0.39,0.71l-0.04,0.46l-0.17,0.4l-0.33,0.21l-0.18,0.77l-0.01,0.4
	l0.02,0.22l0.15,0.03c0,0,0.95,0.18,1.28,0.27c0.33,0.09,0.81,0.25,1.2,0.41s0.94,0.5,1.41,0.89s0.85,0.83,1.05,1.12
	s0.67,1.09,0.84,1.51c0.17,0.42,0.69,1.72,0.78,2.03c0.09,0.31,0.27,0.82,0.27,0.82s0.04,0.04-0.04,0.12
	c-0.09,0.07-0.29,0.17-0.29,0.17s0.22,0.87,0.31,1.21s0.25,1.1,0.29,1.36s0.12,1.01-0.01,1.3s-0.36,0.48-0.64,0.61
	c-0.42,0.2-0.75,0.18-1.25,0.12c-0.5-0.05-1.08-0.47-1.41-0.75s-1.2-1.13-1.2-1.13l-0.05,0.2c0,0-0.06,0.64-0.08,1.04
	s0,0.92-0.02,1.19s0,0.75,0,0.75l0.03,0.34l0.2,0.33c0,0,0.07,0.28,0.05,0.38c-0.01,0.11-0.02,0.23,0.06,0.36s0.34,0.48,0.34,0.48
	s0.29,0.53,0.46,0.95s0.64,1.67,0.64,1.67l0.47,1.44l0.91,2.56l0.69,2c0,0,0.36,1.11,0.41,1.22s0.02,0.17-0.12,0.23
	c-0.14,0.05-0.42,0.17-0.42,0.17l0.13,0.8l0.15,1.15l0.12,0.55l0.17,0.31c0,0,0.22,0.26,0.29,0.51c0.03,0.09,0.08,0.19,0.1,0.32
	c0.03,0.22,0.02,0.48,0.02,0.48l-0.05,0.28l0.13,0.55l0.4,2.29l0.67,3.87l0.02,0.12c0,0,0.21,0.12,0.25,0.21c0.04,0.09,0,0.3,0,0.3
	l0.28,0.24l0.14,0.4l0.46,0.62l0.82,0.88c0,0,0.64,0.86,0.81,1.12c0.17,0.26,0.46,0.89,0.46,0.89s0.08,0.34,0.02,0.53
	s-0.1,0.3-0.25,0.42s-0.38,0.16-0.38,0.16l-0.15,0.07c0,0-0.09,0.03-0.28,0.03s-0.81-0.08-0.81-0.08l-0.16-0.13
	c0,0-0.07,0.08-0.16,0.12s-0.23-0.12-0.28-0.19s-0.02-0.19-0.02-0.19l-0.3-0.17l-0.25-0.16c0,0-0.09,0.06-0.16,0.06
	s-0.25-0.12-0.27-0.17s0.02-0.2,0.02-0.2l-1.2-0.89l-0.36-0.26l-0.12-0.14c0,0-0.17,0.12-0.22,0.11c-0.05-0.01-0.13-0.09-0.16-0.17
	s0-0.19,0-0.19l-0.2-0.23l-0.2-0.23c0,0-0.08,0.07-0.12,0.03c-0.03-0.03-0.06-0.03-0.11-0.17s0.05-0.25,0.05-0.25l-0.19-0.4
	l-0.03-0.78l0.08-0.25l-0.05-0.09l0.03-0.17l0.07-0.42c0,0-0.04-0.11-0.18-0.8c-0.14-0.69-0.34-1.04-0.54-1.47s-0.54-1.28-0.54-1.28
	l-0.57-1.53l-0.23-0.78l-0.06-0.45l-0.25-0.38c0,0-0.15-0.31-0.19-0.62s0.01-0.72,0.01-0.72l-0.2-0.75c0,0-0.25-0.44-0.49-0.8
	s-0.58-0.83-0.58-0.83l-0.54,0.12l-1.31,0.23l-0.51-1.71l-0.63-2.02l-0.28-0.81l-0.12,0.13l-0.54,1.66l-0.49,1.36l-0.45,1.36
	l-0.14,0.07l-1.9-0.42l-0.51,0.86l-0.39,0.75L8.9,36.93l-0.02,0.73l-0.17,0.62l-0.25,0.31l-0.04,0.52L8.21,39.9l-0.53,1.54
	l-0.59,1.48l-0.44,1.29l-0.17,0.81c0,0,0.05,0.3,0.08,0.42c0.03,0.12-0.01,0.26-0.01,0.26l0.08,0.25c0,0,0.02,0.62-0.01,0.78
	c-0.03,0.16-0.39,0.65-0.39,0.65s-0.06,0.33-0.07,0.38s-0.18,0.19-0.21,0.19s-0.16-0.09-0.16-0.09L5.34,48.3L4.93,48.7
	c0,0,0.05,0.11,0.03,0.17s-0.19,0.16-0.22,0.17s-0.14-0.06-0.14-0.06s-0.6,0.43-0.77,0.56c-0.25,0.2-0.48,0.33-0.48,0.33
	s0.03,0.16,0.02,0.2s-0.17,0.14-0.22,0.14s-0.16-0.08-0.16-0.08l-0.27,0.14c0,0-0.03,0.16-0.06,0.22c-0.03,0.06-0.12,0.09-0.19,0.11
	s-0.17-0.09-0.17-0.09L2.1,50.61c0,0-0.5,0.08-0.64,0.08s-0.41-0.08-0.41-0.08s-0.22-0.05-0.38-0.16c-0.16-0.11-0.28-0.33-0.3-0.44
	S0.39,49.85,0.42,49.62z"/>
<polygon id="skin-leg-l" class="st1" points="18.65,34.17 17.58,34.41 17.41,34.48 17.99,35.38 18.44,36.1 18.63,36.78 19.6,36.65 
	20.47,36.45 21.33,36.11 21.08,34.35 20.94,33.63 20.01,33.87 "/>
<path id="goalie-sock-l" class="st2" d="M19.62,38.57c-0.11,0.08-0.45,0.04-0.52,0.12c-0.07,0.08-0.04,0.61,0.11,0.98
	c0.14,0.37,0.57,1.47,0.57,1.47l1.02,2.37l0.21,0.9l0.14,0.8l0.23,0.33l0.29-0.12l0.39-0.41l0.43-0.31l0.25-0.07l0.33-0.04
	c0,0-0.03-0.39-0.07-0.66s-0.21-1.12-0.3-1.69c-0.09-0.57-0.48-2.69-0.55-3.06s-0.1-0.78-0.16-0.92s-0.34-0.1-0.46-0.11
	s-0.16-0.03-0.17-0.12c-0.01-0.09,0.29-0.22,0.44-0.42c0.16-0.2,0.05-0.56,0.05-0.56s-0.16-0.38-0.33-0.43s-0.35,0.12-0.69,0.23
	c-0.34,0.11-0.75,0.2-1.22,0.27c-0.47,0.07-0.79,0.05-0.89,0.17c-0.1,0.11-0.1,0.24-0.06,0.45c0.04,0.21,0.11,0.31,0.22,0.38
	c0.11,0.07,0.7-0.02,0.77,0.08C19.73,38.33,19.73,38.49,19.62,38.57z"/>
<path class="st0" d="M20.56,35.64c0.14-0.05,0.18-0.27,0.18-0.27s0-0.12-0.13-0.09c-0.13,0.03-0.54,0.16-0.54,0.22
	c-0.01,0.06-0.02,0.26,0.09,0.26S20.56,35.64,20.56,35.64z"/>
<path id="goalie-shorts" class="st0" d="M11.63,34.52l0.19-0.45l1.26-3.75l0.35-1.16l0.01-0.86c0,0-0.12-0.01-0.44-0.12
	c-0.32-0.11-0.72-0.38-0.91-0.47s-0.43-0.2-0.49-0.29c-0.04-0.07,0.45-0.15,0.63-0.1c0.17,0.06,0.83,0.47,0.92,0.4
	s0.25-0.69,0.39-0.83c0.14-0.14,0.6-0.31,0.61-0.16c0.01,0.15-0.45,0.71-0.52,0.89c-0.07,0.18,0.99,0.03,1.16,0.1
	c0.07,0.03,0.13,0.28-0.01,0.32c-0.15,0.04-0.72,0.08-0.8,0.2c-0.08,0.12-0.16,1.43-0.16,1.43l0.52,1.53l0.96,3.21l0.7-0.13
	l1.48-0.33l2.39-0.57c0,0,1.28-0.35,1.39-0.36s0.21-0.09,0.17-0.2c-0.04-0.12-0.45-1.3-0.45-1.3s-0.87-2.58-1.04-3.06
	c-0.17-0.48-0.47-1.33-0.72-2.03c-0.25-0.7-0.56-1.62-0.56-1.62s-0.46-1.05-0.59-1.25c-0.14-0.2-0.27-0.42-0.41-0.47
	c-0.14-0.05-0.38,0.05-0.73,0.09c-0.35,0.04-0.79,0.23-0.88,0.22c-0.08-0.01,0-0.33,0.17-0.47c0.17-0.13,1-0.22,1.2-0.28
	c0.2-0.05,0.16-0.28,0.16-0.28s-0.01-0.27-0.16-0.31c-0.14-0.04-0.75,0.1-0.95,0.16c-0.21,0.05-0.29,0.06-0.5,0.12
	c-0.21,0.07-0.95,0.43-1.24,0.49c-0.29,0.06-1.33,0.17-1.91,0.2c-0.58,0.03-1.38,0.02-1.38,0.02l-1-0.05L9.8,22.94
	c0,0-0.61-0.12-0.75-0.11s-0.21,0.14-0.23,0.28s0.03,0.23,0.14,0.27s0.66,0.02,0.66,0.02s1.21,0.06,1.36,0.11s0.25,0.11,0.25,0.19
	s0,0.14-0.14,0.16s-1.29,0.06-1.54,0.06s-0.42-0.08-0.52-0.07s-0.3,0.02-0.38,0.1c-0.08,0.08-0.14,0.15-0.22,0.34
	c-0.08,0.19-0.67,1.71-0.67,1.71L7.2,27.75l-0.98,3.28c0,0-0.5,1.7-0.57,1.86s0.01,0.17,0.29,0.27s0.77,0.23,0.77,0.23l2.72,0.61
	L11.63,34.52z"/>
<polygon class="st2" points="23.04,48.4 22.61,47.99 22.22,47.99 22.94,48.54 "/>
<polygon id="skin-leg-r" class="st1" points="8.19,34.17 9.29,34.4 9.46,34.47 8.95,35.34 8.52,36.07 8.34,36.76 7.38,36.65
	6.49,36.46 5.63,36.14 5.84,34.38 5.97,33.65 6.9,33.88 "/>
<polygon id="goalie-sock-r" class="st2" points="7.39,38.57 7.91,38.68 7.82,39.67 7.28,41.15 6.31,43.54 6.11,44.44 6,45.24
	5.78,45.57 5.48,45.46 5.08,45.06 4.65,44.76 4.4,44.7 4.07,44.66 4.15,43.92 4.38,42.24 4.83,39.1 5.01,38.31 5.47,38.2 
	5.64,38.07 5.15,37.65 5.12,37.11 5.43,36.57 6.14,36.89 7.36,37.14 8.25,37.22 8.32,37.74 8.11,38.13 7.34,38.22 "/>
<path class="st0" d="M6.62,35.72c-0.1,0.04-0.1,0.04-0.23-0.06C6.26,35.56,6.2,35.4,6.2,35.4s-0.03-0.1,0.13-0.1
	s0.52,0.14,0.55,0.21s-0.06,0.15-0.06,0.15S6.72,35.68,6.62,35.72z"/>
<polygon class="st2" points="4.62,48.01 4.99,48.03 4.34,48.59 4.15,48.48 "/>
<path id="skin-arm-r" class="st1" d="M7.31,17.07c-0.34-0.18-0.5-0.27-0.5-0.27l-0.33,0.04l0.08-0.27l-0.06-0.44
	c0,0-0.48-0.21-0.73-0.3s-0.7-0.26-0.7-0.26s-0.24,0.57-0.38,1.06c-0.14,0.5-0.27,1.11-0.31,1.44c-0.05,0.32-0.13,0.82-0.06,0.97
	c0.06,0.15,0.17,0.3,0.39,0.42c0.22,0.12,0.5,0.18,0.63,0.21c0.13,0.03,0.24,0.03,0.47-0.05c0.23-0.08,0.68-0.3,1.01-0.59
	c0.33-0.29,0.72-0.66,0.95-0.9s0.56-0.57,0.56-0.57S7.65,17.25,7.31,17.07z"/>
<path class="st2" d="M7.16,15.24l0.13,0.69l-0.05,0.21l-0.21,0.05l0.11,0.24l0.28,0.19l1.51,0.63c0,0,0.15-0.27,0.12-0.21
	c-0.03,0.06,0.03-0.26,0.07-0.28c0.04-0.02,0.27-0.03,0.33-0.05c0.05-0.02,0.17-0.2,0.22-0.23c0.05-0.03,0.29-0.13,0.37-0.18
	s0.4-0.36,0.5-0.44s0.37-0.35,0.56-0.49s0.71-0.41,0.75-0.44s0.13-0.12,0.02-0.29s-0.27-0.22-0.27-0.22l-1.13,0.36
	c0,0-0.1-0.13-0.12-0.23c-0.02-0.1,0.04-0.29,0.12-0.61s0.16-0.79,0.16-0.79s0.14-0.4-0.09-0.47c-0.32-0.09-0.45,0.44-0.45,0.44
	l-0.45,0.82l-0.33-0.07l0.07-1.34c0,0-0.06-0.17-0.26-0.22s-0.27,0.2-0.27,0.2l-0.32,1.29l-0.24-0.02l-0.27-1.28
	c0,0,0-0.12-0.16-0.13s-0.22,0.13-0.22,0.13S7.6,12.8,7.6,13.1c-0.01,0.24-0.01,0.62-0.01,0.62L7.56,13.9l-0.14,0.08L7.3,13.61
	c0,0-0.13-0.16-0.27-0.13s-0.11,0.25-0.11,0.25L7.16,15.24z"/>
<path id="skin-arm-l" class="st1" d="M19.04,17.07c0.19-0.11,0.39-0.26,0.39-0.26l0.45,0.05c0,0-0.16-0.33-0.14-0.39
	s0.11-0.37,0.11-0.37s0.59-0.25,0.84-0.35s0.56-0.18,0.56-0.18s0.23,0.55,0.38,1.06c0.14,0.51,0.26,1.11,0.31,1.44
	c0.05,0.32,0.12,0.78,0.06,0.97c-0.06,0.18-0.24,0.32-0.39,0.42c-0.16,0.1-0.69,0.25-1.1,0.16c-0.41-0.09-0.6-0.22-1.01-0.59
	c-0.41-0.36-1.16-1.12-1.16-1.12l-0.36-0.36C17.99,17.55,18.85,17.18,19.04,17.07z"/>
<path id="goalie-jersey" class="st3" d="M5.21,13.74c0.19-0.47,0.54-1.27,0.66-1.57c0.14-0.37,0.22-0.57,0.47-0.98
	c0.25-0.42,0.86-1.07,1.12-1.24C7.73,9.77,8.49,9.23,8.82,9.1c0.33-0.13,0.88-0.29,1.3-0.35c0.42-0.06,0.86-0.08,0.86-0.08
	l0.54,1.14l0.8,1.36l0.81,1.11l0.8-1.12l0.8-1.33l0.58-1.22c0,0,0.61,0.05,0.99,0.13c0.38,0.08,0.88,0.22,1.2,0.35
	c0.31,0.14,0.98,0.5,1.36,0.84c0.38,0.34,0.91,0.95,1.08,1.21s0.31,0.55,0.5,0.95s0.55,1.23,0.69,1.66s0.32,1.05,0.32,1.05
	s0.03,0.11-0.06,0.15s-0.24,0.09-0.33,0.13c-0.15,0.07-0.6,0.22-0.86,0.32c-0.26,0.1-0.59,0.26-0.59,0.26h0l0.21-1.06
	c0,0,0.17-0.85,0.15-1.06s-0.05-0.35-0.09-0.47s-0.17-0.21-0.28-0.22s-0.44,0.08-0.44,0.08s0.03-0.33-0.01-0.46
	c-0.04-0.14-0.1-0.29-0.27-0.42c-0.19-0.14-0.45-0.15-0.55-0.12c-0.18,0.05-0.47,0.27-0.47,0.27s-0.02-0.17-0.2-0.28
	c-0.19-0.11-0.56-0.25-0.8-0.14c-0.2,0.09-0.38,0.54-0.38,0.54s-0.24-0.21-0.41-0.28s-0.3-0.13-0.5-0.06
	c-0.2,0.07-0.46,0.46-0.44,0.69s0.11,0.81,0.11,0.81l0.11,0.55l-0.25-0.06c0,0-0.34-0.06-0.56-0.02s-0.5,0.35-0.53,0.52
	s-0.09,0.46-0.04,0.54s0.21,0.25,0.42,0.38s0.5,0.31,0.74,0.49c0.24,0.18,0.53,0.53,0.76,0.72s0.41,0.27,0.52,0.35
	c0.11,0.09,0.37,0.13,0.42,0.24s0.17,0.49,0.28,0.52s0.28,0.03,0.31,0.04s0.04,0.13,0.02,0.24s-0.06,0.31-0.08,0.5
	s-0.05,0.89-0.06,1.25s-0.06,0.89-0.06,1.16s0.02,0.66,0.02,0.66h-0.2l-0.48,0.09c0,0-0.27,0.06-0.39,0.08
	c-0.06,0.01-0.11,0.02-0.14-0.27c-0.02-0.16,0.03-0.59,0.02-0.98c0-0.11,0.03-0.32-0.19-0.45c-0.19-0.11-0.34-0.14-0.42,0.14
	c-0.12,0.42-0.12,0.67-0.11,1.05s0.08,0.62-0.03,0.75c-0.04,0.05-0.55,0.31-1.27,0.42c-0.71,0.11-1.11,0.17-1.33,0.17
	s-1.52-0.01-1.94-0.02s-1.5-0.13-1.59-0.15s-0.16-0.06-0.16-0.23S8.95,20.3,8.95,20s0-1.2,0-1.47s-0.02-0.64-0.02-0.73
	s0.21-0.04,0.27-0.08c0.06-0.04,0.21-0.46,0.25-0.51s0.25-0.19,0.43-0.32c0.19-0.13,0.36-0.18,0.59-0.34
	c0.23-0.16,0.46-0.44,0.67-0.6s0.66-0.46,0.78-0.55s0.39-0.3,0.42-0.41s0.03-0.26,0-0.42s-0.24-0.32-0.34-0.42s-0.19-0.14-0.44-0.16
	c-0.25-0.02-0.61,0.05-0.61,0.05l0.11-0.55l0.11-0.81c0,0,0-0.29-0.11-0.47c-0.06-0.11-0.14-0.18-0.33-0.22
	c-0.19-0.04-0.36-0.01-0.5,0.06c-0.14,0.07-0.41,0.28-0.41,0.28s-0.02-0.2-0.12-0.32c-0.12-0.14-0.2-0.2-0.5-0.27
	c-0.12-0.02-0.41,0.03-0.55,0.15c-0.14,0.12-0.29,0.26-0.29,0.26s-0.13-0.13-0.24-0.22c-0.1-0.08-0.28-0.08-0.39-0.06
	c-0.11,0.01-0.41,0.17-0.47,0.33s-0.09,0.7-0.09,0.7s-0.3-0.06-0.45-0.01c-0.16,0.05-0.36,0.3-0.38,0.68
	c-0.02,0.38,0.31,1.9,0.27,1.69s0.09,0.42,0.09,0.42l0,0c0,0-0.64-0.25-0.97-0.37s-0.7-0.29-0.83-0.35s-0.16-0.11-0.1-0.23
	S5.03,14.21,5.21,13.74z"/>
<path class="st2" d="M19.16,15.24l-0.13,0.69l0.05,0.21l0.12,0.16l-0.16,0.19l-0.72,0.41l-0.92,0.37c0,0-0.1-0.15-0.14-0.23
	c-0.05-0.08-0.07-0.28-0.07-0.28s-0.21-0.01-0.33-0.05c-0.12-0.04-0.22-0.23-0.22-0.23s-0.2-0.08-0.37-0.18
	c-0.17-0.1-0.5-0.44-0.5-0.44s-0.33-0.34-0.56-0.49c-0.23-0.15-0.75-0.44-0.75-0.44s-0.1-0.1-0.02-0.34
	c0.06-0.17,0.27-0.17,0.27-0.17s1.04,0.36,1.13,0.36c0.09,0,0.12-0.23,0.12-0.23s-0.08-0.32-0.13-0.61
	c-0.06-0.33-0.15-0.79-0.15-0.79s-0.08-0.41,0.05-0.46c0.17-0.06,0.28,0.07,0.28,0.07l0.2,0.36l0.45,0.82L17,13.86l-0.07-1.34
	c0,0,0.04-0.2,0.23-0.2s0.3,0.18,0.3,0.18l0.32,1.29l0.24-0.02l0.27-1.28c0,0,0.1-0.16,0.23-0.13s0.16,0.11,0.16,0.11l0.04,0.62
	l0.01,0.62l0.03,0.19l0.14,0.08l0.12-0.37c0,0,0.08-0.16,0.24-0.11s0.14,0.24,0.14,0.24L19.16,15.24z"/>
<path id="skin-face" class="st1" d="M15.46,5.78l-0.44,0.8c0,0-0.26,0.93-0.4,1.21s-0.17,0.27-0.31,0.49s-0.39,0.47-0.5,0.56
	s-0.18,0.11-0.34,0.14C13.31,9,12.95,9.03,12.71,8.95s-0.69-0.51-0.89-0.8c-0.2-0.29-0.28-0.42-0.38-0.69s-0.27-0.99-0.27-0.99
	s0.09-0.05,0.13-0.11S11.08,6.1,11.08,6.1s-0.16,0.02-0.24-0.02s-0.41-0.76-0.41-0.76l0.01-0.12l0.14-0.23c0,0-0.07,0.29-0.03,0.36
	s0.22,0.26,0.22,0.26l0.11-0.01L10.9,5.4c0,0,0.11-0.71,0.17-0.92s0.36-0.71,0.48-0.83s0.56-0.3,0.56-0.3s0.27-0.07,0.37-0.09
	c0.1-0.02,0.2-0.05,0.2-0.05S12.9,3.37,13,3.36s0.16-0.16,0.16-0.16s0.74-0.07,0.89-0.02s0.16,0.1,0.23,0.14s0.63,0.49,0.67,0.57
	s0.03,0.21,0.09,0.34c0.06,0.13,0.17,0.32,0.17,0.32s-0.08,0.15-0.02,0.24c0.06,0.09,0.19,0.26,0.22,0.26s0.1-0.22,0.1-0.22
	l0.05-0.13c0,0,0.05-0.06,0.12,0.01c0.07,0.07-0.03,0.32-0.03,0.32L15.46,5.78L15.46,5.78z"/>
<path id="skin-neck" class="st1" d="M12.14,10.01l-0.67-1.35l0.01-0.06l0.02-0.21c0,0,0.72,0.86,1.16,0.94
	c0.26,0.05,0.66,0.06,0.83,0.04s0.36-0.1,0.52-0.25s0.44-0.55,0.44-0.55l0.3-0.44l0.02,0.54l-0.25,0.57l-0.61,1.05l-0.81,1.22
	L12.14,10.01z"/>
<polygon class="st0" points="13.18,6.83 13.19,6.72 13.29,6.65 13.49,6.74 13.24,6.83 "/>
<polygon class="st0" points="12.67,6.79 12.6,6.7 12.73,6.59 12.96,6.73 12.77,6.87 "/>
<path class="st0" d="M14.55,4.88c-0.07,0.03-0.23,0.03-0.21,0.06c0.09,0.14,0.13,0.26,0.06,0.33c-0.07,0.07-0.16,0.16-0.33,0.14
	c-0.23-0.03-0.26-0.16-0.26-0.16l-0.11-0.01l-0.17,0.77l0.02-0.96l0.17-0.18l0.06-0.11c0,0,0.61-0.06,0.71-0.04
	c0.1,0.03,0.22,0.12,0.22,0.12s0.02,0.03-0.02,0.07S14.55,4.88,14.55,4.88S14.62,4.85,14.55,4.88z"/>
<path class="st0" d="M12.01,4.86l-0.21-0.2l-0.39,0.21l0.06-0.11l0.39-0.21l0.49,0.12l0.38,0.2l0,0.14c0,0-0.05,0.14-0.33,0.27
	c-0.14,0.06-0.34-0.02-0.39-0.11C11.92,5,12.01,4.86,12.01,4.86z"/>
<polygon class="st0" points="13.27,7.56 13.21,7.71 13.3,7.72 13.5,7.81 13.53,7.89 13.38,7.97 12.93,7.93 12.83,7.67 12.71,7.57 
	12.4,7.4 12.27,7.32 12.28,7.26 12.46,7.27 13.05,7.37 13.74,7.33 13.82,7.4 13.54,7.52 "/>
<path id="hair" class="st0" d="M16.19,3.95l-0.22-0.49l0.18-0.51l-0.17-0.11l-0.07-0.34l-0.27-0.62l-0.42-0.46l-0.36-0.11l-0.1-0.14
	L14.3,1.22l-0.64-0.25l-0.69-0.24l-0.09,0.11L12.14,0.9l-0.46,0.33l-0.13-0.12l-0.27,0.35L10.9,1.8l-0.66,1.03l0.09,0.11l0.06,0.53
	l-0.26,0.42l0.29,0.24l0,0.5l0.12-0.15l0.19,0.07c0,0,0.18-0.53,0.26-0.68c0.12-0.23,0.32-0.51,0.45-0.62
	c0.14-0.11,0.66-0.26,0.66-0.26l0.36-0.08l0.2-0.05l0.25,0.14l0.16-0.15l1.05-0.01c0,0,0.14,0.06,0.23,0.13
	c0.09,0.07,0.81,0.6,0.83,0.68c0.02,0.07,0.04,0.28,0.11,0.39c0.07,0.12,0.11,0.19,0.15,0.27c0,0.01,0.18-0.06,0.18-0.06
	s0.34,0.23,0.28,0.46c0.02,0.06-0.02,0.13,0,0.18l0.09-0.19l-0.01-0.46L16.19,3.95z"/>
</svg>
