<?xml version="1.0" encoding="utf-8"?>
<!-- Generator: Adobe Illustrator 16.0.4, SVG Export Plug-In . SVG Version: 6.00 Build 0)  -->
<!DOCTYPE svg PUBLIC "-//W3C//DTD SVG 1.1//EN" "http://www.w3.org/Graphics/SVG/1.1/DTD/svg11.dtd" [
	<!ENTITY ns_flows "http://ns.adobe.com/Flows/1.0/">
	<!ENTITY ns_extend "http://ns.adobe.com/Extensibility/1.0/">
	<!ENTITY ns_ai "http://ns.adobe.com/AdobeIllustrator/10.0/">
	<!ENTITY ns_graphs "http://ns.adobe.com/Graphs/1.0/">
]>
<svg version="1.1" id="Ebene_1" xmlns:x="&ns_extend;" xmlns:i="&ns_ai;" xmlns:graph="&ns_graphs;"
	 xmlns="http://www.w3.org/2000/svg" xmlns:xlink="http://www.w3.org/1999/xlink" xmlns:a="http://ns.adobe.com/AdobeSVGViewerExtensions/3.0/"
	 x="0px" y="0px" width="31.2px" height="51.9px" viewBox="0 0 31.2 51.9" style="enable-background:new 0 0 31.2 51.9;"
	 xml:space="preserve">
<style type="text/css">
<![CDATA[
	.st0{fill:#1A1A18;}
	.st1{fill-rule:evenodd;clip-rule:evenodd;fill:#1A1A18;}
	.st2{fill:#FBCDAA;}
	.st3{fill:#FFFFFF;}
	.st4{fill-rule:evenodd;clip-rule:evenodd;fill:#FBCDAA;}
	.st5{fill-rule:evenodd;clip-rule:evenodd;fill:#FFFFFF;}
	.st6{fill-rule:evenodd;clip-rule:evenodd;fill:#9E2A6A;}
]]>
</style>
<path class="st0" d="M0.33,24.47l0.48-0.55c0,0,0.85-0.72,1.08-0.94c0.23-0.22,0.75-0.42,0.75-0.42l0.1-0.1l-0.25-0.27
	c0,0,0.03-0.34,0.17-0.51s0.38-0.25,0.38-0.25l0.28,0.06c0,0,0.41,0.13,0.58,0.2s0.44,0.03,0.42-0.02s0.12-0.24,0.34-0.43
	s0.42-0.2,0.5-0.15c0.08,0.05,0.13,0.1,0.13,0.1l0,0.01c0.42-0.41,0.76-0.76,0.99-1.01c0.52-0.57,1.19-1.43,1.19-1.43
	s0.86-1.11,1.14-1.48s0.64-0.84,0.64-0.84s-0.06-0.09-0.11-0.16c-0.06-0.07-0.07-0.07-0.03-0.21c0.1-0.33,0.38-1.19,0.42-1.32
	c0.05-0.16,0.1-0.43,0.24-0.87c0.14-0.44,0.42-1.43,0.53-1.78c0.11-0.35,0.39-1.13,0.51-1.36s0.35-0.43,0.48-0.59
	s0.49-0.42,0.77-0.6s0.69-0.48,0.69-0.48l0.09-0.09l0,0l-0.01-0.22l-0.4-0.54l-0.1-0.14l-0.9-2.03l-0.26-0.9l-0.47-0.92l0.12-0.71
	l-0.16-0.73l0.42-0.85l0.46-0.46l0.24-0.37l0.75-0.06l0.13-0.32l0.68-0.13l1.04-0.31l0.05,0.11l1.16,0.3l0.25,0.29l0.38-0.03
	l0.73,0.72l0.81,1.54l-0.22,0.09l-0.08,0.43l0.23,0.57l-0.17,0.21L17.35,4.7l-0.04,0.55l-0.15,0.59l-0.32,0.8l-0.17,0.28l0.04,0.91
	l0.14,0.05c0,0,0.49,0.13,0.86,0.23c0.37,0.1,0.79,0.26,1.11,0.39c0.31,0.13,0.56,0.24,0.81,0.41s0.48,0.35,0.63,0.52
	c0.15,0.18,0.76,0.9,0.99,1.26c0.23,0.37,1.1,1.9,1.1,1.9l0.63,1.08c0,0,0.17,0.28,0.28,0.47c0.09,0.15,0,0.27,0,0.27l-0.19,0.16
	l0.47,0.82c0,0,1.89,3.45,2.27,4.13c0.33,0.6,1.19,2.14,1.41,2.54c0.03,0,0.07,0,0.1-0.01c0.09-0.03,0.28,0.05,0.43,0.29
	s0.23,0.47,0.2,0.51s0.21,0.16,0.39,0.15C28.53,23,28.96,23,28.96,23l0.29,0.03c0,0,0.2,0.14,0.28,0.35c0.08,0.21,0,0.54,0,0.54
	l-0.32,0.18l0.06,0.13c0,0,0.43,0.36,0.58,0.63s0.74,1.22,0.74,1.22s0.31,0.5,0.29,0.67s-0.05,0.38-0.19,0.54
	c-0.14,0.16-0.36,0.08-0.36,0.08s0.08,0.2,0.02,0.44c-0.06,0.24-0.18,0.37-0.3,0.44s-0.33-0.01-0.33-0.01l-0.14,0.33
	c0,0-0.2,0.18-0.43,0.18c-0.24,0-0.48-0.21-0.48-0.21s-0.1,0.09-0.28,0.05c-0.18-0.04-0.36-0.14-0.36-0.14l-0.25-0.28l-0.43-1.02
	l-0.59-1.03l-0.23-0.45l-0.36-0.62l-0.25-0.55L25.7,24.3c0,0-0.22-0.2-0.28-0.43c-0.04-0.17-0.03-0.43-0.02-0.55l-0.73-1.02
	l-2.74-3.48L21.26,18c0,0-0.01,0.15-0.01,0.4s0.1,1.58,0.1,1.58s0.14,1.67,0.12,1.81s-0.02,0.42,0.03,0.5
	c0.09,0.15,0.07,0.17,0.12,0.34s0.1,0.66,0.07,0.76c-0.04,0.1-0.12,0.35-0.12,0.35s0.09,0.21,0.15,0.37
	c0.07,0.21,0.11,0.43,0.11,0.58c0,0.16-0.04,0.61-0.03,0.81c0,0.2,0.5,3.94,0.56,4.64s0.27,2.66,0.27,2.66l0.14,1.15
	c0,0,0.1,0.49-0.06,0.53c-0.16,0.05-0.7,0.12-0.7,0.12l-0.12,0.7l-0.07,0.56c0,0,0.24,0.13,0.33,0.26c0.09,0.12,0.1,0.47,0.12,0.68
	c0.02,0.21-0.02,0.32,0.02,0.48c0.03,0.16,0.31,0.48,0.41,0.7c0.11,0.23,0.44,1.55,0.51,1.95s0.13,1.32,0.19,1.7
	c0.05,0.39,0.16,1.79,0.25,2.12c0.09,0.33,0.27,0.98,0.27,0.98s0.18,0.31,0.23,0.49c0.05,0.18,0.01,0.96,0.01,0.96
	s-0.04,0.14-0.02,0.27c0.01,0.13,0.12,0.46,0.16,0.6c0.04,0.14,0.38,1.79,0.4,2.03c0.02,0.24,0.03,0.81,0.02,1.02
	s-0.21,0.75-0.28,0.89c-0.07,0.14-0.29,0.18-0.33,0.21s-0.05,0.21-0.09,0.27s-0.35,0.09-0.41,0.08c-0.06-0.02-0.07-0.18-0.07-0.18
	l-1.17,0.01c0,0-0.02,0.12-0.08,0.19s-0.41,0-0.48-0.03s-0.13-0.22-0.13-0.22s-0.1-0.03-0.28-0.14c-0.18-0.11-0.19-0.36-0.25-0.56
	s-0.06-0.45-0.09-0.78s0.16-1.32,0.17-1.59c0-0.27,0-1.31,0-1.31s0-0.2-0.05-0.28s-0.14-0.27-0.15-0.36
	c-0.01-0.1-0.04-0.24-0.03-0.47c0.01-0.23,0.14-0.42,0.13-0.59c-0.01-0.16-0.24-0.75-0.4-1.16s-0.58-1.49-0.76-2.04
	c-0.18-0.55-0.36-0.95-0.56-1.57c-0.2-0.62-0.39-1.17-0.44-1.5c-0.01-0.09,0.05-0.28,0.02-0.33c-0.04-0.05-0.16-0.06-0.28-0.2
	c-0.11-0.14-0.2-0.45-0.23-0.68c-0.04-0.23-0.04-0.3-0.05-0.49c0-0.19,0.03-0.38,0.01-0.45c-0.02-0.06-0.5-0.94-0.5-0.94l-0.52-0.85
	c0,0-0.21,0.02-0.8,0.02c-0.59,0-0.73-0.02-0.86-0.08c-0.04-0.02-0.04-0.18-0.05-0.3c-0.02-0.38-0.02-0.76-0.02-0.76l-0.28,1
	c0,0-0.17,0.05-0.31,0.09c-0.14,0.03-1.19-0.19-1.19-0.19s-0.41,0.56-0.52,0.8c-0.11,0.23-0.2,0.62-0.2,0.62s0.24,0.28,0.32,0.54
	c0.07,0.26,0.08,0.56,0.05,0.73c-0.04,0.17-0.11,0.31-0.12,0.4c-0.01,0.09,0.21,0.33,0.3,0.59c0.14,0.38,0.29,1.18,0.37,1.59
	c0.08,0.41,0.17,1.39,0.25,2.05s0.17,1.55,0.23,1.94s0.03,0.48,0.11,0.56s0.2,0.09,0.26,0.23s0.4,1.22,0.39,1.45
	s-0.07,0.62-0.16,0.75c-0.1,0.13-0.44,0.27-0.44,0.27s0.06,0.23,0.02,0.27s-0.36,0.14-0.45,0.14s-0.2-0.17-0.2-0.17l-0.69,0.23
	l-0.93,0.3l-1.32,0.44c0,0,0.04,0.05-0.04,0.14s-0.2,0.09-0.32,0.12c-0.16,0.05-0.23-0.14-0.23-0.14l-0.6,0.17c0,0,0,0.11-0.03,0.15
	s-0.3,0.11-0.38,0.08S9.4,48.89,9.4,48.89s-0.52,0.14-0.66,0.16S8.55,49.05,8.42,49c-0.22-0.09-0.34-0.12-0.39-0.44
	c-0.05-0.32,0.25-0.66,0.52-0.98c0.25-0.31,0.95-0.83,0.95-0.83l1.09-0.92l0.62-0.5l0.4-0.61l0.24-0.25c0,0-0.12-0.45-0.28-1.01
	c-0.19-0.66-0.78-2.7-0.89-3.09s-0.23-0.77-0.31-1.14s-0.09-0.59-0.09-0.59s-0.17-0.08-0.26-0.21C9.87,38.2,9.81,37.7,9.78,37.4
	c-0.06-0.69,0.11-0.88,0.11-0.88s0.02,0.03-0.14-0.3c-0.16-0.33-0.27-1.04-0.31-1.41c-0.04-0.36,0.13-1.07,0.13-1.07
	s-0.15-0.08-0.26-0.12c-0.1-0.04-0.09-0.05-0.08-0.2s0.77-2.65,0.77-2.65l1.06-3.46l0.73-2.16l0.41-1.09l0.25-0.31l-0.09-0.24
	l0.14-0.57l0.21-0.33l0.01-0.47l-0.03-1.98l-0.23-1.98l0-0.14c0,0-0.12,0.21-0.18,0.3s-0.07,0.08-0.2,0.03
	c-0.13-0.05-0.32-0.18-0.32-0.18s-0.64,0.92-0.98,1.28s-1.21,1.09-1.21,1.09s-1.32,1.06-1.88,1.5c-0.42,0.33-0.91,0.71-1.13,0.87
	c-0.04,0.14-0.09,0.33-0.17,0.45c-0.12,0.2-0.39,0.32-0.39,0.32l-0.27,0.14L5.34,24.3l-0.53,0.48l-0.35,0.36l-0.88,0.8l-0.72,0.84
	l-0.32,0.19c0,0-0.2,0.04-0.38,0.02S1.9,26.85,1.9,26.85s-0.3,0.12-0.52,0.05s-0.36-0.3-0.36-0.3l-0.04-0.36
	c0,0-0.23,0.01-0.32-0.09s-0.17-0.26-0.15-0.51s0.16-0.42,0.16-0.42s-0.23,0-0.32-0.19S0.33,24.47,0.33,24.47z"/>
<path id="skin-face" class="st2" d="M11.67,4.43c0,0,0.28-0.73,0.43-0.85S13.16,3,13.16,3l0.27,0.02l0.04,0.12
	c0,0,0.34-0.08,0.49-0.08c0.15,0.01,0.96,0.46,1.14,0.58c0.18,0.12,0.16,0.53,0.28,0.68s0.67,1.24,0.77,1.27
	c0.1,0.03,0.62-0.6,0.68-0.56c0.06,0.04,0.12,0.1,0.09,0.23s-0.11,0.17-0.15,0.24s-0.21,0.39-0.21,0.39l0.22,0.1
	c0,0,0.04,0.04-0.03,0.14s-0.51,0.35-0.51,0.35L16.2,7.49l-0.05,0.72l-1.17,2.09l-0.7,1.24c0,0-0.17-0.25-0.28-0.47
	c-0.16-0.3-0.28-0.62-0.38-1.04s-0.14-0.99-0.14-0.99s0.45-0.05,0.79-0.26s1.04-0.66,1.17-0.84s0.24-0.37,0.24-0.37l-0.2-0.18
	c0,0-0.17,0.28-0.35,0.41c-0.18,0.14-0.95,0.6-1.1,0.67s-0.24,0.07-0.37,0.09s-0.57-0.02-0.68-0.1c-0.12-0.08-0.38-0.59-0.38-0.59
	s-0.44-0.85-0.57-1.23c-0.13-0.38-0.32-1.18-0.32-1.18l0.06-0.82L11.67,4.43z"/>
<polygon class="st1" points="13.1,7.13 13.27,7.19 13.33,7.3 13.08,7.4 13.13,7.51 13.48,7.63 13.6,7.59 13.75,7.27 13.62,7.32 
	14.12,7.13 14.24,7.08 14.36,7.04 13.53,6.93 12.75,7 12.8,7.11 13.1,7.13 "/>
<polygon class="st1" points="14.01,6.3 13.7,6.16 13.64,6.33 13.9,6.34 14.01,6.3 "/>
<path class="st1" d="M14.75,4.92c0.1-0.14-0.06-0.36-0.06-0.36s0.12-0.06,0.23-0.06s0.38,0.18,0.38,0.18l-0.05-0.11
	c0,0-0.22-0.21-0.36-0.25C14.75,4.3,14.41,4.4,14.41,4.4l-0.44,0.19l0.05,0.11c0,0,0.14,0.31,0.3,0.31S14.65,5.06,14.75,4.92z"/>
<path class="st1" d="M12.23,4.43l0.24,0.13c0,0-0.16,0.33-0.06,0.39s0.17,0.14,0.36,0.09C12.88,5.02,13,4.86,13,4.86l0.14,0.18
	l0.03,0.42l0.06-0.62l-0.07-0.15l-0.14-0.2l-0.05-0.11l-0.67-0.11l-0.22,0.09l0.04,0.11L12.23,4.43L12.23,4.43z"/>
<path class="st5" d="M23.34,50.76c0,0-0.41-0.13-0.67-0.11s-0.41,0.13-0.41,0.13l0.24,0.19l0.73-0.02L23.34,50.76z"/>
<polygon id="skin-leg-r" class="st2" points="19.05,36.53 20.18,36.26 21.28,35.85 21.3,35.55 21.34,35.27 21.46,34.59 19.99,34.78 
	18.53,34.9 17.89,34.93 18.4,35.92 18.73,36.39 "/>
<polygon class="st1" points="19.55,35.52 19.75,35.46 19.82,35.33 19.89,35.19 19.36,35.23 19.33,35.47 19.55,35.52 "/>
<path id="goalie-sock-r" class="st5" d="M19.28,38.26c0.11,0.05,0.42,0.01,0.52,0.04c0.1,0.03,0.09,0.07,0.03,0.21
	c-0.07,0.13-0.42,0.27-0.42,0.4c0,0.14,0.15,0.83,0.31,1.3c0.17,0.47,0.63,1.85,0.63,1.85l0.97,2.67c0,0,0.25,0.65,0.27,0.82
	c0.02,0.17,0.03,0.5,0.06,0.62c0.03,0.12,0.01,0.3,0.14,0.29c0.13,0,0.25-0.36,0.35-0.47c0.23-0.25,0.67-0.19,0.84-0.05
	c0.09,0.08,0.22,0.47,0.33,0.48s0,0.06,0.12-0.05s0.05-0.54,0.05-0.62c0-0.08-0.1-0.64-0.09-0.74c0.01-0.1-0.15-0.79-0.15-0.79
	s-0.06-0.25-0.16-0.7s-0.33-2.98-0.42-3.53s-0.23-1.06-0.34-1.44s-0.27-0.55-0.34-0.58s-0.26,0.07-0.26,0.07s-0.13,0-0.26-0.07
	c-0.12-0.06-0.04-0.17-0.03-0.2s0.22-0.27,0.3-0.46c0.08-0.19,0.04-0.72-0.03-0.8s-0.15-0.12-0.3-0.14s-0.21,0-0.36,0.05
	c-0.23,0.08-0.86,0.28-1.05,0.34s-0.62,0.17-0.73,0.18c-0.11,0.02-0.22,0.03-0.31,0.11c-0.09,0.08-0.1,0.32-0.05,0.53
	c0.05,0.21,0.05,0.37,0.15,0.51S19.17,38.22,19.28,38.26z"/>
<polygon class="st5" points="11.61,47.37 11.77,47.3 12.3,47.11 12.5,47.39 11.73,47.67 "/>
<path id="goalie-jersey" class="st6" d="M18.77,15.02l0.76,1.14c0,0,0.06,0.09,0.14,0.11c0.09,0.02,0.19-0.05,0.23-0.06
	c0.08-0.03,0.59-0.34,1.11-0.69s1.15-0.79,1.15-0.79s0.41-0.29,0.62-0.45c0.04-0.04,0.01-0.11-0.09-0.3
	c-0.16-0.29-0.45-0.76-0.59-1.02c-0.31-0.55-0.73-1.2-0.73-1.2s-0.21-0.38-0.47-0.8s-0.86-1.14-1.02-1.29s-0.33-0.33-0.52-0.43
	c-0.34-0.18-0.73-0.39-0.97-0.46c-0.23-0.07-0.83-0.28-1.12-0.36c-0.3-0.07-0.63-0.14-0.63-0.14l-0.06-0.01l-0.4,0.69l-0.71,1.31
	l-0.57,0.99l-0.59,1.01c0,0-0.5-0.73-0.64-1.04s-0.29-0.74-0.38-1.05c-0.09-0.32-0.14-0.87-0.14-0.87s-0.14,0.07-0.32,0.18
	c-0.27,0.17-0.38,0.23-0.55,0.36c-0.18,0.14-0.58,0.37-0.7,0.5s-0.41,0.43-0.5,0.63s-0.15,0.43-0.23,0.64
	c-0.08,0.22-0.31,0.95-0.41,1.29c-0.1,0.35-0.23,0.8-0.34,1.22c-0.11,0.42-0.38,1.38-0.44,1.61c-0.05,0.19-0.05,0.24,0.03,0.33
	c0.11,0.12,0.2,0.19,0.27,0.25c0.28,0.25,0.68,0.57,0.96,0.78c0.29,0.21,0.63,0.41,0.94,0.54c0.13,0.05,0.15,0,0.16-0.1
	c0.01-0.09-0.01-0.47-0.04-0.84s-0.11-1.52-0.12-1.78s0.02-0.65,0.08-0.73c0.04-0.06,0.15-0.13,0.16,0.04s0.32,2,0.39,2.24
	s0.3,1.13,0.38,1.6s0.18,1.56,0.2,1.88c0.02,0.32,0.06,1.41,0.06,1.41l0.05,1.06c0,0-0.04,0.17,0.14,0.22
	c0.18,0.05,0.39,0.1,0.61,0.13c0.35,0.04,1.48,0.15,1.86,0.16c0.39,0.01,1.7-0.06,2.02-0.12c0.31-0.06,1.14-0.36,1.43-0.45
	c0.29-0.09,1.04-0.22,1.17-0.23c0.13-0.01,0.43-0.05,0.52-0.05c0.09,0.01,0.08-0.3,0.09-0.25s-0.14-2.11-0.14-2.11
	s-0.1-2.09-0.19-2.3c-0.09-0.2-0.35-0.65-0.44-0.69c-0.09-0.03-0.34,0.18-0.47,0.2c-0.13,0.03-0.37-0.09-0.5-0.15
	c-0.13-0.05-0.27-0.34-0.38-0.55c-0.17-0.33-0.53-1.01-0.62-1.23c-0.09-0.21-0.34-0.75-0.34-0.85c0.01-0.1,0.21,0,0.29,0.05
	C18.28,14.23,18.77,15.02,18.77,15.02z"/>
<path id="goalie-shorts" class="st1" d="M15.25,33.76c0.09-0.3,0.19-0.57,0.23-0.78c0.05-0.22,0.09-0.55,0.08-0.8
	c-0.01-0.24-0.08-3.29-0.08-3.53c0-0.24,0.06-0.36-0.02-0.44s-0.81-0.64-0.99-0.7c-0.18-0.05-0.35-0.17-0.33-0.2
	c0.02-0.03,0.48-0.08,0.63-0.03s0.15,0.06,0.26,0.15c0.11,0.09,0.56,0.39,0.61,0.34c0.05-0.05-0.2-0.82-0.18-0.97
	c0.02-0.14,0.42-0.67,0.44-0.58c0.02,0.08-0.03,1.2,0.06,1.27c0.09,0.06,0.72,0,0.71,0.1s-0.01,0.22-0.12,0.29
	c-0.12,0.07-0.34,0.15-0.46,0.25c-0.12,0.11-0.22,0.65-0.22,0.65l0.12,3.36l0.1,2.23c0,0-0.02,0.19,0.11,0.18
	c0.13,0,1.91-0.01,1.91-0.01l1.92-0.18c0,0,2.11-0.24,2.2-0.27s0.04-0.21,0.04-0.21s-0.18-1.52-0.28-2.66s-0.45-3.7-0.52-4.39
	c-0.06-0.69-0.2-1.31-0.2-1.31l0.03-0.85c0,0-0.15-0.83-0.31-0.86c-0.16-0.03-0.74,0.03-0.99,0.03s-0.65-0.22-0.56-0.3
	c0.09-0.08,0.99-0.26,1.17-0.25s0.44,0.03,0.53,0c0.1-0.04,0.02-0.37,0.02-0.37s-0.01-0.32-0.14-0.38c-0.13-0.06-0.5-0.01-0.5-0.01
	l-1.04,0.18l-1.5,0.47c0,0-0.98,0.16-1.41,0.15c-0.44,0-1.91-0.09-2.26-0.11c-0.35-0.02-1.2-0.17-1.31-0.15
	c-0.11,0.02-0.24,0.3-0.2,0.38c0.04,0.09,0.61,0.02,0.73,0.05c0.12,0.03,0.26,0.04,0.26,0.1s-0.51,0.18-0.65,0.24
	c-0.15,0.07-0.48,0.26-0.54,0.4s-0.6,1.63-0.71,1.98c-0.1,0.35-0.93,2.99-0.93,2.99l-0.76,2.49c0,0-0.29,0.99-0.37,1.27
	s-0.13,0.35,0.03,0.43c0.16,0.07,0.27,0.09,0.72,0.2s1.56,0.36,2.06,0.47c0.5,0.11,1.69,0.34,2.17,0.41
	c0.06,0.01,0.11,0.02,0.12,0.02c0.03,0,0.06-0.06,0.09-0.15C15.08,34.22,15.16,34.07,15.25,33.76z"/>
<path class="st1" d="M18.8,19.86c-0.31,0.07-0.84-0.02-1.07,0.1c-0.23,0.12-0.93,0.73-1.05,0.75c-0.13,0.02-0.53,0.08-0.55-0.03
	c-0.03-0.12,0.8-0.78,1.04-0.92s1.01-0.44,1.33-0.52c0.31-0.08,1.17-0.32,1.21-0.23c0.04,0.1-0.01,0.36-0.16,0.48
	S19.11,19.79,18.8,19.86z"/>
<path id="goalie-sock-l" class="st3" d="M11.97,43.31c-0.11-0.41-0.41-1.39-0.52-1.78c-0.11-0.39-0.31-1.06-0.41-1.44
	c-0.18-0.7-0.26-1.25-0.28-1.38c-0.02-0.12,0.06-0.22,0.14-0.34c0.08-0.12-0.25-0.19-0.42-0.26s-0.13-0.38-0.18-0.62
	c-0.05-0.24-0.1-0.65,0.07-0.69c0.17-0.04,0.73,0.05,1.08,0c0.34-0.05,1.08-0.3,1.22-0.28c0.14,0.02,0.2,0.21,0.26,0.33
	c0.05,0.12,0.12,0.3,0.12,0.42c0,0.12,0.02,0.18-0.04,0.31s-0.72,0.27-0.75,0.39c-0.03,0.13,0.14,0.21,0.28,0.2
	c0.14-0.01,0.24-0.05,0.36-0.03c0.12,0.02,0.28,0.27,0.39,0.56c0.11,0.29,0.26,1,0.35,1.45c0.09,0.45,0.4,3.2,0.42,3.61
	c0.02,0.41,0.11,0.75,0.02,0.87c-0.09,0.12-0.42,0.39-0.58,0.44c-0.16,0.05-0.52-0.18-0.59-0.21c-0.07-0.02-0.23-0.43-0.25-0.47
	c-0.02-0.05-0.23-0.16-0.23-0.16s-0.12-0.02-0.18-0.04S12.08,43.72,11.97,43.31z"/>
<path id="skin-leg-l" class="st2" d="M12.92,35.44c-0.11,0.22-0.32,0.63-0.32,0.63s-0.96,0.29-1.15,0.29
	c-0.19,0-1.06-0.07-1.06-0.07s-0.16-0.12-0.22-0.31c-0.07-0.2-0.24-0.69-0.28-1.03c-0.04-0.34,0.13-1.04,0.13-1.04
	s0.81,0.16,1.17,0.25s0.86,0.22,1.36,0.33s0.88,0.19,0.88,0.19S13.03,35.22,12.92,35.44z"/>
<polygon class="st0" points="10.51,35.59 10.36,35.21 10.36,35.07 10.65,35.32 11.01,35.54 "/>
<polygon class="st1" points="13.43,6.31 13.41,6.2 13.22,6.25 13.17,6.32 13.33,6.3 "/>
<path id="skin-arm-r" class="st2" d="M21.69,15.62l0.9-0.59l0.12-0.11l0.57,0.92l3.51,6.43l-1.03,0.75c0,0-4.19-5.42-4.47-5.81
	c-0.29-0.39-0.63-0.88-0.63-0.88L21.69,15.62z"/>
<polygon id="skin-arm-l" class="st4" points="5.53,21.48 5.64,21.37 6.58,20.49 8.15,18.53 8.89,17.54 9.6,16.67 10.38,17.34 
	10.75,17.63 11.36,18.02 10.99,18.58 10.21,19.46 9.7,19.93 6.43,22.54 "/>
<path class="st5" d="M3.46,22.68L3.4,22.88c0,0-0.38-0.06-0.52-0.03s-0.61,0.33-0.79,0.47c-0.19,0.15-1.03,0.94-1.03,0.94l-0.3,0.28
	c0,0-0.1,0.26-0.02,0.34c0.08,0.07,0.2,0.03,0.2,0.03l0.38-0.24l0.49-0.34l0.31-0.23l0.05,0.14l-0.73,0.7l-0.46,0.49
	c0,0-0.15,0.23-0.05,0.35c0.1,0.13,0.28,0.11,0.28,0.11l0.54-0.49l0.28-0.27l0.35-0.3L2.45,25l-1.03,1.2c0,0-0.11,0.25,0.03,0.33
	c0.13,0.08,0.29,0.01,0.29,0.01l1.02-1.16l0.1,0.04l-0.69,0.99c0,0,0.02,0.13,0.13,0.16s0.24-0.04,0.24-0.04l0.94-1.02
	c0,0,0.63-0.55,0.75-0.68c0.12-0.13,0.57-0.56,0.73-0.69c0.15-0.14,0.46-0.46,0.44-0.5s-0.13-0.25-0.14-0.3
	c-0.01-0.05,0.1-0.16,0.18-0.14c0.08,0.02,0.18,0.23,0.18,0.23S5.8,23.35,6,23.22s0.2-0.36,0.2-0.36l-0.86-1.13
	c0,0-0.13-0.16-0.24-0.24s-0.37,0.09-0.36,0.19s0.02,0.31,0.02,0.31s-0.19,0.04-0.38,0.06S3.84,22,3.84,22l-0.67-0.24
	c0,0-0.06-0.04-0.18,0.06s-0.14,0.27-0.14,0.27l0.37,0.37L3.46,22.68z"/>
<path class="st5" d="M28.46,24.09v0.2c0,0,0.38,0.06,0.51,0.13c0.13,0.07,0.48,0.49,0.61,0.69s0.69,1.21,0.69,1.21
	s0.19,0.26,0.2,0.35c0.02,0.17,0.02,0.28-0.08,0.33c-0.1,0.05-0.2-0.04-0.2-0.04l-0.29-0.34l-0.36-0.47l-0.22-0.32l-0.09,0.12
	l0.48,0.89l0.29,0.61c0,0,0.07,0.26-0.06,0.35c-0.13,0.09-0.3,0.02-0.3,0.02l-0.37-0.63l-0.19-0.34l-0.24-0.39l-0.12,0.13l0.62,1.45
	c0,0,0.03,0.27-0.12,0.31c-0.15,0.04-0.28-0.07-0.28-0.07l-0.62-1.42l-0.11,0.01l0.36,1.16c0,0-0.06,0.12-0.17,0.12
	c-0.11,0-0.21-0.11-0.21-0.11l-0.58-1.26c0,0-0.43-0.72-0.51-0.88c-0.07-0.16-0.38-0.7-0.48-0.88c-0.11-0.18-0.3-0.58-0.27-0.61
	c0.03-0.04,0.2-0.2,0.22-0.25c0.02-0.05-0.05-0.18-0.13-0.18c-0.08,0-0.24,0.17-0.24,0.17s-0.15-0.14-0.3-0.32s-0.08-0.41-0.08-0.41
	l1.17-0.81c0,0,0.17-0.12,0.3-0.16c0.13-0.04,0.32,0.19,0.29,0.29s-0.12,0.29-0.12,0.29s0.17,0.09,0.35,0.17s0.52,0.11,0.52,0.11
	l0.71-0.02c0,0,0.07-0.02,0.15,0.12c0.08,0.13,0.05,0.3,0.05,0.3l-0.46,0.24L28.46,24.09z"/>
<path id="hair" class="st1" d="M17.02,4.76l-0.24-0.12l-0.35,0.25c0,0-0.13,0.11-0.19,0.11s-0.53-0.69-0.56-0.83
	s-0.22-0.69-0.3-0.75s-1.34-0.65-1.34-0.65l-0.35,0.05L13.64,2.7l-0.61,0.04c0,0-0.98,0.53-1.09,0.61
	c-0.11,0.08-0.55,1.08-0.55,1.08l0.1,0.24L11.47,5.2l-0.08-0.16l-0.42-0.84l0.1-0.72l-0.15-0.62l0.38-0.78l0.38-0.33l0.21-0.32
	l0.84-0.09l0.12-0.31l0.54-0.08l0.83-0.29l0.04,0.1l1.11,0.27l0.27,0.3l0.45-0.04l0.6,0.6l0.62,1.21L17.2,3.16l-0.1,0.52l0.19,0.55
	L17.14,4.4l-0.11,0.14L17.02,4.76z"/>
</svg>
