<?xml version="1.0" encoding="utf-8"?>
<!-- Generator: Adobe Illustrator 16.0.4, SVG Export Plug-In . SVG Version: 6.00 Build 0)  -->
<!DOCTYPE svg PUBLIC "-//W3C//DTD SVG 1.1//EN" "http://www.w3.org/Graphics/SVG/1.1/DTD/svg11.dtd">
<svg version="1.1" id="Ebene_1" xmlns="http://www.w3.org/2000/svg" xmlns:xlink="http://www.w3.org/1999/xlink" x="0px" y="0px"
	 width="28.124px" height="49.993px" viewBox="0 0 28.124 49.993" enable-background="new 0 0 28.124 49.993" xml:space="preserve">
<path fill-rule="evenodd" clip-rule="evenodd" fill="#1A1A18" d="M0.688,23.864l0.423-0.515c0,0,0.744-0.679,0.945-0.883
	c0.201-0.203,0.656-0.399,0.656-0.399l0.085-0.096l-0.222-0.253c0,0,0.023-0.323,0.146-0.485c0.124-0.161,0.328-0.232,0.328-0.232
	l0.249,0.056c0,0,0.36,0.126,0.509,0.188c0.146,0.062,0.383,0.025,0.367-0.021c-0.016-0.049,0.107-0.225,0.299-0.401
	c0.191-0.176,0.371-0.186,0.439-0.137s0.113,0.093,0.113,0.093l0.003,0.006c0.371-0.39,0.665-0.712,0.868-0.95
	c0.451-0.536,1.041-1.342,1.041-1.342s0.752-1.04,0.998-1.394c0.246-0.353,0.562-0.794,0.562-0.794s-0.05-0.088-0.099-0.152
	c-0.05-0.062-0.064-0.062-0.024-0.199c0.089-0.311,0.3-0.924,0.335-1.045c0.044-0.152,0.225-0.666,0.344-1.078
	c0.121-0.41,0.297-0.984,0.391-1.312s0.396-1.139,0.5-1.359c0.107-0.22,0.396-0.658,0.516-0.812c0.12-0.154,0.336-0.408,0.578-0.578
	c0.217-0.15,0.75-0.513,0.865-0.592c-0.053-0.064-0.102-0.128-0.144-0.185c-0.328-0.047-0.399-0.047-0.641-0.234
	c-0.317-0.434-0.578-0.875-0.719-1.297c-0.125-0.422-0.216-0.793-0.219-1.281c-0.001-0.186,0.044-0.386,0.075-0.637
	c-0.172-0.084-0.203-0.087-0.203-0.087l0.213-0.008c0.004-0.025-0.025-0.08-0.021-0.105c0.034-0.108-0.192-0.806-0.251-0.804
	c-0.625,0-0.92-0.087-0.828-0.141c0.094-0.125,0.11-0.234,0.109-0.234C8.99,4.18,8.818,4.022,9.198,3.772
	c0.25-0.25,0.29-0.317,0.547-0.688c0.422-0.609,0.567-0.989,1.234-1.438c0.396-0.267,1.087-0.488,1.61-0.531
	c0.435-0.036,0.819,0.032,1.235,0.155c0.066-0.037,0.141-0.074,0.233-0.093c0.046-0.035,0.093-0.071,0.131-0.119
	c0.286-0.365,0.722-0.475,1.197-0.459c0.377,0.013,0.81,0.165,1.031,0.609c0.262,0.521,0.23,0.913,0.326,1.628
	c0.049,0.369,0.109,0.904,0.158,1.294c0.047,0.375,0.16,0.854,0.203,1.109c0.092,0.539,0.164,0.799,0.172,1.062
	c0.014,0.381-0.01,0.559-0.125,0.844C17.006,7.51,16.52,7.614,16.52,7.614s0.053-0.128,0.08-0.186
	c-0.045,0.072-0.305,0.361-0.414,0.266c-0.076-0.07-0.031-0.43-0.031-0.43c-0.112,0.254-0.301,0.312-0.493,0.381
	C15.488,7.71,15.52,7.297,15.52,7.297c-0.111,0.144-0.143,0.222-0.349,0.222c0.021-0.154-0.13-0.363-0.06-0.671
	c-0.16,0.153-0.379,0.337-0.679,0.503c0.007,0.236,0.163,0.73,0.278,1.045l0.047,0.044c0,0,0.738,0.154,1.062,0.25
	c0.325,0.098,1.125,0.354,1.344,0.516c0.115,0.085,0.506,0.293,0.906,0.656c0.359,0.326,0.734,0.805,0.828,0.969
	c0.201,0.348,1.08,1.874,1.08,1.874l0.551,1.014c0,0,0.15,0.265,0.246,0.44c0.08,0.146,0,0.251,0,0.251l-0.164,0.146l0.41,0.771
	c0,0,1.658,3.242,1.986,3.889c0.285,0.562,1.041,2.017,1.236,2.396c0.027-0.002,0.059-0.004,0.088-0.014
	c0.078-0.024,0.246,0.043,0.381,0.274c0.131,0.23,0.199,0.438,0.17,0.479c-0.027,0.041,0.188,0.152,0.344,0.142
	c0.158-0.012,0.539-0.013,0.539-0.013l0.252,0.027c0,0,0.176,0.135,0.246,0.33c0.072,0.193,0.004,0.508,0.004,0.508l-0.283,0.17
	l0.053,0.118c0,0,0.379,0.336,0.512,0.597c0.133,0.259,0.648,1.149,0.648,1.149s0.271,0.471,0.258,0.628
	c-0.014,0.158-0.043,0.357-0.17,0.505c-0.125,0.148-0.316,0.077-0.316,0.077s0.074,0.189,0.021,0.418
	c-0.053,0.228-0.16,0.347-0.262,0.41c-0.102,0.064-0.289-0.012-0.289-0.012l-0.127,0.315c0,0-0.174,0.167-0.381,0.167
	s-0.42-0.194-0.42-0.194s-0.088,0.087-0.248,0.047c-0.16-0.039-0.316-0.128-0.316-0.128l-0.219-0.258l-0.373-0.963l-0.518-0.968
	l-0.199-0.422l-0.316-0.58l-0.221-0.516l-0.191-0.201c0,0-0.197-0.19-0.244-0.4c-0.035-0.162-0.025-0.408-0.018-0.516l-0.637-0.957
	l-2.398-3.278l-0.592-0.775c0,0-0.012,0.143-0.012,0.379c0,0.234,0.086,1.488,0.086,1.488s0.119,1.569,0.105,1.702
	c-0.014,0.132-0.014,0.396,0.027,0.47c0.082,0.144,0.066,0.162,0.109,0.324c0.043,0.161,0.088,0.624,0.059,0.716
	s-0.104,0.326-0.104,0.326s0.08,0.196,0.131,0.349c0.066,0.196,0.094,0.404,0.094,0.549c0,0.148-0.031,0.574-0.027,0.765
	c0.002,0.189,0.438,3.705,0.492,4.367c0.055,0.661,0.238,2.501,0.238,2.501l0.119,1.084c0,0,0.088,0.46-0.053,0.501
	c-0.141,0.045-0.615,0.111-0.615,0.111l-0.104,0.661l-0.062,0.529c0,0,0.209,0.127,0.287,0.242c0.08,0.118,0.086,0.443,0.104,0.64
	c0.018,0.199-0.016,0.304,0.016,0.456c0.029,0.154,0.27,0.45,0.361,0.662c0.092,0.213,0.387,1.459,0.445,1.836
	c0.057,0.376,0.113,1.237,0.16,1.6c0.047,0.364,0.143,1.686,0.219,1.994c0.076,0.311,0.232,0.926,0.232,0.926
	s0.156,0.289,0.199,0.458c0.043,0.168,0.008,0.907,0.008,0.907s-0.033,0.129-0.021,0.25c0.014,0.121,0.105,0.433,0.143,0.562
	c0.035,0.133,0.332,1.686,0.348,1.908c0.016,0.224,0.029,0.765,0.016,0.957c-0.014,0.193-0.182,0.707-0.246,0.84
	c-0.064,0.131-0.254,0.166-0.291,0.193s-0.045,0.192-0.082,0.25c-0.037,0.057-0.305,0.088-0.355,0.071
	c-0.053-0.015-0.064-0.167-0.064-0.167l-1.025,0.007c0,0-0.016,0.116-0.07,0.175s-0.357,0-0.424-0.029
	c-0.07-0.029-0.113-0.206-0.113-0.206s-0.092-0.029-0.25-0.132c-0.158-0.104-0.168-0.342-0.217-0.531
	c-0.051-0.189-0.053-0.423-0.078-0.733c-0.023-0.311,0.145-1.24,0.148-1.496c0.002-0.254,0-1.236,0-1.236s-0.004-0.189-0.041-0.265
	c-0.039-0.076-0.125-0.252-0.135-0.34c-0.01-0.09-0.035-0.229-0.027-0.441c0.008-0.215,0.125-0.399,0.117-0.554
	c-0.008-0.152-0.205-0.704-0.346-1.089c-0.141-0.386-0.504-1.4-0.664-1.922c-0.16-0.522-0.311-0.89-0.49-1.479
	c-0.174-0.58-0.342-1.103-0.383-1.411c-0.01-0.08,0.045-0.265,0.014-0.309c-0.031-0.046-0.143-0.057-0.242-0.191
	c-0.1-0.132-0.174-0.425-0.205-0.64c-0.031-0.213-0.039-0.284-0.041-0.463c-0.004-0.177,0.023-0.362,0.01-0.425
	c-0.014-0.061-0.442-0.884-0.442-0.884l-0.457-0.797c0,0-0.184,0.019-0.703,0.019s-0.643-0.016-0.752-0.074
	c-0.032-0.017-0.037-0.165-0.041-0.279c-0.014-0.353-0.018-0.713-0.018-0.713l-0.246,0.941c0,0-0.147,0.051-0.271,0.08
	c-0.124,0.029-1.04-0.176-1.04-0.176s-0.359,0.529-0.451,0.749c-0.094,0.219-0.18,0.589-0.18,0.589s0.211,0.261,0.278,0.506
	c0.065,0.244,0.072,0.524,0.041,0.685c-0.03,0.162-0.092,0.297-0.102,0.375c-0.01,0.08,0.186,0.312,0.266,0.552
	c0.121,0.352,0.254,1.109,0.326,1.499c0.072,0.388,0.15,1.309,0.219,1.926c0,0.001,0,0.001,0,0.001l0.005,0.003
	c0.068,0.618,0.15,1.456,0.206,1.823c0.055,0.367,0.026,0.456,0.096,0.529c0.031,0.034,0.071,0.055,0.109,0.08
	c0.002,0.001,0.002,0.002,0.004,0.003c0.043,0.029,0.085,0.065,0.115,0.136l-0.014,0.002l0.186,0.514l-0.084,0.354
	c0,0,0.099,0.564,0.042,0.709c-0.056,0.144-0.705,0.633-0.705,0.633s-0.107,0.299-0.124,0.343c-0.016,0.044-0.188,0.146-0.215,0.142
	c-0.027-0.006-0.119-0.112-0.119-0.112l-0.465,0.333l-0.42,0.311c0,0,0.021,0.108-0.002,0.164c-0.025,0.055-0.188,0.114-0.219,0.123
	c-0.029,0.01-0.105-0.08-0.105-0.08s-0.592,0.299-0.76,0.398c-0.251,0.148-0.297,0.04-0.297,0.04s0,0.149-0.021,0.19
	s-0.172,0.104-0.213,0.096C9.907,47.2,9.826,47.11,9.826,47.11l-0.252,0.088c0,0-0.056,0.143-0.093,0.194
	c-0.036,0.051-0.122,0.064-0.179,0.069c-0.057,0.004-0.129-0.113-0.129-0.113l-0.195,0.053c0,0-0.441-0.001-0.564-0.029
	C8.29,47.344,8.07,47.231,8.07,47.231s-0.182-0.078-0.301-0.204c-0.117-0.126-0.188-0.349-0.182-0.452
	c0.004-0.104,0.04-0.15,0.106-0.354c0.065-0.204,0.191-0.373,0.377-0.623c0.146-0.195,0.896-0.969,0.896-0.969l0.905-0.846
	l0.363-0.291l-0.02,0.003l0.003-0.005l-0.009,0.001l0.347-0.575l0.211-0.239c0,0-0.103-0.422-0.243-0.953
	c-0.164-0.617-0.686-2.544-0.781-2.911c-0.096-0.368-0.205-0.72-0.273-1.073c-0.068-0.353-0.076-0.553-0.076-0.553
	s-0.152-0.075-0.225-0.197c-0.123-0.205-0.182-0.672-0.205-0.955C8.91,35.387,9.06,35.212,9.06,35.212s0.017,0.029-0.123-0.279
	c-0.141-0.312-0.24-0.983-0.271-1.323c-0.029-0.339,0.113-1.004,0.113-1.004s-0.135-0.071-0.226-0.113
	c-0.091-0.043-0.082-0.045-0.069-0.191c0.015-0.146,0.677-2.497,0.677-2.497l0.932-3.259l0.642-2.029l0.363-1.022l0.215-0.295
	l-0.075-0.224l0.126-0.533l0.185-0.312l0.005-0.44l-0.025-1.868l-0.2-1.865l0.003-0.132c0,0-0.104,0.194-0.16,0.28
	c-0.057,0.084-0.059,0.078-0.174,0.029s-0.279-0.166-0.279-0.166s-0.562,0.867-0.863,1.206C9.552,19.51,8.79,20.199,8.79,20.199
	s-1.16,1-1.643,1.412c-0.364,0.312-0.798,0.667-0.987,0.821c-0.032,0.136-0.083,0.315-0.145,0.424
	c-0.104,0.186-0.345,0.302-0.345,0.302l-0.24,0.129l-0.356,0.421l-0.465,0.448l-0.31,0.335l-0.769,0.753l-0.627,0.795l-0.283,0.176
	c0,0-0.172,0.033-0.336,0.018c-0.165-0.014-0.224-0.126-0.224-0.126s-0.259,0.115-0.456,0.048c-0.196-0.068-0.313-0.284-0.313-0.284
	l-0.032-0.343c0,0-0.201,0.013-0.279-0.082s-0.146-0.241-0.133-0.478c0.014-0.234,0.139-0.39,0.139-0.39S0.783,24.582,0.707,24.4
	C0.628,24.219,0.688,23.864,0.688,23.864z"/>
<polygon id="skin-leg-l" fill="#F9CAA9" points="17.081,35.208 18.073,34.958 19.032,34.572 19.057,34.293 19.092,34.028 
	19.194,33.388 17.909,33.563 16.625,33.68 16.068,33.71 16.512,34.64 16.807,35.085 "/>
<polygon fill-rule="evenodd" clip-rule="evenodd" fill="#1A1A18" points="17.524,34.26 17.7,34.21 17.762,34.087 17.817,33.953 
	17.356,33.986 17.327,34.215 17.524,34.26 "/>
<path id="goalie-sock-l" fill-rule="evenodd" clip-rule="evenodd" fill="#FFFFFF" d="M17.288,36.844
	c0.094,0.044,0.369,0.009,0.457,0.033c0.088,0.025,0.08,0.069,0.023,0.194s-0.367,0.25-0.369,0.379
	c-0.004,0.129,0.131,0.78,0.275,1.226c0.146,0.446,0.557,1.74,0.557,1.74l0.852,2.516c0,0,0.219,0.614,0.236,0.776
	c0.02,0.163,0.029,0.47,0.053,0.58c0.021,0.112,0.006,0.282,0.123,0.278c0.119-0.004,0.219-0.343,0.311-0.445
	c0.205-0.235,0.588-0.177,0.738-0.044c0.082,0.071,0.197,0.442,0.287,0.456c0.092,0.012,0.002,0.059,0.109-0.045
	c0.109-0.104,0.041-0.513,0.043-0.588c0-0.077-0.086-0.603-0.078-0.698s-0.127-0.745-0.127-0.745s-0.057-0.232-0.139-0.659
	c-0.082-0.426-0.287-2.808-0.369-3.323c-0.082-0.514-0.205-0.999-0.301-1.352c-0.096-0.354-0.232-0.516-0.301-0.545
	S19.44,36.64,19.44,36.64s-0.117,0-0.227-0.062c-0.111-0.061-0.035-0.158-0.025-0.189c0.012-0.032,0.193-0.256,0.26-0.438
	c0.07-0.18,0.039-0.68-0.025-0.754c-0.064-0.073-0.135-0.111-0.262-0.132c-0.123-0.021-0.184-0.004-0.314,0.044
	c-0.205,0.074-0.75,0.266-0.922,0.316s-0.545,0.156-0.639,0.17c-0.096,0.014-0.191,0.029-0.273,0.102
	c-0.08,0.072-0.084,0.304-0.041,0.501c0.045,0.195,0.045,0.348,0.133,0.475C17.19,36.799,17.192,36.799,17.288,36.844z"/>
<path id="goalie-shirt" fill-rule="evenodd" clip-rule="evenodd" fill="#962467" d="M16.842,14.969l0.662,1.075
	c0,0,0.057,0.085,0.125,0.1c0.076,0.014,0.168-0.045,0.203-0.061c0.07-0.029,0.521-0.322,0.973-0.646
	c0.453-0.324,1.008-0.739,1.008-0.739s0.361-0.275,0.539-0.422c0.039-0.033,0.006-0.107-0.082-0.279
	c-0.141-0.278-0.393-0.716-0.52-0.956c-0.273-0.515-0.639-1.132-0.639-1.132s-0.18-0.354-0.408-0.757
	c-0.227-0.405-0.539-0.681-0.664-0.839c-0.172-0.219-0.533-0.53-0.703-0.625c-0.297-0.168-0.717-0.418-0.922-0.484
	c-0.205-0.064-0.583-0.181-0.844-0.25c-0.261-0.067-0.688-0.172-0.688-0.172l-0.344,0.625l-0.598,1.086l-0.496,0.883l-0.484,0.891
	c0,0-0.257-0.69-0.359-0.984c-0.125-0.359-0.28-0.782-0.359-1.078c-0.077-0.298-0.235-0.641-0.235-0.641s-0.232,0.089-0.389,0.199
	c-0.232,0.162-0.33,0.213-0.486,0.342s-0.41,0.441-0.516,0.568c-0.104,0.127-0.344,0.496-0.422,0.688s-0.197,0.532-0.266,0.734
	c-0.068,0.203-0.27,0.834-0.359,1.156c-0.09,0.326-0.219,0.719-0.344,1.156c-0.162,0.567-0.361,1.149-0.386,1.25
	c-0.044,0.18-0.04,0.225,0.027,0.309c0.097,0.117,0.177,0.18,0.233,0.236c0.246,0.234,0.594,0.532,0.844,0.729
	c0.251,0.195,0.552,0.387,0.82,0.505c0.117,0.052,0.132-0.002,0.137-0.09c0.006-0.087-0.009-0.439-0.035-0.792
	c-0.027-0.353-0.096-1.426-0.109-1.676s0.02-0.612,0.07-0.69c0.039-0.061,0.135-0.119,0.141,0.035
	c0.008,0.154,0.285,1.883,0.345,2.106c0.06,0.225,0.265,1.062,0.333,1.503c0.069,0.441,0.16,1.466,0.178,1.765
	c0.02,0.3,0.054,1.323,0.054,1.323l0.042,0.999c0,0-0.035,0.159,0.121,0.204c0.154,0.047,0.34,0.096,0.538,0.119
	c0.307,0.037,1.291,0.139,1.629,0.148c0.336,0.008,1.49-0.058,1.764-0.119c0.276-0.059,0.999-0.336,1.252-0.418
	c0.254-0.081,0.91-0.212,1.027-0.221c0.117-0.007,0.375-0.05,0.451-0.044c0.076,0.007,0.072-0.279,0.082-0.239
	c0.008,0.04-0.123-1.988-0.123-1.988s-0.09-1.968-0.164-2.161c-0.074-0.191-0.307-0.612-0.383-0.646
	c-0.074-0.031-0.293,0.166-0.41,0.191c-0.115,0.028-0.324-0.088-0.439-0.142c-0.115-0.051-0.234-0.319-0.334-0.522
	c-0.15-0.308-0.467-0.952-0.549-1.153c-0.08-0.198-0.299-0.708-0.293-0.8c0.008-0.09,0.188,0,0.256,0.051
	C16.411,14.232,16.842,14.969,16.842,14.969z"/>
<path id="goalie-shorts" fill-rule="evenodd" clip-rule="evenodd" fill="#1A1A18" d="M13.755,32.609
	c0.076-0.287,0.167-0.54,0.205-0.735c0.042-0.205,0.075-0.521,0.068-0.75c-0.005-0.228-0.066-3.097-0.067-3.32
	c-0.001-0.223,0.054-0.336-0.014-0.412c-0.069-0.074-0.715-0.603-0.871-0.655c-0.156-0.052-0.305-0.156-0.285-0.186
	c0.02-0.027,0.42-0.079,0.555-0.031c0.135,0.047,0.135,0.055,0.23,0.14c0.096,0.084,0.493,0.365,0.535,0.319
	c0.041-0.044-0.179-0.773-0.158-0.91c0.021-0.133,0.371-0.626,0.387-0.549c0.018,0.077-0.025,1.134,0.057,1.193
	c0.084,0.061,0.631,0.001,0.625,0.097c-0.008,0.096-0.01,0.206-0.111,0.275c-0.102,0.07-0.297,0.139-0.398,0.236
	c-0.101,0.099-0.191,0.607-0.191,0.607l0.105,3.159l0.085,2.101c0,0-0.017,0.176,0.1,0.172c0.116-0.002,1.671-0.008,1.671-0.008
	l1.68-0.174c0,0,1.844-0.228,1.926-0.251c0.082-0.024,0.037-0.193,0.037-0.193s-0.16-1.433-0.242-2.506s-0.396-3.485-0.453-4.132
	c-0.055-0.646-0.172-1.231-0.172-1.231l0.021-0.797c0,0-0.135-0.785-0.271-0.813c-0.139-0.025-0.645,0.029-0.871,0.031
	c-0.225,0.002-0.572-0.205-0.494-0.286c0.078-0.079,0.871-0.248,1.021-0.237c0.15,0.012,0.381,0.031,0.467-0.003
	c0.082-0.037,0.016-0.352,0.016-0.352s-0.006-0.305-0.121-0.359c-0.115-0.054-0.441-0.012-0.441-0.012l-0.912,0.172l-1.314,0.44
	c0,0-0.855,0.148-1.239,0.143c-0.383-0.003-1.675-0.08-1.98-0.101c-0.305-0.021-1.053-0.156-1.145-0.14
	c-0.091,0.017-0.207,0.279-0.178,0.36c0.031,0.083,0.536,0.022,0.64,0.052c0.104,0.031,0.23,0.034,0.229,0.092
	c-0.002,0.057-0.445,0.165-0.573,0.228c-0.128,0.064-0.422,0.248-0.474,0.377s-0.528,1.534-0.618,1.866
	c-0.09,0.335-0.818,2.813-0.818,2.813l-0.664,2.34c0,0-0.25,0.931-0.318,1.194c-0.068,0.265-0.115,0.333,0.024,0.401
	c0.14,0.07,0.235,0.084,0.632,0.188c0.397,0.103,1.368,0.338,1.807,0.44c0.439,0.104,1.477,0.32,1.904,0.39
	c0.058,0.01,0.094,0.015,0.101,0.015c0.025-0.004,0.053-0.061,0.08-0.143C13.61,33.036,13.679,32.896,13.755,32.609z"/>
<path fill-rule="evenodd" clip-rule="evenodd" fill="#1A1A18" d="M16.862,19.525c-0.275,0.062-0.734-0.019-0.935,0.094
	c-0.201,0.111-0.812,0.688-0.924,0.707c-0.112,0.021-0.462,0.079-0.485-0.031c-0.023-0.107,0.702-0.736,0.906-0.863
	c0.205-0.127,0.889-0.41,1.163-0.489c0.275-0.079,1.025-0.302,1.061-0.213c0.037,0.09-0.008,0.336-0.137,0.455
	C17.381,19.304,17.139,19.463,16.862,19.525z"/>
<path id="goalie-sock-r" fill="#FFFFFF" d="M10.878,41.593c-0.094-0.383-0.355-1.31-0.449-1.677
	c-0.096-0.37-0.273-0.996-0.361-1.357c-0.159-0.656-0.229-1.181-0.242-1.294c-0.014-0.112,0.054-0.204,0.123-0.32
	S9.73,36.769,9.58,36.697c-0.15-0.074-0.111-0.359-0.158-0.585c-0.047-0.225-0.084-0.611,0.062-0.65
	c0.146-0.041,0.642,0.045,0.943,0c0.303-0.045,0.945-0.287,1.068-0.266c0.125,0.021,0.177,0.193,0.225,0.309
	c0.05,0.119,0.103,0.282,0.104,0.397c0,0.118,0.018,0.166-0.039,0.289c-0.056,0.123-0.629,0.252-0.656,0.371
	c-0.029,0.119,0.119,0.202,0.244,0.189c0.123-0.012,0.209-0.047,0.314-0.025c0.106,0.018,0.246,0.257,0.342,0.528
	c0.098,0.271,0.231,0.942,0.309,1.36c0.076,0.419,0.348,3.009,0.369,3.396c0.021,0.39,0.096,0.71,0.018,0.821
	c-0.078,0.113-0.367,0.364-0.51,0.414c-0.144,0.052-0.452-0.171-0.516-0.193c-0.066-0.02-0.205-0.4-0.225-0.445
	s-0.205-0.155-0.205-0.155s-0.102-0.022-0.156-0.036C11.058,42.4,10.974,41.976,10.878,41.593z"/>
<path id="skin-leg-r" fill="#F9CAA9" d="M11.716,34.182c-0.098,0.206-0.279,0.594-0.279,0.594s-0.844,0.273-1.008,0.273
	c-0.166,0-0.934-0.064-0.934-0.064s-0.137-0.11-0.197-0.296c-0.061-0.184-0.213-0.652-0.246-0.97
	c-0.033-0.316,0.117-0.978,0.117-0.978s0.711,0.146,1.026,0.234c0.315,0.089,0.753,0.206,1.19,0.31
	c0.438,0.103,0.768,0.176,0.768,0.176S11.812,33.978,11.716,34.182z"/>
<polygon fill="#1A1A18" points="9.603,34.326 9.473,33.972 9.47,33.839 9.729,34.074 10.041,34.285 "/>
<path id="skin-arm-l" fill="#F9CAA9" d="M19.393,15.535l0.787-0.558l0.109-0.104l0.502,0.865l3.078,6.054l-0.902,0.705
	c0,0-3.666-5.097-3.922-5.468c-0.254-0.372-0.555-0.827-0.555-0.827L19.393,15.535z"/>
<polygon id="skin-arm-r" fill-rule="evenodd" clip-rule="evenodd" fill="#F9CAA9" points="5.237,21.047 5.334,20.95
	6.156,20.124 7.537,18.271 8.183,17.343 8.802,16.528 9.486,17.158 9.815,17.429 10.349,17.8 10.027,18.325 9.343,19.148 
	8.892,19.59 6.03,22.047 "/>
<path fill-rule="evenodd" clip-rule="evenodd" fill="#FFFFFF" d="M3.428,22.183l-0.055,0.184c0,0-0.333-0.059-0.458-0.03
	c-0.125,0.029-0.53,0.307-0.696,0.447c-0.167,0.141-0.901,0.889-0.901,0.889l-0.26,0.262c0,0-0.09,0.247-0.021,0.317
	s0.179,0.025,0.179,0.025l0.335-0.222l0.429-0.319l0.27-0.221l0.046,0.134l-0.636,0.66l-0.404,0.459c0,0-0.129,0.213-0.043,0.331
	s0.242,0.105,0.242,0.105l0.477-0.458l0.248-0.25l0.303-0.284l0.062,0.153l-0.906,1.126c0,0-0.094,0.237,0.023,0.312
	c0.116,0.075,0.253,0.014,0.253,0.014l0.896-1.095l0.092,0.041l-0.605,0.935c0,0,0.016,0.122,0.111,0.151s0.209-0.039,0.209-0.039
	l0.822-0.964c0,0,0.555-0.52,0.658-0.641s0.502-0.523,0.639-0.652c0.136-0.13,0.402-0.431,0.385-0.472S5.006,22.844,5,22.796
	s0.092-0.148,0.159-0.128c0.068,0.021,0.154,0.22,0.154,0.22s0.16-0.08,0.338-0.198c0.178-0.117,0.174-0.342,0.174-0.342
	l-0.757-1.059c0,0-0.112-0.153-0.21-0.229c-0.097-0.076-0.322,0.08-0.318,0.179c0.003,0.099,0.018,0.295,0.018,0.295
	s-0.162,0.035-0.336,0.052c-0.172,0.017-0.467-0.048-0.467-0.048l-0.592-0.222c0,0-0.055-0.037-0.16,0.059
	C2.9,21.469,2.88,21.63,2.88,21.63l0.321,0.352L3.428,22.183z"/>
<path fill-rule="evenodd" clip-rule="evenodd" fill="#FFFFFF" d="M25.321,23.51l0.002,0.192c0,0,0.334,0.055,0.445,0.122
	c0.109,0.068,0.418,0.466,0.535,0.653c0.119,0.188,0.607,1.141,0.607,1.141s0.166,0.248,0.174,0.335
	c0.016,0.161,0.014,0.265-0.072,0.308c-0.086,0.045-0.178-0.033-0.178-0.033l-0.256-0.32l-0.318-0.445l-0.193-0.298l-0.08,0.112
	l0.418,0.837l0.254,0.57c0,0,0.062,0.243-0.053,0.328c-0.117,0.086-0.26,0.021-0.26,0.021l-0.324-0.593l-0.166-0.318l-0.207-0.37
	l-0.104,0.126l0.543,1.368c0,0,0.023,0.258-0.109,0.291s-0.246-0.07-0.246-0.07l-0.543-1.336l-0.098,0.009l0.311,1.089
	c0,0-0.049,0.111-0.148,0.107s-0.188-0.105-0.188-0.105l-0.51-1.187c0,0-0.381-0.677-0.445-0.826
	c-0.064-0.148-0.33-0.662-0.422-0.83c-0.094-0.168-0.262-0.543-0.234-0.575c0.027-0.033,0.176-0.19,0.195-0.234
	s-0.045-0.171-0.115-0.174c-0.07-0.002-0.209,0.159-0.209,0.159s-0.129-0.129-0.266-0.3c-0.135-0.17-0.068-0.383-0.068-0.383
	l1.021-0.762c0,0,0.15-0.108,0.264-0.148c0.115-0.04,0.285,0.182,0.254,0.274c-0.029,0.093-0.1,0.274-0.1,0.274
	s0.145,0.087,0.303,0.16c0.16,0.072,0.459,0.106,0.459,0.106l0.627-0.018c0,0,0.064-0.017,0.135,0.108
	c0.072,0.125,0.047,0.284,0.047,0.284l-0.406,0.229L25.321,23.51z"/>
<path id="skin-face" fill-rule="evenodd" clip-rule="evenodd" fill="#F9CAA9" d="M14.137,7.19c0.443-0.129,0.705-0.612,0.769-1.059
	c0,0,0.007-0.301-0.343-0.276c-0.229,0.017-0.411,0.047-0.729,0.501C13.266,5,13.838,4.483,13.53,4.629
	c-0.29,0.129-0.786,0.249-1.243,0.304c-0.414,0.048-0.631,0.042-0.819-0.015c-0.166-0.016-0.105-0.168-0.166-0.168
	c-0.096,0.083-0.213,0.106-0.637,0.031c-0.229-0.076,0.045-0.273-0.106-0.182c-0.151,0.075-0.106,0.045-0.187,0.078
	c0.029,0.127,0.058,0.209,0.112,0.436c0.132-0.022,0.251-0.045,0.375-0.004c0.12,0.039,0.156,0.22,0.122,0.207
	c-0.129-0.049-0.33-0.088-0.467-0.079c0,0.001,0,0.001,0,0.001c0.022,0.053-0.029,0.131-0.023,0.201
	c0.119-0.023,0.479-0.042,0.67,0.079c0.101,0.055,0.098,0.156,0.127,0.268c0.051,0.201-0.002,0.48-0.002,0.48
	s-0.027-0.145-0.047-0.266c-0.016-0.086-0.021-0.162-0.066-0.215c-0.186-0.217-0.235,0.115-0.395,0.021
	c-0.071-0.042-0.164-0.091-0.26-0.142c-0.094,0.398-0.061,0.875,0.025,1.283c0.109,0.522,0.313,0.966,0.789,1.627
	c0,0,0.633,0.463,1.875-0.264c0.18-0.188,0.23,0.525-1.04,0.719c0.261,0.753,0.573,1.69,0.839,2.425
	c0.422-0.719,1.402-2.446,1.516-2.703C14.414,8.455,14.041,7.411,14.137,7.19z M11.964,5.135c0.131-0.012,0.577,0.137,0.896,0.121
	l-0.916,0.136C11.945,5.391,11.613,5.168,11.964,5.135z M11.953,6.872l-0.068,0.022l-0.082,0.069l-0.031,0.061l-0.02-0.021
	L11.71,6.843L11.953,6.872z M11.271,6.796l0.046-0.029l0.015,0.227l-0.065-0.05L11.271,6.796z M11.61,8.073
	c0,0-0.249-0.023-0.269-0.141c-0.004-0.023,0.093-0.02,0.093-0.02l0.134,0.014c0.072,0.01,0.179,0.037,0.179,0.037l0.001,0.075
	L11.61,8.073z M11.992,7.745c-0.09-0.002-0.202,0.043-0.202,0.043l-0.101,0.024c0,0-0.146-0.021-0.191-0.008l-0.141-0.022
	c0,0-0.047-0.059-0.1-0.084c-0.123-0.059-0.343-0.063-0.343-0.063l-0.042-0.075c0,0,0.035-0.018,0.066-0.023
	c0.1-0.021,0.166,0,0.277,0.005c0.143,0.007,0.062-0.08,0.256,0.011c0.062,0.029,0.047-0.041,0.161,0.008s0.429,0.072,0.429,0.072
	s0.347,0,0.273,0.051C12.246,7.745,12.13,7.75,11.992,7.745z M12.58,7.649c-0.217-0.045-0.129-0.111-0.129-0.111
	c0.035-0.095,0.143-0.031,0.176-0.031L12.58,7.649z M13.015,5.781c-0.024,0.01-0.202,0.009-0.337,0.005
	c-0.074,0.062-0.146,0.119-0.238,0.129c-0.093,0.012-0.168-0.068-0.223-0.101c-0.024-0.015-0.061-0.026-0.096-0.028
	c-0.01,0.004-0.014,0-0.023,0.006c-0.032,0.004-0.064,0.014-0.079,0.055c-0.001,0.004-0.015-0.005-0.025-0.012
	c-0.001,0-0.002,0-0.002-0.001c-0.023-0.013-0.047-0.03-0.047-0.03L11.949,5.8c-0.058-0.058-0.088-0.174-0.078-0.234
	c0.064-0.021,0.153-0.009,0.245,0.016c0.221-0.008,0.313-0.066,0.529,0.01c0.033,0.012,0.063,0.038,0.092,0.064
	c0.049-0.008,0.124-0.007,0.273,0.025c0.205,0,0.352-0.067,0.352-0.067S13.054,5.765,13.015,5.781z M14.121,6.606
	c0.076-0.062,0.314,0.006,0.299-0.316c-0.008-0.136,0.004-0.199,0.05-0.23c0.046-0.029,0.167,0.025,0.167,0.025
	s-0.048,0.203-0.125,0.45c-0.018,0.056-0.1,0.106-0.1,0.106l-0.045,0.021c0,0-0.094-0.014-0.141,0.019
	c-0.045,0.032-0.041,0.111-0.105,0.091C14.068,6.755,14.045,6.667,14.121,6.606z"/>
<path id="hair-p" fill="#F7DD7F" d="M14.377,1.219c0.125-0.164,0.572-0.508,1.207-0.349c0.77,0.192,0.807,0.81,0.967,2.491
	c0.096,1,0.209,1.411,0.318,1.952c0.137,0.686,0.348,1.316-0.074,1.938c0.16-0.234-0.148-0.842-0.148-0.842
	c0.006,0.125,0.072,0.346,0.016,0.527c-0.068,0.214-0.262,0.383-0.289,0.406c0.154-0.322-0.182-0.868-0.182-0.868
	c-0.055,0.293-0.124,0.619-0.463,0.878c0.082-0.062,0.093-0.706,0.093-0.706c-0.067,0.233-0.43,0.358-0.446,0.548
	c0.02-0.235-0.07-0.494,0.058-0.641c0.328-0.375,0.469-0.672,0.547-1.047c0.125-0.516,0.156-0.945,0.109-1.359
	c-0.047-0.422-0.108-0.659-0.281-1.234c0-0.396-0.014-0.596-0.109-0.844c-0.156-0.406-0.332-0.517-0.547-0.656
	C14.839,1.21,14.377,1.219,14.377,1.219z"/>
<path fill="#FFFFFF" d="M14.236,1.435c0,0-0.05-0.057,0.355,0.025c0.312,0.064,0.691,0.248,0.873,0.648
	c0.144,0.317,0.123,0.564,0.123,0.564s-0.322-0.395-0.625-0.697C14.625,1.636,14.236,1.435,14.236,1.435z"/>
<path id="hair" fill-rule="evenodd" clip-rule="evenodd" fill="#F7DD7F" d="M15.729,3.822c-0.141-0.653-0.248-0.79-0.444-1.072
	c-0.383-0.551-0.699-0.794-1.011-0.995c-0.277-0.179-0.839-0.448-1.639-0.368c0,0-0.298,0.02-0.582,0.092
	c-0.344,0.09-0.696,0.241-0.811,0.322c-0.156,0.108-0.332,0.219-0.49,0.383c-0.2,0.207-0.373,0.466-0.43,0.536
	c-0.073,0.079-0.367,0.581-0.566,0.857C9.554,3.856,9.382,3.97,9.394,3.984c0.045,0.047,0.182,0.011,0.385,0.012
	C9.691,4.099,9.712,4.123,9.542,4.281c0.521,0.031,0.688,0.076,1.213-0.113c0.343-0.216,0.417,0.029,0.033,0.388
	c0.569,0.112,0.793-0.394,0.877-0.311c0.042,0.042,0.261,0.153-0.103,0.373c0.464,0.186,1.98-0.33,2.121-0.377
	s0.299-0.046,0.266,0.359c-0.022,0.274-0.085,0.624-0.069,0.716c0.057,0.341,0.069,0.456,0.069,0.456
	c0.234-0.266,0.643-0.234,0.75-0.25c0.359,0.016,0.43,0.203,0.479,0.443c0,0.229-0.103,0.402-0.122,0.459
	c-0.035,0.107-0.016,0.107-0.016,0.107s0.488-0.403,0.628-1.057S15.867,4.474,15.729,3.822z M15.538,4.72
	c-0.02,0.092-0.021-0.215-0.065-0.563c-0.042-0.323-0.252-0.888-0.14-0.716C15.544,3.767,15.65,4.215,15.538,4.72z"/>
</svg>
