<?xml version="1.0" encoding="utf-8"?>
<!-- Generator: Adobe Illustrator 16.0.4, SVG Export Plug-In . SVG Version: 6.00 Build 0)  -->
<!DOCTYPE svg PUBLIC "-//W3C//DTD SVG 1.1//EN" "http://www.w3.org/Graphics/SVG/1.1/DTD/svg11.dtd">
<svg version="1.1" id="Ebene_1" xmlns="http://www.w3.org/2000/svg" xmlns:xlink="http://www.w3.org/1999/xlink" x="0px" y="0px"
	 width="24.658px" height="49.833px" viewBox="0 0 24.658 49.833" enable-background="new 0 0 24.658 49.833" xml:space="preserve">
<path fill-rule="evenodd" clip-rule="evenodd" fill="#1A1A18" d="M0.781,47.929c0.029-0.213,0.264-0.615,0.401-0.895
	c0.108-0.217,0.71-1.115,0.71-1.115l0.74-0.992l0.35-0.4l0.116-0.375l0.243-0.23c0,0-0.047-0.201-0.008-0.281
	c0.039-0.082,0.215-0.199,0.215-0.199l0.02-0.119l0.529-3.645l0.282-2.168l0.14-0.512l0.008-0.328l0.031-0.697l0.246-0.482
	l0.142-0.295l0.097-0.52l0.11-1.088l0.106-0.752c0,0-0.135-0.059-0.213-0.117c-0.031-0.025-0.096-0.061-0.082-0.119
	C5.019,32.365,5.16,31.88,5.16,31.88l0.416-1.439l0.515-1.939l0.455-1.549c0,0,0.614-2.004,0.753-2.416
	c0.139-0.41,0.305-0.865,0.4-1.012c0.097-0.146,0.155-0.221,0.155-0.221s-0.103-0.16-0.07-0.381s0.186-0.367,0.196-0.412
	c0.012-0.043,0.038-0.252,0.038-0.252s0.069-1.121,0.083-1.312c0.042-0.562-0.014-1.473-0.021-1.812s-0.073-0.893-0.073-0.893
	s-0.963,0.985-1.243,1.244c-0.281,0.259-0.956,0.63-1.174,0.667c-0.219,0.039-0.573,0.101-1.052-0.167
	c-0.381-0.212-0.654-0.471-0.646-1.043c0.008-0.601,0.231-1.566,0.357-2.092s0.32-1.1,0.32-1.1s-0.07-0.041-0.211-0.119
	c-0.141-0.079-0.18-0.121-0.139-0.224c0.042-0.104,0.279-0.723,0.378-0.948c0.288-0.652,0.848-1.753,0.946-1.933
	c0.096-0.182,0.582-0.86,0.801-1.153c0.221-0.293,0.803-0.93,1.036-1.137c0.298-0.264,0.782-0.597,0.94-0.668
	c0.159-0.069,0.705-0.254,1.018-0.339C9.73,9.123,10.48,8.986,10.48,8.986l0.016-0.001c-0.063-0.104-0.123-0.207-0.168-0.3
	c-0.174-0.354-0.35-0.659-0.35-0.659s-0.09-0.017-0.186-0.11C9.626,7.749,9.591,7.591,9.531,7.428
	c-0.06-0.162-0.125-0.574-0.143-0.678C9.372,6.646,9.505,6.416,9.505,6.416s-0.213-0.41-0.311-0.844
	C9.097,5.141,9.103,4.848,9.087,4.463C9.072,4.078,9.32,3.288,9.646,2.885c0.15-0.208,0.283-0.318,0.588-0.479
	c0.131-0.066,0.271-0.162,0.451-0.217c0.008-0.048-0.021-0.232,0.082-0.423c0.148-0.278,0.324-0.513,0.627-0.709
	c0.314-0.204,0.963-0.278,1.334-0.044c0.396,0.252,0.395,0.322,0.625,0.655c0.207,0.303,0.108,0.483,0.108,0.483
	s0.731,0.382,1.067,0.843c0.291,0.398,0.744,1.014,0.4,2.66l-0.176,0.745c0,0,0.085-0.01,0.153,0.153
	c0.069,0.165,0.024,0.471-0.021,0.655c-0.047,0.186-0.311,0.553-0.492,0.705c-0.18,0.151-0.259,0.086-0.259,0.086
	s-0.188,0.379-0.393,0.755c-0.048,0.087-0.093,0.166-0.137,0.239l0.062,0.02c0,0,1.039,0.249,1.327,0.334s0.897,0.343,1.278,0.599
	c0.375,0.252,0.609,0.491,1.013,0.864c0.402,0.371,0.786,1.002,0.964,1.285c0.072,0.115,0.496,0.721,0.775,1.331
	c0.175,0.384,0.568,1.103,0.65,1.394c0.082,0.289,0.227,0.716,0.227,0.716s0.037,0.04-0.038,0.108
	c-0.075,0.067-0.255,0.16-0.255,0.16s0.219,0.878,0.3,1.202c0.081,0.323,0.233,1.156,0.267,1.394
	c0.035,0.237,0.079,0.833-0.031,1.106c-0.109,0.273-0.319,0.445-0.563,0.57c-0.37,0.19-0.73,0.107-1.167,0.057
	c-0.436-0.051-0.973-0.521-1.258-0.777c-0.285-0.255-1.055-1.16-1.055-1.16l-0.027,0.292c0,0-0.082,0.596-0.098,0.979
	c-0.016,0.382-0.006,1.104-0.021,1.354c-0.015,0.25,0.042,0.688,0.042,0.688l0.096,0.229l0.174,0.312c0,0,0.059,0.262,0.046,0.363
	s-0.015,0.221,0.054,0.34c0.068,0.117,0.295,0.457,0.295,0.457s0.248,0.5,0.397,0.896c0.149,0.398,0.551,1.576,0.551,1.576
	l0.404,1.355l0.784,2.412l0.594,1.887c0,0,0.315,1.045,0.355,1.146c0.041,0.104,0.02,0.162-0.107,0.213
	c-0.126,0.051-0.372,0.162-0.372,0.162l0.115,0.752l0.122,1.082l0.102,0.52l0.145,0.295c0,0,0.193,0.25,0.252,0.48
	c0.021,0.088,0.068,0.178,0.084,0.307c0.025,0.209,0.012,0.455,0.012,0.455l-0.045,0.262l0.111,0.518l0.338,2.152l0.569,3.641
	l0.021,0.117c0,0,0.186,0.111,0.217,0.197c0.033,0.088-0.003,0.281-0.003,0.281l0.245,0.227l0.121,0.375l0.396,0.588l0.716,0.834
	c0,0,0.562,0.811,0.707,1.055s0.396,0.84,0.396,0.84s0.064,0.322,0.016,0.5c-0.049,0.176-0.084,0.283-0.218,0.391
	c-0.133,0.107-0.331,0.15-0.331,0.15l-0.133,0.064c0,0-0.08,0.023-0.244,0.023c-0.165-0.002-0.707-0.08-0.707-0.08l-0.139-0.121
	c0,0-0.057,0.08-0.14,0.109c-0.082,0.029-0.205-0.121-0.246-0.18c-0.04-0.059-0.013-0.176-0.013-0.176l-0.264-0.162l-0.214-0.148
	c0,0-0.083,0.059-0.138,0.059s-0.218-0.119-0.231-0.162c-0.013-0.045,0.015-0.191,0.015-0.191l-1.046-0.844l-0.313-0.248
	l-0.101-0.135c0,0-0.146,0.109-0.189,0.098c-0.043-0.01-0.111-0.084-0.138-0.158c-0.027-0.072,0-0.176,0-0.176l-0.178-0.221
	l-0.176-0.223c0,0-0.074,0.066-0.11,0.029c-0.027-0.029-0.055-0.029-0.095-0.162c-0.041-0.133,0.043-0.234,0.043-0.234l-0.164-0.375
	l-0.022-0.729l0.069-0.238l-0.041-0.08l0.027-0.164l0.062-0.391c0,0-0.038-0.104-0.155-0.756c-0.119-0.65-0.295-0.975-0.471-1.389
	c-0.176-0.41-0.469-1.205-0.469-1.205l-0.49-1.443L16.75,38.13l-0.049-0.426l-0.214-0.355c0,0-0.13-0.295-0.161-0.58
	s0.014-0.682,0.014-0.682l-0.176-0.707c0,0-0.218-0.412-0.421-0.752c-0.204-0.338-0.51-0.779-0.51-0.779l-0.47,0.111l-1.145,0.211
	l-0.443-1.611l-0.541-1.898l-0.242-0.766l-0.111,0.123l-0.479,1.564l-0.437,1.277l-0.396,1.277l-0.123,0.066L9.185,33.8
	l-0.446,0.807l-0.348,0.707l-0.128,0.703l-0.02,0.686L8.089,37.29l-0.219,0.291L7.835,38.07l-0.189,0.74l-0.472,1.453l-0.52,1.395
	l-0.392,1.211l-0.148,0.758c0,0,0.044,0.279,0.066,0.391c0.023,0.113-0.012,0.246-0.012,0.246l0.072,0.234
	c0,0,0.016,0.58-0.014,0.73C6.199,45.38,5.88,45.841,5.88,45.841S5.829,46.154,5.82,46.2c-0.008,0.045-0.16,0.176-0.188,0.176
	s-0.136-0.088-0.136-0.088l-0.399,0.41l-0.356,0.381c0,0,0.041,0.104,0.026,0.16c-0.014,0.061-0.165,0.148-0.192,0.162
	c-0.027,0.016-0.119-0.061-0.119-0.061s-0.528,0.4-0.677,0.527c-0.219,0.191-0.426,0.307-0.426,0.307s0.027,0.148,0.014,0.193
	c-0.014,0.043-0.151,0.131-0.191,0.131c-0.042,0-0.138-0.074-0.138-0.074l-0.233,0.131c0,0-0.029,0.15-0.057,0.207
	c-0.027,0.059-0.108,0.086-0.163,0.1c-0.056,0.016-0.147-0.088-0.147-0.088l-0.182,0.088c0,0-0.435,0.078-0.562,0.07
	c-0.126-0.006-0.362-0.076-0.362-0.076S1.138,48.812,1,48.708c-0.139-0.102-0.248-0.309-0.262-0.412
	C0.725,48.195,0.753,48.142,0.781,47.929z"/>
<polygon id="skin-leg-r" fill-rule="evenodd" clip-rule="evenodd" fill="#F9CAA9" points="16.814,33.454 15.875,33.679 
	15.722,33.741 16.233,34.589 16.621,35.269 16.789,35.913 17.632,35.796 18.4,35.607 19.157,35.29 18.945,33.638 18.822,32.952 
	18.006,33.179 "/>
<path id="goalie-sock-r" fill-rule="evenodd" clip-rule="evenodd" fill="#FFFFFF" d="M17.648,37.603
	c-0.098,0.076-0.395,0.039-0.452,0.115c-0.057,0.078-0.034,0.576,0.089,0.924c0.123,0.346,0.496,1.385,0.496,1.385l0.883,2.23
	l0.183,0.848l0.116,0.752l0.195,0.309l0.256-0.111l0.344-0.385l0.381-0.287l0.215-0.066l0.291-0.033c0,0-0.023-0.371-0.062-0.621
	c-0.04-0.25-0.18-1.051-0.254-1.59c-0.072-0.539-0.413-2.529-0.467-2.883c-0.054-0.352-0.082-0.736-0.135-0.869
	c-0.053-0.131-0.3-0.096-0.401-0.1c-0.103-0.004-0.144-0.027-0.15-0.111s0.255-0.203,0.392-0.391
	c0.137-0.189,0.049-0.525,0.049-0.525s-0.141-0.357-0.291-0.402s-0.308,0.115-0.606,0.217c-0.298,0.104-0.655,0.182-1.066,0.25
	c-0.41,0.068-0.694,0.047-0.78,0.156c-0.085,0.105-0.092,0.229-0.055,0.422c0.039,0.195,0.098,0.295,0.19,0.363
	c0.094,0.066,0.614-0.021,0.675,0.074C17.744,37.37,17.746,37.527,17.648,37.603z"/>
<path fill-rule="evenodd" clip-rule="evenodd" fill="#1A1A18" d="M18.478,34.849c0.124-0.047,0.164-0.25,0.164-0.25
	s-0.004-0.109-0.118-0.088c-0.112,0.025-0.472,0.145-0.478,0.201c-0.006,0.059-0.021,0.25,0.076,0.25
	C18.218,34.962,18.478,34.849,18.478,34.849z"/>
<path id="goalie-shorts" fill-rule="evenodd" clip-rule="evenodd" fill="#1A1A18" d="M10.664,33.763l0.166-0.42l1.117-3.523
	l0.312-1.086l0.01-0.809c0,0-0.105-0.012-0.383-0.115c-0.276-0.104-0.631-0.359-0.795-0.449c-0.164-0.088-0.38-0.186-0.428-0.273
	c-0.035-0.066,0.396-0.141,0.549-0.088c0.154,0.053,0.725,0.447,0.802,0.385s0.222-0.648,0.343-0.781s0.524-0.291,0.534-0.154
	c0.011,0.141-0.396,0.67-0.454,0.838c-0.059,0.17,0.867,0.031,1.012,0.098c0.064,0.031,0.116,0.262-0.014,0.299
	c-0.128,0.041-0.633,0.078-0.703,0.188c-0.068,0.115-0.146,1.35-0.146,1.35l0.452,1.443l0.829,3.023l0.615-0.121l1.293-0.309
	l2.1-0.527c0,0,1.121-0.322,1.217-0.338c0.096-0.012,0.188-0.078,0.151-0.189c-0.037-0.109-0.392-1.223-0.392-1.223
	s-0.751-2.428-0.896-2.885c-0.145-0.455-0.408-1.25-0.621-1.912c-0.213-0.664-0.486-1.531-0.486-1.531s-0.396-0.988-0.516-1.18
	c-0.117-0.191-0.234-0.396-0.354-0.443c-0.119-0.043-0.331,0.047-0.637,0.08c-0.305,0.035-0.695,0.211-0.768,0.201
	c-0.071-0.008,0.004-0.314,0.152-0.439s0.88-0.209,1.055-0.262c0.176-0.049,0.139-0.262,0.139-0.262s-0.01-0.256-0.136-0.297
	c-0.126-0.035-0.654,0.096-0.835,0.146c-0.182,0.049-0.258,0.051-0.439,0.115c-0.181,0.064-0.832,0.4-1.089,0.457
	c-0.257,0.059-1.169,0.156-1.678,0.184c-0.51,0.027-1.212,0.012-1.212,0.012l-0.875-0.049l-0.548-0.061c0,0-0.537-0.121-0.657-0.105
	c-0.119,0.014-0.182,0.131-0.205,0.264c-0.025,0.133,0.021,0.221,0.121,0.25s0.575,0.016,0.575,0.016s1.063,0.064,1.19,0.109
	s0.215,0.104,0.219,0.178c0.003,0.072-0.006,0.131-0.125,0.146c-0.119,0.014-1.125,0.055-1.348,0.053
	c-0.222,0-0.366-0.076-0.452-0.068c-0.085,0.008-0.26,0.021-0.331,0.094c-0.072,0.074-0.121,0.146-0.193,0.324
	C7.83,24.288,7.31,25.72,7.31,25.72l-0.5,1.652l-0.875,3.084c0,0-0.447,1.6-0.503,1.748c-0.056,0.146,0.005,0.16,0.249,0.258
	c0.242,0.096,0.676,0.223,0.676,0.223l2.379,0.584L10.664,33.763z"/>
<polygon id="skin-leg-l" fill-rule="evenodd" clip-rule="evenodd" fill="#F9CAA9" points="7.648,33.419 8.612,33.644 8.765,33.7 
	8.314,34.525 7.934,35.206 7.772,35.857 6.927,35.747 6.158,35.57 5.398,35.265 5.591,33.609 5.707,32.921 6.524,33.138 "/>
<polygon id="goalie-sock-l" fill-rule="evenodd" clip-rule="evenodd" fill="#FFFFFF" points="6.931,37.556 7.384,37.665 
	7.306,38.587 6.825,39.982 5.966,42.224 5.792,43.075 5.685,43.825 5.492,44.138 5.236,44.031 4.888,43.656 4.505,43.37 
	4.289,43.308 3.998,43.277 4.076,42.575 4.283,40.997 4.691,38.046 4.85,37.304 5.251,37.195 5.4,37.083 4.974,36.681 4.949,36.173 
	5.223,35.669 5.845,35.974 6.914,36.212 7.692,36.29 7.753,36.779 7.568,37.144 6.894,37.228 "/>
<path fill-rule="evenodd" clip-rule="evenodd" fill="#1A1A18" d="M6.27,34.868c-0.089,0.035-0.084,0.041-0.199-0.055
	c-0.116-0.094-0.165-0.248-0.165-0.248S5.88,34.47,6.021,34.478s0.45,0.131,0.48,0.195c0.029,0.064-0.054,0.139-0.054,0.139
	S6.358,34.831,6.27,34.868z"/>
<path id="skin-arm-l" fill-rule="evenodd" clip-rule="evenodd" fill="#F9CAA9" d="M6.944,17.326c-0.3-0.168-0.437-0.256-0.437-0.256
	L6.22,17.102l0.069-0.249l-0.054-0.412c0,0-0.423-0.197-0.641-0.286c-0.22-0.091-0.616-0.249-0.616-0.249s-0.209,0.532-0.333,0.999
	c-0.123,0.465-0.238,1.048-0.279,1.352c-0.041,0.303-0.113,0.767-0.059,0.909c0.055,0.145,0.149,0.286,0.342,0.399
	c0.191,0.114,0.436,0.169,0.553,0.201s0.211,0.027,0.41-0.042c0.199-0.07,0.596-0.28,0.886-0.548c0.289-0.268,0.632-0.62,0.839-0.84
	C7.543,18.118,7.832,17.8,7.832,17.8S7.244,17.493,6.944,17.326z"/>
<path fill-rule="evenodd" clip-rule="evenodd" fill="#FFFFFF" d="M6.822,15.598l0.115,0.649l-0.045,0.191L6.71,16.482l0.1,0.226
	l0.246,0.178l1.317,0.601c0,0,0.13-0.252,0.104-0.198s0.027-0.245,0.063-0.265c0.034-0.02,0.238-0.024,0.287-0.042
	c0.049-0.02,0.146-0.187,0.194-0.213s0.257-0.118,0.323-0.167c0.066-0.05,0.348-0.335,0.441-0.411
	c0.092-0.077,0.326-0.331,0.49-0.46c0.166-0.13,0.623-0.387,0.655-0.41c0.031-0.025,0.114-0.114,0.019-0.275
	c-0.095-0.162-0.238-0.206-0.238-0.206l-0.994,0.335c0,0-0.083-0.126-0.102-0.219c-0.02-0.093,0.036-0.269,0.105-0.578
	c0.07-0.308,0.145-0.742,0.145-0.742s0.128-0.377-0.076-0.438c-0.282-0.086-0.395,0.412-0.395,0.412l-0.394,0.77l-0.29-0.063
	l0.066-1.265c0,0-0.049-0.162-0.228-0.207c-0.179-0.044-0.235,0.184-0.235,0.184l-0.288,1.214l-0.21-0.018l-0.233-1.202
	c0,0,0.003-0.109-0.138-0.124S7.25,13.014,7.25,13.014s-0.028,0.295-0.036,0.573c-0.006,0.222-0.009,0.583-0.009,0.583l-0.031,0.175
	l-0.12,0.072l-0.107-0.344c0,0-0.111-0.15-0.234-0.121c-0.123,0.03-0.098,0.24-0.098,0.24L6.822,15.598z"/>
<path id="skin-arm-r" fill-rule="evenodd" clip-rule="evenodd" fill="#F9CAA9" d="M17.224,17.368
	c0.164-0.106,0.342-0.246,0.342-0.246l0.396,0.052c0,0-0.134-0.307-0.121-0.366c0.015-0.059,0.098-0.348,0.098-0.348
	s0.521-0.237,0.74-0.324c0.221-0.087,0.493-0.17,0.493-0.17s0.202,0.521,0.323,1.001c0.123,0.481,0.228,1.05,0.269,1.354
	c0.042,0.304,0.105,0.738,0.052,0.91c-0.055,0.173-0.208,0.3-0.345,0.396c-0.136,0.098-0.604,0.237-0.965,0.151
	c-0.362-0.088-0.527-0.211-0.88-0.556c-0.354-0.344-1.01-1.062-1.01-1.062l-0.312-0.34C16.304,17.82,17.058,17.475,17.224,17.368z"
	/>
<path id="goalie-shirt" fill-rule="evenodd" clip-rule="evenodd" fill="#962467" d="M5.13,14.292
	c0.221-0.499,0.566-1.045,0.725-1.372c0.166-0.346,0.393-0.67,0.645-1.075c0.238-0.384,0.828-0.955,1.021-1.168
	c0.266-0.296,0.643-0.56,0.986-0.762c0.301-0.176,0.816-0.282,1.174-0.37c0.375-0.092,0.828-0.137,0.828-0.137l0.402,1.048
	l0.573,1.269l0.585,1.121l0.352-0.773l0.583-1.295l0.568-1.403c0,0,0.476,0.082,0.812,0.159c0.337,0.078,0.881,0.235,1.154,0.364
	c0.275,0.129,0.887,0.576,1.216,0.896c0.329,0.321,0.97,1.129,1.119,1.38c0.108,0.184,0.265,0.376,0.543,0.908
	c0.192,0.368,0.403,0.83,0.62,1.269c0.184,0.372,0.3,0.908,0.3,0.908s0.03,0.102-0.052,0.145c-0.082,0.044-0.212,0.086-0.295,0.126
	c-0.129,0.063-0.529,0.204-0.755,0.302c-0.225,0.097-0.515,0.24-0.515,0.24l0,0l0.184-0.997c0,0,0.15-0.796,0.14-0.993
	s-0.042-0.332-0.081-0.441s-0.15-0.203-0.245-0.209c-0.093-0.004-0.383,0.074-0.383,0.074s0.026-0.307-0.006-0.436
	s-0.086-0.271-0.235-0.395c-0.162-0.136-0.397-0.142-0.479-0.119c-0.157,0.042-0.414,0.249-0.414,0.249s-0.014-0.157-0.176-0.265
	c-0.162-0.105-0.49-0.239-0.697-0.138c-0.178,0.089-0.33,0.508-0.33,0.508s-0.207-0.203-0.355-0.27
	c-0.149-0.064-0.262-0.126-0.438-0.06c-0.178,0.066-0.4,0.429-0.387,0.645c0.015,0.215,0.093,0.763,0.093,0.763l0.094,0.518
	l-0.22-0.061c0,0-0.301-0.062-0.49-0.022c-0.191,0.039-0.443,0.331-0.469,0.488c-0.027,0.156-0.082,0.436-0.042,0.509
	c0.04,0.075,0.187,0.233,0.366,0.36c0.18,0.128,0.438,0.295,0.643,0.469c0.207,0.172,0.461,0.497,0.666,0.684
	c0.207,0.186,0.355,0.251,0.452,0.334c0.097,0.084,0.325,0.129,0.367,0.227c0.042,0.099,0.062,0.389,0.157,0.413
	c0.098,0.025,0.246,0.031,0.268,0.044c0.021,0.012,0.032,0.124,0.02,0.223c-0.014,0.099-0.085,0.516-0.1,0.692
	c-0.014,0.176-0.047,0.827-0.062,1.166c-0.016,0.338,0.021,0.772,0.021,1.022c-0.001,0.248,0.052,0.539,0.052,0.539h-0.178
	l-0.425,0.086c0,0-0.233,0.059-0.343,0.072c-0.049,0.006-0.096,0.014-0.123-0.25c-0.014-0.15,0.031-0.561,0.019-0.927
	c-0.003-0.106,0.03-0.305-0.162-0.428c-0.164-0.102-0.298-0.129-0.37,0.132c-0.111,0.397-0.113,0.631-0.101,0.985
	c0.013,0.352,0.065,0.588-0.03,0.705c-0.039,0.047-0.479,0.291-1.109,0.393c-0.625,0.1-0.973,0.158-1.164,0.158
	c-0.191-0.002-1.334-0.02-1.701-0.029s-1.31-0.131-1.393-0.146c-0.082-0.016-0.137-0.059-0.135-0.221
	c0-0.162,0.079-1.395,0.08-1.673c0.002-0.279-0.021-1.354-0.021-1.604c0.002-0.249-0.111-0.736-0.11-0.824s0.185-0.039,0.231-0.072
	c0.05-0.035,0.188-0.432,0.226-0.48c0.038-0.048,0.216-0.175,0.381-0.297c0.167-0.122,0.32-0.171,0.522-0.321
	c0.201-0.152,0.404-0.416,0.588-0.566c0.181-0.15,0.575-0.433,0.688-0.511c0.111-0.079,0.343-0.278,0.373-0.386
	c0.029-0.109,0.027-0.246,0.002-0.398c-0.027-0.151-0.206-0.305-0.301-0.397c-0.094-0.093-0.164-0.128-0.383-0.147
	c-0.217-0.021-0.534,0.047-0.534,0.047l0.099-0.516l0.099-0.763c0,0,0.002-0.271-0.094-0.441c-0.056-0.101-0.124-0.174-0.287-0.209
	c-0.163-0.033-0.315-0.011-0.438,0.059c-0.123,0.067-0.356,0.263-0.356,0.263s-0.019-0.191-0.108-0.299
	c-0.108-0.134-0.176-0.192-0.436-0.252c-0.109-0.021-0.357,0.021-0.481,0.135c-0.122,0.112-0.257,0.243-0.257,0.243
	s-0.117-0.127-0.207-0.205c-0.092-0.079-0.241-0.073-0.34-0.061c-0.099,0.014-0.359,0.16-0.414,0.308
	c-0.056,0.146-0.086,0.66-0.086,0.66s-0.261-0.058-0.396-0.016c-0.137,0.043-0.317,0.279-0.332,0.639
	c-0.014,0.358,0.268,1.786,0.228,1.595s0.079,0.395,0.079,0.395l0,0c0,0-0.559-0.234-0.846-0.354s-0.613-0.271-0.723-0.328
	c-0.111-0.058-0.138-0.102-0.083-0.22C4.833,15.004,4.938,14.726,5.13,14.292z"/>
<path fill-rule="evenodd" clip-rule="evenodd" fill="#FFFFFF" d="M17.332,15.642l-0.119,0.647l0.043,0.192l0.108,0.147l-0.138,0.181
	l-0.632,0.379l-0.808,0.345c0,0-0.086-0.138-0.124-0.216c-0.039-0.077-0.061-0.266-0.061-0.266s-0.187-0.01-0.286-0.045
	c-0.102-0.034-0.193-0.214-0.193-0.214s-0.176-0.075-0.322-0.17s-0.438-0.415-0.438-0.415s-0.285-0.319-0.488-0.464
	c-0.201-0.146-0.65-0.416-0.65-0.416s-0.084-0.099-0.015-0.319c0.05-0.156,0.237-0.16,0.237-0.16s0.908,0.347,0.993,0.344
	c0.083-0.002,0.103-0.218,0.103-0.218s-0.064-0.302-0.112-0.579c-0.054-0.309-0.127-0.743-0.127-0.743s-0.065-0.388,0.05-0.433
	c0.15-0.058,0.244,0.068,0.244,0.068l0.178,0.343l0.387,0.773l0.289-0.062l-0.055-1.265c0,0,0.039-0.191,0.203-0.191
	c0.165,0.001,0.262,0.172,0.262,0.172l0.277,1.216l0.209-0.016l0.242-1.2c0,0,0.086-0.153,0.201-0.122
	c0.115,0.03,0.137,0.104,0.137,0.104l0.029,0.587l0.004,0.583l0.029,0.176l0.119,0.073l0.11-0.344c0,0,0.073-0.148,0.21-0.104
	c0.137,0.046,0.121,0.227,0.121,0.227L17.332,15.642z"/>
<path id="hair-p" fill="#F7DD7F" d="M10.998,1.862c0,0,0.285-0.729,1.072-0.744c0.754-0.014,1.093,0.697,1.093,0.697
	s-0.344-0.344-1.035-0.331C11.373,1.498,10.998,1.862,10.998,1.862z"/>
<path fill="#FFFFFF" d="M11.033,2.108c0,0,0.384-0.351,1.105-0.361c0.609-0.013,1.025,0.371,1.025,0.371s-0.488-0.171-1.049-0.162
	C11.572,1.966,11.033,2.108,11.033,2.108z"/>
<path id="hair" fill-rule="evenodd" clip-rule="evenodd" fill="#F7DD7F" d="M13.958,5.44c-0.009,0-0.122,0.111-0.129,0.092
	c-0.158-0.381-0.164-0.938-0.082-1.367c0.022-0.115-0.221,0.171-0.272,0.624c-0.053,0.454,0.046,0.658,0.046,0.658
	s-1.236-1.746-1.232-1.707c0.068,0.707,0.352,0.722,0.906,1.67c0.035,0.106-1.35-1.395-1.474-1.634
	c-0.121-0.023-0.152,0.232,1.235,1.723c0.094,0.122-1.745-1.188-1.817-1.301c-0.067-0.107,0.204,0.272,1.077,1.049
	c0.09,0.081-1.56-0.29-1.773-1.42c-0.01-0.058-0.188,0.048-0.201,0.798c-0.008,0.533-0.174,1.511-0.188,1.413
	C10.032,5.902,9.91,5.815,9.755,6.219C9.692,6.137,9.521,5.584,9.41,4.833c-0.07-0.728,0.207-1.504,0.606-1.917
	c0.286-0.283,0.788-0.567,1.683-0.65c0.777-0.075,1.156-0.025,1.723,0.206c0.547,0.259,0.861,0.597,1.016,0.832
	s0.357,0.556,0.332,1.284c0,0.544-0.201,1.307-0.283,1.548c-0.067,0.197-0.186,0.406-0.168,0.349
	c0.139-0.441-0.017-0.669-0.002-0.792c0.02-0.182-0.23,0.401-0.223,0.213C14.115,5.476,13.958,5.44,13.958,5.44z"/>
<path id="skin-face" fill-rule="evenodd" clip-rule="evenodd" fill="#F9CAA9" d="M9.776,6.738c-0.04,0.186,0.036,0.385,0.136,0.719
	c0.082,0.275,0.366,0.374,0.366,0.374s0.232,0.582,0.535,1.055c0.345,0.477,0.696,0.937,1.262,0.927
	c0.553-0.009,0.968-0.54,1.262-0.971c0.305-0.492,0.569-1.058,0.569-1.058l0.059-0.119c0,0,0.156,0.057,0.223,0
	c0.127-0.106,0.413-0.473,0.435-0.792c0.009-0.146-0.116-0.222-0.116-0.222s-0.069,0.143-0.17,0.285
	c-0.1,0.14-0.268,0.281-0.268,0.281l0.006-0.854l-0.133,0.127c0,0-0.078-0.184-0.072-0.361c-0.012-0.168-0.061-0.271-0.061-0.271
	l-0.143,0.093l-0.057-0.283c0,0,0,0.028-0.025,0.103c-0.035,0.026-0.266-0.134-0.303-0.12c-0.045,0.057-0.186,0.004-0.184,0.056
	c0,0.063-0.234,0.102-0.327,0.021l-0.31-0.205c-0.075-0.045-0.18,0.051-0.363,0.023c-0.182-0.024-0.791-0.244-0.861-0.301
	c-0.508-0.279-0.662-0.521-0.662-0.521s-0.031-0.015-0.07,0.512c-0.026,0.362-0.088,0.485-0.131,0.72
	c-0.042,0.233-0.219,0.752-0.219,0.752s-0.016-0.333-0.135-0.343C9.9,6.353,9.816,6.55,9.776,6.738z M11.671,6.375L10.9,6.112
	c0.477,0.138,0.578,0.054,0.713,0.06C11.884,6.187,11.671,6.375,11.671,6.375z M12.06,7.745c-0.094,0.024-0.24-0.023-0.24-0.023
	l0.127-0.096C11.947,7.626,11.992,7.723,12.06,7.745z M12.203,8.392c-0.129,0.08-0.172,0.003-0.232-0.019l0.088-0.073
	C12.138,8.3,12.226,8.319,12.203,8.392z M12.46,7.706l-0.026,0.018l-0.108,0.039l-0.125-0.02l0.158-0.126L12.46,7.706z
	 M13.312,6.101l-0.764,0.288c0,0-0.221-0.18,0.052-0.202C12.736,6.177,12.839,6.258,13.312,6.101z M12.968,6.799
	c0,0-0.047,0.029-0.22,0.001c-0.063-0.007-0.167-0.12-0.19-0.1c-0.145,0.133-0.028,0.257-0.062,0.248
	c-0.092-0.021-0.067-0.236-0.067-0.236s0.004-0.201,0.267-0.243c0.172-0.027,0.52,0.021,0.57,0.018l0.483-0.027l-0.377,0.197
	l-0.229-0.01l-0.039,0.02C13.105,6.666,13.156,6.722,12.968,6.799z M11.344,8.533c-0.071-0.06,0.284-0.025,0.284-0.025
	s0.147,0.027,0.27-0.01c0.122-0.038,0.169,0.032,0.225-0.012c0.197-0.159,0.227,0.027,0.375,0.032
	c0.143,0.007,0.268-0.031,0.369,0.003c0.03,0.008,0.107,0.018,0.107,0.018l-0.166,0.086c0,0-0.227-0.016-0.357,0.034
	c-0.059,0.02-0.142,0.066-0.142,0.066s0.046,0.103,0.03,0.165c-0.031,0.117-0.29,0.115-0.29,0.115l-0.138-0.047l0.008-0.077
	c0,0,0.113-0.018,0.188-0.021c0.055-0.001-0.051-0.141-0.051-0.141S11.819,8.7,11.724,8.696C11.583,8.686,11.429,8.607,11.344,8.533
	z M10.417,6.518l0.485,0.01c0.05,0.002,0.396-0.059,0.567-0.036c0.265,0.032,0.275,0.232,0.275,0.232s0.033,0.213-0.059,0.238
	c-0.033,0.01,0.079-0.118-0.07-0.246c-0.022-0.02-0.123,0.098-0.187,0.107c-0.171,0.033-0.219,0.006-0.219,0.006
	c-0.192-0.069-0.143-0.128-0.143-0.128L11.03,6.684L10.8,6.702L10.417,6.518z"/>
<path id="skin-neck" fill-rule="evenodd" clip-rule="evenodd" fill="#F9CAA9" d="M12.028,11.956l0.918-2.132
	c0,0-0.259,0.328-0.892,0.34c-0.618,0.012-0.89-0.332-0.89-0.332L12.028,11.956z"/>
</svg>
