<?xml version="1.0" encoding="utf-8"?>
<!-- Generator: Adobe Illustrator 16.0.4, SVG Export Plug-In . SVG Version: 6.00 Build 0)  -->
<!DOCTYPE svg PUBLIC "-//W3C//DTD SVG 1.1//EN" "http://www.w3.org/Graphics/SVG/1.1/DTD/svg11.dtd" [
	<!ENTITY ns_flows "http://ns.adobe.com/Flows/1.0/">
	<!ENTITY ns_extend "http://ns.adobe.com/Extensibility/1.0/">
	<!ENTITY ns_ai "http://ns.adobe.com/AdobeIllustrator/10.0/">
	<!ENTITY ns_graphs "http://ns.adobe.com/Graphs/1.0/">
]>
<svg version="1.1" id="Ebene_1" xmlns:x="&ns_extend;" xmlns:i="&ns_ai;" xmlns:graph="&ns_graphs;"
	 xmlns="http://www.w3.org/2000/svg" xmlns:xlink="http://www.w3.org/1999/xlink" xmlns:a="http://ns.adobe.com/AdobeSVGViewerExtensions/3.0/"
	 x="0px" y="0px" width="18.6px" height="51.6px" viewBox="0 0 18.6 51.6" style="enable-background:new 0 0 18.6 51.6;"
	 xml:space="preserve">
<style type="text/css">
<![CDATA[
	.st0{fill:#1A1A18;}
	.st1{fill-rule:evenodd;clip-rule:evenodd;fill:#1A1A18;}
	.st2{fill:#FBCDAA;}
	.st3{fill:#FFFFFF;}
	.st4{fill:#9E2A6A;}
	.st5{fill-rule:evenodd;clip-rule:evenodd;fill:#FBCDAA;}
	.st6{fill-rule:evenodd;clip-rule:evenodd;fill:#FFFFFF;}
]]>
</style>
<path class="st0" d="M17.45,20.47c0,0,0.35-0.02,0.51-0.2c0.16-0.18,0.15-0.35,0.15-0.35l-0.12-0.33c0,0,0.23-0.08,0.24-0.33
	c0.02-0.41-0.33-0.71-0.33-0.71s0.16-0.03,0.21-0.3s-0.11-0.46-0.22-0.52s-0.52-0.26-0.66-0.29s-1.12-0.36-1.35-0.4
	s-0.84-0.07-0.84-0.07l-0.13-0.05c0,0,0.09-0.18,0.11-0.35s-0.12-0.2-0.17-0.27s-0.27-0.22-0.46-0.2s-0.39,0.18-0.39,0.18
	l-0.43,0.42c0,0-0.33,0.14-0.38,0.15c-0.06,0.02-0.23-0.15-0.4-0.19c-0.21-0.04-0.52,0.03-0.52,0.03l-0.67-0.41l0-0.01
	c0,0,0.14-0.79,0.21-1.11c0.07-0.32,0.16-0.71,0.25-1.13s0.18-1.18,0.2-1.41s0.01-0.59-0.03-1s-0.27-1.21-0.34-1.48
	c-0.08-0.28-0.34-0.83-0.34-0.83L11.35,9l-0.01,0c0,0,0.25-0.24,0.37-0.26s0.18-0.03,0.29-0.02c0.11,0.01,0.25-0.01,0.33-0.02
	c0.08-0.01,0.12-0.01,0.21-0.1c0.09-0.09,0.16-0.26,0.16-0.26l0.16-0.66l0.11-0.37l0.2-0.48c0,0,0.21-0.01,0.29,0
	s0.2-0.07,0.25-0.12s0.09-0.2,0.08-0.29c0-0.09-0.07-0.7-0.07-0.7L13.65,5.4V5.1l0.06-0.21l0.19-0.36l-0.07-1.56l0.26-0.38L14.08,2
	L14,1.72l-0.18,0.1l-0.1-0.22l-0.25-0.09l-0.15-0.52l-0.42-0.28l-0.56-0.06l-0.32-0.08l-0.44-0.28l-0.87,0.16l-1.05-0.1l-0.1,0.12
	L8.51,0.81L8.28,1.19L7.84,1.23l-0.5,0.91L6.71,3.59l0.18,0.14l0.14,0.4l-0.14,0.5l0.18,0.52l0.17,0.29l0.15,0.45L7.8,6.61L8.03,6.8
	l0.23,0.38L8.18,7.68c0,0-0.54,0.23-0.65,0.29C7.41,8.03,7.08,8.25,6.95,8.37c-0.13,0.12-0.47,0.41-0.6,0.57
	C6.22,9.11,5.68,9.9,5.6,10.05s-0.33,0.61-0.41,0.74s-0.36,0.73-0.45,0.95s-0.37,0.96-0.47,1.39s-0.49,2.1-0.56,2.69
	s-0.21,1.65-0.25,2.16s-0.19,3.51-0.22,3.61s-0.07,0.3-0.13,0.42c-0.07,0.12-0.12,0.22-0.16,0.39c-0.04,0.17-0.01,0.53-0.02,0.67
	s-0.08,0.38-0.19,0.65s-0.19,0.49-0.26,0.86c-0.07,0.37-0.05,0.9-0.05,1.13c0.01,0.23,0.05,0.63,0.08,0.91
	c0.04,0.27,0.16,0.78,0.22,1.08c0.05,0.3,0.1,0.48,0.14,0.78s0.2,1.42,0.2,1.42l0.22,1.66c0,0,0.05,0.42,0.06,0.66
	s-0.02,0.91-0.02,1.27s-0.06,1.19-0.06,1.45s-0.04,0.52-0.05,0.66c-0.01,0.11,0.02,0.11,0.12,0.12s0.45,0.01,0.73,0.03
	c0.28,0.02,0.38,0.05,0.38,0.05l-0.08,0.44c0,0-0.28,0.25-0.52,0.49s-0.29,0.9-0.29,0.9s-0.16,0.12-0.44,0.42
	c-0.2,0.21-0.73,1.21-0.89,1.69c-0.16,0.48-0.39,1.63-0.49,2.23s-0.3,1.83-0.37,2.22s-0.19,0.7-0.22,0.87s-0.13,0.81-0.13,0.81
	l-0.27,0.57c0,0-0.29,0.59-0.37,0.95c-0.08,0.36,0.04,1.1,0.11,1.19s-0.06,0.18,0.02,0.3s0.5,0.12,0.5,0.12s0.01,0.28,0.08,0.33
	s0.42,0.05,0.49,0.02c0.06-0.03,0.11-0.27,0.11-0.27l0.45,0.01c0,0,0.01,0.26,0.09,0.3s0.39,0.05,0.49,0
	c0.1-0.04,0.14-0.28,0.14-0.28h1.83c0,0,0.03,0.24,0.09,0.26s0.42,0.03,0.48-0.02s0.08-0.26,0.08-0.26l0.31,0.03
	c0,0,0.03,0.22,0.1,0.25s0.29,0.01,0.33,0c0.03-0.01,0.19-0.31,0.19-0.31s0.37,0.02,0.5,0.02c-0.02,0.14-0.04,0.26-0.05,0.32
	c-0.04,0.21-0.16,0.59-0.15,0.77s0.2,0.45,0.29,0.57c0.09,0.12,0.39,0.24,0.39,0.24s0.01,0.28,0.06,0.31s0.39,0.05,0.46,0.02
	c0.07-0.03,0.12-0.27,0.12-0.27l0.28,0.02c0,0,0.01,0.2,0.08,0.25c0.07,0.05,0.36,0.02,0.44,0s0.17-0.32,0.17-0.32l1.86,0.04
	c0,0,0.09,0.21,0.16,0.23c0.07,0.02,0.28,0.02,0.37-0.01c0.08-0.03,0.16-0.22,0.16-0.22l0.47,0.02c0,0,0.03,0.18,0.09,0.21
	c0.06,0.03,0.37,0.02,0.41,0.01c0.04-0.01,0.16-0.23,0.16-0.23l0.25,0.01c0,0,0.01,0.16,0.07,0.2c0.06,0.04,0.24,0.01,0.3-0.02
	c0.07-0.04,0.08-0.21,0.08-0.21s0.1-0.09,0.28-0.15c0.18-0.06,0.39-0.16,0.47-0.33c0.07-0.17,0.05-0.69-0.17-0.86
	c-0.22-0.17-1.82-0.64-2.08-0.77c-0.26-0.13-0.87-0.56-1.03-0.72c-0.16-0.16-0.37-0.48-0.45-0.54C10.18,47.57,10,47.56,10,47.56
	s0.08-0.42,0.28-1.08c0.2-0.66,0.46-1.49,0.67-2.19c0.21-0.69,0.85-2.86,0.89-2.99c0.04-0.13,0.1-0.45,0.09-0.53
	c-0.01-0.08-0.08-0.23-0.08-0.23s0.14-0.08,0.26-0.3c0.12-0.22,0.14-0.47,0.12-0.77c-0.01-0.28-0.12-0.67-0.12-0.67
	s0.26-0.66,0.33-0.84c0.07-0.18,0.21-0.4,0.27-0.72c0.06-0.32,0.02-0.89-0.01-1.12c-0.03-0.23-0.11-0.59-0.11-0.59
	s0.38-0.12,0.48-0.16c0.09-0.03,0.08-0.1,0.06-0.17c-0.03-0.18-0.42-1.92-0.42-1.92l-0.75-3.1l-0.49-1.78l-0.52-1.9l-0.75-2.34
	l-0.17-0.44c0,0,0.06-0.04,0.14-0.27c0.08-0.23,0.02-0.96,0.02-0.96l0.15-0.61l0.29,0.15c0,0,0.02,0.13,0.08,0.24
	s0.05,0.15,0.14,0.21s0.23,0.13,0.35,0.21s0.32,0.14,0.37,0.14s0.06,0,0.15,0.07s0.55,0.35,0.76,0.46c0.21,0.11,0.57,0.28,0.83,0.38
	c0.26,0.09,1.02,0.43,1.02,0.43l0.98,0.38c0,0,0.22,0,0.4-0.07s0.23-0.2,0.23-0.2l0.12-0.32l0.25,0.05l0.59,0.19
	c0,0,0.28,0.07,0.48-0.01c0.18-0.07,0.26-0.3,0.26-0.3s0.12-0.3,0.07-0.48s-0.17-0.27-0.17-0.27s0.17-0.12,0.3-0.25
	S18,22.58,18,22.58s-0.03-0.17-0.11-0.39s-0.46-0.36-0.46-0.36l-0.38-0.13c0,0,0.35-0.05,0.39-0.33s-0.47-0.56-0.47-0.56
	s0.22-0.07,0.31-0.12C17.43,20.58,17.45,20.47,17.45,20.47z M8.9,38.1c-0.15,0.21-0.22,0.36-0.27,0.49
	c-0.05,0.13-0.12,0.6-0.08,0.75c0.04,0.15,0.15,0.37,0.12,0.44s-0.38,0.63-0.47,0.92s-0.34,1.16-0.38,1.56s-0.08,2.07-0.17,2.48
	c-0.09,0.41-0.6,2.68-0.65,2.75c-0.05,0.07-0.12,0.15-0.12,0.15s0.02-0.06-0.05-0.08s-1.37-0.43-1.56-0.53S4.55,46.7,4.4,46.55
	s-0.57-1.05-0.57-1.05s0.16-0.65,0.23-0.94s0.22-0.73,0.39-1.16s0.3-0.7,0.56-1.33s0.82-1.99,0.92-2.24s0.13-0.42,0.13-0.42
	s0.22-0.06,0.42-0.21c0.19-0.14,0.28-0.2,0.39-0.64s0.14-0.75,0.14-0.75s0.36-0.53,0.46-0.67C7.55,37,8.03,36.26,8.1,36.2
	s0.12-0.07,0.14-0.02c0.03,0.05,0.12,0.17,0.16,0.29c0.02,0.06,0.21,0.38,0.35,0.68c0.13,0.29,0.21,0.57,0.23,0.62
	C9.04,37.89,9.03,37.93,8.9,38.1z M13.43,19.64c0.27,0.09,0.59,0.2,0.59,0.2l0.53,0.19l1.32,0.41l0.26,0.12l-0.6-0.1l-0.94-0.14
	c0,0-0.66-0.02-1.05,0.03c-0.39,0.04-0.59,0.12-0.59,0.12l-0.27-0.26c0,0-0.44-0.19-0.54-0.19s-0.24,0.06-0.24,0.06l-0.54-0.46
	l-0.23-0.26l-0.17-0.18l0.09-0.4l0-0.01l0.66,0.16l0.06,0.17c0,0,0.14,0.12,0.29,0.17c0.15,0.05,0.36,0.12,0.48,0.13"/>
<path id="goalie-jersey" class="st4" d="M11.55,10.43c-0.06-0.22-0.12-0.38-0.21-0.49c-0.08-0.1-0.2-0.41-0.2-0.41l0.14,1.06
	c0,0-0.72-0.67-0.49-0.49c0.23,0.19-1.12-0.84-0.86-0.66c0.27,0.19-1.05-0.79-0.8-0.58c0.25,0.22-0.89-0.7-0.78-0.64
	c0.11,0.06-0.14-0.14-0.14-0.14S7.88,8.19,7.76,8.25C7.63,8.32,7.42,8.49,7.26,8.6C7.1,8.71,6.87,8.94,6.7,9.13S5.91,10.2,5.91,10.2
	s-0.67,1.27-0.77,1.53s-0.41,1.33-0.41,1.33l-0.25,0.92l-0.31,1.47l-0.19,1.56l-0.16,1.81L3.8,20.76c0,0-0.03,0.65-0.03,0.77
	s-0.03,0.11,0.08,0.15c0.08,0.03,0.37,0.07,0.46,0.1c0.09,0.03,0.1-0.13,0.11-0.06s0.04-0.8,0.06-1.2s-0.03-1.03-0.01-1.23
	c0.01-0.18,0.03-0.45,0.09-0.47s0.11-0.01,0.17,0.07s0.11,0.29,0.13,0.51s0.09,0.49,0.09,0.81c0.01,0.27,0.09,1.47,0.09,1.6
	c0,0.13,0.03,0.08,0.13,0.12s0.35,0.1,0.66,0.16s1.11,0.14,1.59,0.17s1.05,0.03,1.35,0.05c0.22,0.02,0.65,0.03,0.76,0.04
	s0.09,0.04,0.13-0.09s0.19-0.59,0.19-0.59l0.08-0.21l-0.91-0.5c0,0-1.52-0.88-1.72-1c-0.2-0.12-1-0.6-1.12-0.71
	c-0.16-0.13-0.29-0.21-0.44-0.45c-0.09-0.14-0.25-0.42-0.31-0.63s-0.11-0.66-0.12-0.88s0.07-0.65,0.09-0.86s0.21-1.24,0.21-1.24
	l0.07-0.52c0,0-0.06,0-0.13-0.05c-0.07-0.05-0.09-0.09-0.07-0.19C5.63,14,6,12.54,6.12,12.15c0.15-0.46,0.33-0.8,0.33-0.8l0.02-0.04
	c0,0-0.01,0.35-0.1,0.93c-0.07,0.46-0.26,1.37-0.34,1.8c-0.04,0.24-0.01,0.25,0.13,0.3c0.43,0.15,1.69,0.68,1.69,0.68l1.05,0.49
	c0,0,0.6,0.24,0.71,0.28c0.11,0.04,0.21-0.23,0.18-0.12c-0.04,0.11,1.37-2.99,1.37-2.99s-0.34,1.15-0.65,2.05
	c-0.23,0.69-0.58,1.5-0.62,1.59c-0.04,0.08-0.1,0.11-0.19,0.08c-0.09-0.03-0.7-0.24-0.7-0.24l-0.48,0.8l1.2,1.1l0.78,0.68
	c0,0,0.29-1.14,0.42-1.64c0.2-0.78,0.56-2.6,0.62-2.89s0.21-1.31,0.26-1.76c0.05-0.45-0.01-0.66-0.07-1.13S11.61,10.6,11.55,10.43z"
	/>
<path id="skin-leg-l" class="st5" d="M7.57,36.19c0,0-0.55,0.69-0.69,0.91c-0.1,0.15-0.22,0.31-0.29,0.39
	c-0.03,0.04-0.03,0.07-0.14,0.03s-0.38-0.08-0.71-0.32s-0.78-0.67-0.84-0.75S4.87,36.3,4.87,36.3s0.06-0.43,0.07-0.51
	s-0.01-0.09,0.08-0.08c0.1,0.01,0.54,0.02,0.66,0.03s0.41,0.02,0.48,0.08s0.06,0.29,0.12,0.35s0.15,0.07,0.26,0.09s0.25,0.03,0.42,0
	S7.57,36.19,7.57,36.19z"/>
<path id="goalie-sock-l" class="st3" d="M5.98,38.9c-0.13,0.03-0.43-0.08-0.43-0.08S5.48,38.68,5.4,38.7s-0.15,0.06-0.16,0.14
	c-0.01,0.08,0.13,0.31,0.24,0.44c0.1,0.14,0.04,0.2-0.01,0.32c-0.04,0.12-0.43,1.16-0.43,1.16l-0.81,1.89c0,0-0.57,1.53-0.69,2.01
	c-0.06,0.24-0.19,0.73-0.25,0.8s-0.38,0.1-0.45,0.19s0.07,0.17,0,0.31s-0.49,0.57-0.62,0.55s-0.37-0.19-0.5-0.31
	s-0.24-0.31-0.25-0.39s0.09-0.25,0.09-0.25s0.12-0.8,0.21-1.28c0.09-0.48,0.24-1.25,0.31-1.72s0.25-1.47,0.36-1.94
	s0.16-0.72,0.39-1.2s0.59-1.18,0.74-1.25s0.16-0.03,0.28-0.06s0.26-0.17,0.22-0.28s-0.1-0.28-0.09-0.39s0.07-0.32,0.19-0.44
	s0.27-0.26,0.36-0.24s0.62,0.62,0.92,0.8c0.24,0.15,0.7,0.29,0.91,0.37c0.05,0.02,0.15,0.05,0.1,0.18c-0.07,0.2-0.08,0.45-0.17,0.57
	S6.11,38.87,5.98,38.9z"/>
<path class="st6" d="M3.6,48.43c0,0-0.03-0.35,0.13-0.35c0.16,0,0.65,0,0.68,0.06c0.04,0.06-0.03,0.3-0.03,0.3L3.6,48.43L3.6,48.43z
	"/>
<polygon class="st6" points="9.43,50.39 9.44,50.05 10.14,50.06 10.43,50.42 10.07,50.42 "/>
<path id="goalie-sock-r" class="st6" d="M7.75,48.05c-0.1-0.11-0.1-0.39-0.18-0.47s-0.13-0.06-0.13-0.18
	c-0.01-0.13,0.24-1.14,0.24-1.14s0.29-1.23,0.36-1.55c0.07-0.31,0.09-0.89,0.1-1.14c0.01-0.25,0.05-0.84,0.09-1.19
	c0.04-0.35,0.24-1.29,0.36-1.56c0.12-0.26,0.24-0.61,0.45-0.66c0.2-0.05,0.46-0.06,0.6-0.08c0.14-0.02,0.08-0.18,0.09-0.28
	c0.01-0.1-0.09-0.07-0.23-0.14c-0.15-0.07-0.35-0.08-0.42-0.16c-0.07-0.08-0.12-0.32-0.09-0.47s0.06-0.32,0.15-0.49
	s0.16-0.34,0.27-0.33c0.11,0.01,0.73,0.13,1.08,0.22c0.35,0.09,1.07,0.29,1.14,0.42s0.1,0.45,0.12,0.6
	c0.03,0.15-0.07,0.68-0.19,0.74s-0.31-0.04-0.37,0.06c-0.05,0.11-0.03,0.18,0.06,0.32c0.09,0.13,0.17,0.03,0.19,0.13
	s0,0.45-0.06,0.67c-0.07,0.21-0.68,2.16-0.81,2.66c-0.13,0.5-0.84,3.03-0.94,3.08c-0.1,0.04-0.42,0.11-0.44,0.17
	s-0.07,0.66-0.14,0.78s-0.48,0.38-0.66,0.36S7.85,48.17,7.75,48.05z"/>
<path id="skin-leg-r" class="st5" d="M9.42,37.65c-0.02-0.08-0.04-0.2-0.08-0.32c-0.05-0.19-0.58-1.13-0.6-1.22s0.01-0.41,0.04-0.43
	s0.45,0.34,0.52,0.37s1.51-0.18,1.85-0.23s0.91-0.21,0.96-0.19s0.13,0.44,0.15,0.59c0.02,0.15,0.05,0.51,0,0.82
	c-0.04,0.31-0.41,1.1-0.46,1.19s-0.07,0.12-0.18,0.08s-0.74-0.23-1.12-0.33c-0.31-0.08-0.57-0.14-0.81-0.19
	C9.49,37.75,9.43,37.71,9.42,37.65z"/>
<path class="st1" d="M11.39,36.89c-0.04-0.1,0.12-0.41,0.18-0.46c0.05-0.05,0.2-0.14,0.24-0.11s0.07,0.59,0.05,0.64
	s-0.07,0.12-0.17,0.11C11.57,37.07,11.39,36.89,11.39,36.89S11.42,36.99,11.39,36.89z"/>
<path id="goalie-shorts-r" class="st1" d="M4.08,29.16c-0.07,0.03,0.27,0.58,0.35,0.75s0.27,0.52,0.46,0.98
	c0.19,0.46,0.61,1.54,0.75,1.9s0.91,2.7,0.91,2.7s0.07,0.2,0.11,0.27s0.14,0.05,0.14,0.05s1.29-0.13,1.42-0.14s0.12-0.02,0.13-0.11
	c0.01-0.09,0.01-0.57,0.08-0.62s0.13-0.03,0.22,0.03c0.07,0.05,0.53,0.5,0.59,0.56c0.06,0.06,0.05,0.08,0.16,0.05
	c0.11-0.02,1.13-0.11,1.59-0.2c1.08-0.2,1.33-0.27,1.49-0.34c0.15-0.07,0.12-0.06,0.08-0.31c-0.02-0.11-0.21-1.05-0.3-1.48
	s-0.65-2.95-0.79-3.45s-0.44-1.51-0.54-1.85s-0.23-0.81-0.33-1.17s-0.38-1.16-0.49-1.48s-0.36-0.96-0.4-1.1s-0.16-0.34-0.29-0.36
	s-0.53-0.04-0.6-0.09s-0.13-0.23-0.05-0.28s0.24-0.06,0.38-0.05s0.46,0.05,0.52,0s0.04-0.26,0.05-0.38s0.02-0.2-0.09-0.21
	s-0.54-0.02-0.54-0.02l-1.12-0.03l-2.19-0.22L4.45,22.4c0,0-0.83-0.21-0.9-0.19c-0.07,0.01-0.15,0.14-0.17,0.31
	c-0.02,0.17,0,0.19,0.08,0.3s0.88,0.18,1,0.23s0.19,0.03,0.19,0.11s-0.11,0.29-0.23,0.32s-0.64,0.08-0.64,0.08s-0.42,0-0.51,0.14
	s-0.29,0.71-0.35,0.99s-0.08,0.8-0.04,1.18c0.04,0.38,0.16,0.89,0.27,1.35s0.49,0.96,0.73,1.2s1.21,0.56,1.3,0.62
	s0.22,0.52,0.16,0.56s-0.53-0.19-0.67-0.23S4.15,29.12,4.08,29.16z"/>
<path id="goalie-shorts-l" class="st1" d="M3.3,28.9l0.3,2.06c0,0,0.13,0.83,0.14,1.17s-0.01,1.13-0.03,1.48s-0.05,1.27-0.06,1.45
	s-0.01,0.18,0.11,0.2s0.53,0.02,0.94,0.03s0.78,0.04,0.94,0.06s0.37,0.02,0.37,0.02s-0.36-1.29-0.52-1.69S5.06,32.5,4.95,32.2
	s-0.22-0.46-0.35-0.8s-0.37-0.77-0.59-1.22S3.3,28.9,3.3,28.9z"/>
<path class="st1" d="M7.05,25.34c-0.07-0.07-0.19-0.25-0.31-0.34s-0.68-0.22-0.79-0.26s0.08-0.31,0.19-0.33S7,24.48,7.1,24.55
	s0.52,0.84,0.64,0.99s1.19,1.18,1.18,1.24c-0.01,0.06-0.83-0.34-0.91-0.38s-0.21-0.06-0.31-0.12C7.6,26.21,7.12,25.41,7.05,25.34z"
	/>
<path id="skin-face" class="st2" d="M13.54,3.51c0,0,0-0.23-0.06-0.24c-0.06,0-0.62-0.06-0.62-0.06s-0.33,0.01-0.44,0.04
	s-0.52,0.2-0.52,0.2s-0.26,0-0.3,0.02c-0.04,0.02-0.16,0.11-0.16,0.11s-0.38,0.37-0.65,0.61S9.78,5.08,9.7,5.06S9.41,4.57,9.34,4.58
	s-0.2,0.31-0.2,0.39c0,0.09,0.13,0.1,0.12,0.16c-0.01,0.05-0.1,0.21-0.18,0.26C9.01,5.44,8.98,5.4,8.95,5.37
	C8.91,5.35,8.68,4.67,8.61,4.77s0.3,0.88,0.3,0.88l0.24,0.2L8.98,6.01L8.96,6.15L8.94,6.5L8.82,7.21L8.68,7.99l1.08,0.86l0.99,0.71
	l0.12-0.65L11,8.75l0.32-0.26c0,0-0.97-0.72-1.04-0.85c-0.07-0.12-0.14-0.23-0.19-0.31s-0.16-0.27-0.1-0.29s0.21-0.05,0.27,0.02
	c0.11,0.14,0.11,0.19,0.2,0.33s0.94,0.71,1.1,0.79c0.16,0.08,0.43,0.14,0.5,0.13c0.08-0.02,0.12-0.05,0.2-0.08
	c0.07-0.03,0.16-0.43,0.16-0.43l0.04-0.28l-0.08-0.09c0,0-0.13-0.11-0.12-0.16c0.01-0.04,0.06-0.1,0.06-0.1l0.19-0.07
	c0,0,0.23-0.17,0.16-0.25s-0.34-0.18-0.38-0.21s0.02-0.14,0.02-0.14l0.41-0.18c0,0,0.32,0.05,0.4,0.07c0.08,0.02,0.18,0,0.22-0.03
	s0.04-0.13,0.04-0.19c0-0.06-0.13-1.15-0.13-1.15l0.03-0.25l-0.27-0.07l-0.12,0.14c0,0-0.04,0.28-0.17,0.3s-0.32,0.03-0.4-0.08
	s-0.02-0.42-0.02-0.42s-0.14-0.19-0.21-0.2S11.91,4.5,11.84,4.5s-0.09-0.06-0.09-0.06s0.12-0.08,0.21-0.1
	c0.09-0.02,0.43-0.04,0.49-0.01s0.57,0.08,0.57,0.08s0.36,0.08,0.42,0.06c0.07-0.02,0.13-0.19,0.13-0.19L13.54,3.51z"/>
<polygon id="skin-arm-l" class="st5" points="11.37,17.18 11.13,18.19 11.1,18.34 11.61,18.45 11.7,17.97 11.83,17.33 11.93,17 
	11.49,16.76 "/>
<path id="skin-arm-r" class="st5" d="M11.36,20.92l-0.43,0.71c0,0-1.46-0.82-2.63-1.54c-1.08-0.66-1.61-0.98-1.85-1.19
	c-0.1-0.09-0.35-0.31-0.45-0.47s-0.35-0.74-0.3-1.23s0.14-0.99,0.22-1.4s0.17-0.91,0.17-0.91l1.5,0.59l0.89,0.45
	c0,0,0.11,0.08,0.15,0.13c0.04,0.05-0.38,0.67-0.43,0.67c-0.06-0.01-0.16-0.24-0.23-0.28c-0.07-0.04-0.23-0.1-0.3-0.06
	c-0.08,0.04-0.12,0.16-0.09,0.22c0.03,0.06,0.84,0.82,0.84,0.82l3.28,2.9L11.36,20.92z"/>
<path class="st6" d="M14.35,17.4c0,0,0.02,0.14,0.14,0.15c0.11,0.01,0.34-0.25,0.45-0.24s0.54,0.01,0.9,0.1s1.31,0.43,1.31,0.43
	l0.38,0.13c0,0,0.18,0.17,0.16,0.29s-0.17,0.11-0.17,0.11l-0.44-0.06l-0.58-0.1l-0.37-0.08l0.01,0.15l0.94,0.33l0.61,0.25
	c0,0,0.21,0.11,0.19,0.3c-0.02,0.18-0.2,0.21-0.2,0.21L17,19.14l-0.36-0.12l-0.43-0.13l0,0.18l1.42,0.65c0,0,0.16,0.17,0.12,0.31
	s-0.25,0.13-0.25,0.13l-1.39-0.63l-0.08,0.08l1.03,0.61c0,0,0.05,0.12-0.04,0.21s-0.24,0.05-0.24,0.05l-1.26-0.54l-0.95-0.3
	l-0.94-0.33l-0.6-0.27l0-0.33l-0.22-0.05l-0.06,0.28l-0.17,0.03l-0.35-0.09l-0.23-0.21l0.3-1.37l0.11-0.32l0.2-0.03l0.21,0.06
	l0.11,0.29l0.37-0.11l0.45-0.27l0.5-0.49c0,0,0.13-0.1,0.24-0.02s0.17,0.07,0.19,0.19s-0.17,0.49-0.17,0.49L14.35,17.4z"/>
<path class="st3" d="M11.29,21.69c-0.13,0.2-0.25,0.35-0.27,0.42s-0.02,0.11,0.06,0.17s0.24,0.18,0.35,0.21s0.11,0,0.17-0.05
	s0.13-0.14,0.2-0.16s0.16-0.01,0.21,0.03s-0.15,0.2-0.12,0.25s0.52,0.33,0.72,0.42s0.67,0.32,0.86,0.39s1.02,0.41,1.02,0.41
	l0.57,0.21l0.36,0.16c0,0,0.1,0.04,0.19-0.12s-0.06-0.28-0.06-0.28l-0.87-0.5l0.05-0.14l2.19,0.75c0,0,0.26,0.04,0.39-0.17
	c0.11-0.19-0.06-0.33-0.06-0.33l-2.18-0.9l0.05-0.14l2.16,0.53c0,0,0.25-0.06,0.3-0.28s-0.21-0.37-0.21-0.37l-2.12-0.65l0-0.15
	l1.49,0.07c0,0,0.26-0.04,0.25-0.2c-0.01-0.17-0.24-0.23-0.24-0.23s-1.82-0.35-2.02-0.37s-0.82-0.01-1-0.01
	c-0.18,0-0.65,0.06-0.73,0.09s-0.2,0.28-0.25,0.28c-0.05,0.01-0.11-0.03-0.14-0.07s0.05-0.21,0.04-0.25s-0.11-0.2-0.21-0.24
	s-0.35-0.13-0.39-0.09s-0.17,0.31-0.33,0.62C11.56,21.3,11.41,21.48,11.29,21.69z"/>
<path class="st1" d="M14.8,21.24c-0.03-0.06-0.21-0.15-0.31-0.1s-0.09,0.18-0.1,0.31s0.21,0.12,0.3,0.1S14.83,21.3,14.8,21.24z"/>
<path class="st1" d="M14.59,22.36c0.05-0.01,0.05-0.1,0.05-0.15c0-0.06,0-0.24-0.1-0.2s-0.14,0.21-0.1,0.3
	C14.47,22.4,14.59,22.36,14.59,22.36S14.54,22.37,14.59,22.36z"/>
<path id="hair" class="st0" d="M8.27,6.52l0.12,0.2l0.07,0.02l0.09-0.49L8.46,5.99l0.16-0.16L8.39,5.29c0,0-0.15-0.52-0.12-0.71
	c0.03-0.19,0.4-0.18,0.62,0c0.03-0.03,0.23-0.4,0.36-0.4c0.24,0,0.39,0.42,0.49,0.43c0.1,0,0.95-0.77,0.95-0.77l0.7-0.64l0.4-0.04
	l0.48-0.19l0.42-0.06l0.46,0.03l0.31,0.04l0.37-0.44l-0.01-0.37l-0.13,0.06l-0.15-0.35l-0.32-0.12l-0.14-0.47L12.7,1.04l-0.5-0.05
	l-0.29-0.07l-0.4-0.25L10.72,0.8L9.83,0.71L9.74,0.82L8.72,1.13L8.43,1.51l-0.4,0.04L7.63,2.28L7.05,3.5l0.16,0.12l0.15,0.49
	L7.23,4.56L7.4,5.03L7.56,5.3L7.69,5.7l0.37,0.65L8.27,6.52z"/>
</svg>
