<?xml version="1.0" encoding="utf-8"?>
<!-- Generator: Adobe Illustrator 16.0.4, SVG Export Plug-In . SVG Version: 6.00 Build 0)  -->
<!DOCTYPE svg PUBLIC "-//W3C//DTD SVG 1.1//EN" "http://www.w3.org/Graphics/SVG/1.1/DTD/svg11.dtd">
<svg version="1.1" id="Ebene_1" xmlns="http://www.w3.org/2000/svg" xmlns:xlink="http://www.w3.org/1999/xlink" x="0px" y="0px"
	 width="16.913px" height="49.81px" viewBox="0 0 16.913 49.81" enable-background="new 0 0 16.913 49.81" xml:space="preserve">
<path fill-rule="evenodd" clip-rule="evenodd" fill="#1A1A18" d="M1.475,20.343c0.072,0.055,0.27,0.118,0.27,0.118
	S1.297,20.726,1.33,20.99c0.034,0.264,0.34,0.31,0.34,0.31l-0.336,0.118c0,0-0.325,0.132-0.399,0.34
	c-0.075,0.207-0.099,0.367-0.099,0.367s0.009,0.204,0.119,0.321c0.109,0.118,0.26,0.235,0.26,0.235s-0.109,0.073-0.15,0.25
	s0.062,0.455,0.062,0.455s0.07,0.217,0.225,0.28c0.178,0.073,0.423,0.006,0.423,0.006l0.514-0.182l0.216-0.05l0.109,0.301
	c0,0,0.039,0.115,0.197,0.185c0.16,0.069,0.35,0.066,0.35,0.066l0.863-0.359c0,0,0.667-0.32,0.893-0.408s0.541-0.25,0.729-0.353
	s0.594-0.367,0.668-0.435c0.073-0.067,0.076-0.065,0.127-0.066s0.223-0.058,0.326-0.13c0.104-0.07,0.225-0.134,0.302-0.197
	c0.08-0.064,0.072-0.098,0.125-0.202c0.053-0.104,0.07-0.227,0.07-0.227l0.256-0.145l0.134,0.574c0,0-0.046,0.689,0.021,0.906
	c0.068,0.216,0.124,0.25,0.124,0.25l-0.152,0.418l-0.656,2.205l-0.451,1.786l-0.432,1.676l-0.653,2.918c0,0-0.338,1.635-0.364,1.803
	c-0.012,0.068-0.027,0.133,0.055,0.162c0.092,0.033,0.423,0.146,0.423,0.146s-0.067,0.338-0.093,0.557
	c-0.027,0.217-0.057,0.752-0.008,1.051c0.049,0.301,0.17,0.51,0.233,0.678c0.062,0.166,0.292,0.791,0.292,0.791
	s-0.096,0.367-0.109,0.629C5.867,38.3,5.887,38.529,5.99,38.741c0.105,0.211,0.229,0.285,0.229,0.285s-0.063,0.141-0.069,0.221
	c-0.005,0.078,0.048,0.377,0.082,0.498c0.036,0.123,0.595,2.156,0.78,2.809s0.415,1.436,0.587,2.059
	c0.174,0.623,0.241,1.02,0.241,1.02s-0.153,0.004-0.229,0.061c-0.075,0.055-0.253,0.355-0.396,0.508s-0.677,0.553-0.901,0.676
	c-0.225,0.121-1.624,0.568-1.82,0.725c-0.195,0.158-0.214,0.652-0.149,0.811c0.063,0.158,0.25,0.254,0.408,0.307
	c0.157,0.053,0.241,0.141,0.241,0.141s0.016,0.162,0.073,0.195c0.057,0.033,0.217,0.055,0.267,0.021s0.061-0.184,0.061-0.184
	L5.61,48.88c0,0,0.107,0.211,0.145,0.221c0.036,0.01,0.305,0.02,0.359-0.01c0.053-0.031,0.082-0.199,0.082-0.199l0.41-0.021
	c0,0,0.07,0.176,0.144,0.209c0.074,0.031,0.267,0.033,0.322,0.012c0.057-0.023,0.14-0.217,0.14-0.217l1.628-0.037
	c0,0,0.078,0.287,0.148,0.299c0.07,0.01,0.329,0.043,0.386-0.004c0.057-0.049,0.068-0.236,0.068-0.236l0.247-0.016
	c0,0,0.049,0.229,0.106,0.256c0.058,0.023,0.356,0.014,0.398-0.02c0.043-0.033,0.056-0.293,0.056-0.293s0.258-0.115,0.34-0.229
	c0.081-0.113,0.246-0.371,0.256-0.539c0.01-0.166-0.092-0.523-0.129-0.725c-0.011-0.053-0.031-0.166-0.045-0.299
	c0.109,0,0.438-0.016,0.438-0.016s0.135,0.283,0.164,0.295c0.031,0.012,0.232,0.033,0.288,0c0.057-0.033,0.084-0.24,0.084-0.24
	l0.273-0.027c0,0,0.013,0.209,0.069,0.248c0.057,0.041,0.367,0.035,0.424,0.016c0.057-0.018,0.08-0.246,0.08-0.246h1.602
	c0,0,0.039,0.225,0.123,0.266c0.084,0.039,0.355,0.029,0.427-0.004c0.07-0.033,0.082-0.279,0.082-0.279l0.396-0.012
	c0,0,0.039,0.229,0.096,0.254s0.369,0.025,0.426-0.021c0.057-0.049,0.068-0.309,0.068-0.309s0.365-0.008,0.436-0.115
	c0.071-0.105-0.041-0.191,0.014-0.279s0.164-0.777,0.094-1.119s-0.324-0.896-0.324-0.896l-0.236-0.539c0,0-0.094-0.605-0.115-0.762
	c-0.023-0.156-0.129-0.447-0.19-0.814c-0.062-0.369-0.24-1.529-0.321-2.09c-0.08-0.561-0.283-1.65-0.426-2.1
	c-0.142-0.451-0.607-1.395-0.779-1.588c-0.247-0.279-0.384-0.396-0.384-0.396s-0.041-0.617-0.251-0.848
	c-0.211-0.229-0.461-0.461-0.461-0.461l-0.067-0.412c0,0,0.08-0.027,0.328-0.045c0.247-0.016,0.547-0.014,0.643-0.029
	c0.097-0.014,0.114-0.014,0.11-0.117c-0.008-0.133-0.041-0.367-0.041-0.617s-0.055-1.029-0.055-1.367s-0.028-0.971-0.015-1.189
	c0.015-0.221,0.056-0.619,0.056-0.619l0.191-1.559c0,0,0.137-1.059,0.177-1.338s0.076-0.455,0.124-0.734
	c0.047-0.281,0.158-0.76,0.191-1.015c0.033-0.258,0.068-0.633,0.074-0.854c0.006-0.219,0.021-0.72-0.041-1.063
	c-0.062-0.342-0.129-0.554-0.227-0.808c-0.097-0.252-0.148-0.48-0.164-0.611c-0.014-0.13,0.016-0.472-0.02-0.632
	c-0.035-0.158-0.083-0.259-0.143-0.369c-0.061-0.112-0.096-0.294-0.117-0.391s-0.205-3.004-0.239-3.481
	c-0.036-0.479-0.125-1.308-0.188-1.859c-0.062-0.553-0.396-2.128-0.484-2.531c-0.091-0.404-0.327-1.176-0.407-1.387
	c-0.081-0.21-0.33-0.774-0.397-0.896c-0.067-0.122-0.398-0.702-0.555-0.921c-0.089-0.124-0.831-0.951-1.031-1.094
	c-0.328-0.234-0.712-0.463-0.812-0.516C9.448,8.386,9.3,8.306,9.212,8.259c0.037-0.048,0.076-0.096,0.105-0.15
	c0.131-0.233,0.369-0.678,0.475-0.79c0.224-0.232,0.519-0.442,0.666-0.634c0.123-0.161,0.22-0.311,0.334-0.363
	c0.03,0.095,0.223,0.315,0.315,0.528c0.099,0.223,0.158,0.441,0.146,0.499c0.04,0.27,0.12,0.434,0.375,0.204
	c-0.154,0.332,0.184,0.235,0.297,0.198c0,0,0.127-0.021,0.307-0.287c-0.062,0.198-0.055,0.348,0.074,0.414
	c0.075,0.037,0.413-0.06,0.406-0.17c0,0,0.209,0.316,0.564-0.171c0.17-0.233,0.288-0.312,0.356-0.691
	c0.089-0.494-0.153-1.168-0.355-2.085c-0.21-0.952-0.385-2.04-0.499-2.599c-0.135-0.659-0.299-0.953-0.519-1.158
	c-0.249-0.23-0.568-0.324-0.958-0.349c-0.289-0.017-0.576,0.062-0.8,0.183c-0.224,0.122-0.421,0.224-0.648,0.494
	c-0.038,0.047-0.09,0.076-0.139,0.106c-0.149,0.016-0.282,0.05-0.378,0.083C8.855,1.279,8.29,1.198,7.976,1.163
	C7.054,1.097,6.163,1.305,5.773,1.49C5.341,1.692,4.951,1.972,4.645,2.337C4.535,2.467,4.453,2.593,4.127,2.99
	C3.899,3.268,3.859,3.367,3.554,3.577c-0.174,0.118-0.29,0.392-0.06,0.425c0.217,0.032-0.146,0.226,0.057,0.344
	C3.797,4.49,4.198,4.519,4.198,4.519s-0.044,0.22-0.058,0.497C4.125,5.294,4.317,5.36,4.317,5.36L4.311,5.386
	c-0.096,0.012-0.223,0.03-0.223,0.03s0.104,0.038,0.197,0.067L4.262,5.58L4.135,6.069c0,0-0.195,0.682-0.068,0.741
	c0.208,0.142,0.281,0.085,0.421,0.128c0.065,0.24-0.068,0.426,0.071,0.531c0.092,0.091,0.18,0.103,0.17,0.119
	C4.572,7.833,4.781,7.804,4.982,8.021c0.175,0.188,0.122,0.455,0.374,0.632C5.74,8.97,6.371,8.591,6.532,8.619
	c0.052,0.008,0.188,0.254,0.271,0.636L6.548,9.651c0,0-0.172,0.406-0.281,0.844c-0.065,0.262-0.194,0.856-0.234,1.25
	c-0.039,0.393-0.065,1.029-0.047,1.25s0.063,0.959,0.141,1.359s0.128,0.634,0.188,0.938c0.061,0.305,0.142,0.894,0.142,0.894
	l0.002,0.012l-0.588,0.385c0,0-0.274-0.075-0.455-0.032c-0.145,0.033-0.299,0.192-0.35,0.178c-0.05-0.015-0.336-0.143-0.336-0.143
	L4.35,16.192c0,0-0.178-0.155-0.343-0.171c-0.164-0.014-0.356,0.118-0.403,0.189c-0.049,0.072-0.172,0.105-0.153,0.257
	s0.101,0.325,0.101,0.325l-0.113,0.049c0,0-0.539,0.032-0.738,0.069c-0.198,0.037-1.061,0.346-1.182,0.378s-0.48,0.218-0.574,0.275
	C0.85,17.622,0.708,17.8,0.752,18.055s0.182,0.281,0.182,0.281s-0.309,0.287-0.294,0.67c0.009,0.234,0.212,0.312,0.212,0.312
	l-0.105,0.307c0,0-0.011,0.16,0.129,0.333c0.139,0.171,0.447,0.188,0.447,0.188S1.338,20.24,1.475,20.343z M8.728,36.429
	c0.021-0.051,0.09-0.312,0.205-0.584c0.122-0.287,0.291-0.584,0.31-0.643c0.035-0.113,0.114-0.225,0.138-0.273
	c0.022-0.049,0.059-0.039,0.125,0.014c0.066,0.055,0.484,0.756,0.564,0.889c0.079,0.129,0.398,0.627,0.398,0.627
	s0.025,0.299,0.121,0.711c0.096,0.41,0.178,0.469,0.342,0.602c0.176,0.141,0.364,0.197,0.364,0.197s0.033,0.156,0.115,0.391
	c0.081,0.234,0.575,1.516,0.803,2.107c0.228,0.594,0.347,0.848,0.492,1.25s0.278,0.818,0.342,1.088
	c0.063,0.271,0.203,0.883,0.203,0.883s-0.376,0.846-0.503,0.992c-0.127,0.145-0.598,0.369-0.768,0.463s-1.309,0.48-1.369,0.498
	c-0.059,0.021-0.04,0.082-0.04,0.082s-0.063-0.07-0.105-0.141c-0.041-0.07-0.491-2.209-0.567-2.592s-0.116-1.955-0.148-2.332
	c-0.033-0.377-0.256-1.195-0.329-1.469c-0.073-0.275-0.378-0.801-0.411-0.869c-0.031-0.068,0.066-0.275,0.102-0.416
	c0.035-0.143-0.021-0.578-0.068-0.705c-0.047-0.129-0.109-0.266-0.237-0.467C8.698,36.568,8.687,36.536,8.728,36.429z M2.483,20.221
	l0.226-0.109l1.161-0.387l0.462-0.176c0,0,0.278-0.103,0.513-0.188l0.776-0.242c0.107-0.004,0.289-0.07,0.423-0.119
	C6.178,18.951,6.3,18.84,6.3,18.84l0.056-0.163l0.58-0.147l0.004,0.013l0.076,0.374l-0.148,0.172l-0.198,0.246l-0.472,0.432
	c0,0-0.124-0.055-0.209-0.055s-0.472,0.175-0.472,0.175L5.278,20.13c0,0-0.176-0.066-0.52-0.107
	c-0.346-0.043-0.926-0.025-0.926-0.025l-0.823,0.129L2.483,20.221z"/>
<path id="goalie-shirt" fill="#962467" d="M6.642,10.291c0.03-0.109,0.207-0.45,0.207-0.45l0.229,0.981c0,0,0.587-0.821,0.422-0.609
	c-0.219,0.281,0.587-0.695,0.797-0.906c0.5-0.5,0.812-0.703,0.859-0.688c0.165,0.056,0.405,0.176,0.516,0.234
	c0.11,0.058,0.531,0.344,0.734,0.531c0.212,0.195,0.703,0.672,0.984,1.141s0.552,1.055,0.641,1.297
	c0.089,0.243,0.425,1.344,0.425,1.344l0.22,0.868l0.262,1.585l0.175,1.268l0.139,1.705l0.027,1.823c0,0,0.023,0.608,0.021,0.727
	c-0.001,0.118,0.03,0.108-0.067,0.143c-0.067,0.024-0.321,0.069-0.401,0.096c-0.079,0.027-0.088-0.12-0.098-0.062
	c-0.009,0.06-0.036-0.749-0.051-1.132c-0.014-0.382,0.022-0.97,0.012-1.153c-0.012-0.17-0.023-0.427-0.079-0.445
	c-0.056-0.018-0.099-0.011-0.153,0.066c-0.053,0.077-0.094,0.269-0.115,0.482c-0.02,0.213-0.075,0.462-0.082,0.764
	c-0.006,0.255-0.08,1.387-0.077,1.505c0.003,0.12-0.027,0.071-0.115,0.118c-0.087,0.046-0.306,0.09-0.581,0.148
	c-0.273,0.059-0.971,0.132-1.395,0.161c-0.426,0.03-0.92,0.03-1.186,0.053c-0.195,0.016-0.564,0.029-0.662,0.039
	c-0.096,0.012-0.083,0.039-0.117-0.085s-0.166-0.553-0.166-0.553l-0.067-0.193l0.794-0.471c0,0,1.334-0.829,1.506-0.941
	s0.871-0.565,0.979-0.664c0.139-0.125,0.254-0.198,0.384-0.418c0.078-0.133,0.218-0.397,0.273-0.596s0.095-0.625,0.103-0.823
	s-0.062-0.61-0.082-0.809c-0.02-0.199-0.185-1.169-0.185-1.169l-0.062-0.484c0,0,0.053,0.002,0.112-0.045
	c0.06-0.044,0.08-0.088,0.06-0.176c-0.105-0.446-0.434-1.822-0.541-2.184c-0.131-0.435-0.288-0.75-0.288-0.75l-0.02-0.04
	c0,0,0.012,0.326,0.087,0.878c0.061,0.43,0.23,1.291,0.299,1.696c0.038,0.223,0.011,0.237-0.117,0.287
	c-0.372,0.146-1.481,0.642-1.481,0.642L8.796,15.49c0,0-0.524,0.228-0.625,0.265s-0.189-0.217-0.155-0.11
	C8.05,15.75,6.815,12.83,6.815,12.83s0.297,1.079,0.564,1.932c0.204,0.652,0.51,1.415,0.546,1.495
	c0.037,0.078,0.084,0.099,0.162,0.073c0.079-0.024,0.612-0.223,0.612-0.223l0.425,0.75l-1.054,1.03l-0.685,0.638
	c0,0-0.255-1.07-0.368-1.543c-0.178-0.735-0.486-2.448-0.548-2.72s-0.156-1.081-0.156-1.503c0-0.562,0.07-0.965,0.125-1.406
	C6.494,10.913,6.567,10.571,6.642,10.291z"/>
<path id="skin-leg-r" fill-rule="evenodd" clip-rule="evenodd" fill="#F9CAA9" d="M9.976,34.931c0,0,0.479,0.652,0.601,0.855
	c0.085,0.141,0.196,0.291,0.257,0.371c0.027,0.035,0.023,0.062,0.123,0.029c0.098-0.033,0.331-0.078,0.618-0.297
	c0.288-0.221,0.685-0.633,0.739-0.707c0.055-0.072,0.025-0.15,0.025-0.15s-0.058-0.404-0.062-0.482
	c-0.005-0.076,0.011-0.086-0.072-0.072c-0.084,0.01-0.477,0.02-0.58,0.033c-0.104,0.01-0.361,0.018-0.418,0.072
	c-0.057,0.057-0.053,0.27-0.103,0.332s-0.128,0.07-0.226,0.088c-0.098,0.02-0.217,0.025-0.37,0
	C10.357,34.978,9.976,34.931,9.976,34.931z"/>
<path id="goalie-sock-r" fill="#FFFFFF" d="M11.365,37.48c0.114,0.027,0.375-0.08,0.375-0.08s0.062-0.129,0.133-0.105
	c0.072,0.021,0.132,0.057,0.143,0.133c0.012,0.08-0.116,0.287-0.207,0.418c-0.092,0.129-0.031,0.186,0.005,0.297
	c0.035,0.113,0.373,1.088,0.373,1.088l0.711,1.777c0,0,0.499,1.439,0.608,1.895c0.055,0.23,0.162,0.684,0.219,0.75
	s0.332,0.094,0.392,0.18s-0.06,0.164,0,0.293s0.432,0.533,0.548,0.516c0.114-0.018,0.324-0.174,0.438-0.295
	c0.115-0.121,0.213-0.289,0.219-0.367c0.006-0.076-0.082-0.236-0.082-0.236s-0.106-0.754-0.187-1.207
	c-0.079-0.455-0.21-1.172-0.273-1.617s-0.22-1.381-0.315-1.822s-0.137-0.678-0.342-1.133s-0.518-1.109-0.648-1.172
	s-0.143-0.029-0.246-0.061c-0.104-0.031-0.225-0.158-0.191-0.264c0.031-0.107,0.09-0.264,0.082-0.367
	c-0.008-0.107-0.061-0.305-0.164-0.412c-0.105-0.105-0.235-0.242-0.314-0.225c-0.078,0.016-0.541,0.582-0.809,0.754
	c-0.214,0.137-0.613,0.275-0.795,0.348c-0.047,0.02-0.131,0.045-0.09,0.166c0.063,0.186,0.07,0.42,0.152,0.539
	C11.177,37.39,11.25,37.452,11.365,37.48z"/>
<path id="goalie-sock-l" fill-rule="evenodd" clip-rule="evenodd" fill="#FFFFFF" d="M9.818,46.095
	c0.087-0.105,0.087-0.371,0.156-0.443c0.068-0.074,0.111-0.059,0.117-0.174c0.006-0.121-0.215-1.074-0.215-1.074
	s-0.255-1.16-0.312-1.455c-0.057-0.297-0.082-0.836-0.09-1.072c-0.009-0.238-0.047-0.789-0.083-1.117
	c-0.035-0.328-0.213-1.219-0.315-1.465c-0.103-0.244-0.214-0.572-0.392-0.621c-0.176-0.049-0.404-0.057-0.523-0.076
	c-0.118-0.018-0.072-0.172-0.081-0.264c-0.01-0.092,0.077-0.07,0.204-0.133c0.129-0.062,0.311-0.078,0.37-0.152
	c0.06-0.072,0.103-0.303,0.08-0.443c-0.021-0.143-0.048-0.305-0.13-0.465c-0.082-0.162-0.139-0.32-0.233-0.309
	c-0.095,0.014-0.639,0.121-0.948,0.207c-0.311,0.086-0.937,0.27-0.999,0.391s-0.086,0.422-0.109,0.564
	c-0.022,0.145,0.063,0.637,0.17,0.693c0.109,0.055,0.273-0.043,0.321,0.057c0.048,0.102,0.022,0.172-0.054,0.297
	c-0.076,0.127-0.146,0.025-0.167,0.121c-0.019,0.094-0.003,0.426,0.058,0.627c0.06,0.203,0.596,2.031,0.71,2.498
	c0.115,0.469,0.734,2.855,0.822,2.896c0.087,0.041,0.364,0.107,0.383,0.164c0.02,0.055,0.063,0.619,0.123,0.732
	c0.061,0.115,0.42,0.355,0.576,0.34C9.411,46.4,9.73,46.202,9.818,46.095z"/>
<path id="skin-leg-l" fill-rule="evenodd" clip-rule="evenodd" fill="#F9CAA9" d="M8.355,36.306
	c0.015-0.076,0.038-0.189,0.066-0.297c0.047-0.178,0.512-1.061,0.525-1.148s-0.011-0.391-0.039-0.408
	c-0.029-0.02-0.391,0.322-0.454,0.35c-0.062,0.025-1.324-0.17-1.619-0.219c-0.295-0.047-0.799-0.201-0.842-0.176
	c-0.042,0.025-0.109,0.414-0.131,0.559s-0.041,0.479-0.004,0.773c0.037,0.297,0.36,1.035,0.407,1.119
	c0.047,0.086,0.062,0.117,0.161,0.08c0.1-0.035,0.649-0.215,0.976-0.309c0.27-0.078,0.504-0.131,0.71-0.184
	C8.29,36.404,8.345,36.359,8.355,36.306z"/>
<path fill-rule="evenodd" clip-rule="evenodd" fill="#1A1A18" d="M6.629,35.589c0.033-0.096-0.104-0.383-0.152-0.432
	c-0.048-0.047-0.174-0.135-0.207-0.1c-0.032,0.037-0.062,0.559-0.041,0.607c0.022,0.047,0.064,0.117,0.152,0.105
	C6.47,35.757,6.629,35.589,6.629,35.589S6.598,35.685,6.629,35.589z"/>
<path id="goalie-shorts-l" fill-rule="evenodd" clip-rule="evenodd" fill="#1A1A18" d="M13.031,28.316
	c0.062,0.031-0.241,0.543-0.308,0.707c-0.068,0.162-0.24,0.492-0.407,0.922c-0.167,0.432-0.536,1.445-0.653,1.783
	c-0.116,0.338-0.801,2.543-0.801,2.543s-0.062,0.186-0.1,0.254c-0.037,0.07-0.123,0.045-0.123,0.045s-1.132-0.123-1.241-0.137
	c-0.11-0.014-0.101-0.016-0.112-0.104s-0.008-0.535-0.071-0.582c-0.063-0.049-0.114-0.029-0.191,0.027
	c-0.061,0.043-0.462,0.469-0.516,0.525c-0.055,0.061-0.04,0.076-0.136,0.053s-0.986-0.107-1.394-0.188
	c-0.947-0.188-1.17-0.258-1.303-0.32s-0.109-0.059-0.068-0.293c0.019-0.105,0.182-0.992,0.262-1.395
	c0.081-0.4,0.571-2.77,0.695-3.246c0.125-0.477,0.383-1.42,0.473-1.742c0.089-0.322,0.196-0.766,0.286-1.104
	c0.09-0.336,0.334-1.089,0.432-1.389c0.096-0.3,0.313-0.906,0.35-1.036c0.034-0.131,0.143-0.316,0.254-0.337
	c0.109-0.021,0.463-0.032,0.525-0.083c0.062-0.049,0.115-0.215,0.041-0.264c-0.074-0.051-0.213-0.054-0.328-0.045
	c-0.116,0.01-0.404,0.05-0.452,0c-0.047-0.049-0.034-0.244-0.04-0.353c-0.007-0.108-0.021-0.186,0.081-0.198
	c0.104-0.013,0.473-0.022,0.473-0.022l0.979-0.03l1.916-0.205l1.148-0.148c0,0,0.725-0.193,0.789-0.181
	c0.062,0.013,0.133,0.133,0.149,0.295c0.019,0.16,0.003,0.176-0.067,0.279c-0.068,0.103-0.773,0.171-0.873,0.218
	s-0.17,0.028-0.162,0.104s0.098,0.277,0.203,0.301c0.105,0.024,0.56,0.072,0.56,0.072s0.366,0.002,0.45,0.129
	c0.082,0.127,0.258,0.672,0.307,0.931c0.049,0.26,0.068,0.75,0.035,1.112s-0.139,0.835-0.24,1.271s-0.432,0.902-0.637,1.125
	c-0.204,0.223-1.06,0.525-1.138,0.58c-0.079,0.053-0.196,0.492-0.138,0.523c0.059,0.029,0.467-0.182,0.584-0.215
	C12.642,28.464,12.969,28.284,13.031,28.316z"/>
<path id="goalie-shorts-r" fill-rule="evenodd" clip-rule="evenodd" fill="#1A1A18" d="M13.709,28.073l-0.267,1.939
	c0,0-0.117,0.785-0.124,1.104c-0.006,0.318,0.011,1.061,0.023,1.395c0.012,0.334,0.041,1.197,0.054,1.369s0.013,0.172-0.097,0.186
	c-0.109,0.016-0.466,0.016-0.821,0.029c-0.355,0.016-0.682,0.035-0.82,0.055c-0.138,0.02-0.327,0.016-0.327,0.016
	s0.315-1.209,0.451-1.588s0.394-1.117,0.49-1.395s0.19-0.428,0.309-0.75c0.117-0.322,0.319-0.723,0.513-1.146
	C13.285,28.863,13.709,28.073,13.709,28.073z"/>
<path fill-rule="evenodd" clip-rule="evenodd" fill="#1A1A18" d="M10.431,24.721c0.062-0.064,0.169-0.231,0.273-0.324
	c0.104-0.093,0.597-0.206,0.692-0.245c0.095-0.039-0.073-0.293-0.167-0.312c-0.094-0.021-0.76,0.075-0.844,0.137
	c-0.084,0.062-0.457,0.789-0.565,0.934c-0.107,0.144-1.038,1.113-1.031,1.164c0.007,0.053,0.73-0.32,0.792-0.354
	c0.062-0.034,0.184-0.053,0.274-0.117C9.947,25.539,10.367,24.785,10.431,24.721z"/>
<polygon id="skin-arm-r" fill-rule="evenodd" clip-rule="evenodd" fill="#F9CAA9" points="6.647,17.045 6.86,17.999 6.881,18.134 
	6.436,18.237 6.354,17.784 6.24,17.189 6.158,16.88 6.539,16.653 "/>
<path id="skin-arm-l" fill-rule="evenodd" clip-rule="evenodd" fill="#F9CAA9" d="M6.651,20.563l0.38,0.673
	c0,0,1.277-0.774,2.304-1.452c0.941-0.62,1.411-0.925,1.621-1.122c0.088-0.083,0.31-0.291,0.396-0.443
	c0.086-0.152,0.311-0.701,0.264-1.159c-0.047-0.457-0.123-0.935-0.19-1.317c-0.068-0.382-0.145-0.852-0.145-0.852l-1.314,0.56
	l-0.78,0.426c0,0-0.097,0.076-0.134,0.126c-0.036,0.049,0.331,0.634,0.381,0.628c0.047-0.005,0.143-0.229,0.205-0.265
	c0.062-0.034,0.197-0.09,0.267-0.055s0.108,0.148,0.082,0.21c-0.026,0.061-0.739,0.771-0.739,0.771l-2.874,2.732L6.651,20.563z"/>
<path fill-rule="evenodd" clip-rule="evenodd" fill="#FFFFFF" d="M4.035,17.249c0,0-0.02,0.128-0.119,0.142
	c-0.101,0.012-0.297-0.234-0.398-0.229c-0.1,0.006-0.471,0.006-0.791,0.094s-1.145,0.401-1.145,0.401L1.25,17.78
	c0,0-0.162,0.162-0.141,0.275c0.023,0.112,0.15,0.104,0.15,0.104l0.383-0.054l0.506-0.099l0.324-0.078l-0.01,0.14L1.641,18.38
	l-0.537,0.235c0,0-0.182,0.107-0.166,0.277c0.018,0.172,0.176,0.201,0.176,0.201l0.602-0.201l0.316-0.116l0.379-0.121l-0.002,0.166
	l-1.24,0.612c0,0-0.141,0.158-0.102,0.291c0.039,0.134,0.221,0.124,0.221,0.124l1.219-0.588l0.065,0.075l-0.897,0.573
	c0,0-0.049,0.111,0.033,0.199s0.207,0.043,0.207,0.043l1.103-0.504l0.833-0.285l0.82-0.306l0.524-0.255l0.004-0.309l0.19-0.046
	l0.053,0.266l0.153,0.026l0.311-0.084l0.2-0.202L5.84,17.167l-0.098-0.298l-0.172-0.032l-0.183,0.055l-0.097,0.27l-0.318-0.1
	l-0.396-0.25l-0.441-0.46c0,0-0.114-0.095-0.21-0.021s-0.149,0.067-0.164,0.181s0.149,0.456,0.149,0.456L4.035,17.249z"/>
<path fill="#FFFFFF" d="M6.717,21.285c0.109,0.19,0.217,0.326,0.238,0.391s0.018,0.104-0.057,0.157
	c-0.072,0.054-0.213,0.174-0.307,0.202s-0.095,0.005-0.149-0.051c-0.054-0.054-0.112-0.134-0.179-0.153
	c-0.066-0.018-0.143-0.012-0.18,0.029c-0.038,0.041,0.13,0.187,0.101,0.239c-0.029,0.052-0.452,0.315-0.631,0.396
	c-0.179,0.082-0.587,0.303-0.752,0.369c-0.165,0.065-0.895,0.386-0.895,0.386l-0.501,0.201l-0.314,0.146
	c0,0-0.084,0.038-0.166-0.109s0.049-0.259,0.049-0.259l0.76-0.474l-0.043-0.129l-1.917,0.703c0,0-0.229,0.04-0.341-0.165
	c-0.096-0.176,0.053-0.311,0.053-0.311l1.91-0.848l-0.041-0.133L1.463,22.37c0,0-0.221-0.057-0.262-0.263s0.18-0.349,0.18-0.349
	l1.861-0.611l0.004-0.14l-1.304,0.066c0,0-0.229-0.035-0.219-0.192c0.011-0.156,0.213-0.214,0.213-0.214s1.591-0.327,1.769-0.348
	s0.721-0.012,0.881-0.01c0.16,0.003,0.568,0.059,0.638,0.083c0.069,0.023,0.171,0.259,0.216,0.266c0.045,0.008,0.1-0.027,0.12-0.068
	c0.021-0.042-0.046-0.196-0.032-0.236c0.013-0.041,0.099-0.186,0.186-0.224c0.086-0.038,0.306-0.126,0.341-0.089
	c0.033,0.037,0.149,0.289,0.288,0.584C6.481,20.922,6.607,21.096,6.717,21.285z"/>
<path fill-rule="evenodd" clip-rule="evenodd" fill="#1A1A18" d="M3.641,20.866c0.023-0.052,0.186-0.141,0.269-0.097
	c0.084,0.045,0.081,0.168,0.089,0.29c0.009,0.122-0.184,0.112-0.266,0.096C3.651,21.137,3.615,20.918,3.641,20.866z"/>
<path fill-rule="evenodd" clip-rule="evenodd" fill="#1A1A18" d="M3.822,21.923c-0.047-0.006-0.046-0.093-0.046-0.146
	c-0.001-0.052,0.003-0.225,0.09-0.19c0.087,0.035,0.119,0.201,0.089,0.287C3.925,21.96,3.822,21.923,3.822,21.923
	S3.869,21.929,3.822,21.923z"/>
<path id="skin-face" fill="#F9CAA9" d="M8.517,7.572L8.353,6.909c0,0-0.156-0.001-0.245-0.029C8.034,6.859,8.025,6.811,8.05,6.791
	c0.059-0.04,0.459-0.113,0.602-0.437C8.764,6.1,8.638,5.7,8.348,5.707C8.198,5.71,8.025,5.755,7.911,5.836
	c-0.277,0.2-0.355,0.291-0.487,0.72C7.319,6.897,7.06,6.493,6.715,5.528C6.549,5.063,6.707,4.555,6.671,4.573
	C6.151,4.846,6.082,4.801,5.807,4.754c-0.042-0.01-0.275-0.037-0.113-0.188C5.751,4.5,5.492,4.643,5.127,4.565
	C4.864,4.495,5.199,4.257,4.965,4.373C4.76,4.474,4.854,4.467,4.564,4.56c-0.051,0.02-0.079,0.386-0.079,0.386
	s0.309,0.149,0.543,0.09c0.233-0.06-0.308,0.102-0.441,0.1C4.422,5.134,4.615,5.291,4.638,5.358C4.645,5.379,4.783,5.416,4.924,5.45
	c0.099,0,0.201,0.003,0.227,0.002C5.317,5.45,5.242,5.527,5.593,5.402C5.612,5.417,5.33,5.57,5.219,5.606
	c-0.041,0.014-0.1,0.02-0.159,0.022C5.022,5.649,4.952,5.684,4.91,5.71C4.842,5.755,4.695,5.781,4.695,5.781L4.672,5.605
	L4.625,5.613c0,0-0.173,0.459-0.193,0.592C4.41,6.337,4.293,6.619,4.361,6.679c0.161,0.026,0.32,0.052,0.374,0.032
	C4.732,6.734,4.808,7.144,4.781,7.209c-0.078,0.198,0.28,0.129,0.417,0.026c0.138-0.1,0.229,0.012,0.229,0.012L5.42,7.329
	L5.115,7.465c0,0-0.163,0.044-0.104,0.172c0.031,0.066,0.106-0.009,0.212,0.125c0.115,0.146,0.128,0.439,0.261,0.571
	C5.811,8.655,6.232,8.276,6.65,8.224c0.124-0.015,0.244,0.265,0.367,0.708c0.155,0.562,0.265,1.062,0.265,1.062
	S7.5,9.713,7.906,9.276c0.366-0.395,0.828-0.812,0.828-0.812C8.726,8.53,8.517,7.572,8.517,7.572z M7.677,6.613
	c-0.072-0.017-0.039-0.1,0.003-0.166l0.113-0.015c0.144-0.023,0.401-0.108,0.389-0.395c-0.007-0.166-0.04-0.069,0.042-0.102
	C8.308,5.902,8.392,5.95,8.396,6.029c0.003,0.081-0.001,0.006-0.1,0.309C8.275,6.406,8.17,6.468,8.17,6.468L8.115,6.492
	c0,0-0.068,0.058-0.227,0.007C7.868,6.493,7.769,6.567,7.677,6.613z"/>
<path id="hair-p" fill="#F7DD7F" d="M10.101,1.494c0.074-0.096,0.361-0.307,0.617-0.434c0.173-0.085,0.396-0.121,0.773-0.06
	c0.771,0.128,0.81,0.527,1.155,2.153c0.224,1.054,0.287,1.593,0.419,2.074c0.181,0.664,0.508,1.581-0.124,2.186
	c0.202-0.194-0.144-0.829-0.144-0.829c0.005,0.124,0.069,0.341,0.014,0.521c-0.066,0.21-0.258,0.376-0.285,0.398
	c0.152-0.316-0.178-0.965-0.178-0.965c-0.055,0.289-0.121,0.61-0.457,0.864c0.081-0.062-0.002-0.895-0.002-0.895
	c-0.066,0.229-0.33,0.553-0.346,0.739c0.058-0.674-0.497-0.607-0.523-1.395c0.152-0.692,0.332-1.132,0.189-2.038
	c0.117-0.272,0.044-0.963,0.005-1.223c-0.061-0.397-0.253-0.712-0.46-0.854C10.461,1.537,10.101,1.494,10.101,1.494z"/>
<path id="hair" fill-rule="evenodd" clip-rule="evenodd" fill="#F7DD7F" d="M10.845,4.098c-0.021-0.264-0.09-0.859-0.463-1.307
	c-0.301-0.434-0.919-0.841-1.186-0.98C9.013,1.713,8.113,1.252,6.696,1.547C6.086,1.665,5.751,1.88,5.461,2.035
	C5.339,2.1,5.18,2.252,5.065,2.368C4.951,2.484,4.799,2.657,4.701,2.785C4.629,2.866,4.579,2.934,4.545,2.992
	C4.416,3.169,4.313,3.318,4.186,3.453c-0.238,0.25-0.361,0.289-0.348,0.302C3.885,3.801,4.02,3.761,4.223,3.756
	c-0.085,0.107-0.2,0.235-0.366,0.398C4.471,4.331,4.599,4.19,5.202,3.9c0.336-0.225,0.417,0.02,0.044,0.388
	c0.572,0.096,0.782-0.416,0.868-0.336c0.043,0.041,0.185,0.216-0.171,0.446c0.385,0.125,0.662-0.146,0.738-0.213
	c0.126-0.084,0.287,0.002,0.285,0.21C6.969,4.568,6.865,4.906,6.92,5.121c0.14,0.562,0.296,1.166,0.338,1.024
	c0.087-0.301,0.405-0.562,0.724-0.688C8.179,5.379,8.385,5.31,8.687,5.473C8.812,5.524,9.019,5.79,8.99,6.073
	C8.966,6.297,8.956,6.563,8.626,6.826c0.057,0.191,0.092,0.265,0.139,0.436c0.111,0.401,0.227,0.691,0.273,0.576
	c0.432-0.913,0.994-1.13,1.225-1.445C10.604,5.929,10.932,5.252,10.845,4.098z M10.038,5.194c-0.068,0.114,0.035-0.286,0.068-0.755
	c0.031-0.436-0.166-1.238-0.019-0.978C10.368,3.952,10.416,4.572,10.038,5.194z"/>
<path fill="#FFFFFF" d="M9.579,1.753c0,0,0.092-0.092,0.486,0.013c0.35,0.093,0.531,0.139,0.717,0.512
	c0.153,0.308,0.213,1.027,0.213,1.027s-0.307-0.662-0.62-0.985C9.931,1.865,9.579,1.753,9.579,1.753z"/>
</svg>
