<?xml version="1.0" encoding="utf-8"?>
<!-- Generator: Adobe Illustrator 16.0.4, SVG Export Plug-In . SVG Version: 6.00 Build 0)  -->
<!DOCTYPE svg PUBLIC "-//W3C//DTD SVG 1.1//EN" "http://www.w3.org/Graphics/SVG/1.1/DTD/svg11.dtd">
<svg version="1.1" id="Ebene_1" xmlns="http://www.w3.org/2000/svg" xmlns:xlink="http://www.w3.org/1999/xlink" x="0px" y="0px"
	 width="16.913px" height="49.81px" viewBox="0 0 16.913 49.81" enable-background="new 0 0 16.913 49.81" xml:space="preserve">
<path fill-rule="evenodd" clip-rule="evenodd" fill="#1A1A18" d="M15.592,20.145c0,0,0.309-0.017,0.447-0.188
	c0.14-0.173,0.129-0.333,0.129-0.333l-0.105-0.307c0,0,0.203-0.077,0.212-0.312c0.015-0.383-0.294-0.67-0.294-0.67
	s0.138-0.026,0.182-0.281s-0.098-0.433-0.191-0.491c-0.094-0.058-0.453-0.243-0.574-0.275s-0.983-0.341-1.182-0.378
	c-0.199-0.037-0.738-0.069-0.738-0.069l-0.113-0.049c0,0,0.082-0.174,0.101-0.325s-0.104-0.185-0.153-0.257
	c-0.047-0.071-0.239-0.203-0.403-0.189c-0.165,0.016-0.343,0.171-0.343,0.171l-0.379,0.393c0,0-0.286,0.128-0.336,0.143
	c-0.051,0.015-0.205-0.145-0.35-0.178c-0.181-0.043-0.455,0.032-0.455,0.032l-0.588-0.385l0.002-0.012c0,0,0.081-0.589,0.142-0.894
	c0.06-0.304,0.11-0.537,0.188-0.938s0.122-1.139,0.141-1.359s-0.008-0.857-0.047-1.25c-0.04-0.394-0.169-0.988-0.234-1.25
	c-0.109-0.438-0.281-0.844-0.281-0.844l-0.255-0.396c0.082-0.382,0.219-0.628,0.271-0.636c0.161-0.028,0.792,0.351,1.177,0.033
	c0.252-0.177,0.199-0.444,0.374-0.632c0.2-0.217,0.41-0.188,0.253-0.433c-0.01-0.017,0.078-0.028,0.17-0.119
	c0.14-0.105,0.006-0.291,0.071-0.531c0.14-0.043,0.213,0.014,0.421-0.128c0.127-0.06-0.068-0.741-0.068-0.741L12.653,5.58
	l-0.023-0.097c0.094-0.029,0.197-0.067,0.197-0.067s-0.127-0.019-0.223-0.03L12.598,5.36c0,0,0.191-0.065,0.176-0.344
	c-0.014-0.277-0.058-0.497-0.058-0.497s0.401-0.029,0.647-0.173c0.203-0.118-0.16-0.312,0.057-0.344
	c0.23-0.033,0.114-0.307-0.06-0.425c-0.305-0.21-0.345-0.31-0.573-0.588c-0.326-0.396-0.408-0.522-0.518-0.652
	c-0.307-0.365-0.696-0.646-1.128-0.847c-0.391-0.186-1.281-0.394-2.203-0.327C8.624,1.198,8.06,1.279,7.577,1.522
	C7.482,1.489,7.349,1.454,7.199,1.439c-0.049-0.03-0.101-0.06-0.139-0.106C6.833,1.062,6.636,0.96,6.412,0.838
	c-0.224-0.121-0.511-0.199-0.8-0.183C5.223,0.68,4.904,0.774,4.655,1.004c-0.22,0.205-0.384,0.499-0.519,1.158
	C4.022,2.721,3.847,3.809,3.637,4.761C3.435,5.678,3.193,6.352,3.281,6.846C3.35,7.225,3.468,7.304,3.638,7.537
	c0.355,0.487,0.564,0.171,0.564,0.171c-0.007,0.11,0.331,0.207,0.406,0.17c0.129-0.066,0.137-0.216,0.074-0.414
	C4.863,7.731,4.99,7.751,4.99,7.751c0.113,0.037,0.451,0.134,0.297-0.198c0.255,0.229,0.335,0.065,0.375-0.204
	C5.649,7.291,5.708,7.073,5.807,6.85C5.9,6.637,6.092,6.416,6.122,6.322c0.114,0.053,0.211,0.202,0.334,0.363
	c0.147,0.191,0.442,0.401,0.666,0.634c0.105,0.112,0.344,0.557,0.475,0.79c0.029,0.055,0.068,0.103,0.105,0.15
	C7.615,8.306,7.466,8.386,7.258,8.494C7.157,8.547,6.774,8.776,6.446,9.01c-0.2,0.143-0.942,0.97-1.031,1.094
	c-0.156,0.219-0.487,0.799-0.555,0.921c-0.067,0.121-0.316,0.686-0.397,0.896c-0.08,0.211-0.316,0.982-0.407,1.387
	c-0.089,0.403-0.423,1.979-0.484,2.531c-0.062,0.552-0.151,1.38-0.188,1.859c-0.034,0.478-0.218,3.385-0.239,3.481
	s-0.057,0.278-0.117,0.391c-0.06,0.11-0.107,0.211-0.143,0.369c-0.035,0.16-0.006,0.502-0.02,0.632
	C2.849,22.701,2.797,22.93,2.7,23.182c-0.098,0.254-0.164,0.466-0.227,0.808c-0.062,0.344-0.047,0.845-0.041,1.063
	c0.006,0.221,0.041,0.596,0.074,0.854c0.033,0.255,0.145,0.733,0.191,1.015c0.048,0.279,0.084,0.455,0.124,0.734
	s0.177,1.338,0.177,1.338l0.191,1.559c0,0,0.041,0.398,0.056,0.619c0.014,0.219-0.015,0.852-0.015,1.189s-0.055,1.117-0.055,1.367
	s-0.033,0.484-0.041,0.617c-0.004,0.104,0.014,0.104,0.11,0.117c0.096,0.016,0.396,0.014,0.643,0.029
	c0.248,0.018,0.328,0.045,0.328,0.045L4.15,34.948c0,0-0.25,0.232-0.461,0.461c-0.21,0.23-0.251,0.848-0.251,0.848
	s-0.137,0.117-0.384,0.396c-0.172,0.193-0.638,1.137-0.779,1.588c-0.143,0.449-0.346,1.539-0.426,2.1
	c-0.081,0.561-0.26,1.721-0.321,2.09c-0.062,0.367-0.167,0.658-0.19,0.814c-0.021,0.156-0.115,0.762-0.115,0.762l-0.236,0.539
	c0,0-0.254,0.555-0.324,0.896s0.039,1.031,0.094,1.119s-0.058,0.174,0.014,0.279c0.07,0.107,0.436,0.115,0.436,0.115
	s0.012,0.26,0.068,0.309c0.057,0.047,0.369,0.047,0.426,0.021s0.096-0.254,0.096-0.254l0.396,0.012c0,0,0.012,0.246,0.082,0.279
	c0.071,0.033,0.343,0.043,0.427,0.004c0.084-0.041,0.123-0.266,0.123-0.266h1.602c0,0,0.023,0.229,0.08,0.246
	c0.057,0.02,0.367,0.025,0.424-0.016c0.057-0.039,0.069-0.248,0.069-0.248l0.273,0.027c0,0,0.027,0.207,0.084,0.24
	c0.056,0.033,0.257,0.012,0.288,0c0.029-0.012,0.164-0.295,0.164-0.295s0.328,0.016,0.438,0.016
	c-0.014,0.133-0.034,0.246-0.045,0.299C6.161,47.532,6.06,47.89,6.07,48.056c0.01,0.168,0.175,0.426,0.256,0.539
	c0.082,0.113,0.34,0.229,0.34,0.229s0.013,0.26,0.056,0.293c0.042,0.033,0.341,0.043,0.398,0.02
	c0.058-0.027,0.106-0.256,0.106-0.256l0.247,0.016c0,0,0.012,0.188,0.068,0.236c0.057,0.047,0.315,0.014,0.386,0.004
	c0.07-0.012,0.148-0.299,0.148-0.299l1.628,0.037c0,0,0.083,0.193,0.14,0.217c0.056,0.021,0.248,0.02,0.322-0.012
	c0.073-0.033,0.144-0.209,0.144-0.209l0.41,0.021c0,0,0.029,0.168,0.082,0.199c0.055,0.029,0.323,0.02,0.359,0.01
	c0.037-0.01,0.145-0.221,0.145-0.221l0.215,0.012c0,0,0.011,0.15,0.061,0.184s0.21,0.012,0.267-0.021
	c0.058-0.033,0.073-0.195,0.073-0.195s0.084-0.088,0.241-0.141c0.158-0.053,0.345-0.148,0.408-0.307
	c0.064-0.158,0.046-0.652-0.149-0.811c-0.196-0.156-1.596-0.604-1.82-0.725c-0.225-0.123-0.759-0.523-0.901-0.676
	s-0.32-0.453-0.396-0.508c-0.075-0.057-0.229-0.061-0.229-0.061s0.067-0.396,0.241-1.02c0.172-0.623,0.401-1.406,0.587-2.059
	s0.744-2.686,0.78-2.809c0.034-0.121,0.087-0.42,0.082-0.498c-0.006-0.08-0.069-0.221-0.069-0.221s0.123-0.074,0.229-0.285
	c0.104-0.213,0.123-0.441,0.109-0.721c-0.014-0.262-0.109-0.629-0.109-0.629s0.229-0.625,0.292-0.791
	c0.063-0.168,0.185-0.377,0.233-0.678c0.049-0.299,0.02-0.834-0.008-1.051c-0.025-0.219-0.093-0.557-0.093-0.557
	s0.331-0.113,0.423-0.146c0.082-0.029,0.066-0.094,0.055-0.162c-0.026-0.168-0.364-1.803-0.364-1.803l-0.653-2.918l-0.432-1.676
	l-0.451-1.786L9.27,23.619l-0.152-0.418c0,0,0.056-0.034,0.124-0.25c0.066-0.217,0.021-0.906,0.021-0.906l0.134-0.574l0.256,0.145
	c0,0,0.018,0.123,0.07,0.227c0.053,0.104,0.045,0.138,0.125,0.202c0.077,0.063,0.198,0.127,0.302,0.197
	c0.104,0.072,0.275,0.129,0.326,0.13s0.054-0.001,0.127,0.066c0.074,0.067,0.48,0.332,0.668,0.435s0.503,0.265,0.729,0.353
	s0.893,0.408,0.893,0.408l0.863,0.359c0,0,0.189,0.003,0.35-0.066c0.158-0.069,0.197-0.185,0.197-0.185l0.109-0.301l0.216,0.05
	l0.514,0.182c0,0,0.245,0.067,0.423-0.006c0.154-0.063,0.225-0.28,0.225-0.28s0.104-0.278,0.062-0.455s-0.15-0.25-0.15-0.25
	s0.15-0.117,0.26-0.235c0.11-0.117,0.119-0.321,0.119-0.321s-0.023-0.16-0.099-0.367c-0.074-0.208-0.399-0.34-0.399-0.34
	l-0.336-0.118c0,0,0.306-0.046,0.34-0.31c0.033-0.264-0.414-0.528-0.414-0.528s0.197-0.063,0.27-0.118
	C15.576,20.24,15.592,20.145,15.592,20.145z M8.11,36.732c-0.128,0.201-0.19,0.338-0.237,0.467
	c-0.047,0.127-0.104,0.562-0.068,0.705c0.035,0.141,0.133,0.348,0.102,0.416c-0.033,0.068-0.338,0.594-0.411,0.869
	c-0.073,0.273-0.296,1.092-0.329,1.469c-0.032,0.377-0.072,1.949-0.148,2.332s-0.526,2.521-0.567,2.592
	c-0.042,0.07-0.105,0.141-0.105,0.141s0.019-0.061-0.04-0.082c-0.061-0.018-1.199-0.404-1.369-0.498s-0.641-0.318-0.768-0.463
	c-0.127-0.146-0.503-0.992-0.503-0.992s0.14-0.611,0.203-0.883c0.063-0.27,0.196-0.686,0.342-1.088s0.265-0.656,0.492-1.25
	c0.228-0.592,0.722-1.873,0.803-2.107c0.082-0.234,0.115-0.391,0.115-0.391s0.188-0.057,0.364-0.197
	c0.164-0.133,0.246-0.191,0.342-0.602c0.096-0.412,0.121-0.711,0.121-0.711s0.319-0.498,0.398-0.627
	c0.08-0.133,0.498-0.834,0.564-0.889c0.066-0.053,0.103-0.062,0.125-0.014c0.023,0.049,0.103,0.16,0.138,0.273
	c0.019,0.059,0.188,0.355,0.31,0.643c0.115,0.271,0.185,0.533,0.205,0.584C8.228,36.536,8.216,36.568,8.11,36.732z M13.906,20.126
	l-0.823-0.129c0,0-0.58-0.018-0.926,0.025c-0.344,0.041-0.52,0.107-0.52,0.107l-0.239-0.244c0,0-0.387-0.175-0.472-0.175
	s-0.209,0.055-0.209,0.055l-0.472-0.432l-0.198-0.246l-0.148-0.172l0.076-0.374l0.004-0.013l0.58,0.147l0.056,0.163
	c0,0,0.122,0.111,0.257,0.16c0.134,0.049,0.315,0.115,0.423,0.119l0.776,0.242c0.234,0.085,0.513,0.188,0.513,0.188l0.462,0.176
	l1.161,0.387l0.226,0.109L13.906,20.126z"/>
<path id="goalie-shirt" fill="#962467" d="M10.273,10.291c-0.03-0.109-0.207-0.45-0.207-0.45l-0.229,0.981
	c0,0-0.587-0.821-0.422-0.609c0.219,0.281-0.587-0.695-0.797-0.906c-0.5-0.5-0.812-0.703-0.859-0.688
	C7.593,8.675,7.353,8.795,7.242,8.854c-0.11,0.058-0.531,0.344-0.734,0.531c-0.212,0.195-0.703,0.672-0.984,1.141
	s-0.552,1.055-0.641,1.297c-0.089,0.243-0.425,1.344-0.425,1.344l-0.22,0.868l-0.262,1.585l-0.175,1.268l-0.139,1.705l-0.027,1.823
	c0,0-0.023,0.608-0.021,0.727c0.001,0.118-0.03,0.108,0.067,0.143c0.067,0.024,0.321,0.069,0.401,0.096
	c0.079,0.027,0.088-0.12,0.098-0.062c0.009,0.06,0.036-0.749,0.051-1.132c0.014-0.382-0.022-0.97-0.012-1.153
	c0.012-0.17,0.023-0.427,0.079-0.445c0.056-0.018,0.099-0.011,0.153,0.066c0.053,0.077,0.094,0.269,0.115,0.482
	c0.02,0.213,0.075,0.462,0.082,0.764c0.006,0.255,0.08,1.387,0.077,1.505c-0.003,0.12,0.027,0.071,0.115,0.118
	c0.087,0.046,0.306,0.09,0.581,0.148c0.273,0.059,0.971,0.132,1.395,0.161c0.426,0.03,0.92,0.03,1.186,0.053
	c0.195,0.016,0.564,0.029,0.662,0.039c0.096,0.012,0.083,0.039,0.117-0.085s0.166-0.553,0.166-0.553l0.067-0.193l-0.794-0.471
	c0,0-1.334-0.829-1.506-0.941s-0.871-0.565-0.979-0.664C5.599,18.893,5.484,18.82,5.354,18.6c-0.078-0.133-0.218-0.397-0.273-0.596
	s-0.095-0.625-0.103-0.823s0.062-0.61,0.082-0.809c0.02-0.199,0.185-1.169,0.185-1.169l0.062-0.484c0,0-0.053,0.002-0.112-0.045
	c-0.06-0.044-0.08-0.088-0.06-0.176c0.105-0.446,0.434-1.822,0.541-2.184c0.131-0.435,0.288-0.75,0.288-0.75l0.02-0.04
	c0,0-0.012,0.326-0.087,0.878c-0.061,0.43-0.23,1.291-0.299,1.696c-0.038,0.223-0.011,0.237,0.117,0.287
	c0.372,0.146,1.481,0.642,1.481,0.642l0.923,0.463c0,0,0.524,0.228,0.625,0.265s0.189-0.217,0.155-0.11
	C8.865,15.75,10.1,12.83,10.1,12.83s-0.297,1.079-0.564,1.932c-0.204,0.652-0.51,1.415-0.546,1.495
	c-0.037,0.078-0.084,0.099-0.162,0.073c-0.079-0.024-0.612-0.223-0.612-0.223l-0.425,0.75l1.054,1.03l0.685,0.638
	c0,0,0.255-1.07,0.368-1.543c0.178-0.735,0.486-2.448,0.548-2.72s0.156-1.081,0.156-1.503c0-0.562-0.07-0.965-0.125-1.406
	C10.42,10.913,10.348,10.571,10.273,10.291z"/>
<path id="skin-leg-l" fill-rule="evenodd" clip-rule="evenodd" fill="#F9CAA9" d="M6.939,34.931c0,0-0.479,0.652-0.601,0.855
	c-0.085,0.141-0.196,0.291-0.257,0.371c-0.027,0.035-0.023,0.062-0.123,0.029c-0.098-0.033-0.331-0.078-0.618-0.297
	c-0.288-0.221-0.685-0.633-0.739-0.707c-0.055-0.072-0.025-0.15-0.025-0.15s0.058-0.404,0.062-0.482
	c0.005-0.076-0.011-0.086,0.072-0.072c0.084,0.01,0.477,0.02,0.58,0.033c0.104,0.01,0.361,0.018,0.418,0.072
	c0.057,0.057,0.053,0.27,0.103,0.332s0.128,0.07,0.226,0.088c0.098,0.02,0.217,0.025,0.37,0C6.558,34.978,6.939,34.931,6.939,34.931
	z"/>
<path id="goalie-sock-l" fill="#FFFFFF" d="M5.55,37.48c-0.114,0.027-0.375-0.08-0.375-0.08s-0.062-0.129-0.133-0.105
	C4.97,37.316,4.91,37.351,4.9,37.427c-0.012,0.08,0.116,0.287,0.207,0.418c0.092,0.129,0.031,0.186-0.005,0.297
	c-0.035,0.113-0.373,1.088-0.373,1.088l-0.711,1.777c0,0-0.499,1.439-0.608,1.895c-0.055,0.23-0.162,0.684-0.219,0.75
	s-0.332,0.094-0.392,0.18s0.06,0.164,0,0.293s-0.432,0.533-0.548,0.516c-0.114-0.018-0.324-0.174-0.438-0.295
	c-0.115-0.121-0.213-0.289-0.219-0.367c-0.006-0.076,0.082-0.236,0.082-0.236s0.106-0.754,0.187-1.207
	c0.079-0.455,0.21-1.172,0.273-1.617s0.22-1.381,0.315-1.822s0.137-0.678,0.342-1.133s0.518-1.109,0.648-1.172
	s0.143-0.029,0.246-0.061c0.104-0.031,0.225-0.158,0.191-0.264c-0.031-0.107-0.09-0.264-0.082-0.367
	c0.008-0.107,0.061-0.305,0.164-0.412c0.105-0.105,0.235-0.242,0.314-0.225c0.078,0.016,0.541,0.582,0.809,0.754
	c0.214,0.137,0.613,0.275,0.795,0.348c0.047,0.02,0.131,0.045,0.09,0.166c-0.063,0.186-0.07,0.42-0.152,0.539
	C5.738,37.39,5.664,37.452,5.55,37.48z"/>
<path id="goalie-sock-r" fill-rule="evenodd" clip-rule="evenodd" fill="#FFFFFF" d="M7.097,46.095
	C7.01,45.99,7.01,45.724,6.941,45.652c-0.068-0.074-0.111-0.059-0.117-0.174c-0.006-0.121,0.215-1.074,0.215-1.074
	s0.255-1.16,0.312-1.455c0.057-0.297,0.082-0.836,0.09-1.072c0.009-0.238,0.047-0.789,0.083-1.117
	c0.035-0.328,0.213-1.219,0.315-1.465c0.103-0.244,0.214-0.572,0.392-0.621c0.176-0.049,0.404-0.057,0.523-0.076
	c0.118-0.018,0.072-0.172,0.081-0.264c0.01-0.092-0.077-0.07-0.204-0.133c-0.129-0.062-0.311-0.078-0.37-0.152
	c-0.06-0.072-0.103-0.303-0.08-0.443C8.2,37.462,8.228,37.3,8.31,37.14c0.082-0.162,0.139-0.32,0.233-0.309
	c0.095,0.014,0.639,0.121,0.948,0.207c0.311,0.086,0.937,0.27,0.999,0.391s0.086,0.422,0.109,0.564
	c0.022,0.145-0.063,0.637-0.17,0.693c-0.109,0.055-0.273-0.043-0.321,0.057c-0.048,0.102-0.022,0.172,0.054,0.297
	c0.076,0.127,0.146,0.025,0.167,0.121c0.019,0.094,0.003,0.426-0.058,0.627c-0.06,0.203-0.596,2.031-0.71,2.498
	c-0.115,0.469-0.734,2.855-0.822,2.896c-0.087,0.041-0.364,0.107-0.383,0.164c-0.02,0.055-0.063,0.619-0.123,0.732
	c-0.061,0.115-0.42,0.355-0.576,0.34C7.503,46.4,7.185,46.202,7.097,46.095z"/>
<path id="skin-leg-r" fill-rule="evenodd" clip-rule="evenodd" fill="#F9CAA9" d="M8.56,36.306
	c-0.015-0.076-0.038-0.189-0.066-0.297c-0.047-0.178-0.512-1.061-0.525-1.148s0.011-0.391,0.039-0.408
	c0.029-0.02,0.391,0.322,0.454,0.35c0.062,0.025,1.324-0.17,1.619-0.219c0.295-0.047,0.799-0.201,0.842-0.176
	c0.042,0.025,0.109,0.414,0.131,0.559s0.041,0.479,0.004,0.773c-0.037,0.297-0.36,1.035-0.407,1.119
	c-0.047,0.086-0.062,0.117-0.161,0.08c-0.1-0.035-0.649-0.215-0.976-0.309c-0.27-0.078-0.504-0.131-0.71-0.184
	C8.624,36.404,8.57,36.359,8.56,36.306z"/>
<path fill-rule="evenodd" clip-rule="evenodd" fill="#1A1A18" d="M10.285,35.589c-0.033-0.096,0.104-0.383,0.152-0.432
	c0.048-0.047,0.174-0.135,0.207-0.1c0.032,0.037,0.062,0.559,0.041,0.607c-0.022,0.047-0.064,0.117-0.152,0.105
	C10.445,35.757,10.285,35.589,10.285,35.589S10.317,35.685,10.285,35.589z"/>
<path id="goalie-shorts-r" fill-rule="evenodd" clip-rule="evenodd" fill="#1A1A18" d="M3.883,28.316
	c-0.062,0.031,0.241,0.543,0.308,0.707c0.068,0.162,0.24,0.492,0.407,0.922c0.167,0.432,0.536,1.445,0.653,1.783
	c0.116,0.338,0.801,2.543,0.801,2.543s0.062,0.186,0.1,0.254c0.037,0.07,0.123,0.045,0.123,0.045s1.132-0.123,1.241-0.137
	c0.11-0.014,0.101-0.016,0.112-0.104s0.008-0.535,0.071-0.582c0.063-0.049,0.114-0.029,0.191,0.027
	c0.061,0.043,0.462,0.469,0.516,0.525c0.055,0.061,0.04,0.076,0.136,0.053s0.986-0.107,1.394-0.188
	c0.947-0.188,1.17-0.258,1.303-0.32s0.109-0.059,0.068-0.293c-0.019-0.105-0.182-0.992-0.262-1.395
	c-0.081-0.4-0.571-2.77-0.695-3.246c-0.125-0.477-0.383-1.42-0.473-1.742c-0.089-0.322-0.196-0.766-0.286-1.104
	c-0.09-0.336-0.334-1.089-0.432-1.389c-0.096-0.3-0.313-0.906-0.35-1.036c-0.034-0.131-0.143-0.316-0.254-0.337
	c-0.109-0.021-0.463-0.032-0.525-0.083c-0.062-0.049-0.115-0.215-0.041-0.264c0.074-0.051,0.213-0.054,0.328-0.045
	c0.116,0.01,0.404,0.05,0.452,0c0.047-0.049,0.034-0.244,0.04-0.353c0.007-0.108,0.021-0.186-0.081-0.198
	c-0.104-0.013-0.473-0.022-0.473-0.022l-0.979-0.03l-1.916-0.205l-1.148-0.148c0,0-0.725-0.193-0.789-0.181
	c-0.062,0.013-0.133,0.133-0.149,0.295c-0.019,0.16-0.003,0.176,0.067,0.279c0.068,0.103,0.773,0.171,0.873,0.218
	s0.17,0.028,0.162,0.104s-0.098,0.277-0.203,0.301c-0.105,0.024-0.56,0.072-0.56,0.072s-0.366,0.002-0.45,0.129
	c-0.082,0.127-0.258,0.672-0.307,0.931c-0.049,0.26-0.068,0.75-0.035,1.112s0.139,0.835,0.24,1.271s0.432,0.902,0.637,1.125
	c0.204,0.223,1.06,0.525,1.138,0.58c0.079,0.053,0.196,0.492,0.138,0.523c-0.059,0.029-0.467-0.182-0.584-0.215
	C4.273,28.464,3.946,28.284,3.883,28.316z"/>
<path id="goalie-shorts-l" fill-rule="evenodd" clip-rule="evenodd" fill="#1A1A18" d="M3.205,28.073l0.267,1.939
	c0,0,0.117,0.785,0.124,1.104c0.006,0.318-0.011,1.061-0.023,1.395c-0.012,0.334-0.041,1.197-0.054,1.369s-0.013,0.172,0.097,0.186
	c0.109,0.016,0.466,0.016,0.821,0.029c0.355,0.016,0.682,0.035,0.82,0.055c0.138,0.02,0.327,0.016,0.327,0.016
	s-0.315-1.209-0.451-1.588s-0.394-1.117-0.49-1.395s-0.19-0.428-0.309-0.75c-0.117-0.322-0.319-0.723-0.513-1.146
	C3.629,28.863,3.205,28.073,3.205,28.073z"/>
<path fill-rule="evenodd" clip-rule="evenodd" fill="#1A1A18" d="M6.484,24.721c-0.062-0.064-0.169-0.231-0.273-0.324
	c-0.104-0.093-0.597-0.206-0.692-0.245c-0.095-0.039,0.073-0.293,0.167-0.312c0.094-0.021,0.76,0.075,0.844,0.137
	c0.084,0.062,0.457,0.789,0.565,0.934c0.107,0.144,1.038,1.113,1.031,1.164c-0.007,0.053-0.73-0.32-0.792-0.354
	c-0.062-0.034-0.184-0.053-0.274-0.117C6.968,25.539,6.547,24.785,6.484,24.721z"/>
<polygon id="skin-arm-l" fill-rule="evenodd" clip-rule="evenodd" fill="#F9CAA9" points="10.268,17.045 10.055,17.999 
	10.033,18.134 10.479,18.237 10.561,17.784 10.674,17.189 10.756,16.88 10.375,16.653 "/>
<path id="skin-arm-r" fill-rule="evenodd" clip-rule="evenodd" fill="#F9CAA9" d="M10.264,20.563l-0.38,0.673
	c0,0-1.277-0.774-2.304-1.452c-0.941-0.62-1.411-0.925-1.621-1.122c-0.088-0.083-0.31-0.291-0.396-0.443
	c-0.086-0.152-0.311-0.701-0.264-1.159c0.047-0.457,0.123-0.935,0.19-1.317c0.068-0.382,0.145-0.852,0.145-0.852l1.314,0.56
	l0.78,0.426c0,0,0.097,0.076,0.134,0.126c0.036,0.049-0.331,0.634-0.381,0.628c-0.047-0.005-0.143-0.229-0.205-0.265
	c-0.062-0.034-0.197-0.09-0.267-0.055s-0.108,0.148-0.082,0.21c0.026,0.061,0.739,0.771,0.739,0.771l2.874,2.732L10.264,20.563z"/>
<path fill-rule="evenodd" clip-rule="evenodd" fill="#FFFFFF" d="M12.879,17.249c0,0,0.02,0.128,0.119,0.142
	c0.101,0.012,0.297-0.234,0.398-0.229c0.1,0.006,0.471,0.006,0.791,0.094s1.145,0.401,1.145,0.401l0.332,0.122
	c0,0,0.162,0.162,0.141,0.275c-0.023,0.112-0.15,0.104-0.15,0.104l-0.383-0.054l-0.506-0.099l-0.324-0.078l0.01,0.14l0.822,0.312
	l0.537,0.235c0,0,0.182,0.107,0.166,0.277c-0.018,0.172-0.176,0.201-0.176,0.201l-0.602-0.201l-0.316-0.116l-0.379-0.121
	l0.002,0.166l1.24,0.612c0,0,0.141,0.158,0.102,0.291c-0.039,0.134-0.221,0.124-0.221,0.124l-1.219-0.588l-0.065,0.075l0.897,0.573
	c0,0,0.049,0.111-0.033,0.199S15,20.152,15,20.152l-1.103-0.504l-0.833-0.285l-0.82-0.306l-0.524-0.255l-0.004-0.309l-0.19-0.046
	l-0.053,0.266L11.32,18.74l-0.311-0.084l-0.2-0.202l0.266-1.286l0.098-0.298l0.172-0.032l0.183,0.055l0.097,0.27l0.318-0.1
	l0.396-0.25l0.441-0.46c0,0,0.114-0.095,0.21-0.021s0.149,0.067,0.164,0.181s-0.149,0.456-0.149,0.456L12.879,17.249z"/>
<path fill="#FFFFFF" d="M10.198,21.285c-0.109,0.19-0.217,0.326-0.238,0.391s-0.018,0.104,0.057,0.157
	c0.072,0.054,0.213,0.174,0.307,0.202s0.095,0.005,0.149-0.051c0.054-0.054,0.112-0.134,0.179-0.153
	c0.066-0.018,0.143-0.012,0.18,0.029c0.038,0.041-0.13,0.187-0.101,0.239c0.029,0.052,0.452,0.315,0.631,0.396
	c0.179,0.082,0.587,0.303,0.752,0.369c0.165,0.065,0.895,0.386,0.895,0.386l0.501,0.201l0.314,0.146c0,0,0.084,0.038,0.166-0.109
	s-0.049-0.259-0.049-0.259l-0.76-0.474l0.043-0.129l1.917,0.703c0,0,0.229,0.04,0.341-0.165c0.096-0.176-0.053-0.311-0.053-0.311
	l-1.91-0.848l0.041-0.133l1.893,0.495c0,0,0.221-0.057,0.262-0.263s-0.18-0.349-0.18-0.349l-1.861-0.611l-0.004-0.14l1.304,0.066
	c0,0,0.229-0.035,0.219-0.192c-0.011-0.156-0.213-0.214-0.213-0.214s-1.591-0.327-1.769-0.348s-0.721-0.012-0.881-0.01
	c-0.16,0.003-0.568,0.059-0.638,0.083c-0.069,0.023-0.171,0.259-0.216,0.266c-0.045,0.008-0.1-0.027-0.12-0.068
	c-0.021-0.042,0.046-0.196,0.032-0.236c-0.013-0.041-0.099-0.186-0.186-0.224c-0.086-0.038-0.306-0.126-0.341-0.089
	c-0.033,0.037-0.149,0.289-0.288,0.584C10.434,20.922,10.308,21.096,10.198,21.285z"/>
<path fill-rule="evenodd" clip-rule="evenodd" fill="#1A1A18" d="M13.274,20.866c-0.023-0.052-0.186-0.141-0.269-0.097
	c-0.084,0.045-0.081,0.168-0.089,0.29c-0.009,0.122,0.184,0.112,0.266,0.096C13.264,21.137,13.299,20.918,13.274,20.866z"/>
<path fill-rule="evenodd" clip-rule="evenodd" fill="#1A1A18" d="M13.093,21.923c0.047-0.006,0.046-0.093,0.046-0.146
	c0.001-0.052-0.003-0.225-0.09-0.19c-0.087,0.035-0.119,0.201-0.089,0.287C12.99,21.96,13.093,21.923,13.093,21.923
	S13.045,21.929,13.093,21.923z"/>
<path id="skin-face" fill="#F9CAA9" d="M8.18,8.463c0,0,0.462,0.418,0.828,0.812c0.406,0.438,0.625,0.719,0.625,0.719
	s0.109-0.5,0.265-1.062c0.123-0.443,0.243-0.723,0.367-0.708c0.418,0.052,0.839,0.431,1.165,0.109
	c0.133-0.132,0.146-0.425,0.261-0.571c0.105-0.134,0.181-0.059,0.212-0.125c0.06-0.128-0.104-0.172-0.104-0.172l-0.305-0.136
	l-0.008-0.082c0,0,0.092-0.111,0.229-0.012c0.137,0.103,0.495,0.172,0.417-0.026c-0.026-0.065,0.05-0.476,0.047-0.498
	c0.054,0.02,0.213-0.006,0.374-0.032c0.067-0.06-0.05-0.342-0.071-0.475c-0.021-0.133-0.193-0.592-0.193-0.592l-0.047-0.008
	L12.22,5.781c0,0-0.147-0.026-0.216-0.071c-0.042-0.026-0.111-0.062-0.149-0.082c-0.06-0.003-0.118-0.009-0.159-0.022
	c-0.111-0.036-0.393-0.188-0.374-0.204c0.351,0.125,0.276,0.049,0.442,0.051c0.025,0.001,0.128-0.002,0.227-0.002
	c0.141-0.034,0.279-0.071,0.286-0.093c0.022-0.066,0.216-0.224,0.052-0.223c-0.134,0.002-0.675-0.159-0.441-0.1
	c0.234,0.06,0.543-0.09,0.543-0.09s-0.028-0.366-0.079-0.386c-0.29-0.093-0.196-0.086-0.401-0.187
	c-0.234-0.116,0.102,0.122-0.162,0.191c-0.365,0.078-0.624-0.064-0.566,0.001c0.162,0.151-0.071,0.179-0.113,0.188
	c-0.275,0.047-0.344,0.092-0.864-0.181c-0.036-0.019,0.122,0.489-0.044,0.954C9.855,6.493,9.596,6.897,9.49,6.556
	c-0.132-0.429-0.21-0.52-0.487-0.72C8.89,5.755,8.716,5.71,8.567,5.707C8.277,5.7,8.151,6.1,8.263,6.355
	c0.143,0.323,0.543,0.396,0.602,0.437C8.89,6.811,8.88,6.859,8.807,6.88C8.718,6.908,8.562,6.909,8.562,6.909L8.398,7.572
	C8.398,7.572,8.189,8.53,8.18,8.463z M9.027,6.499C8.868,6.55,8.8,6.492,8.8,6.492L8.744,6.468c0,0-0.104-0.062-0.126-0.131
	C8.52,6.034,8.516,6.11,8.519,6.029C8.523,5.95,8.607,5.902,8.691,5.936C8.773,5.968,8.74,5.871,8.733,6.037
	C8.72,6.323,8.978,6.408,9.121,6.432l0.113,0.015C9.277,6.513,9.31,6.596,9.238,6.613C9.146,6.567,9.046,6.493,9.027,6.499z"/>
<path id="hair-p" fill="#F7DD7F" d="M6.814,1.494C6.74,1.399,6.452,1.188,6.197,1.061C6.024,0.976,5.8,0.94,5.423,1.001
	c-0.771,0.128-0.81,0.527-1.155,2.153C4.044,4.208,3.981,4.747,3.849,5.229C3.668,5.893,3.341,6.81,3.973,7.414
	C3.771,7.22,4.116,6.585,4.116,6.585C4.112,6.709,4.047,6.926,4.103,7.106c0.066,0.21,0.258,0.376,0.285,0.398
	C4.236,7.188,4.566,6.539,4.566,6.539C4.62,6.828,4.687,7.15,5.023,7.404C4.942,7.342,5.025,6.509,5.025,6.509
	c0.066,0.229,0.33,0.553,0.346,0.739C5.313,6.574,5.867,6.641,5.894,5.854C5.741,5.161,5.562,4.722,5.704,3.816
	C5.587,3.543,5.66,2.853,5.699,2.593c0.061-0.397,0.253-0.712,0.46-0.854C6.453,1.537,6.814,1.494,6.814,1.494z"/>
<path id="hair" fill-rule="evenodd" clip-rule="evenodd" fill="#F7DD7F" d="M6.652,6.393c0.23,0.315,0.793,0.532,1.225,1.445
	C7.923,7.953,8.038,7.663,8.15,7.262c0.047-0.171,0.082-0.244,0.139-0.436c-0.33-0.264-0.34-0.529-0.363-0.753
	C7.896,5.79,8.103,5.524,8.228,5.473C8.53,5.31,8.736,5.379,8.933,5.457C9.251,5.584,9.57,5.845,9.656,6.146
	c0.042,0.142,0.198-0.463,0.338-1.024c0.055-0.216-0.049-0.554-0.047-0.727c-0.002-0.208,0.159-0.294,0.285-0.21
	c0.076,0.067,0.354,0.338,0.738,0.213c-0.355-0.23-0.214-0.405-0.171-0.446c0.086-0.08,0.296,0.432,0.868,0.336
	c-0.373-0.368-0.292-0.612,0.044-0.388c0.604,0.29,0.731,0.432,1.346,0.255c-0.166-0.163-0.281-0.291-0.366-0.398
	c0.203,0.005,0.338,0.045,0.385-0.001c0.014-0.013-0.109-0.052-0.348-0.302c-0.127-0.136-0.23-0.284-0.359-0.461
	c-0.034-0.059-0.084-0.126-0.156-0.207c-0.098-0.128-0.25-0.302-0.363-0.417c-0.115-0.116-0.274-0.269-0.396-0.333
	c-0.29-0.155-0.625-0.37-1.234-0.488C8.802,1.252,7.902,1.713,7.718,1.811c-0.267,0.14-0.885,0.547-1.186,0.98
	C6.159,3.239,6.091,3.834,6.07,4.098C5.983,5.252,6.311,5.929,6.652,6.393z M6.826,3.461C6.974,3.2,6.777,4.003,6.808,4.439
	c0.033,0.469,0.137,0.869,0.068,0.755C6.498,4.572,6.546,3.952,6.826,3.461z"/>
<path fill="#FFFFFF" d="M7.335,1.753c0,0-0.092-0.092-0.486,0.013c-0.35,0.093-0.531,0.139-0.717,0.512
	C5.979,2.585,5.919,3.305,5.919,3.305s0.307-0.662,0.62-0.985C6.984,1.865,7.335,1.753,7.335,1.753z"/>
</svg>
