<?xml version="1.0" encoding="utf-8"?>
<!-- Generator: Adobe Illustrator 16.0.4, SVG Export Plug-In . SVG Version: 6.00 Build 0)  -->
<!DOCTYPE svg PUBLIC "-//W3C//DTD SVG 1.1//EN" "http://www.w3.org/Graphics/SVG/1.1/DTD/svg11.dtd" [
	<!ENTITY ns_flows "http://ns.adobe.com/Flows/1.0/">
	<!ENTITY ns_extend "http://ns.adobe.com/Extensibility/1.0/">
	<!ENTITY ns_ai "http://ns.adobe.com/AdobeIllustrator/10.0/">
	<!ENTITY ns_graphs "http://ns.adobe.com/Graphs/1.0/">
]>
<svg version="1.1" id="Ebene_1" xmlns:x="&ns_extend;" xmlns:i="&ns_ai;" xmlns:graph="&ns_graphs;"
	 xmlns="http://www.w3.org/2000/svg" xmlns:xlink="http://www.w3.org/1999/xlink" xmlns:a="http://ns.adobe.com/AdobeSVGViewerExtensions/3.0/"
	 x="0px" y="0px" width="18.6px" height="51.6px" viewBox="0 0 18.6 51.6" style="enable-background:new 0 0 18.6 51.6;"
	 xml:space="preserve">
<style type="text/css">
<![CDATA[
	.st0{fill:#1A1A18;}
	.st1{fill-rule:evenodd;clip-rule:evenodd;fill:#1A1A18;}
	.st2{fill:#FBCDAA;}
	.st3{fill:#FFFFFF;}
	.st4{fill:#9E2A6A;}
	.st5{fill-rule:evenodd;clip-rule:evenodd;fill:#FBCDAA;}
	.st6{fill-rule:evenodd;clip-rule:evenodd;fill:#FFFFFF;}
]]>
</style>
<path class="st0" d="M1.33,20.69c0.08,0.06,0.31,0.12,0.31,0.12s-0.51,0.28-0.47,0.56s0.39,0.33,0.39,0.33l-0.38,0.13
	c0,0-0.37,0.14-0.46,0.36S0.6,22.58,0.6,22.58s0.01,0.22,0.14,0.34s0.3,0.25,0.3,0.25s-0.12,0.08-0.17,0.27s0.07,0.48,0.07,0.48
	s0.08,0.23,0.26,0.3c0.2,0.08,0.48,0.01,0.48,0.01l0.59-0.19l0.25-0.05l0.12,0.32c0,0,0.04,0.12,0.23,0.2s0.4,0.07,0.4,0.07
	l0.98-0.38c0,0,0.76-0.34,1.02-0.43c0.26-0.09,0.62-0.27,0.83-0.38c0.21-0.11,0.68-0.39,0.76-0.46S6.94,22.84,7,22.84
	s0.25-0.06,0.37-0.14s0.26-0.14,0.35-0.21s0.08-0.1,0.14-0.21s0.08-0.24,0.08-0.24l0.29-0.15l0.15,0.61c0,0-0.05,0.73,0.02,0.96
	c0.08,0.23,0.14,0.27,0.14,0.27l-0.17,0.44l-0.75,2.34l-0.52,1.9l-0.49,1.78l-0.75,3.1c0,0-0.38,1.74-0.42,1.92
	c-0.01,0.07-0.03,0.14,0.06,0.17C5.62,35.41,6,35.53,6,35.53s-0.08,0.36-0.11,0.59c-0.03,0.23-0.06,0.8-0.01,1.12
	c0.06,0.32,0.19,0.54,0.27,0.72c0.07,0.18,0.33,0.84,0.33,0.84s-0.11,0.39-0.12,0.67c-0.02,0.3,0.01,0.54,0.12,0.77
	c0.12,0.22,0.26,0.3,0.26,0.3s-0.07,0.15-0.08,0.23c-0.01,0.08,0.05,0.4,0.09,0.53c0.04,0.13,0.68,2.29,0.89,2.99
	c0.21,0.69,0.48,1.53,0.67,2.19c0.2,0.66,0.28,1.08,0.28,1.08s-0.17,0.01-0.26,0.06C8.25,47.68,8.05,48,7.88,48.17
	c-0.16,0.16-0.77,0.59-1.03,0.72C6.6,49.01,5,49.49,4.78,49.65c-0.22,0.17-0.25,0.69-0.17,0.86c0.07,0.17,0.29,0.27,0.47,0.33
	c0.18,0.06,0.28,0.15,0.28,0.15s0.02,0.17,0.08,0.21c0.07,0.03,0.25,0.06,0.3,0.02c0.06-0.04,0.07-0.2,0.07-0.2l0.25-0.01
	c0,0,0.12,0.22,0.16,0.23c0.04,0.01,0.35,0.02,0.41-0.01c0.06-0.03,0.09-0.21,0.09-0.21L7.19,51c0,0,0.08,0.19,0.16,0.22
	c0.08,0.03,0.3,0.04,0.37,0.01c0.07-0.02,0.16-0.23,0.16-0.23l1.86-0.04c0,0,0.09,0.31,0.17,0.32s0.38,0.05,0.44,0
	c0.06-0.05,0.08-0.25,0.08-0.25l0.28-0.02c0,0,0.06,0.24,0.12,0.27c0.07,0.03,0.41,0.02,0.46-0.02s0.06-0.31,0.06-0.31
	s0.29-0.12,0.39-0.24c0.09-0.12,0.28-0.39,0.29-0.57s-0.1-0.56-0.15-0.77c-0.01-0.06-0.04-0.18-0.05-0.32c0.12,0,0.5-0.02,0.5-0.02
	s0.15,0.3,0.19,0.31c0.04,0.01,0.26,0.04,0.33,0s0.1-0.25,0.1-0.25l0.31-0.03c0,0,0.01,0.22,0.08,0.26
	c0.07,0.04,0.42,0.04,0.48,0.02s0.09-0.26,0.09-0.26h1.83c0,0,0.04,0.24,0.14,0.28c0.1,0.04,0.41,0.03,0.49,0
	c0.08-0.04,0.09-0.3,0.09-0.3l0.45-0.01c0,0,0.04,0.24,0.11,0.27c0.06,0.03,0.42,0.03,0.49-0.02c0.07-0.05,0.08-0.33,0.08-0.33
	s0.42-0.01,0.5-0.12s-0.05-0.2,0.02-0.3s0.19-0.83,0.11-1.19c-0.08-0.36-0.37-0.95-0.37-0.95l-0.27-0.57c0,0-0.11-0.64-0.13-0.81
	c-0.02-0.17-0.15-0.47-0.22-0.87c-0.07-0.39-0.27-1.62-0.37-2.22s-0.32-1.75-0.49-2.23c-0.16-0.48-0.7-1.48-0.89-1.69
	c-0.28-0.3-0.44-0.42-0.44-0.42s-0.05-0.66-0.29-0.9c-0.24-0.24-0.53-0.49-0.53-0.49l-0.08-0.44c0,0,0.09-0.03,0.38-0.05
	c0.28-0.02,0.62-0.02,0.73-0.03s0.13-0.02,0.12-0.12c-0.01-0.14-0.05-0.39-0.05-0.66s-0.06-1.09-0.06-1.45s-0.03-1.03-0.02-1.27
	s0.06-0.66,0.06-0.66l0.22-1.66c0,0,0.16-1.12,0.2-1.42c0.05-0.3,0.09-0.48,0.14-0.78c0.05-0.3,0.18-0.81,0.22-1.08
	c0.04-0.27,0.08-0.67,0.08-0.91c0.01-0.23,0.03-0.77-0.05-1.13c-0.07-0.36-0.15-0.59-0.26-0.86c-0.11-0.27-0.17-0.51-0.19-0.65
	c-0.02-0.14,0.02-0.5-0.02-0.67c-0.04-0.17-0.09-0.27-0.16-0.39c-0.07-0.12-0.11-0.31-0.13-0.42s-0.18-3.1-0.22-3.61
	c-0.04-0.51-0.18-1.57-0.25-2.16s-0.46-2.26-0.56-2.69s-0.38-1.16-0.47-1.39c-0.09-0.22-0.38-0.82-0.45-0.95
	c-0.08-0.13-0.33-0.59-0.41-0.74s-0.62-0.94-0.75-1.1c-0.13-0.17-0.47-0.45-0.6-0.57c-0.13-0.12-0.46-0.33-0.57-0.39
	c-0.11-0.06-0.65-0.29-0.65-0.29l-0.09-0.49l0.23-0.38l0.23-0.19l0.41-0.72l0.15-0.45l0.17-0.29l0.18-0.52l-0.14-0.5l0.14-0.4
	l0.18-0.14l-0.64-1.45l-0.5-0.91l-0.44-0.04l-0.24-0.38L9.03,0.47l-0.1-0.12l-1.05,0.1L7.01,0.29L6.57,0.57L6.25,0.65L5.69,0.71
	L5.28,0.99L5.13,1.51L4.88,1.61l-0.1,0.22L4.6,1.72L4.52,2L4.5,2.59l0.26,0.38L4.7,4.53l0.19,0.36L4.95,5.1v0.3L4.89,5.71
	c0,0-0.06,0.61-0.07,0.7C4.82,6.5,4.86,6.64,4.91,6.7s0.17,0.13,0.25,0.12s0.29,0,0.29,0l0.2,0.48l0.11,0.37l0.16,0.66
	c0,0,0.07,0.17,0.16,0.26c0.09,0.09,0.13,0.1,0.21,0.1C6.36,8.71,6.5,8.72,6.61,8.71C6.72,8.71,6.78,8.72,6.9,8.74
	s0.37,0.26,0.37,0.26L7.25,9L7.08,9.3c0,0-0.27,0.55-0.34,0.83c-0.08,0.28-0.3,1.07-0.34,1.48s-0.05,0.77-0.03,1s0.11,0.98,0.2,1.41
	s0.18,0.81,0.25,1.13c0.07,0.32,0.21,1.11,0.21,1.11l0,0.01l-0.67,0.41c0,0-0.31-0.08-0.52-0.03c-0.17,0.04-0.34,0.21-0.4,0.19
	c-0.06-0.02-0.38-0.15-0.38-0.15l-0.43-0.42c0,0-0.2-0.17-0.39-0.18s-0.41,0.12-0.46,0.2s-0.2,0.11-0.17,0.27s0.11,0.35,0.11,0.35
	l-0.13,0.05c0,0-0.62,0.03-0.84,0.07s-1.21,0.37-1.35,0.4s-0.55,0.23-0.66,0.29s-0.27,0.25-0.22,0.52s0.21,0.3,0.21,0.3
	s-0.35,0.31-0.33,0.71c0.01,0.25,0.24,0.33,0.24,0.33L0.5,19.92c0,0-0.01,0.17,0.15,0.35c0.16,0.18,0.51,0.2,0.51,0.2
	S1.17,20.58,1.33,20.69z M9.61,37.78c0.02-0.05,0.1-0.33,0.23-0.62c0.14-0.3,0.33-0.62,0.35-0.68c0.04-0.12,0.13-0.24,0.16-0.29
	c0.03-0.05,0.07-0.04,0.14,0.02s0.55,0.8,0.64,0.94c0.09,0.14,0.46,0.67,0.46,0.67s0.03,0.32,0.14,0.75s0.2,0.5,0.39,0.64
	c0.2,0.15,0.42,0.21,0.42,0.21s0.04,0.17,0.13,0.42s0.66,1.61,0.92,2.24s0.4,0.9,0.56,1.33s0.32,0.87,0.39,1.16
	c0.07,0.29,0.23,0.94,0.23,0.94s-0.43,0.9-0.57,1.05c-0.15,0.15-0.68,0.39-0.88,0.49c-0.19,0.1-1.49,0.51-1.56,0.53
	s-0.05,0.08-0.05,0.08s-0.07-0.07-0.12-0.15c-0.05-0.07-0.56-2.35-0.65-2.75c-0.09-0.41-0.13-2.08-0.17-2.48S10.48,41,10.4,40.71
	s-0.43-0.85-0.47-0.92s0.08-0.29,0.12-0.44c0.04-0.15-0.02-0.62-0.08-0.75c-0.05-0.14-0.12-0.28-0.27-0.49
	C9.57,37.93,9.56,37.89,9.61,37.78z M6.06,19.38c0.12,0,0.33-0.07,0.48-0.13c0.15-0.05,0.29-0.17,0.29-0.17l0.06-0.17l0.66-0.16
	l0,0.01l0.09,0.4l-0.17,0.18l-0.23,0.26l-0.54,0.46c0,0-0.14-0.06-0.24-0.06S5.94,20.2,5.94,20.2l-0.27,0.26c0,0-0.2-0.07-0.59-0.12
	c-0.39-0.04-1.05-0.03-1.05-0.03l-0.94,0.14l-0.6,0.1l0.26-0.12l1.32-0.41l0.53-0.19c0,0,0.32-0.11,0.59-0.2"/>
<path id="goalie-jersey" class="st4" d="M7.05,10.43c0.06-0.22,0.12-0.38,0.21-0.49c0.08-0.1,0.2-0.41,0.2-0.41l-0.14,1.06
	c0,0,0.72-0.67,0.49-0.49c-0.23,0.19,1.12-0.84,0.86-0.66c-0.27,0.19,1.05-0.79,0.8-0.58c-0.25,0.22,0.89-0.7,0.78-0.64
	c-0.11,0.06,0.14-0.14,0.14-0.14s0.33,0.11,0.45,0.17c0.13,0.06,0.34,0.23,0.5,0.34c0.16,0.11,0.39,0.34,0.56,0.53
	c0.17,0.19,0.79,1.07,0.79,1.07s0.67,1.27,0.77,1.53c0.1,0.26,0.41,1.33,0.41,1.33l0.25,0.92l0.31,1.47l0.19,1.56l0.16,1.81
	l0.03,1.94c0,0,0.03,0.65,0.03,0.77s0.03,0.11-0.08,0.15c-0.08,0.03-0.37,0.07-0.46,0.1c-0.09,0.03-0.1-0.13-0.11-0.06
	s-0.04-0.8-0.06-1.2s0.03-1.03,0.01-1.23c-0.01-0.18-0.03-0.45-0.09-0.47s-0.11-0.01-0.17,0.07c-0.06,0.08-0.11,0.29-0.13,0.51
	c-0.02,0.23-0.09,0.49-0.09,0.81c-0.01,0.27-0.09,1.47-0.09,1.6c0,0.13-0.03,0.08-0.13,0.12c-0.1,0.05-0.35,0.1-0.66,0.16
	s-1.11,0.14-1.59,0.17s-1.05,0.03-1.35,0.05c-0.22,0.02-0.65,0.03-0.76,0.04s-0.09,0.04-0.13-0.09s-0.19-0.59-0.19-0.59l-0.08-0.21
	l0.91-0.5c0,0,1.52-0.88,1.72-1c0.2-0.12,1-0.6,1.12-0.71c0.16-0.13,0.29-0.21,0.44-0.45c0.09-0.14,0.25-0.42,0.31-0.63
	c0.06-0.21,0.11-0.66,0.12-0.88c0.01-0.21-0.07-0.65-0.09-0.86c-0.02-0.21-0.21-1.24-0.21-1.24l-0.07-0.52c0,0,0.06,0,0.13-0.05
	c0.07-0.05,0.09-0.09,0.07-0.19c-0.12-0.47-0.49-1.94-0.62-2.32c-0.15-0.46-0.33-0.8-0.33-0.8l-0.02-0.04c0,0,0.01,0.35,0.1,0.93
	c0.07,0.46,0.26,1.37,0.34,1.8c0.04,0.24,0.01,0.25-0.13,0.3c-0.42,0.15-1.69,0.68-1.69,0.68l-1.05,0.49c0,0-0.6,0.24-0.71,0.28
	c-0.11,0.04-0.21-0.23-0.18-0.12c0.04,0.11-1.37-2.99-1.37-2.99s0.34,1.15,0.65,2.05c0.23,0.69,0.58,1.5,0.62,1.59
	c0.04,0.08,0.1,0.11,0.19,0.08c0.09-0.03,0.7-0.24,0.7-0.24l0.48,0.8l-1.2,1.1l-0.78,0.68c0,0-0.29-1.14-0.42-1.64
	c-0.2-0.78-0.56-2.6-0.62-2.89s-0.21-1.31-0.26-1.76c-0.05-0.45,0.01-0.66,0.07-1.13S6.99,10.6,7.05,10.43z"/>
<path id="skin-leg-r" class="st5" d="M11.03,36.19c0,0,0.55,0.69,0.69,0.91c0.1,0.15,0.22,0.31,0.29,0.39
	c0.03,0.04,0.03,0.07,0.14,0.03c0.11-0.04,0.38-0.08,0.71-0.32s0.78-0.67,0.84-0.75s0.03-0.16,0.03-0.16s-0.07-0.43-0.07-0.51
	s0.01-0.09-0.08-0.08c-0.1,0.01-0.54,0.02-0.66,0.03c-0.12,0.01-0.41,0.02-0.48,0.08s-0.06,0.29-0.12,0.35s-0.15,0.07-0.26,0.09
	s-0.25,0.03-0.42,0S11.03,36.19,11.03,36.19z"/>
<path id="goalie-sock-r" class="st3" d="M12.62,38.9c0.13,0.03,0.43-0.08,0.43-0.08s0.07-0.14,0.15-0.11
	c0.08,0.02,0.15,0.06,0.16,0.14c0.01,0.08-0.13,0.31-0.24,0.44c-0.1,0.14-0.04,0.2,0.01,0.32c0.04,0.12,0.43,1.16,0.43,1.16
	l0.81,1.89c0,0,0.57,1.53,0.69,2.01c0.06,0.24,0.19,0.73,0.25,0.8s0.38,0.1,0.45,0.19c0.07,0.09-0.07,0.17,0,0.31
	c0.07,0.14,0.49,0.57,0.62,0.55c0.13-0.02,0.37-0.19,0.5-0.31c0.13-0.13,0.24-0.31,0.25-0.39c0.01-0.08-0.09-0.25-0.09-0.25
	s-0.12-0.8-0.21-1.28c-0.09-0.48-0.24-1.25-0.31-1.72s-0.25-1.47-0.36-1.94s-0.16-0.72-0.39-1.2s-0.59-1.18-0.74-1.25
	c-0.15-0.07-0.16-0.03-0.28-0.06c-0.12-0.03-0.26-0.17-0.22-0.28s0.1-0.28,0.09-0.39s-0.07-0.32-0.19-0.44s-0.27-0.26-0.36-0.24
	s-0.62,0.62-0.92,0.8c-0.24,0.15-0.7,0.29-0.91,0.37c-0.05,0.02-0.15,0.05-0.1,0.18c0.07,0.2,0.08,0.45,0.17,0.57
	S12.49,38.87,12.62,38.9z"/>
<path class="st6" d="M15,48.43c0,0,0.03-0.35-0.13-0.35c-0.16,0-0.65,0-0.68,0.06c-0.04,0.06,0.03,0.3,0.03,0.3L15,48.43L15,48.43z"
	/>
<polygon class="st6" points="9.17,50.39 9.16,50.05 8.46,50.06 8.17,50.42 8.53,50.42 "/>
<path id="goalie-sock-l" class="st6" d="M10.85,48.05c0.1-0.11,0.1-0.39,0.18-0.47s0.13-0.06,0.13-0.18
	c0.01-0.13-0.24-1.14-0.24-1.14s-0.29-1.23-0.36-1.55c-0.07-0.31-0.09-0.89-0.1-1.14c-0.01-0.25-0.05-0.84-0.09-1.19
	c-0.04-0.35-0.24-1.29-0.36-1.56c-0.12-0.26-0.24-0.61-0.45-0.66c-0.2-0.05-0.46-0.06-0.6-0.08c-0.14-0.02-0.08-0.18-0.09-0.28
	c-0.01-0.1,0.09-0.07,0.23-0.14c0.15-0.07,0.35-0.08,0.42-0.16c0.07-0.08,0.12-0.32,0.09-0.47s-0.06-0.32-0.15-0.49
	s-0.16-0.34-0.27-0.33c-0.11,0.01-0.73,0.13-1.08,0.22c-0.35,0.09-1.07,0.29-1.14,0.42s-0.1,0.45-0.12,0.6
	c-0.03,0.15,0.07,0.68,0.19,0.74s0.31-0.04,0.37,0.06c0.05,0.11,0.03,0.18-0.06,0.32c-0.09,0.13-0.17,0.03-0.19,0.13
	s0,0.45,0.06,0.67c0.07,0.21,0.68,2.16,0.81,2.66c0.13,0.5,0.84,3.03,0.94,3.08c0.1,0.04,0.42,0.11,0.44,0.17s0.07,0.66,0.14,0.78
	s0.48,0.38,0.66,0.36S10.75,48.17,10.85,48.05z"/>
<path id="skin-leg-l" class="st5" d="M9.18,37.65c0.02-0.08,0.04-0.2,0.08-0.32c0.05-0.19,0.58-1.13,0.6-1.22
	s-0.01-0.41-0.04-0.43s-0.45,0.34-0.52,0.37s-1.51-0.18-1.85-0.23s-0.91-0.21-0.96-0.19s-0.13,0.44-0.15,0.59
	c-0.02,0.15-0.05,0.51,0,0.82c0.04,0.31,0.41,1.1,0.46,1.19s0.07,0.12,0.18,0.08s0.74-0.23,1.12-0.33c0.31-0.08,0.57-0.14,0.81-0.19
	C9.11,37.75,9.17,37.71,9.18,37.65z"/>
<path class="st1" d="M7.21,36.89c0.04-0.1-0.12-0.41-0.18-0.46c-0.05-0.05-0.2-0.14-0.24-0.11s-0.07,0.59-0.05,0.64
	s0.07,0.12,0.17,0.11C7.03,37.07,7.21,36.89,7.21,36.89S7.18,36.99,7.21,36.89z"/>
<path id="goalie-shorts-l" class="st1" d="M14.52,29.16c0.07,0.03-0.27,0.58-0.35,0.75s-0.27,0.52-0.46,0.98
	c-0.19,0.46-0.61,1.54-0.75,1.9s-0.91,2.7-0.91,2.7s-0.07,0.2-0.11,0.27s-0.14,0.05-0.14,0.05s-1.29-0.13-1.42-0.14
	s-0.12-0.02-0.13-0.11c-0.01-0.09-0.01-0.57-0.08-0.62s-0.13-0.03-0.22,0.03c-0.07,0.05-0.53,0.5-0.59,0.56
	C9.3,35.58,9.31,35.6,9.2,35.57c-0.11-0.02-1.13-0.11-1.59-0.2c-1.08-0.2-1.33-0.27-1.49-0.34C5.97,34.97,6,34.97,6.05,34.72
	c0.02-0.11,0.21-1.05,0.3-1.48S7,30.3,7.14,29.79s0.44-1.51,0.54-1.85s0.23-0.81,0.33-1.17s0.38-1.16,0.49-1.48s0.36-0.96,0.4-1.1
	s0.16-0.34,0.29-0.36s0.53-0.04,0.6-0.09s0.13-0.23,0.05-0.28s-0.24-0.06-0.38-0.05s-0.46,0.05-0.52,0S8.9,23.16,8.9,23.04
	s-0.02-0.2,0.09-0.21s0.54-0.02,0.54-0.02l1.12-0.03l2.19-0.22l1.31-0.16c0,0,0.83-0.21,0.9-0.19c0.07,0.01,0.15,0.14,0.17,0.31
	c0.02,0.17,0,0.19-0.08,0.3c-0.08,0.11-0.88,0.18-1,0.23c-0.11,0.05-0.19,0.03-0.18,0.11s0.11,0.29,0.23,0.32s0.64,0.08,0.64,0.08
	s0.42,0,0.51,0.14s0.29,0.71,0.35,0.99s0.08,0.8,0.04,1.18c-0.04,0.38-0.16,0.89-0.27,1.35s-0.49,0.96-0.73,1.2s-1.21,0.56-1.3,0.62
	c-0.09,0.06-0.22,0.52-0.16,0.56s0.53-0.19,0.67-0.23C14.08,29.32,14.45,29.12,14.52,29.16z"/>
<path id="goalie-shorts-r" class="st1" d="M15.3,28.9l-0.3,2.06c0,0-0.13,0.83-0.14,1.17s0.01,1.13,0.03,1.48
	s0.05,1.27,0.06,1.45s0.01,0.18-0.11,0.2s-0.53,0.02-0.94,0.03s-0.78,0.04-0.94,0.06c-0.16,0.02-0.38,0.02-0.38,0.02
	s0.36-1.29,0.52-1.69s0.45-1.19,0.56-1.48s0.22-0.46,0.35-0.8s0.37-0.77,0.59-1.22S15.3,28.9,15.3,28.9z"/>
<path class="st1" d="M11.55,25.34c0.07-0.07,0.19-0.25,0.31-0.34c0.12-0.1,0.68-0.22,0.79-0.26s-0.08-0.31-0.19-0.33
	s-0.87,0.08-0.96,0.15s-0.52,0.84-0.64,0.99s-1.19,1.18-1.18,1.24c0.01,0.06,0.83-0.34,0.91-0.38s0.21-0.06,0.31-0.12
	C11,26.21,11.48,25.41,11.55,25.34z"/>
<path id="skin-face" class="st2" d="M5.06,3.51c0,0,0-0.23,0.06-0.24c0.06,0,0.62-0.06,0.62-0.06s0.33,0.01,0.44,0.04
	s0.52,0.2,0.52,0.2s0.26,0,0.3,0.02c0.04,0.02,0.16,0.11,0.16,0.11s0.38,0.37,0.65,0.61S8.82,5.08,8.9,5.06s0.29-0.49,0.36-0.47
	s0.2,0.31,0.2,0.39c0,0.09-0.13,0.1-0.12,0.16c0.01,0.05,0.1,0.21,0.18,0.26c0.08,0.05,0.1,0.01,0.14-0.02
	c0.04-0.03,0.27-0.71,0.34-0.61s-0.3,0.88-0.3,0.88l-0.24,0.2l0.17,0.15l0.02,0.14L9.66,6.5l0.12,0.71l0.14,0.79L8.84,8.85
	L7.86,9.56L7.74,8.92L7.6,8.75L7.27,8.48c0,0,0.97-0.72,1.04-0.85c0.07-0.12,0.14-0.23,0.19-0.31s0.16-0.27,0.1-0.29
	S8.4,6.98,8.34,7.05c-0.11,0.14-0.11,0.19-0.2,0.33S7.2,8.1,7.04,8.18C6.87,8.25,6.61,8.32,6.53,8.3c-0.08-0.02-0.12-0.05-0.2-0.08
	C6.26,8.19,6.18,7.79,6.18,7.79L6.14,7.51l0.08-0.09c0,0,0.13-0.11,0.12-0.16c-0.01-0.04-0.06-0.1-0.06-0.1L6.08,7.1
	c0,0-0.23-0.17-0.16-0.25S6.26,6.67,6.3,6.64S6.28,6.5,6.28,6.5L5.87,6.33c0,0-0.32,0.05-0.4,0.07c-0.08,0.02-0.18,0-0.22-0.03
	S5.2,6.24,5.2,6.19c0-0.06,0.13-1.15,0.13-1.15L5.31,4.78l0.27-0.07l0.12,0.14c0,0,0.04,0.28,0.17,0.3s0.32,0.03,0.4-0.08
	s0.02-0.42,0.02-0.42s0.14-0.19,0.21-0.2S6.69,4.5,6.76,4.5s0.09-0.06,0.09-0.06s-0.12-0.08-0.21-0.1C6.56,4.32,6.22,4.3,6.16,4.32
	S5.58,4.41,5.58,4.41S5.22,4.49,5.16,4.46C5.09,4.44,5.02,4.27,5.02,4.27L5.06,3.51z"/>
<polygon id="skin-arm-r" class="st5" points="7.23,17.18 7.47,18.19 7.5,18.34 6.99,18.45 6.9,17.97 6.77,17.33 6.67,17 7.11,16.76 
	"/>
<path id="skin-arm-l" class="st5" d="M7.24,20.92l0.43,0.71c0,0,1.46-0.82,2.63-1.54c1.08-0.66,1.61-0.98,1.85-1.19
	c0.1-0.09,0.35-0.31,0.45-0.47c0.1-0.16,0.35-0.74,0.3-1.23s-0.14-0.99-0.22-1.4s-0.16-0.91-0.16-0.91l-1.5,0.59l-0.89,0.45
	c0,0-0.11,0.08-0.15,0.13c-0.04,0.05,0.38,0.67,0.43,0.67c0.06-0.01,0.16-0.24,0.23-0.28c0.07-0.04,0.23-0.1,0.3-0.06
	c0.08,0.04,0.12,0.16,0.09,0.22c-0.03,0.06-0.84,0.82-0.84,0.82l-3.28,2.9L7.24,20.92z"/>
<path class="st6" d="M4.25,17.4c0,0-0.02,0.14-0.14,0.15C4,17.56,3.78,17.3,3.66,17.3s-0.54,0.01-0.9,0.1s-1.31,0.43-1.31,0.43
	l-0.38,0.13c0,0-0.18,0.17-0.16,0.29s0.17,0.11,0.17,0.11l0.44-0.06l0.58-0.1l0.37-0.08l-0.01,0.15L1.52,18.6L0.9,18.85
	c0,0-0.21,0.11-0.19,0.3c0.02,0.18,0.2,0.21,0.2,0.21l0.69-0.21l0.36-0.12l0.43-0.13l0,0.18l-1.42,0.65c0,0-0.16,0.17-0.12,0.31
	s0.25,0.13,0.25,0.13l1.39-0.63l0.08,0.08l-1.03,0.61c0,0-0.05,0.12,0.04,0.21s0.24,0.05,0.24,0.05l1.26-0.54l0.95-0.3l0.94-0.33
	l0.6-0.27l0-0.33l0.22-0.05l0.06,0.28l0.17,0.03l0.35-0.09l0.23-0.21l-0.3-1.37L6.2,16.99L6,16.96L5.8,17.02L5.69,17.3L5.32,17.2
	l-0.45-0.27l-0.5-0.49c0,0-0.13-0.1-0.24-0.02s-0.17,0.07-0.19,0.19s0.17,0.49,0.17,0.49L4.25,17.4z"/>
<path class="st3" d="M7.31,21.69c0.13,0.2,0.25,0.35,0.27,0.42s0.02,0.11-0.06,0.17s-0.24,0.18-0.35,0.21s-0.11,0-0.17-0.05
	s-0.13-0.14-0.2-0.16s-0.16-0.01-0.21,0.03s0.15,0.2,0.12,0.25s-0.52,0.33-0.72,0.42s-0.67,0.32-0.86,0.39S4.1,23.78,4.1,23.78
	l-0.57,0.21l-0.36,0.16c0,0-0.1,0.04-0.19-0.12s0.06-0.28,0.06-0.28l0.87-0.5l-0.05-0.14l-2.19,0.75c0,0-0.26,0.04-0.39-0.17
	c-0.11-0.19,0.06-0.33,0.06-0.33l2.18-0.9l-0.05-0.14l-2.16,0.53c0,0-0.25-0.06-0.3-0.28s0.21-0.37,0.21-0.37l2.12-0.65l0-0.15
	l-1.49,0.07c0,0-0.26-0.04-0.25-0.2c0.01-0.17,0.24-0.23,0.24-0.23s1.82-0.35,2.02-0.37s0.82-0.01,1-0.01
	c0.18,0,0.65,0.06,0.73,0.09s0.2,0.28,0.25,0.28c0.05,0.01,0.11-0.03,0.14-0.07s-0.05-0.21-0.04-0.25s0.11-0.2,0.21-0.24
	s0.35-0.13,0.39-0.09s0.17,0.31,0.33,0.62C7.04,21.3,7.19,21.48,7.31,21.69z"/>
<path class="st1" d="M3.8,21.24c0.03-0.06,0.21-0.15,0.31-0.1s0.09,0.18,0.1,0.31s-0.21,0.12-0.3,0.1S3.77,21.3,3.8,21.24z"/>
<path class="st1" d="M4.01,22.36c-0.05-0.01-0.05-0.1-0.05-0.15c0-0.06,0-0.24,0.1-0.2s0.14,0.21,0.1,0.3
	C4.13,22.4,4.01,22.36,4.01,22.36S4.06,22.37,4.01,22.36z"/>
<path id="hair" class="st0" d="M10.33,6.52l-0.12,0.2l-0.07,0.02l-0.09-0.49l0.08-0.25L9.98,5.84l0.24-0.55c0,0,0.15-0.52,0.12-0.71
	c-0.03-0.19-0.4-0.18-0.62,0c-0.03-0.03-0.23-0.4-0.36-0.4c-0.24,0-0.39,0.42-0.49,0.43c-0.1,0-0.95-0.77-0.95-0.77L7.2,3.21
	L6.8,3.16L6.32,2.97L5.91,2.91L5.45,2.94L5.13,2.99L4.76,2.54l0.01-0.37l0.13,0.06l0.15-0.35l0.32-0.12l0.14-0.47L5.9,1.04l0.5-0.05
	l0.29-0.07l0.4-0.25L7.88,0.8l0.89-0.09l0.09,0.11l1.03,0.31l0.29,0.38l0.4,0.04l0.41,0.73l0.58,1.22l-0.16,0.12l-0.15,0.49
	l0.13,0.45L11.2,5.03L11.04,5.3L10.91,5.7l-0.37,0.65L10.33,6.52z"/>
</svg>
