<?xml version="1.0" encoding="utf-8"?>
<!-- Generator: Adobe Illustrator 16.0.4, SVG Export Plug-In . SVG Version: 6.00 Build 0)  -->
<!DOCTYPE svg PUBLIC "-//W3C//DTD SVG 1.1//EN" "http://www.w3.org/Graphics/SVG/1.1/DTD/svg11.dtd">
<svg version="1.1" id="Ebene_1" xmlns="http://www.w3.org/2000/svg" xmlns:xlink="http://www.w3.org/1999/xlink" x="0px" y="0px"
	 width="19.327px" height="53.083px" viewBox="0 0 19.327 53.083" enable-background="new 0 0 19.327 53.083" xml:space="preserve">
<path fill="#1A1A18" d="M18.564,16.595c-0.074-0.35-0.41-1.216-0.512-1.491s-0.254-0.571-0.254-0.571s0.088-0.047,0.147-0.096
	s0.09-0.104,0.032-0.211c-0.109-0.206-0.161-0.346-0.398-0.709c-0.297-0.453-0.527-0.811-0.828-1.281
	c-0.302-0.47-0.848-1.112-1.094-1.422c-0.246-0.309-0.859-0.797-1.109-1c-0.328-0.266-0.755-0.479-1.062-0.609
	c-0.406-0.172-0.807-0.268-1.078-0.344c-0.391-0.109-0.639-0.175-0.734-0.234c-0.096-0.059-0.438-0.25-0.438-0.25h-0.008
	c0.069-0.12,0.141-0.254,0.211-0.406c0.186-0.406,0.359-0.609,0.359-0.609s0.269-0.203,0.359-0.297
	c0.156-0.162,0.132-0.53,0.188-0.688C12.4,6.22,12.36,5.913,12.36,5.772c0-0.101-0.136-0.184-0.136-0.184s0.146-0.529,0.232-0.947
	c0.086-0.418,0.102-0.688,0.11-1.059c0.009-0.369-0.179-1.074-0.499-1.455c-0.147-0.197-0.307-0.363-0.602-0.51
	c-0.128-0.063-0.496-0.234-0.669-0.283c-0.009-0.047-0.188-0.253-0.484-0.438c-0.306-0.19-1.039-0.215-1.391,0.016
	C8.545,1.162,8.454,1.397,8.454,1.397S7.597,1.856,7.282,2.304c-0.145,0.205-0.38,0.531-0.438,1.062
	C6.792,3.843,6.829,4.397,7.063,5.21l0.062,0.484c0,0-0.108-0.003-0.172,0.156C6.889,6.01,6.861,6.151,6.908,6.329
	S7.075,7.04,7.251,7.183c0.175,0.144,0.328,0.25,0.328,0.25S7.763,7.81,7.986,8.167c0.038,0.062,0.061,0.107,0.09,0.159L7.814,8.423
	C7.595,8.548,7.392,8.657,7.095,8.751C6.889,8.815,6.298,9.017,5.908,9.157c-0.277,0.1-0.704,0.297-1.157,0.625
	c-0.326,0.235-0.859,0.703-1.203,1.078c-0.25,0.272-0.578,0.67-0.906,1.125c-0.255,0.354-1,1.562-1,1.562s-0.258,0.461-0.334,0.604
	c-0.077,0.143-0.083,0.237-0.028,0.279c0.055,0.043,0.221,0.164,0.221,0.164s-0.141,0.274-0.297,0.672
	c-0.157,0.398-0.364,0.908-0.438,1.219s-0.107,0.501-0.094,0.797s0.054,0.501,0.109,0.703c0.057,0.203,0.156,0.295,0.281,0.453
	c0.126,0.157,0.274,0.217,0.547,0.312s0.445,0.014,0.766-0.047c0.465-0.089,1.723-0.511,2.156-0.641
	c0.433-0.129,0.938-0.266,0.938-0.266s0.055,0.58,0.078,0.891C5.57,19,5.6,20.213,5.626,20.595c0.047,0.688-0.026,1.356-0.016,1.547
	c0.01,0.189,0.076,0.346,0.049,0.391c-0.027,0.043-0.129,0.195-0.191,0.396c-0.062,0.199,0.031,0.402,0.01,0.502
	c-0.024,0.1-0.195,0.207-0.297,0.453c-0.102,0.246-0.25,0.971-0.282,1.375c-0.033,0.402-0.183,2.168-0.21,2.756
	s-0.134,2.174-0.149,2.602s-0.07,1.363-0.084,1.896c-0.013,0.533-0.041,1.117-0.041,1.338s-0.041,0.766-0.027,1.045
	c0.007,0.133,0.162,0.154,0.162,0.154l0.824,0.08c0,0,0.041,0.438,0.062,0.857c0.02,0.422,0.009,1.223,0.009,1.223
	s-0.203,0.383-0.239,0.6c-0.037,0.217,0.114,0.746,0.101,0.9s-0.078,0.891-0.101,1.244c-0.023,0.352,0.009,0.721,0.021,1.006
	c0.012,0.287,0.039,0.852,0.08,1.18c0.041,0.326,0.149,0.754,0.246,1.15c0.096,0.396,0.256,1.078,0.312,1.422
	c0.057,0.342,0.139,0.842,0.193,1.268s0.093,0.848,0.107,0.998c0.016,0.15,0.012,0.684,0.012,0.684s-0.068,0.291-0.08,0.4
	s-0.024,0.307-0.024,0.307s-0.122,0.4-0.149,0.602c-0.029,0.201-0.051,0.891-0.033,1.016s0.062,0.248,0.081,0.342
	c0.019,0.092,0.024,0.467,0.035,0.588c0.011,0.123,0.071,0.326,0.191,0.51c0.121,0.186,0.452,0.525,0.704,0.629
	c0.252,0.1,0.828,0.283,0.979,0.281c0.148-0.004,0.34-0.047,0.457-0.105c0.117-0.061,0.133-0.137,0.221-0.281
	c0.088-0.146,0.162-0.43,0.16-0.744c-0.004-0.314-0.184-1.773-0.238-2.035c-0.054-0.264-0.139-0.713-0.09-0.906
	c0.05-0.195,0.357-0.756,0.367-0.916c0.012-0.16-0.066-0.176-0.137-0.227c-0.071-0.053-0.202-0.01-0.202-0.01
	s-0.02-0.484,0.021-0.91c0.042-0.426,0.206-1.5,0.274-2.191c0.068-0.689,0.023-1.893,0.023-1.893l-0.061-0.941l-0.159-1.93
	c0,0-0.095-0.396-0.05-0.469c0.043-0.072,0.162-0.303,0.184-0.416s0.048-0.373,0.035-0.525s-0.041-0.352-0.068-0.432
	c-0.028-0.082,0.098-0.348,0.199-0.729c0.102-0.383,0.375-1.41,0.375-1.41s0.177-0.01,0.26-0.014
	c0.109-0.004,0.113-0.066,0.113-0.066l0.064-0.156l0.072,0.133c0,0,0.024,0.064,0.105,0.09c0.083,0.027,0.303,0.012,0.303,0.012
	l0.314,1.367l0.206,0.773c0,0-0.04,0.232-0.057,0.387c-0.017,0.156-0.035,0.434,0.024,0.57c0.059,0.137,0.118,0.191,0.141,0.371
	c0.027,0.221-0.187,2.562-0.219,3.043c-0.033,0.482-0.043,1.586,0.014,2.191c0.055,0.607,0.273,1.939,0.301,2.234
	s-0.004,0.91-0.004,0.91s-0.135-0.057-0.203,0.01c-0.066,0.066-0.137,0.094-0.136,0.227s0.366,0.916,0.366,0.916
	s-0.073,0.654-0.09,0.906c-0.016,0.252-0.252,1.865-0.236,2.035c0.016,0.172,0.097,0.611,0.159,0.744
	c0.062,0.133,0.079,0.178,0.22,0.281c0.143,0.102,0.186,0.092,0.459,0.105c0.272,0.01,0.655-0.105,0.977-0.281
	c0.322-0.178,0.594-0.459,0.705-0.629c0.109-0.166,0.149-0.322,0.191-0.51c0.041-0.186,0.014-0.475,0.035-0.588
	c0.021-0.113,0.06-0.217,0.081-0.342c0.021-0.125-0.019-0.791-0.032-1.016c-0.016-0.227-0.135-0.49-0.15-0.602
	c-0.016-0.109-0.006-0.166-0.024-0.307s-0.074-0.293-0.081-0.4c-0.006-0.107-0.025-0.363,0.012-0.684s0.183-1.713,0.302-2.266
	c0.119-0.555,0.479-2.15,0.56-2.572c0.08-0.424,0.119-1.701,0.1-2.186c-0.02-0.486-0.071-1.191-0.1-1.244
	c-0.029-0.051,0.133-0.516,0.1-0.9c-0.033-0.387-0.213-0.52-0.24-0.6c-0.025-0.08-0.023-0.893,0.01-1.223
	c0.033-0.328,0.141-0.943,0.141-0.943s0.574-0.033,0.781-0.061c0.11-0.014,0.157-0.029,0.154-0.146
	c-0.004-0.117-0.044-0.645-0.044-0.645l-0.15-3.229c0,0-0.083-1.949-0.124-2.641c-0.036-0.619-0.059-1.109-0.109-1.514
	s-0.068-0.896-0.137-1.324c-0.068-0.426-0.179-1.129-0.26-1.469c-0.082-0.342-0.246-0.604-0.246-0.604s0.045-0.309,0.022-0.559
	s-0.125-0.369-0.146-0.426c-0.021-0.057-0.007-0.158-0.004-0.309c0.004-0.221-0.062-0.597-0.048-0.979s0.008-0.99,0.047-1.594
	c0.047-0.734,0.109-1.703,0.109-1.703s0.885,0.262,1.516,0.453c0.629,0.191,1.174,0.314,1.594,0.422
	c0.24,0.062,0.676,0.054,0.922-0.047c0.18-0.074,0.387-0.25,0.484-0.359c0.228-0.261,0.309-0.541,0.335-0.868
	C18.674,17.117,18.636,16.943,18.564,16.595z"/>
<path id="skin-arm-l" fill="#F9CAA9" d="M5.204,15.845c0,0-1.067,0.255-1.127,0.303c-0.06,0.048-0.385,0.402-0.421,0.452
	c-0.036,0.052-0.135,0.097-0.215,0.089c-0.081-0.008-0.144-0.069-0.135-0.125c0.008-0.058,0.123-0.191,0.234-0.372
	c0.062-0.101,0.267-0.419,0.267-0.419s-0.214-0.092-0.419-0.21c-0.206-0.117-0.729-0.355-0.98-0.501
	c-0.252-0.146-0.586-0.314-0.586-0.314s-0.23,0.501-0.372,0.857c-0.142,0.355-0.306,0.84-0.4,1.2
	c-0.064,0.25-0.065,0.617,0.014,0.857c0.081,0.238,0.112,0.365,0.212,0.471c0.1,0.106,0.195,0.203,0.359,0.258
	c0.165,0.054,0.328,0.048,0.493,0.014c0.166-0.033,0.607-0.1,1.125-0.272c0.519-0.173,2.187-0.709,2.187-0.709
	s-0.016-0.312-0.062-0.797S5.204,15.845,5.204,15.845z"/>
<path id="player-shirt" fill="#0068B4" d="M17.017,13.376c-0.211-0.35-0.529-0.832-0.734-1.125c-0.207-0.293-0.579-0.82-0.844-1.141
	c-0.266-0.319-0.812-0.812-1.188-1.094c-0.368-0.275-0.859-0.531-1.266-0.672c-0.384-0.133-1.203-0.328-1.203-0.328
	s-0.242-0.055-0.328-0.125c-0.088-0.069-0.189-0.098-0.25-0.109c-0.061-0.011-0.969,0.078-1.5,0.078
	c-0.656,0-0.861-0.078-1.156-0.094C8.253,8.752,8.064,8.704,8.064,8.704l-0.249,0.12c0,0-0.323,0.175-0.499,0.207
	C7.138,9.064,6.58,9.282,6.048,9.47c-0.322,0.113-0.672,0.266-1.094,0.562c-0.322,0.227-0.848,0.678-1.141,1.031
	c-0.292,0.354-0.727,0.875-0.938,1.188c-0.21,0.312-0.464,0.688-0.674,1.044c-0.154,0.262-0.371,0.695-0.428,0.783
	c-0.056,0.089-0.027,0.103,0.041,0.154c0.067,0.052,0.215,0.163,0.566,0.343c0.35,0.18,0.932,0.489,1.236,0.643
	c0.305,0.153,0.502,0.271,0.61,0.342C4.335,15.633,4.4,15.592,4.4,15.592l0.608-0.149c0,0,0.429-0.547,0.534-0.72
	c0.104-0.175,0.331-0.372,0.422-0.368c0.092,0.003,0.227,0.115,0.221,0.235s-0.572,0.837-0.59,0.958
	c-0.02,0.12,0.053,0.27,0.078,0.5c0.031,0.281,0.094,0.538,0.125,0.797c0.062,0.521,0.086,1.296,0.141,2.031
	c0.055,0.734,0.029,2.057,0.057,2.438s-0.039,0.675-0.023,0.799s0.029,0.117,0.18,0.172c0.151,0.056,0.945,0.144,1.479,0.218
	c0.533,0.072,1.342,0.131,1.629,0.131s0.506,0,1.026-0.043c0.521-0.045,1.368-0.119,1.78-0.177c0.41-0.06,0.881-0.103,1.021-0.133
	c0.141-0.029,0.191-0.073,0.195-0.205c0.005-0.133-0.057-0.604-0.037-1.012c0.021-0.467,0.078-2.422,0.115-2.86
	c0.035-0.438,0.082-1.234,0.125-1.656c0.042-0.424,0.109-0.856,0.078-0.984c-0.033-0.129-0.448-0.816-0.48-0.945
	c-0.033-0.129,0.072-0.283,0.205-0.264c0.131,0.018,0.293,0.23,0.396,0.352c0.105,0.122,0.492,0.664,0.584,0.739
	c0.055,0.045,0.531,0.184,0.594,0.188s0.401-0.209,0.684-0.367c0.283-0.158,1.225-0.636,1.41-0.735
	c0.132-0.07,0.369-0.202,0.479-0.299c0.092-0.08-0.017-0.245,0.023-0.162C17.5,14.151,17.226,13.725,17.017,13.376z"/>
<path id="skin-leg-l" fill-rule="evenodd" clip-rule="evenodd" fill="#F9CAA9" d="M8.466,36.351
	c-0.11,0.367-0.282,0.881-0.282,0.881S7.767,37.16,7.548,37.13s-0.424-0.045-0.739-0.045c-0.314,0-0.94-0.012-0.94-0.012
	L5.796,35.16c0,0,0.63,0.021,1.013,0.047c0.384,0.027,0.524,0.002,0.905,0.029c0.382,0.027,0.975,0.023,0.975,0.023
	S8.575,35.984,8.466,36.351z"/>
<path id="player-sock-l" fill-rule="evenodd" clip-rule="evenodd" fill="#0068B4" d="M8.275,41.32
	c-0.043-0.588-0.097-1.443-0.131-1.846c-0.035-0.402-0.125-0.707-0.086-0.82c0.038-0.111,0.154-0.164,0.205-0.352
	c0.053-0.188,0.033-0.5-0.039-0.557c-0.073-0.057-0.258-0.125-0.439-0.156c-0.182-0.033-0.463-0.094-0.705-0.1
	c-0.243-0.006-1.163-0.025-1.236,0.021c-0.074,0.045-0.124,0.104-0.16,0.191c-0.037,0.088-0.069,0.188-0.061,0.301
	c0.01,0.111,0.064,0.377,0.154,0.443c0.088,0.064,0.258,0,0.385,0.018c0.128,0.018,0.301-0.004,0.36,0.004
	c0.109,0.014,0.172,0.049,0.15,0.146s-0.134,0.158-0.231,0.16c-0.097,0.002-0.658,0.031-0.686,0.09s-0.139,0.82-0.15,1.25
	s0.055,1.559,0.137,2.117s0.465,1.896,0.589,2.689c0.123,0.795,0.253,2.502,0.29,2.553c0.038,0.051,0.104,0.021,0.16-0.031
	c0.056-0.051-0.026-0.236,0.049-0.32c0.076-0.084,0.164-0.105,0.336-0.098c0.17,0.008,0.268,0.055,0.393,0.131
	c0.127,0.074,0.096,0.252,0.16,0.311c0.062,0.059,0.164,0.086,0.229,0.043s0.019-0.615,0.069-1.234
	c0.052-0.617,0.243-1.354,0.299-2.309C8.371,43.011,8.316,41.908,8.275,41.32z"/>
<path fill-rule="evenodd" clip-rule="evenodd" fill="#1A1A18" d="M7.218,36.126c-0.135-0.025-0.618,0.135-0.67,0.105
	c-0.054-0.027-0.07-0.066-0.021-0.143c0.05-0.076,0.475-0.342,0.652-0.326c0.178,0.014,0.51,0.174,0.576,0.279
	c0.066,0.102,0.133,0.279,0.037,0.287c-0.093,0.006-0.179,0.076-0.266,0.041C7.439,36.335,7.353,36.15,7.218,36.126z"/>
<path fill-rule="evenodd" clip-rule="evenodd" fill="#FFFFFF" d="M6.878,51.201c0.073-0.057,0.15-0.059,0.232,0.014
	c0.082,0.074,0.082,0.146,0.055,0.236c-0.027,0.088-0.205,0.146-0.164,0.189c0.041,0.045,0.273,0.162,0.479,0.221
	c0.103,0.029,0.292,0.088,0.465,0.059c0.174-0.027,0.211-0.008,0.331-0.143c0.121-0.137,0.135-0.371,0.135-0.592
	s-0.036-0.541-0.038-0.572s-0.029-0.119-0.098-0.164c-0.07-0.043-0.157-0.078-0.157-0.078l-1.773,0.139c0,0-0.055,0.131-0.041,0.25
	c0.014,0.117,0.055,0.338,0.123,0.426s0.246,0.221,0.301,0.266C6.782,51.494,6.804,51.253,6.878,51.201z"/>
<path fill-rule="evenodd" clip-rule="evenodd" fill="#1A1A18" d="M7.281,50.933c-0.033-0.072-0.189-0.096-0.27-0.084
	c-0.078,0.012-0.328,0.039-0.299,0.105c0.029,0.068,0.207,0.127,0.316,0.098S7.316,51.007,7.281,50.933z"/>
<path fill-rule="evenodd" clip-rule="evenodd" fill="#1A1A18" d="M7.132,50.689c0.02-0.062-0.16-0.096-0.27-0.086
	c-0.108,0.008-0.211,0.016-0.2,0.07c0.01,0.057,0.119,0.098,0.271,0.084C7.083,50.744,7.113,50.751,7.132,50.689z"/>
<polygon fill-rule="evenodd" clip-rule="evenodd" fill="#FFFFFF" points="7.361,50.306 8.22,50.246 8.231,50.183 7.761,50.166 
	6.321,50.312 6.22,50.347 6.312,50.375 7.361,50.306 "/>
<path fill-rule="evenodd" clip-rule="evenodd" fill="#FFFFFF" d="M7.955,50.037c0.072,0.002,0.148-0.033,0.199-0.066
	c0.051-0.035,0.062-0.213-0.039-0.344c-0.043-0.057-0.113-0.252-0.225-0.309c-0.152-0.078-0.256-0.102-0.355-0.133
	c-0.171-0.053-0.562,0.02-0.705,0.018s-0.352,0.006-0.426,0.09c-0.073,0.084-0.169,0.26-0.184,0.422
	c-0.014,0.162-0.014,0.412,0.124,0.426c0.137,0.016,0.753-0.059,0.985-0.088S7.882,50.037,7.955,50.037z"/>
<path fill-rule="evenodd" clip-rule="evenodd" fill="#1A1A18" d="M7.751,49.632c0,0,0.174-0.039,0.152-0.109
	c-0.02-0.068-0.239-0.07-0.311-0.072c-0.072,0-0.203-0.053-0.199,0.07c0.004,0.121,0.223,0.092,0.236,0.164
	c0.014,0.074-0.213,0.043-0.189,0.117c0.025,0.074,0.131,0.08,0.27,0.084s0.286-0.01,0.301-0.105
	C8.027,49.685,7.751,49.632,7.751,49.632z"/>
<path id="skin-leg-r" fill-rule="evenodd" clip-rule="evenodd" fill="#F9CAA9" d="M11.062,37.232c0,0,0.483-0.111,0.805-0.129
	c0.322-0.018,0.555-0.061,0.801-0.061s0.709,0.031,0.709,0.031s0.002-0.826,0.043-1.119c0.043-0.295,0.083-0.824,0.083-0.824
	s-0.562,0.016-0.89,0.045s-0.671,0.047-1.082,0.061c-0.41,0.012-0.975,0.023-0.975,0.023s0.086,0.475,0.195,1.018
	C10.861,36.822,11.062,37.232,11.062,37.232z"/>
<path id="player-sock-r" fill-rule="evenodd" clip-rule="evenodd" fill="#0068B4" d="M10.957,41.32
	c0.041-0.396,0.099-1.531,0.145-1.846c0.047-0.314,0.114-0.721,0.088-0.82c-0.027-0.098-0.167-0.207-0.207-0.352
	c-0.039-0.143-0.018-0.514,0.041-0.557c0.057-0.043,0.231-0.125,0.438-0.156c0.207-0.033,0.477-0.078,0.705-0.1
	c0.228-0.021,1.179-0.025,1.237,0.021c0.059,0.045,0.11,0.104,0.16,0.191c0.047,0.088,0.07,0.174,0.059,0.301
	s-0.076,0.391-0.152,0.443c-0.078,0.051-0.229,0.014-0.387,0.018c-0.156,0.004-0.416-0.061-0.478-0.021s-0.068,0.104-0.034,0.172
	c0.033,0.068,0.137,0.129,0.232,0.16s0.605,0.053,0.666,0.115c0.06,0.062,0.176,1.072,0.172,1.428
	c-0.003,0.355-0.078,1.498-0.14,1.855c-0.061,0.357-0.577,2.549-0.638,3.031s-0.199,2.219-0.238,2.27
	c-0.041,0.051-0.09,0.006-0.161-0.031c-0.071-0.035,0-0.295-0.05-0.32c-0.05-0.023-0.09-0.039-0.268-0.055
	c-0.134-0.01-0.401,0.041-0.461,0.088c-0.061,0.045-0.121,0.266-0.159,0.311c-0.037,0.043-0.19,0.1-0.229,0.043
	c-0.041-0.059-0.044-0.881-0.07-1.234c-0.025-0.354-0.232-1.633-0.279-2.25S10.923,41.64,10.957,41.32z"/>
<path fill-rule="evenodd" clip-rule="evenodd" fill="#1A1A18" d="M11.72,36.371c0.141-0.006,0.146-0.221,0.307-0.244
	c0.162-0.025,0.579,0.09,0.672,0.105c0.092,0.016,0.085-0.053,0.02-0.143c-0.064-0.092-0.385-0.324-0.639-0.312
	c-0.256,0.014-0.521,0.189-0.589,0.266c-0.069,0.072-0.103,0.205-0.038,0.287C11.518,36.41,11.72,36.371,11.72,36.371
	S11.58,36.376,11.72,36.371z"/>
<polygon fill-rule="evenodd" clip-rule="evenodd" fill="#FFFFFF" points="11.886,50.306 11.025,50.246 11.015,50.183 11.484,50.166 
	12.925,50.312 13.025,50.347 12.935,50.375 11.886,50.306 "/>
<path fill-rule="evenodd" clip-rule="evenodd" fill="#1A1A18" d="M10.058,17.662c0.051-0.158-0.186-0.901-0.246-1.103
	c-0.06-0.203-0.164-1.206-0.098-1.483c0.065-0.278,0.277-1.194,0.246-1.509c-0.031-0.312-0.242-1.018-0.246-1.1
	c-0.004-0.08,0.007-0.353-0.053-0.437c-0.061-0.085-0.135-0.037-0.146,0.079c-0.011,0.115,0.026,2.205-0.013,2.425
	s-0.231,0.998-0.258,1.323c-0.027,0.322,0.119,1.521,0.155,1.729c0.036,0.21,0.134,0.581,0.174,0.667s0.16,0.094,0.237,0.024
	C9.889,18.209,10.058,17.662,10.058,17.662S10.009,17.82,10.058,17.662z"/>
<path id="player-shorts" fill="#FFFFFF" d="M14.365,31.607c-0.014-0.49-0.089-1.885-0.106-2.414
	c-0.017-0.531-0.071-1.811-0.14-2.367c-0.068-0.561-0.126-1.232-0.172-1.535c-0.047-0.303-0.199-1.096-0.246-1.207
	s-0.092-0.299-0.275-0.279c-0.183,0.021-1.251,0.209-1.456,0.152c-0.205-0.055-0.233-0.215-0.219-0.264
	c0.016-0.049,0.15-0.131,0.288-0.139c0.136-0.008,0.383-0.068,0.643-0.111c0.26-0.045,0.501-0.072,0.613-0.146
	s0.146-0.289,0.129-0.402c-0.017-0.111-0.111-0.234-0.215-0.227c-0.103,0.012-0.301,0.049-0.729,0.111s-1.551,0.193-2.139,0.238
	c-0.589,0.043-1.219,0.072-1.821,0.014s-1.501-0.17-1.757-0.195c-0.255-0.023-0.598-0.098-0.729-0.109
	c-0.082-0.006-0.197,0.129-0.225,0.275c-0.027,0.148,0.014,0.229,0.096,0.35s1.484,0.143,1.562,0.184
	c0.08,0.041,0.121,0.1,0.121,0.217c0.001,0.117-0.143,0.16-0.235,0.191c-0.093,0.029-0.227,0-0.323-0.008
	c-0.098-0.008-1.199-0.125-1.311-0.084c-0.129,0.047-0.232,0.229-0.293,0.357c-0.062,0.127-0.16,0.797-0.195,1.117
	c-0.038,0.322-0.128,1.164-0.159,1.604c-0.029,0.439-0.111,2.174-0.152,2.805c-0.031,0.484-0.103,1.793-0.12,2.301
	C4.783,32.544,4.727,34.5,4.727,34.5S4.701,34.64,4.81,34.658c0.111,0.018,0.562,0.047,1.096,0.092
	c0.533,0.043,0.862,0.059,1.355,0.072c0.492,0.016,0.848,0.029,1.273,0.029c0.284,0,0.588-0.02,0.711-0.025
	c0.123-0.004,0.127-0.094,0.127-0.094l0.039-0.441l0.066-2.459l0.002-1.027c0,0-0.023-1.891-0.061-1.957s-0.593-0.25-0.732-0.307
	c-0.14-0.055-1.064-0.387-1.123-0.441c-0.057-0.055,0.061-0.104,0.172-0.16c0.113-0.057,0.404-0.078,0.539-0.057
	c0.133,0.023,0.297,0.127,0.381,0.174s0.305,0.15,0.494,0.193c0.26,0.061,0.419,0.07,0.572,0.064
	c0.153-0.004,0.205-0.025,0.385-0.104c0.179-0.078,0.578-0.348,0.782-0.367s0.413,0.033,0.479,0.066
	c0.066,0.031,0.202,0.07,0.217,0.141c0.014,0.068-0.623,0.16-0.889,0.348s-0.471,0.271-0.584,0.326
	c-0.114,0.057-0.307,0.09-0.32,0.158c-0.013,0.07-0.055,1.838-0.055,1.838l0.042,1.293l0.057,2.258c0,0,0.021,0.238,0.022,0.373
	c0.003,0.135,0.002,0.139,0.125,0.143c0.125,0.006,0.631,0.021,1.15,0.021s1.061-0.039,1.557-0.057s1.551-0.096,1.688-0.109
	c0.137-0.012,0.117-0.041,0.109-0.262C14.474,34.027,14.378,32.097,14.365,31.607z"/>
<path id="skin-arm-r" fill="#F9CAA9" d="M13.986,15.876c0,0,1.111,0.224,1.197,0.271c0.085,0.048,0.332,0.387,0.42,0.452
	c0.089,0.065,0.109,0.097,0.215,0.089c0.107-0.008,0.135-0.122,0.107-0.199c-0.027-0.078-0.109-0.146-0.206-0.298
	c-0.065-0.103-0.231-0.393-0.231-0.393s0.24-0.146,0.506-0.295c0.314-0.176,0.626-0.34,0.903-0.471
	c0.276-0.13,0.54-0.286,0.54-0.286s0.055,0.148,0.373,0.857s0.455,1.297,0.455,1.649c0,0.2-0.03,0.611-0.281,0.879
	c-0.252,0.268-0.618,0.306-0.854,0.271c-0.233-0.033-0.699-0.144-1.123-0.272c-0.425-0.128-2.162-0.74-2.162-0.74
	s0.039-0.42,0.078-0.797C13.97,16.142,13.986,15.876,13.986,15.876z"/>
<path fill-rule="evenodd" clip-rule="evenodd" fill="#1A1A18" d="M7.652,51.037c0.033-0.072,0.189-0.096,0.269-0.084
	s0.329,0.037,0.3,0.105s-0.207,0.127-0.316,0.098S7.617,51.111,7.652,51.037z"/>
<path fill-rule="evenodd" clip-rule="evenodd" fill="#1A1A18" d="M7.705,50.689c-0.02-0.062,0.16-0.096,0.27-0.086
	c0.108,0.008,0.211,0.016,0.2,0.07c-0.011,0.057-0.12,0.098-0.271,0.084S7.724,50.751,7.705,50.689z"/>
<path fill-rule="evenodd" clip-rule="evenodd" fill="#1A1A18" d="M7.515,51.488c0.035-0.076,0.199-0.102,0.281-0.09
	c0.084,0.014,0.346,0.039,0.314,0.111c-0.029,0.07-0.217,0.133-0.332,0.102C7.666,51.58,7.479,51.562,7.515,51.488z"/>
<path fill-rule="evenodd" clip-rule="evenodd" fill="#1A1A18" d="M6.724,49.632c0,0-0.173-0.039-0.152-0.109
	c0.02-0.068,0.239-0.07,0.311-0.072c0.072,0,0.204-0.053,0.199,0.07c-0.004,0.121-0.223,0.092-0.236,0.164
	c-0.014,0.074,0.214,0.043,0.189,0.117c-0.025,0.074-0.131,0.08-0.27,0.084s-0.285-0.01-0.302-0.105
	C6.449,49.685,6.724,49.632,6.724,49.632z"/>
<path fill-rule="evenodd" clip-rule="evenodd" fill="#FFFFFF" d="M12.402,51.214c-0.074-0.055-0.15-0.059-0.232,0.016
	c-0.083,0.072-0.083,0.146-0.056,0.234s0.205,0.146,0.165,0.191c-0.041,0.043-0.273,0.162-0.479,0.221
	c-0.103,0.029-0.292,0.086-0.466,0.059c-0.173-0.029-0.21-0.008-0.331-0.145c-0.12-0.135-0.134-0.371-0.134-0.59
	c0-0.221,0.036-0.541,0.038-0.572c0.003-0.031,0.03-0.119,0.099-0.164s0.156-0.08,0.156-0.08l1.773,0.139
	c0,0,0.055,0.133,0.041,0.25c-0.013,0.117-0.055,0.338-0.123,0.428c-0.068,0.088-0.246,0.219-0.301,0.264
	S12.475,51.267,12.402,51.214z"/>
<path fill-rule="evenodd" clip-rule="evenodd" fill="#1A1A18" d="M11.998,50.949c0.034-0.072,0.189-0.096,0.27-0.084
	s0.33,0.037,0.301,0.105c-0.03,0.068-0.207,0.127-0.316,0.098C12.141,51.039,11.963,51.021,11.998,50.949z"/>
<path fill-rule="evenodd" clip-rule="evenodd" fill="#1A1A18" d="M12.148,50.703c-0.021-0.062,0.16-0.096,0.268-0.086
	c0.109,0.01,0.212,0.018,0.201,0.072c-0.01,0.055-0.119,0.098-0.27,0.084S12.167,50.765,12.148,50.703z"/>
<path fill-rule="evenodd" clip-rule="evenodd" fill="#FFFFFF" d="M11.325,50.052c-0.073,0-0.148-0.035-0.199-0.068
	c-0.052-0.035-0.062-0.213,0.039-0.344c0.043-0.055,0.112-0.25,0.224-0.307c0.152-0.08,0.258-0.102,0.355-0.133
	c0.172-0.053,0.564,0.018,0.707,0.016s0.352,0.006,0.425,0.092c0.073,0.084,0.169,0.26,0.183,0.422
	c0.014,0.16,0.014,0.41-0.123,0.426c-0.137,0.014-0.753-0.059-0.984-0.088C11.717,50.039,11.397,50.05,11.325,50.052z"/>
<path fill-rule="evenodd" clip-rule="evenodd" fill="#1A1A18" d="M11.528,49.648c0,0-0.173-0.039-0.153-0.109
	c0.021-0.07,0.24-0.072,0.312-0.072c0.072-0.002,0.204-0.053,0.2,0.068s-0.224,0.092-0.238,0.166
	c-0.013,0.072,0.215,0.041,0.189,0.115c-0.024,0.074-0.131,0.08-0.27,0.086c-0.139,0.004-0.285-0.012-0.301-0.105
	C11.251,49.701,11.528,49.648,11.528,49.648z"/>
<path fill-rule="evenodd" clip-rule="evenodd" fill="#1A1A18" d="M11.627,51.052c-0.033-0.072-0.189-0.098-0.269-0.086
	c-0.08,0.014-0.33,0.039-0.301,0.107s0.207,0.127,0.316,0.098S11.663,51.125,11.627,51.052z"/>
<path fill-rule="evenodd" clip-rule="evenodd" fill="#1A1A18" d="M11.574,50.703c0.021-0.062-0.16-0.096-0.268-0.086
	c-0.109,0.01-0.211,0.018-0.201,0.072s0.119,0.098,0.27,0.084S11.554,50.765,11.574,50.703z"/>
<path fill-rule="evenodd" clip-rule="evenodd" fill="#1A1A18" d="M11.765,51.501c-0.037-0.076-0.199-0.102-0.283-0.088
	c-0.082,0.012-0.344,0.039-0.313,0.109c0.03,0.072,0.216,0.133,0.331,0.104C11.614,51.595,11.8,51.578,11.765,51.501z"/>
<path fill-rule="evenodd" clip-rule="evenodd" fill="#1A1A18" d="M12.554,49.648c0,0,0.174-0.039,0.154-0.109
	c-0.021-0.07-0.24-0.072-0.312-0.072c-0.072-0.002-0.203-0.053-0.199,0.068s0.224,0.092,0.238,0.166
	c0.013,0.072-0.215,0.041-0.189,0.115c0.023,0.074,0.131,0.08,0.269,0.086c0.139,0.004,0.286-0.012,0.302-0.105
	C12.832,49.701,12.554,49.648,12.554,49.648z"/>
<path id="skin-face-r" fill-rule="evenodd" clip-rule="evenodd" fill="#F9CAA9" d="M10.798,8.438
	c0.203-0.323,0.49-0.879,0.582-1.045c0.121-0.219,0.184-0.288,0.26-0.334c0.076-0.045,0.279-0.155,0.337-0.333
	s0.076-0.379,0.076-0.5c0-0.122-0.246,0.351-0.308,0.439c-0.201,0.292-0.447,0.665-0.628,0.97c-0.081,0.139-0.218,0.297-0.337,0.425
	c-0.109,0.117-0.363,0.332-0.529,0.44c0,0,0.105-0.016,0.279-0.031S10.798,8.438,10.798,8.438z"/>
<path id="skin-face-l" fill-rule="evenodd" clip-rule="evenodd" fill="#F9CAA9" d="M9.189,8.517C9.003,8.361,8.56,8.001,8.347,7.741
	c-0.257-0.312-0.518-0.697-0.734-1c-0.063-0.088-0.416-0.652-0.416-0.53c0,0.121,0.034,0.308,0.092,0.485s0.26,0.287,0.337,0.333
	c0.076,0.046,0.139,0.114,0.261,0.333c0.091,0.167,0.486,0.85,0.662,1.061c0,0,0.135,0.02,0.285,0.049
	C8.986,8.501,9.189,8.517,9.189,8.517z"/>
<path id="hair" fill-rule="evenodd" clip-rule="evenodd" fill="#F7DD7F" d="M11.974,2.597c-0.123-0.248-0.475-0.65-0.965-0.82
	c-0.05-0.018-0.105-0.062-0.149-0.078c0.107,0.619,0.06,0.91-0.094,1.621c-0.031,0.146-0.014,0.234,0.03,0.527
	c0.074,0.501,0.217,1.277,0.275,1.609c0.071,0.406,0.094,0.593,0.064,1.196c-0.02,0.386-0.362,0.776-0.445,0.851
	c-0.152,0.141-0.223,0.109-0.223,0.109s-0.234,0.251-0.336,0.217C9.994,7.782,9.999,7.657,9.963,7.612
	C9.929,7.567,9.949,7.736,9.826,7.813c-0.043,0.027-0.23,0.077-0.337-0.154C9.437,7.546,9.472,7.74,9.351,7.813
	c-0.129,0.078-0.24-0.146-0.26-0.217C9.033,7.407,9.136,7.565,8.968,7.581S8.662,7.444,8.52,7.213
	C8.437,7.077,8.244,6.532,8.306,6.067c0.022-0.176,0.11-0.889,0.148-1.293C8.5,4.28,8.517,3.56,8.485,3.304
	c-0.046-0.355-0.247-0.989-0.109-1.5C7.992,1.989,7.75,2.271,7.564,2.472C7.365,2.688,7.105,3.2,7.121,3.696
	c0.015,0.494,0.076,0.99,0.184,1.408s0.117,0.712,0.117,0.712S7.82,6.312,8.095,6.792c0.156,0.271,0.439,0.629,0.674,0.867
	c0.245,0.247,0.628,0.588,0.965,0.588c0.367,0,0.73-0.328,0.812-0.418c0.408-0.447,0.462-0.607,0.814-1.197
	c0.165-0.275,0.373-0.592,0.472-0.77c0.123-0.219,0.184-0.541,0.229-0.805c0.071-0.405,0.188-0.758,0.173-1.238
	C12.219,3.34,12.097,2.845,11.974,2.597z"/>
<path id="hair-p" fill="#F7DD7F" d="M10.891,6.413c-0.026-0.35-0.062-0.844-0.141-1.188c-0.026-0.164-0.221-1.169-0.26-1.705
	c-0.017,0.006-0.03,0.012-0.053,0.018c-0.075,0.022-0.188,0.125-0.188,0.125s0.062-0.094,0.172-0.297
	c0.039-0.072,0.061-0.145,0.077-0.213c0.11-0.412,0.134-0.877,0.128-1.021c-0.028-0.793-0.331-1.096-0.993-1.109
	C9.098,1.012,8.679,1.288,8.614,2.015c-0.008,0.088-0.02,0.225,0.012,0.461c0.021,0.161,0.081,0.402,0.101,0.57
	C8.742,3.112,8.769,3.2,8.813,3.304c0.094,0.219,0.172,0.359,0.172,0.359s-0.107-0.09-0.151-0.129
	C8.832,3.541,8.796,3.532,8.758,3.521c0.001,0.57-0.074,1.637-0.133,2.094C8.625,5.616,8.365,6.69,8.875,7.21
	c0.036,0.037,0.019,0.042,0.058-0.205C8.966,6.79,9.078,6.668,9.091,6.71c0.09,0.279,0.198,0.55,0.195,0.846
	c0.002-0.188,0.131-0.64,0.18-0.873c0,0,0.301,0.848,0.258,0.939C9.883,7.28,9.895,6.97,9.927,6.678c0,0,0.378,0.621,0.25,0.948
	c0.025-0.025,0.203-0.205,0.254-0.42c0.043-0.182-0.039-0.395-0.053-0.517c0,0,0.356,0.38,0.231,0.552
	C10.798,6.982,10.915,6.719,10.891,6.413z M10.095,2.54c-0.055,0.11-0.043-0.52-0.084-0.689C9.914,1.462,9.673,1.38,9.941,1.448
	C10.193,1.513,10.392,1.941,10.095,2.54z"/>
</svg>
