<?xml version="1.0" encoding="utf-8"?>
<!-- Generator: Adobe Illustrator 16.0.4, SVG Export Plug-In . SVG Version: 6.00 Build 0)  -->
<!DOCTYPE svg PUBLIC "-//W3C//DTD SVG 1.1//EN" "http://www.w3.org/Graphics/SVG/1.1/DTD/svg11.dtd" [
	<!ENTITY ns_flows "http://ns.adobe.com/Flows/1.0/">
	<!ENTITY ns_extend "http://ns.adobe.com/Extensibility/1.0/">
	<!ENTITY ns_ai "http://ns.adobe.com/AdobeIllustrator/10.0/">
	<!ENTITY ns_graphs "http://ns.adobe.com/Graphs/1.0/">
]>
<svg version="1.1" id="Ebene_1" xmlns:x="&ns_extend;" xmlns:i="&ns_ai;" xmlns:graph="&ns_graphs;"
	 xmlns="http://www.w3.org/2000/svg" xmlns:xlink="http://www.w3.org/1999/xlink" xmlns:a="http://ns.adobe.com/AdobeSVGViewerExtensions/3.0/"
	 x="0px" y="0px" width="21.2px" height="55.2px" viewBox="0 0 21.2 55.2" style="enable-background:new 0 0 21.2 55.2;"
	 xml:space="preserve">
<style type="text/css">
<![CDATA[
	.st0{fill:#1A1A18;}
	.st1{fill-rule:evenodd;clip-rule:evenodd;fill:#1A1A18;}
	.st2{fill:#FBCDAA;}
	.st3{fill:#FFFFFF;}
	.st4{fill-rule:evenodd;clip-rule:evenodd;fill:#FBCDAA;}
	.st5{fill:#0068B4;}
	.st6{fill-rule:evenodd;clip-rule:evenodd;fill:#FFFFFF;}
	.st7{fill-rule:evenodd;clip-rule:evenodd;fill:#0068B4;}
]]>
</style>
<path class="st0" d="M0.37,16.93c0.08-0.37,0.52-1.41,0.63-1.71s0.25-0.62,0.25-0.62s-0.06-0.03-0.13-0.08s-0.1-0.11-0.04-0.22
	c0.12-0.22,0.11-0.23,0.34-0.64s0.78-1.28,1.12-1.78s0.98-1.2,1.27-1.53S4.82,9.49,5.1,9.27s0.95-0.49,1.31-0.59S7.13,8.5,7.45,8.46
	s0.66-0.07,0.77-0.14s0.43-0.25,0.43-0.25l0.04-0.43L8.56,7.5l-0.1-0.59L8.1,6.69L7.89,6.28L7.85,5.83L7.42,5.11L7.4,4.63L7.08,4.15
	l0.26-0.56L7.09,3.01l0.21-0.1l0.03-0.37l0.29-0.62l0.45-0.62l0.42-0.16l0.13-0.17l0.6,0.02l0.67-0.33l0.82-0.25l0.12,0.12
	l0.81,0.06l0.27,0.25l0.16-0.13l0.47,0.48l0.46,0.4l0.75,1.22l-0.05,0.13l-0.08,0.5l0.38,0.54l-0.35,0.29l-0.04,0.81l-0.32,0.84
	l-0.18,0.56l-0.35,0.53l-0.11,0.36l-0.18,0.09l0.03,0.31l0.03,0.25h0c0,0,0.45,0.25,0.63,0.29c0.18,0.04,0.49,0.1,0.73,0.15
	s0.86,0.16,1.18,0.26s0.78,0.28,1.16,0.52s1.02,0.89,1.29,1.19s0.73,0.86,1.11,1.34c0.29,0.38,1.16,1.76,1.16,1.76
	s0.27,0.51,0.36,0.66s0.09,0.25,0.03,0.3s-0.22,0.16-0.22,0.16s0.17,0.33,0.35,0.75c0.18,0.42,0.42,1.06,0.5,1.39s0.12,0.5,0.1,0.81
	s-0.06,0.43-0.12,0.64s-0.15,0.33-0.29,0.5c-0.14,0.17-0.35,0.31-0.66,0.41c-0.31,0.1-0.52,0.04-0.89-0.02
	c-0.53-0.09-1.79-0.54-2.29-0.67s-1.08-0.3-1.08-0.3s-0.1,0.81-0.12,1.14s-0.09,1.21-0.1,1.61s-0.04,1.53-0.05,1.74
	s-0.15,0.41-0.12,0.45s0.15,0.21,0.22,0.42c0.07,0.21-0.04,0.43-0.01,0.53c0.03,0.11,0.22,0.22,0.34,0.48
	c0.12,0.26,0.29,1.03,0.32,1.46s0.21,2.3,0.24,2.93s0.15,2.31,0.17,2.76c0.02,0.46,0.08,1.45,0.1,2.02s0.05,1.19,0.05,1.42
	s0.05,0.81,0.03,1.11c-0.01,0.14-0.18,0.16-0.18,0.16l-0.94,0.09c0,0-0.05,0.46-0.07,0.91s-0.01,1.3-0.01,1.3s0.23,0.41,0.27,0.64
	c0.04,0.23-0.13,0.79-0.12,0.96s0.09,0.95,0.12,1.32c0.03,0.38-0.01,0.77-0.02,1.07c-0.01,0.3-0.04,0.91-0.09,1.25
	s-0.17,0.8-0.28,1.22s-0.29,1.15-0.36,1.51c-0.07,0.37-0.16,0.9-0.22,1.35s-0.11,0.9-0.12,1.06c-0.02,0.16-0.01,0.73-0.01,0.73
	s0.08,0.31,0.09,0.43c0.01,0.12,0.03,0.33,0.03,0.33s0.14,0.42,0.17,0.64c0.03,0.21,0.06,0.95,0.04,1.08
	c-0.02,0.13-0.07,0.26-0.09,0.36c-0.02,0.1-0.03,0.5-0.04,0.62c-0.01,0.13-0.08,0.35-0.22,0.54c-0.14,0.2-0.52,0.56-0.8,0.67
	c-0.29,0.11-0.95,0.3-1.12,0.3c-0.17,0-0.39-0.05-0.52-0.11c-0.13-0.06-0.15-0.14-0.25-0.3c-0.1-0.15-0.19-0.46-0.18-0.79
	s0.21-1.88,0.27-2.16c0.06-0.28,0.16-0.76,0.1-0.96c-0.06-0.21-0.41-0.8-0.42-0.97c-0.01-0.17,0.07-0.19,0.16-0.24
	c0.08-0.05,0.23-0.01,0.23-0.01s0.02-0.51-0.03-0.97s-0.23-1.59-0.31-2.33s-0.03-2.01-0.03-2.01l0.07-1l0.18-2.05
	c0,0,0.11-0.42,0.06-0.5c-0.05-0.08-0.19-0.32-0.21-0.44c-0.03-0.12-0.05-0.39-0.04-0.56c0.02-0.16,0.05-0.37,0.08-0.46
	c0.03-0.09-0.11-0.37-0.23-0.77c-0.12-0.41-0.43-1.5-0.43-1.5s-0.2-0.01-0.3-0.01c-0.13,0-0.13-0.07-0.13-0.07l-0.07-0.17
	l-0.08,0.14c0,0-0.03,0.07-0.12,0.1s-0.34,0.01-0.34,0.01L9.72,38.1l-0.24,0.82c0,0,0.05,0.25,0.06,0.41
	c0.02,0.17,0.04,0.46-0.03,0.6c-0.07,0.15-0.14,0.21-0.16,0.4c-0.03,0.23,0.21,2.72,0.25,3.23s0.05,1.68-0.02,2.33
	c-0.06,0.64-0.31,2.06-0.34,2.38s0,0.97,0,0.97s0.15-0.06,0.23,0.01c0.08,0.07,0.16,0.1,0.16,0.24c0,0.14-0.42,0.97-0.42,0.97
	s0.08,0.7,0.1,0.96c0.02,0.27,0.29,1.98,0.27,2.16s-0.11,0.65-0.18,0.79c-0.07,0.14-0.09,0.19-0.25,0.3
	c-0.16,0.11-0.21,0.1-0.52,0.11c-0.31,0.01-0.75-0.11-1.12-0.3c-0.37-0.19-0.68-0.49-0.8-0.67c-0.13-0.18-0.17-0.34-0.22-0.54
	c-0.05-0.2-0.02-0.5-0.04-0.62c-0.02-0.12-0.07-0.23-0.09-0.36c-0.03-0.13,0.02-0.84,0.04-1.08c0.02-0.24,0.15-0.52,0.17-0.64
	s0.01-0.18,0.03-0.33c0.02-0.15,0.08-0.31,0.09-0.43c0.01-0.11,0.03-0.38-0.01-0.73c-0.04-0.34-0.21-1.82-0.34-2.41
	C6.2,46.1,5.79,44.41,5.7,43.96s-0.14-1.81-0.11-2.32c0.02-0.52,0.08-1.27,0.11-1.32s-0.15-0.55-0.11-0.96
	c0.04-0.41,0.24-0.55,0.27-0.64c0.03-0.08,0.03-0.95-0.01-1.3s-0.16-1-0.16-1s-0.65-0.04-0.89-0.06c-0.12-0.02-0.18-0.03-0.18-0.16
	s0.05-0.69,0.05-0.69l0.17-3.43c0,0,0.09-2.07,0.14-2.81c0.04-0.66,0.07-1.18,0.12-1.61s0.08-0.95,0.16-1.41s0.21-1.2,0.3-1.56
	c0.09-0.36,0.28-0.64,0.28-0.64s-0.05-0.33-0.03-0.59c0.03-0.27,0.14-0.39,0.17-0.45c0.03-0.06,0.01-0.17,0.01-0.33
	C5.98,22.45,6,22.12,5.98,21.71s-0.05-1.05-0.11-1.69s-0.19-1.84-0.19-1.84s-0.8,0.23-1.52,0.44s-1.57,0.42-2.05,0.53
	c-0.28,0.07-0.67,0-0.95-0.11c-0.21-0.08-0.37-0.24-0.48-0.36c-0.26-0.28-0.33-0.62-0.36-0.97S0.29,17.3,0.37,16.93z"/>
<path id="skin-arm-r" class="st2" d="M15.79,16.04c0,0,1.1,0.25,1.17,0.3s0.44,0.43,0.48,0.48s0.15,0.1,0.25,0.09
	s0.16-0.07,0.15-0.13s-0.14-0.2-0.27-0.39c-0.07-0.11-0.3-0.45-0.3-0.45s0.24-0.1,0.48-0.22s0.83-0.38,1.12-0.53
	s0.67-0.33,0.67-0.33s0.26,0.53,0.42,0.91s0.35,0.89,0.46,1.28c0.07,0.27,0.07,0.66-0.02,0.91c-0.09,0.25-0.13,0.39-0.24,0.5
	c-0.12,0.11-0.22,0.22-0.41,0.27c-0.19,0.06-0.38,0.05-0.56,0.02C19,18.7,18.5,18.63,17.9,18.44s-1.32-0.42-1.69-0.53
	c-0.5-0.14-0.61-0.17-0.61-0.17L15.79,16.04z"/>
<path id="player-jersey" class="st5" d="M2.2,13.29c0.24-0.37,0.64-1.03,0.88-1.34c0.23-0.31,0.66-0.83,0.96-1.17s1.09-1,1.29-1.15
	s1-0.52,1.23-0.58s0.52-0.12,0.85-0.17s0.87-0.1,0.87-0.1s0.28-0.08,0.38-0.16s0.17-0.08,0.24-0.09S10,8.54,10.31,8.53
	s0.93,0.01,1.27-0.01c0.34-0.02,0.8-0.05,0.8-0.05l0.28,0.13c0,0,0.4,0.13,0.61,0.17c0.2,0.04,0.35,0.04,0.68,0.09
	s0.48,0.06,0.84,0.19s0.74,0.26,1.12,0.48s1.04,0.91,1.38,1.28s0.81,0.95,1.05,1.28s0.53,0.82,0.77,1.2
	c0.18,0.28,0.42,0.74,0.49,0.83s0.03,0.11-0.04,0.16c-0.08,0.05-0.25,0.17-0.65,0.36s-1.06,0.52-1.41,0.68s-0.57,0.29-0.7,0.36
	s-0.2,0.03-0.2,0.03l-0.69-0.16c0,0-0.49-0.58-0.61-0.77s-0.38-0.4-0.48-0.39c-0.11,0-0.26,0.12-0.25,0.25s0.71,1.06,0.73,1.19
	s-0.05,0.54-0.07,0.78s-0.11,0.84-0.12,1.11s-0.04,0.75-0.1,1.53s-0.14,1.98-0.17,2.39s-0.01,0.86-0.03,0.99s-0.03,0.12-0.21,0.18
	s-1.08,0.15-1.69,0.23s-1.53,0.14-1.86,0.14s-0.58,0-1.17-0.05s-1.56-0.12-2.03-0.19s-1.01-0.11-1.17-0.14
	c-0.16-0.03-0.22-0.08-0.22-0.22c0-0.14,0.02-0.51-0.01-0.94c-0.03-0.5-0.05-1.05-0.09-1.48s-0.12-1.13-0.16-1.59
	s-0.1-1.03-0.15-1.48s-0.11-1.07-0.07-1.21s0.67-1.08,0.7-1.22s-0.08-0.3-0.23-0.28s-0.33,0.25-0.45,0.38s-0.56,0.71-0.67,0.79
	c-0.06,0.05-0.61,0.2-0.68,0.2s-0.46-0.22-0.78-0.39s-1.4-0.68-1.61-0.78c-0.15-0.07-0.42-0.21-0.55-0.32
	c-0.1-0.08,0.02-0.26-0.03-0.17C1.64,14.21,1.96,13.66,2.2,13.29z"/>
<path id="skin-leg-r" class="st4" d="M11.95,37.81c0.12,0.39,0.32,0.94,0.32,0.94s0.47-0.08,0.72-0.11s0.48-0.05,0.84-0.05
	s1.07-0.01,1.07-0.01L15,36.54c0,0-0.72,0.02-1.16,0.05c-0.44,0.03-0.6,0-1.03,0.03s-1.11,0.03-1.11,0.03S11.83,37.42,11.95,37.81z"
	/>
<path id="player-sock-r" class="st7" d="M12.17,43.09c0.05-0.62,0.11-1.53,0.15-1.96c0.04-0.43,0.14-0.75,0.1-0.87
	c-0.04-0.12-0.18-0.17-0.24-0.37s-0.04-0.53,0.05-0.59c0.08-0.06,0.29-0.13,0.5-0.17c0.21-0.03,0.53-0.1,0.8-0.11
	c0.28-0.01,1.33-0.03,1.41,0.02s0.14,0.11,0.18,0.21c0.04,0.09,0.08,0.2,0.07,0.32c-0.01,0.12-0.07,0.4-0.18,0.47s-0.29,0-0.44,0.02
	c-0.15,0.02-0.34-0.01-0.41,0c-0.12,0.02-0.2,0.05-0.17,0.16c0.03,0.1,0.15,0.17,0.26,0.17s0.75,0.03,0.78,0.1s0.16,0.87,0.17,1.33
	c0.01,0.46-0.06,1.66-0.16,2.25s-0.53,2.02-0.67,2.86s-0.29,2.66-0.33,2.71c-0.04,0.05-0.12,0.02-0.18-0.03s0.03-0.25-0.06-0.34
	c-0.09-0.09-0.19-0.11-0.38-0.1s-0.3,0.06-0.45,0.14s-0.11,0.27-0.18,0.33s-0.19,0.09-0.26,0.04c-0.08-0.04-0.02-0.65-0.08-1.31
	c-0.06-0.66-0.28-1.44-0.34-2.45S12.12,43.71,12.17,43.09z"/>
<path class="st1" d="M13.38,37.57c0.15-0.03,0.71,0.14,0.77,0.11c0.06-0.03,0.08-0.07,0.02-0.15c-0.06-0.08-0.54-0.36-0.74-0.35
	s-0.58,0.19-0.66,0.29c-0.08,0.11-0.15,0.3-0.04,0.31s0.21,0.08,0.3,0.04S13.22,37.59,13.38,37.57z"/>
<path class="st6" d="M13.77,53.59c-0.08-0.06-0.17-0.06-0.27,0.02s-0.09,0.16-0.06,0.25s0.23,0.16,0.19,0.2s-0.31,0.17-0.55,0.23
	c-0.12,0.03-0.33,0.09-0.53,0.06c-0.2-0.03-0.24-0.01-0.38-0.15c-0.14-0.14-0.15-0.39-0.15-0.63s0.04-0.57,0.04-0.61
	c0-0.03,0.03-0.13,0.11-0.17s0.18-0.08,0.18-0.08l2.03,0.15c0,0,0.06,0.14,0.05,0.27s-0.06,0.36-0.14,0.45s-0.28,0.23-0.34,0.28
	S13.85,53.64,13.77,53.59z"/>
<path class="st1" d="M13.3,53.3c0.04-0.08,0.22-0.1,0.31-0.09c0.09,0.01,0.38,0.04,0.34,0.11s-0.24,0.13-0.36,0.1
	S13.27,53.38,13.3,53.3z"/>
<path class="st1" d="M13.48,53.04c-0.02-0.07,0.18-0.1,0.31-0.09c0.12,0.01,0.24,0.02,0.23,0.08s-0.14,0.1-0.31,0.09
	C13.53,53.1,13.5,53.11,13.48,53.04z"/>
<polygon class="st6" points="13.21,52.64 12.23,52.57 12.22,52.51 12.76,52.49 14.4,52.64 14.52,52.68 14.41,52.71 13.21,52.64 "/>
<path class="st6" d="M12.54,52.35c-0.08,0-0.17-0.04-0.23-0.07c-0.06-0.04-0.07-0.22,0.04-0.37c0.05-0.06,0.13-0.27,0.26-0.33
	c0.17-0.08,0.29-0.11,0.41-0.14c0.2-0.06,0.64,0.02,0.81,0.02c0.16,0,0.4,0.01,0.48,0.1s0.19,0.28,0.21,0.45s0.02,0.44-0.14,0.45
	s-0.86-0.06-1.12-0.09S12.62,52.35,12.54,52.35z"/>
<path class="st1" d="M12.77,51.92c0,0-0.2-0.04-0.18-0.12s0.27-0.08,0.36-0.08c0.08,0,0.23-0.05,0.23,0.07
	c-0.01,0.13-0.26,0.1-0.27,0.18s0.24,0.04,0.22,0.12c-0.03,0.08-0.15,0.09-0.31,0.09c-0.16,0.01-0.33-0.01-0.34-0.11
	S12.77,51.92,12.77,51.92z"/>
<path id="skin-leg-l" class="st4" d="M8.99,38.74c0,0-0.55-0.12-0.92-0.14c-0.37-0.02-0.63-0.06-0.91-0.06s-0.81,0.03-0.81,0.03
	s0-0.88-0.05-1.19S6.2,36.51,6.2,36.51s0.64,0.02,1.02,0.05s0.77,0.05,1.23,0.06s1.11,0.03,1.11,0.03s-0.1,0.5-0.22,1.08
	S8.99,38.74,8.99,38.74z"/>
<path id="player-sock-l" class="st7" d="M9.11,43.09C9.06,42.67,9,41.46,8.94,41.12c-0.05-0.33-0.13-0.77-0.1-0.87
	c0.03-0.1,0.19-0.22,0.23-0.37s0.02-0.55-0.04-0.59c-0.07-0.04-0.27-0.13-0.5-0.17c-0.24-0.03-0.54-0.08-0.8-0.11
	c-0.26-0.02-1.35-0.03-1.41,0.02s-0.13,0.11-0.18,0.21c-0.06,0.09-0.08,0.18-0.07,0.32c0.01,0.13,0.09,0.42,0.17,0.47
	s0.26,0.02,0.44,0.02c0.18,0,0.47-0.06,0.54-0.02c0.07,0.04,0.08,0.11,0.04,0.18C7.23,40.28,7.11,40.35,7,40.38
	s-0.69,0.05-0.76,0.12c-0.07,0.07-0.2,1.14-0.2,1.52c0,0.38,0.09,1.59,0.16,1.97c0.07,0.38,0.66,2.71,0.73,3.22
	C7,47.73,7.16,49.57,7.2,49.63c0.04,0.05,0.1,0.01,0.18-0.03s0-0.31,0.06-0.34c0.06-0.03,0.1-0.04,0.31-0.06
	c0.15-0.01,0.46,0.04,0.53,0.09s0.14,0.28,0.18,0.33s0.22,0.11,0.26,0.04c0.04-0.06,0.05-0.93,0.08-1.31
	c0.03-0.38,0.27-1.73,0.32-2.39C9.17,45.31,9.15,43.43,9.11,43.09z"/>
<path class="st1" d="M8.24,37.83c-0.16-0.01-0.17-0.23-0.35-0.26c-0.18-0.03-0.66,0.1-0.77,0.11c-0.11,0.02-0.1-0.05-0.02-0.15
	c0.07-0.1,0.44-0.34,0.73-0.33c0.29,0.01,0.59,0.2,0.67,0.28c0.08,0.08,0.12,0.22,0.04,0.31S8.24,37.83,8.24,37.83
	S8.4,37.83,8.24,37.83z"/>
<polygon class="st6" points="8.05,52.64 9.03,52.57 9.04,52.51 8.51,52.49 6.86,52.64 6.75,52.68 6.85,52.71 8.05,52.64 "/>
<path class="st1" d="M10.13,17.94c-0.06-0.17,0.21-0.96,0.28-1.17s0.19-1.28,0.11-1.58c-0.08-0.29-0.32-1.27-0.28-1.6
	s0.28-1.08,0.28-1.17s-0.01-0.38,0.06-0.46s0.15-0.04,0.17,0.08s-0.03,2.34,0.02,2.58c0.04,0.23,0.26,1.06,0.29,1.41
	c0.03,0.34-0.14,1.62-0.18,1.84s-0.15,0.62-0.2,0.71c-0.05,0.09-0.18,0.1-0.27,0.03S10.13,17.94,10.13,17.94
	S10.19,18.11,10.13,17.94z"/>
<path id="player-shorts" class="st3" d="M5.22,32.76c0.02-0.52,0.1-2,0.12-2.57s0.08-1.92,0.16-2.52c0.08-0.59,0.14-1.31,0.2-1.63
	c0.05-0.32,0.23-1.16,0.28-1.28c0.05-0.12,0.1-0.32,0.31-0.3s1.43,0.22,1.66,0.16s0.27-0.23,0.25-0.28s-0.17-0.14-0.33-0.15
	s-0.44-0.07-0.73-0.12s-0.57-0.08-0.7-0.16c-0.13-0.08-0.17-0.31-0.15-0.43s0.13-0.25,0.25-0.24c0.12,0.01,0.34,0.05,0.83,0.12
	s1.77,0.21,2.44,0.25s1.39,0.08,2.08,0.02s1.71-0.18,2.01-0.21c0.29-0.03,0.68-0.1,0.83-0.12c0.09-0.01,0.22,0.14,0.26,0.29
	s-0.02,0.24-0.11,0.37s-1.69,0.15-1.78,0.2c-0.09,0.04-0.14,0.11-0.14,0.23c0,0.12,0.16,0.17,0.27,0.2c0.11,0.03,0.26,0,0.37-0.01
	s1.37-0.13,1.5-0.09c0.15,0.05,0.27,0.24,0.33,0.38c0.07,0.14,0.18,0.85,0.22,1.19c0.04,0.34,0.14,1.24,0.18,1.7
	c0.03,0.47,0.13,2.31,0.17,2.98c0.04,0.51,0.12,1.91,0.14,2.44c0.02,0.54,0.08,2.62,0.08,2.62s0.03,0.15-0.09,0.17
	c-0.13,0.02-0.64,0.05-1.25,0.1s-0.98,0.06-1.55,0.08s-0.97,0.03-1.45,0.03c-0.32,0-0.67-0.02-0.81-0.03c-0.14,0-0.14-0.1-0.14-0.1
	l-0.05-0.47L10.8,33l0-1.09c0,0,0.03-2.01,0.07-2.08c0.04-0.07,0.68-0.26,0.84-0.32c0.16-0.06,1.21-0.41,1.28-0.47
	c0.06-0.06-0.07-0.11-0.2-0.17s-0.46-0.08-0.61-0.06s-0.34,0.13-0.44,0.18s-0.35,0.16-0.56,0.21c-0.3,0.06-0.48,0.07-0.65,0.07
	c-0.18-0.01-0.24-0.03-0.44-0.11c-0.21-0.08-0.66-0.37-0.89-0.39c-0.23-0.02-0.47,0.04-0.55,0.07s-0.23,0.08-0.25,0.15
	c-0.02,0.07,0.71,0.17,1.01,0.37s0.54,0.29,0.67,0.35c0.13,0.06,0.35,0.09,0.36,0.17s0.06,1.95,0.06,1.95l-0.05,1.38l-0.06,2.4
	c0,0-0.02,0.25-0.03,0.4c0,0.14,0,0.15-0.14,0.15s-0.72,0.02-1.31,0.02s-1.21-0.04-1.78-0.06C6.56,36.09,5.36,36,5.2,35.99
	c-0.16-0.01-0.13-0.04-0.12-0.28C5.09,35.34,5.2,33.28,5.22,32.76z"/>
<path id="skin-arm-l" class="st2" d="M5.44,16.07c0,0-1.05,0.21-1.15,0.26s-0.38,0.41-0.48,0.48s-0.12,0.1-0.25,0.09
	s-0.15-0.13-0.12-0.21s0.12-0.16,0.23-0.32c0.08-0.11,0.27-0.42,0.27-0.42s-0.27-0.15-0.58-0.31c-0.36-0.19-0.71-0.36-1.03-0.5
	s-0.62-0.3-0.62-0.3S1.65,15,1.28,15.76s-0.52,1.38-0.52,1.75c0,0.21,0.04,0.65,0.32,0.93s0.71,0.33,0.97,0.29s0.8-0.15,1.28-0.29
	s2.27-0.71,2.27-0.71L5.44,16.07z"/>
<polygon id="skin-neck" class="st4" points="9.1,8.15 9.14,7.76 9.45,7.77 9.89,7.77 10.36,7.74 10.54,7.98 10.75,7.74 10.92,7.74 
	11.31,7.71 11.58,7.68 12.02,7.68 12.06,8.09 11.36,8.16 10.52,8.17 9.81,8.17 "/>
<path class="st1" d="M12.88,53.41c-0.04-0.08-0.22-0.1-0.31-0.09c-0.09,0.01-0.38,0.04-0.34,0.11s0.24,0.13,0.36,0.1
	S12.92,53.49,12.88,53.41z"/>
<path class="st1" d="M12.82,53.04c0.02-0.07-0.18-0.1-0.31-0.09c-0.12,0.01-0.24,0.02-0.23,0.08s0.14,0.1,0.31,0.09
	C12.77,53.1,12.8,53.11,12.82,53.04z"/>
<path class="st1" d="M13.04,53.89c-0.04-0.08-0.23-0.11-0.32-0.09c-0.09,0.01-0.39,0.04-0.36,0.12s0.25,0.14,0.38,0.11
	C12.87,53.99,13.08,53.97,13.04,53.89z"/>
<path class="st1" d="M13.94,51.92c0,0,0.2-0.04,0.17-0.12s-0.27-0.08-0.36-0.08c-0.08,0-0.23-0.05-0.23,0.07
	c0,0.13,0.25,0.1,0.27,0.18s-0.24,0.04-0.21,0.12c0.03,0.08,0.15,0.09,0.31,0.09c0.16,0.01,0.33-0.01,0.34-0.11
	S13.94,51.92,13.94,51.92z"/>
<path class="st6" d="M7.46,53.6c0.08-0.06,0.17-0.06,0.27,0.02s0.09,0.16,0.06,0.25s-0.23,0.16-0.19,0.2s0.31,0.17,0.55,0.23
	c0.12,0.03,0.33,0.09,0.53,0.06c0.2-0.03,0.24-0.01,0.38-0.15c0.14-0.14,0.15-0.39,0.15-0.63s-0.04-0.57-0.04-0.61
	c0-0.03-0.03-0.13-0.11-0.17s-0.18-0.08-0.18-0.08l-2.03,0.15c0,0-0.06,0.14-0.05,0.27s0.06,0.36,0.14,0.45s0.28,0.23,0.34,0.28
	S7.38,53.66,7.46,53.6z"/>
<path class="st1" d="M7.92,53.32c-0.04-0.08-0.22-0.1-0.31-0.09c-0.09,0.01-0.38,0.04-0.34,0.11s0.24,0.13,0.36,0.1
	S7.96,53.4,7.92,53.32z"/>
<path class="st1" d="M7.75,53.06c0.02-0.07-0.18-0.1-0.31-0.09c-0.12,0.01-0.24,0.02-0.23,0.08s0.14,0.1,0.31,0.09
	C7.69,53.12,7.73,53.13,7.75,53.06z"/>
<path class="st6" d="M8.69,52.37c0.08,0,0.17-0.04,0.23-0.07c0.06-0.04,0.07-0.22-0.04-0.37c-0.05-0.06-0.13-0.27-0.26-0.33
	c-0.17-0.08-0.29-0.11-0.41-0.14c-0.2-0.06-0.64,0.02-0.81,0.02c-0.16,0-0.4,0.01-0.48,0.1s-0.19,0.28-0.21,0.45
	s-0.02,0.44,0.14,0.45s0.86-0.06,1.12-0.09S8.61,52.37,8.69,52.37z"/>
<path class="st1" d="M8.46,51.94c0,0,0.2-0.04,0.18-0.12s-0.27-0.08-0.36-0.08c-0.08,0-0.23-0.05-0.23,0.07
	c0.01,0.13,0.26,0.1,0.27,0.18s-0.24,0.04-0.22,0.12c0.03,0.08,0.15,0.09,0.31,0.09c0.16,0.01,0.33-0.01,0.34-0.11
	S8.46,51.94,8.46,51.94z"/>
<path class="st1" d="M8.34,53.43c0.04-0.08,0.22-0.1,0.31-0.09c0.09,0.01,0.38,0.04,0.34,0.11s-0.24,0.13-0.36,0.1
	S8.3,53.51,8.34,53.43z"/>
<path class="st1" d="M8.4,53.06c-0.02-0.07,0.18-0.1,0.31-0.09c0.12,0.01,0.24,0.02,0.23,0.08s-0.14,0.1-0.31,0.09
	C8.46,53.12,8.43,53.13,8.4,53.06z"/>
<path class="st1" d="M8.19,53.91c0.04-0.08,0.23-0.11,0.32-0.09c0.09,0.01,0.39,0.04,0.36,0.12s-0.25,0.14-0.38,0.11
	C8.36,54.01,8.15,53.99,8.19,53.91z"/>
<path class="st1" d="M7.28,51.94c0,0-0.2-0.04-0.17-0.12s0.27-0.08,0.36-0.08c0.08,0,0.23-0.05,0.23,0.07c0,0.13-0.25,0.1-0.27,0.18
	s0.24,0.04,0.21,0.12c-0.03,0.08-0.15,0.09-0.31,0.09c-0.16,0.01-0.33-0.01-0.34-0.11S7.28,51.94,7.28,51.94z"/>
<polygon id="hair" class="st1" points="13.25,3.4 13.32,2.92 13.34,2.82 12.84,1.94 12.47,1.58 11.99,1.12 11.85,1.23 11.48,0.92 
	10.73,0.88 10.62,0.77 9.89,1.04 9.3,1.33 8.79,1.31 8.68,1.46 8.31,1.6 7.92,2.15 7.68,2.69 7.67,3.05 7.48,3.14 7.69,3.62 
	7.46,4.11 7.74,4.53 7.76,4.95 8.17,5.7 8.21,6.09 8.39,6.45 8.8,6.69 8.84,6.97 8.92,7.29 9.2,7.42 9.83,7.46 10.36,7.38 
	10.54,7.52 10.75,7.34 10.94,7.32 12,7.26 12.33,7.16 12.42,6.8 12.8,6.36 13,5.77 13.28,5.01 13.29,4.09 13.54,3.86 "/>
</svg>
