<?xml version="1.0" encoding="utf-8"?>
<!-- Generator: Adobe Illustrator 16.0.4, SVG Export Plug-In . SVG Version: 6.00 Build 0)  -->
<!DOCTYPE svg PUBLIC "-//W3C//DTD SVG 1.1//EN" "http://www.w3.org/Graphics/SVG/1.1/DTD/svg11.dtd" [
	<!ENTITY ns_flows "http://ns.adobe.com/Flows/1.0/">
	<!ENTITY ns_extend "http://ns.adobe.com/Extensibility/1.0/">
	<!ENTITY ns_ai "http://ns.adobe.com/AdobeIllustrator/10.0/">
	<!ENTITY ns_graphs "http://ns.adobe.com/Graphs/1.0/">
]>
<svg version="1.1" id="Ebene_1" xmlns:x="&ns_extend;" xmlns:i="&ns_ai;" xmlns:graph="&ns_graphs;"
	 xmlns="http://www.w3.org/2000/svg" xmlns:xlink="http://www.w3.org/1999/xlink" xmlns:a="http://ns.adobe.com/AdobeSVGViewerExtensions/3.0/"
	 x="0px" y="0px" width="21.2px" height="55.2px" viewBox="0 0 21.2 55.2" style="enable-background:new 0 0 21.2 55.2;"
	 xml:space="preserve">
<style type="text/css">
<![CDATA[
	.st0{fill:#1A1A18;}
	.st1{fill-rule:evenodd;clip-rule:evenodd;fill:#1A1A18;}
	.st2{fill:#FBCDAA;}
	.st3{fill:#FFFFFF;}
	.st4{fill-rule:evenodd;clip-rule:evenodd;fill:#FBCDAA;}
	.st5{fill:#0068B4;}
	.st6{fill-rule:evenodd;clip-rule:evenodd;fill:#FFFFFF;}
	.st7{fill-rule:evenodd;clip-rule:evenodd;fill:#0068B4;}
]]>
</style>
<path class="st0" d="M20.83,16.93c-0.08-0.37-0.52-1.41-0.63-1.71s-0.25-0.62-0.25-0.62s0.06-0.03,0.13-0.08s0.1-0.11,0.04-0.22
	c-0.12-0.22-0.11-0.23-0.34-0.64s-0.78-1.28-1.12-1.78s-0.98-1.2-1.27-1.53s-0.99-0.85-1.28-1.07s-0.95-0.49-1.31-0.59
	s-0.71-0.18-1.03-0.22s-0.66-0.07-0.77-0.14s-0.43-0.25-0.43-0.25l-0.04-0.43l0.13-0.15l0.1-0.59l0.36-0.22l0.21-0.41l0.04-0.44
	l0.43-0.73l0.02-0.48l0.32-0.48l-0.26-0.56l0.25-0.58l-0.21-0.1l-0.03-0.37l-0.29-0.62l-0.45-0.62l-0.42-0.16l-0.13-0.17L12,0.98
	l-0.67-0.33L10.5,0.41l-0.12,0.12L9.57,0.58L9.3,0.83L9.14,0.7L8.67,1.18l-0.46,0.4L7.46,2.8l0.05,0.13l0.08,0.5L7.21,3.98
	l0.35,0.29l0.04,0.81l0.32,0.84l0.18,0.56l0.35,0.53l0.11,0.36l0.18,0.09L8.72,7.79L8.69,8.04h0c0,0-0.45,0.25-0.63,0.29
	c-0.18,0.04-0.49,0.1-0.73,0.15S6.46,8.64,6.15,8.74S5.37,9.02,4.99,9.25s-1.02,0.89-1.29,1.19s-0.73,0.86-1.11,1.34
	c-0.29,0.38-1.16,1.76-1.16,1.76s-0.27,0.51-0.36,0.66s-0.09,0.25-0.03,0.3s0.22,0.16,0.22,0.16s-0.17,0.33-0.35,0.75
	c-0.18,0.42-0.42,1.06-0.5,1.39s-0.12,0.5-0.1,0.81s0.06,0.43,0.12,0.64s0.15,0.33,0.29,0.5c0.14,0.17,0.35,0.31,0.66,0.41
	c0.31,0.1,0.52,0.04,0.89-0.02c0.53-0.09,1.79-0.54,2.29-0.67s1.08-0.3,1.08-0.3s0.1,0.81,0.12,1.14s0.09,1.21,0.1,1.61
	s0.04,1.53,0.05,1.74s0.15,0.41,0.12,0.45s-0.15,0.21-0.22,0.42c-0.07,0.21,0.04,0.43,0.01,0.53c-0.03,0.11-0.22,0.22-0.34,0.48
	c-0.12,0.26-0.29,1.03-0.32,1.46s-0.21,2.3-0.24,2.93s-0.15,2.31-0.17,2.76c-0.02,0.46-0.08,1.45-0.1,2.02s-0.05,1.19-0.05,1.42
	s-0.05,0.81-0.03,1.11c0.01,0.14,0.18,0.16,0.18,0.16l0.94,0.09c0,0,0.05,0.46,0.07,0.91s0.01,1.3,0.01,1.3s-0.23,0.41-0.27,0.64
	c-0.04,0.23,0.13,0.79,0.12,0.96s-0.09,0.95-0.12,1.32C5.5,42.01,5.54,42.4,5.55,42.7c0.01,0.3,0.04,0.91,0.09,1.25
	s0.17,0.8,0.28,1.22s0.29,1.15,0.36,1.51c0.07,0.37,0.16,0.9,0.22,1.35s0.11,0.9,0.12,1.06c0.02,0.16,0.01,0.73,0.01,0.73
	s-0.08,0.31-0.09,0.43c-0.01,0.12-0.03,0.33-0.03,0.33S6.38,51,6.34,51.22c-0.03,0.21-0.06,0.95-0.04,1.08
	c0.02,0.13,0.07,0.26,0.09,0.36c0.02,0.1,0.03,0.5,0.04,0.62c0.01,0.13,0.08,0.35,0.22,0.54c0.14,0.2,0.52,0.56,0.8,0.67
	c0.29,0.11,0.95,0.3,1.12,0.3c0.17,0,0.39-0.05,0.52-0.11c0.13-0.06,0.15-0.14,0.25-0.3c0.1-0.15,0.19-0.46,0.18-0.79
	s-0.21-1.88-0.27-2.16c-0.06-0.28-0.16-0.76-0.1-0.96c0.06-0.21,0.41-0.8,0.42-0.97c0.01-0.17-0.07-0.19-0.16-0.24
	c-0.08-0.05-0.23-0.01-0.23-0.01s-0.02-0.51,0.03-0.97s0.23-1.59,0.31-2.33s0.03-2.01,0.03-2.01l-0.07-1l-0.18-2.05
	c0,0-0.11-0.42-0.06-0.5c0.05-0.08,0.19-0.32,0.21-0.44c0.03-0.12,0.05-0.39,0.04-0.56c-0.02-0.16-0.05-0.37-0.08-0.46
	c-0.03-0.09,0.11-0.37,0.23-0.77c0.12-0.41,0.43-1.5,0.43-1.5s0.2-0.01,0.3-0.01c0.13,0,0.13-0.07,0.13-0.07l0.07-0.17l0.08,0.14
	c0,0,0.03,0.07,0.12,0.1s0.34,0.01,0.34,0.01l0.36,1.45l0.24,0.82c0,0-0.05,0.25-0.06,0.41c-0.02,0.17-0.04,0.46,0.03,0.6
	c0.07,0.15,0.14,0.21,0.16,0.4c0.03,0.23-0.21,2.72-0.25,3.23s-0.05,1.68,0.02,2.33c0.06,0.64,0.31,2.06,0.34,2.38s0,0.97,0,0.97
	s-0.15-0.06-0.23,0.01c-0.08,0.07-0.16,0.1-0.16,0.24c0,0.14,0.42,0.97,0.42,0.97s-0.08,0.7-0.1,0.96
	c-0.02,0.27-0.29,1.98-0.27,2.16s0.11,0.65,0.18,0.79c0.07,0.14,0.09,0.19,0.25,0.3c0.16,0.11,0.21,0.1,0.52,0.11
	c0.31,0.01,0.75-0.11,1.12-0.3c0.37-0.19,0.68-0.49,0.8-0.67c0.13-0.18,0.17-0.34,0.22-0.54c0.05-0.2,0.02-0.5,0.04-0.62
	c0.02-0.12,0.07-0.23,0.09-0.36c0.03-0.13-0.02-0.84-0.04-1.08c-0.02-0.24-0.15-0.52-0.17-0.64s-0.01-0.18-0.03-0.33
	c-0.02-0.15-0.08-0.31-0.09-0.43c-0.01-0.11-0.03-0.38,0.01-0.73c0.04-0.34,0.21-1.82,0.34-2.41c0.14-0.59,0.55-2.28,0.64-2.73
	s0.14-1.81,0.11-2.32c-0.02-0.52-0.08-1.27-0.11-1.32s0.15-0.55,0.11-0.96c-0.04-0.41-0.24-0.55-0.27-0.64
	c-0.03-0.08-0.03-0.95,0.01-1.3s0.16-1,0.16-1s0.65-0.04,0.89-0.06c0.12-0.02,0.18-0.03,0.18-0.16s-0.05-0.69-0.05-0.69l-0.17-3.43
	c0,0-0.09-2.07-0.14-2.81c-0.04-0.66-0.07-1.18-0.12-1.61s-0.08-0.95-0.16-1.41s-0.21-1.2-0.3-1.56c-0.09-0.36-0.28-0.64-0.28-0.64
	s0.05-0.33,0.03-0.59c-0.03-0.27-0.14-0.39-0.17-0.45c-0.03-0.06-0.01-0.17-0.01-0.33c0.01-0.23-0.01-0.56,0.01-0.97
	s0.05-1.05,0.11-1.69s0.19-1.84,0.19-1.84s0.8,0.23,1.52,0.44s1.57,0.42,2.05,0.53c0.28,0.07,0.67,0,0.95-0.11
	c0.21-0.08,0.37-0.24,0.48-0.36c0.26-0.28,0.33-0.62,0.36-0.97S20.91,17.3,20.83,16.93z"/>
<path id="skin-arm-l" class="st2" d="M5.41,16.04c0,0-1.1,0.25-1.17,0.3s-0.44,0.43-0.48,0.48s-0.15,0.1-0.25,0.09
	s-0.16-0.07-0.15-0.13s0.14-0.2,0.27-0.39c0.07-0.11,0.3-0.45,0.3-0.45s-0.24-0.1-0.48-0.22s-0.83-0.38-1.12-0.53
	s-0.67-0.33-0.67-0.33s-0.26,0.53-0.42,0.91s-0.35,0.89-0.46,1.28c-0.07,0.27-0.07,0.66,0.02,0.91c0.09,0.25,0.13,0.39,0.24,0.5
	c0.12,0.11,0.22,0.22,0.41,0.27c0.19,0.06,0.38,0.05,0.56,0.02c0.19-0.04,0.69-0.11,1.29-0.29s1.32-0.42,1.69-0.53
	c0.5-0.14,0.61-0.17,0.61-0.17L5.41,16.04z"/>
<path id="player-jersey" class="st5" d="M19,13.29c-0.24-0.37-0.64-1.03-0.88-1.34c-0.23-0.31-0.66-0.83-0.96-1.17
	s-1.09-1-1.29-1.15s-1-0.52-1.23-0.58s-0.52-0.12-0.85-0.17s-0.87-0.1-0.87-0.1s-0.28-0.08-0.38-0.16s-0.17-0.08-0.24-0.09
	s-1.11,0.02-1.42,0.01S9.96,8.54,9.62,8.52c-0.34-0.02-0.8-0.05-0.8-0.05L8.54,8.6c0,0-0.4,0.13-0.61,0.17
	c-0.2,0.04-0.35,0.04-0.68,0.09S6.78,8.92,6.41,9.05S5.67,9.32,5.29,9.54s-1.04,0.91-1.38,1.28S3.1,11.77,2.86,12.1
	s-0.53,0.82-0.77,1.2c-0.18,0.28-0.42,0.74-0.49,0.83s-0.03,0.11,0.04,0.16c0.08,0.05,0.25,0.17,0.65,0.36s1.06,0.52,1.41,0.68
	s0.57,0.29,0.7,0.36s0.2,0.03,0.2,0.03l0.69-0.16c0,0,0.49-0.58,0.61-0.77s0.38-0.4,0.48-0.39c0.11,0,0.26,0.12,0.25,0.25
	s-0.71,1.06-0.73,1.19s0.05,0.54,0.07,0.78s0.11,0.84,0.12,1.11s0.04,0.75,0.1,1.53s0.14,1.98,0.17,2.39s0.01,0.86,0.03,0.99
	s0.03,0.12,0.21,0.18s1.08,0.15,1.69,0.23s1.53,0.14,1.86,0.14s0.58,0,1.17-0.05s1.56-0.12,2.03-0.19s1.01-0.11,1.17-0.14
	c0.16-0.03,0.22-0.08,0.22-0.22c0-0.14-0.02-0.51,0.01-0.94c0.03-0.5,0.05-1.05,0.09-1.48s0.12-1.13,0.16-1.59s0.1-1.03,0.15-1.48
	s0.11-1.07,0.07-1.21s-0.67-1.08-0.7-1.22s0.08-0.3,0.23-0.28s0.33,0.25,0.45,0.38s0.56,0.71,0.67,0.79c0.06,0.05,0.61,0.2,0.68,0.2
	s0.46-0.22,0.78-0.39s1.4-0.68,1.61-0.78c0.15-0.07,0.42-0.21,0.55-0.32c0.1-0.08-0.02-0.26,0.03-0.17
	C19.56,14.21,19.24,13.66,19,13.29z"/>
<path id="skin-leg-l" class="st4" d="M9.25,37.81c-0.12,0.39-0.32,0.94-0.32,0.94s-0.47-0.08-0.72-0.11s-0.48-0.05-0.84-0.05
	s-1.07-0.01-1.07-0.01L6.2,36.54c0,0,0.72,0.02,1.16,0.05c0.44,0.03,0.6,0,1.03,0.03s1.11,0.03,1.11,0.03S9.37,37.42,9.25,37.81z"/>
<path id="player-sock-l" class="st7" d="M9.03,43.09c-0.05-0.62-0.11-1.53-0.15-1.96c-0.04-0.43-0.14-0.75-0.1-0.87
	c0.04-0.12,0.18-0.17,0.24-0.37s0.04-0.53-0.05-0.59c-0.08-0.06-0.29-0.13-0.5-0.17c-0.21-0.03-0.53-0.1-0.8-0.11
	c-0.28-0.01-1.33-0.03-1.41,0.02s-0.14,0.11-0.18,0.21c-0.04,0.09-0.08,0.2-0.07,0.32c0.01,0.12,0.07,0.4,0.18,0.47
	s0.29,0,0.44,0.02c0.15,0.02,0.34-0.01,0.41,0c0.12,0.02,0.2,0.05,0.17,0.16c-0.03,0.1-0.15,0.17-0.26,0.17s-0.75,0.03-0.78,0.1
	S6,41.35,5.98,41.81c-0.01,0.46,0.06,1.66,0.16,2.25s0.53,2.02,0.67,2.86s0.29,2.66,0.33,2.71c0.04,0.05,0.12,0.02,0.18-0.03
	s-0.03-0.25,0.06-0.34c0.09-0.09,0.19-0.11,0.38-0.1s0.3,0.06,0.45,0.14s0.11,0.27,0.18,0.33s0.19,0.09,0.26,0.04
	c0.08-0.04,0.02-0.65,0.08-1.31c0.06-0.66,0.28-1.44,0.34-2.45S9.08,43.71,9.03,43.09z"/>
<path class="st1" d="M7.82,37.57c-0.15-0.03-0.71,0.14-0.77,0.11C7,37.65,6.98,37.61,7.04,37.53c0.06-0.08,0.54-0.36,0.74-0.35
	s0.58,0.19,0.66,0.29c0.08,0.11,0.15,0.3,0.04,0.31s-0.21,0.08-0.3,0.04S7.98,37.59,7.82,37.57z"/>
<path class="st6" d="M7.44,53.59c0.08-0.06,0.17-0.06,0.27,0.02s0.09,0.16,0.06,0.25s-0.23,0.16-0.19,0.2s0.31,0.17,0.55,0.23
	c0.12,0.03,0.33,0.09,0.53,0.06c0.2-0.03,0.24-0.01,0.38-0.15c0.14-0.14,0.15-0.39,0.15-0.63S9.15,53,9.14,52.96
	c0-0.03-0.03-0.13-0.11-0.17s-0.18-0.08-0.18-0.08l-2.03,0.15c0,0-0.06,0.14-0.05,0.27s0.06,0.36,0.14,0.45s0.28,0.23,0.34,0.28
	S7.35,53.64,7.44,53.59z"/>
<path class="st1" d="M7.9,53.3c-0.04-0.08-0.22-0.1-0.31-0.09c-0.09,0.01-0.38,0.04-0.34,0.11s0.24,0.13,0.36,0.1
	S7.94,53.38,7.9,53.3z"/>
<path class="st1" d="M7.73,53.04c0.02-0.07-0.18-0.1-0.31-0.09c-0.12,0.01-0.24,0.02-0.23,0.08s0.14,0.1,0.31,0.09
	C7.67,53.1,7.7,53.11,7.73,53.04z"/>
<polygon class="st6" points="7.99,52.64 8.97,52.57 8.98,52.51 8.44,52.49 6.8,52.64 6.69,52.68 6.79,52.71 7.99,52.64 "/>
<path class="st6" d="M8.66,52.35c0.08,0,0.17-0.04,0.23-0.07c0.06-0.04,0.07-0.22-0.04-0.37c-0.05-0.06-0.13-0.27-0.26-0.33
	c-0.17-0.08-0.29-0.11-0.41-0.14c-0.2-0.06-0.64,0.02-0.81,0.02c-0.16,0-0.4,0.01-0.48,0.1s-0.19,0.28-0.21,0.45
	s-0.02,0.44,0.14,0.45s0.86-0.06,1.12-0.09S8.58,52.35,8.66,52.35z"/>
<path class="st1" d="M8.43,51.92c0,0,0.2-0.04,0.18-0.12s-0.27-0.08-0.36-0.08c-0.08,0-0.23-0.05-0.23,0.07
	c0.01,0.13,0.26,0.1,0.27,0.18s-0.24,0.04-0.22,0.12c0.03,0.08,0.15,0.09,0.31,0.09c0.16,0.01,0.33-0.01,0.34-0.11
	S8.43,51.92,8.43,51.92z"/>
<path id="skin-leg-r" class="st4" d="M12.21,38.74c0,0,0.55-0.12,0.92-0.14c0.37-0.02,0.63-0.06,0.91-0.06s0.81,0.03,0.81,0.03
	s0-0.88,0.05-1.19S15,36.51,15,36.51s-0.64,0.02-1.02,0.05s-0.77,0.05-1.23,0.06s-1.11,0.03-1.11,0.03s0.1,0.5,0.22,1.08
	S12.21,38.74,12.21,38.74z"/>
<path id="player-sock-r" class="st7" d="M12.09,43.09c0.05-0.42,0.11-1.63,0.17-1.96c0.05-0.33,0.13-0.77,0.1-0.87
	c-0.03-0.1-0.19-0.22-0.23-0.37s-0.02-0.55,0.04-0.59c0.07-0.04,0.27-0.13,0.5-0.17c0.24-0.03,0.54-0.08,0.8-0.11
	c0.26-0.02,1.35-0.03,1.41,0.02s0.13,0.11,0.18,0.21c0.06,0.09,0.08,0.18,0.07,0.32c-0.01,0.13-0.09,0.42-0.17,0.47
	s-0.26,0.02-0.44,0.02c-0.18,0-0.47-0.06-0.54-0.02c-0.07,0.04-0.08,0.11-0.04,0.18c0.04,0.07,0.16,0.14,0.27,0.17
	s0.69,0.05,0.76,0.12c0.07,0.07,0.2,1.14,0.2,1.52c0,0.38-0.09,1.59-0.16,1.97c-0.07,0.38-0.66,2.71-0.73,3.22
	c-0.07,0.51-0.23,2.36-0.27,2.41c-0.04,0.05-0.1,0.01-0.18-0.03s0-0.31-0.06-0.34c-0.06-0.03-0.1-0.04-0.31-0.06
	c-0.15-0.01-0.46,0.04-0.53,0.09s-0.14,0.28-0.18,0.33s-0.22,0.11-0.26,0.04c-0.04-0.06-0.05-0.93-0.08-1.31
	c-0.03-0.38-0.27-1.73-0.32-2.39C12.03,45.31,12.05,43.43,12.09,43.09z"/>
<path class="st1" d="M12.96,37.83c0.16-0.01,0.17-0.23,0.35-0.26c0.18-0.03,0.66,0.1,0.77,0.11c0.11,0.02,0.1-0.05,0.02-0.15
	c-0.07-0.1-0.44-0.34-0.73-0.33c-0.29,0.01-0.59,0.2-0.67,0.28c-0.08,0.08-0.12,0.22-0.04,0.31S12.96,37.83,12.96,37.83
	S12.8,37.83,12.96,37.83z"/>
<polygon class="st6" points="13.15,52.64 12.17,52.57 12.16,52.51 12.69,52.49 14.34,52.64 14.45,52.68 14.35,52.71 13.15,52.64 "/>
<path class="st1" d="M11.07,17.94c0.06-0.17-0.21-0.96-0.28-1.17s-0.19-1.28-0.11-1.58c0.08-0.29,0.32-1.27,0.28-1.6
	s-0.28-1.08-0.28-1.17s0.01-0.38-0.06-0.46s-0.15-0.04-0.17,0.08s0.03,2.34-0.02,2.58c-0.04,0.23-0.26,1.06-0.29,1.41
	c-0.03,0.34,0.14,1.62,0.18,1.84s0.15,0.62,0.2,0.71c0.05,0.09,0.18,0.1,0.27,0.03S11.07,17.94,11.07,17.94S11.01,18.11,11.07,17.94
	z"/>
<path id="player-shorts" class="st3" d="M15.98,32.76c-0.02-0.52-0.1-2-0.12-2.57s-0.08-1.92-0.16-2.52
	c-0.08-0.59-0.14-1.31-0.2-1.63c-0.05-0.32-0.23-1.16-0.28-1.28c-0.05-0.12-0.1-0.32-0.31-0.3s-1.43,0.22-1.66,0.16
	S12.98,24.4,13,24.35s0.17-0.14,0.33-0.15s0.44-0.07,0.73-0.12s0.57-0.08,0.7-0.16c0.13-0.08,0.17-0.31,0.15-0.43
	s-0.13-0.25-0.25-0.24c-0.12,0.01-0.34,0.05-0.83,0.12s-1.77,0.21-2.44,0.25S10,23.71,9.31,23.65s-1.71-0.18-2.01-0.21
	c-0.29-0.03-0.68-0.1-0.83-0.12c-0.09-0.01-0.22,0.14-0.26,0.29s0.02,0.24,0.11,0.37s1.69,0.15,1.78,0.2
	c0.09,0.04,0.14,0.11,0.14,0.23c0,0.12-0.16,0.17-0.27,0.2c-0.11,0.03-0.26,0-0.37-0.01s-1.37-0.13-1.5-0.09
	c-0.15,0.05-0.27,0.24-0.33,0.38c-0.07,0.14-0.18,0.85-0.22,1.19c-0.04,0.34-0.14,1.24-0.18,1.7c-0.03,0.47-0.13,2.31-0.17,2.98
	c-0.04,0.51-0.12,1.91-0.14,2.44c-0.02,0.54-0.08,2.62-0.08,2.62s-0.03,0.15,0.09,0.17c0.13,0.02,0.64,0.05,1.25,0.1
	s0.98,0.06,1.55,0.08s0.97,0.03,1.45,0.03c0.32,0,0.67-0.02,0.81-0.03c0.14,0,0.14-0.1,0.14-0.1l0.05-0.47L10.4,33l0-1.09
	c0,0-0.03-2.01-0.07-2.08c-0.04-0.07-0.68-0.26-0.84-0.32c-0.16-0.06-1.21-0.41-1.28-0.47c-0.06-0.06,0.07-0.11,0.2-0.17
	s0.46-0.08,0.61-0.06s0.34,0.13,0.44,0.18s0.35,0.16,0.56,0.21c0.3,0.06,0.48,0.07,0.65,0.07c0.18-0.01,0.24-0.03,0.44-0.11
	c0.21-0.08,0.66-0.37,0.89-0.39c0.23-0.02,0.47,0.04,0.55,0.07s0.23,0.08,0.25,0.15c0.02,0.07-0.71,0.17-1.01,0.37
	s-0.54,0.29-0.67,0.35c-0.13,0.06-0.35,0.09-0.36,0.17s-0.06,1.95-0.06,1.95l0.05,1.38l0.06,2.4c0,0,0.02,0.25,0.03,0.4
	c0,0.14,0,0.15,0.14,0.15s0.72,0.02,1.31,0.02s1.21-0.04,1.78-0.06c0.57-0.02,1.77-0.1,1.93-0.12c0.16-0.01,0.13-0.04,0.12-0.28
	C16.11,35.34,16,33.28,15.98,32.76z"/>
<path id="skin-arm-r" class="st2" d="M15.76,16.07c0,0,1.05,0.21,1.15,0.26s0.38,0.41,0.48,0.48s0.12,0.1,0.25,0.09
	s0.15-0.13,0.12-0.21s-0.12-0.16-0.23-0.32c-0.08-0.11-0.27-0.42-0.27-0.42s0.27-0.15,0.58-0.31c0.36-0.19,0.71-0.36,1.03-0.5
	s0.62-0.3,0.62-0.3s0.06,0.16,0.43,0.91s0.52,1.38,0.52,1.75c0,0.21-0.04,0.65-0.32,0.93s-0.71,0.33-0.97,0.29s-0.8-0.15-1.28-0.29
	s-2.27-0.71-2.27-0.71L15.76,16.07z"/>
<polygon id="skin-neck" class="st4" points="12.11,8.15 12.06,7.76 11.75,7.77 11.31,7.77 10.84,7.74 10.66,7.98 10.45,7.74 
	10.28,7.74 9.89,7.71 9.62,7.68 9.18,7.68 9.14,8.09 9.84,8.16 10.68,8.17 11.39,8.17 "/>
<path class="st1" d="M8.32,53.41c0.04-0.08,0.22-0.1,0.31-0.09c0.09,0.01,0.38,0.04,0.34,0.11s-0.24,0.13-0.36,0.1
	S8.28,53.49,8.32,53.41z"/>
<path class="st1" d="M8.38,53.04c-0.02-0.07,0.18-0.1,0.31-0.09c0.12,0.01,0.24,0.02,0.23,0.08s-0.14,0.1-0.31,0.09
	C8.44,53.1,8.4,53.11,8.38,53.04z"/>
<path class="st1" d="M8.16,53.89c0.04-0.08,0.23-0.11,0.32-0.09c0.09,0.01,0.39,0.04,0.36,0.12s-0.25,0.14-0.38,0.11
	C8.33,53.99,8.12,53.97,8.16,53.89z"/>
<path class="st1" d="M7.26,51.92c0,0-0.2-0.04-0.17-0.12s0.27-0.08,0.36-0.08c0.08,0,0.23-0.05,0.23,0.07c0,0.13-0.25,0.1-0.27,0.18
	s0.24,0.04,0.21,0.12c-0.03,0.08-0.15,0.09-0.31,0.09c-0.16,0.01-0.33-0.01-0.34-0.11S7.26,51.92,7.26,51.92z"/>
<path class="st6" d="M13.74,53.6c-0.08-0.06-0.17-0.06-0.27,0.02s-0.09,0.16-0.06,0.25s0.23,0.16,0.19,0.2s-0.31,0.17-0.55,0.23
	c-0.12,0.03-0.33,0.09-0.53,0.06c-0.2-0.03-0.24-0.01-0.38-0.15c-0.14-0.14-0.15-0.39-0.15-0.63s0.04-0.57,0.04-0.61
	c0-0.03,0.03-0.13,0.11-0.17s0.18-0.08,0.18-0.08l2.03,0.15c0,0,0.06,0.14,0.05,0.27s-0.06,0.36-0.14,0.45s-0.28,0.23-0.34,0.28
	S13.82,53.66,13.74,53.6z"/>
<path class="st1" d="M13.28,53.32c0.04-0.08,0.22-0.1,0.31-0.09c0.09,0.01,0.38,0.04,0.34,0.11s-0.24,0.13-0.36,0.1
	S13.24,53.4,13.28,53.32z"/>
<path class="st1" d="M13.45,53.06c-0.02-0.07,0.18-0.1,0.31-0.09c0.12,0.01,0.24,0.02,0.23,0.08s-0.14,0.1-0.31,0.09
	C13.51,53.12,13.47,53.13,13.45,53.06z"/>
<path class="st6" d="M12.51,52.37c-0.08,0-0.17-0.04-0.23-0.07c-0.06-0.04-0.07-0.22,0.04-0.37c0.05-0.06,0.13-0.27,0.26-0.33
	c0.17-0.08,0.29-0.11,0.41-0.14c0.2-0.06,0.64,0.02,0.81,0.02c0.16,0,0.4,0.01,0.48,0.1s0.19,0.28,0.21,0.45s0.02,0.44-0.14,0.45
	s-0.86-0.06-1.12-0.09S12.59,52.37,12.51,52.37z"/>
<path class="st1" d="M12.74,51.94c0,0-0.2-0.04-0.18-0.12s0.27-0.08,0.36-0.08c0.08,0,0.23-0.05,0.23,0.07
	c-0.01,0.13-0.26,0.1-0.27,0.18s0.24,0.04,0.22,0.12c-0.03,0.08-0.15,0.09-0.31,0.09c-0.16,0.01-0.33-0.01-0.34-0.11
	S12.74,51.94,12.74,51.94z"/>
<path class="st1" d="M12.86,53.43c-0.04-0.08-0.22-0.1-0.31-0.09c-0.09,0.01-0.38,0.04-0.34,0.11s0.24,0.13,0.36,0.1
	S12.9,53.51,12.86,53.43z"/>
<path class="st1" d="M12.8,53.06c0.02-0.07-0.18-0.1-0.31-0.09c-0.12,0.01-0.24,0.02-0.23,0.08s0.14,0.1,0.31,0.09
	C12.74,53.12,12.77,53.13,12.8,53.06z"/>
<path class="st1" d="M13.01,53.91c-0.04-0.08-0.23-0.11-0.32-0.09c-0.09,0.01-0.39,0.04-0.36,0.12s0.25,0.14,0.38,0.11
	C12.84,54.01,13.06,53.99,13.01,53.91z"/>
<path class="st1" d="M13.92,51.94c0,0,0.2-0.04,0.17-0.12s-0.27-0.08-0.36-0.08c-0.08,0-0.23-0.05-0.23,0.07
	c0,0.13,0.25,0.1,0.27,0.18s-0.24,0.04-0.21,0.12c0.03,0.08,0.15,0.09,0.31,0.09c0.16,0.01,0.33-0.01,0.34-0.11
	S13.92,51.94,13.92,51.94z"/>
<polygon id="hair" class="st1" points="7.95,3.4 7.88,2.92 7.86,2.82 8.36,1.94 8.74,1.58 9.21,1.12 9.35,1.23 9.72,0.92 
	10.47,0.88 10.58,0.77 11.31,1.04 11.9,1.33 12.42,1.31 12.53,1.46 12.89,1.6 13.28,2.15 13.53,2.69 13.53,3.05 13.72,3.14 
	13.51,3.62 13.74,4.11 13.46,4.53 13.44,4.95 13.03,5.7 12.99,6.09 12.81,6.45 12.4,6.69 12.36,6.97 12.28,7.29 12,7.42 11.37,7.46 
	10.84,7.38 10.66,7.52 10.45,7.34 10.26,7.32 9.2,7.26 8.87,7.16 8.78,6.8 8.4,6.36 8.2,5.77 7.92,5.01 7.91,4.09 7.66,3.86 "/>
</svg>
