<?xml version="1.0" encoding="utf-8"?>
<!-- Generator: Adobe Illustrator 16.0.4, SVG Export Plug-In . SVG Version: 6.00 Build 0)  -->
<!DOCTYPE svg PUBLIC "-//W3C//DTD SVG 1.1//EN" "http://www.w3.org/Graphics/SVG/1.1/DTD/svg11.dtd">
<svg version="1.1" id="Ebene_1" xmlns="http://www.w3.org/2000/svg" xmlns:xlink="http://www.w3.org/1999/xlink" x="0px" y="0px"
	 width="19.327px" height="53.083px" viewBox="0 0 19.327 53.083" enable-background="new 0 0 19.327 53.083" xml:space="preserve">
<path fill="#1A1A18" d="M0.763,16.595c0.074-0.35,0.41-1.216,0.512-1.491s0.254-0.571,0.254-0.571s-0.088-0.047-0.147-0.096
	s-0.09-0.104-0.032-0.211c0.109-0.206,0.161-0.346,0.398-0.709c0.297-0.453,0.527-0.811,0.828-1.281
	c0.302-0.47,0.848-1.112,1.094-1.422c0.246-0.309,0.859-0.797,1.109-1c0.328-0.266,0.755-0.479,1.062-0.609
	C6.248,9.032,6.648,8.937,6.919,8.86C7.31,8.751,7.558,8.686,7.654,8.626c0.096-0.059,0.438-0.25,0.438-0.25h0.008
	C8.03,8.256,7.958,8.122,7.888,7.97C7.703,7.563,7.529,7.36,7.529,7.36S7.26,7.157,7.169,7.063c-0.156-0.162-0.132-0.53-0.188-0.688
	C6.927,6.22,6.967,5.913,6.967,5.772c0-0.101,0.136-0.184,0.136-0.184S6.958,5.06,6.871,4.642C6.785,4.224,6.769,3.954,6.76,3.583
	C6.751,3.214,6.939,2.509,7.259,2.128c0.147-0.197,0.307-0.363,0.602-0.51C7.989,1.555,8.357,1.384,8.53,1.335
	c0.009-0.047,0.188-0.253,0.484-0.438c0.306-0.19,1.039-0.215,1.391,0.016c0.377,0.249,0.469,0.484,0.469,0.484
	s0.856,0.459,1.172,0.906c0.145,0.205,0.38,0.531,0.438,1.062c0.052,0.477,0.016,1.031-0.219,1.844l-0.062,0.484
	c0,0,0.108-0.003,0.172,0.156c0.064,0.159,0.093,0.301,0.046,0.479s-0.167,0.711-0.344,0.854c-0.175,0.144-0.328,0.25-0.328,0.25
	s-0.184,0.377-0.406,0.734c-0.038,0.062-0.061,0.107-0.09,0.159l0.262,0.097c0.219,0.125,0.422,0.234,0.719,0.328
	c0.206,0.064,0.797,0.266,1.188,0.406c0.277,0.1,0.704,0.297,1.157,0.625c0.325,0.235,0.859,0.703,1.203,1.078
	c0.25,0.272,0.578,0.67,0.906,1.125c0.255,0.354,1,1.562,1,1.562s0.258,0.461,0.334,0.604s0.082,0.237,0.027,0.279
	c-0.055,0.043-0.221,0.164-0.221,0.164s0.141,0.274,0.297,0.672c0.156,0.398,0.363,0.908,0.438,1.219
	c0.073,0.311,0.107,0.501,0.094,0.797s-0.055,0.501-0.109,0.703c-0.057,0.203-0.156,0.295-0.281,0.453
	c-0.127,0.157-0.274,0.217-0.547,0.312c-0.273,0.096-0.445,0.014-0.766-0.047c-0.465-0.089-1.724-0.511-2.156-0.641
	c-0.434-0.129-0.938-0.266-0.938-0.266s-0.055,0.58-0.078,0.891c-0.021,0.312-0.052,1.524-0.078,1.906
	c-0.047,0.688,0.026,1.356,0.016,1.547c-0.01,0.189-0.076,0.346-0.049,0.391c0.027,0.043,0.129,0.195,0.191,0.396
	c0.062,0.199-0.031,0.402-0.01,0.502c0.024,0.1,0.195,0.207,0.298,0.453c0.102,0.246,0.25,0.971,0.281,1.375
	c0.033,0.402,0.184,2.168,0.211,2.756s0.134,2.174,0.148,2.602c0.016,0.428,0.07,1.363,0.085,1.896
	c0.013,0.533,0.04,1.117,0.04,1.338s0.041,0.766,0.027,1.045c-0.006,0.133-0.161,0.154-0.161,0.154l-0.824,0.08
	c0,0-0.041,0.438-0.062,0.857c-0.02,0.422-0.009,1.223-0.009,1.223s0.203,0.383,0.239,0.6c0.037,0.217-0.114,0.746-0.101,0.9
	s0.078,0.891,0.101,1.244c0.023,0.352-0.009,0.721-0.021,1.006c-0.012,0.287-0.039,0.852-0.08,1.18
	c-0.041,0.326-0.149,0.754-0.246,1.15c-0.096,0.396-0.256,1.078-0.312,1.422c-0.057,0.342-0.139,0.842-0.193,1.268
	s-0.093,0.848-0.107,0.998c-0.016,0.15-0.012,0.684-0.012,0.684s0.068,0.291,0.08,0.4s0.024,0.307,0.024,0.307
	s0.122,0.4,0.149,0.602c0.029,0.201,0.051,0.891,0.033,1.016s-0.062,0.248-0.081,0.342c-0.019,0.092-0.024,0.467-0.035,0.588
	c-0.011,0.123-0.071,0.326-0.191,0.51c-0.121,0.186-0.452,0.525-0.704,0.629c-0.252,0.1-0.828,0.283-0.979,0.281
	c-0.148-0.004-0.34-0.047-0.457-0.105c-0.117-0.061-0.133-0.137-0.221-0.281c-0.088-0.146-0.162-0.43-0.16-0.744
	c0.004-0.314,0.184-1.773,0.238-2.035c0.054-0.264,0.139-0.713,0.09-0.906c-0.05-0.195-0.357-0.756-0.367-0.916
	c-0.012-0.16,0.066-0.176,0.137-0.227c0.071-0.053,0.202-0.01,0.202-0.01s0.02-0.484-0.021-0.91c-0.042-0.426-0.206-1.5-0.274-2.191
	c-0.068-0.689-0.023-1.893-0.023-1.893l0.061-0.941l0.159-1.93c0,0,0.095-0.396,0.05-0.469c-0.043-0.072-0.162-0.303-0.184-0.416
	s-0.048-0.373-0.035-0.525s0.041-0.352,0.068-0.432c0.028-0.082-0.098-0.348-0.199-0.729c-0.102-0.383-0.375-1.41-0.375-1.41
	s-0.177-0.01-0.26-0.014c-0.109-0.004-0.113-0.066-0.113-0.066l-0.064-0.156l-0.072,0.133c0,0-0.024,0.064-0.105,0.09
	c-0.083,0.027-0.303,0.012-0.303,0.012L8.904,36.63l-0.206,0.773c0,0,0.04,0.232,0.057,0.387c0.017,0.156,0.035,0.434-0.024,0.57
	c-0.059,0.137-0.118,0.191-0.141,0.371c-0.027,0.221,0.187,2.562,0.219,3.043c0.033,0.482,0.043,1.586-0.014,2.191
	c-0.055,0.607-0.273,1.939-0.301,2.234s0.004,0.91,0.004,0.91s0.135-0.057,0.203,0.01c0.066,0.066,0.137,0.094,0.136,0.227
	S8.47,48.263,8.47,48.263s0.073,0.654,0.09,0.906c0.016,0.252,0.252,1.865,0.236,2.035c-0.016,0.172-0.097,0.611-0.159,0.744
	c-0.062,0.133-0.079,0.178-0.22,0.281c-0.143,0.102-0.186,0.092-0.459,0.105c-0.272,0.01-0.655-0.105-0.977-0.281
	c-0.322-0.178-0.594-0.459-0.705-0.629c-0.109-0.166-0.149-0.322-0.191-0.51c-0.041-0.186-0.014-0.475-0.035-0.588
	c-0.021-0.113-0.06-0.217-0.081-0.342c-0.021-0.125,0.019-0.791,0.032-1.016c0.016-0.227,0.135-0.49,0.15-0.602
	c0.016-0.109,0.006-0.166,0.024-0.307s0.074-0.293,0.081-0.4c0.006-0.107,0.025-0.363-0.012-0.684s-0.183-1.713-0.302-2.266
	c-0.119-0.555-0.479-2.15-0.56-2.572c-0.08-0.424-0.119-1.701-0.1-2.186c0.02-0.486,0.071-1.191,0.1-1.244
	c0.029-0.051-0.133-0.516-0.1-0.9c0.033-0.387,0.213-0.52,0.24-0.6c0.025-0.08,0.023-0.893-0.01-1.223
	c-0.033-0.328-0.141-0.943-0.141-0.943S4.8,35.011,4.593,34.984c-0.11-0.014-0.157-0.029-0.154-0.146
	c0.004-0.117,0.044-0.645,0.044-0.645l0.15-3.229c0,0,0.083-1.949,0.124-2.641c0.036-0.619,0.059-1.109,0.109-1.514
	s0.068-0.896,0.137-1.324c0.068-0.426,0.179-1.129,0.26-1.469c0.082-0.342,0.246-0.604,0.246-0.604s-0.045-0.309-0.022-0.559
	s0.125-0.369,0.146-0.426c0.021-0.057,0.007-0.158,0.004-0.309c-0.004-0.221,0.062-0.597,0.048-0.979s-0.008-0.99-0.047-1.594
	c-0.047-0.734-0.109-1.703-0.109-1.703s-0.885,0.262-1.516,0.453c-0.629,0.191-1.174,0.314-1.594,0.422
	c-0.24,0.062-0.676,0.054-0.922-0.047c-0.18-0.074-0.387-0.25-0.484-0.359c-0.228-0.261-0.309-0.541-0.335-0.868
	C0.653,17.117,0.691,16.943,0.763,16.595z"/>
<path id="skin-arm-r" fill="#F9CAA9" d="M14.124,15.845c0,0,1.066,0.255,1.127,0.303c0.06,0.048,0.385,0.402,0.42,0.452
	c0.037,0.052,0.136,0.097,0.216,0.089c0.081-0.008,0.144-0.069,0.136-0.125c-0.009-0.058-0.123-0.191-0.234-0.372
	c-0.062-0.101-0.268-0.419-0.268-0.419s0.215-0.092,0.42-0.21c0.205-0.117,0.729-0.355,0.979-0.501
	c0.252-0.146,0.587-0.314,0.587-0.314s0.23,0.501,0.371,0.857c0.143,0.355,0.307,0.84,0.4,1.2c0.064,0.25,0.065,0.617-0.014,0.857
	c-0.08,0.238-0.112,0.365-0.213,0.471c-0.1,0.106-0.194,0.203-0.359,0.258c-0.164,0.054-0.327,0.048-0.492,0.014
	c-0.166-0.033-0.607-0.1-1.125-0.272c-0.519-0.173-2.187-0.709-2.187-0.709s0.016-0.312,0.062-0.797S14.124,15.845,14.124,15.845z"
	/>
<path id="player-shirt" fill="#0068B4" d="M2.31,13.376c0.211-0.35,0.529-0.832,0.734-1.125c0.207-0.293,0.579-0.82,0.844-1.141
	c0.266-0.319,0.812-0.812,1.188-1.094c0.368-0.275,0.859-0.531,1.266-0.672c0.384-0.133,1.203-0.328,1.203-0.328
	s0.242-0.055,0.328-0.125c0.088-0.069,0.189-0.098,0.25-0.109c0.061-0.011,0.969,0.078,1.5,0.078c0.656,0,0.861-0.078,1.156-0.094
	c0.295-0.015,0.484-0.062,0.484-0.062l0.249,0.12c0,0,0.323,0.175,0.499,0.207c0.178,0.033,0.736,0.251,1.268,0.438
	c0.322,0.113,0.672,0.266,1.095,0.562c0.322,0.227,0.848,0.678,1.141,1.031c0.292,0.354,0.727,0.875,0.938,1.188
	c0.209,0.312,0.463,0.688,0.674,1.044c0.154,0.262,0.371,0.695,0.428,0.783c0.057,0.089,0.027,0.103-0.041,0.154
	c-0.066,0.052-0.215,0.163-0.565,0.343s-0.933,0.489-1.236,0.643c-0.305,0.153-0.502,0.271-0.61,0.342
	c-0.107,0.073-0.173,0.032-0.173,0.032l-0.608-0.149c0,0-0.429-0.547-0.534-0.72c-0.104-0.175-0.331-0.372-0.422-0.368
	c-0.092,0.003-0.227,0.115-0.221,0.235s0.572,0.837,0.59,0.958c0.02,0.12-0.053,0.27-0.078,0.5
	c-0.031,0.281-0.094,0.538-0.125,0.797c-0.062,0.521-0.086,1.296-0.141,2.031c-0.055,0.734-0.029,2.057-0.057,2.438
	s0.039,0.675,0.023,0.799s-0.029,0.117-0.18,0.172c-0.151,0.056-0.945,0.144-1.479,0.218c-0.533,0.072-1.342,0.131-1.629,0.131
	s-0.506,0-1.026-0.043c-0.521-0.045-1.368-0.119-1.78-0.177c-0.41-0.06-0.881-0.103-1.021-0.133
	c-0.141-0.029-0.191-0.073-0.195-0.205c-0.005-0.133,0.057-0.604,0.037-1.012c-0.021-0.467-0.078-2.422-0.115-2.86
	c-0.035-0.438-0.082-1.234-0.125-1.656c-0.042-0.424-0.109-0.856-0.078-0.984c0.033-0.129,0.448-0.816,0.48-0.945
	c0.033-0.129-0.072-0.283-0.205-0.264c-0.131,0.018-0.293,0.23-0.396,0.352c-0.105,0.122-0.492,0.664-0.584,0.739
	c-0.055,0.045-0.531,0.184-0.594,0.188s-0.401-0.209-0.684-0.367c-0.283-0.158-1.225-0.636-1.41-0.735
	c-0.132-0.07-0.369-0.202-0.479-0.299c-0.092-0.08,0.017-0.245-0.023-0.162C1.828,14.151,2.101,13.725,2.31,13.376z"/>
<path id="skin-leg-r" fill-rule="evenodd" clip-rule="evenodd" fill="#F9CAA9" d="M10.861,36.351
	c0.11,0.367,0.282,0.881,0.282,0.881s0.417-0.072,0.636-0.102s0.424-0.045,0.739-0.045c0.314,0,0.94-0.012,0.94-0.012l0.072-1.914
	c0,0-0.63,0.021-1.013,0.047c-0.384,0.027-0.524,0.002-0.905,0.029c-0.382,0.027-0.975,0.023-0.975,0.023
	S10.752,35.984,10.861,36.351z"/>
<path id="player-sock-r" fill-rule="evenodd" clip-rule="evenodd" fill="#0068B4" d="M11.052,41.32
	c0.043-0.588,0.097-1.443,0.131-1.846c0.035-0.402,0.125-0.707,0.086-0.82c-0.038-0.111-0.154-0.164-0.205-0.352
	c-0.053-0.188-0.033-0.5,0.039-0.557c0.073-0.057,0.258-0.125,0.439-0.156c0.182-0.033,0.463-0.094,0.705-0.1
	c0.243-0.006,1.163-0.025,1.236,0.021c0.074,0.045,0.124,0.104,0.16,0.191c0.037,0.088,0.069,0.188,0.061,0.301
	c-0.01,0.111-0.064,0.377-0.154,0.443c-0.088,0.064-0.258,0-0.385,0.018c-0.128,0.018-0.301-0.004-0.36,0.004
	c-0.109,0.014-0.172,0.049-0.15,0.146s0.134,0.158,0.231,0.16c0.097,0.002,0.658,0.031,0.686,0.09s0.139,0.82,0.15,1.25
	s-0.055,1.559-0.137,2.117s-0.465,1.896-0.589,2.689c-0.123,0.795-0.253,2.502-0.29,2.553c-0.038,0.051-0.104,0.021-0.16-0.031
	c-0.056-0.051,0.026-0.236-0.049-0.32c-0.076-0.084-0.164-0.105-0.336-0.098c-0.17,0.008-0.268,0.055-0.393,0.131
	c-0.127,0.074-0.096,0.252-0.16,0.311c-0.062,0.059-0.164,0.086-0.229,0.043s-0.019-0.615-0.069-1.234
	c-0.052-0.617-0.243-1.354-0.299-2.309C10.957,43.011,11.011,41.908,11.052,41.32z"/>
<path fill-rule="evenodd" clip-rule="evenodd" fill="#1A1A18" d="M12.109,36.126c0.135-0.025,0.618,0.135,0.67,0.105
	c0.054-0.027,0.07-0.066,0.021-0.143c-0.05-0.076-0.475-0.342-0.652-0.326c-0.178,0.014-0.51,0.174-0.576,0.279
	c-0.066,0.102-0.133,0.279-0.037,0.287c0.093,0.006,0.179,0.076,0.266,0.041C11.888,36.335,11.974,36.15,12.109,36.126z"/>
<path fill-rule="evenodd" clip-rule="evenodd" fill="#FFFFFF" d="M12.449,51.201c-0.073-0.057-0.15-0.059-0.232,0.014
	c-0.082,0.074-0.082,0.146-0.055,0.236c0.027,0.088,0.205,0.146,0.164,0.189c-0.041,0.045-0.273,0.162-0.479,0.221
	c-0.103,0.029-0.292,0.088-0.465,0.059c-0.174-0.027-0.211-0.008-0.331-0.143c-0.121-0.137-0.135-0.371-0.135-0.592
	s0.036-0.541,0.038-0.572s0.029-0.119,0.098-0.164c0.07-0.043,0.157-0.078,0.157-0.078l1.773,0.139c0,0,0.055,0.131,0.041,0.25
	c-0.014,0.117-0.055,0.338-0.123,0.426s-0.246,0.221-0.301,0.266C12.545,51.494,12.523,51.253,12.449,51.201z"/>
<path fill-rule="evenodd" clip-rule="evenodd" fill="#1A1A18" d="M12.046,50.933c0.033-0.072,0.189-0.096,0.27-0.084
	c0.078,0.012,0.328,0.039,0.299,0.105c-0.029,0.068-0.207,0.127-0.316,0.098S12.011,51.007,12.046,50.933z"/>
<path fill-rule="evenodd" clip-rule="evenodd" fill="#1A1A18" d="M12.195,50.689c-0.02-0.062,0.16-0.096,0.27-0.086
	c0.108,0.008,0.211,0.016,0.2,0.07c-0.01,0.057-0.119,0.098-0.271,0.084C12.244,50.744,12.214,50.751,12.195,50.689z"/>
<polygon fill-rule="evenodd" clip-rule="evenodd" fill="#FFFFFF" points="11.966,50.306 11.107,50.246 11.096,50.183 11.566,50.166 
	13.006,50.312 13.107,50.347 13.015,50.375 11.966,50.306 "/>
<path fill-rule="evenodd" clip-rule="evenodd" fill="#FFFFFF" d="M11.373,50.037c-0.072,0.002-0.148-0.033-0.199-0.066
	c-0.051-0.035-0.062-0.213,0.039-0.344c0.043-0.057,0.113-0.252,0.225-0.309c0.152-0.078,0.256-0.102,0.355-0.133
	c0.171-0.053,0.562,0.02,0.705,0.018s0.352,0.006,0.426,0.09c0.073,0.084,0.169,0.26,0.184,0.422
	c0.014,0.162,0.014,0.412-0.124,0.426c-0.137,0.016-0.753-0.059-0.985-0.088S11.445,50.037,11.373,50.037z"/>
<path fill-rule="evenodd" clip-rule="evenodd" fill="#1A1A18" d="M11.576,49.632c0,0-0.174-0.039-0.152-0.109
	c0.02-0.068,0.239-0.07,0.311-0.072c0.072,0,0.203-0.053,0.199,0.07c-0.004,0.121-0.223,0.092-0.236,0.164
	c-0.014,0.074,0.213,0.043,0.189,0.117c-0.025,0.074-0.131,0.08-0.27,0.084s-0.286-0.01-0.301-0.105
	C11.3,49.685,11.576,49.632,11.576,49.632z"/>
<path id="skin-leg-l" fill-rule="evenodd" clip-rule="evenodd" fill="#F9CAA9" d="M8.265,37.232c0,0-0.483-0.111-0.805-0.129
	c-0.322-0.018-0.555-0.061-0.801-0.061s-0.709,0.031-0.709,0.031s-0.002-0.826-0.043-1.119C5.865,35.66,5.825,35.13,5.825,35.13
	s0.562,0.016,0.89,0.045s0.671,0.047,1.082,0.061c0.41,0.012,0.975,0.023,0.975,0.023s-0.086,0.475-0.195,1.018
	C8.466,36.822,8.265,37.232,8.265,37.232z"/>
<path id="player-sock-l" fill-rule="evenodd" clip-rule="evenodd" fill="#0068B4" d="M8.371,41.32
	c-0.041-0.396-0.099-1.531-0.145-1.846c-0.047-0.314-0.114-0.721-0.088-0.82c0.027-0.098,0.167-0.207,0.207-0.352
	c0.039-0.143,0.018-0.514-0.041-0.557c-0.057-0.043-0.231-0.125-0.438-0.156c-0.207-0.033-0.477-0.078-0.705-0.1
	c-0.228-0.021-1.179-0.025-1.237,0.021c-0.059,0.045-0.11,0.104-0.16,0.191c-0.047,0.088-0.07,0.174-0.059,0.301
	s0.076,0.391,0.152,0.443c0.078,0.051,0.229,0.014,0.387,0.018c0.156,0.004,0.416-0.061,0.478-0.021s0.068,0.104,0.034,0.172
	c-0.033,0.068-0.137,0.129-0.232,0.16s-0.605,0.053-0.666,0.115c-0.06,0.062-0.176,1.072-0.172,1.428
	c0.003,0.355,0.078,1.498,0.14,1.855c0.061,0.357,0.577,2.549,0.638,3.031s0.199,2.219,0.238,2.27
	c0.041,0.051,0.09,0.006,0.161-0.031c0.071-0.035,0-0.295,0.05-0.32c0.05-0.023,0.09-0.039,0.268-0.055
	c0.134-0.01,0.401,0.041,0.461,0.088c0.061,0.045,0.121,0.266,0.159,0.311c0.037,0.043,0.19,0.1,0.229,0.043
	c0.041-0.059,0.044-0.881,0.07-1.234c0.025-0.354,0.232-1.633,0.279-2.25S8.404,41.64,8.371,41.32z"/>
<path fill-rule="evenodd" clip-rule="evenodd" fill="#1A1A18" d="M7.607,36.371C7.466,36.365,7.46,36.15,7.3,36.126
	c-0.162-0.025-0.579,0.09-0.672,0.105c-0.092,0.016-0.085-0.053-0.02-0.143c0.064-0.092,0.385-0.324,0.639-0.312
	c0.256,0.014,0.521,0.189,0.589,0.266c0.069,0.072,0.103,0.205,0.038,0.287C7.809,36.41,7.607,36.371,7.607,36.371
	S7.748,36.376,7.607,36.371z"/>
<polygon fill-rule="evenodd" clip-rule="evenodd" fill="#FFFFFF" points="7.441,50.306 8.302,50.246 8.312,50.183 7.843,50.166 
	6.402,50.312 6.302,50.347 6.392,50.375 7.441,50.306 "/>
<path fill-rule="evenodd" clip-rule="evenodd" fill="#1A1A18" d="M9.269,17.662c-0.051-0.158,0.186-0.901,0.246-1.103
	c0.06-0.203,0.164-1.206,0.098-1.483c-0.065-0.278-0.277-1.194-0.246-1.509c0.031-0.312,0.242-1.018,0.246-1.1
	c0.004-0.08-0.007-0.353,0.053-0.437c0.061-0.085,0.135-0.037,0.146,0.079c0.011,0.115-0.026,2.205,0.013,2.425
	s0.231,0.998,0.258,1.323c0.027,0.322-0.119,1.521-0.155,1.729c-0.036,0.21-0.134,0.581-0.174,0.667s-0.16,0.094-0.237,0.024
	C9.438,18.209,9.269,17.662,9.269,17.662S9.318,17.82,9.269,17.662z"/>
<path id="player-shorts" fill="#FFFFFF" d="M4.962,31.607c0.014-0.49,0.089-1.885,0.106-2.414c0.017-0.531,0.071-1.811,0.14-2.367
	c0.068-0.561,0.126-1.232,0.172-1.535c0.047-0.303,0.199-1.096,0.246-1.207s0.092-0.299,0.275-0.279
	c0.183,0.021,1.251,0.209,1.456,0.152c0.205-0.055,0.233-0.215,0.219-0.264c-0.016-0.049-0.15-0.131-0.288-0.139
	c-0.136-0.008-0.383-0.068-0.643-0.111c-0.26-0.045-0.501-0.072-0.613-0.146s-0.146-0.289-0.129-0.402
	c0.017-0.111,0.111-0.234,0.215-0.227c0.103,0.012,0.301,0.049,0.729,0.111s1.551,0.193,2.139,0.238
	c0.589,0.043,1.219,0.072,1.821,0.014s1.501-0.17,1.757-0.195c0.255-0.023,0.598-0.098,0.729-0.109
	c0.082-0.006,0.197,0.129,0.225,0.275c0.027,0.148-0.014,0.229-0.096,0.35s-1.484,0.143-1.562,0.184
	c-0.08,0.041-0.121,0.1-0.121,0.217c-0.001,0.117,0.143,0.16,0.235,0.191c0.093,0.029,0.227,0,0.323-0.008
	c0.098-0.008,1.199-0.125,1.311-0.084c0.129,0.047,0.232,0.229,0.293,0.357c0.062,0.127,0.16,0.797,0.195,1.117
	c0.038,0.322,0.128,1.164,0.159,1.604c0.029,0.439,0.111,2.174,0.152,2.805c0.031,0.484,0.103,1.793,0.119,2.301
	C14.543,32.544,14.6,34.5,14.6,34.5s0.026,0.141-0.083,0.158c-0.11,0.018-0.562,0.047-1.096,0.092
	c-0.533,0.043-0.862,0.059-1.355,0.072c-0.492,0.016-0.848,0.029-1.273,0.029c-0.284,0-0.588-0.02-0.711-0.025
	c-0.123-0.004-0.127-0.094-0.127-0.094l-0.039-0.441l-0.066-2.459l-0.002-1.027c0,0,0.023-1.891,0.061-1.957s0.593-0.25,0.732-0.307
	c0.14-0.055,1.064-0.387,1.123-0.441c0.057-0.055-0.061-0.104-0.172-0.16c-0.113-0.057-0.404-0.078-0.539-0.057
	c-0.133,0.023-0.297,0.127-0.381,0.174s-0.305,0.15-0.494,0.193c-0.26,0.061-0.419,0.07-0.572,0.064
	C9.452,28.31,9.4,28.289,9.22,28.21c-0.179-0.078-0.578-0.348-0.782-0.367s-0.413,0.033-0.479,0.066
	c-0.066,0.031-0.202,0.07-0.217,0.141c-0.014,0.068,0.623,0.16,0.889,0.348s0.471,0.271,0.584,0.326
	c0.114,0.057,0.307,0.09,0.32,0.158c0.013,0.07,0.055,1.838,0.055,1.838l-0.042,1.293l-0.057,2.258c0,0-0.021,0.238-0.022,0.373
	c-0.003,0.135-0.002,0.139-0.125,0.143c-0.125,0.006-0.631,0.021-1.15,0.021s-1.061-0.039-1.557-0.057s-1.551-0.096-1.688-0.109
	c-0.137-0.012-0.117-0.041-0.109-0.262C4.853,34.027,4.949,32.097,4.962,31.607z"/>
<path id="skin-arm-l" fill="#F9CAA9" d="M5.341,15.876c0,0-1.111,0.224-1.197,0.271c-0.085,0.048-0.332,0.387-0.42,0.452
	c-0.089,0.065-0.109,0.097-0.215,0.089c-0.107-0.008-0.135-0.122-0.107-0.199c0.027-0.078,0.109-0.146,0.206-0.298
	c0.065-0.103,0.231-0.393,0.231-0.393s-0.24-0.146-0.506-0.295c-0.314-0.176-0.626-0.34-0.903-0.471
	c-0.276-0.13-0.54-0.286-0.54-0.286s-0.055,0.148-0.373,0.857s-0.455,1.297-0.455,1.649c0,0.2,0.03,0.611,0.281,0.879
	c0.252,0.268,0.618,0.306,0.854,0.271c0.233-0.033,0.699-0.144,1.123-0.272c0.425-0.128,2.162-0.74,2.162-0.74
	s-0.039-0.42-0.078-0.797C5.357,16.142,5.341,15.876,5.341,15.876z"/>
<path fill-rule="evenodd" clip-rule="evenodd" fill="#1A1A18" d="M11.675,51.037c-0.033-0.072-0.189-0.096-0.269-0.084
	s-0.329,0.037-0.3,0.105s0.207,0.127,0.316,0.098S11.71,51.111,11.675,51.037z"/>
<path fill-rule="evenodd" clip-rule="evenodd" fill="#1A1A18" d="M11.623,50.689c0.02-0.062-0.16-0.096-0.27-0.086
	c-0.108,0.008-0.211,0.016-0.2,0.07c0.011,0.057,0.12,0.098,0.271,0.084S11.603,50.751,11.623,50.689z"/>
<path fill-rule="evenodd" clip-rule="evenodd" fill="#1A1A18" d="M11.812,51.488c-0.035-0.076-0.199-0.102-0.281-0.09
	c-0.084,0.014-0.346,0.039-0.314,0.111c0.029,0.07,0.217,0.133,0.332,0.102C11.662,51.58,11.848,51.562,11.812,51.488z"/>
<path fill-rule="evenodd" clip-rule="evenodd" fill="#1A1A18" d="M12.603,49.632c0,0,0.173-0.039,0.152-0.109
	c-0.02-0.068-0.239-0.07-0.311-0.072c-0.072,0-0.204-0.053-0.199,0.07c0.004,0.121,0.223,0.092,0.236,0.164
	c0.014,0.074-0.214,0.043-0.189,0.117c0.025,0.074,0.131,0.08,0.27,0.084s0.285-0.01,0.302-0.105
	C12.878,49.685,12.603,49.632,12.603,49.632z"/>
<path fill-rule="evenodd" clip-rule="evenodd" fill="#FFFFFF" d="M6.925,51.214C7,51.16,7.076,51.156,7.158,51.23
	c0.083,0.072,0.083,0.146,0.056,0.234s-0.205,0.146-0.165,0.191c0.041,0.043,0.273,0.162,0.479,0.221
	c0.103,0.029,0.292,0.086,0.466,0.059c0.173-0.029,0.21-0.008,0.331-0.145c0.12-0.135,0.134-0.371,0.134-0.59
	c0-0.221-0.036-0.541-0.038-0.572c-0.003-0.031-0.03-0.119-0.099-0.164s-0.156-0.08-0.156-0.08l-1.773,0.139
	c0,0-0.055,0.133-0.041,0.25c0.013,0.117,0.055,0.338,0.123,0.428c0.068,0.088,0.246,0.219,0.301,0.264S6.852,51.267,6.925,51.214z"
	/>
<path fill-rule="evenodd" clip-rule="evenodd" fill="#1A1A18" d="M7.33,50.949c-0.034-0.072-0.189-0.096-0.27-0.084
	s-0.33,0.037-0.301,0.105c0.03,0.068,0.207,0.127,0.316,0.098C7.186,51.039,7.364,51.021,7.33,50.949z"/>
<path fill-rule="evenodd" clip-rule="evenodd" fill="#1A1A18" d="M7.179,50.703c0.021-0.062-0.16-0.096-0.268-0.086
	c-0.109,0.01-0.212,0.018-0.201,0.072c0.01,0.055,0.119,0.098,0.27,0.084S7.16,50.765,7.179,50.703z"/>
<path fill-rule="evenodd" clip-rule="evenodd" fill="#FFFFFF" d="M8.002,50.052c0.073,0,0.148-0.035,0.199-0.068
	c0.052-0.035,0.062-0.213-0.039-0.344c-0.043-0.055-0.112-0.25-0.224-0.307c-0.152-0.08-0.258-0.102-0.355-0.133
	c-0.172-0.053-0.564,0.018-0.707,0.016s-0.352,0.006-0.425,0.092c-0.073,0.084-0.169,0.26-0.183,0.422
	c-0.014,0.16-0.014,0.41,0.123,0.426c0.137,0.014,0.753-0.059,0.984-0.088C7.61,50.039,7.93,50.05,8.002,50.052z"/>
<path fill-rule="evenodd" clip-rule="evenodd" fill="#1A1A18" d="M7.799,49.648c0,0,0.173-0.039,0.153-0.109
	c-0.021-0.07-0.24-0.072-0.312-0.072c-0.072-0.002-0.204-0.053-0.2,0.068s0.224,0.092,0.238,0.166
	c0.013,0.072-0.215,0.041-0.189,0.115c0.024,0.074,0.131,0.08,0.27,0.086c0.139,0.004,0.285-0.012,0.301-0.105
	C8.076,49.701,7.799,49.648,7.799,49.648z"/>
<path fill-rule="evenodd" clip-rule="evenodd" fill="#1A1A18" d="M7.7,51.052c0.033-0.072,0.189-0.098,0.269-0.086
	c0.08,0.014,0.33,0.039,0.301,0.107s-0.207,0.127-0.316,0.098S7.665,51.125,7.7,51.052z"/>
<path fill-rule="evenodd" clip-rule="evenodd" fill="#1A1A18" d="M7.753,50.703c-0.021-0.062,0.16-0.096,0.268-0.086
	c0.109,0.01,0.211,0.018,0.201,0.072s-0.119,0.098-0.27,0.084S7.773,50.765,7.753,50.703z"/>
<path fill-rule="evenodd" clip-rule="evenodd" fill="#1A1A18" d="M7.562,51.501c0.037-0.076,0.199-0.102,0.283-0.088
	c0.082,0.012,0.344,0.039,0.313,0.109c-0.03,0.072-0.216,0.133-0.331,0.104C7.713,51.595,7.527,51.578,7.562,51.501z"/>
<path fill-rule="evenodd" clip-rule="evenodd" fill="#1A1A18" d="M6.773,49.648c0,0-0.174-0.039-0.154-0.109
	c0.021-0.07,0.24-0.072,0.312-0.072c0.072-0.002,0.203-0.053,0.199,0.068s-0.224,0.092-0.238,0.166
	c-0.013,0.072,0.215,0.041,0.189,0.115c-0.023,0.074-0.131,0.08-0.269,0.086c-0.139,0.004-0.286-0.012-0.302-0.105
	C6.496,49.701,6.773,49.648,6.773,49.648z"/>
<path id="skin-face-l" fill-rule="evenodd" clip-rule="evenodd" fill="#F9CAA9" d="M8.529,8.438C8.326,8.115,8.039,7.56,7.947,7.394
	C7.826,7.175,7.763,7.105,7.687,7.06C7.611,7.015,7.408,6.904,7.35,6.727s-0.076-0.379-0.076-0.5c0-0.122,0.246,0.351,0.308,0.439
	c0.201,0.292,0.447,0.665,0.628,0.97c0.081,0.139,0.218,0.297,0.337,0.425c0.109,0.117,0.363,0.332,0.529,0.44
	c0,0-0.105-0.016-0.279-0.031S8.529,8.438,8.529,8.438z"/>
<path id="skin-face-r" fill-rule="evenodd" clip-rule="evenodd" fill="#F9CAA9" d="M10.138,8.517
	c0.186-0.155,0.629-0.516,0.842-0.775c0.257-0.312,0.518-0.697,0.734-1c0.063-0.088,0.416-0.652,0.416-0.53
	c0,0.121-0.034,0.308-0.092,0.485s-0.26,0.287-0.337,0.333c-0.076,0.046-0.139,0.114-0.261,0.333
	c-0.091,0.167-0.486,0.85-0.662,1.061c0,0-0.135,0.02-0.285,0.049C10.341,8.501,10.138,8.517,10.138,8.517z"/>
<path id="hair" fill-rule="evenodd" clip-rule="evenodd" fill="#F7DD7F" d="M7.353,2.597c0.123-0.248,0.475-0.65,0.965-0.82
	c0.05-0.018,0.105-0.062,0.149-0.078c-0.107,0.619-0.06,0.91,0.094,1.621c0.031,0.146,0.014,0.234-0.03,0.527
	C8.457,4.348,8.314,5.124,8.255,5.456C8.184,5.862,8.162,6.049,8.191,6.652c0.02,0.386,0.362,0.776,0.445,0.851
	c0.152,0.141,0.223,0.109,0.223,0.109s0.234,0.251,0.336,0.217c0.139-0.047,0.134-0.172,0.169-0.217
	c0.034-0.045,0.015,0.124,0.138,0.201c0.043,0.027,0.23,0.077,0.337-0.154C9.89,7.546,9.855,7.74,9.976,7.813
	c0.129,0.078,0.24-0.146,0.26-0.217c0.059-0.189-0.045-0.031,0.123-0.016s0.307-0.137,0.448-0.368
	c0.083-0.136,0.276-0.681,0.214-1.146c-0.022-0.176-0.11-0.889-0.148-1.293c-0.045-0.494-0.062-1.215-0.03-1.471
	c0.046-0.355,0.247-0.989,0.109-1.5c0.384,0.186,0.626,0.467,0.812,0.668c0.199,0.217,0.459,0.729,0.443,1.225
	c-0.015,0.494-0.076,0.99-0.184,1.408s-0.117,0.712-0.117,0.712s-0.398,0.495-0.674,0.976c-0.156,0.271-0.439,0.629-0.674,0.867
	C10.313,7.906,9.93,8.247,9.593,8.247c-0.367,0-0.73-0.328-0.812-0.418C8.374,7.382,8.32,7.222,7.967,6.632
	C7.802,6.356,7.594,6.04,7.496,5.862C7.373,5.644,7.312,5.321,7.266,5.058C7.195,4.652,7.078,4.3,7.093,3.819
	C7.108,3.34,7.23,2.845,7.353,2.597z"/>
<path id="hair-p" fill="#F7DD7F" d="M8.717,7.241C8.592,7.069,8.949,6.689,8.949,6.689C8.935,6.812,8.853,7.024,8.896,7.206
	c0.051,0.215,0.229,0.395,0.254,0.42C9.022,7.299,9.4,6.678,9.4,6.678C9.432,6.97,9.444,7.28,9.603,7.622
	C9.56,7.53,9.861,6.683,9.861,6.683c0.049,0.233,0.178,0.686,0.18,0.873c-0.003-0.296,0.105-0.566,0.195-0.846
	c0.014-0.042,0.125,0.08,0.158,0.295c0.039,0.247,0.021,0.242,0.058,0.205c0.511-0.52,0.251-1.594,0.25-1.596
	c-0.059-0.457-0.134-1.523-0.133-2.094c-0.038,0.012-0.073,0.021-0.075,0.014c-0.044,0.039-0.151,0.129-0.151,0.129
	s0.078-0.141,0.172-0.359c0.044-0.104,0.071-0.191,0.087-0.258c0.02-0.168,0.079-0.409,0.101-0.57
	c0.031-0.236,0.02-0.373,0.012-0.461c-0.065-0.727-0.484-1.003-1.021-0.992C9.031,1.036,8.728,1.339,8.7,2.132
	C8.694,2.276,8.717,2.741,8.828,3.153c0.017,0.068,0.038,0.141,0.077,0.213c0.109,0.203,0.172,0.297,0.172,0.297
	S8.964,3.561,8.889,3.538C8.867,3.532,8.853,3.526,8.836,3.521c-0.039,0.536-0.233,1.541-0.26,1.705
	C8.499,5.569,8.462,6.063,8.436,6.413C8.413,6.719,8.529,6.982,8.717,7.241z M9.386,1.448c0.268-0.068,0.027,0.014-0.07,0.402
	c-0.041,0.17-0.029,0.8-0.084,0.689C8.935,1.941,9.134,1.513,9.386,1.448z"/>
</svg>
