<?xml version="1.0" encoding="utf-8"?>
<!-- Generator: Adobe Illustrator 16.0.4, SVG Export Plug-In . SVG Version: 6.00 Build 0)  -->
<!DOCTYPE svg PUBLIC "-//W3C//DTD SVG 1.1//EN" "http://www.w3.org/Graphics/SVG/1.1/DTD/svg11.dtd">
<svg version="1.1" id="Ebene_1" xmlns="http://www.w3.org/2000/svg" xmlns:xlink="http://www.w3.org/1999/xlink" x="0px" y="0px"
	 width="18.719px" height="53.478px" viewBox="0 0 18.719 53.478" enable-background="new 0 0 18.719 53.478" xml:space="preserve">
<path fill-rule="evenodd" clip-rule="evenodd" fill="#1A1A18" d="M18.028,16.878c-0.109-0.471-0.387-1.348-0.387-1.348l-0.148-0.449
	c0,0,0.083-0.053,0.174-0.149c0.068-0.074,0.109-0.133,0-0.339c-0.064-0.12-0.639-0.919-0.982-1.435
	c-0.283-0.425-0.812-1.188-1.078-1.531c-0.229-0.297-1.031-1.234-1.453-1.562c-0.268-0.209-1.016-0.516-1.438-0.609
	c-0.327-0.073-1.85-0.29-1.906-0.297c-0.006-0.001-0.045-0.001-0.102-0.002c0.127-0.18,0.317-0.459,0.429-0.688
	c0.176-0.354,0.353-0.657,0.353-0.657s0.089-0.016,0.186-0.11c0.167-0.166,0.203-0.323,0.264-0.485
	C12,7.055,12.068,6.643,12.085,6.538c0.018-0.104-0.114-0.333-0.114-0.333s0.214-0.41,0.313-0.842
	c0.101-0.435,0.096-0.726,0.114-1.11c0.017-0.384-0.228-1.178-0.552-1.582c-0.148-0.208-0.28-0.32-0.585-0.479
	c-0.131-0.068-0.271-0.164-0.45-0.218c-0.008-0.051,0.022-0.233-0.08-0.426c-0.146-0.279-0.321-0.515-0.624-0.712
	C9.795,0.63,9.147,0.554,8.776,0.785c-0.398,0.249-0.398,0.32-0.629,0.653c-0.208,0.3-0.111,0.483-0.111,0.483
	S7.303,2.3,6.964,2.759C6.671,3.155,6.216,3.769,6.55,5.415l0.172,0.747c0,0-0.084-0.011-0.153,0.154
	C6.498,6.48,6.542,6.785,6.586,6.97c0.045,0.187,0.308,0.554,0.487,0.707C7.253,7.83,7.333,7.765,7.333,7.765
	s0.186,0.379,0.389,0.756C7.902,8.859,8.065,9.096,8.1,9.144c-0.075,0-0.118,0-0.118,0S7.245,9.226,6.856,9.284
	C6.469,9.341,5.776,9.527,5.513,9.612c-0.264,0.085-0.875,0.422-1.25,0.734c-0.298,0.248-0.615,0.629-0.797,0.891
	C3.283,11.5,2.95,11.925,2.7,12.284c-0.2,0.287-0.844,1.266-1.078,1.656c-0.112,0.187-0.48,0.774-0.512,0.875
	c-0.032,0.102-0.005,0.126-0.005,0.126l0.121,0.119c0,0-0.135,0.371-0.244,0.695c-0.11,0.322-0.335,1.133-0.38,1.477
	c-0.045,0.346-0.05,0.482-0.026,0.686c0.022,0.205,0.148,0.678,0.468,0.945c0.208,0.176,0.559,0.252,0.953,0.234
	c0.393-0.018,0.752-0.176,1.062-0.266c0.31-0.09,0.847-0.354,1.234-0.5c0.388-0.146,1.125-0.469,1.125-0.469
	s-0.048,0.83-0.062,1.141c-0.013,0.309,0.047,0.516-0.016,1.062c-0.037,0.32-0.031,0.812-0.07,1.268
	c-0.029,0.338-0.048,0.652-0.048,0.652S5.102,22.14,5.04,22.242c-0.063,0.104-0.119,0.398-0.089,0.541
	c0.041,0.191,0.165,0.309,0.137,0.383c-0.055,0.145-0.206,0.484-0.315,0.764c-0.11,0.279-0.182,0.65-0.234,0.885
	c-0.053,0.232-0.128,0.918-0.166,1.385c-0.038,0.465-0.147,2.054-0.147,2.054s-0.128,2.164-0.16,2.84
	c-0.032,0.674-0.11,2.777-0.11,2.777s-0.003,0.852,0.014,1.029c0.008,0.086,0.056,0.107,0.202,0.117
	c0.146,0.008,0.653,0.041,0.653,0.041s0.141,1.031,0.195,1.428s0.232,1.295,0.232,1.295s0.027,0.16-0.013,0.352
	c-0.041,0.191-0.099,0.746-0.063,0.99c0.036,0.246,0.063,0.422,0.181,0.629c0.038,0.066,0.054,0.162,0.05,0.285
	c-0.003,0.125,0,0.496,0.025,0.744c0.026,0.248,0.501,2.74,0.552,2.973c0.049,0.23,0.155,0.822,0.198,1.07
	c0.043,0.248,0.12,1.051,0.12,1.051s-0.131,0.057-0.159,0.172c-0.027,0.113-0.019,0.299,0.059,0.449
	c0.078,0.148,0.197,0.662,0.22,0.729c0.021,0.068-0.096,0.453-0.14,0.643s-0.283,2.381-0.294,2.6
	c-0.01,0.398-0.041,0.934-0.052,1.172c-0.012,0.24-0.025,0.568,0.056,0.697c0.082,0.131,0.267,0.387,0.503,0.457
	c0.236,0.07,0.351,0.053,0.636-0.041c0.284-0.094,0.577-0.285,0.787-0.512c0.209-0.229,0.553-1.854,0.655-2.225
	c0.103-0.371,0.314-1.406,0.338-1.719s-0.169-1-0.175-1.201s-0.031-0.672-0.04-1.178c-0.007-0.508-0.059-1.188-0.061-1.811
	s0.033-2.148,0.033-2.148s-0.044-1.219-0.062-1.533c-0.018-0.312-0.115-1.014-0.123-1.146c-0.007-0.131,0.035-0.379,0.055-0.646
	c0.02-0.268-0.078-0.619-0.127-0.809c-0.051-0.191-0.16-0.352-0.16-0.352s0.055-0.662,0.123-1.045
	c0.068-0.383,0.287-1.322,0.287-1.322s0.362-0.006,0.468-0.012c0.107-0.004,0.133-0.045,0.14-0.148
	c0.009-0.105,0.044-0.326,0.046-0.451c0.003-0.125,0.017-0.316,0.017-0.316s0.037,0.23,0.054,0.396
	c0.018,0.17,0.041,0.207,0.068,0.324c0.027,0.119,0.041,0.186,0.232,0.195c0.192,0.012,0.439,0,0.439,0s0.151,0.83,0.225,1.266
	c0.075,0.436,0.138,1.01,0.127,1.084c-0.011,0.072-0.065,0.209-0.113,0.375c-0.048,0.168-0.084,0.609-0.08,0.83
	c0.004,0.221,0.035,0.514,0.04,0.646c0.006,0.133-0.104,0.621-0.118,0.896c-0.012,0.275-0.013,1.396-0.027,2.059
	c-0.013,0.66-0.023,1.363-0.039,1.857c-0.016,0.494-0.027,1.488-0.029,1.848s-0.059,1.141-0.059,1.141s-0.175,1-0.188,1.201
	c-0.014,0.201,0.238,1.281,0.339,1.719c0.1,0.438,0.509,1.887,0.667,2.096c0.159,0.209,0.544,0.588,0.775,0.641
	s0.422,0.104,0.635,0.041c0.213-0.061,0.384-0.234,0.504-0.457c0.119-0.221,0.123-0.5,0.121-0.846s-0.058-1.203-0.118-1.736
	c-0.062-0.535-0.424-2.211-0.4-2.314c0.024-0.104,0.195-0.744,0.24-0.857c0.044-0.113,0.035-0.234,0.019-0.344
	c-0.016-0.107-0.179-0.277-0.179-0.277s-0.003-0.434,0.06-0.795c0.062-0.359,0.199-1.123,0.323-1.77
	c0.123-0.646,0.481-2.498,0.492-2.734c0.011-0.238,0.019-0.527,0.03-0.625c0.011-0.096,0-0.137,0.054-0.285
	c0.053-0.148,0.2-0.305,0.231-0.662c0.03-0.359-0.042-0.832-0.083-1.045c-0.023-0.123-0.042-0.271-0.042-0.271l0.531-2.84
	c0,0,0.25-0.006,0.496-0.035s0.327-0.057,0.315-0.264c-0.014-0.25-0.014-0.428-0.069-1.088c-0.055-0.662-0.232-3.221-0.301-3.881
	c-0.055-0.543-0.127-1.782-0.164-2.088c-0.055-0.456-0.096-0.883-0.188-1.602c-0.07-0.545-0.197-1.514-0.244-1.809
	s-0.115-0.574-0.18-0.857c-0.035-0.158-0.167-0.289-0.119-0.43c0.047-0.141-0.055-0.541-0.092-0.674
	c-0.035-0.131-0.111-0.166-0.139-0.225s-0.047-0.475-0.07-0.93c-0.031-0.609,0-1.936,0-2.156s-0.016-1.047-0.016-1.047
	s0.672,0.328,1.297,0.562c0.414,0.154,1.182,0.391,1.547,0.453c0.547,0.094,1.033,0.176,1.328,0.047
	c0.37-0.162,0.617-0.354,0.672-0.734C18.192,17.792,18.123,17.283,18.028,16.878z"/>
<path id="skin-leg-r" fill-rule="evenodd" clip-rule="evenodd" fill="#F9CAA9" d="M5.581,37.235c0.06,0.248,0.146,0.445,0.146,0.445
	s0.266,0.154,0.594,0.186c0.327,0.031,0.782-0.027,0.998-0.086c0.215-0.059,0.492-0.207,0.492-0.207s0.037-0.531,0.066-0.787
	c0.03-0.256,0.124-0.744,0.16-1.008c0.035-0.262,0.159-0.686,0.159-0.686s-1.179-0.033-1.684-0.033
	c-0.507,0-1.273-0.014-1.273-0.014S5.536,37.047,5.581,37.235z"/>
<path id="player-sock-r" fill-rule="evenodd" clip-rule="evenodd" fill="#0068B4" d="M6.562,39.442
	c0.141-0.016,0.208-0.078,0.318-0.018s0.176,0.025,0.17,0.152c-0.005,0.129-0.251,0.436-0.45,0.518
	c-0.199,0.08-0.424,0.107-0.538,0.191c-0.113,0.08-0.168,0.193-0.153,0.33c0.014,0.139,0.02,0.338,0.092,0.707
	c0.072,0.367,0.59,3.377,0.626,3.533c0.034,0.156,0.043,0.455,0.066,0.584c0.023,0.131,0.004,0.453,0.041,0.498
	c0.037,0.045,0.347-0.02,0.479,0.004c0.133,0.025,0.319,0.27,0.411,0.457c0.091,0.186,0.117,0.49,0.193,0.566
	s0.168,0.121,0.259,0.092c0.091-0.031,0.171-0.312,0.2-0.428c0.028-0.117-0.09-3.111-0.12-3.607c-0.03-0.494-0.037-1.623-0.04-2
	c-0.003-0.377-0.047-0.625-0.052-0.986c-0.006-0.359-0.112-0.58-0.107-0.727c0.005-0.148,0.1-0.475,0.107-0.701
	c0.007-0.227-0.043-0.465-0.107-0.545c-0.062-0.078-0.021-0.041-0.146-0.02c-0.124,0.021-0.23,0.107-0.519,0.164
	c-0.289,0.057-0.627,0.129-0.999,0.086c-0.372-0.045-0.596-0.121-0.604-0.104c-0.037,0.088-0.087,0.043-0.123,0.279
	c-0.036,0.238-0.055,0.457,0.013,0.678c0.069,0.221,0.192,0.311,0.315,0.375C6.019,39.588,6.422,39.459,6.562,39.442z"/>
<path fill-rule="evenodd" clip-rule="evenodd" fill="#1A1A18" d="M6.931,37.135c-0.035-0.018-0.193,0.045-0.313,0.059
	c-0.119,0.012-0.338-0.105-0.338-0.105s0.101,0.217,0.208,0.293c0.107,0.074,0.215,0.133,0.339,0.104
	C6.95,37.456,6.967,37.155,6.931,37.135z"/>
<path id="player-shorts" fill-rule="evenodd" clip-rule="evenodd" fill="#FFFFFF" d="M14.415,34.514
	c-0.115,0.016-0.631,0.057-0.893,0.064c-0.262,0.01-0.742,0.039-1.207,0.039c-0.466,0-1.023,0.051-1.374,0.047
	c-0.351-0.002-0.83,0.012-0.966,0.012c-0.137,0-0.197-0.016-0.219-0.133c-0.055-0.279-0.068-0.41-0.068-0.41s-0.11-0.75-0.15-1.367
	c-0.041-0.619-0.071-1.152-0.083-1.559c-0.011-0.406-0.06-1.557-0.044-1.838c0.017-0.279,0.049-0.463,0.067-0.629
	c0.018-0.166,0.028-0.297,0.132-0.342s0.864-0.301,0.997-0.401c0.134-0.1,0.327-0.346,0.34-0.428
	c0.013-0.082-0.123-0.049-0.219-0.021c-0.097,0.027-0.206,0.129-0.466,0.219c-0.117,0.039-0.307,0.109-0.466,0.16
	c-0.159,0.053-0.328,0.102-0.451,0.117c-0.124,0.018-0.214,0.012-0.315-0.014c-0.1-0.025-0.315-0.088-0.438-0.205
	c-0.091-0.088-0.206-0.266-0.356-0.354c-0.115-0.066-0.287-0.135-0.342-0.053c-0.055,0.082-0.042,0.111,0.013,0.215
	c0.055,0.102,0.446,0.559,0.588,0.661c0.143,0.104,0.575,0.291,0.596,0.404c0.021,0.111,0.048,0.377,0.048,0.686
	s-0.027,1.221-0.048,1.764s-0.07,1.928-0.093,2.316c-0.023,0.389-0.077,0.977-0.085,1.094c-0.007,0.117-0.016,0.133-0.141,0.146
	c-0.126,0.016-0.631,0.016-1.131,0c-0.5-0.014-1.308-0.014-1.759-0.029c-0.452-0.014-1.328-0.041-1.451-0.057
	c-0.124-0.016-0.144,0.002-0.147-0.205c-0.004-0.209,0.087-2.807,0.11-3.322c0.023-0.518,0.263-4.308,0.3-4.751
	c0.037-0.443,0.171-1.541,0.248-1.859c0.077-0.318,0.365-1.002,0.454-1.07c0.089-0.07,0.167-0.088,0.279-0.086
	c0.111,0,0.666,0.064,0.771,0.068c0.106,0.006,0.274-0.068,0.279-0.127c0.005-0.059-0.027-0.133-0.107-0.215
	c-0.079-0.078-0.081-0.117-0.278-0.127s-0.936-0.158-0.998-0.201c-0.062-0.045-0.047-0.141-0.006-0.24
	c0.04-0.1,0.099-0.125,0.206-0.154c0.106-0.027,1.347,0.059,1.618,0.086c0.27,0.029,0.578,0.086,0.8,0.123s0.642,0.1,0.994,0.113
	c0.352,0.014,0.878,0.018,1.258-0.016c0.38-0.031,0.633-0.07,1.013-0.131c0.38-0.061,1.612-0.26,1.742-0.242
	c0.129,0.016,0.229-0.014,0.252,0.152c0.025,0.166,0.033,0.162-0.051,0.221c-0.085,0.059-0.517,0.137-0.719,0.17
	c-0.201,0.035-0.737,0.037-0.818,0.102c-0.081,0.066-0.179,0.215-0.123,0.295s0.362,0.115,0.503,0.119s0.62-0.115,0.812-0.115
	c0.192,0.002,0.33,0.035,0.412,0.137c0.081,0.102,0.204,0.518,0.26,0.75c0.055,0.232,0.211,1.412,0.291,1.881
	c0.078,0.469,0.229,1.911,0.297,2.675c0.068,0.766,0.255,3.162,0.299,3.766c0.035,0.488,0.099,1.512,0.12,1.879
	C14.504,34.379,14.529,34.5,14.415,34.514z"/>
<path id="player-shirt" fill-rule="evenodd" clip-rule="evenodd" fill="#0068B4" d="M1.966,14.112
	c0.328-0.531,1.261-1.868,1.453-2.172c0.221-0.35,0.813-0.995,0.906-1.109c0.203-0.25,1.003-0.781,1.297-0.891
	c0.293-0.108,0.882-0.237,1.203-0.281C7.278,9.597,7.966,9.55,7.966,9.55l0.531,1.109l0.609,1.484l0.312,0.609l0.438-0.969
	l0.531-1.266l0.438-0.984c0,0,1.211,0.109,1.453,0.156s0.767,0.2,1.078,0.328s0.771,0.484,1.078,0.797
	c0.309,0.312,0.686,0.749,0.922,1.094c0.236,0.346,0.906,1.266,1.125,1.641c0.2,0.343,0.604,0.852,0.672,0.984
	c0.069,0.132,0.04,0.196-0.031,0.266c-0.107,0.106-0.4,0.252-0.578,0.344c-0.24,0.123-0.555,0.279-0.818,0.387
	c-0.262,0.107-0.467,0.213-0.851,0.328s-0.657,0.125-0.657,0.125s-0.068,0.064-0.141-0.053c-0.146-0.219-0.565-0.844-0.506-0.727
	c0.072,0.139-0.084-0.252-0.17-0.248c-0.087,0.005-0.117,0.078-0.129,0.224c-0.012,0.148,0.117,0.484,0.086,0.551
	c-0.029,0.066-0.112,0.082-0.168,0.066c-0.054-0.014-0.095-0.088-0.191-0.234c-0.096-0.146-0.369-0.484-0.492-0.631
	c-0.123-0.148-0.356-0.236-0.534-0.324s-0.561-0.118-0.916-0.029c-0.206,0.051-0.536,0.305-0.624,0.44
	c-0.088,0.133-0.24,0.348-0.254,0.514c-0.012,0.164-0.037,0.586,0.043,0.678c0.079,0.092,0.2,0.232,0.237,0.301
	c0.037,0.066,0.085,0.234,0.201,0.332c0.046,0.039,0.133,0.055,0.205,0.117c0.104,0.09,0.21,0.182,0.328,0.191
	c0.199,0.016,0.319-0.119,0.413-0.031c0.094,0.09,0.217,0.178,0.436,0.266c0.219,0.09,0.437,0.055,0.55,0.111
	c0.288,0.146,0.312,0.178,0.312,0.178s0.01,0.506,0.016,0.734c0.007,0.227,0.025,1.816,0.031,2.25
	c0.008,0.434,0.031,1.062,0.031,1.062s0.015,0.111-0.135,0.143s-1.41,0.18-1.41,0.18s-0.117-0.021-0.137-0.088
	c-0.119-0.395-0.538-1.785-0.579-1.877c-0.047-0.105-0.453-0.086-0.62-0.16c-0.167-0.078-0.595-0.391-0.73-0.447
	c-0.135-0.057-0.429-0.086-0.432-0.006c-0.004,0.082,0.176,0.369,0.285,0.469c0.109,0.098,1,0.52,1.054,0.617
	c0.054,0.098,0.294,1.482,0.294,1.482s0.046,0.1-0.077,0.129c-0.176,0.041-0.55,0.062-0.735,0.062
	c-0.25-0.002-0.494,0.006-0.784-0.002c-0.291-0.01-0.637-0.041-0.9-0.088c-0.264-0.045-0.694-0.115-0.986-0.154
	c-0.29-0.037-1.292-0.104-1.374-0.119c-0.082-0.018-0.138-0.021-0.109-0.193c0.07-0.414,0.078-1.088,0.078-1.088l0.078-2.438
	c0,0-0.029-0.377,0.109-0.469s0.302-0.178,0.302-0.178l0.437-0.051c0,0,0.239-0.113,0.407-0.236
	c0.128-0.094,0.187-0.205,0.233-0.205c0.109,0,0.181,0.139,0.342,0.117c0.161-0.023,0.26-0.117,0.438-0.191
	c0.178-0.072,0.232-0.293,0.301-0.383c0.078-0.1,0.091-0.107,0.178-0.221c0.062-0.078,0.049-0.164,0.085-0.281
	c0.037-0.115,0.015-0.514-0.031-0.629s-0.179-0.354-0.26-0.485c-0.082-0.133-0.218-0.275-0.308-0.33
	c-0.186-0.112-0.803-0.215-1-0.171c-0.197,0.044-0.521,0.171-0.715,0.35c-0.194,0.181-0.678,0.941-0.758,0.978
	c-0.08,0.039-0.078-0.02-0.12-0.07c-0.042-0.051,0.071-0.477,0.062-0.543s-0.091-0.299-0.173-0.243
	c-0.082,0.059-0.2,0.327-0.306,0.516c-0.105,0.188-0.347,0.578-0.315,0.537c0.032-0.041-0.023,0.082-0.153,0.049
	c-0.13-0.031-0.752-0.174-0.752-0.174l-1.001-0.412l-0.701-0.373c0,0-0.345-0.172-0.427-0.239c-0.081-0.066-0.062-0.078-0.033-0.137
	C1.672,14.536,1.783,14.408,1.966,14.112z"/>
<path id="skin-leg-l" fill-rule="evenodd" clip-rule="evenodd" fill="#F9CAA9" d="M10.631,35.059l0.106,0.719l0.16,1.008
	l0.061,0.729c0,0,0.358,0.207,0.618,0.279c0.26,0.074,0.633,0.1,0.877,0.072c0.245-0.027,0.561-0.18,0.594-0.186
	c0.035-0.004,0.104-0.252,0.165-0.445c0.062-0.191,0.403-2.264,0.403-2.264s-0.831,0.045-1.408,0.037
	C11.63,35,10.631,35.059,10.631,35.059z"/>
<path id="player-sock-l" fill-rule="evenodd" clip-rule="evenodd" fill="#0068B4" d="M12.212,39.442
	c-0.145-0.016-0.206-0.078-0.318-0.018c-0.113,0.061-0.171,0.055-0.17,0.152c0.002,0.1,0.24,0.42,0.449,0.518
	c0.21,0.096,0.427,0.139,0.537,0.191c0.11,0.051,0.146,0.07,0.143,0.193s-0.006,0.432-0.08,0.844
	c-0.075,0.412-0.602,3.244-0.626,3.533s-0.055,0.471-0.066,0.584c-0.013,0.117-0.016,0.424-0.041,0.498s-0.385-0.064-0.479,0.004
	c-0.094,0.07-0.33,0.299-0.41,0.457c-0.081,0.156-0.191,0.479-0.259,0.545c-0.068,0.068-0.1,0.143-0.194,0.113
	c-0.093-0.031-0.183-0.297-0.2-0.428c-0.017-0.133,0.107-3.037,0.12-3.607c0.014-0.568,0.04-1.564,0.041-2s0.022-0.742,0.053-0.986
	c0.03-0.242,0.113-0.492,0.106-0.727c-0.008-0.236-0.082-0.52-0.106-0.701s0.086-0.465,0.106-0.545
	c0.019-0.078,0.103-0.057,0.184-0.02s0.224,0.092,0.481,0.164c0.258,0.07,0.766,0.1,0.998,0.086
	c0.231-0.016,0.544-0.143,0.615-0.133c0.071,0.012,0.058,0.053,0.077,0.234c0.018,0.178,0.094,0.449,0.032,0.693
	c-0.062,0.242-0.187,0.383-0.326,0.434S12.356,39.459,12.212,39.442z"/>
<path fill-rule="evenodd" clip-rule="evenodd" fill="#1A1A18" d="M11.817,37.295c-0.022-0.074,0.026-0.16,0.026-0.16
	s0.184,0.059,0.314,0.059c0.13-0.002,0.314-0.15,0.338-0.105c0.024,0.043-0.085,0.217-0.208,0.293
	c-0.124,0.074-0.268,0.119-0.339,0.104C11.876,37.471,11.839,37.374,11.817,37.295z"/>
<path id="skin-arm-r" fill-rule="evenodd" clip-rule="evenodd" fill="#F9CAA9" d="M7.89,15.625c0.06,0.014,0.151,0.168,0.151,0.168
	s0.084,0.277,0.126,0.334c0.042,0.055,0.112-0.016,0.111-0.105c0-0.09,0.004-0.299-0.025-0.438c-0.03-0.137-0.275-0.496-0.337-0.553
	c-0.062-0.055-0.203-0.116-0.311-0.136c-0.107-0.022-0.33-0.05-0.445-0.051c-0.115-0.001-0.264,0.059-0.367,0.103
	c-0.103,0.045-0.22,0.094-0.284,0.172c-0.066,0.078-0.308,0.459-0.399,0.584c-0.091,0.125-0.258,0.373-0.258,0.373
	s-2.412,0.535-2.519,0.586c-0.106,0.049-0.279,0.186-0.279,0.186s-0.046-0.064-0.053-0.131c-0.007-0.064,0.079-0.199,0.079-0.199
	l0.267-0.398l-0.971-0.445l-0.783-0.43c0,0-0.474,1.379-0.529,1.688C1.01,17.24,0.94,17.578,0.955,17.828
	c0.013,0.25,0.279,0.752,0.557,0.824c0.278,0.072,0.36,0.059,0.606,0.029s0.406-0.033,0.816-0.193
	c0.438-0.172,0.624-0.213,0.953-0.359c0.328-0.146,0.94-0.404,1.296-0.564c0.356-0.162,0.962-0.475,0.962-0.475l0.295-0.043
	c0,0,0.164-0.029,0.24-0.064s0.159-0.137,0.233-0.197c0.076-0.059,0.213-0.232,0.213-0.232s0.09-0.086,0.154-0.096
	c0.064-0.01,0.122,0.031,0.122,0.031s0.063,0.193,0.105,0.238c0.042,0.043,0.07,0.008,0.131,0.025
	c0.062,0.018,0.067-0.092,0.067-0.092s-0.021-0.211-0.061-0.285c-0.04-0.076-0.149-0.262-0.149-0.262s-0.011-0.074,0.057-0.107
	c0.066-0.031,0.087,0.039,0.087,0.039s0.211,0.467,0.266,0.5c0.056,0.033,0.088,0.027,0.11-0.039
	c0.055-0.162-0.026-0.373-0.026-0.373s-0.179-0.455-0.179-0.438C7.812,15.71,7.831,15.611,7.89,15.625z"/>
<path id="skin-arm-l" fill-rule="evenodd" clip-rule="evenodd" fill="#F9CAA9" d="M10.852,15.625
	c-0.07,0.014-0.109,0.059-0.151,0.168c-0.042,0.109-0.125,0.334-0.125,0.334s-0.088,0.014-0.112-0.105s-0.021-0.227,0.026-0.438
	c0.046-0.211,0.245-0.482,0.337-0.553c0.093-0.069,0.173-0.116,0.31-0.136c0.139-0.022,0.34-0.05,0.444-0.051
	s0.369,0.103,0.369,0.103s0.214,0.11,0.282,0.172c0.069,0.062,0.4,0.584,0.4,0.584l0.257,0.373l2.52,0.586l0.279,0.186l0.053-0.131
	l-0.08-0.199l-0.266-0.398l0.971-0.445l0.783-0.43c0,0,0.357,0.908,0.545,1.629c0.139,0.539,0.123,0.928,0.123,0.998
	c0,0.162,0,0.369-0.182,0.547c-0.219,0.217-0.619,0.25-0.826,0.227c-0.206-0.025-0.654-0.07-0.969-0.141
	c-0.314-0.072-0.658-0.201-0.953-0.328c-0.293-0.129-0.661-0.217-1.035-0.422s-1.196-0.639-1.258-0.664
	c-0.061-0.025-0.295-0.043-0.295-0.043s-0.125-0.016-0.239-0.064c-0.115-0.051-0.235-0.197-0.235-0.197l-0.211-0.232
	c0,0-0.093-0.072-0.154-0.096c-0.062-0.025-0.122,0.031-0.122,0.031l-0.105,0.238c0,0-0.059,0.037-0.131,0.025
	c-0.073-0.012-0.067-0.092-0.067-0.092s0.016-0.18,0.06-0.285c0.043-0.105,0.149-0.262,0.149-0.262s-0.005-0.074-0.056-0.107
	c-0.051-0.031-0.087,0.039-0.087,0.039l-0.267,0.5c0,0-0.066-0.016-0.101-0.057c-0.034-0.041-0.024-0.105-0.024-0.105
	s-0.004-0.105,0.041-0.25c0.045-0.143,0.18-0.438,0.18-0.438S10.922,15.611,10.852,15.625z"/>
<path id="skin-neck" fill-rule="evenodd" clip-rule="evenodd" fill="#F9CAA9" d="M9.435,11.878L8.513,9.612
	c0,0,0.272,0.282,0.906,0.297c0.618,0.014,0.922-0.266,0.922-0.266L9.435,11.878z"/>
<path id="skin-face" fill-rule="evenodd" clip-rule="evenodd" fill="#F9CAA9" d="M11.457,6.148
	c-0.119,0.009-0.137,0.343-0.137,0.343s-0.174-0.521-0.215-0.753c-0.041-0.234-0.102-0.359-0.127-0.721
	c-0.036-0.526-0.068-0.511-0.068-0.511s-0.154,0.239-0.664,0.517C10.175,5.079,9.565,5.294,9.382,5.32S9.095,5.248,9.02,5.294
	L8.709,5.498c-0.093,0.08-0.328,0.04-0.326-0.023c0.001-0.052-0.14,0.002-0.184-0.056C8.161,5.406,7.931,5.563,7.896,5.537
	C7.87,5.463,7.871,5.436,7.871,5.436L7.813,5.718L7.67,5.623c0,0-0.05,0.104-0.062,0.271c0.005,0.178-0.074,0.362-0.074,0.362
	L7.401,6.128l0.002,0.854c0,0-0.166-0.141-0.266-0.281C7.038,6.558,6.97,6.413,6.97,6.413S6.844,6.488,6.852,6.634
	c0.019,0.321,0.303,0.688,0.43,0.796c0.066,0.056,0.223,0.002,0.223,0.002l0.057,0.119c0,0,0.262,0.565,0.565,1.058
	c0.292,0.434,0.704,0.966,1.257,0.979C9.95,9.6,10.304,9.142,10.65,8.666c0.305-0.471,0.541-1.052,0.541-1.052
	s0.284-0.096,0.368-0.373c0.101-0.332,0.178-0.53,0.139-0.718C11.659,6.337,11.576,6.14,11.457,6.148z M9.864,5.948
	c0.135-0.004,0.235,0.08,0.714-0.055L9.805,6.149C9.805,6.149,9.592,5.963,9.864,5.948z M9.523,7.402L9.65,7.497
	c0,0-0.147,0.046-0.242,0.022C9.478,7.497,9.523,7.402,9.523,7.402z M9.409,8.074l0.087,0.074C9.435,8.169,9.392,8.246,9.264,8.167
	C9.24,8.093,9.328,8.075,9.409,8.074z M9.111,7.389l0.157,0.128L9.144,7.535L9.035,7.497L9.009,7.479L9.111,7.389z M8.877,5.959
	c0.272,0.025,0.05,0.204,0.05,0.204L8.166,5.871C8.638,6.027,8.742,5.947,8.877,5.959z M8.369,6.436L8.331,6.417L8.102,6.423
	L7.727,6.226l0.483,0.03c0.051,0.001,0.399-0.045,0.57-0.015c0.263,0.043,0.266,0.244,0.266,0.244S9.069,6.698,8.977,6.72
	C8.943,6.728,9.06,6.604,8.917,6.472C8.893,6.451,8.79,6.564,8.726,6.572C8.553,6.597,8.506,6.569,8.506,6.569
	C8.318,6.491,8.369,6.436,8.369,6.436z M9.74,8.471C9.646,8.477,9.408,8.495,9.408,8.495S9.302,8.633,9.356,8.636
	C9.43,8.639,9.544,8.656,9.544,8.656l0.008,0.077L9.414,8.782c0,0-0.258,0.001-0.289-0.118C9.108,8.601,9.155,8.5,9.155,8.5
	S9.073,8.452,9.014,8.431c-0.13-0.049-0.358-0.034-0.358-0.034L8.491,8.309c0,0,0.078-0.01,0.108-0.019
	c0.102-0.03,0.226,0.007,0.369,0.001c0.147-0.005,0.178-0.19,0.375-0.03c0.055,0.043,0.102-0.028,0.223,0.013
	c0.123,0.039,0.27,0.01,0.27,0.01s0.357-0.033,0.285,0.028C10.035,8.384,9.881,8.464,9.74,8.471z M10.674,6.482l-0.229-0.018
	l-0.04,0.017c0,0,0.05,0.058-0.143,0.128c0,0-0.048,0.025-0.219-0.007C9.98,6.591,9.881,6.474,9.858,6.492
	c-0.15,0.127-0.039,0.256-0.072,0.246C9.694,6.713,9.729,6.5,9.729,6.5s0.012-0.199,0.276-0.23c0.172-0.022,0.519,0.039,0.568,0.04
	l0.485-0.009L10.674,6.482z"/>
<path fill="#FFFFFF" d="M10.465,1.888c0,0-0.382-0.352-1.104-0.367C8.752,1.506,8.335,1.888,8.335,1.888s0.489-0.17,1.049-0.157
	C9.926,1.743,10.465,1.888,10.465,1.888z"/>
<path id="hair" fill-rule="evenodd" clip-rule="evenodd" fill="#F7DD7F" d="M7.522,5.206c0.009,0,0.121,0.111,0.129,0.091
	C7.811,4.918,7.819,4.361,7.74,3.93c-0.022-0.114,0.219,0.175,0.27,0.627c0.05,0.453-0.05,0.658-0.05,0.658S9.204,3.473,9.2,3.513
	C9.128,4.221,8.847,4.231,8.286,5.178C8.251,5.286,9.643,3.792,9.768,3.554C9.89,3.529,9.919,3.786,8.524,5.271
	c-0.094,0.122,1.75-1.181,1.823-1.293c0.068-0.108-0.205,0.271-1.082,1.043c-0.091,0.08,1.56-0.282,1.78-1.41
	c0.011-0.058,0.187,0.049,0.198,0.796c0.005,0.535,0.165,1.513,0.181,1.415c0.022-0.136,0.145-0.22,0.296,0.187
	c0.064-0.083,0.238-0.636,0.354-1.387c0.074-0.727-0.199-1.505-0.597-1.919c-0.284-0.287-0.784-0.572-1.68-0.66
	C9.021,1.965,8.642,2.01,8.074,2.239C7.525,2.496,7.211,2.832,7.055,3.067C6.899,3.301,6.694,3.621,6.716,4.349
	C6.713,4.893,6.911,5.655,6.992,5.896c0.066,0.198,0.183,0.408,0.166,0.352c-0.137-0.443,0.02-0.669,0.006-0.793
	c-0.02-0.182,0.228,0.403,0.22,0.215C7.366,5.241,7.522,5.206,7.522,5.206z"/>
<path id="hair-p" fill="#F7DD7F" d="M10.5,1.642c0,0-0.281-0.732-1.068-0.75C8.678,0.874,8.336,1.584,8.336,1.584
	s0.345-0.342,1.037-0.326C10.128,1.274,10.5,1.642,10.5,1.642z"/>
</svg>
