<?xml version="1.0" encoding="utf-8"?>
<!-- Generator: Adobe Illustrator 16.0.4, SVG Export Plug-In . SVG Version: 6.00 Build 0)  -->
<!DOCTYPE svg PUBLIC "-//W3C//DTD SVG 1.1//EN" "http://www.w3.org/Graphics/SVG/1.1/DTD/svg11.dtd" [
	<!ENTITY ns_flows "http://ns.adobe.com/Flows/1.0/">
	<!ENTITY ns_extend "http://ns.adobe.com/Extensibility/1.0/">
	<!ENTITY ns_ai "http://ns.adobe.com/AdobeIllustrator/10.0/">
	<!ENTITY ns_graphs "http://ns.adobe.com/Graphs/1.0/">
]>
<svg version="1.1" id="Ebene_1" xmlns:x="&ns_extend;" xmlns:i="&ns_ai;" xmlns:graph="&ns_graphs;"
	 xmlns="http://www.w3.org/2000/svg" xmlns:xlink="http://www.w3.org/1999/xlink" xmlns:a="http://ns.adobe.com/AdobeSVGViewerExtensions/3.0/"
	 x="0px" y="0px" width="21.2px" height="55.2px" viewBox="0 0 21.2 55.2" style="enable-background:new 0 0 21.2 55.2;"
	 xml:space="preserve">
<style type="text/css">
<![CDATA[
	.st0{fill:#1A1A18;}
	.st1{fill-rule:evenodd;clip-rule:evenodd;fill:#1A1A18;}
	.st2{fill-rule:evenodd;clip-rule:evenodd;fill:#FBCDAA;}
	.st3{fill-rule:evenodd;clip-rule:evenodd;fill:#FFFFFF;}
	.st4{fill-rule:evenodd;clip-rule:evenodd;fill:#0068B4;}
]]>
</style>
<path class="st0" d="M0.66,16.67c0.12-0.5,0.5-1.5,0.5-1.5l0.17-0.48c0,0-0.09-0.05-0.2-0.16c-0.08-0.08-0.12-0.14,0-0.36
	c0.07-0.13,0.6-1.03,0.89-1.5c0.29-0.47,0.93-1.3,1.14-1.64s1.02-1.31,1.3-1.56s1.32-0.76,1.68-0.87s0.7-0.15,1.12-0.23
	S8.46,8.2,8.52,8.19S8.63,8.1,8.63,8.1L8.61,7.86L8.54,7.42L8.39,6.87l-0.11-0.1L8.06,6.53L7.91,6.11L7.53,5.58L7.52,5.05L7.45,4.33
	L7.08,4.09l0.34-0.52L7.33,3.05l-0.1-0.12l0.67-1.24L8.4,1.19l0.4-0.45l0.15,0.13L9.19,0.6l0.79-0.09l0.09-0.12l0.87,0.21l0.66,0.26
	l0.59-0.05l0.12,0.16l0.4,0.11l0.5,0.58l0.3,0.66l0.07,0.29l0.2,0.12l-0.18,0.6l0.27,0.53l-0.3,0.47l0.02,0.47l-0.37,0.72
	l-0.03,0.46l-0.16,0.4c0,0-0.27,0.09-0.32,0.22s-0.23,0.72-0.23,0.85s0.07,0.33,0.07,0.33l0.1,0.37c0,0,0.53,0.07,0.97,0.13
	s1.03,0.13,1.33,0.22s0.53,0.21,0.75,0.33s0.79,0.47,0.92,0.58s0.28,0.27,0.41,0.41s0.42,0.49,0.62,0.76s0.6,0.75,0.8,1.08
	s0.95,1.53,1.1,1.79c0.11,0.21,0.46,0.85,0.5,0.96c0.04,0.11,0,0.13,0,0.13l-0.14,0.13c0,0,0.15,0.39,0.28,0.74s0.38,1.2,0.43,1.57
	s0.06,0.51,0.03,0.73s-0.1,0.72-0.47,1c-0.24,0.19-0.64,0.28-1.09,0.26s-0.87-0.14-1.22-0.23s-0.86-0.28-1.3-0.44
	s-1.24-0.47-1.24-0.47s0,0.5,0.02,0.83s0.02,1.09,0.02,1.44s0.01,0.77,0.02,1.12S15.38,22,15.38,22s0.14,0.16,0.21,0.27
	s0.09,0.44,0.06,0.59c-0.05,0.2-0.19,0.33-0.16,0.41c0.06,0.15,0.23,0.52,0.36,0.81s0.21,0.69,0.27,0.94s0.15,0.98,0.19,1.47
	s0.17,2.18,0.17,2.18s0.15,2.3,0.18,3.02s0.13,2.95,0.13,2.95s0,0.9-0.02,1.09c-0.01,0.09-0.06,0.11-0.23,0.12
	c-0.17,0.01-0.75,0.04-0.75,0.04s-0.16,1.1-0.22,1.52s-0.27,1.38-0.27,1.38s-0.03,0.17,0.02,0.38s0.11,0.79,0.07,1.05
	s-0.07,0.45-0.21,0.67c-0.04,0.07-0.06,0.17-0.06,0.3c0,0.13,0,0.53-0.03,0.79s-0.57,2.91-0.63,3.16s-0.18,0.88-0.23,1.14
	s-0.14,1.12-0.14,1.12s0.15,0.06,0.18,0.18s0.02,0.32-0.07,0.48c-0.09,0.16-0.23,0.71-0.25,0.78c-0.03,0.07,0.11,0.48,0.16,0.68
	s0.32,2.53,0.33,2.76c0.01,0.42,0.05,0.99,0.06,1.24c0.01,0.26,0.03,0.6-0.06,0.74s-0.3,0.41-0.57,0.48
	c-0.27,0.08-0.4,0.06-0.73-0.04s-0.66-0.3-0.9-0.54s-0.63-1.97-0.75-2.36s-0.36-1.49-0.39-1.83c-0.03-0.33,0.19-1.06,0.2-1.28
	s0.04-0.71,0.04-1.25s0.07-1.26,0.07-1.92s-0.04-2.28-0.04-2.28s0.05-1.3,0.07-1.63c0.02-0.33,0.13-1.08,0.14-1.22
	s-0.04-0.4-0.06-0.69c-0.02-0.29,0.09-0.66,0.15-0.86c0.06-0.2,0.18-0.37,0.18-0.37s-0.06-0.7-0.14-1.11s-0.33-1.41-0.33-1.41
	s-0.41-0.01-0.53-0.01c-0.12,0-0.15-0.05-0.16-0.16s-0.05-0.35-0.05-0.48s-0.02-0.34-0.02-0.34s-0.04,0.24-0.06,0.42
	c-0.02,0.18-0.05,0.22-0.08,0.34s-0.05,0.2-0.27,0.21c-0.22,0.01-0.5,0-0.5,0s-0.17,0.88-0.26,1.35s-0.16,1.07-0.14,1.15
	s0.08,0.22,0.13,0.4s0.1,0.65,0.09,0.88s-0.04,0.55-0.05,0.69s0.12,0.66,0.13,0.95s0.02,1.48,0.03,2.19s0.03,1.45,0.04,1.97
	s0.03,1.58,0.03,1.96s0.07,1.21,0.07,1.21s0.2,1.06,0.21,1.28c0.01,0.21-0.27,1.36-0.39,1.83s-0.58,2-0.76,2.23
	s-0.62,0.62-0.88,0.68s-0.48,0.11-0.72,0.04c-0.24-0.06-0.44-0.25-0.58-0.48s-0.14-0.53-0.14-0.9s0.07-1.28,0.14-1.85
	s0.48-2.35,0.46-2.46s-0.22-0.79-0.27-0.91c-0.05-0.12-0.04-0.25-0.02-0.36s0.21-0.3,0.21-0.3s0-0.46-0.07-0.84
	c-0.07-0.38-0.23-1.19-0.37-1.88s-0.55-2.65-0.56-2.91s-0.02-0.56-0.03-0.66c-0.01-0.1,0-0.14-0.06-0.3s-0.23-0.32-0.26-0.71
	s0.05-0.88,0.09-1.11c0.03-0.13,0.05-0.29,0.05-0.29l-0.61-3.02c0,0-0.29,0-0.57-0.04s-0.37-0.06-0.36-0.28
	c0.02-0.27,0.02-0.45,0.08-1.16s0.27-3.42,0.34-4.12c0.06-0.58,0.15-1.89,0.19-2.22c0.06-0.48,0.11-0.94,0.21-1.7
	c0.08-0.58,0.22-1.61,0.28-1.92s0.13-0.61,0.21-0.91c0.04-0.17,0.19-0.31,0.14-0.46s0-0.62,0.04-0.76s0.2-0.25,0.23-0.31
	s-0.12-0.3-0.13-0.78S5.96,19,5.96,18.76s0.03-0.94,0.03-0.94s-1.3,0.51-1.76,0.69c-0.46,0.18-1.37,0.39-1.8,0.41
	c-0.42,0.02-0.79,0.04-1.12-0.09c-0.42-0.17-0.67-0.5-0.73-0.91S0.56,17.1,0.66,16.67z"/>
<path id="skin-leg-r" class="st2" d="M14.93,38.23c-0.07,0.26-0.17,0.47-0.17,0.47s-0.3,0.16-0.68,0.2s-0.89-0.03-1.14-0.09
	s-0.56-0.22-0.56-0.22s-0.04-0.56-0.08-0.84c-0.03-0.27-0.14-0.79-0.18-1.07c-0.04-0.28-0.18-0.73-0.18-0.73s1.35-0.04,1.92-0.04
	s1.45-0.02,1.45-0.02S14.98,38.03,14.93,38.23z"/>
<path id="player-sock-r" class="st4" d="M13.81,40.58c-0.16-0.02-0.24-0.08-0.36-0.02s-0.2,0.03-0.19,0.16
	c0.01,0.14,0.29,0.46,0.51,0.55c0.23,0.09,0.48,0.12,0.61,0.2c0.13,0.09,0.19,0.21,0.18,0.35c-0.02,0.14-0.02,0.36-0.11,0.75
	s-0.67,3.59-0.71,3.76s-0.05,0.48-0.08,0.62c-0.03,0.14,0,0.48-0.05,0.53c-0.04,0.05-0.4-0.02-0.55,0.01
	c-0.15,0.03-0.36,0.29-0.47,0.48c-0.1,0.2-0.13,0.52-0.22,0.6s-0.19,0.13-0.3,0.1c-0.1-0.03-0.2-0.33-0.23-0.46
	c-0.03-0.12,0.1-3.3,0.14-3.83c0.03-0.53,0.04-1.72,0.05-2.12s0.05-0.66,0.06-1.05c0.01-0.38,0.13-0.62,0.12-0.77
	s-0.11-0.5-0.12-0.74s0.05-0.49,0.12-0.58s0.02-0.04,0.17-0.02s0.26,0.11,0.59,0.17s0.72,0.14,1.14,0.09s0.68-0.13,0.69-0.11
	c0.04,0.09,0.1,0.04,0.14,0.3c0.04,0.25,0.06,0.48-0.02,0.72s-0.22,0.33-0.36,0.4C14.43,40.73,13.97,40.6,13.81,40.58z"/>
<path class="st1" d="M13.39,38.13c0.04-0.02,0.22,0.05,0.36,0.06s0.39-0.11,0.39-0.11s-0.12,0.23-0.24,0.31s-0.25,0.14-0.39,0.11
	S13.35,38.15,13.39,38.13z"/>
<path id="player-shorts" class="st3" d="M4.85,35.34c0.13,0.02,0.72,0.06,1.02,0.07s0.85,0.04,1.38,0.04s1.17,0.05,1.57,0.05
	c0.4,0,0.95,0.01,1.1,0.01s0.22-0.02,0.25-0.14c0.06-0.3,0.08-0.44,0.08-0.44s0.12-0.8,0.17-1.45s0.08-1.22,0.09-1.66
	s0.07-1.65,0.05-1.95c-0.02-0.3-0.06-0.49-0.08-0.67s-0.03-0.32-0.15-0.36s-0.99-0.32-1.14-0.43s-0.37-0.37-0.39-0.46
	s0.14-0.05,0.25-0.02s0.24,0.14,0.53,0.23c0.13,0.04,0.35,0.12,0.53,0.17s0.37,0.11,0.52,0.12s0.25,0.01,0.36-0.02
	s0.36-0.09,0.5-0.22c0.1-0.09,0.23-0.28,0.41-0.38c0.13-0.07,0.33-0.14,0.39-0.06c0.06,0.09,0.05,0.12-0.02,0.23
	s-0.51,0.59-0.67,0.7s-0.66,0.31-0.68,0.43s-0.05,0.4-0.05,0.73s0.03,1.3,0.05,1.88c0.02,0.58,0.08,2.05,0.11,2.46
	c0.03,0.41,0.09,1.04,0.1,1.16c0.01,0.12,0.02,0.14,0.16,0.16s0.72,0.02,1.29,0s1.49-0.02,2.01-0.03s1.52-0.04,1.66-0.06
	c0.14-0.02,0.16,0,0.17-0.22s-0.1-2.98-0.13-3.53s-0.3-4.58-0.34-5.05c-0.04-0.47-0.2-1.64-0.28-1.98s-0.42-1.06-0.52-1.14
	s-0.19-0.09-0.32-0.09s-0.76,0.07-0.88,0.08s-0.31-0.07-0.32-0.14s0.03-0.14,0.12-0.23s0.09-0.13,0.32-0.14s1.07-0.17,1.14-0.21
	s0.05-0.15,0.01-0.25s-0.07-0.15-0.19-0.18s-1.58,0.08-1.89,0.11s-0.66,0.09-0.91,0.13s-0.73,0.11-1.13,0.12s-1,0.02-1.44-0.02
	s-0.72-0.08-1.16-0.14s-1.9-0.32-2.05-0.3s-0.2,0.03-0.23,0.21s-0.04,0.17,0.06,0.24s0.59,0.15,0.82,0.18s0.84,0.04,0.93,0.11
	s0.2,0.23,0.14,0.31s-0.41,0.12-0.57,0.13s-0.71-0.12-0.93-0.12s-0.38,0.04-0.47,0.14s-0.23,0.55-0.3,0.8s-0.24,1.5-0.33,2
	s-0.26,2.03-0.34,2.84s-0.29,3.36-0.34,4c-0.04,0.52-0.11,1.61-0.14,2C4.74,35.2,4.71,35.33,4.85,35.34z"/>
<path id="player-jersey" class="st4" d="M19.05,13.5c-0.27-0.47-0.61-1.03-0.61-1.03s-0.86-1.27-1.08-1.59S16.68,10,16.52,9.85
	s-0.36-0.3-0.63-0.46c-0.34-0.2-0.55-0.33-0.88-0.45s-1.12-0.23-1.49-0.26s-0.82-0.08-0.82-0.08l-0.65,1.3l-0.64,1.16l-0.76,1.18
	l-0.72-1.02L9.17,9.95L8.45,8.62c0,0-0.81,0.04-1.09,0.09s-0.8,0.12-1.15,0.26S5.07,9.49,4.72,9.82s-0.7,0.82-0.97,1.18
	c-0.27,0.37-0.78,1.04-1.02,1.4c-0.24,0.36-0.94,1.55-1.02,1.69s-0.03,0.14,0.05,0.22c0.12,0.11,0.44,0.31,0.64,0.41
	c0.28,0.13,0.65,0.34,0.95,0.45c0.3,0.11,0.53,0.23,0.97,0.35s0.75,0.13,0.75,0.13s0.08,0.07,0.16-0.06
	c0.17-0.23,0.65-0.9,0.58-0.77C5.73,14.97,5.9,14.55,6,14.55s0.13,0.08,0.15,0.24s-0.13,0.51-0.1,0.58s0.13,0.09,0.19,0.07
	s0.11-0.09,0.22-0.25s0.42-0.52,0.56-0.67s0.41-0.25,0.61-0.34s0.64-0.12,1.05-0.03c0.24,0.05,0.61,0.32,0.71,0.47
	s0.27,0.37,0.29,0.55s0.04,0.62-0.05,0.72s-0.23,0.25-0.27,0.32s-0.1,0.25-0.23,0.35c-0.05,0.04-0.15,0.06-0.23,0.12
	c-0.12,0.1-0.24,0.19-0.38,0.2c-0.23,0.02-0.36-0.13-0.47-0.03s-0.25,0.19-0.5,0.28s-0.51,0.13-0.64,0.19
	c-0.33,0.16-0.52,0.27-0.52,0.27s-0.02,0.21-0.02,0.45s-0.04,0.4-0.01,0.79c0.02,0.24-0.03,1.46-0.04,1.92s0.09,0.96,0.09,0.96
	s-0.02,0.12,0.15,0.15c0.17,0.03,1.67,0.23,1.67,0.23S8.38,22.06,8.4,22c0.14-0.42,0.61-1.9,0.66-1.99
	c0.05-0.11,0.52-0.09,0.71-0.17s0.68-0.42,0.83-0.47s0.49-0.09,0.49,0s-0.2,0.39-0.33,0.5s-1.14,0.55-1.2,0.66s-0.34,1.58-0.34,1.58
	s-0.05,0.11,0.09,0.14c0.2,0.04,0.63,0.07,0.84,0.07c0.29,0,0.56,0.01,0.89,0s0.73-0.04,1.03-0.09s0.79-0.12,1.12-0.16
	s1.52-0.13,1.61-0.15c0.09-0.02,0.14-0.02,0.12-0.21s-0.01-1.46-0.01-1.46l-0.09-2.34c0,0,0.01-0.17-0.15-0.26s-0.52-0.27-0.52-0.27
	l-0.43-0.14c0,0-0.27-0.12-0.46-0.25c-0.15-0.1-0.21-0.22-0.27-0.22c-0.12,0-0.21,0.15-0.39,0.12s-0.3-0.12-0.5-0.2
	s-0.27-0.31-0.34-0.41c-0.09-0.11-0.1-0.11-0.2-0.23c-0.07-0.08-0.06-0.18-0.1-0.3s-0.02-0.55,0.04-0.67s0.2-0.38,0.3-0.52
	s0.25-0.29,0.35-0.35c0.21-0.12,0.92-0.23,1.14-0.18s0.59,0.18,0.82,0.37s0.77,1,0.87,1.04s0.09-0.02,0.14-0.08
	s-0.08-0.51-0.07-0.58s0.1-0.32,0.2-0.26s0.23,0.35,0.35,0.55s0.4,0.62,0.36,0.57c-0.04-0.04,0.03,0.09,0.17,0.05S17,15.49,17,15.49
	l1.14-0.44l0.8-0.4c0,0,0.39-0.18,0.49-0.25s0.07-0.08,0.04-0.15C19.39,14.11,19.24,13.82,19.05,13.5z"/>
<polygon class="st3" points="14.16,54 13.4,54.21 13.61,54.33 13.88,54.25 "/>
<path id="skin-leg-l" class="st2" d="M9.16,35.92l-0.12,0.76l-0.18,1.07l-0.07,0.78c0,0-0.41,0.22-0.71,0.3s-0.72,0.11-1,0.08
	s-0.64-0.19-0.68-0.2c-0.04,0-0.12-0.27-0.19-0.47c-0.07-0.2-0.46-2.41-0.46-2.41s0.95,0.05,1.61,0.04S9.16,35.92,9.16,35.92z"/>
<path id="player-sock-l" class="st4" d="M7.36,40.58c0.16-0.02,0.23-0.08,0.36-0.02s0.2,0.06,0.19,0.16c0,0.11-0.27,0.45-0.51,0.55
	c-0.24,0.1-0.49,0.15-0.61,0.2c-0.13,0.06-0.17,0.08-0.16,0.21c0,0.13,0.01,0.46,0.09,0.9s0.69,3.45,0.71,3.76s0.06,0.5,0.08,0.62
	c0.01,0.12,0.02,0.45,0.05,0.53C7.59,47.56,8,47.41,8.1,47.49c0.11,0.07,0.38,0.32,0.47,0.48c0.09,0.17,0.22,0.51,0.3,0.58
	c0.08,0.07,0.11,0.15,0.22,0.12c0.11-0.03,0.21-0.31,0.23-0.46c0.02-0.14-0.12-3.23-0.14-3.83c-0.02-0.6-0.04-1.66-0.05-2.12
	s-0.03-0.79-0.06-1.05c-0.03-0.26-0.13-0.52-0.12-0.77s0.09-0.55,0.12-0.74s-0.1-0.49-0.12-0.58s-0.12-0.06-0.21-0.02
	s-0.26,0.1-0.55,0.17s-0.87,0.11-1.14,0.09s-0.62-0.15-0.7-0.14s-0.07,0.06-0.09,0.25c-0.02,0.19-0.11,0.48-0.04,0.74
	c0.07,0.26,0.21,0.41,0.37,0.46C6.76,40.72,7.19,40.6,7.36,40.58z"/>
<path class="st1" d="M7.81,38.3c0.03-0.08-0.03-0.17-0.03-0.17s-0.21,0.06-0.36,0.06s-0.36-0.16-0.39-0.11s0.1,0.23,0.24,0.31
	s0.3,0.13,0.39,0.11S7.78,38.38,7.81,38.3z"/>
<polygon class="st3" points="7.02,54 7.78,54.21 7.57,54.33 7.3,54.25 "/>
<path id="skin-arm-r" class="st2" d="M12.29,15.26c-0.07,0.01-0.17,0.18-0.17,0.18s-0.1,0.29-0.14,0.35s-0.13-0.01-0.13-0.11
	s0-0.32,0.03-0.46s0.31-0.53,0.38-0.59s0.23-0.12,0.35-0.15s0.38-0.05,0.51-0.05s0.3,0.06,0.42,0.11s0.25,0.1,0.32,0.18
	s0.35,0.49,0.46,0.62s0.29,0.4,0.29,0.4s2.75,0.57,2.88,0.62s0.32,0.2,0.32,0.2s0.05-0.07,0.06-0.14s-0.09-0.21-0.09-0.21l-0.3-0.42
	l1.11-0.47l0.89-0.46c0,0,0.54,1.47,0.6,1.79s0.14,0.69,0.12,0.95s-0.32,0.8-0.64,0.88s-0.41,0.06-0.69,0.03s-0.58-0.08-1.06-0.2
	s-0.66-0.19-1.03-0.34s-1-0.47-1.41-0.64s-1.1-0.5-1.1-0.5l-0.34-0.04c0,0-0.19-0.03-0.27-0.07s-0.18-0.14-0.27-0.21
	s-0.24-0.25-0.24-0.25s-0.1-0.09-0.18-0.1s-0.14,0.03-0.14,0.03s-0.07,0.21-0.12,0.25s-0.08,0.01-0.15,0.03s-0.08-0.1-0.08-0.1
	s0.02-0.22,0.07-0.3s0.17-0.28,0.17-0.28s0.01-0.08-0.06-0.11s-0.1,0.04-0.1,0.04s-0.24,0.5-0.3,0.53s-0.1,0.03-0.13-0.04
	c-0.06-0.17,0.03-0.39,0.03-0.39s0.2-0.48,0.2-0.47S12.36,15.25,12.29,15.26z"/>
<path id="skin-arm-l" class="st2" d="M8.91,15.26c0.08,0.01,0.12,0.06,0.17,0.18s0.14,0.35,0.14,0.35s0.1,0.02,0.13-0.11
	s0.02-0.24-0.03-0.46s-0.28-0.51-0.38-0.59s-0.2-0.12-0.35-0.15s-0.39-0.05-0.51-0.05s-0.42,0.11-0.42,0.11s-0.25,0.12-0.32,0.18
	s-0.46,0.62-0.46,0.62l-0.29,0.4l-2.88,0.62l-0.32,0.2l-0.06-0.14l0.09-0.21l0.3-0.42l-1.11-0.47l-0.89-0.46
	c0,0-0.41,0.96-0.62,1.73c-0.16,0.57-0.14,0.99-0.14,1.06c0,0.17,0,0.39,0.21,0.58c0.25,0.23,0.71,0.31,0.95,0.29
	c0.23-0.03,0.7-0.06,1.06-0.14s0.98-0.29,1.32-0.42s0.56-0.22,0.99-0.43s1.37-0.68,1.44-0.71s0.34-0.04,0.34-0.04
	s0.14-0.02,0.27-0.07S7.8,16.5,7.8,16.5l0.24-0.25c0,0,0.11-0.08,0.18-0.1s0.14,0.03,0.14,0.03l0.12,0.25c0,0,0.07,0.04,0.15,0.03
	s0.08-0.1,0.08-0.1s-0.02-0.19-0.07-0.3s-0.17-0.28-0.17-0.28s0.01-0.08,0.06-0.11s0.1,0.04,0.1,0.04l0.3,0.53
	c0,0,0.08-0.02,0.11-0.06s0.03-0.11,0.03-0.11s0-0.11-0.05-0.26s-0.2-0.47-0.2-0.47S8.83,15.25,8.91,15.26z"/>
<path id="skin-face" class="st2" d="M12.83,5.68L12.42,6.5c0,0-0.24,0.86-0.31,1.03s-0.1,0.3-0.35,0.68s-0.65,0.69-0.82,0.72
	s-0.52,0.12-0.76-0.01S9.43,8.33,9.26,8.15s-0.32-0.42-0.4-0.68s-0.24-0.84-0.3-0.98s-0.1-0.37-0.1-0.37L8.22,6.1L7.79,5.35
	c0,0-0.01-0.04,0.01-0.12S7.93,5,7.93,5L7.91,5.36c0,0,0.17,0.23,0.23,0.25S8.25,5.6,8.25,5.6l0.01-0.17c0,0,0.09-0.76,0.14-0.92
	s0.36-0.72,0.46-0.84s0.42-0.27,0.55-0.31s0.37-0.1,0.37-0.1l0.2-0.06c0,0,0.26,0.15,0.33,0.13s0.16-0.17,0.16-0.17
	s0.84-0.07,0.89-0.05s0.11,0.08,0.23,0.14s0.59,0.48,0.59,0.48s0.21,0.37,0.27,0.47s0.03,0.11,0.06,0.23
	c0.02,0.08-0.03,0.14,0.03,0.27s0.18,0.26,0.22,0.25s0.13-0.23,0.13-0.23l0.05-0.16c0,0,0.01-0.05,0.08,0.05s0,0.39,0,0.39
	L12.83,5.68L12.83,5.68z"/>
<path id="skin-neck" class="st2" d="M9.71,10.15C9.43,9.68,8.92,8.67,8.92,8.67l0.01-0.06L8.95,8.4c0,0,0.58,0.5,0.67,0.59
	s0.31,0.28,0.56,0.34c0.13,0.03,0.55,0.02,0.73-0.02s0.32-0.09,0.5-0.27S11.9,8.5,11.9,8.5l0.29-0.45l0.04,0.54
	c0,0-0.18,0.42-0.32,0.7s-0.38,0.73-0.49,0.94s-0.8,1.36-0.8,1.36s-0.17-0.25-0.37-0.55C10.06,10.74,9.85,10.39,9.71,10.15z"/>
<polygon class="st1" points="10.58,6.79 10.59,6.68 10.68,6.61 10.89,6.69 10.64,6.8 "/>
<polygon class="st1" points="10.07,6.77 10,6.68 10.13,6.57 10.36,6.7 10.17,6.85 "/>
<path class="st1" d="M11.69,4.89c0,0,0.15,0.22,0.07,0.35S11.51,5.4,11.4,5.38S11.17,5.2,11.17,5.2l-0.11-0.01l-0.15,0.77l0-0.96
	l0.16-0.19l0.06-0.11c0,0,0.59-0.08,0.71-0.06s0.22,0.11,0.22,0.11s0.05,0-0.04,0.03S11.69,4.89,11.69,4.89z"/>
<path class="st1" d="M9.4,4.81L9.15,4.67L8.76,4.88l0.05-0.11c0,0,0.27-0.21,0.38-0.22S9.7,4.66,9.7,4.66l0.44,0.22l-0.05,0.11
	c0,0-0.19,0.31-0.34,0.32S9.45,5.25,9.38,5.14S9.4,4.81,9.4,4.81z"/>
<polygon class="st1" points="10.69,7.52 10.63,7.67 10.73,7.68 10.93,7.77 10.96,7.85 10.81,7.92 10.36,7.9 10.25,7.65 10.12,7.54 
	9.82,7.39 9.68,7.3 9.69,7.25 9.87,7.25 10.46,7.33 11.15,7.28 11.23,7.35 10.96,7.47 "/>
<path id="hair" class="st1" d="M13.51,3.79l-0.25-0.5l0.15-0.43l-0.18-0.1l-0.07-0.38l-0.28-0.56l-0.45-0.49L12.1,1.23l-0.11-0.14
	l-0.55,0.05l-0.59-0.22l-0.64-0.21l-0.08,0.11L9.31,0.95L8.99,1.22L8.85,1.11l-0.3,0.37L8.1,1.9L7.55,2.84l0.09,0.11L7.74,3.5
	L7.47,3.93l0.29,0.23V4.7l0.11-0.15l0.19,0.07c0,0,0.16-0.54,0.24-0.69C8.42,3.69,8.6,3.4,8.73,3.29C8.86,3.17,9.38,3,9.38,3
	l0.36-0.09l0.2-0.06l0.25,0.13l0.15-0.16l1.05-0.05c0,0,0.14,0.06,0.23,0.13c0.09,0.07,0.43,0.29,0.59,0.43
	c0.06,0.05,0.2,0.24,0.28,0.35c0.08,0.11,0.21,0.43,0.27,0.51c0.06,0.07,0.18-0.07,0.18-0.07s0.34,0.22,0.29,0.46
	c0.02,0.06,0,0.12,0.02,0.18l0.08-0.19L13.3,4.12L13.51,3.79z"/>
</svg>
