<?xml version="1.0" encoding="utf-8"?>
<!-- Generator: Adobe Illustrator 16.0.4, SVG Export Plug-In . SVG Version: 6.00 Build 0)  -->
<!DOCTYPE svg PUBLIC "-//W3C//DTD SVG 1.1//EN" "http://www.w3.org/Graphics/SVG/1.1/DTD/svg11.dtd" [
	<!ENTITY ns_flows "http://ns.adobe.com/Flows/1.0/">
	<!ENTITY ns_extend "http://ns.adobe.com/Extensibility/1.0/">
	<!ENTITY ns_ai "http://ns.adobe.com/AdobeIllustrator/10.0/">
	<!ENTITY ns_graphs "http://ns.adobe.com/Graphs/1.0/">
]>
<svg version="1.1" id="Ebene_1" xmlns:x="&ns_extend;" xmlns:i="&ns_ai;" xmlns:graph="&ns_graphs;"
	 xmlns="http://www.w3.org/2000/svg" xmlns:xlink="http://www.w3.org/1999/xlink" xmlns:a="http://ns.adobe.com/AdobeSVGViewerExtensions/3.0/"
	 x="0px" y="0px" width="21.2px" height="55.2px" viewBox="0 0 21.2 55.2" style="enable-background:new 0 0 21.2 55.2;"
	 xml:space="preserve">
<style type="text/css">
<![CDATA[
	.st0{fill:#1A1A18;}
	.st1{fill-rule:evenodd;clip-rule:evenodd;fill:#1A1A18;}
	.st2{fill-rule:evenodd;clip-rule:evenodd;fill:#FBCDAA;}
	.st3{fill-rule:evenodd;clip-rule:evenodd;fill:#FFFFFF;}
	.st4{fill-rule:evenodd;clip-rule:evenodd;fill:#0068B4;}
]]>
</style>
<path class="st0" d="M20.54,16.67c-0.12-0.5-0.5-1.5-0.5-1.5l-0.17-0.48c0,0,0.09-0.05,0.2-0.16c0.08-0.08,0.12-0.14,0-0.36
	c-0.07-0.13-0.6-1.03-0.89-1.5c-0.29-0.47-0.93-1.3-1.14-1.64s-1.02-1.31-1.3-1.56s-1.32-0.76-1.68-0.87s-0.7-0.15-1.12-0.23
	s-1.19-0.16-1.25-0.17S12.57,8.1,12.57,8.1l0.02-0.24l0.06-0.44l0.16-0.55l0.11-0.1l0.22-0.24l0.15-0.42l0.37-0.53l0.02-0.53
	l0.07-0.71l0.38-0.25l-0.34-0.52l0.09-0.52l0.1-0.12l-0.67-1.24L12.8,1.19l-0.4-0.45l-0.15,0.13L12.01,0.6l-0.79-0.09l-0.09-0.12
	l-0.87,0.21L9.6,0.85L9.01,0.8L8.9,0.96l-0.4,0.11l-0.5,0.58l-0.3,0.66L7.63,2.6l-0.2,0.12l0.18,0.6L7.34,3.85l0.3,0.47L7.62,4.79
	l0.37,0.72l0.03,0.46l0.16,0.4c0,0,0.27,0.09,0.32,0.22s0.23,0.72,0.23,0.85S8.66,7.78,8.66,7.78l-0.1,0.37c0,0-0.53,0.07-0.97,0.13
	S6.56,8.41,6.26,8.5S5.73,8.71,5.51,8.83S4.72,9.3,4.59,9.41S4.31,9.67,4.18,9.81s-0.42,0.49-0.62,0.76s-0.6,0.75-0.8,1.08
	s-0.95,1.53-1.1,1.79c-0.11,0.21-0.46,0.85-0.49,0.96s-0.01,0.13-0.01,0.13l0.14,0.13c0,0-0.15,0.39-0.28,0.74s-0.38,1.2-0.43,1.57
	s-0.06,0.51-0.03,0.73s0.1,0.72,0.47,1c0.24,0.19,0.64,0.28,1.09,0.26s0.87-0.14,1.22-0.23s0.86-0.28,1.3-0.44s1.24-0.47,1.24-0.47
	s0,0.5-0.02,0.83s-0.02,1.09-0.02,1.44s-0.01,0.77-0.02,1.12S5.82,22,5.82,22s-0.14,0.16-0.21,0.27s-0.09,0.44-0.06,0.59
	c0.05,0.2,0.19,0.33,0.16,0.41c-0.06,0.15-0.23,0.52-0.36,0.81s-0.21,0.69-0.27,0.94s-0.15,0.98-0.19,1.47s-0.17,2.18-0.17,2.18
	s-0.15,2.3-0.18,3.02s-0.13,2.95-0.13,2.95s0,0.9,0.02,1.09c0.01,0.09,0.06,0.11,0.23,0.12c0.17,0.01,0.75,0.04,0.75,0.04
	s0.16,1.1,0.22,1.52s0.27,1.38,0.27,1.38s0.03,0.17-0.02,0.38s-0.11,0.79-0.07,1.05s0.07,0.45,0.21,0.67
	c0.04,0.07,0.06,0.17,0.06,0.3c0,0.13,0,0.53,0.03,0.79s0.57,2.91,0.63,3.16s0.18,0.88,0.23,1.14s0.14,1.12,0.14,1.12
	s-0.15,0.06-0.18,0.18s-0.02,0.32,0.07,0.48c0.09,0.16,0.23,0.71,0.25,0.78c0.03,0.07-0.11,0.48-0.16,0.68s-0.32,2.53-0.33,2.76
	c-0.01,0.42-0.05,0.99-0.06,1.24c-0.01,0.26-0.03,0.6,0.06,0.74s0.3,0.41,0.57,0.48c0.27,0.08,0.4,0.06,0.73-0.04s0.66-0.3,0.9-0.54
	s0.63-1.97,0.75-2.36s0.36-1.49,0.39-1.83c0.03-0.33-0.19-1.06-0.2-1.28S9.84,48,9.83,47.46s-0.07-1.26-0.07-1.92
	s0.04-2.28,0.04-2.28s-0.05-1.3-0.07-1.63c-0.02-0.33-0.13-1.08-0.14-1.22s0.04-0.4,0.06-0.69c0.02-0.29-0.09-0.66-0.15-0.86
	c-0.06-0.2-0.18-0.37-0.18-0.37s0.06-0.7,0.14-1.11s0.33-1.41,0.33-1.41s0.41-0.01,0.53-0.01c0.12,0,0.15-0.05,0.16-0.16
	s0.05-0.35,0.05-0.48s0.02-0.34,0.02-0.34s0.04,0.24,0.06,0.42c0.02,0.18,0.05,0.22,0.08,0.34s0.05,0.2,0.27,0.21
	c0.22,0.01,0.5,0,0.5,0s0.17,0.88,0.26,1.35s0.16,1.07,0.14,1.15s-0.08,0.22-0.13,0.4s-0.1,0.65-0.09,0.88s0.04,0.55,0.05,0.69
	s-0.12,0.66-0.13,0.95s-0.02,1.48-0.03,2.19s-0.03,1.45-0.04,1.97s-0.03,1.58-0.03,1.96s-0.07,1.21-0.07,1.21s-0.2,1.06-0.21,1.28
	c-0.01,0.21,0.27,1.36,0.39,1.83s0.58,2,0.76,2.23s0.62,0.62,0.88,0.68s0.48,0.11,0.72,0.04c0.24-0.06,0.44-0.25,0.58-0.48
	s0.14-0.53,0.14-0.9s-0.07-1.28-0.14-1.85s-0.48-2.35-0.46-2.46s0.22-0.79,0.27-0.91c0.05-0.12,0.04-0.25,0.02-0.36
	s-0.21-0.3-0.21-0.3s0-0.46,0.07-0.84c0.07-0.38,0.23-1.19,0.37-1.88s0.55-2.65,0.56-2.91s0.02-0.56,0.03-0.66
	c0.01-0.1,0-0.14,0.06-0.3s0.23-0.32,0.26-0.71s-0.05-0.88-0.09-1.11c-0.03-0.13-0.05-0.29-0.05-0.29l0.61-3.02
	c0,0,0.29,0,0.57-0.04s0.37-0.06,0.36-0.28c-0.02-0.27-0.02-0.45-0.08-1.16s-0.27-3.42-0.34-4.12c-0.06-0.58-0.15-1.89-0.19-2.22
	c-0.06-0.48-0.11-0.94-0.21-1.7c-0.08-0.58-0.22-1.61-0.28-1.92s-0.13-0.61-0.21-0.91c-0.04-0.17-0.19-0.31-0.14-0.46
	s0-0.62-0.04-0.76s-0.2-0.25-0.23-0.31s0.12-0.3,0.13-0.78s-0.05-2.12-0.05-2.36s-0.03-0.94-0.03-0.94s1.3,0.51,1.76,0.69
	c0.46,0.18,1.37,0.39,1.8,0.41c0.42,0.02,0.79,0.04,1.12-0.09c0.42-0.17,0.67-0.5,0.73-0.91S20.64,17.1,20.54,16.67z"/>
<path id="skin-leg-r" class="st2" d="M6.27,38.23c0.07,0.26,0.17,0.47,0.17,0.47s0.3,0.16,0.68,0.2s0.89-0.03,1.14-0.09
	s0.56-0.22,0.56-0.22s0.04-0.56,0.08-0.84c0.03-0.27,0.14-0.79,0.18-1.07c0.04-0.28,0.18-0.73,0.18-0.73s-1.35-0.04-1.92-0.04
	S5.88,35.9,5.88,35.9S6.22,38.03,6.27,38.23z"/>
<path id="player-sock-r" class="st4" d="M7.39,40.58c0.16-0.02,0.24-0.08,0.36-0.02s0.2,0.03,0.19,0.16
	c-0.01,0.14-0.29,0.46-0.51,0.55c-0.23,0.09-0.48,0.12-0.61,0.2c-0.13,0.09-0.19,0.21-0.18,0.35c0.02,0.14,0.02,0.36,0.11,0.75
	s0.67,3.59,0.71,3.76s0.05,0.48,0.08,0.62c0.03,0.14,0,0.48,0.05,0.53c0.04,0.05,0.4-0.02,0.55,0.01c0.15,0.03,0.36,0.29,0.47,0.48
	c0.1,0.2,0.13,0.52,0.22,0.6s0.19,0.13,0.3,0.1c0.1-0.03,0.2-0.33,0.23-0.46c0.03-0.12-0.1-3.3-0.14-3.83
	c-0.03-0.53-0.04-1.72-0.05-2.12s-0.05-0.66-0.06-1.05c-0.01-0.38-0.13-0.62-0.12-0.77s0.11-0.5,0.12-0.74s-0.05-0.49-0.12-0.58
	s-0.02-0.04-0.17-0.02s-0.26,0.11-0.59,0.17s-0.72,0.14-1.14,0.09S6.4,39.23,6.4,39.25c-0.04,0.09-0.1,0.04-0.14,0.3
	c-0.04,0.25-0.06,0.48,0.02,0.72s0.22,0.33,0.36,0.4C6.77,40.73,7.23,40.6,7.39,40.58z"/>
<path class="st1" d="M7.81,38.13c-0.04-0.02-0.22,0.05-0.36,0.06s-0.39-0.11-0.39-0.11s0.12,0.23,0.24,0.31s0.25,0.14,0.39,0.11
	S7.85,38.15,7.81,38.13z"/>
<path id="player-shorts" class="st3" d="M16.35,35.34c-0.13,0.02-0.72,0.06-1.02,0.07s-0.85,0.04-1.38,0.04s-1.17,0.05-1.57,0.05
	c-0.4,0-0.95,0.01-1.1,0.01s-0.22-0.02-0.25-0.14c-0.06-0.3-0.08-0.44-0.08-0.44s-0.12-0.8-0.17-1.45s-0.08-1.22-0.09-1.66
	s-0.07-1.65-0.05-1.95c0.02-0.3,0.06-0.49,0.08-0.67s0.03-0.32,0.15-0.36s0.99-0.32,1.14-0.43s0.37-0.37,0.39-0.46
	s-0.14-0.05-0.25-0.02s-0.24,0.14-0.53,0.23c-0.13,0.04-0.35,0.12-0.53,0.17s-0.37,0.11-0.52,0.12s-0.25,0.01-0.36-0.02
	s-0.36-0.09-0.5-0.22c-0.1-0.09-0.23-0.28-0.41-0.38c-0.13-0.07-0.33-0.14-0.39-0.06c-0.06,0.09-0.05,0.12,0.02,0.23
	s0.51,0.59,0.67,0.7s0.66,0.31,0.68,0.43s0.05,0.4,0.05,0.73s-0.03,1.3-0.05,1.88c-0.02,0.58-0.08,2.05-0.11,2.46
	c-0.03,0.41-0.09,1.04-0.1,1.16s-0.02,0.14-0.16,0.16s-0.72,0.02-1.29,0s-1.49-0.02-2.01-0.03s-1.52-0.04-1.66-0.06
	c-0.14-0.02-0.16,0-0.17-0.22s0.1-2.98,0.13-3.53s0.3-4.58,0.34-5.05c0.04-0.47,0.2-1.64,0.28-1.98s0.42-1.06,0.52-1.14
	s0.19-0.09,0.32-0.09s0.76,0.07,0.88,0.08s0.31-0.07,0.32-0.14s-0.03-0.14-0.12-0.23s-0.09-0.13-0.32-0.14S6.07,22.86,6,22.81
	s-0.05-0.15-0.01-0.25s0.07-0.15,0.19-0.18s1.58,0.08,1.89,0.11s0.66,0.09,0.91,0.13s0.73,0.11,1.13,0.12s1,0.02,1.44-0.02
	s0.72-0.08,1.16-0.14s1.9-0.32,2.05-0.3s0.2,0.03,0.23,0.21s0.04,0.17-0.06,0.24s-0.59,0.15-0.82,0.18s-0.84,0.04-0.93,0.11
	s-0.2,0.23-0.14,0.31s0.41,0.12,0.57,0.13s0.71-0.12,0.93-0.12s0.38,0.04,0.47,0.14s0.23,0.55,0.3,0.8s0.24,1.5,0.33,2
	s0.26,2.03,0.34,2.84s0.29,3.36,0.34,4c0.04,0.52,0.11,1.61,0.14,2C16.46,35.2,16.49,35.33,16.35,35.34z"/>
<path id="player-jersey" class="st4" d="M2.15,13.5c0.27-0.47,0.61-1.03,0.61-1.03s0.86-1.27,1.08-1.59S4.52,10,4.68,9.85
	s0.36-0.3,0.63-0.46c0.34-0.2,0.55-0.33,0.88-0.45s1.12-0.23,1.49-0.26s0.82-0.08,0.82-0.08l0.65,1.3l0.64,1.16l0.76,1.18l0.72-1.02
	l0.75-1.28l0.72-1.33c0,0,0.81,0.04,1.09,0.09s0.8,0.12,1.15,0.26s1.14,0.52,1.49,0.85s0.7,0.82,0.97,1.18
	c0.27,0.37,0.78,1.04,1.02,1.4c0.24,0.36,0.94,1.55,1.02,1.69s0.03,0.14-0.05,0.22c-0.12,0.11-0.44,0.31-0.64,0.41
	c-0.28,0.13-0.65,0.34-0.95,0.45c-0.3,0.11-0.53,0.23-0.97,0.35s-0.75,0.13-0.75,0.13s-0.08,0.07-0.16-0.06
	c-0.17-0.23-0.65-0.9-0.58-0.77c0.08,0.15-0.1-0.27-0.19-0.26s-0.13,0.08-0.15,0.24s0.13,0.51,0.1,0.58s-0.13,0.09-0.19,0.07
	s-0.11-0.09-0.22-0.25s-0.42-0.52-0.56-0.67s-0.41-0.25-0.61-0.34s-0.64-0.12-1.05-0.03c-0.24,0.05-0.61,0.32-0.71,0.47
	s-0.27,0.37-0.29,0.55s-0.04,0.62,0.05,0.72s0.23,0.25,0.27,0.32s0.1,0.25,0.23,0.35c0.05,0.04,0.15,0.06,0.23,0.12
	c0.12,0.1,0.24,0.19,0.38,0.2c0.23,0.02,0.36-0.13,0.47-0.03s0.25,0.19,0.5,0.28s0.51,0.13,0.64,0.19c0.33,0.16,0.52,0.27,0.52,0.27
	s0.02,0.21,0.02,0.45s0.04,0.4,0.01,0.79c-0.02,0.24,0.03,1.46,0.04,1.92s-0.09,0.96-0.09,0.96s0.02,0.12-0.15,0.15
	c-0.17,0.03-1.67,0.23-1.67,0.23S12.82,22.06,12.8,22c-0.14-0.42-0.61-1.9-0.66-1.99c-0.05-0.11-0.52-0.09-0.71-0.17
	s-0.68-0.42-0.83-0.47s-0.49-0.09-0.49,0s0.2,0.39,0.33,0.5s1.14,0.55,1.2,0.66s0.34,1.58,0.34,1.58s0.05,0.11-0.09,0.14
	c-0.2,0.04-0.63,0.07-0.84,0.07c-0.29,0-0.56,0.01-0.89,0s-0.73-0.04-1.03-0.09s-0.79-0.12-1.12-0.16s-1.52-0.13-1.61-0.15
	s-0.14-0.02-0.12-0.21s0.01-1.46,0.01-1.46l0.09-2.34c0,0-0.01-0.17,0.15-0.26s0.52-0.27,0.52-0.27l0.43-0.14
	c0,0,0.27-0.12,0.46-0.25c0.15-0.1,0.21-0.22,0.27-0.22c0.12,0,0.21,0.15,0.39,0.12s0.3-0.12,0.5-0.2s0.27-0.31,0.34-0.41
	c0.09-0.11,0.1-0.11,0.2-0.23c0.07-0.08,0.06-0.18,0.1-0.3s0.02-0.55-0.04-0.67s-0.2-0.38-0.3-0.52s-0.25-0.29-0.35-0.35
	C8.82,14.06,8.11,13.95,7.89,14s-0.59,0.18-0.82,0.37s-0.77,1-0.87,1.04s-0.09-0.02-0.14-0.08s0.08-0.51,0.07-0.58
	s-0.1-0.32-0.2-0.26s-0.23,0.35-0.35,0.55s-0.4,0.62-0.36,0.57s-0.03,0.09-0.17,0.05S4.2,15.49,4.2,15.49l-1.14-0.44l-0.8-0.4
	c0,0-0.39-0.18-0.49-0.25s-0.07-0.08-0.04-0.15C1.81,14.11,1.96,13.82,2.15,13.5z"/>
<polygon class="st3" points="7.04,54 7.8,54.21 7.59,54.33 7.32,54.25 "/>
<path id="skin-leg-l" class="st2" d="M12.04,35.92l0.12,0.76l0.18,1.07l0.07,0.78c0,0,0.41,0.22,0.71,0.3s0.72,0.11,1,0.08
	s0.64-0.19,0.68-0.2c0.04,0,0.12-0.27,0.19-0.47c0.07-0.2,0.46-2.41,0.46-2.41s-0.95,0.05-1.61,0.04S12.04,35.92,12.04,35.92z"/>
<path id="player-sock-l" class="st4" d="M13.84,40.58c-0.16-0.02-0.23-0.08-0.36-0.02s-0.2,0.06-0.19,0.16
	c0,0.11,0.27,0.45,0.51,0.55c0.24,0.1,0.49,0.15,0.61,0.2c0.13,0.06,0.17,0.08,0.16,0.21c0,0.13-0.01,0.46-0.09,0.9
	s-0.69,3.45-0.71,3.76s-0.06,0.5-0.08,0.62c-0.01,0.12-0.02,0.45-0.05,0.53c-0.03,0.08-0.44-0.07-0.55,0.01
	c-0.11,0.07-0.38,0.32-0.47,0.48c-0.09,0.17-0.22,0.51-0.3,0.58c-0.08,0.07-0.11,0.15-0.22,0.12c-0.11-0.03-0.21-0.31-0.23-0.46
	c-0.02-0.14,0.12-3.23,0.14-3.83c0.02-0.6,0.04-1.66,0.05-2.12s0.03-0.79,0.06-1.05c0.03-0.26,0.13-0.52,0.12-0.77
	s-0.09-0.55-0.12-0.74s0.1-0.49,0.12-0.58s0.12-0.06,0.21-0.02s0.26,0.1,0.55,0.17s0.87,0.11,1.14,0.09s0.62-0.15,0.7-0.14
	s0.07,0.06,0.09,0.25c0.02,0.19,0.11,0.48,0.04,0.74c-0.07,0.26-0.21,0.41-0.37,0.46C14.44,40.72,14.01,40.6,13.84,40.58z"/>
<path class="st1" d="M13.39,38.3c-0.03-0.08,0.03-0.17,0.03-0.17s0.21,0.06,0.36,0.06s0.36-0.16,0.39-0.11s-0.1,0.23-0.24,0.31
	s-0.3,0.13-0.39,0.11S13.42,38.38,13.39,38.3z"/>
<polygon class="st3" points="14.18,54 13.42,54.21 13.63,54.33 13.9,54.25 "/>
<path id="skin-arm-r" class="st2" d="M8.91,15.26c0.07,0.01,0.17,0.18,0.17,0.18s0.1,0.29,0.14,0.35s0.13-0.01,0.13-0.11
	s0-0.32-0.03-0.46s-0.31-0.53-0.38-0.59s-0.23-0.12-0.35-0.15s-0.38-0.05-0.51-0.05s-0.3,0.06-0.42,0.11s-0.25,0.1-0.32,0.18
	s-0.35,0.49-0.46,0.62s-0.29,0.4-0.29,0.4s-2.75,0.57-2.88,0.62s-0.32,0.2-0.32,0.2s-0.05-0.07-0.06-0.14s0.09-0.21,0.09-0.21
	l0.3-0.42l-1.11-0.47l-0.89-0.46c0,0-0.54,1.47-0.6,1.79s-0.14,0.69-0.12,0.95s0.32,0.8,0.64,0.88s0.41,0.06,0.69,0.03
	s0.58-0.08,1.06-0.2s0.66-0.19,1.03-0.34s1-0.47,1.41-0.64s1.1-0.5,1.1-0.5l0.34-0.04c0,0,0.19-0.03,0.27-0.07s0.18-0.14,0.27-0.21
	s0.24-0.25,0.24-0.25s0.1-0.09,0.18-0.1s0.14,0.03,0.14,0.03s0.07,0.21,0.12,0.25s0.08,0.01,0.15,0.03s0.08-0.1,0.08-0.1
	s-0.02-0.22-0.07-0.3s-0.17-0.28-0.17-0.28s-0.01-0.08,0.06-0.11s0.1,0.04,0.1,0.04s0.24,0.5,0.3,0.53s0.1,0.03,0.13-0.04
	c0.06-0.17-0.03-0.39-0.03-0.39s-0.2-0.48-0.2-0.47S8.84,15.25,8.91,15.26z"/>
<path id="skin-arm-l" class="st2" d="M12.29,15.26c-0.08,0.01-0.12,0.06-0.17,0.18s-0.14,0.35-0.14,0.35s-0.1,0.02-0.13-0.11
	s-0.02-0.24,0.03-0.46s0.28-0.51,0.38-0.59s0.2-0.12,0.35-0.15s0.39-0.05,0.51-0.05s0.42,0.11,0.42,0.11s0.25,0.12,0.32,0.18
	s0.46,0.62,0.46,0.62l0.29,0.4l2.88,0.62l0.32,0.2l0.06-0.14l-0.09-0.21l-0.3-0.42l1.11-0.47l0.89-0.46c0,0,0.41,0.96,0.62,1.73
	c0.16,0.57,0.14,0.99,0.14,1.06c0,0.17,0,0.39-0.21,0.58c-0.25,0.23-0.71,0.31-0.95,0.29c-0.23-0.03-0.7-0.06-1.06-0.14
	s-0.98-0.29-1.32-0.42s-0.56-0.22-0.99-0.43s-1.37-0.68-1.44-0.71s-0.34-0.04-0.34-0.04s-0.14-0.02-0.27-0.07S13.4,16.5,13.4,16.5
	l-0.24-0.25c0,0-0.11-0.08-0.18-0.1s-0.14,0.03-0.14,0.03l-0.12,0.25c0,0-0.07,0.04-0.15,0.03s-0.08-0.1-0.08-0.1
	s0.02-0.19,0.07-0.3s0.17-0.28,0.17-0.28s-0.01-0.08-0.06-0.11s-0.1,0.04-0.1,0.04l-0.3,0.53c0,0-0.08-0.02-0.11-0.06
	s-0.03-0.11-0.03-0.11s0-0.11,0.05-0.26s0.2-0.47,0.2-0.47S12.37,15.25,12.29,15.26z"/>
<path id="skin-face" class="st2" d="M8.37,5.68L8.78,6.5c0,0,0.24,0.86,0.31,1.03s0.1,0.3,0.35,0.68s0.65,0.69,0.82,0.72
	s0.52,0.12,0.76-0.01s0.74-0.59,0.91-0.77s0.32-0.42,0.4-0.68s0.24-0.84,0.3-0.98s0.1-0.37,0.1-0.37l0.24-0.02l0.43-0.75
	c0,0,0.01-0.04-0.01-0.12S13.27,5,13.27,5l0.02,0.36c0,0-0.17,0.23-0.23,0.25S12.95,5.6,12.95,5.6l-0.01-0.17
	c0,0-0.09-0.76-0.14-0.92s-0.36-0.72-0.46-0.84s-0.42-0.27-0.55-0.31s-0.37-0.1-0.37-0.1l-0.2-0.06c0,0-0.26,0.15-0.33,0.13
	s-0.16-0.17-0.16-0.17S9.9,3.09,9.84,3.12S9.73,3.19,9.61,3.25S9.02,3.73,9.02,3.73S8.81,4.1,8.76,4.2S8.72,4.31,8.69,4.43
	C8.67,4.52,8.72,4.58,8.67,4.7S8.49,4.96,8.44,4.95S8.31,4.72,8.31,4.72L8.26,4.56c0,0-0.01-0.05-0.08,0.05s0,0.39,0,0.39L8.37,5.68
	L8.37,5.68z"/>
<path id="skin-neck" class="st2" d="M11.49,10.15c0.28-0.47,0.79-1.48,0.79-1.48l-0.01-0.06L12.25,8.4c0,0-0.58,0.5-0.67,0.59
	s-0.31,0.28-0.56,0.34c-0.13,0.03-0.55,0.02-0.73-0.02s-0.32-0.09-0.5-0.27S9.3,8.5,9.3,8.5L9.01,8.05L8.97,8.59
	c0,0,0.18,0.42,0.32,0.7s0.38,0.73,0.49,0.94s0.8,1.36,0.8,1.36s0.17-0.25,0.37-0.55C11.14,10.74,11.35,10.39,11.49,10.15z"/>
<polygon class="st1" points="10.62,6.79 10.61,6.68 10.52,6.61 10.31,6.69 10.56,6.8 "/>
<polygon class="st1" points="11.13,6.77 11.2,6.68 11.07,6.57 10.84,6.7 11.03,6.85 "/>
<path class="st1" d="M9.51,4.89c0,0-0.15,0.22-0.07,0.35S9.69,5.4,9.8,5.38s0.23-0.18,0.23-0.18l0.11-0.01l0.15,0.77l0-0.96
	l-0.16-0.19L10.07,4.7c0,0-0.59-0.08-0.71-0.06S9.14,4.75,9.14,4.75s-0.05,0,0.04,0.03S9.51,4.89,9.51,4.89z"/>
<path class="st1" d="M11.8,4.81l0.25-0.14l0.38,0.22l-0.05-0.11c0,0-0.27-0.21-0.38-0.22S11.5,4.66,11.5,4.66l-0.44,0.22l0.05,0.11
	c0,0,0.19,0.31,0.34,0.32s0.29-0.06,0.36-0.17S11.8,4.81,11.8,4.81z"/>
<polygon class="st1" points="10.51,7.52 10.57,7.67 10.47,7.68 10.27,7.77 10.24,7.85 10.39,7.92 10.84,7.9 10.95,7.65 11.08,7.54 
	11.38,7.39 11.52,7.3 11.51,7.25 11.33,7.25 10.74,7.33 10.05,7.28 9.97,7.35 10.24,7.47 "/>
<path id="hair" class="st1" d="M7.69,3.79l0.25-0.5L7.8,2.86l0.18-0.1l0.07-0.38l0.28-0.56l0.45-0.49L9.1,1.23l0.11-0.14l0.55,0.05
	l0.59-0.22l0.64-0.21l0.08,0.11l0.82,0.12l0.32,0.27l0.13-0.11l0.3,0.37L13.1,1.9l0.55,0.94l-0.09,0.11L13.46,3.5l0.27,0.44
	l-0.29,0.23V4.7l-0.11-0.15l-0.19,0.07c0,0-0.16-0.54-0.24-0.69c-0.12-0.23-0.3-0.52-0.43-0.64C12.34,3.17,11.82,3,11.82,3
	l-0.36-0.09l-0.2-0.06l-0.25,0.13l-0.15-0.16L9.81,2.78c0,0-0.14,0.06-0.23,0.13C9.49,2.97,9.15,3.2,8.99,3.34
	c-0.06,0.05-0.2,0.24-0.28,0.35C8.64,3.8,8.51,4.12,8.44,4.2C8.38,4.27,8.26,4.14,8.26,4.14S7.92,4.36,7.97,4.59
	c-0.02,0.06,0,0.12-0.02,0.18L7.87,4.58L7.9,4.12L7.69,3.79z"/>
</svg>
