<?xml version="1.0" encoding="utf-8"?>
<!-- Generator: Adobe Illustrator 16.0.4, SVG Export Plug-In . SVG Version: 6.00 Build 0)  -->
<!DOCTYPE svg PUBLIC "-//W3C//DTD SVG 1.1//EN" "http://www.w3.org/Graphics/SVG/1.1/DTD/svg11.dtd">
<svg version="1.1" id="Ebene_1" xmlns="http://www.w3.org/2000/svg" xmlns:xlink="http://www.w3.org/1999/xlink" x="0px" y="0px"
	 width="18.719px" height="53.478px" viewBox="0 0 18.719 53.478" enable-background="new 0 0 18.719 53.478" xml:space="preserve">
<path fill-rule="evenodd" clip-rule="evenodd" fill="#1A1A18" d="M0.692,16.878c0.109-0.471,0.387-1.348,0.387-1.348l0.148-0.449
	c0,0-0.083-0.053-0.174-0.149c-0.068-0.074-0.109-0.133,0-0.339c0.064-0.12,0.639-0.919,0.982-1.435
	c0.283-0.425,0.812-1.188,1.078-1.531c0.229-0.297,1.031-1.234,1.453-1.562C4.834,9.856,5.583,9.55,6.004,9.456
	c0.327-0.073,1.85-0.29,1.906-0.297c0.006-0.001,0.045-0.001,0.102-0.002c-0.127-0.18-0.317-0.459-0.429-0.688
	C7.407,8.115,7.23,7.812,7.23,7.812s-0.089-0.016-0.186-0.11C6.877,7.535,6.841,7.378,6.781,7.216
	C6.719,7.055,6.652,6.643,6.634,6.538C6.617,6.435,6.749,6.205,6.749,6.205s-0.214-0.41-0.313-0.842
	c-0.101-0.435-0.096-0.726-0.114-1.11C6.304,3.869,6.548,3.075,6.873,2.671c0.148-0.208,0.28-0.32,0.585-0.479
	c0.131-0.068,0.271-0.164,0.45-0.218c0.008-0.051-0.022-0.233,0.08-0.426c0.146-0.279,0.321-0.515,0.624-0.712
	C8.925,0.63,9.572,0.554,9.944,0.785c0.398,0.249,0.398,0.32,0.629,0.653c0.208,0.3,0.111,0.483,0.111,0.483
	s0.732,0.378,1.071,0.837c0.294,0.396,0.748,1.01,0.415,2.656l-0.172,0.747c0,0,0.084-0.011,0.152,0.154
	c0.071,0.164,0.027,0.469-0.018,0.653c-0.045,0.187-0.308,0.554-0.487,0.707c-0.179,0.153-0.259,0.088-0.259,0.088
	s-0.186,0.379-0.389,0.756c-0.181,0.339-0.344,0.575-0.378,0.623c0.075,0,0.118,0,0.118,0s0.737,0.082,1.125,0.141
	c0.387,0.057,1.08,0.243,1.344,0.328s0.875,0.422,1.25,0.734c0.298,0.248,0.615,0.629,0.797,0.891
	c0.183,0.263,0.516,0.688,0.766,1.047c0.199,0.287,0.844,1.266,1.078,1.656c0.111,0.187,0.48,0.774,0.512,0.875
	c0.032,0.102,0.005,0.126,0.005,0.126l-0.121,0.119c0,0,0.135,0.371,0.243,0.695c0.111,0.322,0.336,1.133,0.381,1.477
	c0.045,0.346,0.049,0.482,0.025,0.686c-0.021,0.205-0.148,0.678-0.467,0.945c-0.209,0.176-0.56,0.252-0.953,0.234
	s-0.752-0.176-1.062-0.266s-0.848-0.354-1.234-0.5c-0.389-0.146-1.125-0.469-1.125-0.469s0.048,0.83,0.062,1.141
	c0.013,0.309-0.047,0.516,0.016,1.062c0.036,0.32,0.031,0.812,0.069,1.268c0.028,0.338,0.048,0.652,0.048,0.652
	s0.121,0.154,0.184,0.256c0.062,0.104,0.119,0.398,0.088,0.541c-0.041,0.191-0.164,0.309-0.137,0.383
	c0.055,0.145,0.205,0.484,0.314,0.764c0.11,0.279,0.182,0.65,0.234,0.885c0.054,0.232,0.129,0.918,0.166,1.385
	c0.038,0.465,0.148,2.054,0.148,2.054s0.128,2.164,0.159,2.84c0.032,0.674,0.11,2.777,0.11,2.777s0.004,0.852-0.014,1.029
	c-0.008,0.086-0.056,0.107-0.201,0.117c-0.146,0.008-0.654,0.041-0.654,0.041s-0.141,1.031-0.195,1.428s-0.232,1.295-0.232,1.295
	s-0.027,0.16,0.014,0.352s0.1,0.746,0.063,0.99c-0.036,0.246-0.063,0.422-0.181,0.629c-0.037,0.066-0.055,0.162-0.051,0.285
	c0.004,0.125,0,0.496-0.025,0.744s-0.501,2.74-0.551,2.973c-0.049,0.23-0.156,0.822-0.198,1.07c-0.043,0.248-0.12,1.051-0.12,1.051
	s0.132,0.057,0.159,0.172c0.027,0.113,0.019,0.299-0.06,0.449c-0.077,0.148-0.197,0.662-0.219,0.729
	c-0.021,0.068,0.096,0.453,0.139,0.643c0.044,0.189,0.283,2.381,0.295,2.6c0.01,0.398,0.04,0.934,0.052,1.172
	c0.013,0.24,0.025,0.568-0.056,0.697c-0.082,0.131-0.268,0.387-0.504,0.457s-0.351,0.053-0.636-0.041
	c-0.284-0.094-0.577-0.285-0.787-0.512c-0.209-0.229-0.553-1.854-0.655-2.225c-0.103-0.371-0.314-1.406-0.338-1.719
	s0.169-1,0.175-1.201s0.031-0.672,0.04-1.178c0.007-0.508,0.059-1.188,0.061-1.811s-0.033-2.148-0.033-2.148
	s0.044-1.219,0.062-1.533c0.018-0.312,0.115-1.014,0.123-1.146c0.007-0.131-0.035-0.379-0.055-0.646
	c-0.02-0.268,0.078-0.619,0.127-0.809c0.051-0.191,0.16-0.352,0.16-0.352s-0.055-0.662-0.123-1.045
	c-0.068-0.383-0.287-1.322-0.287-1.322s-0.362-0.006-0.468-0.012c-0.107-0.004-0.133-0.045-0.14-0.148
	c-0.009-0.105-0.044-0.326-0.046-0.451c-0.003-0.125-0.017-0.316-0.017-0.316s-0.037,0.23-0.054,0.396
	c-0.018,0.17-0.041,0.207-0.068,0.324c-0.027,0.119-0.041,0.186-0.232,0.195c-0.192,0.012-0.439,0-0.439,0s-0.151,0.83-0.225,1.266
	c-0.075,0.436-0.138,1.01-0.127,1.084c0.011,0.072,0.065,0.209,0.113,0.375c0.048,0.168,0.084,0.609,0.08,0.83
	c-0.004,0.221-0.035,0.514-0.04,0.646C8.389,39.426,8.5,39.915,8.513,40.19c0.012,0.275,0.013,1.396,0.027,2.059
	c0.013,0.66,0.023,1.363,0.039,1.857c0.016,0.494,0.027,1.488,0.029,1.848s0.059,1.141,0.059,1.141s0.175,1,0.188,1.201
	c0.014,0.201-0.238,1.281-0.339,1.719c-0.1,0.438-0.509,1.887-0.667,2.096c-0.159,0.209-0.544,0.588-0.775,0.641
	s-0.422,0.104-0.635,0.041c-0.213-0.061-0.384-0.234-0.504-0.457c-0.119-0.221-0.123-0.5-0.121-0.846s0.058-1.203,0.118-1.736
	c0.062-0.535,0.424-2.211,0.4-2.314c-0.024-0.104-0.195-0.744-0.24-0.857c-0.044-0.113-0.035-0.234-0.019-0.344
	c0.016-0.107,0.179-0.277,0.179-0.277s0.003-0.434-0.06-0.795c-0.062-0.359-0.199-1.123-0.323-1.77
	c-0.123-0.646-0.481-2.498-0.492-2.734c-0.011-0.238-0.019-0.527-0.03-0.625c-0.011-0.096,0-0.137-0.054-0.285
	c-0.053-0.148-0.2-0.305-0.231-0.662c-0.03-0.359,0.042-0.832,0.083-1.045c0.023-0.123,0.042-0.271,0.042-0.271l-0.531-2.84
	c0,0-0.25-0.006-0.496-0.035s-0.327-0.057-0.315-0.264c0.014-0.25,0.014-0.428,0.069-1.088c0.055-0.662,0.232-3.221,0.301-3.881
	c0.055-0.543,0.127-1.782,0.164-2.088c0.055-0.456,0.096-0.883,0.188-1.602c0.07-0.545,0.197-1.514,0.244-1.809
	s0.115-0.574,0.18-0.857c0.035-0.158,0.167-0.289,0.119-0.43c-0.047-0.141,0.055-0.541,0.092-0.674
	c0.035-0.131,0.111-0.166,0.139-0.225s0.047-0.475,0.07-0.93c0.031-0.609,0-1.936,0-2.156s0.016-1.047,0.016-1.047
	s-0.672,0.328-1.297,0.562c-0.414,0.154-1.182,0.391-1.547,0.453c-0.547,0.094-1.033,0.176-1.328,0.047
	c-0.37-0.162-0.617-0.354-0.672-0.734C0.528,17.792,0.597,17.283,0.692,16.878z"/>
<path id="skin-leg-l" fill-rule="evenodd" clip-rule="evenodd" fill="#F9CAA9" d="M13.139,37.235
	c-0.06,0.248-0.146,0.445-0.146,0.445s-0.266,0.154-0.594,0.186s-0.783-0.027-0.998-0.086c-0.216-0.059-0.493-0.207-0.493-0.207
	s-0.037-0.531-0.066-0.787c-0.03-0.256-0.124-0.744-0.16-1.008c-0.035-0.262-0.159-0.686-0.159-0.686s1.178-0.033,1.684-0.033
	c0.508,0,1.273-0.014,1.273-0.014S13.184,37.047,13.139,37.235z"/>
<path id="player-sock-l" fill-rule="evenodd" clip-rule="evenodd" fill="#0068B4" d="M12.157,39.442
	c-0.141-0.016-0.207-0.078-0.317-0.018s-0.176,0.025-0.17,0.152c0.005,0.129,0.251,0.436,0.45,0.518
	c0.198,0.08,0.424,0.107,0.537,0.191c0.113,0.08,0.168,0.193,0.153,0.33c-0.015,0.139-0.021,0.338-0.092,0.707
	c-0.071,0.367-0.591,3.377-0.626,3.533c-0.034,0.156-0.043,0.455-0.066,0.584c-0.023,0.131-0.004,0.453-0.041,0.498
	s-0.347-0.02-0.479,0.004c-0.133,0.025-0.319,0.27-0.411,0.457c-0.091,0.186-0.117,0.49-0.193,0.566s-0.168,0.121-0.259,0.092
	c-0.091-0.031-0.171-0.312-0.2-0.428c-0.028-0.117,0.09-3.111,0.12-3.607c0.03-0.494,0.037-1.623,0.04-2
	c0.003-0.377,0.047-0.625,0.052-0.986c0.006-0.359,0.112-0.58,0.107-0.727c-0.005-0.148-0.1-0.475-0.107-0.701
	c-0.007-0.227,0.043-0.465,0.107-0.545c0.062-0.078,0.021-0.041,0.146-0.02c0.124,0.021,0.231,0.107,0.518,0.164
	c0.289,0.057,0.628,0.129,0.999,0.086c0.372-0.045,0.597-0.121,0.604-0.104c0.036,0.088,0.087,0.043,0.123,0.279
	c0.035,0.238,0.055,0.457-0.014,0.678s-0.191,0.311-0.314,0.375C12.702,39.588,12.297,39.459,12.157,39.442z"/>
<path fill-rule="evenodd" clip-rule="evenodd" fill="#1A1A18" d="M11.79,37.135c0.035-0.018,0.193,0.045,0.312,0.059
	c0.119,0.012,0.339-0.105,0.339-0.105s-0.101,0.217-0.208,0.293c-0.107,0.074-0.215,0.133-0.338,0.104
	C11.77,37.456,11.752,37.155,11.79,37.135z"/>
<path id="player-shorts" fill-rule="evenodd" clip-rule="evenodd" fill="#FFFFFF" d="M4.305,34.514
	c0.115,0.016,0.631,0.057,0.893,0.064c0.262,0.01,0.742,0.039,1.207,0.039c0.466,0,1.023,0.051,1.374,0.047
	c0.351-0.002,0.83,0.012,0.966,0.012c0.137,0,0.197-0.016,0.219-0.133c0.055-0.279,0.068-0.41,0.068-0.41s0.11-0.75,0.15-1.367
	c0.041-0.619,0.071-1.152,0.083-1.559c0.011-0.406,0.06-1.557,0.044-1.838c-0.017-0.279-0.049-0.463-0.067-0.629
	c-0.018-0.166-0.028-0.297-0.132-0.342s-0.864-0.301-0.997-0.401c-0.134-0.1-0.327-0.346-0.34-0.428
	c-0.013-0.082,0.123-0.049,0.219-0.021c0.097,0.027,0.206,0.129,0.466,0.219c0.117,0.039,0.307,0.109,0.466,0.16
	c0.159,0.053,0.328,0.102,0.451,0.117c0.124,0.018,0.214,0.012,0.315-0.014c0.1-0.025,0.315-0.088,0.438-0.205
	c0.091-0.088,0.206-0.266,0.356-0.354c0.115-0.066,0.287-0.135,0.342-0.053c0.055,0.082,0.042,0.111-0.013,0.215
	c-0.055,0.102-0.446,0.559-0.588,0.661c-0.143,0.104-0.575,0.291-0.596,0.404c-0.021,0.111-0.048,0.377-0.048,0.686
	s0.027,1.221,0.048,1.764s0.07,1.928,0.093,2.316c0.023,0.389,0.077,0.977,0.085,1.094c0.007,0.117,0.016,0.133,0.141,0.146
	c0.126,0.016,0.631,0.016,1.131,0c0.5-0.014,1.308-0.014,1.759-0.029c0.452-0.014,1.328-0.041,1.45-0.057
	c0.124-0.016,0.145,0.002,0.148-0.205c0.004-0.209-0.088-2.807-0.111-3.322c-0.022-0.518-0.262-4.308-0.3-4.751
	c-0.037-0.443-0.171-1.541-0.247-1.859c-0.078-0.318-0.365-1.002-0.454-1.07c-0.089-0.07-0.167-0.088-0.279-0.086
	c-0.11,0-0.665,0.064-0.771,0.068C12.167,23.4,12,23.326,11.995,23.267c-0.006-0.059,0.027-0.133,0.107-0.215
	c0.078-0.078,0.08-0.117,0.277-0.127c0.198-0.01,0.936-0.158,0.998-0.201c0.062-0.045,0.047-0.141,0.007-0.24
	s-0.099-0.125-0.206-0.154c-0.105-0.027-1.346,0.059-1.617,0.086c-0.27,0.029-0.578,0.086-0.8,0.123s-0.642,0.1-0.994,0.113
	c-0.352,0.014-0.878,0.018-1.258-0.016c-0.38-0.031-0.633-0.07-1.013-0.131c-0.38-0.061-1.612-0.26-1.742-0.242
	c-0.129,0.016-0.229-0.014-0.252,0.152c-0.025,0.166-0.033,0.162,0.051,0.221c0.085,0.059,0.517,0.137,0.719,0.17
	c0.201,0.035,0.737,0.037,0.818,0.102c0.081,0.066,0.179,0.215,0.123,0.295s-0.362,0.115-0.503,0.119s-0.62-0.115-0.812-0.115
	c-0.192,0.002-0.33,0.035-0.412,0.137c-0.081,0.102-0.204,0.518-0.26,0.75c-0.055,0.232-0.211,1.412-0.291,1.881
	c-0.078,0.469-0.229,1.911-0.297,2.675c-0.068,0.766-0.255,3.162-0.299,3.766c-0.035,0.488-0.099,1.512-0.12,1.879
	C4.215,34.379,4.191,34.5,4.305,34.514z"/>
<path id="player-shirt" fill-rule="evenodd" clip-rule="evenodd" fill="#0068B4" d="M16.754,14.112
	c-0.328-0.531-1.262-1.868-1.453-2.172c-0.222-0.35-0.814-0.995-0.906-1.109c-0.203-0.25-1.004-0.781-1.297-0.891
	c-0.294-0.108-0.883-0.237-1.203-0.281c-0.453-0.062-1.141-0.109-1.141-0.109l-0.531,1.109l-0.609,1.484l-0.312,0.609l-0.438-0.969
	l-0.531-1.266L7.895,9.534c0,0-1.211,0.109-1.453,0.156s-0.767,0.2-1.078,0.328s-0.771,0.484-1.078,0.797
	c-0.309,0.312-0.686,0.749-0.922,1.094c-0.236,0.346-0.906,1.266-1.125,1.641c-0.2,0.343-0.604,0.852-0.672,0.984
	c-0.069,0.132-0.04,0.196,0.031,0.266c0.107,0.106,0.4,0.252,0.578,0.344c0.24,0.123,0.555,0.279,0.818,0.387
	c0.262,0.107,0.467,0.213,0.851,0.328s0.657,0.125,0.657,0.125s0.068,0.064,0.141-0.053c0.146-0.219,0.565-0.844,0.506-0.727
	c-0.072,0.139,0.084-0.252,0.17-0.248c0.087,0.005,0.117,0.078,0.129,0.224c0.012,0.148-0.117,0.484-0.086,0.551
	c0.029,0.066,0.112,0.082,0.168,0.066c0.054-0.014,0.095-0.088,0.191-0.234c0.096-0.146,0.369-0.484,0.492-0.631
	c0.123-0.148,0.356-0.236,0.534-0.324s0.561-0.118,0.916-0.029c0.206,0.051,0.536,0.305,0.624,0.44
	c0.088,0.133,0.24,0.348,0.254,0.514c0.012,0.164,0.037,0.586-0.043,0.678c-0.079,0.092-0.2,0.232-0.237,0.301
	c-0.037,0.066-0.085,0.234-0.201,0.332c-0.046,0.039-0.133,0.055-0.205,0.117c-0.104,0.09-0.21,0.182-0.328,0.191
	c-0.199,0.016-0.319-0.119-0.413-0.031c-0.094,0.09-0.217,0.178-0.436,0.266c-0.219,0.09-0.437,0.055-0.55,0.111
	c-0.288,0.146-0.312,0.178-0.312,0.178s-0.01,0.506-0.016,0.734c-0.007,0.227-0.025,1.816-0.031,2.25
	c-0.008,0.434-0.031,1.062-0.031,1.062s-0.015,0.111,0.135,0.143s1.41,0.18,1.41,0.18s0.117-0.021,0.137-0.088
	C7.54,21.562,7.958,20.171,8,20.08c0.047-0.105,0.453-0.086,0.62-0.16c0.167-0.078,0.595-0.391,0.73-0.447
	c0.135-0.057,0.429-0.086,0.432-0.006c0.004,0.082-0.176,0.369-0.285,0.469c-0.109,0.098-1,0.52-1.054,0.617
	c-0.054,0.098-0.294,1.482-0.294,1.482s-0.046,0.1,0.077,0.129c0.176,0.041,0.55,0.062,0.735,0.062
	c0.25-0.002,0.494,0.006,0.784-0.002c0.291-0.01,0.637-0.041,0.9-0.088c0.264-0.045,0.694-0.115,0.986-0.154
	c0.29-0.037,1.292-0.104,1.374-0.119c0.081-0.018,0.138-0.021,0.108-0.193c-0.07-0.414-0.077-1.088-0.077-1.088l-0.078-2.438
	c0,0,0.029-0.377-0.109-0.469s-0.303-0.178-0.303-0.178l-0.437-0.051c0,0-0.239-0.113-0.407-0.236
	c-0.128-0.094-0.186-0.205-0.232-0.205c-0.109,0-0.182,0.139-0.342,0.117c-0.162-0.023-0.261-0.117-0.438-0.191
	c-0.178-0.072-0.232-0.293-0.301-0.383c-0.078-0.1-0.091-0.107-0.178-0.221c-0.062-0.078-0.049-0.164-0.085-0.281
	c-0.037-0.115-0.015-0.514,0.031-0.629s0.179-0.354,0.26-0.485c0.082-0.133,0.218-0.275,0.308-0.33c0.186-0.112,0.803-0.215,1-0.171
	s0.521,0.171,0.715,0.35c0.195,0.181,0.679,0.941,0.758,0.978c0.08,0.039,0.078-0.02,0.12-0.07s-0.071-0.477-0.062-0.543
	s0.091-0.299,0.173-0.243c0.082,0.059,0.2,0.327,0.306,0.516c0.104,0.188,0.347,0.578,0.315,0.537
	c-0.032-0.041,0.023,0.082,0.152,0.049c0.131-0.031,0.752-0.174,0.752-0.174l1.002-0.412l0.701-0.373c0,0,0.346-0.172,0.428-0.239
	c0.08-0.066,0.062-0.078,0.032-0.137C17.047,14.536,16.936,14.408,16.754,14.112z"/>
<path id="skin-leg-r" fill-rule="evenodd" clip-rule="evenodd" fill="#F9CAA9" d="M8.088,35.059l-0.106,0.719l-0.16,1.008
	l-0.061,0.729c0,0-0.358,0.207-0.618,0.279c-0.26,0.074-0.633,0.1-0.877,0.072c-0.245-0.027-0.561-0.18-0.594-0.186
	c-0.035-0.004-0.104-0.252-0.165-0.445c-0.062-0.191-0.403-2.264-0.403-2.264s0.831,0.045,1.408,0.037
	C7.089,35,8.088,35.059,8.088,35.059z"/>
<path id="player-sock-r" fill-rule="evenodd" clip-rule="evenodd" fill="#0068B4" d="M6.507,39.442
	c0.145-0.016,0.206-0.078,0.318-0.018c0.113,0.061,0.171,0.055,0.17,0.152c-0.002,0.1-0.24,0.42-0.449,0.518
	c-0.21,0.096-0.427,0.139-0.537,0.191c-0.11,0.051-0.146,0.07-0.143,0.193s0.006,0.432,0.08,0.844
	c0.075,0.412,0.602,3.244,0.626,3.533s0.055,0.471,0.066,0.584c0.013,0.117,0.016,0.424,0.041,0.498s0.385-0.064,0.479,0.004
	c0.094,0.07,0.33,0.299,0.41,0.457c0.081,0.156,0.191,0.479,0.259,0.545c0.068,0.068,0.1,0.143,0.194,0.113
	c0.093-0.031,0.183-0.297,0.2-0.428c0.017-0.133-0.107-3.037-0.12-3.607c-0.014-0.568-0.04-1.564-0.041-2s-0.022-0.742-0.053-0.986
	c-0.03-0.242-0.113-0.492-0.106-0.727c0.008-0.236,0.082-0.52,0.106-0.701s-0.086-0.465-0.106-0.545
	c-0.019-0.078-0.103-0.057-0.184-0.02s-0.224,0.092-0.481,0.164c-0.258,0.07-0.766,0.1-0.998,0.086
	c-0.231-0.016-0.544-0.143-0.615-0.133c-0.071,0.012-0.058,0.053-0.077,0.234c-0.018,0.178-0.094,0.449-0.032,0.693
	c0.062,0.242,0.187,0.383,0.326,0.434S6.364,39.459,6.507,39.442z"/>
<path fill-rule="evenodd" clip-rule="evenodd" fill="#1A1A18" d="M6.903,37.295c0.022-0.074-0.026-0.16-0.026-0.16
	s-0.184,0.059-0.314,0.059c-0.13-0.002-0.314-0.15-0.338-0.105c-0.024,0.043,0.085,0.217,0.208,0.293
	C6.556,37.456,6.7,37.5,6.771,37.485C6.843,37.471,6.88,37.374,6.903,37.295z"/>
<path id="skin-arm-l" fill-rule="evenodd" clip-rule="evenodd" fill="#F9CAA9" d="M10.83,15.625
	c-0.06,0.014-0.151,0.168-0.151,0.168s-0.084,0.277-0.126,0.334c-0.042,0.055-0.112-0.016-0.111-0.105
	c0-0.09-0.004-0.299,0.025-0.438c0.03-0.137,0.275-0.496,0.337-0.553c0.062-0.055,0.203-0.116,0.311-0.136
	c0.107-0.022,0.329-0.05,0.444-0.051c0.114-0.001,0.265,0.059,0.367,0.103c0.103,0.045,0.22,0.094,0.284,0.172
	c0.066,0.078,0.308,0.459,0.398,0.584c0.092,0.125,0.259,0.373,0.259,0.373s2.412,0.535,2.519,0.586
	c0.105,0.049,0.279,0.186,0.279,0.186s0.046-0.064,0.053-0.131c0.006-0.064-0.08-0.199-0.08-0.199l-0.266-0.398l0.971-0.445
	l0.783-0.43c0,0,0.473,1.379,0.528,1.688c0.054,0.309,0.124,0.646,0.109,0.896c-0.013,0.25-0.278,0.752-0.558,0.824
	c-0.277,0.072-0.359,0.059-0.605,0.029c-0.247-0.029-0.406-0.033-0.816-0.193c-0.438-0.172-0.625-0.213-0.953-0.359
	s-0.941-0.404-1.297-0.564c-0.355-0.162-0.963-0.475-0.963-0.475l-0.295-0.043c0,0-0.164-0.029-0.24-0.064s-0.158-0.137-0.232-0.197
	c-0.076-0.059-0.214-0.232-0.214-0.232s-0.09-0.086-0.153-0.096c-0.064-0.01-0.122,0.031-0.122,0.031s-0.063,0.193-0.105,0.238
	c-0.042,0.043-0.069,0.008-0.131,0.025s-0.067-0.092-0.067-0.092s0.021-0.211,0.061-0.285c0.041-0.076,0.15-0.262,0.15-0.262
	s0.01-0.074-0.057-0.107c-0.067-0.031-0.087,0.039-0.087,0.039s-0.211,0.467-0.266,0.5c-0.056,0.033-0.088,0.027-0.11-0.039
	c-0.055-0.162,0.026-0.373,0.026-0.373s0.179-0.455,0.179-0.438C10.908,15.71,10.889,15.611,10.83,15.625z"/>
<path id="skin-arm-r" fill-rule="evenodd" clip-rule="evenodd" fill="#F9CAA9" d="M7.868,15.625
	c0.07,0.014,0.109,0.059,0.151,0.168c0.042,0.109,0.125,0.334,0.125,0.334s0.088,0.014,0.112-0.105s0.021-0.227-0.026-0.438
	c-0.046-0.211-0.245-0.482-0.337-0.553c-0.093-0.069-0.173-0.116-0.31-0.136c-0.139-0.022-0.34-0.05-0.444-0.051
	S6.77,14.946,6.77,14.946s-0.214,0.11-0.282,0.172c-0.069,0.062-0.4,0.584-0.4,0.584l-0.257,0.373l-2.52,0.586l-0.279,0.186
	l-0.053-0.131l0.08-0.199l0.266-0.398l-0.971-0.445l-0.783-0.43c0,0-0.357,0.908-0.545,1.629c-0.139,0.539-0.123,0.928-0.123,0.998
	c0,0.162,0,0.369,0.182,0.547c0.219,0.217,0.619,0.25,0.826,0.227c0.206-0.025,0.654-0.07,0.969-0.141
	c0.314-0.072,0.658-0.201,0.953-0.328c0.293-0.129,0.661-0.217,1.035-0.422s1.196-0.639,1.258-0.664
	c0.061-0.025,0.295-0.043,0.295-0.043s0.125-0.016,0.239-0.064c0.115-0.051,0.235-0.197,0.235-0.197l0.211-0.232
	c0,0,0.093-0.072,0.154-0.096c0.062-0.025,0.122,0.031,0.122,0.031l0.105,0.238c0,0,0.059,0.037,0.131,0.025
	c0.073-0.012,0.067-0.092,0.067-0.092s-0.016-0.18-0.06-0.285c-0.043-0.105-0.149-0.262-0.149-0.262s0.005-0.074,0.056-0.107
	c0.051-0.031,0.087,0.039,0.087,0.039l0.267,0.5c0,0,0.066-0.016,0.101-0.057c0.034-0.041,0.024-0.105,0.024-0.105
	s0.004-0.105-0.041-0.25c-0.045-0.143-0.18-0.438-0.18-0.438S7.797,15.611,7.868,15.625z"/>
<path id="skin-neck" fill-rule="evenodd" clip-rule="evenodd" fill="#F9CAA9" d="M9.285,11.878l0.922-2.266
	c0,0-0.272,0.282-0.906,0.297C8.683,9.923,8.379,9.644,8.379,9.644L9.285,11.878z"/>
<path id="skin-face" fill-rule="evenodd" clip-rule="evenodd" fill="#F9CAA9" d="M7.022,6.523C6.983,6.711,7.06,6.909,7.161,7.241
	c0.084,0.277,0.368,0.373,0.368,0.373s0.235,0.581,0.541,1.052C8.416,9.142,8.77,9.6,9.335,9.587
	c0.553-0.013,0.965-0.545,1.257-0.979c0.303-0.492,0.564-1.058,0.564-1.058l0.058-0.119c0,0,0.157,0.054,0.224-0.002
	c0.127-0.107,0.41-0.475,0.43-0.796c0.008-0.146-0.117-0.221-0.117-0.221S11.682,6.558,11.583,6.7
	c-0.1,0.141-0.266,0.281-0.266,0.281l0.002-0.854l-0.133,0.129c0,0-0.079-0.185-0.074-0.362c-0.013-0.168-0.062-0.271-0.062-0.271
	l-0.143,0.095l-0.057-0.282c0,0,0,0.027-0.025,0.102c-0.036,0.026-0.266-0.131-0.304-0.118c-0.044,0.058-0.185,0.004-0.184,0.056
	c0.001,0.063-0.233,0.104-0.326,0.023L9.7,5.294C9.625,5.248,9.52,5.347,9.337,5.32S8.545,5.079,8.474,5.023
	C7.964,4.746,7.81,4.507,7.81,4.507S7.777,4.491,7.742,5.018C7.717,5.379,7.656,5.504,7.615,5.738C7.574,5.971,7.4,6.491,7.4,6.491
	S7.382,6.157,7.263,6.148S7.061,6.337,7.022,6.523z M8.915,6.149L8.142,5.894c0.479,0.135,0.579,0.051,0.714,0.055
	C9.127,5.963,8.915,6.149,8.915,6.149z M9.312,7.52C9.217,7.543,9.07,7.497,9.07,7.497l0.126-0.095
	C9.196,7.402,9.242,7.497,9.312,7.52z M9.456,8.167C9.328,8.246,9.285,8.169,9.224,8.148l0.087-0.074
	C9.392,8.075,9.48,8.093,9.456,8.167z M9.711,7.479L9.685,7.497L9.576,7.535L9.451,7.517l0.157-0.128L9.711,7.479z M10.554,5.871
	L9.792,6.163c0,0-0.222-0.179,0.05-0.204C9.978,5.947,10.082,6.027,10.554,5.871z M10.213,6.569c0,0-0.046,0.027-0.219,0.003
	C9.93,6.564,9.827,6.451,9.803,6.472C9.66,6.604,9.777,6.728,9.743,6.72C9.651,6.698,9.674,6.485,9.674,6.485
	S9.678,6.284,9.94,6.241c0.171-0.03,0.519,0.016,0.57,0.015l0.483-0.03l-0.375,0.197l-0.229-0.006l-0.039,0.019
	C10.351,6.436,10.401,6.491,10.213,6.569z M8.599,8.312C8.526,8.25,8.883,8.283,8.883,8.283s0.147,0.029,0.27-0.01
	c0.122-0.041,0.168,0.03,0.223-0.013c0.197-0.16,0.228,0.025,0.375,0.03c0.144,0.006,0.267-0.031,0.369-0.001
	c0.03,0.009,0.108,0.019,0.108,0.019l-0.166,0.088c0,0-0.228-0.015-0.358,0.034C9.646,8.452,9.564,8.5,9.564,8.5
	s0.047,0.101,0.03,0.164c-0.03,0.119-0.289,0.118-0.289,0.118L9.168,8.733l0.008-0.077c0,0,0.114-0.018,0.188-0.021
	c0.054-0.003-0.052-0.141-0.052-0.141S9.074,8.477,8.98,8.471C8.839,8.464,8.685,8.384,8.599,8.312z M7.662,6.301L8.147,6.31
	c0.049-0.001,0.396-0.062,0.568-0.04C8.979,6.301,8.991,6.5,8.991,6.5s0.035,0.213-0.057,0.238c-0.033,0.01,0.078-0.119-0.072-0.246
	C8.839,6.474,8.74,6.591,8.676,6.603c-0.17,0.032-0.219,0.007-0.219,0.007c-0.193-0.07-0.143-0.128-0.143-0.128l-0.04-0.017
	L8.045,6.482L7.662,6.301z"/>
<path fill="#FFFFFF" d="M8.254,1.888c0,0,0.382-0.352,1.104-0.367c0.609-0.015,1.027,0.367,1.027,0.367S9.896,1.718,9.335,1.73
	C8.793,1.743,8.254,1.888,8.254,1.888z"/>
<path id="hair" fill-rule="evenodd" clip-rule="evenodd" fill="#F7DD7F" d="M11.198,5.206c-0.009,0-0.121,0.111-0.129,0.091
	C10.909,4.918,10.9,4.361,10.98,3.93c0.022-0.114-0.219,0.175-0.27,0.627c-0.05,0.453,0.05,0.658,0.05,0.658S9.516,3.473,9.52,3.513
	c0.072,0.708,0.354,0.719,0.914,1.665c0.035,0.108-1.356-1.386-1.481-1.624C8.83,3.529,8.801,3.786,10.195,5.271
	c0.094,0.122-1.75-1.181-1.823-1.293C8.304,3.869,8.577,4.248,9.454,5.021c0.091,0.08-1.56-0.282-1.78-1.41
	C7.663,3.553,7.487,3.659,7.476,4.406C7.471,4.941,7.311,5.919,7.295,5.821C7.273,5.686,7.151,5.602,7,6.008
	C6.935,5.925,6.761,5.372,6.646,4.621C6.572,3.895,6.845,3.116,7.243,2.702c0.284-0.287,0.784-0.572,1.68-0.66
	c0.776-0.077,1.156-0.032,1.723,0.197c0.548,0.257,0.863,0.593,1.019,0.828c0.156,0.233,0.361,0.554,0.339,1.281
	c0.003,0.544-0.194,1.307-0.275,1.548c-0.066,0.198-0.183,0.408-0.166,0.352c0.137-0.443-0.021-0.669-0.007-0.793
	c0.02-0.182-0.227,0.403-0.22,0.215C11.354,5.241,11.198,5.206,11.198,5.206z"/>
<path id="hair-p" fill="#F7DD7F" d="M8.219,1.642c0,0,0.281-0.732,1.068-0.75c0.754-0.018,1.096,0.692,1.096,0.692
	s-0.345-0.342-1.037-0.326C8.592,1.274,8.219,1.642,8.219,1.642z"/>
</svg>
