<?xml version="1.0" encoding="utf-8"?>
<!-- Generator: Adobe Illustrator 16.0.4, SVG Export Plug-In . SVG Version: 6.00 Build 0)  -->
<!DOCTYPE svg PUBLIC "-//W3C//DTD SVG 1.1//EN" "http://www.w3.org/Graphics/SVG/1.1/DTD/svg11.dtd" [
	<!ENTITY ns_flows "http://ns.adobe.com/Flows/1.0/">
	<!ENTITY ns_extend "http://ns.adobe.com/Extensibility/1.0/">
	<!ENTITY ns_ai "http://ns.adobe.com/AdobeIllustrator/10.0/">
	<!ENTITY ns_graphs "http://ns.adobe.com/Graphs/1.0/">
]>
<svg version="1.1" id="Ebene_1" xmlns:x="&ns_extend;" xmlns:i="&ns_ai;" xmlns:graph="&ns_graphs;"
	 xmlns="http://www.w3.org/2000/svg" xmlns:xlink="http://www.w3.org/1999/xlink" xmlns:a="http://ns.adobe.com/AdobeSVGViewerExtensions/3.0/"
	 x="0px" y="0px" width="15px" height="55.6px" viewBox="0 0 15 55.6" style="enable-background:new 0 0 15 55.6;"
	 xml:space="preserve">
<style type="text/css">
<![CDATA[
	.st0{fill:#1A1A18;}
	.st1{fill-rule:evenodd;clip-rule:evenodd;fill:#1A1A18;}
	.st2{fill:#FBCDAA;}
	.st3{fill:#FFFFFF;}
	.st4{fill-rule:evenodd;clip-rule:evenodd;fill:#FBCDAA;}
	.st5{fill:#0068B4;}
	.st6{fill-rule:evenodd;clip-rule:evenodd;fill:#FFFFFF;}
	.st7{fill-rule:evenodd;clip-rule:evenodd;fill:#0068B4;}
]]>
</style>
<path class="st0" d="M0.49,15.07c0-0.1,0.11-0.26,0.11-0.26s-0.23,0-0.22-0.23c0.01-0.1,0.16-0.44,0.29-0.55s0.48-0.39,0.63-0.43
	s0.51-0.12,0.79-0.14s0.79,0,0.79,0S2.94,13.3,2.99,13s0.11-0.7,0.21-1.08s0.22-0.76,0.34-1c0.19-0.38,0.59-0.98,0.79-1.2
	C4.6,9.43,4.85,9.26,5.08,9.09c0.19-0.14,0.41-0.3,0.41-0.3L5.48,8.72L5.23,8.36c0,0-0.26-0.03-0.45-0.11S4.53,8.12,4.48,8
	S4.41,7.87,4.4,7.71s0.03-0.67,0.03-0.67L4.42,6.64L4.36,6.13c0,0-0.16-0.03-0.28-0.08S3.91,5.97,3.87,5.86s0-0.3,0-0.3L4.12,4.9
	l0.14-0.29l0.08-0.29V4.12c0,0-0.09-0.2-0.09-0.4s0.5-1.17,0.5-1.17L4.59,1.8l0.13-0.5l0.15-0.25l0.2,0.09l0.16-0.18l0.26-0.02
	l0.29-0.46l0.48-0.16L6.81,0.4l0.33,0.01l0.5-0.15l0.8,0.39l1.04,0.19l0.06,0.14l0.92,0.61l0.13,0.43l0.41,0.16l0.23,1.01l0.22,1.57
	l-0.21,0.09L10.99,5.2l0,0.52l-0.32,0.45L10.42,6.4l-0.26,0.4L9.57,7.38L9.3,7.5L8.87,7.85L8.8,8.46l0,0.06c0,0,0.51,0.2,0.72,0.37
	c0.1,0.08,0.3,0.22,0.47,0.39c0.18,0.18,0.33,0.39,0.42,0.53c0.17,0.27,0.58,0.98,0.75,1.33s0.4,0.96,0.55,1.36
	c0.15,0.4,0.39,1.22,0.58,1.92c0.09,0.34,0.18,0.96,0.19,1.06c0.02,0.19,0,0.15-0.12,0.17c-0.17,0.03-0.3,0.06-0.3,0.06
	s0.06,1,0.06,1.25s-0.15,0.98-0.35,1.32c-0.23,0.4-0.89,0.49-1.22,0.54s-0.81,0.06-0.81,0.06s-0.05,0.44-0.06,0.92
	s-0.05,1.57,0.01,1.65c0.02,0.04,0.06,0.07,0.15,0.21s0.12,0.34,0.09,0.53s-0.08,0.35-0.06,0.41s0.09,0.13,0.19,0.27
	c0.17,0.24,0.41,0.6,0.64,1.48c0.09,0.34,0.14,0.64,0.22,1.05s0.04,1.01,0.03,1.36s-0.14,0.96-0.17,1.2s-0.35,1.41-0.36,1.59
	s0.08,1.57,0.11,1.95s0.34,3.22,0.34,3.22s0.02,0.23,0.03,0.36c0.01,0.11-0.06,0.17-0.22,0.23c-0.21,0.08-0.52,0.17-0.83,0.25
	s-0.5,0.12-0.5,0.12s-0.04,0.49,0.04,0.78s0.44,1.11,0.53,1.19s0.4,0.24,0.5,0.41s0.39,0.72,0.38,0.88
	c-0.01,0.31-0.19,0.57-0.16,0.59c0.06,0.03,0.39,0.12,0.48,0.23s0.21,0.45,0.27,0.61s0.45,1.23,0.54,1.75
	c0.08,0.42,0.42,3.42,0.62,4.3c0.05,0.23,0.21,0.62,0.21,0.62s0.38,0.03,0.45,0.05s0.29,0.39,0.29,0.39s0.78,0.58,0.87,0.68
	s0.21,0.29,0.24,0.41s-0.23,0.78-0.23,0.78s0.25,0.28,0.27,0.34s-0.12,0.36-0.2,0.42s-0.31-0.01-0.31-0.01l-1.12,2.53l-0.07,0.25
	c0,0,0.2,0.16,0.19,0.22s-0.11,0.27-0.16,0.34s-0.37-0.04-0.37-0.04l-0.15,0.33c0,0,0.09,0.12,0.11,0.21s-0.12,0.29-0.18,0.32
	s-0.35-0.04-0.35-0.04l-0.09,0.15c0,0,0.09,0.15,0.08,0.22s-0.22,0.24-0.29,0.27s-0.25-0.08-0.25-0.08s-0.69,0.53-0.87,0.54
	s-0.33-0.04-0.41-0.16s-0.1-0.3-0.11-0.77s0.22-2.12,0.22-2.12l-0.1,0.14l0.06,0.2c0,0-0.11,0.28-0.19,0.31s-0.25-0.14-0.25-0.14
	l-0.18,0.32c0,0,0.11,0.15,0.11,0.25s-0.17,0.25-0.23,0.3S9.16,53.6,9.16,53.6l-0.11,0.17c0,0,0.11,0.16,0.11,0.25
	s-0.19,0.21-0.27,0.27S8.57,54.2,8.57,54.2s-0.52,0.53-0.74,0.57s-0.38-0.07-0.5-0.22s-0.11-0.43-0.11-0.87s0.13-0.86,0.17-1.14
	s0.29-1.18,0.32-1.41s0.17-0.67,0.17-0.97c0.01-0.29,0.07-1.43,0.05-1.5s-0.14-0.25-0.19-0.39s-0.01-0.44-0.02-0.75
	s-0.26-1.42-0.41-2s-0.49-1.75-0.74-2.43s-0.89-2.18-0.98-2.55c-0.08-0.33,0.07-0.68,0.01-0.71s-0.29-0.11-0.43-0.17
	s-0.27-0.23-0.35-0.65S4.86,38,4.86,38l-0.52-0.77l-0.46-0.78l-0.11-0.22c0,0-0.39-0.02-0.5-0.02c-0.11-0.01-0.14-0.07-0.16-0.2
	c-0.03-0.22-0.08-0.85-0.08-0.85l-0.09-1.7c0,0-0.1-2.12-0.1-2.72s0-1.04,0-1.64s-0.07-1.77-0.07-1.77s-0.08-3.19-0.08-3.36
	s0.09-0.36,0.06-0.46s-0.08-0.39-0.08-0.55s0-0.34,0.05-0.45s0.11-0.25,0.11-0.25s-0.07-0.67-0.11-1.08s-0.08-1.23-0.09-1.84
	s-0.02-1.46-0.02-1.46s-0.48-0.11-0.7-0.2s-0.57-0.27-0.8-0.4s-0.33-0.3-0.41-0.45s-0.07-0.48-0.07-0.48s-0.21-0.25-0.27-0.49
	s0.15-0.42,0.15-0.42S0.49,15.18,0.49,15.07z"/>
<path id="skin-arm-r-2" class="st4" d="M2.76,14.64c0,0-0.51-0.37-0.65-0.39s-0.43,0.05-0.58,0.01s-0.3-0.15-0.31-0.17
	s0.26-0.18,0.26-0.18s0.4-0.1,0.6-0.1s0.76,0.03,0.76,0.03L2.76,14.64z"/>
<path id="skin-arm-r-1" class="st2" d="M1.27,14.55c0.12,0.01,0.29,0.1,0.42,0.14s0.13-0.09,0.13-0.09s-0.26-0.08-0.36-0.11
	s-0.17-0.1-0.28-0.11s-0.31,0.04-0.31,0.04L0.8,14.54l0.02,0.05C0.82,14.59,1.16,14.53,1.27,14.55z"/>
<path id="player-jersey" class="st7" d="M4.44,15.91c-0.1-0.03-0.7-0.84-0.87-0.91s-0.41-0.19-0.41-0.19s0.04-0.83,0.13-1.4
	c0.07-0.43,0.27-1.66,0.5-2.16c0.32-0.69,0.76-1.26,0.92-1.42s0.39-0.32,0.5-0.41S5.5,9.22,5.5,9.22L5.29,9.95l0.42-0.17L6.3,9.56
	l0.98-0.33l0.86-0.27l0.51-0.13c0,0,0.25,0.11,0.46,0.23s0.58,0.45,0.73,0.62s0.43,0.65,0.59,0.97c0.08,0.16,0.22,0.38,0.36,0.68
	c0.13,0.29,0.26,0.65,0.33,0.82c0.14,0.34,0.43,1.22,0.55,1.62c0.14,0.49,0.24,0.96,0.3,1.31c0.01,0.08-0.07,0.09-0.2,0.11
	s-0.94,0.11-1.52,0.19c-0.66,0.09-1.86,0.23-2.02,0.25s-0.15-0.01-0.19-0.08s-0.29-0.99-0.38-1.22s-0.15-0.53-0.22-0.55
	s-0.13,0.32-0.14,0.48S7.48,15,7.52,15.22c0.03,0.17,0.07,0.4,0.09,0.56c0.01,0.05,0,0.08-0.16,0.09c-0.25,0.02-0.95,0.05-1.55,0.06
	C5.4,15.95,4.54,15.94,4.44,15.91z"/>
<path id="player-jersey-2" class="st7" d="M9.32,18.9c0,0-0.04,0.94-0.04,1.24c-0.01,0.23-0.01,0.82-0.01,1.09
	c0.02,0.17-0.01,0.12-0.09,0.16S8,21.67,7.91,21.67s-0.06-0.26-0.06-0.36c-0.02-0.23,0.07-0.45,0.06-0.65s0-0.38-0.07-0.48
	s-0.11-0.06-0.18,0.06s-0.09,0.29-0.16,0.5s-0.08,0.4-0.11,0.54c-0.02,0.11-0.04,0.33-0.05,0.44c0,0.03,0.02,0.04-0.09,0.07
	c-0.11,0.03-0.6,0.07-1.09,0.15s-2.63,0.19-2.77,0.2s-0.16-0.02-0.19-0.24s-0.09-0.67-0.14-1.39S2.99,18.72,3,18.47
	s0.01-0.52,0.01-0.52s0.22-0.06,0.39-0.03c0.08,0.02,1.39,0.25,2.78,0.47C7.68,18.63,9.32,18.9,9.32,18.9z"/>
<path class="st6" d="M9.74,51.32l0.36-0.87l-0.39,0.29l-0.29,0.42c0,0,0.1,0.24,0.19,0.26S9.74,51.32,9.74,51.32L9.74,51.32z"/>
<path class="st3" d="M7.8,54.15c0.16,0.05,0.36-0.27,0.36-0.27l0.09-0.28l-0.43,0.22C7.82,53.82,7.64,54.1,7.8,54.15z"/>
<path id="player-sock-r" class="st5" d="M6.34,39.86c-0.03-0.2-0.1,0-0.18,0.1s-0.15,0.27-0.12,0.47s1.17,2.96,1.32,3.46
	s0.32,1.1,0.49,1.69s0.4,2.04,0.47,2.08s0.39-0.03,0.47,0.04s0.32,0.43,0.41,0.41s0.47-0.94,0.51-1.06s-0.4-1.11-0.58-1.57
	c-0.2-0.53-0.41-1.01-0.92-2.08s-0.94-1.9-1.03-2.06s0.01-0.5,0.01-0.55s-0.15,0.05-0.41-0.12S6.37,40.06,6.34,39.86z"/>
<path id="player-sock-r-top" class="st5" d="M6.26,38.98l-0.5-0.62c0,0-0.21-0.03-0.31,0.01s-0.15,0.34-0.12,0.49
	s0.07,0.26,0.15,0.33s0.13,0.07,0.28,0.1s0.52,0.04,0.52,0.04L6.26,38.98z"/>
<path id="skin-leg-r" class="st2" d="M4.88,36.84l0.22,0.43l0.29,0.57c0,0-0.46-0.68-0.52-0.77s-0.12-0.25-0.12-0.25L4.88,36.84z"/>
<path class="st6" d="M12.42,51.81l0.31-0.89l-0.37,0.31l-0.27,0.44c0,0,0.11,0.21,0.21,0.25S12.42,51.81,12.42,51.81L12.42,51.81z"
	/>
<path class="st3" d="M10.7,54.82c0.09-0.02,0.33-0.3,0.33-0.3l0.06-0.28l-0.41,0.26C10.68,54.49,10.61,54.84,10.7,54.82z"/>
<path id="player-sock-l" class="st5" d="M7.98,40.19c0.16,0,0.18,0.02,0.24,0.13s0.09,0.18,0.01,0.28s-0.37,0.12-0.45,0.25
	s-0.15,0.33-0.08,0.48s1.48,3,1.65,3.32s0.58,1.42,0.65,1.63s0.35,1.11,0.39,1.31s0.19,0.66,0.28,0.71s0.35-0.05,0.47-0.01
	s0.37,0.39,0.45,0.37s0.18-0.83,0.25-0.91s0.35-0.38,0.39-0.46s-0.28-1.11-0.34-1.45s-0.32-2.9-0.47-3.62s-0.54-1.89-0.67-2.02
	s-0.23-0.18-0.42-0.16s-0.6,0.04-0.76,0.06s-0.12-0.12-0.07-0.21s0.52-0.37,0.64-0.57s0.04-0.53-0.03-0.69s-0.25-0.34-0.32-0.3
	s-1,0.58-1.38,0.7s-0.65,0.18-0.9,0.22S7,39.31,6.94,39.37s-0.1,0.22-0.06,0.44s0.03,0.29,0.27,0.38S7.82,40.2,7.98,40.19z"/>
<path id="skin-leg-l" class="st2" d="M8.88,35.85c0,0-0.04,0.57,0.06,0.93s0.48,1.07,0.48,1.07S9.2,38,8.91,38.17
	c-0.2,0.11-0.44,0.23-0.64,0.3c-0.21,0.08-0.5,0.15-0.77,0.21c-0.34,0.08-0.63,0.13-0.63,0.13S6.5,38.47,6.23,38.1
	s-0.81-1.36-0.81-1.36l0.39-0.08l0.59-0.14c0,0,1.06-0.3,1.09-0.32s0.11-0.04,0.1-0.11c-0.01-0.08,0-0.46,0.05-0.48
	s0.23,0.3,0.26,0.36c0.01,0.02,0.04,0.09,0.21,0.04C8.4,35.94,8.88,35.85,8.88,35.85z"/>
<path id="player-shorts-l" class="st6" d="M10.32,28.17c-0.11,0.55-0.29,1.07-0.33,1.27s0.08,1.59,0.12,2.08s0.15,1.67,0.19,2.09
	c0.03,0.29,0.07,0.72,0.12,1.08c0.01,0.08,0.03,0.25-0.09,0.28c-0.3,0.08-1.99,0.55-2.11,0.56c-0.12,0.01-0.14-0.11-0.23-0.23
	c-0.12-0.16-0.24-0.29-0.33-0.36s-0.16-0.06-0.22,0.05s-0.15,0.69-0.15,0.69s-0.06,0.12-0.11,0.14c-0.19,0.06-0.65,0.2-0.88,0.26
	c-0.29,0.07-0.92,0.22-1.1,0.25s-0.33,0.04-0.41,0.04s-0.13-0.11-0.17-0.23c-0.08-0.22-0.22-0.84-0.35-1.48s-0.56-2.8-0.67-3.55
	S3.33,29,3.29,28.66s-0.05-0.58-0.08-1.21s-0.1-2.17-0.09-2.49s-0.02-0.59-0.01-0.81s0.05-0.5,0.2-0.58s0.67-0.08,0.73-0.17
	s0.08-0.25,0.02-0.28s-0.25-0.01-0.38-0.01S3.4,23.2,3.25,23.16s-0.11-0.1-0.12-0.25s0.03-0.23,0.09-0.3s0.75-0.07,1.09-0.07
	s1.58-0.15,2.08-0.21s1.46-0.22,1.89-0.31s0.96-0.25,1.03-0.24c0.13,0.03,0.12,0.11,0.14,0.2s0.06,0.2-0.02,0.27
	s-0.7,0.34-0.79,0.41s-0.15,0.13-0.15,0.21s0.11,0.18,0.26,0.21s0.53-0.02,0.64-0.01s0.3,0.01,0.36,0.09s0.24,0.39,0.32,0.57
	s0.31,0.84,0.38,1.15s0.14,0.92,0.11,1.43S10.43,27.62,10.32,28.17z"/>
<path class="st1" d="M6.63,26.45c0.03-0.17,0.08-0.33,0.18-0.43s0.64-0.44,0.66-0.51s-0.19-0.27-0.29-0.25s-0.78,0.32-0.86,0.46
	s-0.18,0.91-0.28,1.15s-0.8,1.6-0.7,1.56s0.86-0.73,0.98-0.88S6.6,26.61,6.63,26.45z"/>
<path id="skin-arm-l" class="st4" d="M1.41,16.84L0.9,16.43c0,0-0.01,0.1,0.06,0.23s0.28,0.29,0.28,0.29l0.25,0.17l0.71,0.27
	l0.7,0.16l0.56,0.01l0.39,0.07l3.89,0.65l1.68,0.2c0,0,0.72,0.02,1.04-0.03s0.78-0.13,0.92-0.31s0.26-0.49,0.31-0.73
	s0.05-0.84,0.05-0.84l-0.08-0.88l-1.58,0.16l-1.16,0.12c0,0,0.21,0.64,0.22,0.78s-0.1,0.23-0.17,0.22s-0.32-0.55-0.46-0.62
	s-2.62-0.01-3.29-0.02s-1.03-0.07-1.03-0.07l-0.31-0.32c0,0-0.32-0.42-0.47-0.54S2.6,15.02,2.6,15.02l-0.33-0.16
	c0,0-0.16-0.01-0.21,0.04s0.09,0.23,0.09,0.23l0.71,0.47c0,0-0.17,0.05-0.3,0.04S2.1,15.4,2.1,15.4l-0.65-0.44
	c0,0-0.34-0.15-0.25-0.13s-0.21-0.06-0.23,0.01s0.2,0.31,0.2,0.31l0.49,0.48l-0.11,0.12l-0.33-0.31c0,0-0.26-0.32-0.35-0.37
	s-0.09-0.01-0.11,0.1s0.08,0.3,0.08,0.3l0.57,0.57l-0.01,0.19c0,0-0.13-0.06-0.25-0.14s-0.42-0.4-0.42-0.4s-0.08,0.04-0.09,0.13
	s0.09,0.19,0.09,0.19l0.3,0.32l0.33,0.34L1.41,16.84z"/>
<path id="player-shorts-r" class="st6" d="M3.43,32.51c0,0,0.18,0.96,0.26,1.41S4,35.63,4,35.63s-0.24-0.01-0.35,0
	s-0.12-0.1-0.14-0.22s-0.12-1.77-0.17-2.27s-0.09-1.6-0.09-1.6L3.43,32.51z"/>
<path id="skin-face" class="st2" d="M4.91,2.94c0,0,0.02-0.09,0.09-0.14s0.52-0.07,0.6-0.07s0.41,0.16,0.41,0.16
	s0.34,0.29,0.44,0.33s0.29,0.1,0.29,0.1l0.12,0.15c0,0,0.35,0.59,0.46,0.76s0.74,1.14,0.83,1.14s0.38-0.41,0.47-0.36
	s0.09,0.33,0.08,0.43S8.56,5.56,8.56,5.56s0.03,0.23,0.1,0.29S8.8,5.87,8.8,5.87l0.49-0.5c0,0-0.4,0.66-0.53,0.77
	S8.47,6.28,8.47,6.28l0.12,0.2L8.58,6.61c0,0-0.03,0.22-0.08,0.34C8.46,7.19,8.43,7.67,8.43,7.67L8.37,8.53L6.96,8.95L5.82,9.37
	c0,0,0.16-0.58,0.17-0.61s-0.01-0.12-0.09-0.2S5.67,8.22,5.67,8.22S6.72,7.81,6.9,7.69s0.37-0.31,0.43-0.37s0.05-0.11,0.02-0.14
	S7.19,7.08,7.08,7.16S6.96,7.27,6.8,7.4S5.68,7.81,5.52,7.86S5.1,7.88,5,7.85S4.87,7.75,4.83,7.71S4.82,7.34,4.8,7.25
	s0.04-0.28,0.04-0.28l0.1-0.06c0,0,0.14-0.09,0.16-0.12S5.06,6.68,5.06,6.68S4.98,6.64,4.9,6.56S4.75,6.33,4.8,6.28
	s0.4-0.07,0.42-0.1s0.03-0.11,0.02-0.14S4.99,5.78,4.9,5.77S4.5,5.73,4.5,5.73S4.34,5.72,4.29,5.64S4.3,5.45,4.3,5.45l0.44-1.08
	c0,0,0-0.2,0.04-0.25s0.23-0.04,0.28,0S5.13,4.3,5.13,4.3S5.08,4.55,5.22,4.62s0.3,0.04,0.39,0.04s0.1-0.16,0.12-0.22
	c0.03-0.09-0.03-0.2-0.03-0.2S5.91,4.11,6,4.12s0.22,0.12,0.26,0.12s0.1-0.03,0.1-0.03S6.28,4.1,6.19,4.06S5.72,3.91,5.72,3.91
	L5.14,3.84c0,0-0.35-0.03-0.42-0.06S4.64,3.56,4.64,3.56L4.91,2.94z"/>
<path id="hair" class="st0" d="M9.13,7.19L8.96,7.34l-0.07,0l0.06-0.57L9.1,6.55l-0.11-0.2l0.37-0.46c0,0,0.28-0.46,0.3-0.65
	c0.02-0.19-0.34-0.28-0.6-0.17C9.04,5.03,8.87,4.61,8.75,4.58c-0.23-0.06-0.49,0.3-0.59,0.28c-0.1-0.02-0.62-0.89-0.62-0.89
	L7.01,3.08L6.64,2.93L6.23,2.62L5.86,2.45L5.52,2.37L5.08,2.41L4.9,1.8l0.05-0.36l0.12,0.09l0.24-0.3L5.64,1.2l0.26-0.42l0.43-0.14
	l0.5,0.08l0.3,0.01L7.6,0.56l0.73,0.36l0.92,0.12l0.06,0.13l0.84,0.61l0.17,0.44l0.42,0.18l0.16,0.78l0.24,1.33l-0.19,0.08
	l-0.28,0.44l-0.01,0.54l-0.29,0.41l-0.22,0.21L9.91,6.55L9.38,7.07L9.13,7.19z"/>
</svg>
