<?xml version="1.0" encoding="utf-8"?>
<!-- Generator: Adobe Illustrator 16.0.4, SVG Export Plug-In . SVG Version: 6.00 Build 0)  -->
<!DOCTYPE svg PUBLIC "-//W3C//DTD SVG 1.1//EN" "http://www.w3.org/Graphics/SVG/1.1/DTD/svg11.dtd">
<svg version="1.1" id="Ebene_1" xmlns="http://www.w3.org/2000/svg" xmlns:xlink="http://www.w3.org/1999/xlink" x="0px" y="0px"
	 width="13.702px" height="52.91px" viewBox="0 0 13.702 52.91" enable-background="new 0 0 13.702 52.91" xml:space="preserve">
<path fill="#1A1A18" d="M0.601,15.116c0.054,0.221,0.238,0.46,0.238,0.46s-0.004,0.308,0.062,0.451
	c0.067,0.144,0.156,0.297,0.356,0.426c0.2,0.13,0.507,0.295,0.7,0.38c0.193,0.086,0.609,0.188,0.609,0.188s0.057,0.722,0.07,1.296
	c0.014,0.573,0.046,1.434,0.078,1.812c0.033,0.38,0.048,1.015,0.048,1.015s-0.055,0.133-0.098,0.239
	c-0.042,0.108-0.04,0.275-0.041,0.427s0.042,0.421,0.068,0.516c0.026,0.094-0.054,0.273-0.056,0.433
	c-0.004,0.159,0.064,3.159,0.064,3.159s0.062,1.107,0.062,1.666s0,0.97,0.003,1.541c0.002,0.569,0.091,2.563,0.091,2.563
	l0.082,1.599c0,0,0.043,0.59,0.07,0.796c0.015,0.116,0.042,0.177,0.138,0.184s0.438,0.022,0.438,0.022l0.095,0.21l0.401,0.73
	l0.457,0.723c0,0-0.119,0.556-0.044,0.955c0.075,0.398,0.184,0.557,0.309,0.615s0.329,0.133,0.38,0.16
	c0.053,0.027-0.083,0.353-0.01,0.663c0.082,0.354,0.643,1.765,0.861,2.404c0.22,0.64,0.521,1.742,0.652,2.285
	c0.131,0.543,0.348,1.588,0.359,1.879c0.012,0.29-0.025,0.577,0.019,0.706s0.147,0.297,0.169,0.365s-0.037,1.138-0.043,1.413
	c-0.006,0.283-0.129,0.695-0.153,0.912S6.802,49.37,6.76,49.636c-0.04,0.264-0.15,0.661-0.151,1.069
	c-0.002,0.408-0.013,0.68,0.095,0.816c0.108,0.137,0.249,0.245,0.438,0.205c0.189-0.038,0.646-0.535,0.646-0.535
	s0.218,0.135,0.285,0.08c0.066-0.055,0.236-0.171,0.234-0.254c-0.002-0.084-0.097-0.231-0.097-0.231l0.095-0.162
	c0,0,0.262,0.099,0.315,0.06c0.053-0.039,0.207-0.182,0.205-0.279c-0.002-0.099-0.1-0.239-0.1-0.239l0.156-0.297
	c0,0,0.152,0.159,0.219,0.135c0.062-0.022,0.146-0.245,0.158-0.278C9.2,50.206,9.104,51.072,9.11,51.384
	c0.01,0.439,0.031,0.618,0.098,0.726c0.066,0.108,0.193,0.157,0.356,0.147c0.162-0.01,0.764-0.506,0.764-0.506
	s0.155,0.104,0.222,0.079s0.248-0.181,0.257-0.254c0.008-0.072-0.071-0.209-0.071-0.209l0.081-0.144c0,0,0.255,0.058,0.308,0.033
	c0.054-0.024,0.166-0.21,0.154-0.297c-0.012-0.089-0.092-0.201-0.092-0.201l0.127-0.313c0,0,0.279,0.102,0.324,0.04
	c0.046-0.062,0.131-0.262,0.145-0.32c0.011-0.058-0.164-0.21-0.164-0.21l0.062-0.229l0.977-2.379c0,0,0.207,0.068,0.275,0.01
	c0.069-0.059,0.191-0.339,0.178-0.397s-0.234-0.318-0.234-0.318s0.234-0.622,0.206-0.734c-0.029-0.114-0.136-0.284-0.212-0.383
	c-0.077-0.099-0.76-0.64-0.76-0.64s-0.19-0.351-0.25-0.369c-0.061-0.02-0.391-0.044-0.391-0.044s-0.143-0.365-0.187-0.579
	c-0.171-0.828-0.474-3.656-0.54-4.048c-0.082-0.485-0.424-1.484-0.477-1.643c-0.051-0.158-0.152-0.472-0.235-0.577
	s-0.374-0.193-0.424-0.221c-0.028-0.015,0.136-0.265,0.143-0.553c0.003-0.155-0.245-0.675-0.335-0.829
	c-0.088-0.154-0.355-0.309-0.438-0.382c-0.082-0.074-0.395-0.843-0.465-1.118c-0.07-0.274-0.039-0.736-0.039-0.736
	s0.162-0.042,0.436-0.116c0.273-0.073,0.543-0.157,0.726-0.234c0.136-0.059,0.203-0.118,0.191-0.221
	c-0.015-0.118-0.028-0.339-0.028-0.339s-0.273-2.676-0.301-3.028c-0.027-0.354-0.109-1.662-0.098-1.833s0.289-1.269,0.314-1.499
	c0.025-0.231,0.14-0.799,0.151-1.131c0.013-0.334,0.043-0.888-0.027-1.28c-0.07-0.391-0.11-0.667-0.19-0.989
	c-0.203-0.829-0.41-1.162-0.562-1.392c-0.084-0.127-0.148-0.196-0.164-0.251s0.029-0.211,0.057-0.387
	c0.027-0.177-0.002-0.375-0.082-0.5c-0.082-0.125-0.11-0.161-0.131-0.194c-0.051-0.077-0.02-1.1-0.007-1.556
	c0.015-0.456,0.056-0.866,0.056-0.866s0.508-0.013,0.793-0.059c0.286-0.046,0.781-0.094,1.016-0.531
	c0.17-0.316,0.312-1.062,0.312-1.297c0-0.236-0.078-1.219-0.078-1.219s0.062,0.018,0.213-0.012c0.111-0.021,0.129-0.077,0.115-0.254
	c-0.008-0.101-0.125-0.619-0.203-0.938c-0.164-0.657-0.322-1.11-0.453-1.484c-0.132-0.377-0.35-0.989-0.5-1.312
	s-0.477-1.001-0.625-1.25c-0.076-0.13-0.355-0.518-0.516-0.688C8.739,8.766,8.536,8.594,8.45,8.519
	c-0.18-0.156-0.609-0.328-0.609-0.328S7.729,8.168,7.644,8.145C7.614,8.023,7.618,7.953,7.707,7.831
	c0.162-0.213,0.46-0.62,0.58-0.717C8.54,6.916,8.862,6.748,9.034,6.579c0.145-0.142,0.262-0.277,0.382-0.312
	c0.017,0.098,0.177,0.343,0.239,0.566c0.065,0.234,0.096,0.459,0.074,0.515C9.731,7.62,9.788,7.793,10.073,7.6
	c-0.198,0.309,0.148,0.259,0.266,0.238c0,0,0.129-0.003,0.344-0.243c-0.09,0.188-0.102,0.338,0.018,0.421
	c0.068,0.048,0.416-0.001,0.426-0.111c0,0,0.162,0.342,0.581-0.092c0.201-0.207,0.329-0.27,0.449-0.635
	c0.157-0.477,0.011-1.18-0.062-2.113c-0.075-0.974-0.099-2.074-0.134-2.643c-0.043-0.671-0.164-0.987-0.354-1.219
	c-0.215-0.263-0.518-0.402-0.9-0.478c-0.283-0.057-0.579-0.02-0.818,0.07C9.649,0.885,9.44,0.959,9.178,1.195
	c-0.044,0.04-0.099,0.062-0.151,0.086C8.876,1.276,8.74,1.29,8.641,1.31c-0.444-0.307-0.993-0.467-1.3-0.544
	c-0.902-0.192-1.814-0.11-2.228,0.019c-0.455,0.14-0.88,0.364-1.234,0.683C3.753,1.58,3.655,1.694,3.276,2.042
	c-0.266,0.245-0.319,0.337-0.65,0.503c-0.188,0.093-0.34,0.348-0.117,0.412c0.21,0.062-0.177,0.203,0.008,0.349
	c0.225,0.176,0.617,0.262,0.617,0.262s-0.073,0.21-0.125,0.483C2.954,4.323,3.136,4.415,3.136,4.415L3.125,4.44
	C3.028,4.439,2.901,4.439,2.901,4.439s0.097,0.053,0.186,0.095L3.05,4.626L2.856,5.093c0,0-0.287,0.647-0.17,0.726
	c0.187,0.168,0.268,0.121,0.398,0.184c0.033,0.247-0.126,0.413-0.003,0.536C3.161,6.64,3.247,6.664,3.235,6.678
	C3.044,6.9,3.257,6.9,3.425,7.143c0.146,0.21,0.057,0.467,0.283,0.678c0.336,0.367,0.914,0.102,1.07,0.151
	c0.047,0.015,0.149,0.315,0.247,0.605C4.92,8.631,4.807,8.693,4.734,8.75c-0.206,0.161-0.42,0.314-0.657,0.588
	c-0.178,0.206-0.533,0.779-0.696,1.132c-0.106,0.23-0.221,0.588-0.3,0.941C2.999,11.763,2.94,12.146,2.9,12.426
	c-0.041,0.279-0.097,0.427-0.097,0.427s-0.451-0.016-0.693,0.001c-0.24,0.015-0.552,0.087-0.687,0.131
	c-0.136,0.046-0.44,0.309-0.554,0.408c-0.115,0.101-0.251,0.424-0.256,0.518c-0.012,0.217,0.191,0.221,0.191,0.221
	S0.71,14.277,0.71,14.376s0.023,0.341,0.023,0.341S0.548,14.895,0.601,15.116z M9.214,49.524L9.3,49.389
	c0,0-0.017,0.129-0.039,0.315L9.214,49.524z"/>
<path id="skin-face" fill="#F9CAA9" d="M6.989,7.187L6.918,6.51c0,0-0.154-0.022-0.238-0.062C6.61,6.416,6.606,6.367,6.636,6.35
	c0.062-0.03,0.47-0.049,0.654-0.35c0.147-0.236,0.078-0.648-0.21-0.683C6.933,5.301,6.753,5.32,6.63,5.386
	C6.327,5.546,6.237,5.624,6.048,6.03C5.896,6.354,5.695,5.918,5.487,4.914c-0.1-0.484,0.127-0.965,0.088-0.95
	C5.022,4.161,4.96,4.107,4.695,4.021C4.653,4.008,4.428,3.948,4.609,3.82c0.065-0.056-0.21,0.05-0.562-0.079
	c-0.25-0.104,0.113-0.294-0.135-0.213C3.697,3.6,3.791,3.605,3.49,3.658C3.438,3.669,3.358,4.029,3.358,4.029
	S3.644,4.22,3.884,4.193S3.565,4.251,3.433,4.23C3.271,4.206,3.44,4.388,3.453,4.458C3.458,4.48,3.589,4.536,3.724,4.589
	c0.098,0.015,0.199,0.032,0.225,0.033c0.164,0.022,0.08,0.087,0.445,0.011c0.017,0.02-0.284,0.131-0.398,0.15
	C3.952,4.791,3.894,4.79,3.834,4.785C3.792,4.8,3.72,4.824,3.675,4.844C3.601,4.88,3.451,4.885,3.451,4.885l0.001-0.179L3.405,4.709
	c0,0-0.234,0.431-0.273,0.559C3.093,5.396,2.937,5.66,2.995,5.728c0.156,0.049,0.311,0.096,0.367,0.084
	c-0.007,0.021,0.012,0.438-0.023,0.5c-0.105,0.184,0.26,0.165,0.409,0.083c0.15-0.08,0.226,0.044,0.226,0.044l-0.02,0.08
	L3.635,6.611c0,0-0.168,0.021-0.126,0.154C3.53,6.837,3.614,6.772,3.7,6.92c0.094,0.161,0.065,0.453,0.18,0.603
	C4.157,7.885,4.576,7.653,4.997,7.66c0.125,0.003,0.375,0.812,0.375,0.812L5.45,8.988c0,0,0.5-0.172,0.938-0.312
	s0.875-0.359,0.875-0.359C7.245,8.381,6.989,7.187,6.989,7.187z M6.29,6.122C6.222,6.094,6.266,6.018,6.315,5.957l0.115,0.002
	C6.575,5.956,6.843,5.908,6.87,5.622c0.017-0.166-0.029-0.074,0.057-0.095c0.086-0.021,0.164,0.038,0.156,0.117
	S7.081,5.649,6.942,5.935C6.91,6,6.798,6.048,6.798,6.048L6.739,6.063c0,0-0.075,0.048-0.225-0.023
	C6.497,6.031,6.388,6.09,6.29,6.122z"/>
<path id="hair-p" fill="#F7DD7F" d="M9.4,1.39c0.086-0.087,0.4-0.256,0.671-0.344c0.183-0.062,0.408-0.065,0.774,0.049
	c0.746,0.231,0.729,0.631,0.845,2.29c0.076,1.076,0.064,1.618,0.127,2.113c0.088,0.683,0.285,1.636-0.424,2.146
	c0.227-0.163-0.027-0.842-0.027-0.842c-0.013,0.124,0.021,0.349-0.061,0.518c-0.094,0.199-0.307,0.338-0.337,0.356
	c0.194-0.292-0.042-0.98-0.042-0.98c-0.094,0.278-0.205,0.588-0.572,0.793c0.089-0.05,0.122-0.887,0.122-0.887
	c-0.098,0.218-0.402,0.502-0.444,0.685c0.15-0.659-0.408-0.671-0.326-1.453c0.248-0.664,0.486-1.075,0.471-1.992
	c0.154-0.253,0.178-0.949,0.174-1.21c-0.004-0.401-0.151-0.74-0.337-0.91C9.751,1.479,9.4,1.39,9.4,1.39z"/>
<path id="hair" fill-rule="evenodd" clip-rule="evenodd" fill="#F7DD7F" d="M9.775,4.071c0.017-0.267,0.03-0.864-0.277-1.358
	C9.261,2.242,8.705,1.752,8.462,1.577C8.292,1.456,7.465,0.875,6.02,0.969C5.399,1.001,5.038,1.168,4.73,1.281
	c-0.132,0.048-0.31,0.178-0.439,0.275C4.162,1.654,3.987,1.805,3.872,1.919C3.79,1.99,3.731,2.051,3.69,2.101
	C3.536,2.26,3.415,2.391,3.269,2.508C3,2.723,2.872,2.744,2.883,2.758c0.04,0.054,0.18,0.034,0.382,0.057
	c-0.1,0.093-0.231,0.204-0.418,0.344c0.584,0.261,0.73,0.137,1.368-0.066c0.363-0.175,0.411,0.076-0.011,0.391
	C4.759,3.656,5.036,3.178,5.11,3.27C5.147,3.316,5.265,3.51,4.88,3.687C5.243,3.865,5.556,3.635,5.642,3.58
	c0.135-0.066,0.282,0.041,0.253,0.245C5.871,4,5.723,4.318,5.746,4.539C5.808,5.115,5.88,5.736,5.94,5.6
	c0.127-0.284,0.479-0.499,0.811-0.579c0.208-0.051,0.422-0.094,0.697,0.11c0.117,0.069,0.284,0.361,0.216,0.638
	c-0.054,0.219-0.1,0.481-0.463,0.696c0.03,0.197,0.054,0.274,0.076,0.451c0.055,0.412,0.129,0.716,0.191,0.607
	c0.554-0.844,1.141-0.98,1.413-1.261C9.284,5.85,9.702,5.226,9.775,4.071z M8.825,5.044C8.742,5.147,8.899,4.765,8.999,4.307
	c0.09-0.429,0.006-1.251,0.115-0.973C9.325,3.86,9.286,4.481,8.825,5.044z"/>
<path fill="#FFFFFF" d="M8.847,1.574c0,0,0.105-0.077,0.48,0.079c0.334,0.139,0.508,0.211,0.64,0.605
	c0.108,0.325,0.067,1.047,0.067,1.047S9.823,2.606,9.558,2.245C9.181,1.732,8.847,1.574,8.847,1.574z"/>
<path id="skin-arm-r-2" fill-rule="evenodd" clip-rule="evenodd" fill="#F9CAA9" d="M2.696,13.969c0,0-0.446-0.345-0.572-0.371
	c-0.127-0.025-0.377,0.046-0.505,0.011c-0.128-0.036-0.261-0.139-0.271-0.161c-0.009-0.022,0.229-0.168,0.229-0.168
	s0.354-0.093,0.523-0.091s0.664,0.031,0.664,0.031L2.696,13.969z"/>
<path id="skin-arm-r-1" fill="#F9CAA9" d="M1.395,13.881c0.101,0.014,0.257,0.098,0.368,0.13s0.11-0.082,0.11-0.082
	s-0.227-0.071-0.318-0.104c-0.091-0.032-0.146-0.095-0.249-0.108c-0.104-0.012-0.271,0.042-0.271,0.042l-0.05,0.114l0.019,0.05
	C1.003,13.923,1.294,13.867,1.395,13.881z"/>
<path id="player-shirt" fill-rule="evenodd" clip-rule="evenodd" fill="#0068B4" d="M4.175,15.161
	c-0.084-0.031-0.613-0.786-0.76-0.856c-0.145-0.07-0.359-0.175-0.359-0.175s0.036-0.778,0.115-1.314
	c0.061-0.404,0.236-1.566,0.44-2.037c0.284-0.647,0.668-1.181,0.808-1.333c0.137-0.151,0.339-0.302,0.437-0.381
	S5.044,8.91,5.044,8.91l-0.13,0.648l0.411-0.164l0.391-0.141l0.688-0.25L7.2,8.722l0.469-0.234c0,0,0.352,0.153,0.531,0.266
	s0.59,0.57,0.859,0.984c0.438,0.672,0.752,1.531,0.812,1.688c0.125,0.317,0.5,1.359,0.625,1.844c0.12,0.467,0.219,0.787,0.273,1.111
	c0.013,0.076-0.059,0.085-0.178,0.103s-0.824,0.1-1.328,0.177c-0.574,0.088-1.629,0.22-1.766,0.235
	c-0.137,0.015-0.134-0.014-0.162-0.08c-0.029-0.067-0.259-0.933-0.329-1.146c-0.07-0.215-0.128-0.5-0.194-0.519
	c-0.067-0.019-0.112,0.299-0.123,0.456c-0.013,0.157,0.14,0.701,0.18,0.906c0.029,0.155,0.064,0.375,0.082,0.529
	c0.005,0.051,0,0.08-0.137,0.088c-0.22,0.016-0.836,0.045-1.357,0.06C5.008,15.204,4.259,15.192,4.175,15.161z"/>
<path id="player-shirt-b" fill-rule="evenodd" clip-rule="evenodd" fill="#0068B4" d="M8.442,17.973c0,0-0.031,0.888-0.041,1.17
	c-0.005,0.215-0.005,0.775-0.005,1.03c0.021,0.161-0.013,0.117-0.079,0.146c-0.065,0.029-1.023,0.265-1.105,0.265
	c-0.083,0-0.049-0.241-0.055-0.339c-0.014-0.221,0.062-0.422,0.053-0.607c-0.012-0.187,0-0.36-0.061-0.449s-0.099-0.056-0.155,0.06
	s-0.078,0.275-0.136,0.475c-0.057,0.2-0.071,0.376-0.099,0.509c-0.021,0.101-0.038,0.312-0.046,0.409
	c-0.002,0.031,0.018,0.035-0.077,0.062c-0.096,0.027-0.523,0.066-0.953,0.143c-0.429,0.076-2.308,0.182-2.423,0.188
	c-0.114,0.006-0.142-0.023-0.169-0.229c-0.027-0.206-0.03-0.57-0.074-1.249c-0.044-0.68-0.05-1.543-0.062-1.771
	c-0.021-0.354,0.021-0.75,0.021-0.75s0.131-0.01,0.28,0.02c0.072,0.016,1.22,0.236,2.437,0.441
	C7.009,17.72,8.442,17.973,8.442,17.973z"/>
<path id="player-sock-r" fill="#0068B4" d="M5.837,37.696C5.815,37.507,5.749,37.7,5.68,37.787s-0.13,0.252-0.106,0.441
	s1.021,2.784,1.158,3.251c0.139,0.467,0.279,1.036,0.428,1.59c0.148,0.553,0.349,1.917,0.412,1.955
	c0.064,0.038,0.346-0.024,0.41,0.036c0.065,0.062,0.281,0.409,0.357,0.389c0.078-0.019,0.416-0.885,0.445-0.995
	c0.029-0.111-0.35-1.042-0.505-1.479c-0.178-0.5-0.36-0.954-0.81-1.962s-0.822-1.785-0.903-1.94c-0.08-0.155,0.006-0.47,0.011-0.519
	s-0.135,0.049-0.359-0.11S5.86,37.884,5.837,37.696z"/>
<path id="player-sock-top-r" fill="#0068B4" d="M5.766,36.868l-0.44-0.585c0,0-0.184-0.026-0.271,0.01
	c-0.087,0.037-0.131,0.324-0.103,0.46c0.029,0.136,0.062,0.242,0.135,0.307S5.2,37.128,5.33,37.156s0.456,0.033,0.456,0.033
	L5.766,36.868z"/>
<path id="skin-leg-r" fill="#F9CAA9" d="M4.555,34.862l0.194,0.408l0.258,0.539c0,0-0.406-0.636-0.455-0.727
	c-0.051-0.09-0.109-0.231-0.109-0.231L4.555,34.862z"/>
<path id="player-sock-l" fill="#0068B4" d="M7.274,38.011c0.143-0.005,0.158,0.021,0.211,0.118
	c0.055,0.098,0.084,0.172,0.008,0.26s-0.32,0.107-0.391,0.23c-0.068,0.122-0.132,0.308-0.066,0.45
	c0.066,0.143,1.298,2.818,1.441,3.119c0.145,0.302,0.512,1.332,0.567,1.538c0.056,0.204,0.309,1.047,0.339,1.235
	c0.031,0.189,0.17,0.621,0.244,0.67s0.311-0.045,0.412-0.005c0.101,0.038,0.325,0.364,0.391,0.348
	c0.066-0.015,0.16-0.779,0.216-0.853s0.31-0.358,0.341-0.43c0.029-0.071-0.244-1.041-0.299-1.364s-0.279-2.73-0.41-3.411
	c-0.133-0.68-0.469-1.776-0.59-1.896c-0.119-0.119-0.199-0.169-0.369-0.146c-0.169,0.021-0.525,0.035-0.666,0.054
	c-0.141,0.02-0.105-0.11-0.062-0.199c0.044-0.09,0.459-0.353,0.56-0.537c0.1-0.185,0.032-0.503-0.029-0.653
	c-0.062-0.149-0.217-0.319-0.281-0.281c-0.065,0.038-0.878,0.551-1.205,0.661C7.31,37.03,7.069,37.091,6.847,37.13
	c-0.223,0.038-0.43,0.053-0.484,0.111C6.31,37.3,6.273,37.446,6.309,37.654s0.029,0.273,0.232,0.353S7.131,38.016,7.274,38.011z"/>
<path id="skin-leg-l" fill="#F9CAA9" d="M8.059,33.925c0,0-0.039,0.538,0.056,0.876c0.096,0.339,0.424,1.011,0.424,1.011
	s-0.2,0.142-0.453,0.293c-0.178,0.106-0.383,0.217-0.559,0.284c-0.185,0.071-0.441,0.143-0.671,0.199
	C6.556,36.66,6.3,36.714,6.3,36.714s-0.32-0.325-0.56-0.67c-0.239-0.346-0.706-1.282-0.706-1.282l0.342-0.072l0.52-0.133
	c0,0,0.932-0.283,0.96-0.298c0.028-0.017,0.095-0.034,0.089-0.106c-0.007-0.071,0.004-0.428,0.047-0.448
	c0.043-0.02,0.2,0.279,0.23,0.335c0.009,0.017,0.033,0.083,0.182,0.042C7.644,34.014,8.059,33.925,8.059,33.925z"/>
<path id="player-shorts-l" fill-rule="evenodd" clip-rule="evenodd" fill="#FFFFFF" d="M9.319,26.701
	c-0.096,0.515-0.258,1.003-0.287,1.19s0.074,1.5,0.105,1.956c0.031,0.456,0.131,1.57,0.163,1.969
	c0.022,0.271,0.06,0.677,0.101,1.016c0.01,0.071,0.027,0.235-0.082,0.265c-0.265,0.07-1.746,0.517-1.852,0.523
	c-0.105,0.006-0.121-0.105-0.201-0.214c-0.109-0.148-0.209-0.27-0.289-0.341s-0.139-0.061-0.191,0.044
	c-0.054,0.105-0.131,0.65-0.131,0.65s-0.049,0.116-0.096,0.132c-0.167,0.056-0.57,0.19-0.768,0.242
	c-0.25,0.065-0.81,0.203-0.961,0.229c-0.151,0.027-0.288,0.042-0.357,0.042c-0.068,0-0.109-0.101-0.15-0.221
	c-0.067-0.206-0.191-0.79-0.308-1.395s-0.489-2.639-0.583-3.342c-0.095-0.703-0.236-1.968-0.268-2.285
	c-0.032-0.315-0.042-0.542-0.071-1.142c-0.029-0.601-0.087-2.039-0.079-2.341c0.008-0.303-0.02-0.553-0.005-0.758
	c0.013-0.206,0.042-0.469,0.178-0.544c0.137-0.077,0.587-0.08,0.643-0.157c0.056-0.079,0.071-0.236,0.017-0.268
	c-0.057-0.031-0.225-0.013-0.332-0.007c-0.107,0.005-0.258,0.078-0.382,0.034s-0.097-0.099-0.11-0.235
	c-0.012-0.137,0.027-0.216,0.084-0.279c0.056-0.062,0.652-0.063,0.956-0.068c0.302-0.005,1.384-0.138,1.821-0.196
	s1.283-0.211,1.654-0.289c0.372-0.078,0.836-0.24,0.905-0.226c0.11,0.024,0.106,0.105,0.122,0.192s0.051,0.188-0.021,0.255
	c-0.073,0.067-0.61,0.317-0.69,0.384c-0.081,0.066-0.134,0.126-0.136,0.198c0,0.072,0.098,0.173,0.227,0.197
	c0.13,0.023,0.467-0.021,0.565-0.014c0.099,0.008,0.265,0.008,0.312,0.088c0.047,0.082,0.207,0.369,0.277,0.534
	s0.272,0.791,0.328,1.081c0.057,0.289,0.125,0.863,0.098,1.348C9.497,25.436,9.415,26.185,9.319,26.701z"/>
<path fill-rule="evenodd" clip-rule="evenodd" fill="#1A1A18" d="M6.091,25.078c0.026-0.156,0.07-0.311,0.157-0.402
	c0.088-0.092,0.56-0.41,0.577-0.479c0.018-0.068-0.17-0.256-0.254-0.235c-0.085,0.02-0.684,0.299-0.754,0.432
	s-0.156,0.856-0.243,1.083c-0.087,0.226-0.698,1.501-0.612,1.466c0.087-0.035,0.758-0.689,0.86-0.825S6.065,25.234,6.091,25.078z"/>
<path id="skin-arm-l" fill-rule="evenodd" clip-rule="evenodd" fill="#F9CAA9" d="M1.519,16.04l-0.445-0.382
	c0,0-0.007,0.098,0.055,0.219s0.242,0.277,0.242,0.277l0.214,0.162l0.627,0.255l0.614,0.15l0.49,0.007l0.338,0.062l3.406,0.615
	l1.471,0.19c0,0,0.627,0.021,0.912-0.025c0.286-0.047,0.682-0.118,0.809-0.295c0.125-0.175,0.225-0.46,0.272-0.69
	c0.049-0.23,0.042-0.794,0.042-0.794l-0.1-0.866l-1.352,0.19l-1.013,0.117c0,0,0.188,0.599,0.197,0.733
	c0.008,0.135-0.089,0.217-0.15,0.204c-0.062-0.011-0.283-0.515-0.405-0.579c-0.121-0.064-2.297-0.006-2.886-0.021
	s-0.902-0.068-0.902-0.068l-0.272-0.305c0,0-0.283-0.395-0.416-0.511c-0.134-0.115-0.711-0.357-0.711-0.357l-0.291-0.15
	c0,0-0.144-0.012-0.186,0.039c-0.042,0.052,0.076,0.213,0.076,0.213l0.621,0.445c0,0-0.151,0.044-0.26,0.038
	c-0.109-0.005-0.397-0.231-0.397-0.231l-0.571-0.41c0,0-0.303-0.141-0.221-0.12c0.081,0.022-0.182-0.054-0.2,0.006
	c-0.02,0.06,0.174,0.292,0.174,0.292l0.43,0.448l-0.093,0.115l-0.287-0.288c0,0-0.225-0.3-0.309-0.345
	c-0.086-0.046-0.082-0.013-0.098,0.097c-0.016,0.108,0.066,0.286,0.066,0.286l0.498,0.532l-0.008,0.182c0,0-0.113-0.054-0.219-0.135
	c-0.107-0.081-0.363-0.375-0.363-0.375s-0.066,0.038-0.076,0.123c-0.01,0.083,0.078,0.176,0.078,0.176l0.267,0.297l0.288,0.321
	L1.519,16.04z"/>
<path id="player-shorts-r" fill-rule="evenodd" clip-rule="evenodd" fill="#FFFFFF" d="M3.288,30.781c0,0,0.156,0.903,0.227,1.33
	c0.07,0.426,0.268,1.606,0.268,1.606s-0.211-0.01-0.307,0s-0.11-0.093-0.124-0.211c-0.014-0.117-0.108-1.66-0.15-2.131
	c-0.041-0.471-0.077-1.51-0.077-1.51L3.288,30.781z"/>
</svg>
