<?xml version="1.0" encoding="utf-8"?>
<!-- Generator: Adobe Illustrator 16.0.4, SVG Export Plug-In . SVG Version: 6.00 Build 0)  -->
<!DOCTYPE svg PUBLIC "-//W3C//DTD SVG 1.1//EN" "http://www.w3.org/Graphics/SVG/1.1/DTD/svg11.dtd">
<svg version="1.1" id="Ebene_1" xmlns="http://www.w3.org/2000/svg" xmlns:xlink="http://www.w3.org/1999/xlink" x="0px" y="0px"
	 width="13.702px" height="52.91px" viewBox="0 0 13.702 52.91" enable-background="new 0 0 13.702 52.91" xml:space="preserve">
<path fill="#1A1A18" d="M12.969,14.717c0,0,0.023-0.242,0.023-0.341s-0.096-0.245-0.096-0.245s0.203-0.004,0.191-0.221
	c-0.005-0.094-0.141-0.417-0.256-0.518c-0.113-0.1-0.418-0.362-0.554-0.408c-0.135-0.044-0.446-0.116-0.687-0.131
	c-0.242-0.017-0.693-0.001-0.693-0.001s-0.056-0.147-0.097-0.427c-0.04-0.279-0.099-0.662-0.181-1.015
	c-0.079-0.354-0.193-0.711-0.3-0.941c-0.163-0.353-0.519-0.926-0.696-1.132C9.388,9.064,9.174,8.911,8.968,8.75
	C8.896,8.693,8.782,8.631,8.677,8.578c0.098-0.29,0.2-0.591,0.247-0.605c0.156-0.05,0.734,0.216,1.07-0.151
	c0.227-0.211,0.137-0.468,0.283-0.678C10.445,6.9,10.658,6.9,10.467,6.678c-0.012-0.015,0.074-0.038,0.153-0.141
	c0.123-0.123-0.036-0.289-0.003-0.536c0.131-0.062,0.212-0.016,0.398-0.184c0.117-0.078-0.17-0.726-0.17-0.726l-0.193-0.467
	l-0.037-0.092c0.089-0.042,0.186-0.095,0.186-0.095s-0.127,0-0.224,0.001l-0.011-0.025c0,0,0.182-0.092,0.127-0.364
	c-0.052-0.273-0.125-0.483-0.125-0.483s0.393-0.086,0.617-0.262c0.185-0.146-0.202-0.287,0.008-0.349
	c0.223-0.064,0.07-0.319-0.117-0.412c-0.331-0.166-0.385-0.258-0.65-0.503C10.047,1.694,9.949,1.58,9.823,1.468
	C9.469,1.149,9.044,0.925,8.589,0.785C8.176,0.656,7.264,0.574,6.361,0.766c-0.307,0.077-0.855,0.237-1.3,0.544
	c-0.1-0.021-0.235-0.034-0.386-0.029C4.623,1.257,4.568,1.235,4.524,1.195c-0.263-0.236-0.472-0.31-0.71-0.398
	c-0.239-0.09-0.535-0.127-0.818-0.07c-0.383,0.075-0.686,0.215-0.9,0.478C1.906,1.435,1.785,1.752,1.742,2.423
	C1.707,2.991,1.684,4.092,1.608,5.065c-0.073,0.934-0.22,1.637-0.062,2.113c0.12,0.365,0.248,0.428,0.449,0.635
	c0.419,0.434,0.581,0.092,0.581,0.092c0.01,0.11,0.357,0.159,0.426,0.111C3.121,7.933,3.109,7.784,3.02,7.595
	c0.215,0.24,0.344,0.243,0.344,0.243C3.48,7.859,3.827,7.909,3.629,7.6c0.285,0.192,0.342,0.02,0.344-0.253
	c-0.021-0.056,0.009-0.28,0.074-0.515C4.109,6.609,4.27,6.364,4.286,6.266c0.12,0.035,0.237,0.171,0.382,0.312
	C4.84,6.748,5.162,6.916,5.415,7.114c0.12,0.097,0.418,0.504,0.58,0.717c0.089,0.122,0.093,0.192,0.063,0.314
	C5.974,8.168,5.861,8.191,5.861,8.191s-0.43,0.172-0.609,0.328C5.166,8.594,4.963,8.766,4.814,8.926
	c-0.16,0.17-0.439,0.558-0.516,0.688c-0.148,0.249-0.475,0.927-0.625,1.25s-0.368,0.936-0.5,1.312
	c-0.131,0.374-0.289,0.827-0.453,1.484c-0.078,0.318-0.195,0.837-0.203,0.938c-0.014,0.177,0.004,0.232,0.115,0.254
	c0.15,0.029,0.213,0.012,0.213,0.012s-0.078,0.982-0.078,1.219c0,0.234,0.143,0.98,0.312,1.297c0.234,0.438,0.729,0.485,1.016,0.531
	c0.285,0.046,0.793,0.059,0.793,0.059s0.041,0.41,0.056,0.866c0.013,0.456,0.044,1.479-0.007,1.556
	c-0.021,0.033-0.049,0.069-0.131,0.194c-0.08,0.125-0.109,0.323-0.082,0.5c0.027,0.176,0.072,0.332,0.057,0.387
	s-0.08,0.124-0.164,0.251c-0.152,0.229-0.359,0.562-0.562,1.392c-0.08,0.322-0.12,0.599-0.19,0.989
	c-0.07,0.393-0.04,0.946-0.027,1.28c0.012,0.332,0.126,0.899,0.151,1.131c0.025,0.23,0.303,1.327,0.314,1.499
	s-0.07,1.48-0.098,1.833c-0.027,0.353-0.301,3.028-0.301,3.028s-0.014,0.221-0.028,0.339c-0.012,0.103,0.056,0.162,0.191,0.221
	c0.183,0.077,0.452,0.161,0.726,0.234c0.273,0.074,0.436,0.116,0.436,0.116s0.031,0.462-0.039,0.736
	c-0.07,0.275-0.383,1.044-0.465,1.118c-0.082,0.073-0.35,0.228-0.438,0.382c-0.09,0.154-0.338,0.674-0.335,0.829
	c0.007,0.288,0.171,0.538,0.143,0.553c-0.05,0.027-0.341,0.115-0.424,0.221s-0.185,0.419-0.235,0.577
	c-0.053,0.158-0.395,1.157-0.477,1.643c-0.066,0.392-0.369,3.22-0.54,4.048c-0.044,0.214-0.187,0.579-0.187,0.579
	s-0.33,0.024-0.391,0.044c-0.06,0.019-0.25,0.369-0.25,0.369s-0.683,0.541-0.76,0.64c-0.076,0.099-0.183,0.269-0.212,0.383
	c-0.028,0.112,0.206,0.734,0.206,0.734s-0.221,0.26-0.234,0.318S0.7,47.298,0.77,47.357c0.068,0.059,0.275-0.01,0.275-0.01
	l0.977,2.379l0.062,0.229c0,0-0.175,0.152-0.164,0.21c0.014,0.059,0.099,0.259,0.145,0.32c0.045,0.062,0.324-0.04,0.324-0.04
	l0.127,0.313c0,0-0.08,0.112-0.092,0.201c-0.012,0.087,0.101,0.272,0.154,0.297c0.053,0.024,0.308-0.033,0.308-0.033l0.081,0.144
	c0,0-0.079,0.137-0.071,0.209c0.009,0.073,0.19,0.229,0.257,0.254s0.222-0.079,0.222-0.079s0.602,0.496,0.764,0.506
	c0.163,0.01,0.29-0.039,0.356-0.147c0.066-0.107,0.088-0.286,0.098-0.726c0.007-0.312-0.09-1.178-0.148-1.659
	c0.013,0.033,0.097,0.256,0.158,0.278c0.066,0.024,0.219-0.135,0.219-0.135l0.156,0.297c0,0-0.098,0.141-0.1,0.239
	c-0.002,0.098,0.152,0.24,0.205,0.279c0.054,0.039,0.315-0.06,0.315-0.06l0.095,0.162c0,0-0.095,0.147-0.097,0.231
	c-0.002,0.083,0.168,0.199,0.234,0.254c0.067,0.055,0.285-0.08,0.285-0.08s0.456,0.497,0.646,0.535
	c0.189,0.04,0.33-0.068,0.438-0.205c0.107-0.137,0.097-0.408,0.095-0.816c-0.001-0.408-0.111-0.806-0.151-1.069
	c-0.042-0.266-0.253-1.11-0.277-1.327s-0.147-0.629-0.153-0.912c-0.006-0.275-0.064-1.345-0.043-1.413s0.125-0.236,0.169-0.365
	s0.007-0.416,0.019-0.706c0.012-0.291,0.229-1.336,0.359-1.879c0.132-0.543,0.433-1.646,0.652-2.285
	c0.219-0.64,0.779-2.051,0.861-2.404c0.073-0.311-0.062-0.636-0.01-0.663c0.051-0.027,0.255-0.102,0.38-0.16
	s0.233-0.217,0.309-0.615c0.075-0.399-0.044-0.955-0.044-0.955l0.457-0.723l0.401-0.73l0.095-0.21c0,0,0.342-0.016,0.438-0.022
	s0.123-0.067,0.138-0.184c0.027-0.206,0.07-0.796,0.07-0.796l0.082-1.599c0,0,0.089-1.994,0.091-2.563
	c0.003-0.57,0.003-0.982,0.003-1.541S11,25.917,11,25.917s0.068-3,0.064-3.159c-0.002-0.159-0.082-0.339-0.056-0.433
	c0.026-0.095,0.069-0.364,0.068-0.516s0.001-0.318-0.041-0.427c-0.043-0.106-0.098-0.239-0.098-0.239s0.015-0.635,0.048-1.015
	c0.032-0.379,0.064-1.239,0.078-1.812c0.014-0.574,0.07-1.296,0.07-1.296s0.416-0.102,0.609-0.188c0.193-0.085,0.5-0.25,0.7-0.38
	c0.2-0.129,0.289-0.282,0.356-0.426c0.066-0.144,0.062-0.451,0.062-0.451s0.185-0.239,0.238-0.46
	C13.154,14.895,12.969,14.717,12.969,14.717z M4.441,49.704c-0.022-0.187-0.039-0.315-0.039-0.315l0.086,0.135L4.441,49.704z"/>
<path id="skin-face" fill="#F9CAA9" d="M6.439,8.316c0,0,0.438,0.219,0.875,0.359s0.938,0.312,0.938,0.312L8.33,8.472
	c0,0,0.25-0.81,0.375-0.812c0.421-0.007,0.84,0.226,1.117-0.138c0.114-0.149,0.086-0.441,0.18-0.603
	c0.086-0.147,0.17-0.083,0.191-0.154c0.042-0.134-0.126-0.154-0.126-0.154L9.748,6.519l-0.02-0.08c0,0,0.075-0.124,0.226-0.044
	c0.149,0.082,0.515,0.101,0.409-0.083c-0.035-0.062-0.017-0.479-0.023-0.5c0.057,0.012,0.211-0.035,0.367-0.084
	c0.059-0.068-0.098-0.332-0.137-0.461c-0.039-0.128-0.273-0.559-0.273-0.559L10.25,4.707l0.001,0.179c0,0-0.149-0.006-0.224-0.042
	C9.982,4.824,9.91,4.8,9.868,4.785C9.809,4.79,9.75,4.791,9.707,4.783c-0.114-0.02-0.415-0.131-0.398-0.15
	C9.674,4.709,9.59,4.644,9.754,4.622c0.025-0.001,0.127-0.019,0.225-0.033c0.135-0.053,0.266-0.108,0.271-0.131
	c0.013-0.069,0.183-0.252,0.021-0.228c-0.133,0.021-0.691-0.064-0.451-0.037s0.525-0.164,0.525-0.164s-0.08-0.36-0.132-0.371
	C9.911,3.605,10.005,3.6,9.789,3.528C9.541,3.447,9.904,3.636,9.654,3.741C9.303,3.87,9.027,3.764,9.093,3.82
	c0.182,0.128-0.044,0.188-0.086,0.201c-0.265,0.086-0.327,0.14-0.88-0.058c-0.039-0.015,0.188,0.466,0.088,0.95
	C8.007,5.918,7.806,6.354,7.654,6.03C7.465,5.624,7.375,5.546,7.072,5.386C6.949,5.32,6.77,5.301,6.622,5.318
	c-0.288,0.034-0.357,0.446-0.21,0.683C6.597,6.302,7.004,6.32,7.066,6.35c0.029,0.017,0.025,0.065-0.044,0.097
	C6.938,6.487,6.784,6.51,6.784,6.51L6.713,7.187C6.713,7.187,6.457,8.381,6.439,8.316z M7.188,6.04
	C7.038,6.111,6.963,6.063,6.963,6.063L6.904,6.048c0,0-0.112-0.048-0.145-0.112C6.621,5.649,6.627,5.723,6.619,5.644
	s0.07-0.139,0.156-0.117c0.086,0.021,0.04-0.071,0.057,0.095c0.027,0.286,0.295,0.334,0.439,0.337l0.115-0.002
	c0.05,0.062,0.094,0.138,0.025,0.165C7.314,6.09,7.205,6.031,7.188,6.04z"/>
<path id="hair-p" fill="#F7DD7F" d="M4.302,1.39c-0.086-0.087-0.4-0.256-0.671-0.344C3.448,0.985,3.223,0.981,2.856,1.095
	C2.11,1.327,2.127,1.726,2.012,3.385C1.936,4.462,1.947,5.004,1.885,5.499C1.797,6.181,1.6,7.135,2.309,7.645
	C2.082,7.482,2.336,6.803,2.336,6.803c0.013,0.124-0.021,0.349,0.061,0.518C2.49,7.52,2.703,7.659,2.733,7.677
	c-0.194-0.292,0.042-0.98,0.042-0.98C2.869,6.975,2.98,7.285,3.348,7.49C3.259,7.44,3.226,6.603,3.226,6.603
	C3.323,6.821,3.628,7.105,3.67,7.288C3.52,6.629,4.078,6.617,3.996,5.835C3.748,5.171,3.51,4.76,3.525,3.843
	C3.371,3.59,3.348,2.893,3.352,2.633c0.004-0.401,0.151-0.74,0.337-0.91C3.951,1.479,4.302,1.39,4.302,1.39z"/>
<path id="hair" fill-rule="evenodd" clip-rule="evenodd" fill="#F7DD7F" d="M4.82,6.263C5.093,6.544,5.68,6.68,6.233,7.524
	C6.296,7.633,6.37,7.329,6.425,6.917C6.447,6.74,6.471,6.663,6.501,6.466C6.138,6.251,6.092,5.988,6.038,5.769
	C5.97,5.493,6.137,5.201,6.254,5.132c0.275-0.204,0.489-0.161,0.697-0.11C7.283,5.101,7.635,5.316,7.762,5.6
	c0.061,0.136,0.133-0.485,0.194-1.062C7.979,4.318,7.831,4,7.808,3.825C7.778,3.621,7.926,3.513,8.061,3.58
	c0.086,0.056,0.398,0.285,0.762,0.107C8.438,3.51,8.555,3.316,8.592,3.27c0.074-0.092,0.352,0.386,0.906,0.212
	C9.076,3.168,9.124,2.917,9.487,3.092c0.638,0.203,0.784,0.327,1.368,0.066c-0.187-0.14-0.318-0.251-0.418-0.344
	c0.202-0.022,0.342-0.003,0.382-0.057c0.011-0.014-0.117-0.034-0.386-0.25c-0.146-0.116-0.268-0.247-0.422-0.406
	C9.971,2.051,9.912,1.99,9.83,1.919C9.715,1.805,9.54,1.654,9.411,1.556c-0.13-0.098-0.308-0.228-0.439-0.275
	c-0.308-0.113-0.669-0.28-1.289-0.312C6.237,0.875,5.41,1.456,5.24,1.577C4.997,1.752,4.441,2.242,4.204,2.713
	C3.896,3.207,3.91,3.804,3.927,4.071C4,5.226,4.418,5.85,4.82,6.263z M4.588,3.335c0.109-0.278,0.025,0.544,0.115,0.973
	c0.1,0.458,0.257,0.84,0.174,0.736C4.416,4.481,4.377,3.86,4.588,3.335z"/>
<path fill="#FFFFFF" d="M4.855,1.574c0,0-0.105-0.077-0.48,0.079c-0.334,0.139-0.508,0.211-0.64,0.605
	C3.627,2.584,3.668,3.305,3.668,3.305s0.211-0.699,0.477-1.061C4.521,1.732,4.855,1.574,4.855,1.574z"/>
<path id="skin-arm-l-2" fill-rule="evenodd" clip-rule="evenodd" fill="#F9CAA9" d="M11.006,13.969c0,0,0.446-0.345,0.572-0.371
	c0.127-0.025,0.377,0.046,0.505,0.011c0.128-0.036,0.261-0.139,0.271-0.161c0.009-0.022-0.229-0.168-0.229-0.168
	s-0.354-0.093-0.523-0.091s-0.664,0.031-0.664,0.031L11.006,13.969z"/>
<path id="skin-arm-l-1" fill="#F9CAA9" d="M12.308,13.881c-0.101,0.014-0.257,0.098-0.368,0.13s-0.11-0.082-0.11-0.082
	s0.227-0.071,0.318-0.104c0.091-0.032,0.146-0.095,0.249-0.108c0.104-0.012,0.271,0.042,0.271,0.042l0.05,0.114l-0.019,0.05
	C12.699,13.923,12.408,13.867,12.308,13.881z"/>
<path id="player-shirt" fill-rule="evenodd" clip-rule="evenodd" fill="#0068B4" d="M9.527,15.161
	c0.084-0.031,0.613-0.786,0.76-0.856c0.145-0.07,0.359-0.175,0.359-0.175s-0.036-0.778-0.115-1.314
	c-0.061-0.404-0.236-1.566-0.44-2.037c-0.284-0.647-0.668-1.181-0.808-1.333C9.146,9.294,8.944,9.143,8.847,9.064
	S8.658,8.91,8.658,8.91l0.13,0.648L8.377,9.394L7.986,9.254l-0.688-0.25L6.502,8.722L6.033,8.488c0,0-0.352,0.153-0.531,0.266
	s-0.59,0.57-0.859,0.984c-0.438,0.672-0.752,1.531-0.812,1.688c-0.125,0.317-0.5,1.359-0.625,1.844
	c-0.12,0.467-0.219,0.787-0.273,1.111c-0.013,0.076,0.059,0.085,0.178,0.103s0.824,0.1,1.328,0.177
	c0.574,0.088,1.629,0.22,1.766,0.235c0.137,0.015,0.134-0.014,0.162-0.08c0.029-0.067,0.259-0.933,0.329-1.146
	c0.07-0.215,0.128-0.5,0.194-0.519c0.067-0.019,0.112,0.299,0.123,0.456c0.013,0.157-0.14,0.701-0.18,0.906
	c-0.029,0.155-0.064,0.375-0.082,0.529c-0.005,0.051,0,0.08,0.137,0.088c0.22,0.016,0.836,0.045,1.357,0.06
	C8.694,15.204,9.443,15.192,9.527,15.161z"/>
<path id="player-shirt-b" fill-rule="evenodd" clip-rule="evenodd" fill="#0068B4" d="M5.26,17.973c0,0,0.031,0.888,0.041,1.17
	c0.005,0.215,0.005,0.775,0.005,1.03c-0.021,0.161,0.013,0.117,0.079,0.146c0.065,0.029,1.023,0.265,1.105,0.265
	c0.083,0,0.049-0.241,0.055-0.339c0.014-0.221-0.062-0.422-0.053-0.607c0.012-0.187,0-0.36,0.061-0.449s0.099-0.056,0.155,0.06
	s0.078,0.275,0.136,0.475c0.057,0.2,0.071,0.376,0.099,0.509c0.021,0.101,0.038,0.312,0.046,0.409
	c0.002,0.031-0.018,0.035,0.077,0.062c0.096,0.027,0.523,0.066,0.953,0.143c0.429,0.076,2.308,0.182,2.423,0.188
	c0.114,0.006,0.142-0.023,0.169-0.229c0.027-0.206,0.03-0.57,0.074-1.249c0.044-0.68,0.05-1.543,0.062-1.771
	c0.021-0.354-0.021-0.75-0.021-0.75s-0.131-0.01-0.28,0.02c-0.072,0.016-1.22,0.236-2.437,0.441
	C6.693,17.72,5.26,17.973,5.26,17.973z"/>
<path id="player-sock-l" fill="#0068B4" d="M7.865,37.696c0.021-0.188,0.088,0.005,0.157,0.092s0.13,0.252,0.106,0.441
	s-1.021,2.784-1.158,3.251c-0.139,0.467-0.279,1.036-0.428,1.59c-0.148,0.553-0.349,1.917-0.412,1.955
	C6.066,45.063,5.785,45,5.721,45.061c-0.065,0.062-0.281,0.409-0.357,0.389c-0.078-0.019-0.416-0.885-0.445-0.995
	c-0.029-0.111,0.35-1.042,0.505-1.479c0.178-0.5,0.36-0.954,0.81-1.962s0.822-1.785,0.903-1.94c0.08-0.155-0.006-0.47-0.011-0.519
	s0.135,0.049,0.359-0.11S7.842,37.884,7.865,37.696z"/>
<path id="player-sock-top-l" fill="#0068B4" d="M7.937,36.868l0.44-0.585c0,0,0.184-0.026,0.271,0.01
	c0.087,0.037,0.131,0.324,0.103,0.46c-0.029,0.136-0.062,0.242-0.135,0.307s-0.114,0.068-0.244,0.096s-0.456,0.033-0.456,0.033
	L7.937,36.868z"/>
<path id="skin-leg-l" fill="#F9CAA9" d="M9.147,34.862L8.953,35.27l-0.258,0.539c0,0,0.406-0.636,0.455-0.727
	c0.051-0.09,0.109-0.231,0.109-0.231L9.147,34.862z"/>
<path id="player-sock-r" fill="#0068B4" d="M6.428,38.011c-0.143-0.005-0.158,0.021-0.211,0.118
	c-0.055,0.098-0.084,0.172-0.008,0.26s0.32,0.107,0.391,0.23c0.068,0.122,0.132,0.308,0.066,0.45
	c-0.066,0.143-1.298,2.818-1.441,3.119c-0.145,0.302-0.512,1.332-0.567,1.538c-0.056,0.204-0.309,1.047-0.339,1.235
	c-0.031,0.189-0.17,0.621-0.244,0.67s-0.311-0.045-0.412-0.005c-0.101,0.038-0.325,0.364-0.391,0.348
	c-0.066-0.015-0.16-0.779-0.216-0.853s-0.31-0.358-0.341-0.43c-0.029-0.071,0.244-1.041,0.299-1.364s0.279-2.73,0.41-3.411
	c0.133-0.68,0.469-1.776,0.59-1.896c0.119-0.119,0.199-0.169,0.369-0.146c0.169,0.021,0.525,0.035,0.666,0.054
	c0.141,0.02,0.105-0.11,0.062-0.199c-0.044-0.09-0.459-0.353-0.56-0.537c-0.1-0.185-0.032-0.503,0.029-0.653
	c0.062-0.149,0.217-0.319,0.281-0.281c0.065,0.038,0.878,0.551,1.205,0.661c0.326,0.111,0.566,0.173,0.789,0.212
	c0.223,0.038,0.43,0.053,0.484,0.111c0.053,0.059,0.089,0.204,0.054,0.412s-0.029,0.273-0.232,0.353S6.571,38.016,6.428,38.011z"/>
<path id="skin-leg-r" fill="#F9CAA9" d="M5.644,33.925c0,0,0.039,0.538-0.056,0.876c-0.096,0.339-0.424,1.011-0.424,1.011
	s0.2,0.142,0.453,0.293C5.795,36.211,6,36.322,6.176,36.389c0.185,0.071,0.441,0.143,0.671,0.199c0.3,0.072,0.556,0.126,0.556,0.126
	s0.32-0.325,0.56-0.67c0.239-0.346,0.706-1.282,0.706-1.282L8.326,34.69l-0.52-0.133c0,0-0.932-0.283-0.96-0.298
	c-0.028-0.017-0.095-0.034-0.089-0.106c0.007-0.071-0.004-0.428-0.047-0.448c-0.043-0.02-0.2,0.279-0.23,0.335
	c-0.009,0.017-0.033,0.083-0.182,0.042C6.059,34.014,5.644,33.925,5.644,33.925z"/>
<path id="player-shorts-r" fill-rule="evenodd" clip-rule="evenodd" fill="#FFFFFF" d="M4.383,26.701
	c0.096,0.515,0.258,1.003,0.287,1.19s-0.074,1.5-0.105,1.956c-0.031,0.456-0.131,1.57-0.163,1.969
	c-0.022,0.271-0.06,0.677-0.101,1.016c-0.01,0.071-0.027,0.235,0.082,0.265c0.265,0.07,1.746,0.517,1.852,0.523
	c0.105,0.006,0.121-0.105,0.201-0.214c0.109-0.148,0.209-0.27,0.289-0.341s0.139-0.061,0.191,0.044
	c0.054,0.105,0.131,0.65,0.131,0.65s0.049,0.116,0.096,0.132c0.167,0.056,0.57,0.19,0.768,0.242c0.25,0.065,0.81,0.203,0.961,0.229
	c0.151,0.027,0.288,0.042,0.357,0.042c0.068,0,0.109-0.101,0.15-0.221c0.067-0.206,0.191-0.79,0.308-1.395s0.489-2.639,0.583-3.342
	c0.095-0.703,0.236-1.968,0.268-2.285c0.032-0.315,0.042-0.542,0.071-1.142c0.029-0.601,0.087-2.039,0.079-2.341
	c-0.008-0.303,0.02-0.553,0.005-0.758c-0.013-0.206-0.042-0.469-0.178-0.544c-0.137-0.077-0.587-0.08-0.643-0.157
	c-0.056-0.079-0.071-0.236-0.017-0.268c0.057-0.031,0.225-0.013,0.332-0.007c0.107,0.005,0.258,0.078,0.382,0.034
	s0.097-0.099,0.11-0.235c0.012-0.137-0.027-0.216-0.084-0.279c-0.056-0.062-0.652-0.063-0.956-0.068
	c-0.302-0.005-1.384-0.138-1.821-0.196s-1.283-0.211-1.654-0.289c-0.372-0.078-0.836-0.24-0.905-0.226
	c-0.11,0.024-0.106,0.105-0.122,0.192s-0.051,0.188,0.021,0.255c0.073,0.067,0.61,0.317,0.69,0.384
	c0.081,0.066,0.134,0.126,0.136,0.198c0,0.072-0.098,0.173-0.227,0.197c-0.13,0.023-0.467-0.021-0.565-0.014
	c-0.099,0.008-0.265,0.008-0.312,0.088c-0.047,0.082-0.207,0.369-0.277,0.534s-0.272,0.791-0.328,1.081
	c-0.057,0.289-0.125,0.863-0.098,1.348C4.205,25.436,4.287,26.185,4.383,26.701z"/>
<path fill-rule="evenodd" clip-rule="evenodd" fill="#1A1A18" d="M7.611,25.078c-0.026-0.156-0.07-0.311-0.157-0.402
	c-0.088-0.092-0.56-0.41-0.577-0.479c-0.018-0.068,0.17-0.256,0.254-0.235c0.085,0.02,0.684,0.299,0.754,0.432
	s0.156,0.856,0.243,1.083c0.087,0.226,0.698,1.501,0.612,1.466c-0.087-0.035-0.758-0.689-0.86-0.825S7.637,25.234,7.611,25.078z"/>
<path id="skin-arm-r" fill-rule="evenodd" clip-rule="evenodd" fill="#F9CAA9" d="M12.184,16.04l0.445-0.382
	c0,0,0.007,0.098-0.055,0.219s-0.242,0.277-0.242,0.277l-0.214,0.162l-0.627,0.255l-0.614,0.15l-0.49,0.007l-0.338,0.062
	l-3.406,0.615l-1.471,0.19c0,0-0.627,0.021-0.912-0.025c-0.286-0.047-0.682-0.118-0.809-0.295c-0.125-0.175-0.225-0.46-0.272-0.69
	c-0.049-0.23-0.042-0.794-0.042-0.794l0.1-0.866l1.352,0.19l1.013,0.117c0,0-0.188,0.599-0.197,0.733
	c-0.008,0.135,0.089,0.217,0.15,0.204c0.062-0.011,0.283-0.515,0.405-0.579c0.121-0.064,2.297-0.006,2.886-0.021
	s0.902-0.068,0.902-0.068l0.272-0.305c0,0,0.283-0.395,0.416-0.511c0.134-0.115,0.711-0.357,0.711-0.357l0.291-0.15
	c0,0,0.144-0.012,0.186,0.039c0.042,0.052-0.076,0.213-0.076,0.213l-0.621,0.445c0,0,0.151,0.044,0.26,0.038
	c0.109-0.005,0.397-0.231,0.397-0.231l0.571-0.41c0,0,0.303-0.141,0.221-0.12c-0.081,0.022,0.182-0.054,0.2,0.006
	c0.02,0.06-0.174,0.292-0.174,0.292l-0.43,0.448l0.093,0.115l0.287-0.288c0,0,0.225-0.3,0.309-0.345
	c0.086-0.046,0.082-0.013,0.098,0.097c0.016,0.108-0.066,0.286-0.066,0.286l-0.498,0.532l0.008,0.182c0,0,0.113-0.054,0.219-0.135
	c0.107-0.081,0.363-0.375,0.363-0.375s0.066,0.038,0.076,0.123c0.01,0.083-0.078,0.176-0.078,0.176l-0.267,0.297l-0.288,0.321
	L12.184,16.04z"/>
<path id="player-shorts-l" fill-rule="evenodd" clip-rule="evenodd" fill="#FFFFFF" d="M10.414,30.781c0,0-0.156,0.903-0.227,1.33
	c-0.07,0.426-0.268,1.606-0.268,1.606s0.211-0.01,0.307,0s0.11-0.093,0.124-0.211c0.014-0.117,0.108-1.66,0.15-2.131
	c0.041-0.471,0.077-1.51,0.077-1.51L10.414,30.781z"/>
</svg>
