<?xml version="1.0" encoding="utf-8"?>
<!-- Generator: Adobe Illustrator 16.0.4, SVG Export Plug-In . SVG Version: 6.00 Build 0)  -->
<!DOCTYPE svg PUBLIC "-//W3C//DTD SVG 1.1//EN" "http://www.w3.org/Graphics/SVG/1.1/DTD/svg11.dtd" [
	<!ENTITY ns_flows "http://ns.adobe.com/Flows/1.0/">
	<!ENTITY ns_extend "http://ns.adobe.com/Extensibility/1.0/">
	<!ENTITY ns_ai "http://ns.adobe.com/AdobeIllustrator/10.0/">
	<!ENTITY ns_graphs "http://ns.adobe.com/Graphs/1.0/">
]>
<svg version="1.1" id="Ebene_1" xmlns:x="&ns_extend;" xmlns:i="&ns_ai;" xmlns:graph="&ns_graphs;"
	 xmlns="http://www.w3.org/2000/svg" xmlns:xlink="http://www.w3.org/1999/xlink" xmlns:a="http://ns.adobe.com/AdobeSVGViewerExtensions/3.0/"
	 x="0px" y="0px" width="15px" height="55.6px" viewBox="0 0 15 55.6" style="enable-background:new 0 0 15 55.6;"
	 xml:space="preserve">
<style type="text/css">
<![CDATA[
	.st0{fill:#1A1A18;}
	.st1{fill-rule:evenodd;clip-rule:evenodd;fill:#1A1A18;}
	.st2{fill:#FBCDAA;}
	.st3{fill:#FFFFFF;}
	.st4{fill-rule:evenodd;clip-rule:evenodd;fill:#FBCDAA;}
	.st5{fill:#0068B4;}
	.st6{fill-rule:evenodd;clip-rule:evenodd;fill:#FFFFFF;}
	.st7{fill-rule:evenodd;clip-rule:evenodd;fill:#0068B4;}
]]>
</style>
<path class="st0" d="M14.51,15.07c0-0.1-0.11-0.26-0.11-0.26s0.23,0,0.22-0.23c-0.01-0.1-0.16-0.44-0.29-0.55s-0.48-0.39-0.63-0.43
	s-0.51-0.12-0.79-0.14s-0.79,0-0.79,0S12.06,13.3,12.01,13s-0.11-0.7-0.21-1.08s-0.22-0.76-0.34-1c-0.19-0.38-0.59-0.98-0.79-1.2
	c-0.27-0.29-0.52-0.45-0.75-0.62C9.73,8.96,9.51,8.8,9.51,8.8l0.02-0.08l0.24-0.36c0,0,0.26-0.03,0.45-0.11S10.47,8.12,10.52,8
	s0.07-0.13,0.08-0.3s-0.03-0.67-0.03-0.67l0.01-0.39l0.06-0.52c0,0,0.16-0.03,0.28-0.08s0.17-0.08,0.21-0.19s0-0.3,0-0.3L10.88,4.9
	l-0.14-0.29l-0.08-0.29V4.12c0,0,0.09-0.2,0.09-0.4s-0.5-1.17-0.5-1.17l0.16-0.75l-0.13-0.5l-0.15-0.25l-0.2,0.09L9.77,0.95
	L9.51,0.93L9.22,0.47L8.75,0.31L8.19,0.4L7.87,0.41l-0.5-0.15l-0.8,0.39L5.53,0.84L5.47,0.99L4.55,1.6L4.42,2.03L4.01,2.18L3.78,3.2
	L3.56,4.77l0.21,0.09L4.01,5.2l0,0.52l0.32,0.45L4.58,6.4l0.26,0.4l0.59,0.58L5.7,7.5l0.43,0.35L6.2,8.46l0,0.06
	c0,0-0.51,0.2-0.72,0.37c-0.1,0.08-0.3,0.22-0.47,0.39C4.83,9.46,4.68,9.67,4.59,9.81c-0.17,0.27-0.58,0.98-0.75,1.33
	s-0.4,0.96-0.55,1.36c-0.15,0.4-0.39,1.22-0.58,1.92c-0.09,0.34-0.18,0.96-0.19,1.06c-0.02,0.19,0,0.15,0.12,0.17
	c0.17,0.03,0.3,0.06,0.3,0.06s-0.06,1-0.06,1.25s0.15,0.98,0.35,1.32c0.23,0.4,0.89,0.49,1.22,0.54s0.81,0.06,0.81,0.06
	s0.05,0.44,0.06,0.92s0.05,1.57-0.01,1.65c-0.02,0.04-0.06,0.07-0.15,0.21s-0.12,0.34-0.09,0.53s0.08,0.35,0.06,0.41
	s-0.09,0.13-0.19,0.27c-0.17,0.24-0.41,0.6-0.64,1.48C4.22,24.7,4.17,25,4.09,25.41s-0.04,1.01-0.03,1.36s0.14,0.96,0.17,1.2
	s0.35,1.41,0.36,1.59s-0.08,1.57-0.11,1.95s-0.34,3.22-0.34,3.22s-0.02,0.23-0.03,0.36c-0.01,0.11,0.06,0.17,0.22,0.23
	c0.21,0.08,0.52,0.17,0.83,0.25s0.5,0.12,0.5,0.12s0.04,0.49-0.04,0.78s-0.44,1.11-0.53,1.19s-0.4,0.24-0.5,0.41
	s-0.39,0.72-0.38,0.88c0.01,0.31,0.19,0.57,0.16,0.59c-0.06,0.03-0.39,0.12-0.48,0.23s-0.21,0.45-0.27,0.61s-0.45,1.23-0.54,1.75
	c-0.08,0.42-0.42,3.42-0.62,4.3c-0.05,0.23-0.21,0.62-0.21,0.62s-0.38,0.03-0.45,0.05S1.5,47.5,1.5,47.5s-0.78,0.58-0.87,0.68
	s-0.21,0.29-0.24,0.41s0.23,0.78,0.23,0.78s-0.25,0.28-0.27,0.34s0.12,0.36,0.2,0.42s0.31-0.01,0.31-0.01l1.12,2.53l0.07,0.25
	c0,0-0.2,0.16-0.19,0.22s0.11,0.27,0.16,0.34s0.37-0.04,0.37-0.04l0.15,0.33c0,0-0.09,0.12-0.11,0.21s0.12,0.29,0.18,0.32
	s0.35-0.04,0.35-0.04l0.09,0.15c0,0-0.09,0.15-0.08,0.22s0.22,0.24,0.29,0.27s0.25-0.08,0.25-0.08s0.69,0.53,0.87,0.54
	s0.33-0.04,0.41-0.16s0.1-0.3,0.11-0.77s-0.22-2.12-0.22-2.12l0.1,0.14l-0.06,0.2c0,0,0.11,0.28,0.19,0.31s0.25-0.14,0.25-0.14
	l0.18,0.32c0,0-0.11,0.15-0.11,0.25s0.17,0.25,0.23,0.3s0.36-0.06,0.36-0.06l0.11,0.17c0,0-0.11,0.16-0.11,0.25s0.19,0.21,0.27,0.27
	s0.33-0.08,0.33-0.08s0.52,0.53,0.74,0.57s0.38-0.07,0.5-0.22s0.11-0.43,0.11-0.87s-0.13-0.86-0.17-1.14s-0.29-1.18-0.32-1.41
	s-0.17-0.67-0.17-0.97c-0.01-0.29-0.07-1.43-0.05-1.5s0.14-0.25,0.19-0.39s0.01-0.44,0.02-0.75s0.26-1.42,0.41-2
	s0.49-1.75,0.74-2.43s0.89-2.18,0.98-2.55c0.08-0.33-0.07-0.68-0.01-0.71s0.29-0.11,0.43-0.17s0.27-0.23,0.35-0.65
	S10.14,38,10.14,38l0.52-0.77l0.46-0.78l0.11-0.22c0,0,0.39-0.02,0.5-0.02c0.11-0.01,0.14-0.07,0.16-0.2
	c0.03-0.22,0.08-0.85,0.08-0.85l0.09-1.7c0,0,0.1-2.12,0.1-2.72s0-1.04,0-1.64s0.07-1.77,0.07-1.77s0.08-3.19,0.08-3.36
	s-0.09-0.36-0.06-0.46s0.08-0.39,0.08-0.55s0-0.34-0.05-0.45s-0.11-0.25-0.11-0.25s0.07-0.67,0.11-1.08s0.08-1.23,0.09-1.84
	s0.02-1.46,0.02-1.46s0.48-0.11,0.7-0.2s0.57-0.27,0.8-0.4s0.33-0.3,0.41-0.45s0.07-0.48,0.07-0.48s0.21-0.25,0.27-0.49
	s-0.15-0.42-0.15-0.42S14.51,15.18,14.51,15.07z"/>
<path id="skin-arm-l-2" class="st4" d="M12.24,14.64c0,0,0.51-0.37,0.65-0.39s0.43,0.05,0.58,0.01s0.3-0.15,0.31-0.17
	s-0.26-0.18-0.26-0.18s-0.4-0.1-0.6-0.1s-0.76,0.03-0.76,0.03L12.24,14.64z"/>
<path id="skin-arm-l-1" class="st2" d="M13.73,14.55c-0.12,0.01-0.29,0.1-0.42,0.14s-0.13-0.09-0.13-0.09s0.26-0.08,0.36-0.11
	s0.17-0.1,0.28-0.11s0.31,0.04,0.31,0.04l0.06,0.12l-0.02,0.05C14.18,14.59,13.84,14.53,13.73,14.55z"/>
<path id="player-jersey" class="st7" d="M10.56,15.91c0.1-0.03,0.7-0.84,0.87-0.91s0.41-0.19,0.41-0.19s-0.04-0.83-0.13-1.4
	c-0.07-0.43-0.27-1.66-0.5-2.16c-0.32-0.69-0.76-1.26-0.92-1.42s-0.39-0.32-0.5-0.41S9.5,9.22,9.5,9.22l0.21,0.73L9.29,9.78
	L8.7,9.56L7.71,9.23L6.85,8.97L6.34,8.83c0,0-0.25,0.11-0.46,0.23S5.31,9.51,5.15,9.68s-0.43,0.65-0.59,0.97
	c-0.08,0.16-0.22,0.38-0.36,0.68c-0.13,0.29-0.26,0.65-0.33,0.82c-0.14,0.34-0.43,1.22-0.55,1.62c-0.14,0.49-0.24,0.96-0.3,1.31
	c-0.01,0.08,0.07,0.09,0.2,0.11s0.94,0.11,1.52,0.19c0.66,0.09,1.86,0.23,2.02,0.25s0.15-0.01,0.19-0.08s0.29-0.99,0.38-1.22
	s0.15-0.53,0.22-0.55s0.13,0.32,0.14,0.48S7.52,15,7.48,15.22c-0.03,0.17-0.07,0.4-0.09,0.56c-0.01,0.05,0,0.08,0.16,0.09
	c0.25,0.02,0.95,0.05,1.55,0.06C9.6,15.95,10.46,15.94,10.56,15.91z"/>
<path id="player-jersey-2" class="st7" d="M5.68,18.9c0,0,0.04,0.94,0.04,1.24c0.01,0.23,0.01,0.82,0.01,1.09
	c-0.02,0.17,0.01,0.12,0.09,0.16S7,21.67,7.09,21.67s0.06-0.26,0.06-0.36c0.02-0.23-0.07-0.45-0.06-0.65s0-0.38,0.07-0.48
	s0.11-0.06,0.18,0.06s0.09,0.29,0.16,0.5s0.08,0.4,0.11,0.54c0.02,0.11,0.04,0.33,0.05,0.44c0,0.03-0.02,0.04,0.09,0.07
	c0.11,0.03,0.6,0.07,1.09,0.15s2.63,0.19,2.77,0.2s0.16-0.02,0.19-0.24s0.09-0.67,0.14-1.39s0.08-1.8,0.07-2.04
	s-0.01-0.52-0.01-0.52s-0.22-0.06-0.39-0.03c-0.08,0.02-1.39,0.25-2.78,0.47C7.32,18.63,5.68,18.9,5.68,18.9z"/>
<path class="st6" d="M5.26,51.32l-0.36-0.87l0.39,0.29l0.29,0.42c0,0-0.1,0.24-0.19,0.26S5.26,51.32,5.26,51.32L5.26,51.32z"/>
<path class="st3" d="M7.2,54.15c-0.16,0.05-0.36-0.27-0.36-0.27L6.75,53.6l0.43,0.22C7.18,53.82,7.36,54.1,7.2,54.15z"/>
<path id="player-sock-l" class="st5" d="M8.66,39.86c0.03-0.2,0.1,0,0.18,0.1s0.15,0.27,0.12,0.47s-1.17,2.96-1.32,3.46
	s-0.32,1.1-0.49,1.69s-0.4,2.04-0.47,2.08s-0.39-0.03-0.47,0.04S5.89,48.12,5.8,48.1s-0.47-0.94-0.51-1.06s0.4-1.11,0.58-1.57
	c0.2-0.53,0.41-1.01,0.92-2.08s0.94-1.9,1.03-2.06s-0.01-0.5-0.01-0.55s0.15,0.05,0.41-0.12S8.63,40.06,8.66,39.86z"/>
<path id="player-sock-l-top" class="st5" d="M8.74,38.98l0.5-0.62c0,0,0.21-0.03,0.31,0.01s0.15,0.34,0.12,0.49
	s-0.07,0.26-0.15,0.33s-0.13,0.07-0.28,0.1s-0.52,0.04-0.52,0.04L8.74,38.98z"/>
<path id="skin-leg-l" class="st2" d="M10.12,36.84L9.9,37.28l-0.29,0.57c0,0,0.46-0.68,0.52-0.77s0.12-0.25,0.12-0.25L10.12,36.84z"
	/>
<path class="st6" d="M2.58,51.81l-0.31-0.89l0.37,0.31l0.27,0.44c0,0-0.11,0.21-0.21,0.25S2.58,51.81,2.58,51.81L2.58,51.81z"/>
<path class="st3" d="M4.3,54.82c-0.09-0.02-0.33-0.3-0.33-0.3l-0.06-0.28l0.41,0.26C4.32,54.49,4.39,54.84,4.3,54.82z"/>
<path id="player-sock-r" class="st5" d="M7.02,40.19c-0.16,0-0.18,0.02-0.24,0.13s-0.09,0.18-0.01,0.28s0.37,0.12,0.45,0.25
	s0.15,0.33,0.08,0.48s-1.48,3-1.65,3.32S5.06,46.05,5,46.27s-0.35,1.11-0.39,1.31s-0.19,0.66-0.28,0.71s-0.35-0.05-0.47-0.01
	s-0.37,0.39-0.45,0.37s-0.18-0.83-0.25-0.91s-0.35-0.38-0.39-0.46s0.28-1.11,0.34-1.45s0.32-2.9,0.47-3.62s0.54-1.89,0.67-2.02
	s0.23-0.18,0.42-0.16s0.6,0.04,0.76,0.06s0.12-0.12,0.07-0.21s-0.52-0.37-0.64-0.57s-0.04-0.53,0.03-0.69s0.25-0.34,0.32-0.3
	s1,0.58,1.38,0.7s0.65,0.18,0.9,0.22S8,39.31,8.06,39.37s0.1,0.22,0.06,0.44s-0.03,0.29-0.27,0.38S7.18,40.2,7.02,40.19z"/>
<path id="skin-leg-r" class="st2" d="M6.12,35.85c0,0,0.04,0.57-0.06,0.93s-0.48,1.07-0.48,1.07S5.8,38,6.09,38.17
	c0.2,0.11,0.44,0.23,0.64,0.3c0.21,0.08,0.5,0.15,0.77,0.21c0.34,0.08,0.63,0.13,0.63,0.13s0.37-0.34,0.64-0.71s0.81-1.36,0.81-1.36
	l-0.39-0.08l-0.59-0.14c0,0-1.06-0.3-1.09-0.32s-0.11-0.04-0.1-0.11c0.01-0.08,0-0.46-0.05-0.48s-0.23,0.3-0.26,0.36
	c-0.01,0.02-0.04,0.09-0.21,0.04C6.6,35.94,6.12,35.85,6.12,35.85z"/>
<path id="player-shorts-r" class="st6" d="M4.68,28.17c0.11,0.55,0.29,1.07,0.33,1.27s-0.08,1.59-0.12,2.08s-0.15,1.67-0.19,2.09
	c-0.03,0.29-0.07,0.72-0.12,1.08c-0.01,0.08-0.03,0.25,0.09,0.28c0.3,0.08,1.99,0.55,2.11,0.56c0.12,0.01,0.14-0.11,0.23-0.23
	c0.12-0.16,0.24-0.29,0.33-0.36s0.16-0.06,0.22,0.05s0.15,0.69,0.15,0.69s0.06,0.12,0.11,0.14c0.19,0.06,0.65,0.2,0.88,0.26
	c0.29,0.07,0.92,0.22,1.1,0.25s0.33,0.04,0.41,0.04s0.13-0.11,0.17-0.23c0.08-0.22,0.22-0.84,0.35-1.48s0.56-2.8,0.67-3.55
	s0.27-2.09,0.31-2.43s0.05-0.58,0.08-1.21s0.1-2.17,0.09-2.49s0.02-0.59,0.01-0.81s-0.05-0.5-0.2-0.58s-0.67-0.08-0.73-0.17
	s-0.08-0.25-0.02-0.28s0.25-0.01,0.38-0.01s0.29,0.08,0.44,0.04s0.11-0.1,0.12-0.25s-0.03-0.23-0.09-0.3s-0.75-0.07-1.09-0.07
	S9.1,22.39,8.6,22.33s-1.46-0.22-1.89-0.31s-0.96-0.25-1.03-0.24c-0.13,0.03-0.12,0.11-0.14,0.2s-0.06,0.2,0.02,0.27
	s0.7,0.34,0.79,0.41s0.15,0.13,0.15,0.21s-0.11,0.18-0.26,0.21s-0.53-0.02-0.64-0.01s-0.3,0.01-0.36,0.09s-0.24,0.39-0.32,0.57
	s-0.31,0.84-0.38,1.15s-0.14,0.92-0.11,1.43S4.57,27.62,4.68,28.17z"/>
<path class="st1" d="M8.37,26.45c-0.03-0.17-0.08-0.33-0.18-0.43s-0.64-0.44-0.66-0.51s0.19-0.27,0.29-0.25s0.78,0.32,0.86,0.46
	s0.18,0.91,0.28,1.15s0.8,1.6,0.7,1.56s-0.86-0.73-0.98-0.88S8.4,26.61,8.37,26.45z"/>
<path id="skin-arm-r" class="st4" d="M13.59,16.84l0.51-0.41c0,0,0.01,0.1-0.06,0.23s-0.28,0.29-0.28,0.29l-0.25,0.17l-0.71,0.27
	l-0.7,0.16l-0.56,0.01l-0.39,0.07l-3.89,0.65l-1.68,0.2c0,0-0.72,0.02-1.04-0.03s-0.78-0.13-0.92-0.31s-0.26-0.49-0.31-0.73
	s-0.05-0.84-0.05-0.84l0.08-0.88l1.58,0.16l1.16,0.12c0,0-0.21,0.64-0.22,0.78s0.1,0.23,0.17,0.22s0.32-0.55,0.46-0.62
	s2.62-0.01,3.29-0.02s1.03-0.07,1.03-0.07l0.31-0.32c0,0,0.32-0.42,0.47-0.54s0.81-0.38,0.81-0.38l0.33-0.16
	c0,0,0.16-0.01,0.21,0.04s-0.09,0.23-0.09,0.23l-0.71,0.47c0,0,0.17,0.05,0.3,0.04s0.45-0.25,0.45-0.25l0.65-0.44
	c0,0,0.34-0.15,0.25-0.13s0.21-0.06,0.23,0.01s-0.2,0.31-0.2,0.31l-0.49,0.48l0.11,0.12l0.33-0.31c0,0,0.26-0.32,0.35-0.37
	s0.09-0.01,0.11,0.1s-0.08,0.3-0.08,0.3l-0.57,0.57l0.01,0.19c0,0,0.13-0.06,0.25-0.14s0.42-0.4,0.42-0.4s0.08,0.04,0.09,0.13
	s-0.09,0.19-0.09,0.19l-0.3,0.32l-0.33,0.34L13.59,16.84z"/>
<path id="player-shorts-l" class="st6" d="M11.57,32.51c0,0-0.18,0.96-0.26,1.41S11,35.63,11,35.63s0.24-0.01,0.35,0
	s0.12-0.1,0.14-0.22s0.12-1.77,0.17-2.27s0.09-1.6,0.09-1.6L11.57,32.51z"/>
<path id="skin-face" class="st2" d="M10.09,2.94c0,0-0.02-0.09-0.09-0.14s-0.52-0.07-0.6-0.07S8.98,2.89,8.98,2.89
	S8.64,3.17,8.54,3.22s-0.29,0.1-0.29,0.1L8.13,3.47c0,0-0.35,0.59-0.46,0.76S6.93,5.37,6.84,5.36S6.45,4.95,6.36,5.01
	S6.27,5.33,6.28,5.44s0.16,0.12,0.16,0.12s-0.03,0.23-0.1,0.29S6.2,5.87,6.2,5.87l-0.49-0.5c0,0,0.4,0.66,0.53,0.77
	s0.29,0.13,0.29,0.13L6.4,6.47l0.02,0.14c0,0,0.03,0.22,0.08,0.34c0.04,0.23,0.07,0.72,0.07,0.72l0.06,0.86l1.41,0.42l1.14,0.42
	c0,0-0.16-0.58-0.17-0.61s0.01-0.12,0.09-0.2s0.24-0.34,0.24-0.34S8.28,7.81,8.1,7.69S7.73,7.38,7.67,7.32S7.62,7.21,7.65,7.18
	s0.15-0.11,0.26-0.03S8.04,7.27,8.2,7.4s1.12,0.41,1.28,0.46S9.9,7.88,10,7.85s0.13-0.09,0.17-0.13s0.02-0.38,0.03-0.46
	s-0.04-0.28-0.04-0.28l-0.1-0.06c0,0-0.14-0.09-0.16-0.12s0.03-0.12,0.03-0.12s0.09-0.04,0.17-0.12s0.15-0.23,0.09-0.28
	s-0.4-0.07-0.42-0.1S9.74,6.08,9.75,6.05s0.26-0.26,0.35-0.28s0.41-0.04,0.41-0.04s0.16-0.01,0.21-0.09S10.7,5.45,10.7,5.45
	l-0.44-1.08c0,0,0-0.2-0.04-0.25s-0.23-0.04-0.28,0S9.87,4.3,9.87,4.3s0.05,0.25-0.09,0.33s-0.3,0.04-0.39,0.04S9.28,4.5,9.26,4.44
	c-0.03-0.09,0.03-0.2,0.03-0.2S9.09,4.11,9,4.12S8.79,4.24,8.74,4.25s-0.1-0.03-0.1-0.03S8.72,4.1,8.81,4.06s0.47-0.15,0.47-0.15
	l0.58-0.08c0,0,0.35-0.03,0.42-0.06s0.08-0.22,0.08-0.22L10.09,2.94z"/>
<path id="hair" class="st0" d="M5.87,7.19l0.17,0.16l0.07,0L6.05,6.77L5.9,6.55l0.11-0.2L5.64,5.89c0,0-0.28-0.46-0.3-0.65
	c-0.02-0.19,0.34-0.28,0.6-0.17c0.02-0.04,0.19-0.46,0.31-0.49c0.23-0.06,0.49,0.3,0.59,0.28c0.1-0.02,0.62-0.89,0.62-0.89
	l0.54-0.89l0.38-0.15l0.41-0.31l0.36-0.17l0.34-0.08l0.44,0.03L10.1,1.8l-0.05-0.36L9.94,1.53L9.7,1.23L9.36,1.2L9.11,0.78
	L8.67,0.64l-0.5,0.08l-0.3,0.01L7.4,0.56L6.67,0.92L5.75,1.05L5.69,1.17L4.85,1.79L4.68,2.23L4.26,2.41L4.1,3.18L3.87,4.51
	l0.19,0.08l0.28,0.44l0.01,0.54l0.29,0.41l0.22,0.21l0.24,0.36l0.53,0.53L5.87,7.19z"/>
</svg>
