<?xml version="1.0" encoding="utf-8"?>
<!-- Generator: Adobe Illustrator 16.0.4, SVG Export Plug-In . SVG Version: 6.00 Build 0)  -->
<!DOCTYPE svg PUBLIC "-//W3C//DTD SVG 1.1//EN" "http://www.w3.org/Graphics/SVG/1.1/DTD/svg11.dtd" [
	<!ENTITY ns_flows "http://ns.adobe.com/Flows/1.0/">
	<!ENTITY ns_extend "http://ns.adobe.com/Extensibility/1.0/">
	<!ENTITY ns_ai "http://ns.adobe.com/AdobeIllustrator/10.0/">
	<!ENTITY ns_graphs "http://ns.adobe.com/Graphs/1.0/">
]>
<svg version="1.1" id="Ebene_1" xmlns:x="&ns_extend;" xmlns:i="&ns_ai;" xmlns:graph="&ns_graphs;"
	 xmlns="http://www.w3.org/2000/svg" xmlns:xlink="http://www.w3.org/1999/xlink" xmlns:a="http://ns.adobe.com/AdobeSVGViewerExtensions/3.0/"
	 x="0px" y="0px" width="24.6px" height="49px" viewBox="0 0 24.6 49" style="enable-background:new 0 0 24.6 49;"
	 xml:space="preserve">
<style type="text/css">
<![CDATA[
	.st0{fill-rule:evenodd;clip-rule:evenodd;fill:#1A1A18;}
	.st1{fill:#FBCDAA;}
	.st2{fill-rule:evenodd;clip-rule:evenodd;fill:#FBCDAA;}
	.st3{fill:#0068B4;}
	.st4{fill-rule:evenodd;clip-rule:evenodd;fill:#FFFFFF;}
	.st5{fill-rule:evenodd;clip-rule:evenodd;fill:#0068B4;}
]]>
</style>
<path class="st0" d="M0.24,22.04c-0.01-0.15,0.15-0.29,0.15-0.29l0.3-0.26c0,0,0.01-0.12,0.03-0.2c0.02-0.08,0.19-0.22,0.19-0.22
	s0.25-0.1,0.37-0.13s1.16-0.21,1.23-0.23c0.07-0.02,0.19,0.01,0.28,0.01c0.09,0,0.96,0.22,0.96,0.22s0.12-0.04,0.22-0.14
	s1.53-1.37,1.68-1.54s0.25-0.54,0.35-0.8c0.09-0.26,0.22-0.6,0.22-0.6s-0.05-0.06-0.13-0.09s0.03-0.29-0.01-0.17s0.3-0.77,0.3-0.77
	L7.1,15c0,0,0.61-1.69,0.74-2.16s0.55-1.58,0.65-1.82c0.09-0.24,0.16-0.4,0.35-0.67s0.53-0.75,0.74-1.02
	c0.21-0.27,0.71-0.65,0.71-0.65l-0.26-0.57c0,0-0.25,0.08-0.4,0.08s-0.41-0.04-0.5-0.08c-0.3-0.14-0.36-0.22-0.43-0.4
	C8.66,7.65,8.64,7.34,8.63,7.21c0-0.14-0.11-0.73-0.16-0.92C8.42,6.1,8.19,5.59,8.16,5.37s0.12-0.79,0.12-0.79S8.15,4.31,8.14,4.15
	C8.13,4.05,8.12,3.9,8.12,3.84S8.09,3.69,8.09,3.61c0-0.07,0.03-0.36,0.03-0.42S7.95,2.38,7.95,2.38L8.04,1.6l0.55-0.42l0.19-0.41
	l0.8-0.02l0.12-0.32l0.96-0.33l0.8-0.02l1.61,0.49l0.23,0.31l0.33-0.05l0.65,0.89l0.68,1.14l0.12,0.26L14.9,3.22l-0.14,0.38
	l0.25,0.58l-0.38,0.35l-0.04,0.61l-0.18,0.6l-0.29,0.59l0.16,0.35l-0.23,0.1l-0.48,0.64l0.03,0.07c0,0,0.62,0.1,0.74,0.12
	c0.12,0.03,0.34,0.08,0.59,0.16s0.64,0.21,0.89,0.33s0.58,0.31,1.12,0.84c0.14,0.14,0.45,0.44,0.8,0.92s0.67,1.07,0.86,1.44
	s0.53,1.16,0.7,1.73c0.09,0.29,0.31,1.21,0.39,1.53s0.34,1.41,0.41,1.69s0.31,1.3,0.39,1.8c0.04,0.28,0.17,1.05,0.22,1.66
	c0.02,0.31,0.03,1.04,0.03,1.04s0.19,0.15,0.27,0.29s0.12,0.43,0.15,0.51c0.06,0.18,0.2,0.24,0.31,0.45
	c0.12,0.21,0.3,0.96,0.43,1.57c0.09,0.44,0.15,1.05,0.16,1.46c0.01,0.41,0,1.44-0.13,2.14s-0.42,1.57-0.47,2
	c-0.02,0.19-0.1,1.05-0.12,1.84c-0.03,0.76-0.02,1.45-0.02,1.52c0,0.14,0.02,0.13-0.08,0.16s-0.53,0.12-0.53,0.12
	s-0.11,0.33-0.11,0.48s0.1,0.6,0.19,0.66c0.09,0.06,0.34,0.22,0.51,0.45s0.3,0.64,0.31,0.82c0.01,0.17-0.1,0.49-0.1,0.49
	s0.22,0.53,0.28,0.83c0.06,0.31,0.46,2.56,0.54,2.93c0.09,0.36,0.37,1.47,0.49,1.84s0.65,2.28,0.65,2.28s0.21,0,0.27,0.1
	s0.06,0.36,0.08,0.44c0.03,0.08,0.36,0.71,0.44,0.86c0.08,0.16,0.01,0.29,0.01,0.44c0.01,0.15,0.03,0.58,0.03,0.67
	s0.05,0.13,0.05,0.21c0,0.08-0.51,0.34-0.51,0.41c0,0.07,0,0.16-0.06,0.24s-0.21,0.05-0.29,0.04c-0.08-0.01-0.11-0.14-0.11-0.14
	l-0.25,0.01c0,0-0.04,0.15-0.09,0.21c-0.05,0.05-0.17,0.03-0.25,0.01s-0.16-0.19-0.16-0.19s-0.26-0.15-0.37-0.17
	c-0.1-0.02-1.08-0.16-1.08-0.16l-1.48-0.19l-0.44-0.08c0,0-0.12,0.12-0.19,0.13c-0.07,0.01-0.18-0.02-0.28-0.08
	c-0.09-0.05-0.09-0.19-0.09-0.19l-0.21-0.05l-0.25-0.08c0,0-0.04,0.11-0.09,0.12c-0.06,0.01-0.24-0.06-0.3-0.12
	s-0.13-0.19-0.13-0.19s-0.2-0.11-0.32-0.18c-0.12-0.07-0.28-0.3-0.28-0.59s0.12-0.58,0.41-0.66c0.22-0.06,1.95-0.34,2.12-0.38
	c0.16-0.03,0.41-0.09,0.46-0.13c0.06-0.04,0.07-0.48,0.1-0.55s0.21-0.12,0.21-0.12s-0.12-0.66-0.25-1.03
	c-0.12-0.37-0.16-0.59-0.36-1.06s-1.59-3.29-1.75-3.66s-0.1-0.69-0.1-0.69s-0.25-0.32-0.29-0.53c-0.04-0.21-0.07-0.39-0.09-0.69
	c-0.03-0.3,0.05-0.59,0.05-0.59s-0.62-0.77-0.82-1.16s-0.42-0.92-0.42-0.92s-0.69-0.02-0.79-0.02c-0.09,0-0.12,0-0.14-0.1
	s-0.25-1.06-0.25-1.06s-0.73,1.08-1,1.47c-0.22,0.32-0.74,1.1-0.93,1.39c-0.04,0.06-0.12,0.12-0.2,0.07
	c-0.06-0.04-0.98-0.47-1.23-0.61c-0.04-0.02-0.07-0.03-0.07-0.03s-0.84,0.86-0.95,1.16s-0.17,0.62-0.17,0.62s0.16,0.04,0.31,0.19
	s0.36,0.43,0.4,0.68c0.06,0.3,0.02,0.65-0.01,0.93c-0.02,0.14,0.08,0.22,0.12,0.27c0.14,0.14,0.36,0.66,0.52,1.03
	c0.11,0.27,0.34,1.3,0.41,1.7c0.14,0.84,0.09,1.75,0.16,2.03s0.69,2.26,0.78,2.37s0.33,0.29,0.39,0.41s0.12,0.78,0.08,0.87
	c-0.04,0.09,0.17,0.29,0.2,0.38s-0.15,0.11-0.18,0.17s0.14,0.72,0.15,0.89c0,0.17-0.22,0.45-0.3,0.56
	c-0.08,0.11-0.32,0.27-0.32,0.27s0.01,0.23-0.07,0.28c-0.04,0.02-0.3,0.07-0.36,0.05c-0.06-0.01-0.08-0.17-0.08-0.17l-0.28,0.02
	c0,0-0.07,0.18-0.11,0.2c-0.03,0.02-0.22,0.05-0.26,0c-0.04-0.04-0.14-0.22-0.14-0.22l-0.84-0.2l-1.42-0.25l-0.38-0.09
	c0,0-0.1,0.12-0.14,0.16c-0.04,0.04-0.25-0.01-0.3-0.07c-0.05-0.05-0.16-0.22-0.16-0.22l-0.28-0.05c0,0-0.04,0.19-0.12,0.18
	c-0.08-0.01-0.24-0.02-0.29-0.09s-0.09-0.2-0.09-0.2s-0.21-0.01-0.4-0.08c-0.19-0.08-0.45-0.32-0.52-0.54s0.06-0.52,0.17-0.63
	c0.11-0.11,0.2-0.24,0.56-0.36c0.36-0.12,1.8-0.42,1.92-0.51c0.12-0.09,0.3-0.33,0.37-0.38c0.07-0.04,0.24-0.03,0.32-0.08
	c0.08-0.06,0.08-0.24,0.04-0.32s-0.82-2.28-1.03-2.84s-0.89-2.05-1.01-2.39s-0.3-0.83-0.3-0.97s0.03-0.22,0.02-0.3
	c-0.02-0.1-0.14-0.14-0.22-0.2c-0.14-0.14-0.26-0.22-0.31-0.53c-0.05-0.31-0.03-1-0.03-1s-0.21-0.51-0.34-0.92
	c-0.13-0.41-0.27-0.67-0.27-1.33s0.19-1.01,0.32-1.41c0.13-0.4,0.57-1.32,0.57-1.32s-0.32-0.2-0.4-0.24
	c-0.07-0.04-0.05-0.07-0.01-0.17c0.06-0.14,0.77-1.34,0.96-1.71c0.19-0.37,1.06-1.79,1.44-2.47c0.38-0.68,1.15-2.09,1.35-2.48
	s0.64-1.2,0.73-1.39s0.36-0.55,0.35-0.67c-0.02-0.11,0-0.36,0.01-0.6s0.11-0.52,0.14-0.58s-0.3-1.07-0.42-1.36s-0.56-1.27-0.7-1.63
	c-0.14-0.36-0.42-1.07-0.42-1.07s-0.06,0.18-0.18,0.59s-0.25,0.84-0.3,0.98s-0.07,0.18-0.17,0.16c-0.1-0.02-0.95-0.23-0.95-0.23
	s-0.34,0.66-0.5,0.96s-0.37,0.74-0.47,0.9c-0.1,0.16-0.56,0.5-0.71,0.6s-1.46,0.85-1.72,1S5.07,22.8,4.8,22.9
	c-0.28,0.1-1.93,0.54-2.09,0.56s-0.43,0.05-0.57,0.07S1.71,23.5,1.56,23.5s-0.38-0.07-0.46-0.1s-0.22-0.13-0.26-0.2
	s-0.04-0.18-0.04-0.18l-0.24-0.13c0,0-0.18-0.13-0.25-0.25c-0.07-0.12,0.04-0.29,0.04-0.29S0.25,22.19,0.24,22.04z"/>
<path id="player-jersey" class="st3" d="M19.5,15.64c0.09,0.42,0.34,1.5,0.44,1.93s0.22,1.22,0.25,1.59s0.08,0.78,0.08,0.95
	c0,0.09-0.01,0.28-0.02,0.37c-0.02,0.15-0.03,0.13-0.14,0.15s-1.22,0.01-1.22,0.01s-0.36,0-0.65-0.04s-0.41,0.02-0.48-0.27
	s-0.34-2.1-0.37-2.27c-0.06-0.33-0.15-0.5-0.26-0.76s-0.27-0.71-0.36-0.99s-0.15-0.54-0.21-0.58s-0.1-0.07-0.15,0.01
	s-0.11,0.18-0.12,0.3s0,0.77,0.1,1.17c0.1,0.4,0.56,1.75,0.62,2.15s-0.03,0.87-0.06,1.03c-0.02,0.16-0.02,0.16-0.11,0.2
	s-0.32,0.11-0.57,0.16s-0.86,0.18-1.35,0.27s-1.47,0.18-1.67,0.22c-0.21,0.04-0.24,0.03-0.3-0.12c-0.09-0.23-0.27-0.72-0.47-1.25
	s-1.22-2.85-1.26-3.06s0.14-1.09,0.12-1.18c-0.02-0.09-0.06-0.18-0.14-0.12s-0.46,1.14-0.61,1.62c-0.12,0.39-0.29,0.91-0.4,1.22
	c-0.02,0.05-0.03,0.16-0.17,0.12s-0.89-0.22-1.32-0.36c-0.43-0.14-1.01-0.28-1.32-0.41c-0.22-0.09-0.48-0.16-0.58-0.22
	s-0.1-0.07-0.03-0.27C6.87,16.92,7.22,16,7.4,15.43s0.81-2.33,1.02-2.87c0.17-0.46,0.45-1.35,0.66-1.76
	c0.18-0.34,0.56-0.78,0.74-1.02c0.18-0.25,0.44-0.48,0.54-0.61s0.27-0.24,0.27-0.24l0.97-0.2l1.28-0.4l0.84-0.43
	c0,0,0.52,0.08,0.91,0.17s0.72,0.22,1.16,0.47s0.72,0.48,1.17,1.01c0.17,0.21,0.47,0.55,0.63,0.82s0.49,0.83,0.64,1.14
	s0.41,0.84,0.67,1.63C19.03,13.58,19.41,15.22,19.5,15.64z"/>
<path class="st0" d="M12.66,15.86c-0.02,0.1-0.04,0.16-0.13,0.16c-0.09-0.01-0.54-0.96-0.67-0.97c-0.13-0.02-0.4,0.06-0.44,0.04
	s0.26-0.44,0.38-0.69c0.12-0.25,0.48-1.06,0.51-1.1s0.29-0.12,0.3-0.02s-0.24,0.68-0.24,0.85S12.66,15.86,12.66,15.86
	S12.68,15.75,12.66,15.86z"/>
<path id="skin-arm-l" class="st1" d="M7.91,20.66c-0.17,0.18-0.65,0.45-0.9,0.6c-0.25,0.16-1.29,0.8-1.62,0.97
	c-0.32,0.17-0.76,0.37-1.11,0.48S3.12,23,2.98,23.04c-0.14,0.04-0.38,0.1-0.48,0.11s-0.5,0-0.5,0L1.35,23.1c0,0-0.11-0.03-0.12-0.09
	c-0.01-0.06,0.08-0.08,0.08-0.08l0.58-0.04l0.32-0.04L2.2,22.71l-1.36-0.04c0,0-0.12-0.03-0.16-0.12s0.04-0.14,0.04-0.14l1.36-0.13
	l-0.06-0.19l-1.29,0.03c0,0-0.14-0.05-0.14-0.14c0-0.09,0.09-0.12,0.09-0.12l1.3-0.17L1.98,21.5l-0.65,0.04c0,0-0.31,0.08-0.3-0.02
	c0.01-0.1,0.1-0.2,0.1-0.2s0.21-0.09,0.36-0.11c0.15-0.02,0.9-0.2,1.13-0.18s1.18,0.32,1.18,0.32s0.15-0.05,0.23-0.11
	c0.08-0.07,2.06-1.87,2.06-1.87l0.21-0.53l0.33-0.86l0.64,0.27l1.64,0.47c0,0-0.41,0.85-0.48,1.02C8.36,19.9,8.08,20.48,7.91,20.66z
	"/>
<path id="skin-leg-r" class="st2" d="M17.03,32.9c0,0,0.03,0.3,0.2,0.6c0.16,0.3,0.66,0.88,0.66,0.88s0.34-0.16,0.52-0.23
	c0.17-0.07,0.66-0.22,0.89-0.25s0.91-0.12,0.91-0.12s-0.15-0.29-0.15-0.48c0-0.09,0.11-0.46,0.11-0.46s-0.45,0.03-0.88,0.05
	s-0.72,0.03-1.09,0.02C17.84,32.9,17.03,32.9,17.03,32.9z"/>
<path id="player-sock-r" class="st5" d="M18.23,36.2c0.07,0.11,0.1,0.2,0.24,0.21c0.14,0.02,0.55-0.26,0.61-0.22
	c0.06,0.04,0.07,0.03,0.07,0.14s0.01,0.1-0.07,0.21c-0.08,0.12-0.38,0.25-0.49,0.36c-0.11,0.1-0.14,0.26-0.11,0.4
	c0.03,0.14,1.43,3.07,1.58,3.45c0.15,0.38,0.53,1.45,0.59,1.73s0.12,0.58,0.2,0.62c0.08,0.04,0.47,0.01,0.55,0.11
	s0.19,0.42,0.3,0.44c0.11,0.02,0.52,0.03,0.62-0.02c0.1-0.04,0.19-0.43,0.27-0.58c0.08-0.14,0.16-0.32,0.14-0.43
	s-0.11-0.36-0.25-0.86s-0.36-1.32-0.45-1.7s-0.39-1.77-0.45-2.17s-0.17-1-0.22-1.16s-0.08-0.43-0.18-0.53s-0.14-0.17-0.23-0.18
	c-0.17-0.03-0.26-0.11-0.25-0.2s-0.01-0.16,0.04-0.25c0.04-0.09,0.29-0.08,0.34-0.24c0.06-0.16-0.04-0.49-0.23-0.71
	c-0.19-0.23-0.27-0.28-0.39-0.32c-0.13-0.04-0.88,0.06-1.17,0.13s-0.59,0.19-0.75,0.29s-0.29,0.29-0.35,0.45
	c-0.06,0.17-0.11,0.32-0.1,0.49C18.09,35.87,18.23,36.2,18.23,36.2L18.23,36.2C18.23,36.2,18.17,36.09,18.23,36.2z"/>
<polygon class="st4" points="21.41,45.83 21.3,45.48 20.69,45.38 20.78,45.74 21.41,45.83 "/>
<path class="st4" d="M23.2,44.1c0,0,0.12-0.1,0.07-0.21c-0.05-0.11-0.13-0.21-0.13-0.21l-0.2,0.02L22.88,44L23.2,44.1L23.2,44.1z"/>
<path class="st4" d="M23.35,46.31c0,0,0.25,0.01,0.4-0.07s0.14-0.31,0.14-0.31L23,46.28l-0.05,0.1L23.35,46.31L23.35,46.31z"/>
<polygon class="st4" points="11.28,47.99 11.12,47.63 10.45,47.54 10.66,47.85 11.28,47.99 "/>
<path id="player-sock-l" class="st5" d="M12.59,45.66c0.08-0.04,0.22-0.62,0.26-0.71c0.01-0.02,0.04-0.06,0.01-0.14
	c-0.13-0.33-0.3-0.84-0.36-1.06c-0.08-0.3-0.36-1.13-0.39-1.34c-0.03-0.21,0.01-0.51,0-0.99s-0.08-0.8-0.16-1.23
	c-0.08-0.43-0.31-1.19-0.45-1.48s-0.27-0.59-0.41-0.71c-0.14-0.12-0.48-0.1-0.61-0.1s-0.14-0.06-0.16-0.12s0.09-0.11,0.25-0.22
	c0.14-0.1,0.31-0.16,0.36-0.22s0.08-0.37,0.04-0.56c-0.04-0.19-0.21-0.36-0.32-0.45s-0.2-0.17-0.36-0.16
	c-0.16,0.01-0.73,0.17-0.97,0.26c-0.32,0.12-0.42,0.14-1.1,0.37c-0.09,0.07-0.08,0.13-0.08,0.13s-0.06,0.27-0.03,0.45
	c0.04,0.18,0.01,0.41,0.27,0.57c0.15,0.09,0.41,0.06,0.48,0.19s-0.01,0.19-0.06,0.31s-0.19,0.13-0.2,0.23s0.04,0.41,0.21,0.86
	c0.17,0.45,1.03,2.5,1.03,2.5s0.9,2.48,0.95,2.58s0.38,0.49,0.43,0.63c0.05,0.15,0.04,0.38,0.09,0.46c0.05,0.08,0.65,0.14,0.74,0.14
	S12.5,45.7,12.59,45.66z"/>
<path class="st4" d="M13.02,47.95l0.03,0.11c0,0,0.38,0.04,0.49-0.09c0.11-0.14,0.02-0.17,0.02-0.17L13.02,47.95L13.02,47.95z"/>
<path id="skin-leg-l" class="st2" d="M10.2,35.68c0,0,0.18-0.64,0.28-0.81c0.16-0.27,0.83-1.12,0.83-1.12l-1.14-0.62
	c0,0-1.3-0.82-1.32-0.84s0.19-0.57,0.17-0.55C9,31.76,8.7,32.15,8.66,32.15s-0.33-0.19-0.33-0.19s-0.41,0.78-0.55,1.17
	s-0.25,0.72-0.27,0.88c-0.01,0.16-0.03,0.6,0.02,0.87s0.17,0.7,0.28,0.94s0.27,0.5,0.27,0.5s0.79-0.24,1.06-0.33
	S10.2,35.68,10.2,35.68z"/>
<path class="st0" d="M9.87,35.18C9.92,35.12,10,34.93,10,34.81s0.15-0.3,0.17-0.32c0.02-0.03,0.02-0.1-0.05-0.1
	c-0.07,0-0.47,0.26-0.55,0.35c-0.08,0.09-0.12,0.53-0.08,0.54S9.83,35.24,9.87,35.18z"/>
<path id="player-shorts" class="st4" d="M21.17,28.21c0,0-0.15,0.55-0.21,0.94c-0.06,0.42-0.14,1.57-0.13,1.99
	c0.01,0.33-0.02,0.98-0.02,1.06c0,0.08,0.02,0.08-0.08,0.11c-0.1,0.03-0.32,0.09-0.59,0.1c-0.28,0.01-0.93,0.09-1.39,0.09
	c-0.45,0-1.43-0.02-1.69-0.02c-0.21,0-1.13-0.03-1.19-0.03c-0.06,0.01-0.08-0.02-0.1-0.12c-0.02-0.09-0.22-1.05-0.19-1.14
	s1.48-2.8,1.6-2.91c0.12-0.12,1.05-0.56,1.15-0.54s0.23,0.11,0.33,0.11c0.1,0,0.26-0.05,0.31-0.08c0.05-0.04-0.09-0.33-0.14-0.36
	c-0.06-0.04-0.32-0.12-0.41-0.13s-0.36,0.07-0.42,0.01s0.32-0.45,0.39-0.52c0.07-0.07,0.08-0.34,0.09-0.38
	c0.01-0.04-0.11-0.29-0.18-0.28s-0.17,0.17-0.19,0.21c-0.02,0.04-0.09,0.19-0.18,0.32c-0.09,0.13-0.37,0.28-0.48,0.41
	c-0.11,0.13-0.42,0.43-0.48,0.45s-0.61-0.11-0.84-0.17c-0.23-0.06-0.35-0.16-0.57-0.27s-0.41-0.22-0.6-0.27
	c-0.19-0.04-0.47-0.15-0.51-0.06s-0.08,0.21,0.08,0.39s0.3,0.23,0.49,0.34c0.18,0.11,0.4,0.24,0.62,0.28
	c0.22,0.04,0.41,0.05,0.65,0.16c0.24,0.11,0.46,0.19,0.43,0.26s-1.29,2.44-1.6,2.93c-0.27,0.44-1.9,2.79-1.97,2.9
	c-0.07,0.1-0.09,0.08-0.27,0c-0.25-0.11-0.45-0.24-0.88-0.45c-0.43-0.21-1.04-0.54-1.49-0.79c-0.36-0.2-0.91-0.58-1.12-0.72
	c-0.13-0.07-0.06-0.14-0.06-0.14s0.28-0.89,0.27-0.94s-0.2-0.2-0.27-0.17c-0.11,0.05-0.45,0.58-0.59,0.76
	c-0.02,0.03-0.02,0.07-0.12,0.01c-0.08-0.05-0.32-0.17-0.46-0.25c-0.17-0.09-0.12-0.08-0.06-0.21c0.05-0.12,0.54-0.91,0.81-1.38
	c0.27-0.47,0.47-0.76,0.75-1.28s0.58-1.07,0.83-1.49c0.25-0.42,2-3.55,2.09-3.73c0.08-0.19,0.3-0.49,0.28-0.56s-0.04-0.31-0.04-0.46
	s0.02-0.43,0.14-0.44c0.12-0.01,0.38-0.01,0.64-0.06s1.37-0.2,1.86-0.3c0.49-0.1,1.61-0.35,1.83-0.35s0.78,0,1.13,0.01
	s1.74,0.01,1.86,0.06s0.12,0.05,0.2,0.16c0.08,0.11,0.12,0.22,0.02,0.28s-2.14-0.03-2.39-0.02c-0.25,0.02-0.58,0.08-0.7,0.14
	s-0.21,0.17-0.2,0.22c0.01,0.05-0.04,0.09,0.01,0.13c0.06,0.04,0.26,0.03,0.37,0.04c0.11,0,0.3-0.02,0.5-0.03
	c0.2-0.01,2.29-0.06,2.37-0.05s0.28-0.06,0.36,0.01c0.09,0.06,0.2,0.23,0.22,0.31c0.02,0.09,0.15,0.32,0.24,0.72
	s0.25,1.25,0.28,1.89s0.01,1.4-0.08,1.98C21.39,27.48,21.17,28.21,21.17,28.21z"/>
<path id="skin-face" class="st2" d="M10.17,4.89c-0.04-0.06-0.54-0.2-0.61-0.24S9.39,4.41,9.36,4.34S9.33,4,9.32,3.93
	S9.23,3.77,9.16,3.7S8.85,3.42,8.85,3.42S8.71,3.3,8.62,3.27S8.45,3.22,8.41,3.26S8.28,3.51,8.3,3.56s0.24,0.23,0.25,0.3
	C8.56,3.92,8.52,4.1,8.53,4.18c0.01,0.08,0.1,0.36,0.08,0.44S8.51,5.04,8.5,5.15S8.46,5.38,8.48,5.48s0.27,0.59,0.33,0.76
	s0.13,0.81,0.14,0.92c0.01,0.11,0.09,0.48,0.09,0.48s0.12,0.11,0.29,0.16S9.68,7.81,9.8,7.74c0.12-0.07,0.29-0.31,0.29-0.31
	s0.18,0.27,0.29,0.49c0.1,0.22,0.29,0.6,0.29,0.6s0.7-0.14,0.95-0.2C11.87,8.26,12.5,8.07,12.67,8c0.17-0.07,0.55-0.31,0.55-0.31
	L13.1,7.5c0,0-0.12-0.12-0.17-0.09c-0.05,0.04-0.09,0.22-0.15,0.23c-0.06,0.01-0.19-0.18-0.26-0.18c-0.07,0-0.67,0.19-0.76,0.2
	c-0.09,0.01-0.29-0.07-0.39-0.13s-0.98-1.15-1.01-1.27C10.34,6.13,10.21,4.95,10.17,4.89z"/>
<path id="hair" class="st0" d="M14.28,4.28l-0.02,0.67L14.1,5.54l-0.37,0.69l0.14,0.29l-0.2,0.08l-0.25,0.34l-0.15,0.18
	c-0.06,0-0.37-0.14-0.37-0.14l-0.18,0.23c0,0-0.18-0.07-0.27-0.08c-0.08,0-0.59,0.14-0.67,0.17c-0.09,0.03-0.29-0.19-0.39-0.25
	c-0.14-0.09-0.62-0.85-0.72-1c-0.1-0.15-0.13-1.3-0.23-1.4c-0.1-0.1-0.61-0.2-0.7-0.26C9.65,4.34,9.64,4.1,9.64,4
	c0-0.1-0.06-0.23-0.12-0.31C9.47,3.61,9.44,3.53,9.35,3.45C9.26,3.36,9.2,3.33,9.11,3.26c-0.09-0.07-0.3-0.29-0.35-0.3
	c-0.05,0-0.16-0.08-0.29-0.05C8.41,2.93,8.41,2.9,8.37,2.74C8.34,2.6,8.29,2.43,8.28,2.35C8.26,2.18,8.31,1.81,8.31,1.81l0.44-0.33
	l0.16-0.34l0.86-0.05L9.9,0.8l0.79-0.32l0.72-0.02l1.42,0.44l0.29,0.36l0.34-0.05l0.52,0.76l0.58,0.86l0.11,0.22l-0.15,0.09
	L14.4,3.58l0.23,0.48L14.28,4.28z"/>
</svg>
