<?xml version="1.0" encoding="utf-8"?>
<!-- Generator: Adobe Illustrator 16.0.4, SVG Export Plug-In . SVG Version: 6.00 Build 0)  -->
<!DOCTYPE svg PUBLIC "-//W3C//DTD SVG 1.1//EN" "http://www.w3.org/Graphics/SVG/1.1/DTD/svg11.dtd" [
	<!ENTITY ns_flows "http://ns.adobe.com/Flows/1.0/">
	<!ENTITY ns_extend "http://ns.adobe.com/Extensibility/1.0/">
	<!ENTITY ns_ai "http://ns.adobe.com/AdobeIllustrator/10.0/">
	<!ENTITY ns_graphs "http://ns.adobe.com/Graphs/1.0/">
]>
<svg version="1.1" id="Ebene_1" xmlns:x="&ns_extend;" xmlns:i="&ns_ai;" xmlns:graph="&ns_graphs;"
	 xmlns="http://www.w3.org/2000/svg" xmlns:xlink="http://www.w3.org/1999/xlink" xmlns:a="http://ns.adobe.com/AdobeSVGViewerExtensions/3.0/"
	 x="0px" y="0px" width="24.6px" height="49px" viewBox="0 0 24.6 49" style="enable-background:new 0 0 24.6 49;"
	 xml:space="preserve">
<style type="text/css">
<![CDATA[
	.st0{fill-rule:evenodd;clip-rule:evenodd;fill:#1A1A18;}
	.st1{fill:#FBCDAA;}
	.st2{fill-rule:evenodd;clip-rule:evenodd;fill:#FBCDAA;}
	.st3{fill:#0068B4;}
	.st4{fill-rule:evenodd;clip-rule:evenodd;fill:#FFFFFF;}
	.st5{fill-rule:evenodd;clip-rule:evenodd;fill:#0068B4;}
]]>
</style>
<path class="st0" d="M24.36,22.04c0.01-0.15-0.15-0.29-0.15-0.29l-0.3-0.26c0,0-0.01-0.12-0.03-0.2c-0.02-0.08-0.19-0.22-0.19-0.22
	s-0.25-0.1-0.37-0.13s-1.16-0.21-1.23-0.23c-0.07-0.02-0.19,0.01-0.28,0.01c-0.09,0-0.96,0.22-0.96,0.22s-0.12-0.04-0.22-0.14
	s-1.53-1.37-1.68-1.54s-0.25-0.54-0.35-0.8c-0.09-0.26-0.22-0.6-0.22-0.6s0.05-0.06,0.13-0.09s-0.03-0.29,0.01-0.17
	s-0.3-0.77-0.3-0.77L17.5,15c0,0-0.61-1.69-0.74-2.16s-0.55-1.58-0.65-1.82c-0.09-0.24-0.16-0.4-0.35-0.67s-0.53-0.75-0.74-1.02
	c-0.21-0.27-0.71-0.65-0.71-0.65l0.26-0.57c0,0,0.25,0.08,0.4,0.08s0.41-0.04,0.5-0.08c0.3-0.14,0.36-0.22,0.43-0.4
	c0.03-0.08,0.06-0.38,0.06-0.52c0-0.14,0.11-0.73,0.16-0.92c0.05-0.19,0.28-0.7,0.32-0.92s-0.12-0.79-0.12-0.79s0.12-0.27,0.13-0.43
	c0.01-0.1,0.02-0.25,0.02-0.31s0.03-0.15,0.03-0.22c0-0.07-0.03-0.36-0.03-0.42s0.17-0.81,0.17-0.81L16.56,1.6l-0.55-0.42
	l-0.19-0.41l-0.8-0.02l-0.12-0.32L13.95,0.1l-0.8-0.02l-1.61,0.49l-0.24,0.31l-0.33-0.05l-0.65,0.89L9.64,2.85L9.52,3.11L9.7,3.22
	l0.14,0.38L9.59,4.17l0.38,0.35l0.04,0.61l0.18,0.6l0.29,0.59l-0.16,0.35l0.23,0.1l0.48,0.64l-0.03,0.07c0,0-0.62,0.1-0.74,0.12
	c-0.12,0.03-0.34,0.08-0.59,0.16S9.04,7.97,8.79,8.09S8.21,8.4,7.66,8.93c-0.15,0.14-0.45,0.44-0.8,0.92s-0.67,1.07-0.86,1.44
	s-0.53,1.16-0.7,1.73c-0.09,0.29-0.31,1.21-0.39,1.53s-0.34,1.41-0.41,1.69s-0.31,1.3-0.39,1.8c-0.04,0.28-0.17,1.05-0.22,1.66
	C3.87,20,3.87,20.73,3.87,20.73s-0.19,0.15-0.27,0.29s-0.12,0.43-0.15,0.51c-0.06,0.18-0.2,0.24-0.31,0.45s-0.3,0.96-0.43,1.57
	c-0.09,0.44-0.15,1.05-0.16,1.46s0,1.44,0.13,2.14s0.42,1.57,0.47,2c0.02,0.19,0.09,1.05,0.12,1.84c0.03,0.76,0.02,1.45,0.02,1.52
	c0,0.14-0.02,0.13,0.08,0.16s0.53,0.12,0.53,0.12s0.11,0.33,0.11,0.48s-0.1,0.6-0.19,0.66s-0.34,0.22-0.52,0.45S3,35.04,3,35.21
	c-0.01,0.17,0.1,0.49,0.1,0.49s-0.22,0.53-0.28,0.83s-0.45,2.56-0.54,2.93s-0.37,1.47-0.49,1.84s-0.65,2.28-0.65,2.28
	s-0.21,0-0.27,0.1s-0.06,0.36-0.08,0.44c-0.03,0.08-0.36,0.71-0.44,0.86s-0.01,0.29-0.01,0.44S0.3,46,0.29,46.09
	s-0.05,0.13-0.05,0.21c0,0.08,0.51,0.34,0.51,0.41c0,0.07,0,0.16,0.06,0.24s0.2,0.05,0.29,0.04c0.09-0.01,0.11-0.14,0.11-0.14
	l0.25,0.01c0,0,0.04,0.15,0.09,0.21c0.05,0.05,0.17,0.03,0.25,0.01s0.16-0.19,0.16-0.19s0.26-0.15,0.37-0.17s1.08-0.16,1.08-0.16
	l1.48-0.19l0.44-0.08c0,0,0.12,0.12,0.19,0.13c0.07,0.01,0.18-0.02,0.28-0.08c0.09-0.05,0.09-0.19,0.09-0.19l0.21-0.05l0.25-0.08
	c0,0,0.04,0.11,0.1,0.12c0.06,0.01,0.24-0.06,0.3-0.12s0.13-0.19,0.13-0.19s0.2-0.11,0.32-0.18s0.28-0.3,0.28-0.59
	s-0.12-0.58-0.41-0.66c-0.22-0.06-1.95-0.34-2.12-0.38c-0.16-0.03-0.41-0.09-0.47-0.13s-0.07-0.48-0.1-0.55s-0.21-0.12-0.21-0.12
	s0.13-0.66,0.25-1.03s0.16-0.59,0.36-1.06s1.59-3.29,1.75-3.66s0.1-0.69,0.1-0.69s0.25-0.32,0.29-0.53S7,35.85,7.02,35.56
	s-0.05-0.59-0.05-0.59s0.62-0.77,0.82-1.16s0.42-0.92,0.42-0.92s0.69-0.02,0.79-0.02c0.09,0,0.12,0,0.14-0.1s0.25-1.06,0.25-1.06
	s0.73,1.08,1,1.47c0.22,0.32,0.74,1.1,0.93,1.39c0.04,0.06,0.12,0.12,0.2,0.07c0.06-0.04,0.98-0.47,1.23-0.61
	c0.04-0.02,0.07-0.03,0.07-0.03s0.84,0.86,0.95,1.16s0.17,0.62,0.17,0.62s-0.16,0.04-0.31,0.19s-0.36,0.43-0.4,0.68
	c-0.06,0.3-0.02,0.65,0.01,0.93c0.02,0.14-0.08,0.22-0.12,0.27c-0.14,0.14-0.36,0.66-0.52,1.03c-0.11,0.27-0.34,1.3-0.41,1.7
	c-0.14,0.84-0.09,1.75-0.16,2.03s-0.69,2.26-0.78,2.37s-0.33,0.29-0.39,0.41s-0.12,0.78-0.08,0.87c0.04,0.09-0.17,0.29-0.2,0.38
	c-0.03,0.1,0.15,0.11,0.18,0.17c0.04,0.07-0.14,0.72-0.15,0.89c0,0.17,0.22,0.45,0.3,0.56s0.32,0.27,0.32,0.27s-0.01,0.23,0.07,0.28
	c0.04,0.02,0.3,0.07,0.36,0.05s0.08-0.17,0.08-0.17l0.28,0.02c0,0,0.07,0.18,0.11,0.2c0.03,0.02,0.22,0.05,0.26,0
	c0.04-0.04,0.14-0.22,0.14-0.22l0.84-0.2l1.42-0.25l0.38-0.09c0,0,0.1,0.12,0.14,0.16c0.04,0.04,0.25-0.01,0.3-0.07
	c0.05-0.05,0.16-0.22,0.16-0.22l0.28-0.05c0,0,0.04,0.19,0.12,0.18c0.08-0.01,0.24-0.02,0.29-0.09s0.09-0.2,0.09-0.2
	s0.21-0.01,0.4-0.08c0.19-0.08,0.45-0.32,0.52-0.54s-0.06-0.52-0.17-0.63c-0.11-0.11-0.2-0.24-0.56-0.36
	c-0.36-0.12-1.8-0.42-1.92-0.51c-0.12-0.09-0.3-0.33-0.37-0.38c-0.07-0.04-0.24-0.03-0.32-0.08c-0.08-0.06-0.08-0.24-0.04-0.32
	s0.82-2.28,1.03-2.84s0.89-2.05,1.01-2.39s0.3-0.83,0.3-0.97s-0.03-0.22-0.02-0.3c0.02-0.1,0.14-0.14,0.22-0.2
	c0.14-0.14,0.26-0.22,0.31-0.53c0.05-0.31,0.03-1,0.03-1s0.21-0.51,0.34-0.92c0.13-0.41,0.27-0.67,0.27-1.33s-0.19-1.01-0.32-1.41
	c-0.13-0.4-0.57-1.32-0.57-1.32s0.32-0.2,0.4-0.24c0.07-0.04,0.05-0.07,0.01-0.17c-0.06-0.14-0.77-1.34-0.96-1.71
	c-0.19-0.37-1.06-1.79-1.44-2.47c-0.38-0.68-1.15-2.09-1.35-2.48s-0.64-1.2-0.73-1.39s-0.36-0.55-0.35-0.67
	c0.02-0.11,0-0.36-0.01-0.6s-0.11-0.52-0.14-0.58s0.3-1.07,0.42-1.36s0.56-1.27,0.7-1.63c0.14-0.36,0.42-1.07,0.42-1.07
	s0.06,0.18,0.18,0.59s0.25,0.84,0.3,0.98s0.07,0.18,0.17,0.16c0.1-0.02,0.95-0.23,0.95-0.23s0.34,0.66,0.5,0.96s0.37,0.74,0.47,0.9
	c0.1,0.16,0.56,0.5,0.71,0.6s1.46,0.85,1.72,1s0.91,0.47,1.19,0.57c0.28,0.1,1.93,0.54,2.09,0.56s0.43,0.05,0.57,0.07
	s0.43-0.02,0.57-0.02s0.38-0.07,0.46-0.1s0.22-0.13,0.26-0.2s0.04-0.18,0.04-0.18l0.24-0.13c0,0,0.18-0.13,0.25-0.25
	c0.07-0.12-0.04-0.29-0.04-0.29S24.35,22.19,24.36,22.04z"/>
<path id="player-jersey" class="st3" d="M5.1,15.64c-0.09,0.42-0.34,1.5-0.44,1.93s-0.22,1.22-0.25,1.59s-0.08,0.78-0.08,0.95
	c0,0.09,0.01,0.28,0.02,0.37c0.02,0.15,0.03,0.13,0.14,0.15s1.22,0.01,1.22,0.01s0.36,0,0.65-0.04s0.41,0.02,0.48-0.27
	s0.34-2.1,0.37-2.27c0.06-0.33,0.15-0.5,0.26-0.76s0.27-0.71,0.36-0.99s0.15-0.54,0.21-0.58s0.09-0.07,0.15,0.01s0.11,0.18,0.12,0.3
	s0,0.77-0.1,1.17s-0.56,1.75-0.62,2.15s0.03,0.87,0.06,1.03s0.02,0.16,0.11,0.2s0.32,0.11,0.57,0.16s0.86,0.18,1.35,0.27
	s1.47,0.18,1.67,0.22s0.24,0.03,0.3-0.12c0.09-0.23,0.27-0.72,0.47-1.25s1.22-2.85,1.26-3.06s-0.14-1.09-0.12-1.18
	c0.02-0.09,0.06-0.18,0.14-0.12s0.46,1.14,0.61,1.62c0.12,0.39,0.29,0.91,0.4,1.22c0.02,0.05,0.03,0.16,0.17,0.12
	s0.89-0.22,1.32-0.36c0.43-0.14,1.01-0.28,1.32-0.41c0.22-0.09,0.48-0.16,0.58-0.22s0.1-0.07,0.03-0.27
	c-0.11-0.33-0.45-1.25-0.64-1.81s-0.81-2.33-1.02-2.87c-0.17-0.46-0.45-1.35-0.66-1.76c-0.18-0.34-0.56-0.78-0.74-1.02
	c-0.18-0.25-0.44-0.48-0.54-0.61s-0.27-0.24-0.27-0.24l-0.97-0.2l-1.28-0.4l-0.84-0.43c0,0-0.52,0.08-0.91,0.17S9.26,8.31,8.82,8.56
	S8.1,9.04,7.65,9.57c-0.17,0.21-0.47,0.55-0.63,0.82s-0.48,0.83-0.64,1.14s-0.41,0.84-0.67,1.63C5.57,13.58,5.19,15.22,5.1,15.64z"
	/>
<path class="st0" d="M11.94,15.86c0.02,0.1,0.04,0.16,0.13,0.16c0.09-0.01,0.54-0.96,0.67-0.97c0.13-0.02,0.4,0.06,0.44,0.04
	s-0.26-0.44-0.38-0.69c-0.12-0.25-0.48-1.06-0.51-1.1s-0.29-0.12-0.3-0.02s0.24,0.68,0.24,0.85S11.94,15.86,11.94,15.86
	S11.91,15.75,11.94,15.86z"/>
<path id="skin-arm-r" class="st1" d="M16.69,20.66c0.17,0.18,0.65,0.45,0.9,0.6c0.25,0.16,1.29,0.8,1.62,0.97
	c0.32,0.17,0.76,0.37,1.11,0.48s1.16,0.29,1.29,0.33c0.14,0.04,0.38,0.1,0.48,0.11s0.5,0,0.5,0l0.65-0.06c0,0,0.11-0.03,0.12-0.09
	c0.01-0.06-0.08-0.08-0.08-0.08l-0.58-0.04l-0.32-0.04l0.02-0.14l1.36-0.04c0,0,0.12-0.03,0.16-0.12s-0.04-0.14-0.04-0.14
	l-1.36-0.13l0.06-0.19l1.29,0.03c0,0,0.14-0.05,0.14-0.14c0-0.09-0.09-0.12-0.09-0.12l-1.3-0.17l0.01-0.19l0.65,0.04
	c0,0,0.31,0.08,0.3-0.02c-0.01-0.1-0.1-0.2-0.1-0.2s-0.21-0.09-0.36-0.11c-0.15-0.02-0.9-0.2-1.13-0.18s-1.18,0.32-1.18,0.32
	s-0.15-0.05-0.23-0.11c-0.08-0.07-2.06-1.87-2.06-1.87l-0.21-0.53l-0.33-0.86l-0.64,0.27l-1.64,0.47c0,0,0.41,0.85,0.48,1.02
	C16.24,19.9,16.52,20.48,16.69,20.66z"/>
<path id="skin-leg-l" class="st2" d="M7.57,32.9c0,0-0.03,0.3-0.2,0.6c-0.16,0.3-0.66,0.88-0.66,0.88s-0.34-0.16-0.52-0.23
	S5.54,33.93,5.3,33.9s-0.92-0.12-0.92-0.12s0.15-0.29,0.15-0.48c0-0.09-0.11-0.46-0.11-0.46s0.45,0.03,0.88,0.05
	s0.72,0.03,1.09,0.02S7.57,32.9,7.57,32.9z"/>
<path id="player-sock-l" class="st5" d="M6.37,36.2c-0.06,0.11-0.1,0.2-0.24,0.21c-0.14,0.02-0.55-0.26-0.61-0.22
	c-0.06,0.04-0.07,0.03-0.07,0.14s-0.01,0.1,0.07,0.21s0.38,0.25,0.49,0.36c0.11,0.1,0.14,0.26,0.11,0.4s-1.43,3.07-1.58,3.45
	s-0.53,1.45-0.59,1.73s-0.12,0.58-0.2,0.62s-0.47,0.01-0.55,0.11S3,43.65,2.89,43.67c-0.11,0.02-0.52,0.03-0.62-0.02
	c-0.1-0.04-0.19-0.43-0.27-0.58c-0.08-0.14-0.15-0.32-0.14-0.43s0.11-0.36,0.25-0.86s0.36-1.32,0.45-1.7s0.39-1.77,0.45-2.17
	s0.17-1,0.22-1.16s0.08-0.43,0.18-0.53s0.14-0.17,0.23-0.18c0.17-0.03,0.25-0.11,0.25-0.2s0.01-0.16-0.04-0.25s-0.29-0.08-0.34-0.24
	c-0.06-0.16,0.04-0.49,0.23-0.71c0.19-0.23,0.27-0.28,0.39-0.32s0.88,0.06,1.17,0.13s0.59,0.19,0.75,0.29s0.29,0.29,0.35,0.45
	c0.06,0.17,0.11,0.32,0.1,0.49C6.51,35.87,6.37,36.2,6.37,36.2L6.37,36.2C6.37,36.2,6.43,36.09,6.37,36.2z"/>
<polygon class="st4" points="3.19,45.83 3.3,45.48 3.91,45.38 3.82,45.74 3.19,45.83 "/>
<path class="st4" d="M1.4,44.1c0,0-0.12-0.1-0.07-0.21s0.13-0.21,0.13-0.21l0.2,0.02L1.72,44L1.4,44.1L1.4,44.1z"/>
<path class="st4" d="M1.25,46.31c0,0-0.25,0.01-0.4-0.07s-0.14-0.31-0.14-0.31l0.89,0.34l0.05,0.1L1.25,46.31L1.25,46.31z"/>
<polygon class="st4" points="13.32,47.99 13.47,47.63 14.15,47.54 13.94,47.85 13.32,47.99 "/>
<path id="player-sock-r" class="st5" d="M12.01,45.66c-0.08-0.04-0.22-0.62-0.26-0.71c-0.01-0.02-0.04-0.06-0.01-0.14
	c0.12-0.33,0.29-0.84,0.36-1.06c0.08-0.3,0.36-1.13,0.39-1.34c0.03-0.21-0.01-0.51,0-0.99s0.08-0.8,0.16-1.23
	c0.08-0.43,0.31-1.19,0.45-1.48s0.27-0.59,0.41-0.71c0.14-0.12,0.48-0.1,0.61-0.1s0.14-0.06,0.16-0.12s-0.09-0.11-0.25-0.22
	c-0.14-0.1-0.31-0.16-0.36-0.22s-0.08-0.37-0.04-0.56c0.04-0.19,0.21-0.36,0.32-0.45s0.2-0.17,0.36-0.16
	c0.16,0.01,0.73,0.17,0.97,0.26c0.32,0.12,0.42,0.14,1.1,0.37c0.09,0.07,0.08,0.13,0.08,0.13s0.06,0.27,0.03,0.45
	c-0.04,0.18-0.01,0.41-0.27,0.57c-0.15,0.09-0.41,0.06-0.48,0.19s0.01,0.19,0.06,0.31s0.19,0.13,0.2,0.23s-0.04,0.41-0.21,0.86
	c-0.17,0.45-1.03,2.5-1.03,2.5s-0.9,2.48-0.95,2.58s-0.38,0.49-0.43,0.63c-0.05,0.15-0.04,0.38-0.09,0.46
	c-0.05,0.08-0.65,0.14-0.74,0.14S12.1,45.7,12.01,45.66z"/>
<path class="st4" d="M11.57,47.95l-0.03,0.11c0,0-0.38,0.04-0.49-0.09s-0.02-0.17-0.02-0.17L11.57,47.95L11.57,47.95z"/>
<path id="skin-leg-r" class="st2" d="M14.4,35.68c0,0-0.18-0.64-0.28-0.81c-0.16-0.27-0.83-1.12-0.83-1.12l1.14-0.62
	c0,0,1.3-0.82,1.32-0.84s-0.19-0.57-0.17-0.55c0.03,0.02,0.33,0.41,0.37,0.41s0.33-0.19,0.33-0.19s0.41,0.78,0.55,1.17
	s0.25,0.72,0.27,0.88c0.01,0.16,0.03,0.6-0.02,0.87s-0.17,0.7-0.28,0.94s-0.27,0.5-0.27,0.5s-0.79-0.24-1.06-0.33
	S14.4,35.68,14.4,35.68z"/>
<path class="st0" d="M14.72,35.18c-0.04-0.06-0.13-0.25-0.13-0.37s-0.15-0.3-0.17-0.32c-0.02-0.03-0.02-0.1,0.05-0.1
	c0.07,0,0.47,0.26,0.55,0.35c0.08,0.09,0.12,0.53,0.08,0.54S14.77,35.24,14.72,35.18z"/>
<path id="player-shorts" class="st4" d="M3.43,28.21c0,0,0.15,0.55,0.21,0.94c0.06,0.42,0.14,1.57,0.13,1.99
	c-0.01,0.33,0.02,0.98,0.02,1.06s-0.02,0.08,0.08,0.11s0.32,0.09,0.59,0.1c0.28,0.01,0.93,0.09,1.39,0.09
	c0.45,0,1.43-0.02,1.69-0.02c0.21,0,1.13-0.03,1.19-0.03c0.06,0.01,0.08-0.02,0.1-0.12c0.02-0.09,0.23-1.05,0.19-1.14
	s-1.48-2.8-1.6-2.91s-1.05-0.56-1.15-0.54s-0.23,0.11-0.33,0.11s-0.26-0.05-0.31-0.08c-0.05-0.04,0.09-0.33,0.14-0.36
	c0.06-0.04,0.32-0.12,0.41-0.13s0.36,0.07,0.42,0.01s-0.32-0.45-0.39-0.52c-0.07-0.07-0.08-0.34-0.09-0.38
	c-0.01-0.04,0.11-0.29,0.18-0.28s0.16,0.17,0.19,0.21c0.02,0.04,0.09,0.19,0.18,0.32c0.09,0.13,0.37,0.28,0.48,0.41
	c0.11,0.13,0.42,0.43,0.48,0.45s0.61-0.11,0.84-0.17c0.23-0.06,0.35-0.16,0.57-0.27c0.22-0.11,0.41-0.22,0.6-0.27
	c0.19-0.04,0.47-0.15,0.51-0.06c0.04,0.09,0.08,0.21-0.08,0.39c-0.16,0.18-0.3,0.23-0.49,0.34c-0.18,0.11-0.41,0.24-0.62,0.28
	c-0.22,0.04-0.41,0.05-0.65,0.16c-0.24,0.11-0.46,0.19-0.43,0.26s1.29,2.44,1.6,2.93c0.27,0.44,1.9,2.79,1.97,2.9
	c0.07,0.1,0.09,0.08,0.27,0c0.25-0.11,0.45-0.24,0.88-0.45c0.43-0.21,1.04-0.54,1.49-0.79c0.36-0.2,0.91-0.58,1.12-0.72
	c0.13-0.07,0.06-0.14,0.06-0.14s-0.28-0.89-0.27-0.94s0.2-0.2,0.27-0.17c0.11,0.05,0.45,0.58,0.59,0.76
	c0.02,0.03,0.02,0.07,0.12,0.01c0.08-0.05,0.32-0.17,0.46-0.25c0.17-0.09,0.12-0.08,0.06-0.21c-0.05-0.12-0.54-0.91-0.81-1.38
	c-0.27-0.47-0.47-0.76-0.75-1.28s-0.58-1.07-0.83-1.49c-0.25-0.42-2-3.55-2.09-3.73c-0.08-0.19-0.3-0.49-0.29-0.56
	c0.01-0.07,0.04-0.31,0.04-0.46s-0.02-0.43-0.14-0.44s-0.38-0.01-0.64-0.06c-0.25-0.05-1.37-0.2-1.86-0.3s-1.61-0.35-1.83-0.35
	s-0.78,0-1.13,0.01s-1.74,0.01-1.86,0.06s-0.12,0.05-0.2,0.16s-0.12,0.22-0.02,0.28s2.14-0.03,2.39-0.02s0.58,0.08,0.7,0.14
	s0.21,0.17,0.2,0.22s0.04,0.09-0.01,0.13S7.11,22.07,7,22.07s-0.3-0.02-0.5-0.03s-2.28-0.06-2.37-0.05s-0.28-0.06-0.36,0.01
	s-0.2,0.23-0.22,0.31s-0.15,0.32-0.24,0.72s-0.25,1.25-0.28,1.89s-0.01,1.4,0.08,1.98S3.43,28.21,3.43,28.21z"/>
<path id="skin-face" class="st2" d="M14.43,4.89c0.04-0.06,0.54-0.2,0.61-0.24s0.17-0.24,0.19-0.31S15.27,4,15.28,3.93
	s0.09-0.16,0.16-0.23s0.31-0.28,0.31-0.28s0.14-0.12,0.23-0.15s0.17-0.05,0.22-0.02s0.13,0.25,0.11,0.3s-0.24,0.23-0.25,0.3
	c-0.01,0.06,0.03,0.25,0.02,0.33c-0.01,0.08-0.1,0.36-0.08,0.44s0.1,0.42,0.12,0.53s0.04,0.23,0.02,0.33s-0.27,0.59-0.33,0.76
	s-0.13,0.81-0.14,0.92c-0.01,0.11-0.09,0.48-0.09,0.48s-0.12,0.11-0.29,0.16s-0.34,0.01-0.46-0.07c-0.12-0.07-0.29-0.31-0.29-0.31
	s-0.18,0.27-0.29,0.49c-0.1,0.22-0.29,0.6-0.29,0.6s-0.7-0.14-0.95-0.2C12.73,8.26,12.1,8.07,11.93,8s-0.55-0.31-0.55-0.31
	l0.11-0.19c0,0,0.12-0.12,0.17-0.09s0.09,0.22,0.15,0.23S12,7.46,12.07,7.46c0.07,0,0.67,0.19,0.76,0.2
	c0.09,0.01,0.29-0.07,0.39-0.13s0.98-1.15,1.01-1.27C14.26,6.13,14.39,4.95,14.43,4.89z"/>
<path id="hair" class="st0" d="M10.32,4.28l0.02,0.67l0.16,0.59l0.37,0.69l-0.14,0.29l0.2,0.08l0.25,0.34l0.15,0.18
	c0.06,0,0.37-0.14,0.37-0.14l0.18,0.23c0,0,0.18-0.07,0.27-0.08c0.08,0,0.59,0.14,0.67,0.17c0.09,0.03,0.29-0.19,0.39-0.25
	c0.14-0.09,0.62-0.85,0.72-1c0.1-0.15,0.13-1.3,0.23-1.4c0.1-0.1,0.61-0.2,0.7-0.26c0.09-0.06,0.1-0.29,0.1-0.39
	c0-0.1,0.06-0.23,0.12-0.31c0.06-0.08,0.08-0.16,0.17-0.25c0.09-0.09,0.15-0.12,0.24-0.19c0.09-0.07,0.3-0.29,0.35-0.3
	c0.05,0,0.16-0.08,0.29-0.05c0.06,0.02,0.06-0.01,0.09-0.17c0.03-0.14,0.09-0.32,0.09-0.39c0.02-0.17-0.03-0.55-0.03-0.55
	l-0.44-0.33l-0.16-0.34l-0.86-0.05L14.7,0.8l-0.79-0.32l-0.72-0.02L11.78,0.9l-0.29,0.36l-0.33-0.05l-0.52,0.76l-0.58,0.86
	L9.93,3.05l0.16,0.09l0.11,0.44L9.97,4.06L10.32,4.28z"/>
</svg>
