<?xml version="1.0" encoding="utf-8"?>
<!-- Generator: Adobe Illustrator 16.0.4, SVG Export Plug-In . SVG Version: 6.00 Build 0)  -->
<!DOCTYPE svg PUBLIC "-//W3C//DTD SVG 1.1//EN" "http://www.w3.org/Graphics/SVG/1.1/DTD/svg11.dtd" [
	<!ENTITY ns_flows "http://ns.adobe.com/Flows/1.0/">
	<!ENTITY ns_extend "http://ns.adobe.com/Extensibility/1.0/">
	<!ENTITY ns_ai "http://ns.adobe.com/AdobeIllustrator/10.0/">
	<!ENTITY ns_graphs "http://ns.adobe.com/Graphs/1.0/">
]>
<svg version="1.1" id="Ebene_1" xmlns:x="&ns_extend;" xmlns:i="&ns_ai;" xmlns:graph="&ns_graphs;"
	 xmlns="http://www.w3.org/2000/svg" xmlns:xlink="http://www.w3.org/1999/xlink" xmlns:a="http://ns.adobe.com/AdobeSVGViewerExtensions/3.0/"
	 x="0px" y="0px" width="34.4px" height="49.96px" viewBox="0 0 34.4 49.96" style="enable-background:new 0 0 34.4 49.96;"
	 xml:space="preserve">
<style type="text/css">
<![CDATA[
	.st0{fill:#1A1A18;}
	.st1{fill-rule:evenodd;clip-rule:evenodd;fill:#1A1A18;}
	.st2{fill:#FFFFFF;}
	.st3{fill-rule:evenodd;clip-rule:evenodd;fill:#FBCDAA;}
	.st4{fill-rule:evenodd;clip-rule:evenodd;fill:#FFFFFF;}
	.st5{fill-rule:evenodd;clip-rule:evenodd;fill:#0068B4;}
]]>
</style>
<path class="st0" d="M0.6,25.59c0.03-0.17,0.18-0.42,0.31-0.59c0.17-0.23,0.41-0.34,0.58-0.52s0.67-0.44,0.77-0.58
	s0.8-1.58,0.99-2.03c0.18-0.45,1.63-3.5,1.77-3.69s0.88-1.23,1.19-1.69s0.77-1.02,0.98-1.31s0.48-0.8,0.48-0.8s-0.05-0.03-0.11-0.08
	s-0.01-0.16,0.05-0.23c0.18-0.22,0.58-0.71,0.75-0.97c0.23-0.33,0.91-1.27,1.27-1.73s0.84-1.15,1.01-1.31s0.45-0.42,0.75-0.67
	s0.6-0.47,1.07-0.67c0.46-0.19,0.91-0.32,1.2-0.43s0.65-0.21,0.65-0.21l-0.01-0.21l0.01-0.14l0.06-0.28l-0.13-0.15l-0.1-0.59
	l-0.36-0.22l-0.2-0.41l-0.05-0.44l-0.43-0.73l-0.02-0.48l-0.32-0.48l0.26-0.56l-0.25-0.58l0.21-0.1L13,2.36l0.29-0.62l0.45-0.62
	l0.42-0.16l0.13-0.17l0.59,0.02l0.67-0.33l0.82-0.25l0.12,0.12l0.81,0.06l0.27,0.24l0.16-0.13l0.47,0.48l0.46,0.4l0.75,1.22
	l-0.05,0.13l-0.08,0.51l0.38,0.54L19.3,4.1L19.26,4.9l-0.32,0.84l-0.18,0.56l-0.35,0.53l-0.11,0.36L18.12,7.3l0.03,0.31l0.04,0.21
	c0,0,0.6,0.06,0.98,0.14c0.22,0.05,0.72,0.12,1.08,0.23c0.24,0.07,0.78,0.25,1.19,0.48c0.31,0.18,1.01,0.72,1.27,0.91
	c0.26,0.19,0.82,0.66,1.09,0.88c0.27,0.22,1.07,0.92,1.23,1.06s0.78,0.75,1.02,0.98c0.15,0.14,0.48,0.52,0.55,0.58
	s0.11,0.13,0.04,0.21s-0.11,0.17-0.11,0.17l0.07,0.12c0,0,0.45,0.61,0.63,0.87s1.36,1.85,1.55,2.07s0.47,0.72,0.62,0.94
	s1.63,3.4,1.78,3.72c0.15,0.32,0.81,1.62,0.81,1.62s0.71,0.67,0.9,0.86s0.51,0.44,0.55,0.52c0.05,0.08,0.22,0.33,0.23,0.44
	c0.01,0.11,0.12,0.54,0.08,0.75c-0.04,0.21-0.27,0.66-0.32,0.69c-0.05,0.03-0.16,0.14-0.29,0.17c-0.12,0.03-0.76,0.06-0.88,0.05
	c-0.12-0.01-0.27-0.03-0.35-0.09c-0.08-0.06-0.12-0.23-0.14-0.32c-0.02-0.09-0.06-0.28,0.01-0.35c0.07-0.08,0.25-0.2,0.25-0.2
	s-0.17,0.05-0.34,0.01c-0.17-0.04-0.5-0.18-0.62-0.32c-0.12-0.14-0.38-0.72-0.41-0.81c-0.03-0.09-0.1-0.24-0.2-0.38
	c-0.1-0.14-0.53-0.72-0.8-1.06c-0.27-0.34-1.1-1.59-1.44-2.02s-0.98-1.24-1.26-1.6c-0.28-0.36-1.65-2.07-1.88-2.27
	S24.27,16,24.27,16l-0.09,0.08c0,0-0.58,0.53-0.65,0.61s-0.09,0.04-0.14-0.01c-0.09-0.09-0.26-0.25-0.37-0.37
	c-0.16-0.17-0.39-0.35-0.39-0.35l-0.1,0.95l0.03,1.77l0.14,2.36c0,0,0.03,0.15,0.16,0.32c0.13,0.16,0.15,0.32,0.16,0.47
	c0,0.15,0.01,0.29,0,0.41s0.22,0.41,0.3,0.51s0.23,0.31,0.45,0.66s0.68,0.98,0.96,1.47s1.04,1.91,1.27,2.31s1.01,1.94,1.27,2.46
	s1.02,2.18,1.19,2.62c0.04,0.09,0.05,0.16-0.03,0.22c-0.08,0.05-0.38,0.18-0.38,0.18l0.38,1.58c0,0,0.3,0.32,0.44,0.48
	c0.13,0.16,0.34,0.66,0.34,0.85c0,0.19,0.05,0.42,0.05,0.55s0.72,3.38,0.72,3.38l0.77,4.36l0.21,0.91c0,0,0.14,0,0.19,0.07
	c0.05,0.07,0.11,0.73,0.16,0.77c0.06,0.05,0.2-0.02,0.31,0.06s0.05,0.46,0.16,0.55c0.1,0.09,0.81,0.54,0.9,0.57s0.37,0.06,0.46,0.09
	c0.09,0.03,0.33-0.01,0.43,0.06c0.1,0.07,0.24,0.6,0.26,0.74c0.01,0.15-0.01,0.29-0.04,0.42c-0.03,0.12-0.36,0.52-0.36,0.52
	s0,0.23-0.02,0.31s-0.13,0.16-0.16,0.16s-0.09-0.08-0.09-0.08l-1.04,0.24c0,0-0.05,0.1-0.08,0.14s-0.14,0.04-0.19,0.02
	s-0.12-0.12-0.12-0.12l-0.88-0.01l-0.43,0.14c0,0,0.02,0.17-0.04,0.24s-0.18,0.04-0.26,0.03s-0.11-0.23-0.11-0.23l-0.33-0.03
	l-0.35-0.09c0,0-0.03,0.08-0.09,0.13c-0.06,0.05-0.1,0.04-0.17-0.02c-0.07-0.07-0.12-0.19-0.12-0.19l-0.19-0.12
	c0,0-0.08-0.04-0.16-0.12c-0.08-0.08-0.14-0.17-0.16-0.28c-0.03-0.11-0.02-0.25-0.01-0.41s0.05-0.38,0.05-0.55s0.05-0.41,0.03-0.59
	s-0.11-0.82-0.11-0.95s0.09-0.45,0.06-0.67s-0.04-0.69-0.17-1.13s-0.91-2.57-1.17-3.15c-0.26-0.58-0.51-1.12-0.85-2.16
	s-0.49-1.54-0.48-1.72c0.02-0.33,0.28-0.5,0.16-0.58s-0.13-0.4-0.13-0.4s-0.22-0.16-0.23-0.42c0-0.12,0.01-0.22-0.08-0.39
	c-0.14-0.29-0.21-0.48-0.42-0.65c-0.21-0.17-0.94-0.63-0.94-0.63s-0.53,0.2-0.89,0.31c-0.36,0.12-0.66,0.2-0.84,0.27
	s-0.24-0.03-0.32-0.17s-0.54-0.92-0.54-0.92s-1.93-3.33-2.18-3.73c-0.26-0.4-0.45-0.68-0.56-0.73c-0.12-0.05-0.48,0.05-0.63,0.08
	c-0.15,0.03-0.28-0.03-0.33,0.06s-1.28,1.83-1.61,2.36c-0.3,0.48-1.9,3.12-2.22,3.64c-0.09,0.14-0.12,0.17-0.25,0.11
	c-0.13-0.06-1.27-0.56-1.27-0.56s-0.28,0.17-0.62,0.45s-0.71,0.47-0.76,0.56s-0.21,0.26-0.24,0.43s-0.07,0.69-0.18,0.78
	c-0.16,0.14-0.31,0.25-0.31,0.25s-0.08,0.62-0.08,0.95c0,0.33-0.16,1.11-0.29,1.46s-1.87,4.56-1.95,4.76s-0.21,1.08-0.21,1.2
	s0.06,0.49,0.08,0.65c0.02,0.16-0.06,0.67-0.07,0.79s0.07,0.65,0.09,0.81s-0.03,0.79-0.07,0.84s-0.24,0.14-0.24,0.14
	s0.01,0.12-0.03,0.17s-0.12,0.09-0.19,0.08s-0.09-0.09-0.09-0.09l-0.2,0.06c0,0-0.03,0.15-0.07,0.18s-0.23,0.08-0.28,0.06
	S6.7,49.51,6.7,49.51l-0.58-0.03l-0.88-0.13l-0.17-0.02c0,0-0.06,0.15-0.13,0.17c-0.07,0.02-0.14-0.02-0.19-0.05
	s-0.01-0.17-0.01-0.17l-1.08-0.14c0,0-0.03,0.07-0.13,0.1s-0.14,0.01-0.22-0.05s-0.06-0.16-0.06-0.16l-0.65-0.18
	c0,0-0.03,0.07-0.11,0.05c-0.09-0.03-0.09-0.02-0.11-0.08c-0.02-0.1,0.01-0.18,0.01-0.18l-0.27-0.28c0,0-0.03,0.1-0.1,0.08
	c-0.07-0.01-0.07-0.03-0.09-0.12c-0.03-0.14-0.01-0.17-0.01-0.17s-0.14-0.56-0.12-0.84s0.37-0.37,0.47-0.38S2.81,47,2.9,46.97
	c0.09-0.03,0.83-0.28,0.92-0.34s0.57-0.62,0.67-0.69s0.3-0.02,0.38-0.06s0.29-0.53,0.36-0.68s1.1-5.55,1.21-6.22S6.93,37.31,7,37.06
	s0.39-0.86,0.45-0.92s-0.14-0.06-0.14-0.17c0-0.11,0.21-0.67,0.33-0.87s0.22-0.37,0.28-0.47s0.16-0.19,0.23-0.33s0.5-1.15,0.5-1.15
	s-0.18-0.12-0.28-0.17c-0.1-0.06-0.07-0.13-0.04-0.21c0.09-0.21,0.28-0.67,0.49-1.18c0.34-0.81,0.73-1.75,0.86-2.02
	c0.3-0.66,0.76-1.64,1.04-2.3s1.19-2.94,1.34-3.28s0.44-0.84,0.44-0.84s-0.1-0.28-0.09-0.55s0.14-0.49,0.25-0.65
	s0.08-0.47,0.08-0.78c0-0.31,0.01-0.52-0.04-0.93s-0.2-1.85-0.26-2.39s-0.27-1.58-0.27-1.58s0.02-0.19-0.07-0.15
	c-0.07,0.03-0.42,0.59-0.48,0.69s-0.14,0.08-0.23,0.02c-0.1-0.06-0.75-0.43-0.75-0.43s-0.09,0.06-0.34,0.26s-0.78,0.73-1.09,1.06
	s-1.61,1.93-1.88,2.27s-1.01,1.27-1.26,1.6s-1.27,1.7-1.46,1.96s-0.67,0.96-0.74,1.06c-0.07,0.1-0.19,0.3-0.27,0.5
	c-0.05,0.13-0.32,0.56-0.42,0.69c-0.1,0.13-0.47,0.34-0.56,0.35c-0.09,0.01-0.19-0.01-0.26,0.02c-0.07,0.03,0.17,0.14,0.18,0.27
	c0.01,0.12,0.02,0.15-0.01,0.25c-0.04,0.1-0.08,0.28-0.16,0.36c-0.08,0.08-0.14,0.09-0.36,0.11c-0.34,0.03-0.59-0.02-0.7-0.03
	C1.2,27.13,1,27.1,0.86,26.91c-0.13-0.19-0.28-0.58-0.28-0.78C0.58,25.93,0.57,25.76,0.6,25.59z"/>
<path id="skin-arm-r" class="st3" d="M32.25,25.87c-0.06,0-0.07-0.11-0.01-0.15s0.26-0.1,0.34-0.12s0.24-0.05,0.27-0.12
	s-0.01-0.22-0.06-0.29s-0.1-0.25-0.2-0.27s-0.59,0.02-0.68,0s-0.31-0.09-0.45-0.22s-0.27-0.44-0.35-0.57s-0.1-0.24-0.2-0.38
	s-0.47-0.6-0.71-0.98s-1.71-2.47-2.16-3.05s-2.17-2.75-2.46-3.05c-0.29-0.31-0.98-0.94-0.98-0.94l0.45-0.49l0.38-0.45l0.84-0.99
	l0.57,0.84l1.1,1.41c0,0,0.73,0.99,1.01,1.43s1.62,3.26,1.62,3.26l1.05,2.23c0,0,0.11,0.26,0.2,0.34s0.83,0.67,0.96,0.76
	s0.46,0.41,0.52,0.59s0.05,0.58,0.04,0.71s-0.21,0.42-0.27,0.47s-0.11,0-0.28,0.01S32.31,25.87,32.25,25.87z"/>
<path class="st1" d="M26.54,16.72c-0.03-0.12,0.21-0.5,0.32-0.57s0.33-0.1,0.36-0.03s0.07,0.27,0.03,0.36
	c-0.04,0.1-0.23,0.38-0.34,0.39C26.8,16.88,26.57,16.84,26.54,16.72z"/>
<path id="skin-arm-l" class="st3" d="M2.08,26.75c0.08,0,0.07-0.1,0.01-0.15s-0.26-0.09-0.34-0.12s-0.24-0.03-0.27-0.12
	s0.04-0.24,0.06-0.29s0.09-0.26,0.2-0.27s0.57,0.02,0.68,0s0.31-0.08,0.45-0.22S3.18,25.1,3.22,25s0.1-0.23,0.2-0.38
	s0.37-0.53,0.62-0.9C4.28,23.36,6,20.95,6.3,20.59s2.34-2.92,2.46-3.05s0.82-0.82,0.91-0.91s0.59-0.52,0.59-0.52l-1.09-0.73
	l-1.09-0.71c0,0-0.4,0.57-0.59,0.81s-0.9,1.15-1.08,1.43s-0.85,1.17-1.01,1.43s-1.45,2.85-1.62,3.26c-0.17,0.41-0.99,2.12-1.05,2.23
	s-0.17,0.31-0.27,0.38c-0.1,0.07-0.73,0.54-0.89,0.72s-0.45,0.42-0.52,0.59s-0.09,0.56-0.04,0.71s0.19,0.46,0.27,0.47
	s0.16,0,0.28,0.01S2,26.75,2.08,26.75z"/>
<path class="st1" d="M7.8,17.59c0.04-0.1-0.2-0.49-0.33-0.57s-0.3-0.1-0.36-0.03s-0.04,0.25-0.03,0.36s0.18,0.37,0.34,0.39
	S7.76,17.7,7.8,17.59z"/>
<path id="player-jersey" class="st5" d="M24.17,15.37c0,0-0.45,0.47-0.56,0.56c-0.09,0.07-0.11,0.03-0.2-0.08s-0.6-0.65-0.78-0.84
	c-0.18-0.19-0.5-0.53-0.63-0.66c-0.14-0.13-0.32-0.37-0.4-0.35c-0.08,0.02-0.28,0.23-0.28,0.33c-0.01,0.1,0.39,0.34,0.47,0.45
	c0.07,0.11,0.32,0.33,0.33,0.45c0.01,0.12-0.06,1.67-0.06,1.94c0,0.27,0.06,1.93,0.06,2.23c0,0.38,0.02,1.18,0.05,1.49
	c0.02,0.14-0.06,0.2-0.28,0.25c-0.21,0.05-1.41,0.27-2.28,0.39s-1.94,0.25-2.47,0.29c-0.53,0.04-1.86,0.12-2.3,0.12
	s-1.36-0.04-1.47-0.08s-0.14-0.09-0.14-0.23c0-0.2,0.03-0.51,0-0.91s-0.19-2.17-0.26-2.58s-0.21-1.74-0.27-2.04s-0.1-0.48-0.12-0.63
	s0.44-1.11,0.43-1.24s-0.09-0.22-0.2-0.19s-0.29,0.35-0.4,0.52s-0.32,0.51-0.44,0.73c-0.1,0.18-0.42,0.7-0.55,0.89
	c-0.03,0.04-0.06,0.04-0.16-0.01c-0.14-0.08-0.25-0.13-0.59-0.35c-0.27-0.17-1.22-0.81-1.63-1.08c-0.31-0.21-0.76-0.53-0.82-0.58
	s0.1-0.27,0.02-0.17c-0.08,0.1,0.5-0.61,0.8-1.02s0.81-1.06,1.11-1.51s0.73-1.05,0.95-1.28c0.22-0.23,0.83-0.66,1.2-0.9
	s0.94-0.43,1.19-0.53s0.69-0.17,1.01-0.22c0.32-0.05,1.12-0.1,1.12-0.1l0.86-0.09l1.46-0.06c0,0,0.47-0.02,0.8,0.03
	s0.8,0.13,1.12,0.22c0.33,0.09,0.97,0.3,1.28,0.48c0.3,0.18,1.72,1.27,2.04,1.55c0.32,0.27,0.99,0.87,1.3,1.14
	c0.27,0.24,0.81,0.74,0.98,0.91c0.13,0.13,0.37,0.38,0.48,0.5c0.04,0.04,0.06,0.08-0.01,0.16s-0.9,1.09-0.9,1.09L24.17,15.37z"/>
<path class="st1" d="M17.01,17.48c-0.06-0.16,0.17-0.91,0.17-1.16s0.05-1.31-0.03-1.54s-0.43-1.37-0.41-1.54s0.17-1.06,0.17-1.16
	s-0.04-0.35-0.01-0.39s0.15-0.09,0.19,0s0.17,2.31,0.24,2.51s0.39,1.06,0.41,1.34c0.02,0.29-0.07,2.46-0.15,2.51
	S17.01,17.48,17.01,17.48S17.07,17.64,17.01,17.48z"/>
<path id="skin-leg-r" class="st3" d="M26.01,35.06c0,0-0.15-0.34-0.19-0.46c-0.04-0.13,0-0.19,0.05-0.23
	c0.04-0.05,0.1-0.19,0.09-0.23c-0.01-0.05-0.06-0.22-0.12-0.19c-0.06,0.03-0.39,0.49-0.49,0.49c-0.1,0.01-0.62-0.32-0.62-0.32
	s0.89-0.41,1.12-0.5s0.82-0.36,1.06-0.47c0.24-0.11,0.66-0.28,0.66-0.28l0.33,1.29l0.02,0.16c0,0-0.62,0.26-1.02,0.41
	S26.01,35.06,26.01,35.06z"/>
<path id="skin-leg-l" class="st3" d="M10.77,34.2c0.3,0.16,1.3,0.62,1.3,0.62l-0.48,0.3l-0.74,0.57l-1.09-0.57L8.61,34.6
	l0.49-1.26c0,0,0.36,0.21,0.59,0.32S10.51,34.06,10.77,34.2z"/>
<path id="player-sock-l" class="st5" d="M10.25,36.88c-0.09,0.16-0.84-0.28-0.98-0.33s-0.19-0.12-0.31-0.08s-0.28,0.03-0.14,0.3
	s0.79,0.73,0.79,0.73s0.15,0,0.13,0.32c-0.02,0.31,0.05,0.78-0.07,1.38s-0.51,1.42-0.73,1.97s-0.96,2.27-1.05,2.55
	s-0.29,0.77-0.35,0.98s-0.18,1.07-0.21,1.15s-0.22-0.28-0.35-0.31s-1.29,1.03-1.4,1c-0.11-0.03-0.1-0.43-0.09-0.57
	s0.2-0.45,0.25-0.59s0.13-0.67,0.21-1.12s0.45-2.29,0.52-2.7c0.07-0.41,0.56-2.92,0.67-3.27c0.11-0.35,0.55-1.47,0.71-1.74
	s0.47-0.49,0.39-0.39s0.05-0.17-0.03-0.19c-0.08-0.02-0.2-0.06-0.22-0.16s0.1-0.33,0.17-0.46s0.24-0.38,0.35-0.34
	S9.8,35.57,10,35.68c0.2,0.11,0.51,0.28,0.52,0.34c0.01,0.07-0.19,0.25-0.2,0.44S10.3,36.77,10.25,36.88z"/>
<path class="st4" d="M6.64,49.02l-0.19,0.03c0,0,0.03-0.1,0.15-0.19s0.09-0.08,0.2-0.06c0.11,0.03,0.06,0.14,0.03,0.19
	S6.64,49.02,6.64,49.02L6.64,49.02z"/>
<path class="st2" d="M30.3,48.7l-0.89-0.11c0,0,0.23-0.23,0.39-0.19C29.96,48.43,30.3,48.7,30.3,48.7L30.3,48.7z"/>
<path id="player-sock-r" class="st5" d="M26.27,36.27c0.05,0.08-0.05,0.24,0.07,0.28c0.12,0.04,0.8-0.38,0.89-0.3
	c0.09,0.08,0.11,0.06,0.05,0.19c-0.07,0.12-0.84,0.67-0.91,0.94c-0.07,0.26,0.07,0.6,0.26,1.2c0.18,0.6,1.12,2.87,1.28,3.27
	s0.84,2.42,0.89,2.62s0.07,1.16,0.15,1.23c0.08,0.07,0.29-0.48,0.38-0.47c0.08,0.01,0.87,0.59,0.96,0.59c0.09,0,0.16-0.66,0.16-0.91
	c0-0.26-0.3-1.86-0.36-2.26c-0.06-0.4-0.25-1.28-0.42-2.12s-0.83-4.09-0.88-4.19c-0.05-0.1-0.34-0.04-0.45-0.07
	c-0.11-0.03-0.02-0.32,0-0.39c0.02-0.08,0.27-0.04,0.34-0.19s-0.04-0.29-0.13-0.45c-0.1-0.16-0.3-0.36-0.4-0.34s-0.8,0.3-0.8,0.3
	s-1,0.34-1.12,0.43c-0.12,0.08-0.15,0.27-0.15,0.41C26.08,36.15,26.22,36.18,26.27,36.27z"/>
<path id="player-shorts" class="st4" d="M12.48,24.21c0,0,0.29-0.66,0.47-0.72s1.04-0.05,1.18-0.06c0.23-0.02,0.32,0,0.44-0.08
	c0.11-0.08,0.15-0.26,0.08-0.3c-0.11-0.06-0.5-0.05-0.64-0.06c-0.27-0.02-0.62-0.02-0.8-0.06c-0.18-0.04-0.13-0.28-0.17-0.35
	s0.06-0.25,0.17-0.26c0.11-0.01,0.88,0.01,1.54,0.03s1.75-0.05,2.47-0.11c0.72-0.05,1.59-0.17,2.43-0.29s2.51-0.44,2.62-0.43
	c0.08,0.01,0.21,0.09,0.23,0.2c0.03,0.11,0.01,0.29-0.06,0.39s-1.8,0.21-1.85,0.33s-0.09,0.25,0,0.32s0.21,0.12,0.4,0.12
	s1.61-0.27,1.71-0.18s0.49,0.61,0.6,0.75c0.1,0.14,0.53,0.76,0.81,1.22s0.72,1.26,0.94,1.66s0.77,1.36,0.96,1.71s0.82,1.6,1.02,2.04
	s0.7,1.58,0.84,1.89c0.04,0.08,0.05,0.14-0.05,0.2c-0.09,0.06-0.38,0.21-0.63,0.31c-0.26,0.11-1.08,0.5-1.71,0.78
	s-1.55,0.66-1.86,0.77c-0.29,0.1-0.88,0.3-1.03,0.34s-0.19-0.02-0.28-0.19c-0.03-0.06-0.26-0.49-0.66-1.19
	c-0.94-1.64-2.21-3.69-2.17-3.77s0.69-0.47,0.97-0.66s0.91-0.81,0.89-0.87s-0.2-0.06-0.27-0.06s-0.71,0.36-0.97,0.53
	c-0.26,0.17-0.93,0.47-1.03,0.5c-0.1,0.03-0.36,0.03-0.5,0.07s-0.32,0.1-0.53,0.11c-0.21,0.01-1.25-0.27-1.71-0.38
	c-0.47-0.1-1.01-0.2-1.12-0.15s-0.04,0.14,0.02,0.19s0.19,0.24,0.71,0.39s1.39,0.35,1.35,0.43s-0.29,0.44-0.47,0.7
	c-0.18,0.27-0.89,1.28-1.2,1.84s-1.72,2.86-1.79,2.99c-0.07,0.13-0.07,0.16-0.23,0.1c-0.28-0.12-0.95-0.42-1.43-0.63
	c-0.62-0.28-1.72-0.81-2.16-1.05s-0.89-0.49-1.03-0.58c-0.14-0.09-0.05-0.22-0.05-0.22L12.48,24.21z"/>
<path id="skin-neck" class="st3" d="M14.83,8.07c0,0-0.02-0.12,0-0.22s0.05-0.2,0.05-0.2s0.35,0,0.52-0.02s0.58-0.07,0.64-0.07
	s0.13,0.25,0.18,0.25c0.06-0.01,0.15-0.24,0.21-0.25s0.16-0.04,0.27-0.05c0.11-0.02,0.3-0.03,0.52-0.03s0.48,0,0.48,0l0.05,0.41
	c0,0-0.41-0.02-0.7,0s-0.57,0.04-0.82,0.07c-0.2,0.02-0.68,0.08-0.85,0.09S14.83,8.07,14.83,8.07z"/>
<polygon id="hair" class="st1" points="18.91,3.23 18.98,2.74 19,2.64 18.5,1.77 18.13,1.4 17.65,0.95 17.51,1.06 17.14,0.74 
	16.39,0.7 16.28,0.6 15.55,0.87 14.96,1.16 14.45,1.14 14.34,1.29 13.97,1.43 13.58,1.97 13.33,2.52 13.33,2.88 13.14,2.97 
	13.35,3.45 13.12,3.94 13.4,4.36 13.42,4.78 13.83,5.53 13.87,5.92 14.05,6.28 14.46,6.52 14.5,6.8 14.63,7.15 14.86,7.3 
	15.49,7.28 16.02,7.2 16.2,7.35 16.41,7.17 16.6,7.15 17.66,7.08 17.99,6.99 18.08,6.63 18.46,6.19 18.66,5.59 18.94,4.84 
	18.95,3.91 19.2,3.69 "/>
</svg>
