<?xml version="1.0" encoding="utf-8"?>
<!-- Generator: Adobe Illustrator 16.0.4, SVG Export Plug-In . SVG Version: 6.00 Build 0)  -->
<!DOCTYPE svg PUBLIC "-//W3C//DTD SVG 1.1//EN" "http://www.w3.org/Graphics/SVG/1.1/DTD/svg11.dtd">
<svg version="1.1" id="Ebene_1" xmlns="http://www.w3.org/2000/svg" xmlns:xlink="http://www.w3.org/1999/xlink" x="0px" y="0px"
	 width="30.678px" height="48.354px" viewBox="0 0 30.678 48.354" enable-background="new 0 0 30.678 48.354" xml:space="preserve">
<path fill="#1A1A18" d="M29.882,24.906c-0.027-0.162-0.159-0.396-0.272-0.559c-0.149-0.215-0.355-0.323-0.506-0.485
	c-0.15-0.162-0.589-0.412-0.671-0.544c-0.083-0.132-0.706-1.486-0.866-1.912c-0.16-0.425-1.428-3.293-1.547-3.469
	c-0.119-0.176-0.77-1.162-1.039-1.588c-0.271-0.426-0.675-0.956-0.863-1.235c-0.188-0.279-0.42-0.75-0.42-0.75
	s0.039-0.03,0.096-0.073c0.055-0.043,0.007-0.154-0.042-0.219c-0.158-0.208-0.545-0.674-0.699-0.912
	c-0.202-0.312-0.824-1.175-1.141-1.609c-0.317-0.436-0.878-1.227-1.016-1.391c-0.328-0.391-1.267-0.974-1.672-1.156
	c-0.406-0.182-1.336-0.553-1.336-0.553l-0.243-0.103c0.071-0.081-0.048-0.009,0.167-0.475c0.186-0.406,0.297-0.531,0.297-0.531
	s0.285-0.189,0.375-0.281c0.156-0.163,0.227-0.469,0.281-0.625c0.055-0.158,0.01-0.531,0.01-0.672c0-0.102-0.135-0.185-0.135-0.185
	s0.145-0.528,0.23-0.946c0.088-0.419,0.102-0.689,0.111-1.059c0.008-0.37-0.18-1.076-0.5-1.457
	c-0.146-0.196-0.307-0.361-0.602-0.509c-0.127-0.063-0.497-0.234-0.668-0.282c-0.01-0.047-0.189-0.254-0.484-0.438
	c-0.305-0.191-1.039-0.215-1.391,0.016c-0.377,0.248-0.469,0.484-0.469,0.484s-0.857,0.458-1.172,0.906
	c-0.145,0.205-0.381,0.529-0.438,1.062c-0.051,0.475-0.016,1.031,0.219,1.844l0.062,0.484c0,0-0.109-0.004-0.172,0.156
	C13.304,6,13.281,6.118,13.327,6.295c0.047,0.176,0.152,0.621,0.328,0.766c0.176,0.143,0.328,0.281,0.328,0.281
	s0.188,0.25,0.328,0.641c0.027,0.077,0.054,0.16,0.084,0.218c-0.144,0.017-0.268,0.135-0.532,0.194
	c-0.196,0.044-0.794,0.101-1.109,0.203c-0.207,0.068-0.848,0.342-1.203,0.562c-0.271,0.168-0.865,0.62-1.094,0.797
	s-0.685,0.607-0.922,0.812c-0.237,0.205-0.79,0.69-0.938,0.828c-0.147,0.138-0.775,0.77-0.984,0.984
	c-0.13,0.132-0.452,0.503-0.514,0.554c-0.061,0.052-0.094,0.123-0.034,0.199c0.06,0.077,0.096,0.162,0.096,0.162l-0.065,0.117
	c0,0-0.393,0.573-0.554,0.816c-0.162,0.243-1.194,1.738-1.355,1.946c-0.161,0.208-0.414,0.674-0.548,0.882
	c-0.133,0.208-1.427,3.203-1.561,3.499c-0.133,0.296-0.712,1.529-0.712,1.529s-0.618,0.633-0.793,0.81
	c-0.174,0.177-0.442,0.412-0.484,0.486c-0.041,0.074-0.19,0.308-0.2,0.412c-0.011,0.103-0.107,0.506-0.072,0.701
	c0.035,0.196,0.231,0.621,0.277,0.651s0.141,0.131,0.251,0.161c0.109,0.03,0.664,0.059,0.77,0.044
	c0.105-0.014,0.236-0.03,0.308-0.088s0.105-0.214,0.123-0.297s0.055-0.261-0.01-0.334c-0.065-0.072-0.222-0.191-0.222-0.191
	s0.147,0.042,0.294,0.007c0.147-0.036,0.44-0.169,0.54-0.301c0.1-0.131,0.332-0.677,0.359-0.764
	c0.028-0.088,0.088-0.221,0.174-0.353c0.087-0.132,0.461-0.677,0.698-1c0.237-0.323,0.962-1.496,1.263-1.901
	c0.301-0.406,0.861-1.171,1.101-1.509c0.24-0.337,1.445-1.952,1.644-2.137c0.198-0.186,0.761-0.795,0.761-0.795l0.076,0.074
	c0,0,0.479,0.355,0.541,0.434c0.061,0.079,0.082,0.034,0.12-0.005c0.081-0.086,0.279-0.289,0.375-0.396
	c0.14-0.156,0.479-0.458,0.479-0.458s0.088,0.083,0.109,0.625s0.015,2.036,0,2.828c-0.016,0.844-0.149,1.668-0.149,1.668
	s-0.024,0.146-0.141,0.298s-0.133,0.301-0.136,0.441c-0.004,0.14-0.008,0.279-0.004,0.39c0.004,0.11-0.195,0.389-0.26,0.477
	c-0.03,0.042-0.283,0.377-0.586,0.856c-0.351,0.555-0.868,1.398-0.979,1.604c-0.208,0.383-1.652,3.174-1.875,3.667
	c-0.222,0.492-1.088,2.381-1.239,2.793c-0.031,0.084-0.045,0.154,0.027,0.205c0.072,0.053,0.33,0.171,0.33,0.171l-0.331,1.487
	c0,0-0.269,0.301-0.387,0.453c-0.119,0.153-0.294,0.617-0.296,0.801c-0.003,0.182-0.042,0.396-0.042,0.514
	c0,0.118-0.626,3.185-0.626,3.185l-0.678,4.103l-0.183,0.856c0,0-0.123,0.005-0.167,0.069s-0.094,0.686-0.144,0.728
	c-0.05,0.042-0.177-0.024-0.271,0.054c-0.095,0.077-0.048,0.433-0.14,0.52c-0.092,0.087-0.714,0.51-0.793,0.533
	s-0.32,0.057-0.398,0.084c-0.078,0.028-0.293-0.014-0.379,0.058c-0.085,0.071-0.214,0.563-0.223,0.7
	c-0.01,0.139,0.006,0.278,0.032,0.393c0.027,0.113,0.318,0.492,0.318,0.492s0.003,0.219,0.013,0.287s0.113,0.152,0.144,0.154
	c0.03,0.002,0.082-0.071,0.082-0.071l0.914,0.226c0,0,0.041,0.094,0.072,0.133s0.12,0.034,0.164,0.021
	c0.044-0.012,0.103-0.109,0.103-0.109l0.773-0.006l0.376,0.131c0,0-0.017,0.164,0.038,0.223c0.055,0.059,0.158,0.039,0.229,0.027
	c0.072-0.014,0.097-0.218,0.097-0.218l0.288-0.026l0.302-0.084c0,0,0.027,0.07,0.082,0.119s0.087,0.043,0.146-0.021
	c0.059-0.062,0.1-0.176,0.1-0.176l0.167-0.112c0,0,0.071-0.035,0.144-0.11c0.072-0.076,0.119-0.161,0.144-0.265
	c0.025-0.105,0.018-0.234,0.007-0.391c-0.01-0.156-0.045-0.359-0.041-0.515s-0.044-0.388-0.027-0.559
	c0.018-0.171,0.093-0.771,0.095-0.897c0.004-0.126-0.078-0.42-0.05-0.625c0.027-0.207,0.034-0.645,0.146-1.065
	c0.113-0.42,0.799-2.417,1.024-2.962c0.225-0.546,0.448-1.057,0.747-2.029c0.3-0.971,0.431-1.445,0.423-1.618
	c-0.014-0.31-0.247-0.468-0.144-0.543c0.102-0.075,0.119-0.374,0.119-0.374s0.192-0.153,0.203-0.392
	c0.005-0.107-0.005-0.208,0.068-0.368c0.127-0.275,0.183-0.452,0.365-0.607c0.183-0.156,0.826-0.598,0.826-0.598
	s0.467,0.186,0.78,0.295c0.312,0.108,0.575,0.19,0.739,0.25c0.164,0.059,0.212-0.023,0.278-0.159
	c0.064-0.136,0.478-0.869,0.478-0.869s1.686-3.134,1.909-3.508c0.224-0.375,0.393-0.64,0.493-0.684
	c0.1-0.044,0.417,0.044,0.551,0.074c0.136,0.029,0.247-0.029,0.289,0.059c0.04,0.088,1.121,1.72,1.409,2.22
	c0.259,0.449,1.664,2.933,1.945,3.426c0.081,0.131,0.107,0.16,0.219,0.102c0.109-0.057,1.107-0.528,1.107-0.528
	s0.246,0.161,0.549,0.427c0.301,0.264,0.622,0.443,0.666,0.523c0.045,0.078,0.189,0.24,0.213,0.402s0.064,0.646,0.16,0.734
	c0.141,0.129,0.273,0.236,0.273,0.236s0.072,0.582,0.069,0.896c-0.004,0.314,0.144,1.046,0.256,1.375
	c0.113,0.33,1.64,4.287,1.704,4.478c0.065,0.189,0.182,1.016,0.186,1.124c0.003,0.109-0.055,0.461-0.074,0.607
	c-0.019,0.148,0.05,0.627,0.064,0.748c0.013,0.121-0.064,0.609-0.08,0.762c-0.017,0.153,0.029,0.744,0.062,0.794
	c0.031,0.05,0.211,0.136,0.211,0.136s-0.009,0.115,0.022,0.162s0.106,0.086,0.164,0.074c0.059-0.013,0.079-0.085,0.079-0.085
	l0.178,0.06c0,0,0.027,0.141,0.058,0.172c0.031,0.031,0.202,0.071,0.246,0.059c0.045-0.012,0.069-0.117,0.069-0.117l0.51-0.027
	l0.774-0.127l0.152-0.021c0,0,0.055,0.146,0.113,0.163s0.123-0.015,0.164-0.044s0.008-0.158,0.008-0.158l0.945-0.133
	c0,0,0.026,0.065,0.111,0.098c0.086,0.031,0.119,0.012,0.191-0.045s0.055-0.146,0.055-0.146l0.567-0.173
	c0,0,0.023,0.067,0.093,0.042c0.082-0.029,0.082-0.014,0.093-0.075c0.017-0.097-0.006-0.166-0.006-0.166l0.235-0.263
	c0,0,0.031,0.091,0.088,0.078c0.059-0.012,0.064-0.025,0.084-0.117c0.027-0.133,0.008-0.16,0.008-0.16s0.119-0.528,0.104-0.795
	c-0.016-0.266-0.326-0.351-0.411-0.352c-0.085-0.002-0.479,0.066-0.556,0.039c-0.076-0.026-0.729-0.262-0.807-0.32
	c-0.078-0.059-0.5-0.584-0.59-0.652c-0.089-0.068-0.262-0.016-0.333-0.057s-0.256-0.494-0.313-0.643
	c-0.059-0.148-0.963-5.22-1.059-5.852c-0.096-0.633-0.424-1.574-0.492-1.809c-0.068-0.236-0.342-0.809-0.397-0.867
	c-0.054-0.06,0.127-0.059,0.124-0.162c-0.004-0.104-0.185-0.63-0.291-0.814c-0.105-0.186-0.195-0.344-0.246-0.441
	c-0.052-0.097-0.141-0.182-0.206-0.309c-0.064-0.126-0.435-1.082-0.435-1.082s0.16-0.109,0.246-0.162
	c0.087-0.051,0.062-0.121,0.034-0.193c-0.077-0.198-0.244-0.631-0.432-1.109c-0.297-0.762-0.644-1.645-0.751-1.901
	c-0.261-0.618-0.664-1.545-0.908-2.162c-0.242-0.617-1.18-2.789-1.312-3.112c-0.134-0.323-0.383-0.794-0.383-0.794
	s0.09-0.26,0.081-0.52c-0.01-0.259-0.154-0.462-0.25-0.609s-0.047-1.002-0.047-1.297c0.062-1.312,0.183-2.433,0.266-2.938
	c0.125-0.766,0.193-1.429,0.271-1.396c0.062,0.027,0.547,0.729,0.6,0.816c0.051,0.088,0.118,0.076,0.202,0.024
	c0.085-0.053,0.657-0.403,0.657-0.403s0.078,0.058,0.3,0.241c0.224,0.182,0.682,0.686,0.958,1c0.277,0.314,1.406,1.813,1.643,2.137
	c0.236,0.324,0.885,1.194,1.102,1.509c0.216,0.314,1.113,1.6,1.28,1.847c0.168,0.247,0.587,0.903,0.647,0.997
	c0.059,0.093,0.164,0.279,0.231,0.47c0.046,0.126,0.279,0.527,0.366,0.646c0.086,0.119,0.408,0.322,0.486,0.331
	c0.078,0.008,0.168-0.009,0.227,0.021c0.058,0.03-0.152,0.133-0.161,0.251c-0.011,0.118-0.021,0.145,0.009,0.234
	c0.031,0.089,0.075,0.265,0.141,0.339c0.066,0.075,0.126,0.084,0.314,0.104c0.297,0.029,0.514-0.023,0.617-0.029
	c0.102-0.008,0.28-0.027,0.396-0.206c0.116-0.18,0.242-0.545,0.246-0.735C29.899,25.229,29.909,25.068,29.882,24.906z"/>
<path id="skin-arm-l" fill-rule="evenodd" clip-rule="evenodd" fill="#F9CAA9" d="M2.156,25.174c0.051-0.003,0.064-0.107,0.01-0.143
	c-0.055-0.037-0.226-0.096-0.298-0.11c-0.072-0.014-0.208-0.044-0.236-0.11c-0.028-0.066,0.007-0.207,0.051-0.276
	s0.085-0.232,0.174-0.254c0.089-0.021,0.513,0.022,0.596,0c0.082-0.021,0.273-0.088,0.389-0.209c0.117-0.121,0.24-0.416,0.308-0.541
	c0.069-0.124,0.09-0.229,0.175-0.353c0.085-0.124,0.415-0.566,0.626-0.926c0.212-0.36,1.499-2.327,1.896-2.873
	c0.396-0.545,1.9-2.586,2.155-2.874c0.254-0.288,0.859-0.884,0.859-0.884l-0.39-0.463L8.144,14.74l-0.732-0.934l-0.503,0.789
	L5.942,15.92c0,0-0.642,0.929-0.881,1.348c-0.239,0.419-1.417,3.065-1.417,3.065L2.72,22.428c0,0-0.096,0.25-0.175,0.32
	c-0.078,0.07-0.729,0.628-0.841,0.717c-0.113,0.088-0.408,0.382-0.452,0.551s-0.044,0.543-0.031,0.673
	c0.014,0.128,0.185,0.4,0.236,0.441c0.051,0.041,0.1-0.004,0.247,0.011S2.104,25.177,2.156,25.174z"/>
<path fill-rule="evenodd" clip-rule="evenodd" fill="#1A1A18" d="M7.161,16.563c0.028-0.11-0.187-0.474-0.284-0.535
	c-0.098-0.061-0.29-0.091-0.317-0.024c-0.027,0.066-0.061,0.25-0.023,0.342c0.037,0.092,0.199,0.359,0.297,0.366
	C6.929,16.717,7.133,16.674,7.161,16.563z"/>
<path id="skin-arm-r" fill-rule="evenodd" clip-rule="evenodd" fill="#F9CAA9" d="M28.583,25.997
	c-0.068-0.003-0.062-0.092-0.011-0.143c0.052-0.052,0.229-0.082,0.298-0.11c0.069-0.029,0.212-0.03,0.236-0.11
	c0.024-0.081-0.03-0.221-0.052-0.276c-0.02-0.054-0.082-0.247-0.174-0.253s-0.496,0.021-0.596,0s-0.27-0.074-0.391-0.21
	c-0.119-0.135-0.276-0.445-0.307-0.54c-0.031-0.095-0.086-0.214-0.176-0.353c-0.088-0.139-0.324-0.5-0.54-0.845
	c-0.216-0.346-1.72-2.614-1.981-2.954c-0.264-0.34-2.049-2.747-2.155-2.874c-0.106-0.126-0.716-0.771-0.794-0.853
	c-0.079-0.083-0.521-0.485-0.521-0.485l0.952-0.689l0.955-0.672c0,0,0.353,0.539,0.52,0.765c0.169,0.227,0.789,1.082,0.95,1.35
	c0.159,0.268,0.74,1.105,0.881,1.348c0.141,0.243,1.27,2.683,1.417,3.065c0.146,0.383,0.865,2,0.923,2.096
	c0.059,0.095,0.147,0.29,0.236,0.36c0.09,0.07,0.645,0.514,0.781,0.676s0.396,0.396,0.451,0.551s0.075,0.528,0.031,0.672
	c-0.045,0.145-0.168,0.43-0.236,0.441s-0.137-0.004-0.246,0.012C28.926,25.979,28.651,26,28.583,25.997z"/>
<path fill-rule="evenodd" clip-rule="evenodd" fill="#1A1A18" d="M23.577,17.387c-0.031-0.097,0.177-0.458,0.284-0.535
	c0.109-0.076,0.267-0.091,0.318-0.025c0.051,0.066,0.035,0.235,0.022,0.342s-0.157,0.344-0.297,0.365
	C23.765,17.555,23.607,17.483,23.577,17.387z"/>
<path id="player-shirt" fill-rule="evenodd" clip-rule="evenodd" fill="#0068B4" d="M9.229,15.291c0,0,0.397,0.441,0.493,0.529
	c0.077,0.07,0.096,0.029,0.178-0.073c0.082-0.104,0.525-0.615,0.68-0.792c0.154-0.178,0.434-0.499,0.555-0.618
	c0.12-0.119,0.275-0.351,0.348-0.331c0.073,0.021,0.242,0.215,0.248,0.309c0.004,0.094-0.348,0.317-0.411,0.419
	c-0.064,0.102-0.092,0.089-0.101,0.198c-0.01,0.109,0.021,1.725,0.021,1.979c0,0.781,0.031,1.812-0.031,2.75
	c-0.024,0.356-0.02,0.56-0.048,0.854c-0.012,0.135,0.059,0.185,0.247,0.235s1.052,0.217,1.818,0.334s1.704,0.234,2.166,0.272
	c0.462,0.037,1.497,0.084,1.876,0.084c0.381,0,1.194-0.041,1.286-0.072c0.094-0.031,0.126-0.089,0.124-0.221
	c-0.003-0.192,0.007-0.642,0.031-1.018c0.024-0.376,0.143-1.669,0.177-2.052c0.062-0.688,0.171-1.677,0.229-1.958
	c0.06-0.28,0.113-0.901,0.125-1.042c0.011-0.142-0.235-0.75-0.229-0.872c0.006-0.12,0.078-0.208,0.172-0.179s0.25,0.326,0.35,0.486
	c0.101,0.161,0.281,0.478,0.388,0.689c0.087,0.172,0.37,0.656,0.479,0.838c0.024,0.042,0.052,0.042,0.137-0.012
	c0.123-0.076,0.219-0.12,0.516-0.325c0.234-0.161,1.071-0.766,1.428-1.016c0.275-0.193,0.669-0.496,0.718-0.542
	s-0.091-0.25-0.021-0.156c0.07,0.095-0.434-0.573-0.696-0.964c-0.262-0.391-0.707-0.997-0.977-1.425
	c-0.269-0.428-0.681-0.98-0.872-1.191c-0.191-0.212-0.671-0.561-1-0.781c-0.328-0.221-0.864-0.422-1.078-0.516
	c-0.215-0.094-0.78-0.346-1.063-0.391c-0.282-0.045-0.469,0-0.922,0.016s-0.688,0-1.125-0.047s-0.859-0.141-0.859-0.141
	s-0.307,0.128-0.594,0.172c-0.288,0.044-0.776,0.1-1.062,0.188c-0.287,0.087-0.907,0.35-1.172,0.516
	c-0.265,0.166-1.384,1.076-1.667,1.332c-0.283,0.255-0.871,0.813-1.143,1.071c-0.232,0.221-0.708,0.698-0.862,0.86
	c-0.115,0.121-0.321,0.356-0.418,0.468c-0.033,0.038-0.057,0.071,0.008,0.155c0.064,0.083,0.79,1.024,0.79,1.024L9.229,15.291z"/>
<path fill-rule="evenodd" clip-rule="evenodd" fill="#1A1A18" d="M15.502,17.278c0.05-0.15-0.147-0.861-0.151-1.093
	s-0.042-1.232,0.024-1.453c0.067-0.221,0.381-1.292,0.36-1.447c-0.02-0.155-0.146-1.002-0.15-1.093
	c-0.006-0.091,0.031-0.328,0.006-0.364c-0.025-0.037-0.135-0.087-0.169-0.003s-0.149,2.177-0.208,2.358
	c-0.059,0.181-0.344,0.997-0.359,1.265c-0.014,0.269,0.06,2.315,0.133,2.365C15.06,17.864,15.502,17.278,15.502,17.278
	S15.452,17.427,15.502,17.278z"/>
<path id="skin-leg-l" fill-rule="evenodd" clip-rule="evenodd" fill="#F9CAA9" d="M7.623,33.824c0,0,0.132-0.314,0.165-0.434
	c0.031-0.119-0.005-0.176-0.042-0.221c-0.037-0.046-0.086-0.176-0.083-0.221c0.005-0.046,0.051-0.205,0.103-0.176
	c0.052,0.027,0.345,0.457,0.431,0.463c0.087,0.006,0.538-0.304,0.538-0.304s-0.78-0.382-0.985-0.47
	c-0.205-0.088-0.72-0.336-0.928-0.439c-0.207-0.104-0.575-0.266-0.575-0.266L5.96,32.97l-0.021,0.154c0,0,0.539,0.249,0.894,0.381
	C7.189,33.638,7.623,33.824,7.623,33.824z"/>
<path id="skin-leg-r" fill-rule="evenodd" clip-rule="evenodd" fill="#F9CAA9" d="M20.972,33.006
	c-0.26,0.146-1.139,0.582-1.139,0.582l0.416,0.286l0.651,0.537l0.958-0.537l1.006-0.484l-0.432-1.184c0,0-0.317,0.199-0.514,0.301
	C21.726,32.609,21.204,32.875,20.972,33.006z"/>
<path id="player-sock-r" fill-rule="evenodd" clip-rule="evenodd" fill="#0068B4" d="M21.425,35.535
	c0.081,0.146,0.739-0.265,0.862-0.309s0.164-0.117,0.273-0.073s0.246,0.029,0.123,0.278c-0.123,0.25-0.695,0.688-0.695,0.688
	s-0.131,0.001-0.111,0.298c0.02,0.296-0.049,0.737,0.064,1.295c0.113,0.557,0.448,1.339,0.637,1.852
	c0.188,0.514,0.838,2.133,0.924,2.404c0.086,0.271,0.256,0.729,0.308,0.926s0.154,1.008,0.185,1.08
	c0.031,0.072,0.193-0.266,0.305-0.287c0.109-0.021,1.129,0.973,1.229,0.945s0.087-0.404,0.08-0.539
	c-0.008-0.135-0.18-0.426-0.217-0.56s-0.113-0.631-0.185-1.059s-0.397-2.159-0.455-2.544c-0.059-0.387-0.493-2.744-0.589-3.073
	s-0.486-1.38-0.619-1.638c-0.134-0.259-0.411-0.457-0.342-0.365c0.071,0.092-0.041-0.156,0.028-0.18s0.179-0.059,0.192-0.15
	c0.015-0.093-0.088-0.311-0.146-0.43s-0.209-0.354-0.304-0.324c-0.097,0.029-1.153,0.531-1.328,0.631
	c-0.175,0.102-0.444,0.262-0.452,0.324c-0.006,0.062,0.165,0.235,0.179,0.412C21.383,35.314,21.386,35.423,21.425,35.535z"/>
<path id="player-sock-l" fill-rule="evenodd" clip-rule="evenodd" fill="#0068B4" d="M7.397,34.955
	c-0.044,0.08,0.043,0.23-0.062,0.266c-0.104,0.035-0.702-0.359-0.78-0.287c-0.078,0.072-0.101,0.061-0.041,0.176
	c0.059,0.117,0.732,0.633,0.798,0.882c0.066,0.249-0.063,0.562-0.223,1.126c-0.16,0.564-0.981,2.696-1.118,3.078
	c-0.137,0.383-0.739,2.279-0.78,2.471c-0.041,0.19-0.063,1.09-0.134,1.154c-0.071,0.065-0.258-0.446-0.329-0.44
	c-0.071,0.006-0.764,0.553-0.841,0.552c-0.078-0.002-0.141-0.616-0.144-0.86c-0.002-0.244,0.267-1.754,0.316-2.131
	c0.051-0.378,0.215-1.2,0.366-1.995C4.575,38.152,5.155,35.096,5.2,35s0.296-0.035,0.39-0.066c0.094-0.03,0.013-0.299-0.001-0.371
	c-0.015-0.07-0.234-0.041-0.302-0.174c-0.068-0.133,0.033-0.276,0.119-0.426c0.086-0.148,0.264-0.339,0.346-0.324
	c0.083,0.015,0.701,0.281,0.701,0.281s0.879,0.324,0.979,0.404c0.1,0.078,0.132,0.258,0.129,0.389S7.441,34.876,7.397,34.955z"/>
<path id="player-shorts" fill-rule="evenodd" clip-rule="evenodd" fill="#FFFFFF" d="M19.342,23.586c0,0-0.25-0.618-0.411-0.676
	s-0.914-0.049-1.036-0.059c-0.206-0.015-0.286,0-0.384-0.073s-0.131-0.242-0.068-0.279c0.097-0.059,0.442-0.051,0.562-0.059
	c0.232-0.015,0.543-0.022,0.697-0.059c0.154-0.037,0.116-0.262,0.147-0.33c0.03-0.067-0.055-0.235-0.147-0.244
	c-0.092-0.008-0.773,0.014-1.352,0.029c-0.578,0.015-1.396-0.026-2.029-0.077s-1.389-0.163-2.125-0.272s-2.02-0.385-2.117-0.371
	c-0.068,0.011-0.181,0.088-0.205,0.191c-0.023,0.103-0.005,0.273,0.055,0.367c0.06,0.094,1.578,0.203,1.624,0.307
	s0.077,0.237,0,0.303s-0.18,0.109-0.347,0.117c-0.168,0.008-1.407-0.257-1.5-0.169c-0.092,0.089-0.541,0.67-0.633,0.802
	c-0.091,0.133-0.507,0.74-0.75,1.167s-0.687,1.173-0.875,1.541c-0.188,0.368-0.645,1.273-0.812,1.604
	c-0.168,0.331-0.739,1.463-0.917,1.875c-0.178,0.411-0.596,1.401-0.72,1.695c-0.033,0.08-0.039,0.13,0.042,0.191
	c0.081,0.062,0.333,0.194,0.557,0.295c0.224,0.103,0.949,0.47,1.496,0.733c0.548,0.266,1.355,0.617,1.629,0.721
	c0.252,0.095,0.767,0.279,0.903,0.324c0.136,0.043,0.164-0.016,0.246-0.177c0.027-0.053,0.226-0.463,0.576-1.118
	c0.82-1.543,1.936-3.47,1.898-3.543c-0.037-0.072-0.605-0.441-0.849-0.617s-0.798-0.765-0.78-0.823s0.175-0.06,0.233-0.059
	c0.058,0,0.624,0.338,0.847,0.499c0.225,0.163,0.817,0.441,0.903,0.471c0.087,0.03,0.312,0.029,0.439,0.066
	c0.126,0.037,0.282,0.095,0.465,0.104c0.183,0.007,1.091-0.259,1.498-0.354c0.408-0.095,0.884-0.184,0.981-0.14
	c0.098,0.045,0.036,0.128-0.016,0.182c-0.051,0.054-0.169,0.229-0.623,0.37c-0.455,0.14-1.215,0.33-1.184,0.403
	c0.031,0.074,0.256,0.411,0.41,0.662s0.777,1.204,1.055,1.728c0.277,0.521,1.504,2.693,1.565,2.815
	c0.059,0.122,0.059,0.151,0.197,0.097c0.245-0.117,0.829-0.392,1.253-0.597c0.548-0.265,1.505-0.765,1.889-0.985
	c0.384-0.22,0.779-0.456,0.903-0.544c0.123-0.087,0.041-0.208,0.041-0.208L19.342,23.586z"/>
<path id="hair" fill-rule="evenodd" clip-rule="evenodd" fill="#F7DD7F" d="M18.388,2.586c-0.121-0.248-0.475-0.649-0.965-0.82
	c-0.049-0.018-0.105-0.062-0.148-0.077c0.107,0.62,0.059,0.909-0.094,1.622c-0.031,0.145-0.014,0.232,0.029,0.525
	c0.076,0.502,0.219,1.279,0.277,1.611c0.07,0.404,0.094,0.592,0.062,1.195c-0.02,0.387-0.361,0.776-0.443,0.852
	c-0.154,0.14-0.223,0.108-0.223,0.108s-0.236,0.251-0.338,0.217c-0.137-0.046-0.133-0.173-0.168-0.217s-0.016,0.124-0.139,0.201
	c-0.043,0.027-0.229,0.077-0.336-0.155c-0.053-0.111-0.018,0.082-0.139,0.155c-0.129,0.078-0.238-0.147-0.26-0.216
	c-0.057-0.189,0.047-0.031-0.123-0.017c-0.168,0.017-0.307-0.137-0.447-0.368c-0.082-0.135-0.275-0.682-0.215-1.146
	c0.023-0.175,0.111-0.89,0.148-1.292C14.915,4.27,14.933,3.55,14.9,3.295c-0.047-0.356-0.248-0.99-0.109-1.5
	c-0.383,0.186-0.625,0.466-0.812,0.668c-0.197,0.217-0.459,0.727-0.443,1.223s0.076,0.991,0.184,1.409
	c0.107,0.417,0.117,0.712,0.117,0.712s0.398,0.496,0.674,0.976c0.156,0.271,0.439,0.63,0.674,0.866
	c0.246,0.248,0.66,0.631,0.941,0.631c0.367,0,0.754-0.371,0.836-0.46c0.408-0.446,0.463-0.608,0.815-1.196
	c0.164-0.275,0.373-0.593,0.471-0.77c0.125-0.221,0.184-0.542,0.23-0.806c0.07-0.405,0.188-0.759,0.174-1.238
	C18.635,3.331,18.511,2.834,18.388,2.586z"/>
<path id="skin-face-l" fill-rule="evenodd" clip-rule="evenodd" fill="#F9CAA9" d="M15.379,8.348
	c-0.186-0.155-0.421-0.466-0.632-0.725c-0.258-0.314-0.518-0.697-0.736-1.001c-0.062-0.089-0.416-0.651-0.416-0.53
	s0.035,0.307,0.092,0.484c0.059,0.178,0.262,0.289,0.338,0.334s0.139,0.114,0.26,0.334c0.092,0.166,0.497,0.814,0.673,1.025
	c0,0,0.087,0.02,0.224,0.041C15.317,8.333,15.379,8.348,15.379,8.348z"/>
<path id="skin-face-r" fill-rule="evenodd" clip-rule="evenodd" fill="#F9CAA9" d="M17.202,8.327
	c0.203-0.323,0.532-0.885,0.624-1.052c0.121-0.22,0.184-0.288,0.26-0.333c0.076-0.046,0.279-0.156,0.338-0.334
	C18.48,6.43,18.5,6.229,18.5,6.108s-0.246,0.35-0.309,0.439c-0.201,0.292-0.445,0.665-0.627,0.971
	c-0.082,0.138-0.242,0.369-0.361,0.496c-0.109,0.117-0.298,0.21-0.464,0.318c0,0,0.122,0.01,0.249-0.003
	C17.114,8.317,17.202,8.327,17.202,8.327z"/>
<path id="hair-p" fill="#F7DD7F" d="M17.306,6.405c-0.027-0.351-0.062-0.844-0.141-1.188c-0.025-0.164-0.221-1.17-0.26-1.707
	c-0.018,0.007-0.031,0.013-0.053,0.02c-0.076,0.021-0.188,0.125-0.188,0.125s0.062-0.094,0.172-0.297
	c0.039-0.072,0.061-0.146,0.076-0.214c0.111-0.411,0.135-0.876,0.129-1.021C17.013,1.33,16.71,1.026,16.05,1.014
	c-0.537-0.012-0.957,0.264-1.021,0.99c-0.008,0.09-0.02,0.226,0.012,0.463c0.021,0.16,0.08,0.401,0.102,0.57
	c0.016,0.064,0.041,0.153,0.086,0.258C15.322,3.514,15.4,3.655,15.4,3.655s-0.107-0.09-0.15-0.13
	c-0.002,0.007-0.039-0.003-0.076-0.015c0,0.57-0.074,1.639-0.133,2.094c0,0.004-0.262,1.076,0.25,1.598
	c0.035,0.036,0.018,0.041,0.057-0.205c0.033-0.217,0.146-0.338,0.158-0.296c0.09,0.28,0.199,0.55,0.197,0.846
	c0-0.188,0.131-0.64,0.18-0.874c0,0,0.299,0.848,0.256,0.94c0.16-0.343,0.172-0.652,0.203-0.944c0,0,0.379,0.621,0.25,0.948
	c0.025-0.024,0.203-0.204,0.254-0.419c0.043-0.184-0.037-0.396-0.053-0.518c0,0,0.357,0.381,0.232,0.553
	C17.212,6.973,17.329,6.709,17.306,6.405z M16.509,2.532c-0.053,0.109-0.041-0.521-0.084-0.689c-0.098-0.391-0.336-0.472-0.07-0.403
	C16.609,1.504,16.806,1.932,16.509,2.532z"/>
</svg>
