<?xml version="1.0" encoding="utf-8"?>
<!-- Generator: Adobe Illustrator 16.0.4, SVG Export Plug-In . SVG Version: 6.00 Build 0)  -->
<!DOCTYPE svg PUBLIC "-//W3C//DTD SVG 1.1//EN" "http://www.w3.org/Graphics/SVG/1.1/DTD/svg11.dtd" [
	<!ENTITY ns_flows "http://ns.adobe.com/Flows/1.0/">
	<!ENTITY ns_extend "http://ns.adobe.com/Extensibility/1.0/">
	<!ENTITY ns_ai "http://ns.adobe.com/AdobeIllustrator/10.0/">
	<!ENTITY ns_graphs "http://ns.adobe.com/Graphs/1.0/">
]>
<svg version="1.1" id="Ebene_1" xmlns:x="&ns_extend;" xmlns:i="&ns_ai;" xmlns:graph="&ns_graphs;"
	 xmlns="http://www.w3.org/2000/svg" xmlns:xlink="http://www.w3.org/1999/xlink" xmlns:a="http://ns.adobe.com/AdobeSVGViewerExtensions/3.0/"
	 x="0px" y="0px" width="34.4px" height="49.96px" viewBox="0 0 34.4 49.96" style="enable-background:new 0 0 34.4 49.96;"
	 xml:space="preserve">
<style type="text/css">
<![CDATA[
	.st0{fill:#1A1A18;}
	.st1{fill-rule:evenodd;clip-rule:evenodd;fill:#1A1A18;}
	.st2{fill:#FFFFFF;}
	.st3{fill-rule:evenodd;clip-rule:evenodd;fill:#FBCDAA;}
	.st4{fill-rule:evenodd;clip-rule:evenodd;fill:#FFFFFF;}
	.st5{fill-rule:evenodd;clip-rule:evenodd;fill:#0068B4;}
]]>
</style>
<path class="st0" d="M33.8,25.59c-0.03-0.17-0.18-0.42-0.31-0.59c-0.17-0.23-0.41-0.34-0.58-0.52s-0.67-0.44-0.77-0.58
	s-0.8-1.58-0.99-2.03c-0.18-0.45-1.63-3.5-1.77-3.69s-0.88-1.23-1.19-1.69s-0.77-1.02-0.98-1.31s-0.48-0.8-0.48-0.8
	s0.05-0.03,0.11-0.08s0.01-0.16-0.05-0.23c-0.18-0.22-0.58-0.71-0.75-0.97c-0.23-0.33-0.91-1.27-1.27-1.73s-0.84-1.15-1.01-1.31
	s-0.45-0.42-0.75-0.67s-0.6-0.47-1.07-0.67c-0.46-0.19-0.91-0.32-1.2-0.43S20.11,8.1,20.11,8.1l0.01-0.21l-0.01-0.14l-0.06-0.28
	l0.13-0.15l0.1-0.59l0.36-0.22l0.2-0.41l0.05-0.44l0.43-0.73l0.02-0.48l0.32-0.48l-0.26-0.56l0.25-0.58l-0.21-0.1L21.4,2.36
	l-0.29-0.62l-0.45-0.62l-0.42-0.16l-0.13-0.17l-0.59,0.02l-0.67-0.33l-0.82-0.25l-0.12,0.12L17.1,0.41l-0.27,0.24l-0.16-0.13
	L16.2,1.01l-0.46,0.4l-0.75,1.22l0.05,0.13l0.08,0.51L14.74,3.8L15.1,4.1l0.04,0.81l0.32,0.84l0.18,0.56l0.34,0.53l0.11,0.36
	l0.18,0.09l-0.03,0.31L16.2,7.82c0,0-0.6,0.06-0.98,0.14C15,8.01,14.51,8.09,14.15,8.2c-0.24,0.07-0.78,0.25-1.19,0.48
	c-0.31,0.18-1.01,0.72-1.27,0.91s-0.82,0.66-1.09,0.88s-1.07,0.92-1.23,1.06s-0.78,0.75-1.02,0.98c-0.15,0.14-0.48,0.52-0.55,0.58
	s-0.11,0.13-0.04,0.21s0.11,0.17,0.11,0.17l-0.07,0.12c0,0-0.45,0.61-0.63,0.87S5.8,16.3,5.61,16.52s-0.47,0.72-0.62,0.94
	s-1.63,3.4-1.78,3.72c-0.15,0.32-0.81,1.62-0.81,1.62s-0.71,0.67-0.91,0.86s-0.51,0.44-0.55,0.52c-0.05,0.08-0.22,0.33-0.23,0.44
	c-0.01,0.11-0.12,0.54-0.08,0.75s0.26,0.66,0.32,0.69s0.16,0.14,0.29,0.17c0.12,0.03,0.76,0.06,0.88,0.05
	c0.12-0.01,0.27-0.03,0.35-0.09c0.08-0.06,0.12-0.23,0.14-0.32c0.02-0.09,0.06-0.28-0.01-0.35c-0.07-0.08-0.25-0.2-0.25-0.2
	s0.17,0.05,0.34,0.01c0.17-0.04,0.5-0.18,0.62-0.32s0.38-0.72,0.41-0.81s0.1-0.24,0.2-0.38s0.53-0.72,0.8-1.06s1.1-1.59,1.44-2.02
	s0.98-1.24,1.26-1.6s1.65-2.07,1.88-2.27S10.13,16,10.13,16l0.09,0.08c0,0,0.58,0.53,0.65,0.61s0.09,0.04,0.14-0.01
	c0.09-0.09,0.26-0.25,0.37-0.37c0.16-0.17,0.39-0.35,0.39-0.35l0.1,0.95l-0.03,1.77l-0.14,2.36c0,0-0.03,0.15-0.16,0.32
	c-0.13,0.16-0.15,0.32-0.16,0.47c0,0.15-0.01,0.29,0,0.41s-0.22,0.41-0.3,0.51s-0.23,0.31-0.45,0.66s-0.68,0.98-0.96,1.47
	s-1.04,1.91-1.27,2.31s-1.01,1.94-1.27,2.46s-1.02,2.18-1.19,2.62c-0.04,0.09-0.05,0.16,0.03,0.22c0.08,0.05,0.38,0.18,0.38,0.18
	l-0.38,1.58c0,0-0.31,0.32-0.44,0.48s-0.34,0.66-0.34,0.85c0,0.19-0.05,0.42-0.05,0.55S4.43,39.5,4.43,39.5l-0.77,4.36l-0.21,0.91
	c0,0-0.14,0-0.19,0.07s-0.11,0.73-0.16,0.77s-0.2-0.02-0.31,0.06s-0.05,0.46-0.16,0.55s-0.82,0.54-0.91,0.57s-0.37,0.06-0.45,0.09
	s-0.33-0.01-0.43,0.06c-0.1,0.07-0.24,0.6-0.25,0.74s0.01,0.29,0.04,0.42s0.36,0.52,0.36,0.52s0,0.23,0.02,0.31s0.13,0.16,0.16,0.16
	s0.09-0.08,0.09-0.08l1.04,0.24c0,0,0.05,0.1,0.08,0.14s0.14,0.04,0.19,0.02s0.12-0.12,0.12-0.12l0.88-0.01l0.43,0.14
	c0,0-0.02,0.17,0.04,0.24s0.18,0.04,0.26,0.03s0.11-0.23,0.11-0.23l0.33-0.03l0.35-0.09c0,0,0.03,0.08,0.09,0.13
	c0.06,0.05,0.1,0.04,0.17-0.02s0.11-0.19,0.11-0.19l0.19-0.12c0,0,0.08-0.04,0.16-0.12s0.14-0.17,0.16-0.28S6,48.51,5.99,48.35
	s-0.05-0.38-0.05-0.55s-0.05-0.41-0.03-0.59s0.11-0.82,0.11-0.95s-0.09-0.45-0.06-0.67S6,44.9,6.13,44.45s0.91-2.57,1.17-3.15
	s0.51-1.12,0.85-2.16s0.49-1.54,0.48-1.72c-0.02-0.33-0.28-0.5-0.16-0.58s0.14-0.4,0.14-0.4s0.22-0.16,0.23-0.42
	c0.01-0.12-0.01-0.22,0.08-0.39c0.15-0.29,0.21-0.48,0.42-0.65s0.94-0.63,0.94-0.63s0.53,0.2,0.89,0.31
	c0.36,0.12,0.66,0.2,0.84,0.27s0.24-0.03,0.32-0.17s0.55-0.92,0.55-0.92s1.92-3.33,2.18-3.73s0.45-0.68,0.56-0.73
	s0.48,0.05,0.63,0.08c0.15,0.03,0.28-0.03,0.33,0.06s1.28,1.83,1.61,2.36c0.3,0.48,1.9,3.12,2.22,3.64
	c0.09,0.14,0.12,0.17,0.25,0.11c0.13-0.06,1.27-0.56,1.27-0.56s0.28,0.17,0.62,0.45s0.71,0.47,0.76,0.56s0.21,0.26,0.24,0.43
	s0.07,0.69,0.18,0.78c0.16,0.14,0.31,0.25,0.31,0.25s0.08,0.62,0.08,0.95c0,0.33,0.16,1.11,0.29,1.46s1.87,4.56,1.95,4.76
	s0.21,1.08,0.21,1.2s-0.06,0.49-0.08,0.65c-0.02,0.16,0.06,0.67,0.07,0.79s-0.07,0.65-0.09,0.81s0.03,0.79,0.07,0.84
	s0.24,0.14,0.24,0.14s-0.01,0.12,0.03,0.17s0.12,0.09,0.19,0.08s0.09-0.09,0.09-0.09l0.2,0.06c0,0,0.03,0.15,0.07,0.18
	s0.23,0.08,0.28,0.06s0.08-0.12,0.08-0.12l0.58-0.03l0.88-0.13l0.17-0.02c0,0,0.06,0.15,0.13,0.17c0.07,0.02,0.14-0.02,0.19-0.05
	s0.01-0.17,0.01-0.17l1.08-0.14c0,0,0.03,0.07,0.13,0.1s0.14,0.01,0.22-0.05s0.06-0.16,0.06-0.16l0.65-0.18c0,0,0.03,0.07,0.11,0.05
	c0.09-0.03,0.09-0.02,0.11-0.08c0.02-0.1-0.01-0.18-0.01-0.18l0.27-0.28c0,0,0.03,0.1,0.1,0.08c0.07-0.01,0.07-0.03,0.09-0.12
	c0.03-0.14,0.01-0.17,0.01-0.17s0.14-0.56,0.12-0.84s-0.37-0.37-0.47-0.38S31.59,47,31.5,46.97c-0.09-0.03-0.83-0.28-0.92-0.34
	s-0.57-0.62-0.67-0.69s-0.3-0.02-0.38-0.06s-0.29-0.53-0.36-0.68s-1.1-5.55-1.21-6.22s-0.48-1.67-0.56-1.92s-0.39-0.86-0.45-0.92
	s0.14-0.06,0.14-0.17c0-0.11-0.21-0.67-0.33-0.87s-0.22-0.37-0.28-0.47s-0.16-0.19-0.23-0.33s-0.5-1.15-0.5-1.15
	s0.18-0.12,0.28-0.17c0.1-0.06,0.07-0.13,0.04-0.21c-0.09-0.21-0.28-0.67-0.49-1.18c-0.34-0.81-0.73-1.75-0.86-2.02
	c-0.3-0.66-0.76-1.64-1.04-2.3s-1.19-2.94-1.34-3.28s-0.44-0.84-0.44-0.84s0.1-0.28,0.09-0.55s-0.14-0.49-0.25-0.65
	s-0.08-0.47-0.08-0.78c0-0.31-0.01-0.52,0.04-0.93s0.2-1.85,0.26-2.39s0.27-1.58,0.27-1.58s-0.02-0.19,0.07-0.15
	c0.07,0.03,0.42,0.59,0.48,0.69s0.14,0.08,0.23,0.02c0.1-0.06,0.75-0.43,0.75-0.43s0.09,0.06,0.34,0.26s0.78,0.73,1.09,1.06
	s1.61,1.93,1.88,2.27s1.01,1.27,1.26,1.6s1.27,1.7,1.46,1.96s0.67,0.96,0.74,1.06c0.07,0.1,0.19,0.3,0.27,0.5
	c0.05,0.13,0.32,0.56,0.42,0.69c0.1,0.13,0.47,0.34,0.56,0.35c0.09,0.01,0.19-0.01,0.26,0.02c0.07,0.03-0.17,0.14-0.18,0.27
	c-0.01,0.12-0.02,0.15,0.01,0.25c0.04,0.1,0.08,0.28,0.16,0.36c0.08,0.08,0.14,0.09,0.36,0.11c0.34,0.03,0.59-0.02,0.7-0.03
	c0.12-0.01,0.32-0.03,0.45-0.22c0.13-0.19,0.28-0.58,0.28-0.78C33.82,25.93,33.83,25.76,33.8,25.59z"/>
<path id="skin-arm-l" class="st3" d="M2.15,25.87c0.06,0,0.07-0.11,0.01-0.15s-0.26-0.1-0.34-0.12s-0.24-0.05-0.27-0.12
	s0.01-0.22,0.06-0.29s0.1-0.25,0.2-0.27s0.59,0.02,0.68,0s0.31-0.09,0.45-0.22s0.27-0.44,0.35-0.57s0.1-0.24,0.2-0.38
	s0.47-0.6,0.71-0.98s1.71-2.47,2.16-3.05s2.17-2.75,2.46-3.05s0.98-0.94,0.98-0.94l-0.45-0.49l-0.38-0.45l-0.84-0.99l-0.57,0.84
	l-1.1,1.41c0,0-0.73,0.99-1.01,1.43s-1.62,3.26-1.62,3.26L2.8,22.95c0,0-0.11,0.26-0.2,0.34s-0.83,0.67-0.96,0.76
	s-0.46,0.41-0.52,0.59s-0.05,0.58-0.04,0.71s0.21,0.42,0.27,0.47s0.11,0,0.28,0.01S2.09,25.87,2.15,25.87z"/>
<path class="st1" d="M7.86,16.72c0.03-0.12-0.21-0.5-0.33-0.57s-0.33-0.1-0.36-0.03s-0.07,0.27-0.03,0.36s0.23,0.38,0.34,0.39
	S7.83,16.84,7.86,16.72z"/>
<path id="skin-arm-r" class="st3" d="M32.32,26.75c-0.08,0-0.07-0.1-0.01-0.15s0.26-0.09,0.34-0.12s0.24-0.03,0.27-0.12
	s-0.04-0.24-0.06-0.29s-0.09-0.26-0.2-0.27s-0.57,0.02-0.68,0s-0.31-0.08-0.45-0.22S31.22,25.1,31.18,25s-0.1-0.23-0.2-0.38
	s-0.37-0.53-0.62-0.9c-0.25-0.37-1.96-2.78-2.26-3.14s-2.34-2.92-2.46-3.05s-0.82-0.82-0.91-0.91s-0.59-0.52-0.59-0.52l1.09-0.73
	l1.09-0.71c0,0,0.4,0.57,0.59,0.81s0.9,1.15,1.08,1.43s0.85,1.17,1.01,1.43s1.45,2.85,1.62,3.26c0.17,0.41,0.99,2.12,1.05,2.23
	s0.17,0.31,0.27,0.38c0.1,0.07,0.73,0.54,0.89,0.72s0.45,0.42,0.52,0.59s0.09,0.56,0.04,0.71s-0.19,0.46-0.27,0.47
	s-0.16,0-0.28,0.01S32.4,26.75,32.32,26.75z"/>
<path class="st1" d="M26.6,17.59c-0.04-0.1,0.2-0.49,0.33-0.57s0.3-0.1,0.36-0.03s0.04,0.25,0.03,0.36s-0.18,0.37-0.34,0.39
	S26.64,17.7,26.6,17.59z"/>
<path id="player-jersey" class="st5" d="M10.22,15.37c0,0,0.45,0.47,0.56,0.56c0.09,0.07,0.11,0.03,0.2-0.08s0.6-0.65,0.78-0.84
	s0.5-0.53,0.63-0.66s0.32-0.37,0.4-0.35s0.28,0.23,0.28,0.33s-0.4,0.34-0.47,0.45s-0.32,0.33-0.33,0.45s0.06,1.67,0.06,1.94
	s-0.06,1.93-0.06,2.23c0,0.38-0.02,1.18-0.05,1.49c-0.01,0.14,0.07,0.2,0.28,0.25s1.41,0.27,2.28,0.39s1.95,0.25,2.47,0.29
	c0.53,0.04,1.86,0.12,2.3,0.12s1.36-0.04,1.47-0.08s0.14-0.09,0.14-0.23c0-0.2-0.03-0.51,0-0.91s0.19-2.17,0.26-2.58
	s0.21-1.74,0.27-2.04s0.1-0.48,0.12-0.63s-0.44-1.11-0.43-1.24s0.09-0.22,0.2-0.19s0.29,0.35,0.4,0.52s0.32,0.51,0.44,0.73
	c0.1,0.18,0.42,0.7,0.55,0.89c0.03,0.04,0.06,0.04,0.16-0.01c0.14-0.08,0.25-0.13,0.59-0.35c0.27-0.17,1.22-0.81,1.63-1.08
	c0.31-0.21,0.76-0.53,0.82-0.58s-0.1-0.27-0.02-0.17c0.08,0.1-0.5-0.61-0.8-1.02s-0.81-1.06-1.11-1.51s-0.73-1.05-0.95-1.28
	c-0.22-0.23-0.83-0.66-1.2-0.9s-0.94-0.43-1.19-0.53s-0.69-0.17-1.01-0.22c-0.32-0.05-1.12-0.1-1.12-0.1l-0.86-0.09l-1.46-0.06
	c0,0-0.47-0.02-0.8,0.03s-0.8,0.13-1.12,0.22S13.55,8.83,13.25,9s-1.72,1.27-2.04,1.55s-1,0.87-1.3,1.14
	c-0.27,0.24-0.81,0.74-0.98,0.91c-0.13,0.13-0.37,0.38-0.48,0.5c-0.04,0.04-0.06,0.08,0.01,0.16s0.9,1.09,0.9,1.09L10.22,15.37z"/>
<path class="st1" d="M17.39,17.48c0.06-0.16-0.17-0.91-0.17-1.16s-0.05-1.31,0.03-1.54s0.43-1.37,0.41-1.54s-0.17-1.06-0.17-1.16
	s0.04-0.35,0.01-0.39s-0.15-0.09-0.19,0s-0.17,2.31-0.24,2.51s-0.39,1.06-0.41,1.34s0.07,2.46,0.15,2.51S17.39,17.48,17.39,17.48
	S17.33,17.64,17.39,17.48z"/>
<path id="skin-leg-l" class="st3" d="M8.39,35.06c0,0,0.15-0.34,0.19-0.46s0-0.19-0.05-0.23s-0.1-0.19-0.09-0.23
	s0.06-0.22,0.12-0.19s0.39,0.49,0.49,0.49s0.61-0.32,0.61-0.32s-0.89-0.41-1.12-0.5s-0.82-0.36-1.06-0.47s-0.66-0.28-0.66-0.28
	l-0.33,1.29l-0.02,0.16c0,0,0.61,0.26,1.02,0.41S8.39,35.06,8.39,35.06z"/>
<path id="skin-leg-r" class="st3" d="M23.63,34.2c-0.3,0.16-1.3,0.62-1.3,0.62l0.48,0.3l0.74,0.57l1.09-0.57l1.15-0.52l-0.49-1.26
	c0,0-0.36,0.21-0.59,0.32S23.89,34.06,23.63,34.2z"/>
<path id="player-sock-r" class="st5" d="M24.15,36.88c0.09,0.16,0.84-0.28,0.98-0.33s0.19-0.12,0.31-0.08s0.28,0.03,0.14,0.3
	s-0.79,0.73-0.79,0.73s-0.15,0-0.13,0.32c0.02,0.31-0.05,0.78,0.07,1.38s0.51,1.42,0.73,1.97s0.96,2.27,1.05,2.55
	s0.29,0.77,0.35,0.98s0.18,1.07,0.21,1.15s0.22-0.28,0.35-0.31s1.29,1.03,1.4,1c0.11-0.03,0.1-0.43,0.09-0.57s-0.2-0.45-0.25-0.59
	s-0.13-0.67-0.21-1.12s-0.45-2.29-0.52-2.7c-0.07-0.41-0.56-2.92-0.67-3.27c-0.11-0.35-0.55-1.47-0.71-1.74s-0.47-0.49-0.39-0.39
	s-0.05-0.17,0.03-0.19c0.08-0.02,0.2-0.06,0.22-0.16s-0.1-0.33-0.17-0.46s-0.24-0.38-0.35-0.34s-1.32,0.56-1.52,0.67
	c-0.2,0.11-0.51,0.28-0.52,0.34c-0.01,0.07,0.19,0.25,0.2,0.44S24.1,36.77,24.15,36.88z"/>
<path class="st4" d="M27.76,49.02l0.19,0.03c0,0-0.03-0.1-0.15-0.19s-0.09-0.08-0.2-0.06c-0.11,0.03-0.06,0.14-0.03,0.19
	S27.76,49.02,27.76,49.02L27.76,49.02z"/>
<path class="st2" d="M4.1,48.7l0.89-0.11c0,0-0.23-0.23-0.39-0.19S4.1,48.7,4.1,48.7L4.1,48.7z"/>
<path id="player-sock-l" class="st5" d="M8.13,36.27c-0.05,0.08,0.05,0.24-0.07,0.28s-0.8-0.38-0.89-0.3s-0.11,0.06-0.05,0.19
	s0.84,0.67,0.91,0.94c0.08,0.26-0.07,0.6-0.25,1.2s-1.12,2.87-1.28,3.27s-0.84,2.42-0.89,2.62s-0.07,1.16-0.15,1.23
	s-0.29-0.48-0.38-0.47s-0.87,0.59-0.96,0.59s-0.16-0.66-0.16-0.91s0.3-1.86,0.36-2.26s0.25-1.28,0.42-2.12s0.83-4.09,0.89-4.19
	s0.34-0.04,0.45-0.07s0.01-0.32,0-0.39s-0.27-0.04-0.34-0.19s0.04-0.29,0.14-0.45s0.3-0.36,0.4-0.34s0.8,0.3,0.8,0.3
	s1,0.34,1.12,0.43s0.15,0.27,0.15,0.41S8.18,36.18,8.13,36.27z"/>
<path id="player-shorts" class="st4" d="M21.92,24.21c0,0-0.29-0.66-0.47-0.72s-1.04-0.05-1.18-0.06c-0.23-0.02-0.32,0-0.44-0.08
	c-0.11-0.08-0.15-0.26-0.08-0.3c0.11-0.06,0.5-0.05,0.64-0.06c0.27-0.02,0.62-0.02,0.8-0.06c0.18-0.04,0.13-0.28,0.17-0.35
	s-0.06-0.25-0.17-0.26c-0.11-0.01-0.88,0.01-1.54,0.03s-1.75-0.05-2.47-0.11c-0.72-0.05-1.59-0.17-2.43-0.29s-2.51-0.44-2.62-0.43
	c-0.08,0.01-0.21,0.09-0.23,0.2c-0.03,0.11-0.01,0.29,0.06,0.39s1.8,0.21,1.85,0.33s0.09,0.25,0,0.32s-0.21,0.12-0.4,0.12
	s-1.61-0.27-1.71-0.18s-0.49,0.61-0.59,0.75s-0.53,0.76-0.81,1.22s-0.72,1.26-0.94,1.66s-0.77,1.36-0.96,1.71s-0.82,1.6-1.02,2.04
	s-0.7,1.58-0.84,1.89c-0.04,0.08-0.05,0.14,0.05,0.2c0.09,0.06,0.38,0.21,0.64,0.31s1.08,0.5,1.71,0.78s1.55,0.66,1.86,0.77
	c0.29,0.1,0.88,0.3,1.03,0.34s0.19-0.02,0.28-0.19c0.03-0.06,0.26-0.49,0.66-1.19c0.94-1.64,2.21-3.69,2.17-3.77
	s-0.69-0.47-0.97-0.66s-0.91-0.81-0.89-0.87s0.2-0.06,0.27-0.06s0.71,0.36,0.97,0.53s0.93,0.47,1.03,0.5s0.36,0.03,0.5,0.07
	s0.32,0.1,0.53,0.11s1.25-0.27,1.71-0.38c0.47-0.1,1.01-0.2,1.12-0.15s0.04,0.14-0.02,0.19s-0.19,0.24-0.71,0.39
	s-1.39,0.35-1.35,0.43s0.29,0.44,0.47,0.7c0.18,0.27,0.89,1.28,1.2,1.84s1.72,2.86,1.79,2.99c0.07,0.13,0.07,0.16,0.23,0.1
	c0.28-0.12,0.95-0.42,1.43-0.63c0.62-0.28,1.72-0.81,2.16-1.05s0.89-0.49,1.03-0.58c0.14-0.09,0.05-0.22,0.05-0.22L21.92,24.21z"/>
<path id="skin-neck" class="st3" d="M19.57,8.07c0,0,0.02-0.12,0-0.22s-0.05-0.2-0.05-0.2s-0.35,0-0.52-0.02s-0.58-0.07-0.64-0.07
	s-0.13,0.25-0.18,0.25c-0.06-0.01-0.15-0.24-0.21-0.25s-0.16-0.04-0.27-0.05c-0.11-0.02-0.3-0.03-0.52-0.03s-0.48,0-0.48,0
	l-0.05,0.41c0,0,0.41-0.02,0.7,0s0.57,0.04,0.82,0.07c0.2,0.02,0.68,0.08,0.85,0.09S19.57,8.07,19.57,8.07z"/>
<polygon id="hair" class="st1" points="15.49,3.23 15.42,2.74 15.4,2.64 15.9,1.77 16.27,1.4 16.75,0.95 16.89,1.06 17.26,0.74 
	18.01,0.7 18.12,0.6 18.85,0.87 19.44,1.16 19.95,1.14 20.06,1.29 20.43,1.43 20.82,1.97 21.07,2.52 21.07,2.88 21.26,2.97 
	21.05,3.45 21.28,3.94 21,4.36 20.98,4.78 20.57,5.53 20.53,5.92 20.35,6.28 19.94,6.52 19.9,6.8 19.77,7.15 19.54,7.3 18.91,7.28 
	18.38,7.2 18.2,7.35 17.99,7.17 17.8,7.15 16.74,7.08 16.41,6.99 16.32,6.63 15.94,6.19 15.74,5.59 15.46,4.84 15.45,3.91 
	15.2,3.69 "/>
</svg>
