<?xml version="1.0" encoding="utf-8"?>
<!-- Generator: Adobe Illustrator 16.0.4, SVG Export Plug-In . SVG Version: 6.00 Build 0)  -->
<!DOCTYPE svg PUBLIC "-//W3C//DTD SVG 1.1//EN" "http://www.w3.org/Graphics/SVG/1.1/DTD/svg11.dtd" [
	<!ENTITY ns_flows "http://ns.adobe.com/Flows/1.0/">
	<!ENTITY ns_extend "http://ns.adobe.com/Extensibility/1.0/">
	<!ENTITY ns_ai "http://ns.adobe.com/AdobeIllustrator/10.0/">
	<!ENTITY ns_graphs "http://ns.adobe.com/Graphs/1.0/">
]>
<svg version="1.1" id="Ebene_1" xmlns:x="&ns_extend;" xmlns:i="&ns_ai;" xmlns:graph="&ns_graphs;"
	 xmlns="http://www.w3.org/2000/svg" xmlns:xlink="http://www.w3.org/1999/xlink" xmlns:a="http://ns.adobe.com/AdobeSVGViewerExtensions/3.0/"
	 x="0px" y="0px" width="29.1px" height="52px" viewBox="0 0 29.1 52" style="enable-background:new 0 0 29.1 52;"
	 xml:space="preserve">
<style type="text/css">
<![CDATA[
	.st0{fill:#1A1A18;}
	.st1{fill-rule:evenodd;clip-rule:evenodd;fill:#1A1A18;}
	.st2{fill:#FBCDAA;}
	.st3{fill-rule:evenodd;clip-rule:evenodd;fill:#FBCDAA;}
	.st4{fill:#0068B4;}
	.st5{fill-rule:evenodd;clip-rule:evenodd;fill:#FFFFFF;}
	.st6{fill-rule:evenodd;clip-rule:evenodd;fill:#0068B4;}
]]>
</style>
<path class="st1" d="M28.69,24.49c-0.05-0.24-0.15-0.65-0.28-0.78s-0.44-0.52-0.65-0.65c-0.14-0.08-0.6-0.46-0.8-0.48
	s-0.69-0.17-0.69-0.17s-0.42-0.36-0.93-0.86c-0.47-0.46-1.02-1.04-1.27-1.31c-0.52-0.57-1.19-1.42-1.19-1.42s-0.86-1.11-1.14-1.48
	s-0.64-0.84-0.64-0.84s0.06-0.09,0.11-0.16s0.07-0.07,0.03-0.21c-0.1-0.33-0.38-1.19-0.42-1.32c-0.05-0.16-0.1-0.43-0.24-0.87
	s-0.42-1.43-0.53-1.78s-0.39-1.13-0.51-1.36s-0.35-0.43-0.48-0.59s-0.49-0.42-0.77-0.6S17.61,9.1,17.61,9.1l-0.09-0.09l0,0
	l0.01-0.22l0.4-0.54l0.1-0.14l0.9-2.03l0.26-0.9l0.47-0.92l-0.12-0.71l0.16-0.73L19.3,1.99l-0.46-0.46L18.6,1.16l-0.75-0.06
	l-0.13-0.32l-0.68-0.13L16,0.35l-0.05,0.11l-1.16,0.3l-0.25,0.29l-0.38-0.03l-0.73,0.72l-0.81,1.54l0.22,0.09l0.08,0.43L12.7,4.38
	l0.17,0.21l0.13,0.16l0.04,0.55l0.15,0.59l0.32,0.8l0.17,0.28l-0.04,0.91l-0.14,0.05c0,0-0.49,0.13-0.86,0.23s-0.79,0.26-1.11,0.39
	s-0.56,0.24-0.81,0.41s-0.48,0.35-0.63,0.52s-0.76,0.9-0.99,1.26S8,12.66,8,12.66l-0.63,1.08c0,0-0.17,0.28-0.28,0.47
	c-0.09,0.15,0,0.27,0,0.27l0.19,0.16l-0.47,0.82c0,0-1.89,3.44-2.27,4.13s-1.23,2.25-1.23,2.25l-0.65,1.04c0,0-0.97,0.94-1.29,1.29
	s-0.75,0.95-0.84,1.19s-0.15,1.23-0.15,1.23s0.1,0.35,0.16,0.44s0.34,0.16,0.34,0.16s0.22,0.16,0.34,0.22s0.33,0.06,0.33,0.06
	l0.53-0.42c0,0,0.06,0.08,0.15,0.1s0.3-0.04,0.48-0.12s0.68-0.62,0.68-0.62l0.56-0.62c0,0,0.14-0.21,0.23-0.48s0.38-1.39,0.38-1.39
	l1.12-1.53l2.74-3.49l0.67-0.82c0,0,0.01,0.15,0.01,0.4s-0.1,1.58-0.1,1.58s-0.14,1.67-0.12,1.81s0.02,0.42-0.03,0.5
	c-0.09,0.15-0.07,0.17-0.12,0.34s-0.1,0.66-0.07,0.76s0.12,0.35,0.12,0.35s-0.09,0.21-0.15,0.37c-0.08,0.21-0.11,0.43-0.11,0.58
	s0.04,0.61,0.03,0.81S8.06,29.5,8,30.2s-0.27,2.66-0.27,2.66l-0.14,1.15c0,0-0.1,0.49,0.06,0.53s0.7,0.12,0.7,0.12l0.12,0.7
	l0.07,0.56c0,0-0.24,0.13-0.33,0.26s-0.1,0.47-0.12,0.68s0.02,0.32-0.02,0.48s-0.31,0.48-0.41,0.7s-0.44,1.55-0.51,1.95
	s-0.13,1.32-0.18,1.7s-0.16,1.79-0.25,2.12s-0.27,0.98-0.27,0.98s-0.18,0.31-0.23,0.49s-0.01,0.96-0.01,0.96s0.04,0.14,0.02,0.27
	s-0.12,0.46-0.16,0.6s-0.38,1.79-0.4,2.03s-0.03,0.81-0.02,1.02s0.21,0.75,0.28,0.89s0.29,0.18,0.33,0.21s0.05,0.21,0.09,0.27
	s0.35,0.09,0.41,0.08s0.07-0.18,0.07-0.18l1.17,0.01c0,0,0.02,0.12,0.08,0.18s0.41,0,0.48-0.03s0.13-0.22,0.13-0.22
	s0.1-0.03,0.28-0.14s0.19-0.36,0.25-0.56s0.06-0.45,0.09-0.78s-0.16-1.32-0.17-1.59s0-1.32,0-1.32s0-0.2,0.05-0.28
	s0.14-0.27,0.15-0.36s0.04-0.24,0.03-0.47s-0.14-0.42-0.13-0.59s0.24-0.75,0.4-1.16s0.58-1.49,0.76-2.04s0.35-0.95,0.56-1.57
	c0.2-0.62,0.39-1.17,0.44-1.5c0.01-0.09-0.05-0.28-0.02-0.33s0.16-0.06,0.28-0.2s0.2-0.45,0.23-0.68s0.04-0.3,0.05-0.49
	s-0.03-0.39-0.01-0.45s0.5-0.94,0.5-0.94l0.52-0.85c0,0,0.21,0.02,0.8,0.02s0.73-0.02,0.86-0.08c0.04-0.02,0.04-0.18,0.05-0.3
	c0.02-0.38,0.02-0.76,0.02-0.76l0.28,1c0,0,0.17,0.05,0.31,0.09s1.19-0.19,1.19-0.19s0.41,0.56,0.52,0.8s0.2,0.62,0.2,0.62
	s-0.24,0.28-0.32,0.54s-0.08,0.56-0.05,0.73s0.11,0.31,0.12,0.4s-0.21,0.33-0.3,0.59c-0.14,0.37-0.29,1.18-0.37,1.59
	s-0.17,1.39-0.25,2.05s-0.17,1.55-0.23,1.94s-0.03,0.48-0.11,0.56s-0.2,0.09-0.26,0.23s-0.4,1.22-0.39,1.45s0.07,0.62,0.16,0.75
	s0.44,0.27,0.44,0.27s-0.06,0.23-0.02,0.27s0.36,0.14,0.45,0.14s0.2-0.17,0.2-0.17l0.69,0.23l0.93,0.3l1.32,0.44
	c0,0-0.04,0.05,0.04,0.14s0.2,0.09,0.32,0.12c0.16,0.05,0.23-0.14,0.23-0.14l0.6,0.17c0,0,0,0.11,0.03,0.15s0.3,0.11,0.38,0.08
	s0.14-0.17,0.14-0.17s0.52,0.14,0.66,0.16s0.19,0.01,0.32-0.05c0.22-0.09,0.34-0.12,0.39-0.44c0.05-0.32-0.25-0.66-0.52-0.98
	c-0.25-0.31-0.95-0.83-0.95-0.83l-1.09-0.92l-0.62-0.5l-0.4-0.61l-0.24-0.25c0,0,0.12-0.45,0.28-1.01c0.19-0.66,0.78-2.7,0.89-3.09
	s0.23-0.77,0.31-1.14s0.09-0.59,0.09-0.59s0.17-0.08,0.26-0.21c0.14-0.22,0.21-0.71,0.23-1.02c0.06-0.69-0.11-0.88-0.11-0.88
	s-0.02,0.03,0.14-0.3s0.27-1.04,0.31-1.41s-0.13-1.07-0.13-1.07s0.15-0.08,0.26-0.12s0.09-0.05,0.08-0.2s-0.77-2.65-0.77-2.65
	l-1.06-3.46l-0.73-2.16l-0.41-1.09l-0.25-0.31l0.09-0.24l-0.14-0.57l-0.21-0.33l-0.01-0.47l0.03-1.98l0.23-1.98l0-0.14
	c0,0,0.12,0.21,0.18,0.3c0.07,0.09,0.07,0.08,0.2,0.03s0.32-0.18,0.32-0.18s0.64,0.92,0.98,1.28s1.21,1.09,1.21,1.09
	s1.32,1.06,1.88,1.5s1.93,1.53,1.93,1.53s0.27,0.58,0.39,0.76s0.42,0.51,0.57,0.59s0.63,0.39,0.63,0.39l0.51,0.31
	c0,0,0.25,0.1,0.39,0.11s0.37-0.08,0.37-0.08l0.3-0.28c0,0,0.13,0.03,0.22,0.01s0.2-0.19,0.2-0.19l0.18,0.03c0,0,0.13-0.1,0.21-0.16
	s0.16-0.34,0.16-0.34S28.74,24.73,28.69,24.49z"/>
<path id="skin-face" class="st2" d="M18.69,4.48c0,0-0.28-0.73-0.43-0.85C18.1,3.51,17.2,3.05,17.2,3.05l-0.27,0.02l-0.04,0.11
	c0,0-0.34-0.08-0.49-0.08s-0.96,0.46-1.14,0.58c-0.18,0.12-0.17,0.52-0.28,0.68c-0.11,0.15-0.67,1.24-0.77,1.27s-0.62-0.6-0.68-0.56
	s-0.12,0.1-0.09,0.23s0.11,0.17,0.15,0.24s0.21,0.39,0.21,0.39l-0.22,0.1c0,0-0.04,0.04,0.03,0.14s0.51,0.35,0.51,0.35l0.04,1.03
	l0.05,0.72l1.17,2.09l0.7,1.24c0,0,0.17-0.25,0.28-0.47c0.16-0.3,0.28-0.62,0.38-1.04s0.14-0.99,0.14-0.99s-0.45-0.05-0.79-0.26
	c-0.35-0.2-1.04-0.66-1.17-0.84s-0.24-0.37-0.24-0.37l0.2-0.18c0,0,0.17,0.28,0.35,0.42c0.18,0.14,0.95,0.6,1.1,0.67
	c0.15,0.07,0.24,0.07,0.37,0.09c0.14,0.02,0.57-0.02,0.68-0.1c0.12-0.08,0.38-0.59,0.38-0.59s0.44-0.85,0.57-1.23
	c0.13-0.38,0.32-1.18,0.32-1.18L18.6,4.71L18.69,4.48z"/>
<polygon class="st1" points="17.26,7.18 17.08,7.24 17.03,7.35 17.28,7.45 17.23,7.56 16.88,7.68 16.76,7.64 16.61,7.32 16.74,7.37 
	16.24,7.18 16.12,7.13 15.99,7.08 16.82,6.98 17.6,7.05 17.55,7.16 17.26,7.18 "/>
<polygon class="st1" points="16.35,6.35 16.66,6.21 16.72,6.38 16.46,6.39 16.35,6.35 "/>
<path class="st1" d="M15.61,4.97c-0.1-0.14,0.06-0.36,0.06-0.36s-0.12-0.06-0.23-0.06s-0.38,0.18-0.38,0.18l0.05-0.11
	c0,0,0.21-0.21,0.36-0.25s0.49,0.07,0.49,0.07l0.44,0.19l-0.05,0.11c0,0-0.15,0.31-0.3,0.31S15.71,5.11,15.61,4.97z"/>
<path class="st1" d="M18.13,4.48l-0.24,0.13c0,0,0.16,0.33,0.06,0.39s-0.17,0.14-0.36,0.09c-0.11-0.03-0.23-0.18-0.23-0.18
	l-0.14,0.17l-0.02,0.42l-0.06-0.62l0.07-0.16l0.14-0.2l0.04-0.11l0.67-0.11l0.22,0.09l-0.04,0.11L18.13,4.48L18.13,4.48z"/>
<path class="st5" d="M7.02,50.81c0,0,0.41-0.13,0.67-0.11c0.26,0.01,0.41,0.13,0.41,0.13l-0.24,0.19l-0.73-0.02L7.02,50.81z"/>
<polygon id="skin-leg-r" class="st2" points="11.31,36.58 10.18,36.31 9.08,35.9 9.06,35.6 9.02,35.32 8.9,34.64 10.37,34.83 
	11.83,34.95 12.47,34.98 11.96,35.97 11.62,36.44 "/>
<polygon class="st1" points="10.81,35.57 10.61,35.51 10.53,35.38 10.47,35.24 11,35.28 11.03,35.52 10.81,35.57 "/>
<path id="player-sock-r" class="st6" d="M11.08,38.31c-0.11,0.05-0.42,0.01-0.52,0.04s-0.09,0.07-0.03,0.21s0.42,0.27,0.42,0.4
	s-0.15,0.83-0.32,1.3S10,42.11,10,42.11l-0.97,2.67c0,0-0.25,0.65-0.27,0.83s-0.03,0.5-0.06,0.62s-0.01,0.3-0.14,0.29
	s-0.25-0.36-0.35-0.47C7.97,45.8,7.53,45.86,7.36,46c-0.09,0.08-0.22,0.47-0.33,0.48s0,0.06-0.12-0.05s-0.05-0.54-0.05-0.62
	s0.1-0.64,0.09-0.74s0.15-0.79,0.15-0.79s0.06-0.25,0.16-0.7s0.33-2.98,0.42-3.53s0.23-1.06,0.34-1.44s0.27-0.55,0.34-0.58
	s0.26,0.07,0.26,0.07s0.13,0,0.26-0.07s0.04-0.17,0.03-0.2s-0.22-0.27-0.3-0.46s-0.04-0.72,0.03-0.8s0.15-0.12,0.3-0.14
	s0.21,0,0.36,0.05c0.23,0.08,0.86,0.28,1.05,0.34s0.62,0.17,0.73,0.18s0.22,0.03,0.31,0.11s0.1,0.32,0.05,0.53s-0.05,0.37-0.15,0.51
	S11.19,38.27,11.08,38.31z"/>
<polygon class="st5" points="18.75,47.42 18.59,47.35 18.06,47.16 17.86,47.44 18.62,47.72 "/>
<path id="player-jersey" class="st6" d="M11.59,15.07l-0.76,1.14c0,0-0.06,0.09-0.14,0.1c-0.09,0.02-0.19-0.05-0.23-0.06
	c-0.08-0.03-0.59-0.34-1.11-0.69s-1.15-0.78-1.15-0.78s-0.41-0.29-0.62-0.45c-0.04-0.03-0.01-0.11,0.09-0.3
	c0.16-0.29,0.45-0.76,0.59-1.02c0.31-0.55,0.73-1.2,0.73-1.2s0.21-0.38,0.47-0.81s0.86-1.14,1.02-1.29S10.81,9.38,11,9.28
	c0.34-0.18,0.73-0.39,0.97-0.46s0.83-0.28,1.12-0.36s0.63-0.14,0.63-0.14l0.06-0.01L14.19,9l0.71,1.31l0.57,1l0.59,1
	c0,0,0.5-0.73,0.64-1.04s0.29-0.74,0.38-1.05s0.15-0.87,0.15-0.87s0.14,0.07,0.32,0.18c0.27,0.17,0.38,0.23,0.56,0.36
	s0.58,0.37,0.7,0.5s0.41,0.43,0.5,0.63s0.15,0.43,0.23,0.64s0.31,0.95,0.41,1.29s0.23,0.8,0.34,1.22s0.38,1.38,0.44,1.61
	c0.05,0.19,0.05,0.24-0.03,0.33c-0.11,0.12-0.2,0.19-0.27,0.25c-0.28,0.25-0.68,0.57-0.96,0.78s-0.63,0.41-0.94,0.54
	c-0.13,0.05-0.15,0-0.16-0.1s0.01-0.47,0.04-0.84s0.11-1.52,0.12-1.78s-0.02-0.65-0.08-0.73c-0.04-0.07-0.15-0.13-0.16,0.04
	s-0.32,2-0.39,2.24s-0.3,1.13-0.38,1.6s-0.18,1.56-0.2,1.88s-0.06,1.41-0.06,1.41l-0.05,1.06c0,0,0.04,0.17-0.14,0.22
	s-0.39,0.1-0.61,0.13c-0.35,0.04-1.47,0.15-1.86,0.16s-1.7-0.06-2.01-0.12s-1.14-0.36-1.43-0.45s-1.04-0.23-1.17-0.23
	S9.55,22.1,9.46,22.1s-0.08-0.3-0.09-0.25s0.14-2.11,0.14-2.11s0.1-2.09,0.19-2.3s0.35-0.65,0.44-0.69s0.34,0.17,0.47,0.2
	s0.37-0.09,0.5-0.15s0.27-0.34,0.38-0.56c0.17-0.33,0.53-1.01,0.63-1.23s0.34-0.75,0.33-0.85s-0.21,0-0.29,0.05
	S11.59,15.07,11.59,15.07z"/>
<path id="player-shorts" class="st5" d="M15.11,33.81c-0.09-0.3-0.19-0.57-0.23-0.78c-0.05-0.22-0.08-0.55-0.08-0.8
	s0.08-3.29,0.08-3.53s-0.06-0.36,0.02-0.44s0.81-0.64,0.99-0.7s0.35-0.17,0.33-0.2s-0.48-0.08-0.63-0.03s-0.15,0.06-0.26,0.15
	s-0.56,0.39-0.61,0.34s0.2-0.82,0.18-0.97s-0.42-0.67-0.44-0.58s0.03,1.21-0.06,1.27s-0.72,0-0.71,0.1s0.01,0.22,0.13,0.29
	s0.34,0.15,0.45,0.25s0.22,0.65,0.22,0.65l-0.12,3.36l-0.1,2.23c0,0,0.02,0.19-0.11,0.18s-1.91-0.01-1.91-0.01l-1.92-0.18
	c0,0-2.11-0.24-2.2-0.27s-0.04-0.2-0.04-0.2s0.18-1.52,0.28-2.67s0.45-3.7,0.52-4.39s0.2-1.31,0.2-1.31l-0.03-0.85
	c0,0,0.15-0.83,0.31-0.86s0.74,0.03,0.99,0.03s0.65-0.22,0.57-0.3s-1-0.26-1.17-0.25s-0.44,0.03-0.53,0s-0.02-0.37-0.02-0.37
	s0.01-0.33,0.14-0.38s0.5-0.01,0.5-0.01l1.04,0.18l1.5,0.47c0,0,0.98,0.16,1.41,0.15s1.91-0.09,2.26-0.11s1.2-0.17,1.31-0.15
	s0.24,0.3,0.2,0.38s-0.61,0.02-0.73,0.05s-0.26,0.04-0.26,0.1s0.51,0.18,0.65,0.24s0.48,0.26,0.54,0.4s0.6,1.63,0.71,1.99
	s0.93,2.99,0.93,2.99l0.76,2.49c0,0,0.29,0.99,0.37,1.27s0.13,0.35-0.03,0.43s-0.27,0.09-0.72,0.2s-1.56,0.36-2.06,0.47
	s-1.69,0.34-2.17,0.42c-0.07,0.01-0.11,0.02-0.12,0.01c-0.03,0-0.06-0.06-0.09-0.15C15.27,34.27,15.2,34.12,15.11,33.81z"/>
<path class="st1" d="M11.56,19.91c0.32,0.07,0.84-0.02,1.07,0.1s0.93,0.73,1.05,0.75s0.53,0.08,0.55-0.03s-0.8-0.78-1.04-0.92
	s-1.01-0.44-1.33-0.52s-1.17-0.32-1.21-0.23s0.01,0.36,0.16,0.48S11.25,19.84,11.56,19.91z"/>
<path id="player-sock-l" class="st4" d="M18.39,43.36c0.11-0.41,0.41-1.39,0.51-1.78s0.31-1.06,0.41-1.44
	c0.18-0.7,0.26-1.25,0.28-1.37s-0.06-0.22-0.14-0.34s0.25-0.19,0.42-0.26s0.13-0.38,0.18-0.62s0.1-0.65-0.07-0.69s-0.73,0.05-1.08,0
	s-1.08-0.3-1.22-0.28s-0.2,0.21-0.26,0.33s-0.12,0.3-0.12,0.42s-0.02,0.17,0.04,0.31s0.72,0.27,0.75,0.39s-0.14,0.21-0.28,0.2
	s-0.24-0.05-0.36-0.03s-0.28,0.27-0.39,0.56s-0.26,1-0.35,1.45s-0.4,3.2-0.42,3.61s-0.11,0.75-0.02,0.87s0.42,0.39,0.58,0.44
	s0.51-0.18,0.59-0.21s0.23-0.43,0.25-0.47s0.23-0.16,0.23-0.16s0.12-0.02,0.18-0.04S18.28,43.77,18.39,43.36z"/>
<path id="skin-leg-l" class="st2" d="M17.44,35.49c0.11,0.22,0.32,0.63,0.32,0.63s0.96,0.29,1.15,0.29s1.06-0.07,1.06-0.07
	s0.16-0.12,0.23-0.31s0.24-0.69,0.28-1.03s-0.13-1.04-0.13-1.04s-0.81,0.16-1.17,0.25s-0.86,0.22-1.36,0.33s-0.88,0.19-0.88,0.19
	S17.33,35.27,17.44,35.49z"/>
<polygon class="st0" points="19.85,35.64 20,35.26 20,35.12 19.7,35.37 19.35,35.6 "/>
<polygon class="st1" points="16.93,6.36 16.94,6.25 17.14,6.3 17.19,6.37 17.03,6.36 "/>
<path id="skin-arm-l" class="st3" d="M28.07,23.94l-0.44-0.44l-0.72-0.48l-0.69-0.15l-0.42-0.41c0,0-0.79-0.75-1.06-1.03
	s-0.49-0.46-0.98-1.02s-1.54-1.82-1.54-1.82l-0.74-0.99l-0.71-0.86l-0.78,0.67l-0.38,0.29L19,18.08c0,0,0.13,0.26,0.37,0.56
	s0.95,1.03,1.3,1.34s4.26,3.39,4.26,3.39l0.19,0.28c0,0,0.07,0.22,0.14,0.37s0.36,0.5,0.36,0.5s0.6,0.37,0.64,0.37
	s-0.11-0.32-0.04-0.39s0.36-0.16,0.27-0.13s0.33-0.11,0.33-0.11s-0.45-0.23-0.34-0.17s-0.61-0.3-0.63-0.36s0.09-0.06,0.21-0.1
	s0.21-0.04,0.28,0.01s0.14,0.09,0.33,0.14s0.58,0.03,0.69,0.06s0.33,0.26,0.48,0.35s0.28,0.03,0.36,0.04S28.07,23.94,28.07,23.94z"
	/>
<path id="skin-arm-l-3" class="st2" d="M28.07,24.91l-0.6-0.25c0,0-0.14-0.06-0.17-0.28c-0.01-0.09,0.07-0.11,0.07-0.11l0.45,0.17
	c0,0,0.25,0.11,0.33,0.11s0.13,0.14,0.13,0.14l-0.03,0.14L28.07,24.91z"/>
<path id="skin-arm-l-2" class="st2" d="M27.32,25.12l-0.3-0.18l-0.06-0.14c0,0,0.03-0.08,0.09-0.1s0.17-0.05,0.17-0.05l0.17,0.18
	l0.27,0.13l0.1,0.08c0,0,0.02,0.03-0.02,0.1c-0.04,0.07-0.08,0.06-0.08,0.06L27.32,25.12z"/>
<path id="skin-arm-l-1" class="st2" d="M27.16,25.22l-0.25-0.13l-0.17-0.19h-0.16c0,0-0.07,0.13-0.02,0.24s0.24,0.21,0.24,0.21
	s0.21,0.07,0.32,0.07s0.15-0.1,0.15-0.1l-0.04-0.08L27.16,25.22z"/>
<path id="skin-arm-r" class="st2" d="M8.67,15.67l-0.9-0.59l-0.12-0.11l-0.57,0.92l-3.87,7.1L2.93,23.4l-0.21,0.19
	c0,0-0.84,0.66-1.12,0.98s-0.68,0.97-0.68,0.97s-0.16,0.88-0.09,0.95s0.13,0.09,0.21,0.12s0.14-0.16,0.14-0.16l0.09-0.51l0.08-0.13
	l-0.06,0.76l0.01,0.29c0,0,0.03,0.05,0.12,0.08s0.19-0.12,0.19-0.12l0.23-0.96l0.19-0.49l0.2-0.1l0.4-0.08l0.11,0.15l-0.09,0.33
	l-0.3,0.54c0,0-0.11,0.19-0.01,0.27s0.24-0.01,0.24-0.01l0.5-0.53l0.59-0.69l0.23-0.86l0.12-0.45l0.14-0.33c0,0,4.63-5.98,4.92-6.38
	s0.63-0.88,0.63-0.88L8.67,15.67z"/>
<path id="hair" class="st1" d="M13.34,4.81l0.24-0.12l0.35,0.25c0,0,0.13,0.11,0.19,0.11s0.53-0.69,0.56-0.83s0.22-0.69,0.3-0.75
	c0.08-0.06,1.34-0.65,1.34-0.65l0.35,0.05l0.05-0.12l0.61,0.04c0,0,0.98,0.53,1.09,0.61c0.11,0.08,0.55,1.08,0.55,1.08l-0.1,0.24
	l0.03,0.54l0.08-0.16l0.42-0.84l-0.1-0.72l0.15-0.62l-0.38-0.78l-0.38-0.33l-0.21-0.32l-0.84-0.09l-0.12-0.31l-0.54-0.08L16.14,0.7
	l-0.04,0.1l-1.11,0.27l-0.27,0.3l-0.45-0.04l-0.6,0.6l-0.62,1.21l0.11,0.06l0.1,0.52l-0.19,0.55l0.16,0.18l0.11,0.14L13.34,4.81z"/>
</svg>
