<?xml version="1.0" encoding="utf-8"?>
<!-- Generator: Adobe Illustrator 16.0.4, SVG Export Plug-In . SVG Version: 6.00 Build 0)  -->
<!DOCTYPE svg PUBLIC "-//W3C//DTD SVG 1.1//EN" "http://www.w3.org/Graphics/SVG/1.1/DTD/svg11.dtd" [
	<!ENTITY ns_flows "http://ns.adobe.com/Flows/1.0/">
	<!ENTITY ns_extend "http://ns.adobe.com/Extensibility/1.0/">
	<!ENTITY ns_ai "http://ns.adobe.com/AdobeIllustrator/10.0/">
	<!ENTITY ns_graphs "http://ns.adobe.com/Graphs/1.0/">
]>
<svg version="1.1" id="Ebene_1" xmlns:x="&ns_extend;" xmlns:i="&ns_ai;" xmlns:graph="&ns_graphs;"
	 xmlns="http://www.w3.org/2000/svg" xmlns:xlink="http://www.w3.org/1999/xlink" xmlns:a="http://ns.adobe.com/AdobeSVGViewerExtensions/3.0/"
	 x="0px" y="0px" width="32.8px" height="51.1px" viewBox="0 0 32.8 51.1" style="enable-background:new 0 0 32.8 51.1;"
	 xml:space="preserve">
<style type="text/css">
<![CDATA[
	.st0{fill:#1A1A18;}
	.st1{fill-rule:evenodd;clip-rule:evenodd;fill:#1A1A18;}
	.st2{fill:#FBCDAA;}
	.st3{fill-rule:evenodd;clip-rule:evenodd;fill:#FBCDAA;}
	.st4{fill-rule:evenodd;clip-rule:evenodd;fill:#FFFFFF;}
	.st5{fill-rule:evenodd;clip-rule:evenodd;fill:#0068B4;}
]]>
</style>
<path class="st0" d="M0.54,23.84c0.09-0.2,0.68-1.09,0.68-1.09l1.48-1.31l0.49-0.87l0.79-1.51l1.07-2.05l1.26-2.33l0.57-0.82
	c0,0-0.05-0.07-0.13-0.16c-0.08-0.09,0-0.18,0-0.18s1.08-1.43,1.32-1.75s0.87-1.08,1.14-1.33s1.05-1.09,1.25-1.23
	c0.2-0.15,0.67-0.34,0.92-0.44c0.25-0.09,0.77-0.2,1.16-0.28s1.06-0.24,1.06-0.24l0.19-0.21l0.22-0.28l0.07-0.33l-0.23-0.85
	l-0.32-0.22l-0.16-0.4L13.35,5.5l-0.37-0.72L13,4.31l-0.3-0.47l0.27-0.53l-0.18-0.6l0.2-0.12l0.06-0.28l0.3-0.66l0.5-0.58l0.4-0.11
	l0.12-0.16l0.59,0.05l0.66-0.26l0.87-0.21l0.09,0.13l0.79,0.09l0.25,0.27l0.15-0.13l0.4,0.45l0.51,0.49l0.67,1.24l-0.1,0.12
	l-0.09,0.52l0.34,0.52l-0.38,0.25l-0.07,0.71l-0.02,0.53L18.66,6.1l-0.15,0.42l-0.22,0.24l-0.11,0.19L18,7.44l-0.13,0.54l0.07,0.11
	l0.08,0.07c0,0,1.42,0.29,1.77,0.38c0.34,0.09,1.1,0.36,1.41,0.51s0.67,0.42,0.89,0.59s0.72,0.59,0.98,0.84s1.21,1.23,1.21,1.23
	l1.03,1.12l0.81,1.03l-0.11,0.17l0.65,1.17l1.22,2.22l0.83,1.53l0.7,1.39l0.73,1.31c0,0,1.24,1.08,1.41,1.27
	c0.17,0.19,0.61,0.77,0.69,1.02s0.15,0.85,0.12,1.06s-0.02,0.38-0.1,0.48s-0.38,0.17-0.38,0.17s-0.26,0.18-0.34,0.22
	S31.2,25.9,31.2,25.9l-0.51-0.26c0,0-0.28-0.02-0.41-0.04c-0.13-0.02-0.28-0.12-0.28-0.12l-0.64-0.64c0,0-0.5-0.49-0.56-0.62
	s-0.12-0.42-0.12-0.42l-0.3-1.24l-0.26-0.42l-0.91-1.16l-1.91-2.48l-1.11-1.32l-0.66-0.83l-0.74,0.64l-0.14,0.04l-1.08-1.12
	l-0.41-0.47c0,0-0.09,0.47-0.12,0.84s-0.08,0.98-0.08,0.98l-0.06,2.47L21,21.51v0.25l0.2,0.33c0,0,0.07,0.28,0.05,0.38
	s-0.02,0.23,0.06,0.36s0.34,0.48,0.34,0.48s0.29,0.53,0.46,0.95s0.64,1.67,0.64,1.67l0.47,1.44l0.91,2.56l0.69,2
	c0,0,0.36,1.11,0.41,1.22s0.02,0.17-0.12,0.23c-0.14,0.05-0.42,0.17-0.42,0.17l0.13,0.8l0.14,1.15l0.12,0.55l0.17,0.31
	c0,0,0.22,0.26,0.29,0.51c0.03,0.09,0.08,0.19,0.1,0.32c0.03,0.22,0.02,0.48,0.02,0.48l-0.05,0.28l0.13,0.55l0.4,2.29l0.67,3.87
	l0.02,0.12c0,0,0.21,0.12,0.25,0.21c0.04,0.09,0,0.3,0,0.3l0.28,0.24l0.14,0.4l0.46,0.62l0.82,0.88c0,0,0.64,0.86,0.81,1.12
	s0.46,0.89,0.46,0.89s0.08,0.34,0.02,0.53s-0.1,0.3-0.25,0.42s-0.38,0.16-0.38,0.16l-0.15,0.07c0,0-0.09,0.02-0.28,0.02
	s-0.81-0.08-0.81-0.08l-0.16-0.13c0,0-0.07,0.08-0.16,0.12s-0.23-0.12-0.28-0.19s-0.02-0.19-0.02-0.19l-0.3-0.17l-0.25-0.16
	c0,0-0.09,0.06-0.16,0.06s-0.25-0.12-0.27-0.17s0.02-0.2,0.02-0.2l-1.2-0.89l-0.36-0.26l-0.12-0.14c0,0-0.17,0.12-0.22,0.11
	c-0.05-0.01-0.13-0.09-0.16-0.17s0-0.19,0-0.19l-0.2-0.23l-0.2-0.23c0,0-0.08,0.07-0.12,0.03c-0.03-0.03-0.06-0.03-0.11-0.17
	s0.05-0.25,0.05-0.25l-0.19-0.4l-0.03-0.78l0.08-0.25l-0.05-0.09l0.03-0.17l0.07-0.42c0,0-0.04-0.11-0.18-0.8s-0.34-1.04-0.54-1.47
	s-0.54-1.28-0.54-1.28l-0.57-1.53l-0.23-0.78l-0.06-0.45l-0.25-0.38c0,0-0.15-0.32-0.19-0.62s0.01-0.72,0.01-0.72l-0.2-0.75
	c0,0-0.25-0.44-0.49-0.8s-0.58-0.83-0.58-0.83l-0.54,0.12l-1.31,0.23l-0.51-1.71l-0.63-2.02l-0.28-0.81l-0.12,0.13l-0.54,1.66
	l-0.49,1.36l-0.45,1.36l-0.14,0.07l-1.9-0.42l-0.51,0.86l-0.39,0.75l-0.14,0.75l-0.02,0.73l-0.17,0.62l-0.25,0.31l-0.04,0.52
	l-0.21,0.79l-0.53,1.54l-0.59,1.48l-0.44,1.29l-0.16,0.81c0,0,0.05,0.3,0.08,0.42c0.03,0.12-0.01,0.26-0.01,0.26l0.08,0.25
	c0,0,0.02,0.62-0.01,0.78s-0.39,0.65-0.39,0.65s-0.06,0.33-0.07,0.38s-0.18,0.19-0.21,0.19S9.02,47.9,9.02,47.9l-0.45,0.44
	l-0.41,0.41c0,0,0.05,0.11,0.03,0.17S8,49.07,7.97,49.09s-0.14-0.06-0.14-0.06s-0.6,0.43-0.77,0.56c-0.25,0.2-0.48,0.33-0.48,0.33
	s0.03,0.16,0.02,0.2s-0.17,0.14-0.22,0.14s-0.16-0.08-0.16-0.08l-0.27,0.14c0,0-0.03,0.16-0.06,0.22c-0.03,0.06-0.12,0.09-0.19,0.11
	s-0.17-0.09-0.17-0.09l-0.21,0.09c0,0-0.5,0.08-0.64,0.08s-0.42-0.08-0.42-0.08s-0.22-0.05-0.38-0.16s-0.28-0.33-0.3-0.44
	s0.01-0.17,0.05-0.39c0.03-0.23,0.3-0.66,0.45-0.95c0.12-0.23,0.8-1.19,0.8-1.19l0.84-1.06l0.4-0.43l0.13-0.4l0.28-0.25
	c0,0-0.05-0.21-0.01-0.3c0.04-0.09,0.24-0.21,0.24-0.21l0.02-0.13l0.59-3.88l0.31-2.3l0.16-0.54l0.01-0.35l0.03-0.74l0.28-0.51
	l0.16-0.32l0.11-0.55l0.12-1.16l0.12-0.8c0,0-0.16-0.06-0.24-0.12c-0.04-0.03-0.11-0.06-0.09-0.12c0.06-0.25,0.22-0.77,0.22-0.77
	l0.47-1.53l0.58-2.06l0.51-1.65c0,0,0.69-2.13,0.85-2.57s0.34-0.92,0.45-1.08s0.17-0.23,0.17-0.23s-0.12-0.17-0.08-0.41
	c0.04-0.23,0.21-0.39,0.22-0.44s0-0.25,0-0.25l-0.02-2.72l-0.16-2.03l-0.2-1.98l-0.92,0.94c0,0-0.1,0.11-0.17,0.17
	s-0.2,0.02-0.2,0.02l-0.81-0.61L8.76,16.7L7.5,18.29l-2.2,2.86l-0.8,1.11l-0.32,1.32c0,0-0.08,0.31-0.18,0.5S3.44,24.7,3.44,24.7
	s-0.55,0.62-0.64,0.65s-0.48,0.04-0.48,0.04l-0.19-0.04c0,0-0.36,0.36-0.5,0.39c-0.15,0.03-0.35-0.03-0.35-0.03L0.93,25.5
	c0,0-0.25-0.08-0.34-0.15s-0.16-0.44-0.16-0.44S0.45,24.04,0.54,23.84z"/>
<path id="player-jersey" class="st5" d="M23.86,15.46l-1.13,0.98l-1.14-1.26l-0.49-0.66c0,0-0.28-0.31-0.37-0.41
	s-0.17-0.22-0.3-0.17s-0.18,0.03-0.17,0.17c0.01,0.14,0.42,0.82,0.42,0.82s0.02,0.13-0.01,0.31c-0.03,0.18-0.14,1.37-0.17,1.73
	c-0.03,0.36,0,0.91-0.03,1.25c-0.03,0.34-0.04,1.3-0.03,1.61s0.05,1.74,0.05,1.74s-0.32,0.04-0.49,0.02
	c-0.17-0.02-0.17-0.1-0.25-0.31c-0.09-0.25-0.21-0.67-0.24-1s-0.02-1.27-0.02-1.34c0-0.07-0.2-0.28-0.12-0.2s-0.09-0.05-0.19,0.06
	s-0.28,1.1-0.29,1.32s0.12,0.44,0.17,0.71s0.2,0.68,0.03,0.85s-0.82,0.58-1.23,0.68c-0.41,0.1-0.87,0.12-1.27,0.16
	s-0.92,0.09-1.3,0.11c-0.38,0.02-1.09-0.02-1.59-0.06s-1-0.09-1.16-0.11s-0.19-0.05-0.22-0.23s-0.05-1.19-0.09-1.66
	s-0.14-2.62-0.19-3.2s-0.15-2.12-0.15-2.12s0.08-0.29,0.19-0.49s0.33-0.53,0.35-0.61s-0.13-0.16-0.31-0.12s-0.24,0.15-0.35,0.28
	s-0.4,0.48-0.54,0.66c-0.11,0.14-0.75,0.84-1,1.12c-0.06,0.07-0.09,0.11-0.21,0.02s-0.62-0.51-0.97-0.83s-0.98-0.95-1.2-1.19
	c-0.15-0.16-0.34-0.32-0.42-0.39s0.06-0.25,0.06-0.25s1.03-1.43,1.28-1.73s0.8-0.94,0.99-1.14s0.97-1,1.15-1.1s0.42-0.24,0.68-0.33
	s0.65-0.13,1.08-0.24s1.06-0.2,1.06-0.2s0.28,0.6,0.53,1.12s0.52,0.97,0.71,1.31c0.19,0.34,0.55,0.89,0.55,0.89l0.44,0.61l0.54-0.66
	l0.59-0.91c0,0,0.53-0.87,0.73-1.41c0.2-0.54,0.32-1.04,0.32-1.04s1.21,0.21,1.59,0.29c0.38,0.08,1.12,0.38,1.4,0.54
	s1.08,0.81,1.42,1.12c0.34,0.31,1.47,1.5,1.69,1.71c0.22,0.21,1.28,1.46,1.28,1.46l-0.52,0.56L23.86,15.46z"/>
<path class="st1" d="M14.01,19.52c-0.06-0.25,0.05-0.61,0.06-0.99c0.01-0.37-0.11-0.73-0.29-0.9s-0.84-0.69-0.84-0.69
	s-0.17-0.2-0.24-0.39c-0.07-0.19-0.01-0.46,0.11-0.47s0.23,0.02,0.32,0.07s0.06,0.18,0.08,0.35s0.14,0.34,0.24,0.39
	s0.66,0.02,0.79,0.18s0.25,0.89,0.25,1.06s-0.02,0.71-0.06,0.99s-0.17,0.75-0.17,0.75L14.01,19.52
	C14.01,19.52,14.1,19.87,14.01,19.52z"/>
<polygon id="skin-leg-l" class="st3" points="21.87,34.21 20.8,34.45 20.63,34.52 21.22,35.42 21.66,36.14 21.86,36.82 22.82,36.69 
	23.69,36.49 24.56,36.15 24.31,34.39 24.16,33.67 23.23,33.91 "/>
<path id="player-sock-l" class="st5" d="M22.85,38.61c-0.11,0.08-0.45,0.04-0.52,0.12c-0.07,0.08-0.04,0.61,0.11,0.98
	c0.14,0.37,0.57,1.47,0.57,1.47l1.02,2.36l0.21,0.9l0.14,0.8l0.23,0.33l0.29-0.12l0.39-0.41l0.43-0.31l0.25-0.07l0.33-0.04
	c0,0-0.03-0.4-0.07-0.66s-0.21-1.11-0.3-1.69s-0.48-2.69-0.55-3.06s-0.1-0.78-0.16-0.92s-0.34-0.1-0.46-0.11s-0.16-0.03-0.17-0.12
	c-0.01-0.09,0.29-0.22,0.44-0.42s0.05-0.56,0.05-0.56s-0.16-0.38-0.33-0.43s-0.35,0.12-0.69,0.23c-0.34,0.11-0.75,0.2-1.22,0.27
	c-0.47,0.07-0.79,0.05-0.89,0.17s-0.1,0.24-0.06,0.45c0.04,0.21,0.11,0.31,0.22,0.38s0.7-0.02,0.77,0.08S22.96,38.53,22.85,38.61z"
	/>
<path class="st1" d="M23.78,35.68c0.14-0.05,0.18-0.27,0.18-0.27s0-0.12-0.13-0.09s-0.54,0.16-0.54,0.22
	c-0.01,0.06-0.02,0.26,0.09,0.26S23.78,35.68,23.78,35.68z"/>
<path id="player-shorts" class="st4" d="M14.86,34.56l0.19-0.45l1.26-3.75l0.35-1.16l0.01-0.86l-0.44-0.12c0,0-0.72-0.38-0.91-0.47
	s-0.43-0.2-0.49-0.29c-0.04-0.07,0.45-0.15,0.63-0.1s0.83,0.47,0.92,0.4s0.25-0.69,0.39-0.83s0.6-0.31,0.61-0.16
	c0.01,0.15-0.45,0.71-0.52,0.89s0.99,0.03,1.16,0.1c0.08,0.03,0.13,0.28-0.01,0.32c-0.15,0.04-0.72,0.08-0.8,0.2
	c-0.08,0.12-0.16,1.43-0.16,1.43l0.52,1.53l0.96,3.21l0.7-0.13l1.47-0.33l2.4-0.57c0,0,1.28-0.35,1.39-0.36s0.21-0.09,0.17-0.2
	s-0.45-1.3-0.45-1.3s-0.87-2.58-1.04-3.06c-0.17-0.48-0.47-1.33-0.72-2.03c-0.25-0.7-0.56-1.62-0.56-1.62s-0.46-1.05-0.59-1.25
	c-0.14-0.2-0.27-0.42-0.41-0.47c-0.14-0.05-0.38,0.05-0.73,0.09s-0.79,0.23-0.88,0.22c-0.08-0.01,0-0.33,0.17-0.47
	c0.17-0.13,1-0.23,1.2-0.28c0.2-0.06,0.16-0.28,0.16-0.28s-0.01-0.27-0.16-0.31c-0.14-0.04-0.75,0.1-0.95,0.16
	c-0.21,0.05-0.29,0.06-0.5,0.12c-0.21,0.07-0.95,0.43-1.24,0.49s-1.33,0.17-1.91,0.2s-1.38,0.02-1.38,0.02l-1-0.05l-0.62-0.06
	c0,0-0.61-0.12-0.75-0.11s-0.21,0.14-0.23,0.28s0.03,0.23,0.14,0.27s0.66,0.02,0.66,0.02s1.22,0.06,1.36,0.11s0.24,0.11,0.25,0.19
	s0,0.14-0.14,0.16s-1.29,0.06-1.54,0.06s-0.42-0.08-0.52-0.07s-0.3,0.02-0.38,0.1c-0.08,0.08-0.14,0.16-0.22,0.34
	c-0.08,0.19-0.67,1.71-0.67,1.71l-0.56,1.76l-0.98,3.28c0,0-0.5,1.7-0.57,1.86s0.01,0.17,0.28,0.27s0.77,0.23,0.77,0.23l2.72,0.61
	L14.86,34.56z"/>
<polygon id="skin-arm-l" class="st2" points="24.7,15.32 25.66,14.32 26.42,15.51 29.64,21.64 29.92,22.05 30.13,22.24 31.26,23.22 
	31.94,24.19 32.03,25.14 31.82,25.26 31.68,25.09 31.59,24.58 31.51,24.45 31.57,25.22 31.56,25.51 31.44,25.59 31.25,25.48 
	31.02,24.51 30.83,24.03 30.76,23.99 30.62,23.93 30.22,23.85 30.12,24 30.2,24.33 30.51,24.87 30.52,25.15 30.28,25.14 
	29.78,24.61 29.19,23.92 28.96,23.06 28.85,22.61 28.71,22.29 25.73,18.35 24.7,17.07 23.94,16.09 "/>
<path id="skin-arm-r" class="st2" d="M8.21,15.13l-1-0.95l-0.62,0.84l-3.35,6.31l-0.28,0.42l-0.21,0.19l-1.12,0.99L0.96,23.9
	l-0.09,0.95c0,0,0.11,0.11,0.21,0.12s0.14-0.16,0.14-0.16l0.09-0.51l0.08-0.13l-0.05,0.76l0.01,0.29c0,0,0.01,0.08,0.12,0.08
	c0.11,0,0.19-0.12,0.19-0.12l0.23-0.96l0.19-0.49l0.2-0.1l0.4-0.08l0.11,0.15L2.7,24.04l-0.3,0.54c0,0-0.06,0.23-0.01,0.27
	s0.13,0.05,0.24-0.01s0.5-0.53,0.5-0.53s0.48-0.44,0.58-0.69s0.22-0.86,0.22-0.86l0.11-0.45l0.14-0.33l3.03-4.01l1.12-1.41
	l0.52-0.75L8.21,15.13z"/>
<polygon class="st4" points="26.27,48.45 25.84,48.03 25.44,48.03 26.16,48.58 "/>
<polygon id="skin-leg-r" class="st3" points="11.41,34.21 12.51,34.45 12.69,34.51 12.18,35.38 11.75,36.11 11.56,36.8
	10.6,36.69 9.72,36.51 8.85,36.18 9.06,34.42 9.19,33.69 10.13,33.92 "/>
<polygon id="player-sock-r" class="st5" points="10.61,38.61 11.13,38.73 11.05,39.71 10.5,41.19 9.53,43.58 9.34,44.48
	9.22,45.28 9,45.61 8.71,45.5 8.31,45.1 7.87,44.8 7.62,44.74 7.29,44.71 7.38,43.96 7.6,42.28 8.06,39.14 8.24,38.35 8.69,38.24 
	8.86,38.12 8.37,37.69 8.34,37.15 8.65,36.61 9.36,36.94 10.59,37.18 11.47,37.26 11.55,37.78 11.34,38.17 10.57,38.26 "/>
<path class="st1" d="M9.85,35.76c-0.1,0.04-0.1,0.04-0.23-0.06c-0.13-0.1-0.19-0.26-0.19-0.26s-0.03-0.1,0.13-0.1
	s0.51,0.14,0.55,0.21s-0.06,0.15-0.06,0.15S9.94,35.72,9.85,35.76z"/>
<polygon class="st4" points="7.85,48.05 8.22,48.07 7.56,48.63 7.38,48.52 "/>
<path id="skin-face" class="st3" d="M13.74,5.67l0.41,0.82l0.35,1.15c0,0,0.21,0.38,0.31,0.57s0.35,0.49,0.48,0.57
	c0.13,0.08,0.34,0.15,0.34,0.15s0.5,0.08,0.76-0.01s0.91-0.77,0.91-0.77s0.25-0.42,0.39-0.75s0.3-0.91,0.3-0.91l-0.13-0.11
	l0.22-0.26l0.24-0.01l0.43-0.75l-0.01-0.12l-0.14-0.23l0.02,0.36L18.43,5.6l-0.11-0.02l-0.01-0.17l-0.14-0.92l-0.24-0.56l-0.3-0.39
	l-0.47-0.2l-0.37-0.1l-0.2-0.06l-0.33,0.13l-0.21-0.18L15.21,3.1l-0.23,0.13l-0.68,0.55l-0.1,0.34l-0.17,0.31l0.02,0.24l-0.22,0.25
	l-0.14-0.23l-0.01-0.12L13.55,4.6l0.01,0.12L13.74,5.67L13.74,5.67z"/>
<path id="skin-neck" class="st3" d="M16.69,10.85c0.31-0.5,0.56-0.95,0.69-1.34c0.16-0.48,0.22-0.92,0.22-0.92l-0.08-0.12
	c0,0-0.09,0.08-0.34,0.36c-0.13,0.15-0.31,0.24-0.41,0.31c-0.25,0.19-0.42,0.23-0.67,0.23s-0.61-0.05-0.77-0.12
	s-0.35-0.15-0.55-0.43s-0.37-0.68-0.37-0.68l-0.27,0.48c0,0,0.08,0.28,0.36,0.88s0.65,1.2,0.65,1.2l0.77,1.25
	C15.92,11.94,16.38,11.35,16.69,10.85z"/>
<polygon class="st1" points="15.99,6.78 15.98,6.66 15.88,6.59 15.68,6.68 15.93,6.78 "/>
<polygon class="st1" points="16.5,6.75 16.57,6.66 16.44,6.55 16.21,6.69 16.4,6.83 "/>
<path class="st1" d="M14.67,4.79l0.19,0.11c0,0-0.09,0.22-0.02,0.31c0.07,0.09,0.31,0.17,0.42,0.14s0.24-0.18,0.24-0.18l0.15,0.77
	l0-0.96l-0.16-0.19l-0.06-0.11l-0.71-0.06L14.5,4.74l0.06,0.11L14.67,4.79L14.67,4.79z"/>
<path class="st1" d="M17.16,4.82c0,0,0.15-0.17,0.26-0.17c0.11,0,0.38,0.22,0.38,0.22l-0.05-0.11c0,0-0.27-0.2-0.38-0.22
	s-0.49,0.11-0.49,0.11l-0.44,0.22l0.05,0.11c0,0,0.16,0.28,0.33,0.31c0.17,0.03,0.38-0.04,0.44-0.15
	C17.31,5.04,17.16,4.82,17.16,4.82z"/>
<polygon class="st1" points="15.88,7.51 15.94,7.66 15.84,7.66 15.64,7.75 15.61,7.83 15.76,7.91 16.21,7.88 16.32,7.63 16.44,7.53 
	16.75,7.37 16.88,7.29 16.87,7.23 16.69,7.24 16.1,7.32 15.41,7.26 15.34,7.33 15.61,7.46 "/>
<path id="hair" class="st1" d="M13.05,3.82l0.23-0.48l-0.16-0.51l0.18-0.1l0.08-0.34l0.28-0.61l0.43-0.45l0.36-0.09l0.11-0.14
	l0.46,0.06l0.64-0.23l0.7-0.22l0.08,0.11l0.73,0.08l0.45,0.34l0.13-0.11l0.26,0.36l0.38,0.34l0.62,1.05l-0.09,0.11l-0.08,0.53
	l0.25,0.42L18.8,4.16l-0.01,0.5l-0.11-0.15l-0.19,0.07c0,0-0.17-0.54-0.24-0.69c-0.12-0.23-0.3-0.52-0.43-0.63
	c-0.13-0.11-0.65-0.28-0.65-0.28l-0.36-0.09l-0.2-0.05l-0.25,0.14l-0.15-0.16l-1.05-0.04c0,0-0.14,0.06-0.23,0.13
	c-0.09,0.07-0.83,0.58-0.85,0.65c-0.02,0.07-0.05,0.28-0.12,0.39c-0.08,0.11-0.12,0.18-0.15,0.26c0,0.01-0.18-0.07-0.18-0.07
	s-0.32,0.14-0.27,0.38c-0.02,0.06-0.01,0.2-0.04,0.26l-0.09-0.19l0.03-0.46L13.05,3.82z"/>
</svg>
