<?xml version="1.0" encoding="utf-8"?>
<!-- Generator: Adobe Illustrator 16.0.4, SVG Export Plug-In . SVG Version: 6.00 Build 0)  -->
<!DOCTYPE svg PUBLIC "-//W3C//DTD SVG 1.1//EN" "http://www.w3.org/Graphics/SVG/1.1/DTD/svg11.dtd">
<svg version="1.1" id="Ebene_1" xmlns="http://www.w3.org/2000/svg" xmlns:xlink="http://www.w3.org/1999/xlink" x="0px" y="0px"
	 width="29.439px" height="49.74px" viewBox="0 0 29.439 49.74" enable-background="new 0 0 29.439 49.74" xml:space="preserve">
<path fill-rule="evenodd" clip-rule="evenodd" fill="#1A1A18" d="M0.827,23.654c0.075-0.185,0.594-1.025,0.594-1.025l1.293-1.232
	l0.432-0.818l0.695-1.418l1.043-1.981l0.979-1.854l0.562-0.958c0,0-0.031-0.146-0.104-0.229c-0.073-0.084-0.005-0.167-0.005-0.167
	s0.88-1.088,1.114-1.379c0.312-0.391,0.857-1.124,1.094-1.359s0.856-0.845,1.031-0.984c0.176-0.14,0.934-0.6,1.156-0.688
	c0.223-0.089,0.798-0.239,1.141-0.312c0.291-0.063,0.843-0.143,1-0.166c-0.103-0.162-0.214-0.346-0.287-0.504
	c-0.168-0.358-0.337-0.666-0.337-0.666s-0.088-0.019-0.183-0.114c-0.163-0.169-0.196-0.328-0.253-0.491
	c-0.058-0.164-0.115-0.576-0.131-0.681c-0.016-0.104,0.122-0.332,0.122-0.332s-0.204-0.414-0.294-0.849
	c-0.091-0.435-0.08-0.727-0.089-1.112c-0.009-0.384,0.253-1.172,0.587-1.569c0.154-0.205,0.288-0.312,0.595-0.465
	c0.133-0.066,0.275-0.159,0.455-0.209c0.01-0.049-0.016-0.233,0.09-0.423c0.152-0.275,0.333-0.506,0.641-0.697
	c0.317-0.199,0.967-0.259,1.333-0.02c0.392,0.258,0.39,0.329,0.614,0.666c0.202,0.306,0.1,0.486,0.1,0.486s0.724,0.395,1.052,0.86
	c0.285,0.404,0.725,1.028,0.354,2.666l-0.189,0.743c0,0,0.085-0.008,0.15,0.158c0.066,0.165,0.016,0.469-0.033,0.654
	c-0.049,0.184-0.32,0.546-0.503,0.695c-0.183,0.149-0.261,0.081-0.261,0.081s-0.194,0.375-0.406,0.748
	c-0.077,0.136-0.148,0.249-0.212,0.348c0.39,0.065,1.391,0.234,1.632,0.301c0.301,0.083,0.766,0.191,1.031,0.328
	c0.265,0.137,1.09,0.682,1.281,0.844c0.191,0.161,0.643,0.578,0.875,0.812c0.232,0.235,0.922,0.969,0.922,0.969l1.031,1.141
	l0.696,0.815l-0.144,0.206l0.479,0.896l1.211,2.25l0.623,1.291l0.645,1.333l0.712,1.36c0,0,1.087,1.016,1.232,1.199
	c0.146,0.183,0.534,0.727,0.606,0.962c0.073,0.235,0.133,0.795,0.109,1c-0.022,0.205-0.018,0.361-0.092,0.456
	c-0.074,0.093-0.336,0.157-0.336,0.157s-0.226,0.17-0.301,0.205c-0.074,0.035-0.297,0.007-0.297,0.007l-0.443-0.244
	c0,0-0.241-0.015-0.355-0.033c-0.114-0.019-0.245-0.11-0.245-0.11l-0.562-0.602c0,0-0.434-0.458-0.493-0.588
	c-0.06-0.13-0.106-0.398-0.106-0.398l-0.261-1.164l-0.23-0.391l-0.794-1.088l-1.673-2.33l-0.977-1.242l-0.579-0.78L20.32,17.22
	l-0.125,0.038l-1.078-1.246l-0.312-0.359c0,0-0.082,0.381-0.109,0.734s-0.125,1.438-0.125,1.438v2.156l0.109,1.484l0.066,0.224
	l0.175,0.314c0,0,0.062,0.261,0.048,0.362c-0.014,0.102-0.014,0.22,0.055,0.338c0.068,0.117,0.297,0.456,0.297,0.456
	s0.25,0.5,0.401,0.896c0.15,0.397,0.558,1.573,0.558,1.573l0.41,1.352l0.794,2.411l0.603,1.882c0,0,0.318,1.044,0.359,1.146
	c0.041,0.104,0.02,0.162-0.105,0.213c-0.127,0.052-0.373,0.164-0.373,0.164l0.118,0.75l0.127,1.084l0.104,0.518l0.145,0.295
	c0,0,0.195,0.248,0.254,0.479c0.023,0.089,0.07,0.177,0.086,0.306c0.025,0.209,0.014,0.455,0.014,0.455l-0.044,0.262l0.112,0.518
	l0.349,2.152l0.585,3.637l0.021,0.118c0,0,0.184,0.109,0.217,0.195c0.033,0.087-0.002,0.282-0.002,0.282l0.246,0.227l0.122,0.372
	l0.399,0.587l0.719,0.832c0,0,0.564,0.808,0.711,1.051c0.146,0.244,0.399,0.838,0.399,0.838s0.067,0.323,0.019,0.5
	c-0.049,0.176-0.084,0.283-0.217,0.392s-0.33,0.15-0.33,0.15l-0.133,0.067c0,0-0.08,0.022-0.244,0.022s-0.707-0.074-0.707-0.074
	l-0.139-0.122c0,0-0.059,0.079-0.141,0.108c-0.081,0.029-0.205-0.118-0.246-0.177s-0.014-0.176-0.014-0.176l-0.264-0.162
	l-0.215-0.146c0,0-0.082,0.059-0.137,0.059c-0.056,0-0.22-0.118-0.232-0.162c-0.015-0.044,0.013-0.191,0.013-0.191l-1.049-0.837
	l-0.314-0.249l-0.102-0.134c0,0-0.146,0.11-0.188,0.099c-0.043-0.011-0.111-0.084-0.14-0.158c-0.027-0.072,0-0.176,0-0.176
	l-0.177-0.221l-0.179-0.221c0,0-0.074,0.067-0.109,0.029c-0.027-0.029-0.055-0.029-0.096-0.161
	c-0.042-0.133,0.042-0.235,0.042-0.235l-0.166-0.373l-0.025-0.729l0.068-0.237l-0.04-0.081l0.026-0.164l0.059-0.391
	c0,0-0.037-0.104-0.158-0.756c-0.121-0.65-0.299-0.975-0.477-1.386s-0.475-1.203-0.475-1.203l-0.494-1.443l-0.199-0.737
	l-0.051-0.424l-0.215-0.354c0,0-0.132-0.297-0.164-0.582c-0.031-0.285,0.01-0.682,0.01-0.682l-0.178-0.705
	c0,0-0.219-0.412-0.425-0.751c-0.205-0.338-0.512-0.776-0.512-0.776l-0.47,0.113l-1.143,0.215l-0.45-1.609l-0.549-1.896
	l-0.246-0.766l-0.109,0.125l-0.472,1.566l-0.432,1.279l-0.391,1.279l-0.123,0.066l-1.662-0.398l-0.443,0.811L11.1,35.299
	l-0.125,0.704l-0.016,0.687l-0.152,0.585L10.59,37.57l-0.035,0.488l-0.184,0.741l-0.467,1.454L9.391,41.65l-0.387,1.213L8.86,43.621
	c0,0,0.044,0.278,0.066,0.39c0.023,0.113-0.01,0.245-0.01,0.245l0.072,0.235c0,0,0.02,0.578-0.01,0.73
	c-0.029,0.151-0.346,0.614-0.346,0.614s-0.051,0.313-0.059,0.358c-0.008,0.047-0.159,0.179-0.186,0.179
	c-0.027,0-0.138-0.089-0.138-0.089l-0.397,0.412l-0.355,0.383c0,0,0.041,0.102,0.027,0.161s-0.164,0.147-0.191,0.161
	c-0.027,0.016-0.119-0.061-0.119-0.061s-0.527,0.403-0.674,0.531c-0.22,0.191-0.426,0.309-0.426,0.309s0.027,0.148,0.014,0.191
	c-0.014,0.045-0.15,0.133-0.191,0.133s-0.137-0.074-0.137-0.074l-0.232,0.133c0,0-0.028,0.15-0.055,0.208
	c-0.027,0.057-0.109,0.086-0.164,0.101s-0.147-0.088-0.147-0.088l-0.181,0.088c0,0-0.436,0.079-0.562,0.074
	c-0.127-0.006-0.364-0.076-0.364-0.076s-0.192-0.044-0.332-0.146c-0.139-0.103-0.248-0.308-0.262-0.411s0.013-0.155,0.041-0.367
	c0.027-0.213,0.26-0.617,0.396-0.896c0.107-0.219,0.705-1.117,0.705-1.117l0.736-0.996l0.349-0.403l0.114-0.374l0.242-0.232
	c0,0-0.047-0.2-0.009-0.281s0.214-0.2,0.214-0.2l0.019-0.118l0.516-3.648l0.272-2.169l0.137-0.511l0.007-0.329l0.028-0.696
	l0.244-0.484l0.141-0.297l0.094-0.52l0.106-1.088l0.104-0.752c0,0-0.137-0.059-0.215-0.117c-0.031-0.024-0.096-0.06-0.082-0.118
	c0.055-0.232,0.191-0.72,0.191-0.72l0.412-1.441l0.506-1.941l0.447-1.551c0,0,0.606-2.006,0.744-2.417
	c0.136-0.412,0.301-0.868,0.396-1.014c0.096-0.147,0.153-0.221,0.153-0.221s-0.103-0.161-0.071-0.382
	c0.031-0.22,0.184-0.368,0.194-0.412s0.06-0.251,0.06-0.251v-2.203l-0.125-2.641l-0.172-1.625l-0.908,1.037
	c0,0-0.09,0.107-0.145,0.161c-0.055,0.053-0.176,0.017-0.176,0.017l-0.71-0.57l-0.432,0.503l-1.108,1.5l-1.93,2.69l-0.698,1.041
	l-0.281,1.238c0,0-0.067,0.291-0.159,0.468c-0.09,0.178-0.487,0.592-0.487,0.592s-0.485,0.584-0.558,0.607
	c-0.071,0.023-0.42,0.041-0.42,0.041l-0.168-0.036c0,0-0.312,0.343-0.441,0.372c-0.129,0.028-0.309-0.027-0.309-0.027l-0.303-0.204
	c0,0-0.217-0.078-0.303-0.144s-0.14-0.41-0.14-0.41S0.75,23.838,0.827,23.654z"/>
<path id="player-shirt" fill-rule="evenodd" clip-rule="evenodd" fill="#0068B4" d="M21.252,15.768L20.26,16.69L19.259,15.5
	l-0.432-0.617c0,0-0.242-0.294-0.324-0.383c-0.083-0.088-0.148-0.206-0.261-0.161c-0.112,0.044-0.158,0.029-0.147,0.161
	c0.01,0.133,0.35,0.731,0.35,0.731s-0.07,0.394-0.094,0.562c-0.024,0.169-0.148,1.302-0.172,1.641s-0.02,2.397-0.016,2.688
	c0.006,0.291,0.131,1.4,0.131,1.4s-0.278,0.038-0.432,0.022c-0.154-0.016-0.151-0.091-0.223-0.295
	c-0.082-0.235-0.188-0.63-0.209-0.94c-0.023-0.31-0.021-1.193-0.021-1.259c-0.002-0.065-0.173-0.26-0.107-0.185
	c0.064,0.075-0.083-0.048-0.168,0.061c-0.085,0.109-0.243,1.035-0.258,1.245c-0.016,0.21,0.11,0.413,0.149,0.665
	c0.041,0.251,0.174,0.642,0.027,0.796c-0.146,0.153-0.719,0.545-1.078,0.64c-0.359,0.095-0.764,0.109-1.109,0.153
	c-0.346,0.044-0.808,0.081-1.139,0.103c-0.332,0.022-0.958-0.015-1.396-0.059c-0.438-0.044-0.877-0.088-1.014-0.103
	s-0.164-0.044-0.191-0.221c-0.027-0.176,0.049-1.238,0.023-1.68c-0.031-0.531-0.147-2.799-0.172-3.344
	c-0.031-0.688-0.156-1.719-0.156-1.719s-0.003-0.105,0.09-0.291c0.092-0.186,0.289-0.494,0.307-0.575s-0.112-0.154-0.273-0.118
	c-0.16,0.037-0.209,0.14-0.308,0.265c-0.099,0.125-0.353,0.448-0.472,0.618c-0.096,0.134-0.654,0.794-0.877,1.058
	c-0.057,0.066-0.08,0.105-0.189,0.02c-0.107-0.085-0.545-0.482-0.847-0.776c-0.301-0.294-0.862-0.897-1.054-1.118
	c-0.13-0.149-0.298-0.297-0.369-0.367c-0.072-0.07,0.055-0.168,0.055-0.168s0.794-1.09,1.016-1.375
	c0.221-0.284,0.921-1.104,1.094-1.297c0.172-0.193,0.725-0.756,1.281-1.094c0.359-0.219,0.817-0.366,1.188-0.469
	c0.369-0.103,1.453-0.25,1.453-0.25s0.125,0.328,0.344,0.922c0.184,0.5,0.359,0.844,0.516,1.281c0.122,0.343,0.422,1,0.422,1
	l0.516-1.078c0,0,0.375-0.75,0.593-1.344c0.186-0.503,0.359-0.812,0.359-0.812s1.309,0.201,1.641,0.281
	c0.333,0.08,1.006,0.322,1.25,0.469c0.244,0.147,1.218,0.894,1.516,1.188c0.299,0.294,1.233,1.286,1.422,1.484
	c0.188,0.198,1.172,1.391,1.172,1.391l-0.436,0.44L21.252,15.768z"/>
<path fill-rule="evenodd" clip-rule="evenodd" fill="#1A1A18" d="M12.625,19.587c-0.057-0.239,0.045-0.575,0.053-0.927
	s-0.096-0.683-0.256-0.848c-0.159-0.166-0.733-0.651-0.733-0.651s-0.153-0.19-0.213-0.367c-0.062-0.177-0.008-0.438,0.096-0.447
	c0.103-0.009,0.205,0.015,0.276,0.069c0.072,0.055,0.05,0.167,0.075,0.331s0.127,0.319,0.213,0.367s0.574,0.017,0.693,0.172
	c0.117,0.155,0.218,0.835,0.223,0.995c0.005,0.16-0.016,0.667-0.053,0.928c-0.038,0.261-0.148,0.702-0.148,0.702L12.625,19.587
	C12.625,19.587,12.699,19.911,12.625,19.587z"/>
<polygon id="skin-leg-l" fill-rule="evenodd" clip-rule="evenodd" fill="#F9CAA9" points="19.515,33.406 18.578,33.633 
	18.425,33.695 18.939,34.543 19.328,35.218 19.5,35.863 20.342,35.741 21.11,35.55 21.865,35.23 21.646,33.577 21.52,32.894 
	20.707,33.123 "/>
<path id="player-sock-l" fill-rule="evenodd" clip-rule="evenodd" fill="#0068B4" d="M20.367,37.549
	c-0.098,0.077-0.395,0.04-0.451,0.117c-0.058,0.077-0.033,0.577,0.092,0.923s0.502,1.385,0.502,1.385l0.893,2.225l0.186,0.848
	l0.119,0.75l0.197,0.309l0.256-0.113l0.342-0.383l0.379-0.289l0.215-0.068l0.291-0.035c0,0-0.024-0.371-0.065-0.621
	s-0.185-1.049-0.261-1.588c-0.074-0.539-0.424-2.528-0.479-2.881c-0.055-0.354-0.085-0.735-0.139-0.868
	c-0.053-0.132-0.299-0.095-0.402-0.099c-0.102-0.004-0.143-0.026-0.15-0.111c-0.006-0.084,0.255-0.203,0.391-0.393
	c0.135-0.189,0.047-0.525,0.047-0.525s-0.143-0.357-0.294-0.4c-0.149-0.045-0.308,0.115-0.604,0.219
	c-0.299,0.104-0.655,0.186-1.065,0.255s-0.694,0.051-0.779,0.158s-0.093,0.229-0.053,0.423c0.038,0.195,0.099,0.295,0.192,0.363
	c0.092,0.066,0.613-0.023,0.675,0.072C20.46,37.317,20.464,37.473,20.367,37.549z"/>
<path fill-rule="evenodd" clip-rule="evenodd" fill="#1A1A18" d="M21.185,34.792c0.124-0.049,0.162-0.251,0.162-0.251
	s-0.005-0.111-0.117-0.087c-0.113,0.025-0.471,0.146-0.477,0.203s-0.02,0.248,0.076,0.248S21.185,34.792,21.185,34.792z"/>
<path id="player-shorts" fill-rule="evenodd" clip-rule="evenodd" fill="#FFFFFF" d="M13.367,33.738l0.164-0.42l1.102-3.527
	l0.308-1.088l0.006-0.809l-0.382-0.113c0,0-0.633-0.357-0.797-0.446c-0.164-0.088-0.381-0.185-0.429-0.271
	c-0.038-0.067,0.396-0.143,0.549-0.09c0.153,0.052,0.726,0.441,0.802,0.379c0.077-0.062,0.22-0.648,0.34-0.781
	c0.121-0.134,0.523-0.294,0.534-0.154c0.01,0.139-0.395,0.67-0.452,0.838s0.868,0.026,1.012,0.094c0.066,0.03,0.118,0.26-0.01,0.299
	c-0.129,0.039-0.635,0.078-0.703,0.191c-0.069,0.113-0.141,1.348-0.141,1.348l0.458,1.441l0.842,3.021l0.614-0.123l1.292-0.313
	l2.098-0.536c0,0,1.12-0.328,1.216-0.343s0.188-0.081,0.15-0.191c-0.038-0.109-0.397-1.221-0.397-1.221s-0.761-2.426-0.907-2.881
	s-0.414-1.25-0.63-1.91c-0.216-0.662-0.492-1.529-0.492-1.529s-0.401-0.985-0.521-1.176c-0.119-0.191-0.236-0.397-0.355-0.441
	c-0.119-0.044-0.332,0.046-0.637,0.082c-0.304,0.036-0.695,0.214-0.767,0.206c-0.071-0.009,0.003-0.315,0.151-0.441
	c0.146-0.126,0.878-0.213,1.053-0.265c0.176-0.053,0.138-0.265,0.138-0.265s-0.012-0.256-0.138-0.294
	c-0.125-0.038-0.653,0.097-0.834,0.147c-0.182,0.05-0.258,0.052-0.438,0.117s-0.831,0.405-1.087,0.463
	c-0.257,0.058-1.168,0.161-1.678,0.19c-0.509,0.029-1.211,0.015-1.211,0.015l-0.875-0.044l-0.548-0.059c0,0-0.537-0.117-0.657-0.103
	c-0.119,0.015-0.182,0.132-0.205,0.265s0.023,0.22,0.123,0.25s0.575,0.015,0.575,0.015s1.065,0.059,1.191,0.104
	c0.126,0.044,0.215,0.103,0.218,0.176c0.004,0.073-0.003,0.132-0.123,0.146c-0.118,0.015-1.125,0.06-1.347,0.06
	c-0.223,0-0.367-0.074-0.451-0.066c-0.086,0.007-0.26,0.022-0.332,0.096c-0.071,0.073-0.12,0.146-0.191,0.323
	S9.979,25.71,9.979,25.71l-0.492,1.654l-0.862,3.087c0,0-0.441,1.603-0.497,1.749c-0.054,0.147,0.007,0.162,0.25,0.258
	c0.244,0.096,0.678,0.221,0.678,0.221l2.381,0.573L13.367,33.738z"/>
<polygon id="skin-arm-l" fill="#F9CAA9" points="21.995,15.629 22.798,14.762 23.507,16.075 26.32,21.574 26.566,21.964 
	26.75,22.14 27.736,23.066 28.332,23.975 28.416,24.871 28.229,24.982 28.106,24.826 28.025,24.349 27.957,24.225 28.007,24.945 
	27.998,25.22 27.896,25.298 27.73,25.188 27.525,24.284 27.358,23.826 27.3,23.791 27.177,23.734 26.827,23.661 26.734,23.799 
	26.812,24.112 27.077,24.621 27.087,24.878 26.882,24.872 26.443,24.373 25.926,23.725 25.724,22.913 25.622,22.493 25.499,22.186 
	22.892,18.485 21.987,17.281 21.322,16.361 "/>
<path id="skin-arm-r" fill="#F9CAA9" d="M7.549,15.449l-0.833-0.812l-0.75,1.25l-2.775,5.404l-0.243,0.391l-0.184,0.179
	l-0.979,0.935l-0.589,0.912l-0.075,0.898c0,0,0.097,0.105,0.186,0.108s0.122-0.154,0.122-0.154l0.079-0.479l0.066-0.125l-0.046,0.72
	l0.014,0.275c0,0,0.008,0.079,0.102,0.078c0.094-0.002,0.164-0.112,0.164-0.112l0.199-0.906l0.164-0.459l0.178-0.092l0.351-0.076
	l0.094,0.138l-0.075,0.312l-0.262,0.512c0,0-0.051,0.214-0.008,0.257c0.041,0.043,0.109,0.043,0.205-0.009
	c0.097-0.051,0.436-0.502,0.436-0.502s0.418-0.418,0.512-0.652s0.195-0.813,0.195-0.813l0.1-0.42l0.121-0.31l2.657-3.778
	l0.978-1.329l0.459-0.703L7.549,15.449z"/>
<polygon id="skin-leg-r" fill-rule="evenodd" clip-rule="evenodd" fill="#F9CAA9" points="10.349,33.406 11.314,33.627
	11.467,33.685 11.02,34.51 10.643,35.194 10.483,35.843 9.639,35.74 8.868,35.565 8.106,35.263 8.293,33.605 8.407,32.919 
	9.224,33.13 "/>
<polygon id="player-sock-r" fill-rule="evenodd" clip-rule="evenodd" fill="#0068B4" points="9.651,37.548 10.104,37.654
	10.029,38.578 9.553,39.974 8.704,42.218 8.534,43.072 8.43,43.823 8.239,44.136 7.981,44.029 7.631,43.654 7.248,43.372 
	7.032,43.31 6.741,43.281 6.816,42.578 7.014,41.001 7.411,38.048 7.569,37.302 7.967,37.195 8.116,37.079 7.69,36.681 
	7.661,36.172 7.934,35.667 8.557,35.97 9.626,36.202 10.405,36.28 10.469,36.765 10.286,37.132 9.612,37.22 "/>
<path fill-rule="evenodd" clip-rule="evenodd" fill="#1A1A18" d="M8.977,34.863c-0.088,0.035-0.084,0.041-0.199-0.053
	c-0.115-0.096-0.166-0.248-0.166-0.248s-0.025-0.097,0.115-0.09c0.141,0.008,0.451,0.129,0.48,0.193s-0.053,0.138-0.053,0.138
	S9.065,34.825,8.977,34.863z"/>
<path id="hair-p" fill="#F7DD7F" d="M13.356,1.766c0,0,0.298-0.725,1.085-0.725c0.754,0,1.08,0.717,1.08,0.717
	s-0.337-0.35-1.029-0.35C13.737,1.408,13.356,1.766,13.356,1.766z"/>
<path fill="#FFFFFF" d="M13.387,2.013c0,0,0.39-0.342,1.111-0.342c0.609,0,1.018,0.39,1.018,0.39s-0.485-0.18-1.045-0.18
	C13.928,1.881,13.387,2.013,13.387,2.013z"/>
<path id="hair" fill-rule="evenodd" clip-rule="evenodd" fill="#F7DD7F" d="M16.253,5.397c-0.009,0-0.124,0.109-0.131,0.089
	c-0.15-0.383-0.146-0.94-0.057-1.369c0.025-0.115-0.223,0.168-0.284,0.62c-0.061,0.452,0.035,0.658,0.035,0.658
	s-1.204-1.768-1.202-1.729c0.057,0.709,0.338,0.728,0.876,1.686c0.033,0.108-1.324-1.417-1.444-1.658
	c-0.122-0.026-0.157,0.229,1.204,1.745c0.091,0.124-1.723-1.221-1.793-1.335c-0.065-0.108,0.199,0.276,1.058,1.068
	c0.09,0.082-1.553-0.318-1.747-1.451c-0.009-0.058-0.188,0.044-0.216,0.792c-0.018,0.534-0.199,1.508-0.212,1.41
	c-0.02-0.135-0.141-0.224-0.301,0.178c-0.062-0.083-0.224-0.64-0.321-1.394c-0.058-0.728,0.233-1.5,0.64-1.905
	c0.291-0.28,0.797-0.554,1.695-0.622c0.777-0.06,1.156-0.005,1.718,0.237c0.543,0.27,0.85,0.612,1,0.851
	c0.151,0.236,0.348,0.562,0.309,1.288c-0.008,0.544-0.224,1.303-0.31,1.542c-0.071,0.197-0.192,0.404-0.174,0.347
	c0.146-0.439-0.005-0.669,0.012-0.792c0.023-0.182-0.237,0.397-0.225,0.209C16.408,5.437,16.253,5.397,16.253,5.397z"/>
<path id="skin-face" fill-rule="evenodd" clip-rule="evenodd" fill="#F9CAA9" d="M12.048,6.62c-0.044,0.186,0.03,0.385,0.122,0.721
	c0.078,0.278,0.359,0.381,0.359,0.381s0.222,0.586,0.517,1.063c0.335,0.484,0.679,0.95,1.244,0.95c0.554,0,0.978-0.523,1.279-0.95
	c0.314-0.484,0.589-1.045,0.589-1.045l0.06-0.117c0,0,0.156,0.058,0.223,0.003c0.129-0.105,0.421-0.466,0.448-0.786
	c0.012-0.146-0.112-0.224-0.112-0.224s-0.072,0.143-0.175,0.282c-0.103,0.139-0.272,0.277-0.272,0.277l0.021-0.854l-0.136,0.125
	c0,0-0.074-0.186-0.065-0.363c-0.009-0.168-0.056-0.273-0.056-0.273L15.95,5.902l-0.051-0.284c0,0,0,0.027-0.027,0.102
	c-0.036,0.025-0.263-0.138-0.301-0.125c-0.045,0.056-0.185-0.001-0.185,0.051c0,0.064-0.235,0.099-0.327,0.017L14.754,5.45
	c-0.074-0.047-0.182,0.048-0.363,0.019c-0.182-0.029-0.787-0.259-0.857-0.317c-0.502-0.289-0.651-0.532-0.651-0.532
	s-0.032-0.016-0.079,0.51c-0.033,0.362-0.098,0.484-0.145,0.717c-0.046,0.233-0.232,0.748-0.232,0.748s-0.01-0.333-0.128-0.346
	C12.179,6.238,12.092,6.433,12.048,6.62z M13.949,6.289l-0.767-0.274c0.476,0.146,0.577,0.064,0.712,0.072
	C14.166,6.107,13.949,6.289,13.949,6.289z M14.314,7.668c-0.096,0.021-0.24-0.029-0.24-0.029l0.128-0.092
	C14.202,7.547,14.246,7.643,14.314,7.668z M14.444,8.318c-0.13,0.077-0.171-0.001-0.231-0.023l0.089-0.071
	C14.383,8.224,14.471,8.245,14.444,8.318z M14.715,7.636l-0.027,0.017l-0.109,0.037l-0.124-0.021l0.16-0.125L14.715,7.636z
	 M15.594,6.047l-0.768,0.275c0,0-0.217-0.183,0.055-0.202C15.017,6.112,15.119,6.193,15.594,6.047z M15.238,6.738
	c0,0-0.047,0.027-0.219-0.002c-0.063-0.009-0.165-0.125-0.188-0.104c-0.146,0.129-0.032,0.255-0.066,0.247
	c-0.091-0.024-0.063-0.238-0.063-0.238s0.008-0.2,0.271-0.237c0.171-0.025,0.519,0.029,0.569,0.028l0.483-0.02l-0.379,0.189
	l-0.229-0.012l-0.039,0.018C15.378,6.607,15.428,6.664,15.238,6.738z M13.584,8.443c-0.07-0.062,0.285-0.02,0.285-0.02
	s0.146,0.031,0.27-0.005c0.123-0.037,0.168,0.035,0.224-0.007c0.2-0.155,0.228,0.03,0.374,0.039c0.144,0.009,0.269-0.025,0.37,0.007
	c0.03,0.01,0.108,0.021,0.108,0.021l-0.167,0.083c0,0-0.227-0.021-0.359,0.026c-0.059,0.02-0.143,0.066-0.143,0.066
	s0.045,0.102,0.027,0.166c-0.033,0.117-0.292,0.111-0.292,0.111l-0.137-0.051l0.009-0.078c0,0,0.115-0.015,0.189-0.016
	c0.053-0.001-0.049-0.141-0.049-0.141s-0.237-0.024-0.332-0.032C13.82,8.6,13.668,8.518,13.584,8.443z M12.693,6.412l0.484,0.02
	c0.05,0.001,0.397-0.053,0.568-0.028c0.264,0.037,0.271,0.237,0.271,0.237s0.029,0.214-0.062,0.238
	c-0.033,0.008,0.08-0.118-0.066-0.247c-0.022-0.02-0.125,0.095-0.188,0.104c-0.172,0.029-0.22,0.002-0.22,0.002
	c-0.19-0.074-0.14-0.131-0.14-0.131l-0.039-0.018l-0.23,0.012L12.693,6.412z"/>
<path id="skin-neck" fill-rule="evenodd" clip-rule="evenodd" fill="#F9CAA9" d="M14.207,11.877l0.861-2.064
	c0,0-0.163,0.244-0.797,0.244c-0.617,0-0.748-0.228-0.748-0.228L14.207,11.877z"/>
</svg>
