<?xml version="1.0" encoding="utf-8"?>
<!-- Generator: Adobe Illustrator 16.0.4, SVG Export Plug-In . SVG Version: 6.00 Build 0)  -->
<!DOCTYPE svg PUBLIC "-//W3C//DTD SVG 1.1//EN" "http://www.w3.org/Graphics/SVG/1.1/DTD/svg11.dtd" [
	<!ENTITY ns_flows "http://ns.adobe.com/Flows/1.0/">
	<!ENTITY ns_extend "http://ns.adobe.com/Extensibility/1.0/">
	<!ENTITY ns_ai "http://ns.adobe.com/AdobeIllustrator/10.0/">
	<!ENTITY ns_graphs "http://ns.adobe.com/Graphs/1.0/">
]>
<svg version="1.1" id="Ebene_1" xmlns:x="&ns_extend;" xmlns:i="&ns_ai;" xmlns:graph="&ns_graphs;"
	 xmlns="http://www.w3.org/2000/svg" xmlns:xlink="http://www.w3.org/1999/xlink" xmlns:a="http://ns.adobe.com/AdobeSVGViewerExtensions/3.0/"
	 x="0px" y="0px" width="29.1px" height="52px" viewBox="0 0 29.1 52" style="enable-background:new 0 0 29.1 52;"
	 xml:space="preserve">
<style type="text/css">
<![CDATA[
	.st0{fill:#1A1A18;}
	.st1{fill-rule:evenodd;clip-rule:evenodd;fill:#1A1A18;}
	.st2{fill:#FBCDAA;}
	.st3{fill-rule:evenodd;clip-rule:evenodd;fill:#FBCDAA;}
	.st4{fill:#0068B4;}
	.st5{fill-rule:evenodd;clip-rule:evenodd;fill:#FFFFFF;}
	.st6{fill-rule:evenodd;clip-rule:evenodd;fill:#0068B4;}
]]>
</style>
<path class="st1" d="M0.41,24.49c0.05-0.24,0.15-0.65,0.28-0.78s0.44-0.52,0.65-0.65c0.14-0.08,0.6-0.46,0.8-0.48
	s0.69-0.17,0.69-0.17s0.42-0.36,0.93-0.86c0.47-0.46,1.02-1.04,1.27-1.31c0.52-0.57,1.19-1.42,1.19-1.42s0.86-1.11,1.14-1.48
	s0.64-0.84,0.64-0.84s-0.06-0.09-0.11-0.16s-0.07-0.07-0.03-0.21c0.1-0.33,0.38-1.19,0.42-1.32c0.05-0.16,0.1-0.43,0.24-0.87
	s0.42-1.43,0.53-1.78s0.39-1.13,0.51-1.36s0.35-0.43,0.48-0.59s0.49-0.42,0.77-0.6s0.69-0.48,0.69-0.48l0.09-0.09l0,0l-0.01-0.22
	l-0.4-0.54l-0.1-0.14l-0.9-2.03L9.9,5.19L9.43,4.27l0.12-0.71L9.38,2.84L9.8,1.99l0.46-0.46l0.24-0.37l0.75-0.06l0.13-0.32
	l0.68-0.13l1.04-0.31l0.05,0.11l1.16,0.3l0.25,0.29l0.38-0.03l0.73,0.72l0.81,1.54l-0.22,0.09l-0.08,0.43l0.23,0.57l-0.17,0.21
	l-0.13,0.16L16.06,5.3l-0.15,0.59l-0.32,0.8l-0.17,0.28l0.04,0.91l0.14,0.05c0,0,0.49,0.13,0.86,0.23c0.37,0.1,0.79,0.26,1.11,0.39
	s0.56,0.24,0.81,0.41s0.48,0.35,0.63,0.52s0.76,0.9,0.98,1.26c0.23,0.37,1.1,1.9,1.1,1.9l0.63,1.08c0,0,0.17,0.28,0.28,0.47
	c0.09,0.15,0,0.27,0,0.27l-0.19,0.16l0.47,0.82c0,0,1.89,3.44,2.27,4.13s1.23,2.25,1.23,2.25l0.65,1.04c0,0,0.97,0.94,1.29,1.29
	s0.75,0.95,0.84,1.19s0.15,1.23,0.15,1.23s-0.1,0.35-0.16,0.44s-0.34,0.16-0.34,0.16s-0.22,0.16-0.34,0.22s-0.33,0.06-0.33,0.06
	l-0.53-0.42c0,0-0.06,0.08-0.15,0.1s-0.3-0.04-0.48-0.12s-0.68-0.62-0.68-0.62l-0.56-0.62c0,0-0.14-0.21-0.23-0.48
	s-0.38-1.39-0.38-1.39l-1.12-1.53l-2.74-3.49L20,18.05c0,0-0.01,0.15-0.01,0.4s0.1,1.58,0.1,1.58s0.14,1.67,0.12,1.81
	s-0.02,0.42,0.03,0.5c0.09,0.15,0.07,0.17,0.12,0.34s0.1,0.66,0.07,0.76c-0.03,0.1-0.12,0.35-0.12,0.35s0.09,0.21,0.15,0.37
	c0.08,0.21,0.11,0.43,0.11,0.58s-0.04,0.61-0.03,0.81s0.5,3.94,0.56,4.64s0.27,2.66,0.27,2.66l0.14,1.15c0,0,0.1,0.49-0.06,0.53
	s-0.7,0.12-0.7,0.12l-0.12,0.7l-0.07,0.56c0,0,0.24,0.13,0.33,0.26s0.1,0.47,0.12,0.68s-0.02,0.32,0.02,0.48
	c0.04,0.16,0.31,0.48,0.41,0.7s0.44,1.55,0.51,1.95s0.13,1.32,0.18,1.7c0.05,0.39,0.16,1.79,0.25,2.12
	c0.09,0.33,0.27,0.98,0.27,0.98s0.18,0.31,0.23,0.49s0.01,0.96,0.01,0.96s-0.04,0.14-0.02,0.27c0.02,0.13,0.12,0.46,0.16,0.6
	s0.38,1.79,0.4,2.03c0.02,0.24,0.04,0.81,0.02,1.02s-0.21,0.75-0.28,0.89s-0.29,0.18-0.33,0.21s-0.05,0.21-0.09,0.27
	s-0.35,0.09-0.41,0.08s-0.07-0.18-0.07-0.18l-1.17,0.01c0,0-0.02,0.12-0.08,0.18s-0.41,0-0.48-0.03s-0.13-0.22-0.13-0.22
	s-0.1-0.03-0.29-0.14c-0.18-0.11-0.19-0.36-0.25-0.56s-0.06-0.45-0.09-0.78c-0.03-0.33,0.16-1.32,0.17-1.59s0-1.32,0-1.32
	s0-0.2-0.05-0.28s-0.14-0.27-0.15-0.36s-0.04-0.24-0.03-0.47s0.14-0.42,0.13-0.59c-0.01-0.16-0.23-0.75-0.39-1.16
	s-0.58-1.49-0.76-2.04c-0.18-0.55-0.35-0.95-0.56-1.57c-0.2-0.62-0.39-1.17-0.44-1.5c-0.01-0.09,0.05-0.28,0.02-0.33
	s-0.16-0.06-0.28-0.2s-0.2-0.45-0.23-0.68s-0.04-0.3-0.05-0.49s0.03-0.39,0.01-0.45s-0.5-0.94-0.5-0.94l-0.52-0.85
	c0,0-0.21,0.02-0.8,0.02c-0.59,0-0.73-0.02-0.86-0.08c-0.04-0.02-0.04-0.18-0.05-0.3c-0.02-0.38-0.02-0.76-0.02-0.76l-0.28,1
	c0,0-0.17,0.05-0.31,0.09s-1.19-0.19-1.19-0.19s-0.41,0.56-0.52,0.8s-0.2,0.62-0.2,0.62s0.24,0.28,0.32,0.54s0.08,0.56,0.05,0.73
	s-0.11,0.31-0.12,0.4s0.21,0.33,0.3,0.59c0.14,0.37,0.29,1.18,0.37,1.59s0.17,1.39,0.25,2.05s0.17,1.55,0.23,1.94
	s0.03,0.48,0.11,0.56s0.2,0.09,0.26,0.23s0.4,1.22,0.39,1.45S14,46.98,13.9,47.11s-0.44,0.27-0.44,0.27s0.06,0.23,0.02,0.27
	s-0.36,0.14-0.45,0.14s-0.2-0.17-0.2-0.17l-0.69,0.23l-0.93,0.3l-1.32,0.44c0,0,0.04,0.05-0.04,0.14s-0.2,0.09-0.32,0.12
	c-0.16,0.05-0.23-0.14-0.23-0.14l-0.6,0.17c0,0,0,0.11-0.03,0.15s-0.3,0.11-0.38,0.08s-0.14-0.17-0.14-0.17s-0.52,0.14-0.66,0.16
	s-0.19,0.01-0.32-0.05c-0.22-0.09-0.34-0.12-0.39-0.44c-0.05-0.32,0.25-0.66,0.52-0.98c0.25-0.31,0.95-0.83,0.95-0.83l1.09-0.92
	l0.62-0.5l0.4-0.61l0.24-0.25c0,0-0.12-0.45-0.28-1.01c-0.19-0.66-0.78-2.7-0.89-3.09s-0.23-0.77-0.31-1.14s-0.09-0.59-0.09-0.59
	s-0.17-0.08-0.26-0.21c-0.14-0.22-0.21-0.71-0.23-1.02c-0.06-0.69,0.11-0.88,0.11-0.88s0.02,0.03-0.14-0.3s-0.27-1.04-0.31-1.41
	s0.13-1.07,0.13-1.07s-0.15-0.08-0.26-0.12s-0.09-0.05-0.08-0.2s0.77-2.65,0.77-2.65l1.06-3.46l0.73-2.16l0.41-1.09l0.25-0.31
	l-0.09-0.24l0.14-0.57l0.21-0.33l0.01-0.47l-0.03-1.98l-0.23-1.98l0-0.14c0,0-0.12,0.21-0.18,0.3c-0.07,0.09-0.07,0.08-0.2,0.03
	s-0.32-0.18-0.32-0.18s-0.64,0.92-0.98,1.28s-1.21,1.09-1.21,1.09S7,21.69,6.45,22.12s-1.93,1.53-1.93,1.53s-0.27,0.58-0.39,0.76
	s-0.42,0.51-0.57,0.59s-0.63,0.39-0.63,0.39l-0.51,0.31c0,0-0.25,0.1-0.39,0.11s-0.37-0.08-0.37-0.08l-0.3-0.28
	c0,0-0.13,0.03-0.22,0.01s-0.2-0.19-0.2-0.19l-0.18,0.03c0,0-0.13-0.1-0.21-0.16s-0.16-0.34-0.16-0.34S0.36,24.73,0.41,24.49z"/>
<path id="skin-face" class="st2" d="M10.41,4.48c0,0,0.28-0.73,0.43-0.85C11,3.51,11.9,3.05,11.9,3.05l0.27,0.02l0.04,0.11
	c0,0,0.34-0.08,0.49-0.08s0.96,0.46,1.14,0.58c0.18,0.12,0.17,0.52,0.28,0.68c0.11,0.15,0.67,1.24,0.77,1.27s0.62-0.6,0.68-0.56
	s0.12,0.1,0.09,0.23s-0.11,0.17-0.15,0.24S15.3,5.92,15.3,5.92l0.22,0.1c0,0,0.04,0.04-0.03,0.14s-0.51,0.35-0.51,0.35l-0.04,1.03
	L14.9,8.26l-1.17,2.09l-0.7,1.24c0,0-0.17-0.25-0.28-0.47c-0.16-0.3-0.28-0.62-0.38-1.04s-0.14-0.99-0.14-0.99s0.45-0.05,0.79-0.26
	c0.35-0.2,1.04-0.66,1.17-0.84s0.24-0.37,0.24-0.37l-0.2-0.18c0,0-0.17,0.28-0.35,0.42c-0.18,0.14-0.95,0.6-1.1,0.67
	c-0.15,0.07-0.24,0.07-0.37,0.09c-0.14,0.02-0.57-0.02-0.68-0.1c-0.12-0.08-0.38-0.59-0.38-0.59S10.9,7.08,10.76,6.7
	c-0.13-0.38-0.32-1.18-0.32-1.18l0.06-0.82L10.41,4.48z"/>
<polygon class="st1" points="11.84,7.18 12.02,7.24 12.07,7.35 11.82,7.45 11.87,7.56 12.22,7.68 12.34,7.64 12.49,7.32 12.36,7.37 
	12.86,7.18 12.98,7.13 13.11,7.08 12.28,6.98 11.5,7.05 11.55,7.16 11.84,7.18 "/>
<polygon class="st1" points="12.75,6.35 12.44,6.21 12.38,6.38 12.64,6.39 12.75,6.35 "/>
<path class="st1" d="M13.49,4.97c0.1-0.14-0.06-0.36-0.06-0.36s0.12-0.06,0.23-0.06s0.38,0.18,0.38,0.18l-0.05-0.11
	c0,0-0.21-0.21-0.36-0.25s-0.49,0.07-0.49,0.07l-0.44,0.19l0.05,0.11c0,0,0.15,0.31,0.3,0.31S13.39,5.11,13.49,4.97z"/>
<path class="st1" d="M10.97,4.48l0.24,0.13c0,0-0.16,0.33-0.06,0.39s0.17,0.14,0.36,0.09c0.11-0.03,0.23-0.18,0.23-0.18l0.14,0.17
	l0.02,0.42l0.06-0.62L11.9,4.74l-0.14-0.2l-0.04-0.11l-0.67-0.11l-0.22,0.09l0.04,0.11L10.97,4.48L10.97,4.48z"/>
<path class="st5" d="M22.08,50.81c0,0-0.41-0.13-0.67-0.11C21.15,50.7,21,50.82,21,50.82l0.24,0.19l0.73-0.02L22.08,50.81z"/>
<polygon id="skin-leg-l" class="st2" points="17.79,36.58 18.92,36.31 20.01,35.9 20.04,35.6 20.08,35.32 20.2,34.64 18.73,34.83 
	17.27,34.95 16.63,34.98 17.14,35.97 17.48,36.44 "/>
<polygon class="st1" points="18.29,35.57 18.49,35.51 18.57,35.38 18.63,35.24 18.1,35.28 18.07,35.52 18.29,35.57 "/>
<path id="player-sock-l" class="st6" d="M18.02,38.31c0.11,0.05,0.42,0.01,0.52,0.04s0.09,0.07,0.03,0.21
	c-0.06,0.13-0.42,0.27-0.42,0.4c0,0.14,0.15,0.83,0.32,1.3s0.63,1.85,0.63,1.85l0.97,2.67c0,0,0.25,0.65,0.27,0.83
	c0.02,0.17,0.03,0.5,0.06,0.62c0.03,0.12,0.01,0.3,0.14,0.29s0.25-0.36,0.35-0.47c0.23-0.25,0.67-0.19,0.84-0.05
	c0.09,0.08,0.22,0.47,0.33,0.48s0,0.06,0.12-0.05s0.04-0.54,0.05-0.62c0-0.08-0.1-0.64-0.09-0.74c0.01-0.1-0.14-0.79-0.14-0.79
	s-0.06-0.25-0.16-0.7s-0.33-2.98-0.42-3.53s-0.23-1.06-0.34-1.44s-0.27-0.55-0.34-0.58s-0.26,0.07-0.26,0.07s-0.13,0-0.26-0.07
	s-0.04-0.17-0.03-0.2s0.22-0.27,0.3-0.46s0.04-0.72-0.03-0.8s-0.15-0.12-0.3-0.14s-0.21,0-0.36,0.05c-0.23,0.08-0.86,0.28-1.05,0.34
	s-0.62,0.17-0.73,0.18c-0.11,0.01-0.22,0.03-0.31,0.11c-0.09,0.08-0.1,0.32-0.05,0.53c0.05,0.21,0.05,0.37,0.15,0.51
	S17.92,38.27,18.02,38.31z"/>
<polygon class="st5" points="10.35,47.42 10.51,47.35 11.04,47.16 11.24,47.44 10.48,47.72 "/>
<path id="player-jersey" class="st6" d="M17.51,15.07l0.76,1.14c0,0,0.06,0.09,0.14,0.1c0.09,0.02,0.19-0.05,0.23-0.06
	c0.08-0.03,0.59-0.34,1.11-0.69s1.15-0.78,1.15-0.78s0.41-0.29,0.62-0.45c0.04-0.03,0-0.11-0.09-0.3c-0.16-0.29-0.45-0.76-0.59-1.02
	c-0.31-0.55-0.73-1.2-0.73-1.2s-0.21-0.38-0.46-0.81s-0.86-1.14-1.02-1.29s-0.33-0.33-0.52-0.43c-0.34-0.18-0.73-0.39-0.97-0.46
	s-0.83-0.28-1.12-0.36c-0.3-0.07-0.63-0.14-0.63-0.14l-0.06-0.01L14.91,9l-0.71,1.31l-0.57,1l-0.59,1c0,0-0.5-0.73-0.64-1.04
	s-0.29-0.74-0.38-1.05s-0.15-0.87-0.15-0.87s-0.14,0.07-0.32,0.18C11.29,9.7,11.18,9.76,11,9.9s-0.58,0.37-0.7,0.5
	s-0.41,0.43-0.5,0.63s-0.15,0.43-0.23,0.64s-0.31,0.95-0.41,1.29s-0.23,0.8-0.34,1.22s-0.38,1.38-0.44,1.61
	c-0.05,0.19-0.05,0.24,0.03,0.33c0.11,0.12,0.2,0.19,0.27,0.25c0.28,0.25,0.68,0.57,0.96,0.78s0.63,0.41,0.94,0.54
	c0.13,0.05,0.15,0,0.16-0.1s-0.01-0.47-0.04-0.84s-0.11-1.52-0.12-1.78s0.02-0.65,0.08-0.73c0.04-0.07,0.15-0.13,0.16,0.04
	s0.32,2,0.39,2.24s0.3,1.13,0.38,1.6s0.18,1.56,0.2,1.88s0.06,1.41,0.06,1.41l0.05,1.06c0,0-0.04,0.17,0.14,0.22s0.39,0.1,0.61,0.13
	c0.35,0.04,1.47,0.15,1.86,0.16s1.7-0.06,2.01-0.12c0.31-0.06,1.14-0.36,1.43-0.45c0.29-0.09,1.04-0.23,1.17-0.23
	c0.13-0.01,0.43-0.05,0.52-0.05c0.09,0.01,0.08-0.3,0.09-0.25s-0.14-2.11-0.14-2.11s-0.1-2.09-0.19-2.3
	c-0.08-0.2-0.35-0.65-0.44-0.69s-0.34,0.17-0.47,0.2s-0.37-0.09-0.5-0.15c-0.13-0.06-0.27-0.34-0.38-0.56
	c-0.17-0.33-0.53-1.01-0.63-1.23c-0.09-0.21-0.34-0.75-0.33-0.85s0.21,0,0.29,0.05S17.51,15.07,17.51,15.07z"/>
<path id="player-shorts" class="st5" d="M13.99,33.81c0.09-0.3,0.19-0.57,0.23-0.78c0.05-0.22,0.08-0.55,0.08-0.8
	s-0.08-3.29-0.08-3.53s0.06-0.36-0.02-0.44s-0.81-0.64-0.99-0.7s-0.35-0.17-0.33-0.2s0.48-0.08,0.63-0.03s0.15,0.06,0.26,0.15
	s0.56,0.39,0.61,0.34s-0.2-0.82-0.18-0.97s0.42-0.67,0.44-0.58s-0.03,1.21,0.06,1.27s0.72,0,0.71,0.1s-0.01,0.22-0.13,0.29
	c-0.12,0.07-0.34,0.15-0.45,0.25s-0.22,0.65-0.22,0.65l0.12,3.36l0.1,2.23c0,0-0.02,0.19,0.11,0.18c0.13,0,1.91-0.01,1.91-0.01
	l1.92-0.18c0,0,2.11-0.24,2.2-0.27s0.04-0.2,0.04-0.2s-0.18-1.52-0.28-2.67s-0.45-3.7-0.52-4.39s-0.2-1.31-0.2-1.31l0.03-0.85
	c0,0-0.15-0.83-0.31-0.86c-0.16-0.03-0.73,0.03-0.99,0.03s-0.65-0.22-0.57-0.3c0.09-0.08,1-0.26,1.17-0.25s0.44,0.03,0.53,0
	s0.02-0.37,0.02-0.37s-0.01-0.33-0.14-0.38s-0.5-0.01-0.5-0.01l-1.04,0.18l-1.5,0.47c0,0-0.97,0.16-1.41,0.15
	c-0.44,0-1.91-0.09-2.26-0.11s-1.2-0.17-1.31-0.15s-0.24,0.3-0.2,0.38s0.61,0.02,0.73,0.05s0.26,0.04,0.26,0.1s-0.51,0.18-0.65,0.24
	s-0.48,0.26-0.54,0.4s-0.6,1.63-0.71,1.99s-0.93,2.99-0.93,2.99l-0.76,2.49c0,0-0.29,0.99-0.37,1.27s-0.13,0.35,0.03,0.43
	s0.27,0.09,0.72,0.2s1.56,0.36,2.06,0.47s1.69,0.34,2.17,0.42c0.07,0.01,0.11,0.02,0.12,0.01c0.03,0,0.06-0.06,0.09-0.15
	C13.83,34.27,13.9,34.12,13.99,33.81z"/>
<path class="st1" d="M17.54,19.91c-0.32,0.07-0.84-0.02-1.07,0.1c-0.23,0.12-0.93,0.73-1.05,0.75c-0.13,0.02-0.53,0.08-0.55-0.03
	s0.8-0.78,1.04-0.92s1.01-0.44,1.33-0.52c0.31-0.08,1.17-0.32,1.21-0.23s-0.01,0.36-0.16,0.48S17.85,19.84,17.54,19.91z"/>
<path id="player-sock-r" class="st4" d="M10.71,43.36c-0.11-0.41-0.41-1.39-0.51-1.78s-0.31-1.06-0.41-1.44
	c-0.18-0.7-0.26-1.25-0.28-1.37s0.06-0.22,0.14-0.34s-0.25-0.19-0.42-0.26s-0.13-0.38-0.18-0.62s-0.1-0.65,0.07-0.69
	s0.73,0.05,1.08,0s1.08-0.3,1.22-0.28s0.2,0.21,0.26,0.33s0.12,0.3,0.12,0.42s0.02,0.17-0.04,0.31s-0.72,0.27-0.75,0.39
	s0.14,0.21,0.28,0.2s0.24-0.05,0.36-0.03s0.28,0.27,0.39,0.56s0.26,1,0.35,1.45s0.4,3.2,0.42,3.61s0.11,0.75,0.02,0.87
	s-0.42,0.39-0.58,0.44s-0.51-0.18-0.59-0.21s-0.23-0.43-0.25-0.47s-0.23-0.16-0.23-0.16s-0.12-0.02-0.18-0.04
	S10.82,43.77,10.71,43.36z"/>
<path id="skin-leg-r" class="st2" d="M11.66,35.49c-0.11,0.22-0.32,0.63-0.32,0.63s-0.96,0.29-1.15,0.29s-1.06-0.07-1.06-0.07
	s-0.16-0.12-0.23-0.31s-0.24-0.69-0.28-1.03s0.13-1.04,0.13-1.04s0.81,0.16,1.17,0.25s0.86,0.22,1.36,0.33s0.88,0.19,0.88,0.19
	S11.77,35.27,11.66,35.49z"/>
<polygon class="st0" points="9.25,35.64 9.1,35.26 9.1,35.12 9.4,35.37 9.75,35.6 "/>
<polygon class="st1" points="12.17,6.36 12.16,6.25 11.96,6.3 11.91,6.37 12.07,6.36 "/>
<path id="skin-arm-r" class="st3" d="M1.03,23.94l0.44-0.44l0.72-0.48l0.69-0.15l0.42-0.41c0,0,0.79-0.75,1.06-1.03
	s0.49-0.46,0.98-1.02s1.54-1.82,1.54-1.82l0.74-0.99l0.71-0.86l0.78,0.67l0.38,0.29l0.61,0.39c0,0-0.13,0.26-0.37,0.56
	s-0.95,1.03-1.3,1.34s-4.26,3.39-4.26,3.39l-0.19,0.28c0,0-0.07,0.22-0.14,0.37s-0.36,0.5-0.36,0.5s-0.6,0.37-0.64,0.37
	s0.11-0.32,0.04-0.39s-0.36-0.16-0.27-0.13s-0.33-0.11-0.33-0.11s0.45-0.23,0.34-0.17s0.61-0.3,0.63-0.36s-0.09-0.06-0.21-0.1
	s-0.21-0.04-0.28,0.01s-0.14,0.09-0.33,0.14s-0.58,0.03-0.69,0.06S1.42,24.1,1.28,24.2S1,24.23,0.92,24.24S1.03,23.94,1.03,23.94z"
	/>
<path id="skin-arm-r-3" class="st2" d="M1.03,24.91l0.6-0.25c0,0,0.14-0.06,0.17-0.28c0.01-0.09-0.07-0.11-0.07-0.11l-0.45,0.17
	c0,0-0.25,0.11-0.33,0.11s-0.13,0.14-0.13,0.14l0.03,0.14L1.03,24.91z"/>
<path id="skin-arm-r-2" class="st2" d="M1.78,25.12l0.3-0.18l0.06-0.14c0,0-0.03-0.08-0.09-0.1S1.9,24.64,1.9,24.64l-0.17,0.18
	l-0.27,0.13l-0.1,0.08c0,0-0.02,0.03,0.02,0.1c0.04,0.07,0.08,0.06,0.08,0.06L1.78,25.12z"/>
<path id="skin-arm-r-1" class="st2" d="M1.94,25.22l0.25-0.13l0.17-0.19h0.16c0,0,0.07,0.13,0.02,0.24s-0.24,0.21-0.24,0.21
	s-0.21,0.07-0.32,0.07s-0.15-0.1-0.15-0.1l0.04-0.08L1.94,25.22z"/>
<path id="skin-arm-l" class="st2" d="M20.43,15.67l0.9-0.59l0.12-0.11l0.57,0.92l3.87,7.1l0.28,0.41l0.21,0.19
	c0,0,0.85,0.66,1.12,0.98c0.28,0.32,0.68,0.97,0.68,0.97s0.16,0.88,0.09,0.95c-0.07,0.08-0.13,0.09-0.21,0.12
	c-0.08,0.02-0.14-0.16-0.14-0.16l-0.09-0.51l-0.08-0.13l0.06,0.76l-0.01,0.29c0,0-0.03,0.05-0.12,0.08
	c-0.08,0.03-0.19-0.12-0.19-0.12l-0.23-0.96l-0.19-0.49l-0.21-0.1l-0.4-0.08l-0.11,0.15l0.09,0.33l0.3,0.54c0,0,0.11,0.19,0.01,0.27
	s-0.24-0.01-0.24-0.01l-0.5-0.53l-0.59-0.69l-0.23-0.86l-0.12-0.45l-0.14-0.33c0,0-4.63-5.98-4.92-6.38
	c-0.29-0.39-0.63-0.88-0.63-0.88L20.43,15.67z"/>
<path id="hair" class="st1" d="M15.76,4.81l-0.24-0.12l-0.35,0.25c0,0-0.13,0.11-0.19,0.11s-0.53-0.69-0.56-0.83
	s-0.22-0.69-0.3-0.75c-0.08-0.06-1.34-0.65-1.34-0.65l-0.35,0.05l-0.05-0.12l-0.61,0.04c0,0-0.98,0.53-1.09,0.61
	c-0.11,0.08-0.55,1.08-0.55,1.08l0.1,0.24l-0.03,0.54l-0.08-0.16L9.71,4.25l0.1-0.72L9.67,2.9l0.38-0.78l0.38-0.33l0.21-0.32
	l0.84-0.09l0.12-0.31l0.54-0.08l0.83-0.29l0.04,0.1l1.11,0.27l0.27,0.3l0.45-0.04l0.6,0.6l0.62,1.21L15.94,3.2l-0.1,0.52l0.19,0.55
	l-0.16,0.18l-0.11,0.14L15.76,4.81z"/>
</svg>
