<?xml version="1.0" encoding="utf-8"?>
<!-- Generator: Adobe Illustrator 16.0.4, SVG Export Plug-In . SVG Version: 6.00 Build 0)  -->
<!DOCTYPE svg PUBLIC "-//W3C//DTD SVG 1.1//EN" "http://www.w3.org/Graphics/SVG/1.1/DTD/svg11.dtd">
<svg version="1.1" id="Ebene_1" xmlns="http://www.w3.org/2000/svg" xmlns:xlink="http://www.w3.org/1999/xlink" x="0px" y="0px"
	 width="24.835px" height="48.281px" viewBox="0 0 24.835 48.281" enable-background="new 0 0 24.835 48.281" xml:space="preserve">
<path fill-rule="evenodd" clip-rule="evenodd" fill="#1A1A18" d="M23.754,20.78c-0.09-0.221-0.98-1.409-0.98-1.409l-0.262-0.979
	l-0.537-2.181l-0.396-1.607c0,0,0.07-0.061,0.133-0.154s-0.016-0.266-0.016-0.266s-0.104-0.816-0.172-1.234
	c-0.109-0.656-0.247-1.879-0.297-2.156c-0.188-1.031-0.375-1.266-0.625-1.516c-0.111-0.11-0.359-0.256-0.578-0.359
	c-0.163-0.076-0.27-0.103-0.375-0.141c-0.167-0.06-0.477-0.101-0.672-0.122c0.235-0.351,0.439-0.702,0.552-1.041
	c0.125-0.422,0.216-0.792,0.219-1.281c0.001-0.185-0.014-0.419-0.044-0.67c0.172-0.084,0.312-0.149,0.312-0.149L19.693,5.57
	c-0.004-0.025-0.005-0.047-0.009-0.072c-0.034-0.108,0.192-0.806,0.251-0.804c0.625,0,0.92-0.087,0.828-0.141
	c-0.094-0.125-0.11-0.234-0.109-0.234c0.286,0.018,0.458-0.141,0.078-0.391c-0.25-0.25-0.29-0.317-0.547-0.688
	c-0.422-0.609-0.567-0.989-1.234-1.438c-0.396-0.267-1.087-0.488-1.609-0.531c-0.435-0.036-0.819,0.032-1.235,0.155
	c-0.066-0.037-0.141-0.074-0.233-0.092c-0.046-0.035-0.093-0.071-0.131-0.119c-0.286-0.365-0.722-0.475-1.197-0.459
	c-0.377,0.012-0.81,0.165-1.031,0.609c-0.261,0.521-0.229,0.914-0.325,1.628c-0.049,0.369-0.11,0.904-0.159,1.294
	c-0.047,0.375-0.16,0.854-0.203,1.109c-0.091,0.54-0.163,0.798-0.172,1.062c-0.014,0.38,0.011,0.559,0.125,0.844
	c0.146,0.363,0.632,0.467,0.632,0.467s-0.053-0.128-0.08-0.186c0.044,0.072,0.305,0.361,0.413,0.265
	c0.077-0.069,0.032-0.429,0.032-0.429c0.111,0.254,0.301,0.312,0.492,0.381c0.174,0.063,0.143-0.349,0.143-0.349
	c0.111,0.143,0.143,0.222,0.348,0.222c-0.021-0.155,0.13-0.364,0.06-0.671c0.16,0.154,0.357,0.375,0.658,0.541
	c-0.008,0.276-0.281,0.873-0.396,1.148c-0.001,0-0.004,0-0.004,0c-0.309,0.062-0.701,0.195-1.083,0.289
	c-0.691,0.17-1.701,0.674-1.984,0.875c-0.285,0.201-0.631,0.511-0.875,0.906c-0.246,0.395-0.625,1.25-0.891,1.922
	s-0.984,2.578-1.141,3.031s-0.225,0.683-0.203,0.766c0.02,0.083,0.203,0.156,0.203,0.156s-0.347,1.347-0.344,1.625
	c0.004,0.277-0.027,0.611,0.203,0.969c0.188,0.291,0.25,0.469,0.875,0.719c0.701,0.28,1.438,0.578,1.438,0.578
	s-0.188,0.156-0.25,0.471c-0.061,0.195-0.01,0.565-0.068,0.607c-0.061,0.043-0.244,0.188-0.359,0.432
	c-0.076,0.16-0.463,1.379-0.463,1.379L9.781,24.44l-0.572,1.65l-0.87,2.337l-1.084,3.221c0,0-0.001,0.121,0.041,0.156
	c0.041,0.034,0.131,0.115,0.131,0.115l0.035,0.041l-0.056,0.268l-0.263,1.068l-0.275,1.022l-0.18,0.594l-0.166,0.19
	c0,0-0.203,0.292-0.33,0.432c-0.128,0.141-0.285,0.546-0.285,0.546s-0.104,0.492-0.104,0.595c0,0.104,0.041,0.354-0.014,0.471
	s-0.178,0.309-0.178,0.309l-0.301,0.838l-0.588,1.676L4.285,41.16l-0.502,1.358c0,0-0.146-0.066-0.224,0.023
	c-0.077,0.089-0.26,0.765-0.26,0.765l-0.798,0.91l-0.458,0.682L0.966,45.9c0,0-0.304,0.291-0.308,0.553
	c-0.004,0.26-0.04,0.381,0.142,0.566c0.085,0.088,0.28,0.186,0.529,0.271c0.04,0.013,0.112,0.207,0.15,0.22
	c0.04,0.013,0.143,0.004,0.179,0.015c0.037,0.012,0.158-0.083,0.191-0.073c0.128,0.038,0.264-0.004,0.264-0.004l0.179-0.044
	l0.208-0.09c0,0,0.002,0.096,0.074,0.138s0.297-0.052,0.354-0.107c0.057-0.054,0.083-0.223,0.083-0.223l1.104-0.653l0.304-0.178
	c0,0,0.152,0.121,0.221,0.119s0.195-0.059,0.248-0.133c0.054-0.074,0.004-0.215,0.004-0.215l0.203-0.097l0.139-0.061
	c0,0,0.061,0.073,0.097,0.104s0.131-0.032,0.18-0.074c0.048-0.042,0.11-0.223,0.11-0.223l0.408-0.243c0,0,0.131-0.151,0.186-0.306
	c0.055-0.152-0.076-0.594-0.105-0.74c-0.031-0.146,0.02-0.613,0.05-0.697c0.028-0.082-0.087-0.422-0.083-0.487
	c0.002-0.065,0.22-0.562,0.33-0.776c0.111-0.215,0.644-1.238,0.787-1.535c0.145-0.297,0.725-1.401,0.725-1.401l0.104-0.356
	c0,0,0.069-0.51,0.056-0.598c-0.005-0.029,0.005-0.131,0.096-0.176c0.205-0.104,0.462-0.332,0.462-0.332s0.141-0.125,0.25-0.33
	c0.109-0.206,0.221-0.471,0.221-0.471l0.18-0.623l0.084-0.297l0.72-1.201l1.101-1.462l0.373-0.278c0,0,0.705,0.128,0.854,0.15
	c0.149,0.021,0.466,0.077,0.526-0.002c0.062-0.08,0.443-1.159,0.443-1.159l0.553-1.438l0.73-2.037l0.249,1.371l0.387,1.943
	l0.084,0.428l0.055,0.06l0.207,0.06l0.025,0.188c0,0-0.288,0.034-0.47,0.122c-0.18,0.089-0.52,0.389-0.588,0.441
	c-0.068,0.054-0.15,0.045-0.437,0.06s-0.72,0.144-0.944,0.278c-0.226,0.136-0.425,0.354-0.835,0.677s-0.861,0.75-0.861,0.75
	l-0.22,0.161c0,0-0.38-0.162-0.44-0.183c-0.06-0.021-0.127-0.099-0.217-0.038c-0.09,0.062-0.277,0.182-0.309,0.268
	c-0.031,0.084-0.24,0.354-0.267,0.498s-0.153,0.812-0.153,0.812s-0.194,0.038-0.24,0.062c-0.045,0.023-0.091,0.191-0.067,0.27
	c0.022,0.077,0.168,0.287,0.168,0.287l-0.473,1.709l-0.094,0.33c0,0-0.169,0.062-0.208,0.118c-0.039,0.056-0.068,0.323-0.082,0.323
	c-0.078,0,0.176,0.145,0.176,0.145l0.004,0.353c0,0-0.178,0.036-0.205,0.122c-0.029,0.087-0.004,0.35,0.011,0.379
	c0.015,0.031,0.16,0.065,0.16,0.065l0.011,0.482c0,0,0.09,0.289,0.213,0.431c0.123,0.141,0.38,0.333,0.635,0.361
	c0.255,0.027,0.443-0.24,0.555-0.406c0.111-0.168,0.419-1.048,0.573-1.408c0.153-0.361,0.976-2.033,0.976-2.033l0.193-0.445
	l0.441-0.326l0.193-0.415l1.375-0.509l1.123-0.455c0,0,0.246,0.132,0.41,0.19s0.734-0.015,0.917-0.073
	c0.274-0.088,0.424-0.191,0.506-0.295c0.082-0.102,0.2-0.344,0.2-0.344l0.433-0.228l1.232-0.724l0.777-0.5l0.362-0.457l0.285-0.67
	l0.084-0.623l0.069-0.802c0,0,0.171-0.048,0.308-0.093c0.113-0.036,0.096-0.103,0.082-0.309c-0.015-0.205-0.082-0.455-0.137-0.734
	s-0.068-0.412-0.164-0.883s-0.342-1.676-0.438-2.176c-0.096-0.5-0.409-1.935-0.409-1.935l-0.324-1.572c0,0-0.223-0.959-0.333-1.365
	s-0.282-0.713-0.282-0.713s0.027-0.189-0.098-0.449s-0.203-0.328-0.203-0.328s0.004-0.547,0.078-1.125
	c0.051-0.395,0.161-0.917,0.219-1.297c0.062-0.42,0.138-0.868,0.219-1.172c0.099-0.373,0.232-0.631,0.281-0.766
	c0.125-0.344,0.219-0.359,0.219-0.359s0.484,0.828,0.781,1.578c0.176,0.446,0.516,1.234,0.766,1.922
	c0.016,0.078-0.01,0.541-0.016,0.609c-0.02,0.217,0.032,0.576,0.032,0.576s0.022,0.195,0.097,0.356s0.455,0.905,0.455,0.905
	s0.228,0.389,0.304,0.459c0.076,0.072,0.359,0.179,0.359,0.179l0.138,0.036c0,0,0.277,0.387,0.373,0.438s0.276,0.029,0.276,0.029
	l0.345-0.192c0,0,0.203,0.004,0.318-0.061c0.114-0.063,0.166-0.266,0.166-0.266s0.121-0.943,0.124-1.084S23.846,21.001,23.754,20.78
	z M11.899,17.997c-0.043,0.083-0.094,0.312-0.094,0.312s-0.073-0.031-0.219-0.094l-0.094-0.078c0,0,0.031-0.175,0.078-0.297
	c0.047-0.125,0.084-0.203,0.109-0.234s0.308,0.075,0.312,0.094C12.005,17.758,11.935,17.88,11.899,17.997z"/>
<path id="skin-arm-l" fill="#F9CAA9" d="M20.29,15.2l0.953-0.453l1.152,4.435l0.157,0.436l0.144,0.216c0,0,0.652,0.87,0.764,1.135
	c0.111,0.264,0.387,1.021,0.387,1.021l-0.105,0.889l-0.203,0.062l-0.087-0.18l0.019-0.482l-0.039-0.136l-0.1,0.71l-0.068,0.264
	l-0.115,0.051l-0.137-0.146L23,22.095l-0.067-0.482l-0.047-0.048l-0.107-0.085l-0.325-0.154l-0.118,0.111l0.01,0.32l0.152,0.559
	l-0.044,0.251l-0.198-0.056l-0.321-0.588c0,0-0.308-0.581-0.366-0.754c-0.059-0.172-0.021-0.67-0.021-0.67l0.068-0.52l-1.629-3.961
	L20.29,15.2z"/>
<path id="player-shirt" fill-rule="evenodd" clip-rule="evenodd" fill="#0068B4" d="M9.415,16.278
	c0.039,0.062,0.104,0.054,0.234,0.109c0.219,0.094,0.328,0.119,0.65,0.234c0.646,0.229,1.75,0.584,1.75,0.584l0.334-0.875
	c0,0,0.479-1.23,0.646-1.646s0.246-0.482,0.342-0.439s0.075,0.147,0.054,0.355c-0.021,0.209-0.25,0.604-0.229,1.084
	c0.021,0.479,0.482,1.252,0.125,1.125c-0.358-0.127-0.357-0.145-0.512-0.146c-0.155-0.001-0.155,0.167-0.155,0.167
	s-0.161,0.434-0.25,0.75c-0.089,0.314-0.255,0.854-0.255,0.854l0.766,0.391c0,0,0.801,0.426,0.969,0.443
	c0.123,0.012,0.623-0.309,0.789-0.324c0.164-0.014,1.214,0.053,1.367,0.078c0.152,0.025,0.298,0.11,0.383,0.2
	c0.084,0.09,0.186,0.278,0.186,0.278l-0.02,0.371l0.442,0.089l0.47,0.089c0,0,0.19,0.094,0.289,0.207
	c0.1,0.114,0.139,0.445,0.139,0.445l0.069,0.416l0.239-0.018c0,0,0.022-0.684,0.084-1.062c0.125-0.771,0.322-1.941,0.406-2.307
	c0.082-0.365,0.197-0.697,0.266-0.844c0.109-0.234,0.174-0.43,0.453-0.938c0.359-0.656,0.484-1.188,0.484-1.188l0.213-0.749
	l0.182-0.104l0.141,0.046l-0.098,0.729l0.791-0.39c0,0,0.068-0.001,0.1-0.079c0.025-0.064,0.003-0.217,0.003-0.217
	s-0.05-0.58-0.097-0.846s-0.078-0.578-0.125-1.062s-0.182-1.48-0.297-1.812s-0.297-0.719-0.625-0.922s-0.594-0.297-0.906-0.344
	c-0.067-0.01-0.299-0.026-0.469-0.031c-0.188,0.094-0.266,0.141-0.469,0.172c-0.109,0.26-0.289,0.756-0.406,1.078
	c-0.188,0.516-0.703,2.125-0.703,2.125s-0.5-0.719-1.031-1.531c-0.366-0.56-0.932-1.373-1.094-1.625
	c-0.049-0.076-0.082-0.097-0.094-0.094c-0.219,0.047-0.625,0.141-1.093,0.281s-0.895,0.319-1.266,0.531
	c-0.373,0.213-0.719,0.453-1,0.828s-1.047,2.203-1.234,2.688S9.759,15.06,9.54,15.669C9.414,16.019,9.337,16.153,9.415,16.278z"/>
<path id="skin-arm-r" fill-rule="evenodd" clip-rule="evenodd" fill="#F9CAA9" d="M9.654,19.372
	c0.119,0.104,1.308,0.547,1.308,0.547l2.719,1.078c0,0,0.258,0.289,0.547,0.469c0.288,0.18,0.529,0.271,0.828,0.344
	c0.298,0.072,1.057,0.15,1.057,0.15s0.082-0.017,0.145-0.068c0.064-0.051,0.016-0.064,0.016-0.064L15.688,21.7l-0.395-0.117
	l0.121-0.061l0.773,0.112l0.594,0.073h0.25c0,0,0.102,0.049,0.172-0.065s-0.058-0.138-0.058-0.138l-0.673-0.127l-0.387-0.086
	l-0.322-0.098l0.055-0.133l1.168,0.182l0.559,0.013c0,0,0.072-0.016,0.08-0.099c0.008-0.082-0.012-0.172-0.012-0.172l-0.809-0.084
	l-0.582-0.1L15.9,20.706l-0.015-0.213l0.219,0.036l0.662,0.118l0.775,0.041c0,0,0.018-0.037,0-0.114s-0.106-0.146-0.106-0.146
	l-0.819-0.158l-1.063-0.262c0,0-0.152-0.007-0.216-0.121c-0.064-0.114,0.016-0.137,0.016-0.137l0.791-0.023
	c0,0,0.043-0.133,0.016-0.197c-0.025-0.064-0.033-0.116-0.178-0.129c-0.145-0.014-0.844-0.045-0.844-0.045s-0.35-0.029-0.52,0.031
	c-0.171,0.061-0.601,0.307-0.66,0.324c-0.154,0.048-1.496-0.637-1.934-0.871s-0.886-0.432-0.922-0.5
	c-0.037-0.068-0.021-0.147,0-0.219c0.049-0.163,0.25-0.688,0.25-0.688s-0.303-0.104-0.886-0.312
	c-0.44-0.158-0.958-0.354-0.958-0.354s-0.478,1.598-0.354,1.916c0.056,0.141,0.104,0.284,0.183,0.391
	C9.444,19.221,9.585,19.312,9.654,19.372z"/>
<path id="player-sock-r" fill-rule="evenodd" clip-rule="evenodd" fill="#0068B4" d="M5.899,37.749
	c-0.096,0.206-1.703,4.77-1.703,4.77l0.311,0.155l0.021,0.289l-0.021,0.535l0.696,0.159l0.519-0.556l0.413-0.906l1.119-2.18
	l0.394-0.824l0.034-0.732l-0.124-0.246l0.043-0.149c0,0,0.295-0.022,0.399-0.058c0.104-0.037,0.189-0.13,0.33-0.223
	c0.143-0.093,0.332-0.52,0.332-0.52s0.193-0.49,0.125-0.646c-0.033-0.074-0.022-0.102-0.287-0.206
	c-0.292-0.114-0.623-0.212-0.859-0.304c-0.236-0.094-0.444-0.326-0.559-0.408c-0.115-0.082-0.174-0.201-0.266-0.199
	c-0.093,0.001-0.178,0.104-0.268,0.199c-0.089,0.095-0.27,0.41-0.309,0.594c-0.037,0.186-0.051,0.41-0.065,0.529
	c-0.016,0.118,0.025,0.324-0.016,0.5C6.119,37.499,5.995,37.543,5.899,37.749z"/>
<path id="skin-leg-r" fill-rule="evenodd" clip-rule="evenodd" fill="#F9CAA9" d="M10.349,33.088c0,0-0.507-0.176-0.821-0.279
	c-0.216-0.07-0.985-0.396-0.985-0.396L7.917,32.17l-0.653,2.189l-0.216,0.746L7.6,35.564l0.345,0.193l1.01,0.393l0.708-1.106
	l0.878-1.296l0.38-0.473L10.349,33.088z M8.177,34.727c-0.101-0.051-0.212-0.154-0.238-0.242s-0.078-0.289,0.084-0.299
	c0.163-0.01,0.275,0.26,0.377,0.287s0.086-0.22,0.183-0.104c0.096,0.116,0.219,0.537,0.15,0.54
	C8.665,34.912,8.276,34.777,8.177,34.727z"/>
<path id="player-sock-l" fill-rule="evenodd" clip-rule="evenodd" fill="#0068B4" d="M12.243,36.441c0,0,0.14-0.004,0.225,0.086
	c0.084,0.09,0.123,0.219,0.186,0.271s0.323-0.094,0.706-0.211c0.384-0.118,1.518-0.62,1.518-0.62l0.273-0.122l0.206-0.367
	l0.228-0.05l0.023,0.331c0,0,0.133,0.151,0.27,0.195c0.137,0.045,0.328,0.029,0.533,0.029s0.387-0.125,0.494-0.254
	c0.109-0.128,0.184-0.395,0.166-0.445c-0.016-0.051-0.211-0.23-0.211-0.23l-0.576-0.914l-0.289-0.693c0,0-0.27-0.074-0.502-0.025
	c-0.23,0.049-0.36,0.244-0.433,0.367s-0.127,0.24-0.127,0.285c0,0.033-0.056,0.029-0.124-0.029c-0.068-0.06-0.246-0.074-0.41-0.074
	s-0.439,0.023-0.439,0.023s-0.383,0.137-0.614,0.256s-0.845,0.641-0.845,0.641s-0.854,0.686-0.894,0.741s-0.155,0.351-0.126,0.507
	c0.031,0.154,0.213,0.329,0.307,0.367C11.882,36.543,12.243,36.441,12.243,36.441z"/>
<path id="skin-leg-l" fill-rule="evenodd" clip-rule="evenodd" fill="#F9CAA9" d="M16.754,33.207l-0.367,0.135
	c0,0,0.019,0.17,0.124,0.406c0.104,0.237,0.464,0.771,0.593,0.931c0.128,0.159,0.418,0.481,0.418,0.481s0.225-0.123,0.398-0.215
	c0.175-0.092,0.397-0.224,0.561-0.312c0.161-0.089,0.502-0.291,0.68-0.402c0.18-0.113,0.289-0.204,0.289-0.204
	s-0.097-0.229-0.109-0.172c-0.014,0.058,0.062-0.187,0.134-0.189s0.207,0.044,0.207,0.044l0.187-0.066c0,0,0.23-0.404,0.27-0.553
	c0.038-0.148,0.045-0.569,0.083-0.741c0.037-0.171,0.027-0.593,0.027-0.593l-0.919,0.162c0,0-1.645,0.322-1.926,0.4
	c-0.28,0.079-0.606,0.162-0.606,0.162L17.114,33c0,0,0.072,0.117-0.027,0.133C16.986,33.147,16.754,33.207,16.754,33.207z"/>
<path id="player-shorts" fill-rule="evenodd" clip-rule="evenodd" fill="#FFFFFF" d="M16.329,32.207
	c-0.246,0.059-0.451,0.118-0.525,0.125c-0.076,0.007-0.084-0.223-0.084-0.223l-0.484-2.477c0,0-0.235-1.32-0.261-1.396
	c-0.026-0.075,0.122-0.694,0.122-0.694s0.38-0.207,0.437-0.264s0.038-0.473,0.116-0.552c0.078-0.078,0.787-0.513,0.932-0.567
	c0.146-0.055,0.298-0.113,0.305-0.155c0.019-0.104-0.429-0.091-0.555-0.091c-0.125,0-0.357,0.146-0.467,0.221
	c-0.109,0.073-0.287,0.235-0.342,0.162c-0.055-0.074,0.264-0.648,0.24-0.898c-0.021-0.249-0.285-0.7-0.339-0.593
	c-0.052,0.107-0.087,1.114-0.165,1.192c-0.079,0.078-1.083,0.216-1.183,0.294c-0.1,0.078-0.11,0.232,0.012,0.302
	c0.121,0.07,0.666,0.082,0.708,0.193c0.041,0.111-0.105,0.976-0.105,0.976l-1.07,3.018c0,0-0.507,1.368-0.809,2.103
	c-0.072,0.177-0.125,0.229-0.15,0.234c-0.115,0.028-0.383-0.012-0.574-0.042s-1.246-0.267-1.725-0.442
	c-0.479-0.177-1.287-0.484-1.493-0.551c-0.204-0.066-0.934-0.371-1.014-0.41s-0.136-0.098-0.149-0.156
	c-0.027-0.117,0.295-0.956,0.295-0.956l0.98-2.78l0.986-2.694l0.648-1.803c0,0,0.188-0.637,0.25-0.77
	c0.057-0.128,0.111-0.262,0.207-0.35c0.096-0.087,0.14-0.091,0.248-0.111c0.107-0.02,0.98,0.208,0.98,0.208s0.43,0.127,0.512,0.134
	c0.081,0.006,0.126,0.007,0.191-0.045c0.067-0.052-0.057-0.382-0.303-0.445c-0.246-0.062-1.109-0.285-1.193-0.375
	c-0.085-0.089-0.077-0.309-0.078-0.453c-0.003-0.145,0.193-0.311,0.266-0.328c0.07-0.018,0.418,0.15,0.578,0.203
	c0.281,0.094,0.549,0.219,0.672,0.25s0.461,0.174,0.531,0.219c0.068,0.044,0.345,0.312,0.562,0.422
	c0.217,0.11,0.56,0.315,0.877,0.363c0.315,0.049,1.149,0.145,1.302,0.122c0.154-0.022,0.369-0.171,0.369-0.171l0.194-0.147
	l0.401,0.015c0,0,0.227-0.094,0.391-0.227c0.072-0.058,0.035-0.229,0.035-0.229s0.305-0.062,0.43-0.093
	c0.123-0.029,0.207-0.045,0.207-0.045s0.084,0.05,0.137,0.152c0.052,0.102,0.057,0.184,0.021,0.27
	c-0.036,0.088-0.214,0.113-0.214,0.113l-0.654,0.168c0,0-0.193,0.032-0.234,0.076c-0.041,0.045,0.068,0.177,0.068,0.177
	s0.191,0.015,0.383,0s0.521-0.081,0.521-0.081s0.223-0.038,0.323,0.029c0.101,0.066,0.233,0.234,0.304,0.504
	c0.069,0.269,0.166,0.665,0.166,0.665l0.635,3.066l0.312,1.566l0.372,1.854c0,0,0.222,1.129,0.213,1.203
	c-0.008,0.076-0.103,0.117-0.103,0.117s-0.262,0.03-0.497,0.09c-0.235,0.059-1.898,0.375-2.224,0.451
	C17.452,31.928,16.575,32.148,16.329,32.207z"/>
<path fill-rule="evenodd" clip-rule="evenodd" fill="#1A1A18" d="M11.771,24.12c0.041-0.133,0.032-0.209,0.032-0.209
	s-0.363,0.151-0.498,0.29c-0.137,0.139-0.362,0.587-0.42,0.761c-0.059,0.172-0.087,0.59-0.1,0.731
	c-0.006,0.07-0.073,0.402-0.014,0.397c0.059-0.007,0.246-0.349,0.355-0.514C11.348,25.252,11.731,24.252,11.771,24.12z"/>
<path fill="#FFFFFF" d="M15.694,1.591c0,0,0.05-0.056-0.355,0.026c-0.312,0.064-0.691,0.247-0.873,0.647
	c-0.144,0.318-0.123,0.565-0.123,0.565s0.322-0.395,0.625-0.698C15.305,1.793,15.694,1.591,15.694,1.591z"/>
<path id="hair-p" fill="#F7DD7F" d="M15.553,1.375c-0.125-0.165-0.572-0.508-1.207-0.349c-0.77,0.192-0.807,0.81-0.967,2.491
	c-0.096,1-0.21,1.411-0.318,1.952c-0.137,0.685-0.349,1.317,0.074,1.938c-0.16-0.235,0.148-0.842,0.148-0.842
	c-0.006,0.125-0.072,0.346-0.016,0.528c0.067,0.213,0.262,0.382,0.289,0.405c-0.154-0.321,0.182-0.868,0.182-0.868
	c0.055,0.293,0.123,0.619,0.463,0.877c-0.082-0.062-0.093-0.706-0.093-0.706c0.067,0.233,0.43,0.358,0.446,0.548
	c-0.02-0.236,0.07-0.495-0.058-0.641c-0.328-0.375-0.469-0.672-0.547-1.047c-0.125-0.516-0.155-0.945-0.109-1.359
	c0.047-0.422,0.108-0.659,0.281-1.234c0-0.396,0.014-0.596,0.109-0.844c0.156-0.406,0.332-0.517,0.546-0.656
	C15.091,1.366,15.553,1.375,15.553,1.375z"/>
<path id="skin-face" fill-rule="evenodd" clip-rule="evenodd" fill="#F9CAA9" d="M15.368,8.981c0.125,0.229,1.016,1.531,1.688,2.5
	c0.141-0.5,0.25-0.813,0.391-1.328c0.066-0.242,0.334-0.938,0.315-0.967c-1.271-0.193-1.22-0.906-1.04-0.719
	c1.242,0.727,1.875,0.264,1.875,0.264c0.476-0.662,0.68-1.105,0.789-1.627c0.086-0.409,0.119-0.885,0.025-1.283
	c-0.096,0.05-0.188,0.099-0.26,0.141c-0.159,0.095-0.209-0.237-0.395-0.021c-0.045,0.053-0.051,0.129-0.066,0.215
	c-0.02,0.121-0.047,0.265-0.047,0.265s-0.053-0.279-0.002-0.48c0.029-0.11,0.026-0.212,0.127-0.267
	c0.191-0.121,0.535-0.065,0.654-0.042c0.006-0.07-0.03-0.186-0.008-0.239c0,0,0,0,0,0c-0.137-0.01-0.338,0.03-0.467,0.079
	c-0.034,0.012,0.002-0.168,0.122-0.207c0.124-0.041,0.243-0.019,0.375,0.004c0.055-0.226,0.083-0.309,0.112-0.436
	c-0.08-0.033-0.035-0.003-0.187-0.079c-0.151-0.091,0.122,0.106-0.106,0.182c-0.424,0.076-0.541,0.052-0.637-0.03
	c-0.061,0,0,0.151-0.166,0.167c-0.188,0.058-0.405,0.063-0.818,0.015C17.186,5.034,16.69,4.913,16.4,4.785
	c-0.308-0.146,0.265,0.37-0.303,1.728c-0.318-0.455-0.501-0.485-0.729-0.501c-0.35-0.025-0.343,0.276-0.343,0.276
	c0.063,0.447,0.325,0.93,0.769,1.06C15.889,7.567,15.524,8.56,15.368,8.981z M17.985,5.547L17.07,5.411
	c0.319,0.016,0.765-0.132,0.896-0.12C18.317,5.323,17.985,5.547,17.985,5.547z M18.219,6.998L18.178,7.16l-0.02,0.02l-0.031-0.061
	L18.045,7.05l-0.068-0.022L18.219,6.998z M18.664,7.099l-0.065,0.05l0.015-0.228l0.046,0.03L18.664,7.099z M18.182,8.194
	l0.001-0.074c0,0,0.106-0.028,0.179-0.038l0.134-0.013c0,0,0.097-0.005,0.093,0.02c-0.02,0.117-0.269,0.141-0.269,0.141
	L18.182,8.194z M17.594,7.838c-0.073-0.051,0.273-0.05,0.273-0.05s0.314-0.024,0.429-0.072c0.114-0.05,0.099,0.021,0.161-0.009
	c0.193-0.09,0.113-0.003,0.256-0.01c0.111-0.005,0.178-0.026,0.277-0.005c0.031,0.005,0.066,0.023,0.066,0.023l-0.042,0.076
	c0,0-0.22,0.005-0.343,0.063c-0.053,0.025-0.1,0.084-0.1,0.084L18.432,7.96c-0.045-0.013-0.191,0.008-0.191,0.008L18.14,7.944
	c0,0-0.112-0.045-0.202-0.043C17.8,7.906,17.684,7.9,17.594,7.838z M17.303,7.663c0.033,0,0.141-0.063,0.176,0.032
	c0,0,0.088,0.066-0.129,0.111L17.303,7.663z M16.569,5.769c0,0,0.146,0.068,0.352,0.068c0.149-0.033,0.225-0.033,0.273-0.025
	c0.028-0.027,0.059-0.054,0.092-0.065c0.216-0.076,0.309-0.018,0.529-0.01c0.092-0.024,0.18-0.037,0.244-0.015
	c0.01,0.06-0.021,0.176-0.078,0.233l0.004,0.004c0,0-0.023,0.018-0.047,0.031c0,0-0.001,0.001-0.002,0.001
	c-0.011,0.006-0.024,0.015-0.025,0.011c-0.014-0.041-0.046-0.051-0.078-0.055c-0.01-0.005-0.014-0.002-0.023-0.006
	c-0.035,0.002-0.071,0.014-0.096,0.029c-0.055,0.032-0.13,0.113-0.223,0.101c-0.092-0.01-0.164-0.067-0.238-0.13
	c-0.135,0.004-0.312,0.005-0.337-0.004C16.876,5.921,16.569,5.769,16.569,5.769z M15.809,6.928
	c-0.064,0.021-0.061-0.058-0.105-0.091c-0.047-0.033-0.141-0.018-0.141-0.018l-0.045-0.021c0,0-0.082-0.051-0.1-0.107
	c-0.077-0.248-0.125-0.451-0.125-0.451s0.121-0.055,0.167-0.024s0.058,0.094,0.05,0.23c-0.016,0.323,0.223,0.255,0.299,0.316
	C15.885,6.822,15.862,6.91,15.809,6.928z"/>
<path id="hair" fill-rule="evenodd" clip-rule="evenodd" fill="#F7DD7F" d="M14.264,5.631c0.14,0.653,0.627,1.057,0.627,1.057
	s0.02,0-0.016-0.107c-0.02-0.058-0.122-0.23-0.122-0.459c0.049-0.241,0.119-0.428,0.479-0.443c0.107,0.015,0.516-0.016,0.75,0.25
	c0,0,0.013-0.115,0.069-0.456c0.016-0.092-0.047-0.442-0.069-0.716c-0.033-0.406,0.125-0.406,0.266-0.359s1.656,0.562,2.12,0.377
	c-0.363-0.22-0.145-0.332-0.103-0.373c0.084-0.083,0.308,0.422,0.877,0.311c-0.384-0.358-0.31-0.604,0.033-0.388
	c0.524,0.19,0.692,0.145,1.213,0.114c-0.171-0.158-0.149-0.181-0.237-0.285c0.203-0.001,0.34,0.036,0.385-0.012
	c0.012-0.014-0.16-0.127-0.361-0.407c-0.199-0.276-0.493-0.778-0.566-0.857c-0.057-0.07-0.229-0.33-0.43-0.536
	c-0.158-0.165-0.334-0.274-0.49-0.383c-0.115-0.081-0.467-0.233-0.811-0.322c-0.284-0.073-0.582-0.092-0.582-0.092
	c-0.8-0.081-1.361,0.188-1.639,0.368c-0.312,0.201-0.628,0.444-1.011,0.995c-0.196,0.282-0.303,0.419-0.444,1.072
	C14.063,4.631,14.124,4.979,14.264,5.631z M14.598,3.597c0.112-0.172-0.098,0.392-0.14,0.716c-0.045,0.348-0.046,0.656-0.065,0.563
	C14.28,4.371,14.387,3.923,14.598,3.597z"/>
</svg>
