<?xml version="1.0" encoding="utf-8"?>
<!-- Generator: Adobe Illustrator 16.0.4, SVG Export Plug-In . SVG Version: 6.00 Build 0)  -->
<!DOCTYPE svg PUBLIC "-//W3C//DTD SVG 1.1//EN" "http://www.w3.org/Graphics/SVG/1.1/DTD/svg11.dtd">
<svg version="1.1" id="Ebene_1" xmlns="http://www.w3.org/2000/svg" xmlns:xlink="http://www.w3.org/1999/xlink" x="0px" y="0px"
	 width="32.301px" height="47.45px" viewBox="0 0 32.301 47.45" enable-background="new 0 0 32.301 47.45" xml:space="preserve">
<path fill-rule="evenodd" clip-rule="evenodd" fill="#1A1A18" d="M0.57,17.454C0.586,17.333,0.6,17.085,0.6,17.085
	s0-0.133,0.109-0.309c0.109-0.178,0.705-0.422,0.914-0.477c0.208-0.055,0.846-0.048,1.148-0.021
	c0.306,0.026,1.438,0.391,1.594,0.391s1.938-0.266,2.812-0.391s1.797-0.25,1.875-0.312s0.375-0.641,0.375-0.641
	s-0.086-0.055-0.094-0.141s0.04-0.16,0.109-0.328c0.109-0.266,1.049-2.088,1.172-2.375s0.578-1.219,0.734-1.531
	s0.51-0.967,0.703-1.234c0.203-0.281,0.562-0.609,0.938-0.828c0.145-0.084,0.298-0.182,0.456-0.275
	c-0.058-0.197-0.099-0.328-0.128-0.334c-0.16-0.035-0.814,0.336-1.183,0c-0.244-0.188-0.179-0.453-0.344-0.648
	c-0.19-0.227-0.401-0.207-0.231-0.445c0.01-0.016-0.078-0.031-0.166-0.126c-0.134-0.112,0.01-0.291-0.045-0.534
	c-0.137-0.05-0.213,0.004-0.414-0.148c-0.125-0.064,0.104-0.736,0.104-0.736l0.149-0.482l0.028-0.095
	c-0.092-0.033-0.193-0.077-0.193-0.077s0.127-0.012,0.223-0.02l0.008-0.025c0,0-0.188-0.074-0.16-0.352
	c0.028-0.277,0.082-0.494,0.082-0.494s-0.398-0.049-0.639-0.203c-0.197-0.129,0.175-0.305-0.04-0.346
	c-0.228-0.045-0.1-0.312,0.08-0.423c0.313-0.194,0.358-0.292,0.601-0.56c0.346-0.381,0.432-0.502,0.547-0.627
	c0.324-0.35,0.727-0.611,1.168-0.792c0.398-0.167,1.299-0.332,2.216-0.223c0.312,0.05,0.873,0.157,1.344,0.423
	c0.097-0.029,0.23-0.055,0.381-0.064c0.05-0.028,0.103-0.055,0.143-0.1c0.24-0.26,0.441-0.351,0.672-0.462
	c0.229-0.111,0.52-0.175,0.807-0.145c0.389,0.041,0.704,0.151,0.942,0.394c0.209,0.215,0.359,0.518,0.463,1.182
	c0.088,0.562,0.211,1.658,0.375,2.619c0.158,0.924,0.367,1.609,0.256,2.1C20.402,7.243,20.281,7.315,20.1,7.54
	c-0.377,0.471-0.57,0.145-0.57,0.145c0.002,0.111-0.34,0.191-0.414,0.15c-0.125-0.071-0.127-0.221-0.055-0.418
	c-0.191,0.259-0.32,0.273-0.32,0.273c-0.113,0.031-0.456,0.112-0.287-0.212c-0.266,0.217-0.338,0.05-0.364-0.222
	c0.015-0.057-0.035-0.277-0.122-0.506c-0.083-0.217-0.265-0.447-0.29-0.543c-0.117,0.048-0.221,0.193-0.352,0.348
	c-0.156,0.185-0.461,0.38-0.695,0.601c-0.111,0.107-0.37,0.54-0.512,0.767c-0.012,0.021-0.025,0.06-0.037,0.084
	c0.191-0.022,0.387-0.041,0.533-0.041c0.406,0,1.045,0.111,1.266,0.172s1.036,0.342,1.667,0.499s0.912,0.267,1.725,0.47
	c0.65,0.162,1.309,0.289,1.396,0.363s0.105,0.215,0.105,0.215s1.441,0.752,1.617,0.855s0.518,0.348,0.662,0.566
	c0.145,0.22,0.305,0.602,0.359,0.953s0.184,1.485,0.184,1.485l0.227,2.173l0.256,2.292c0,0,0.391,0.131,0.5,0.176
	s0.148,0.09,0.258,0.186C26.947,18.465,27.402,19,27.402,19l0.156,0.146c0,0,0.293-0.25,0.395-0.303
	c0.102-0.057,0.256-0.145,0.33-0.086s0.135,0.316,0.135,0.316s0.094,0.242,0.078,0.375s-0.357,0.584-0.406,0.668
	c-0.047,0.082-0.17,0.113-0.26,0.193s-0.992,0.469-1.096,0.473c-0.102,0.004-0.215-0.109-0.279-0.084
	c-0.109,0.045-0.213,0.145-0.301,0.117c-0.152-0.043-0.223-0.174-0.357-0.279c-0.131-0.102-0.254-0.225-0.428-0.42
	c-0.174-0.197-0.508-0.639-0.621-0.947s-0.471-1.969-0.471-1.969l-0.504-2.271c0,0-0.232-1.071-0.377-1.559
	c-0.037-0.121-0.078-0.266-0.309-0.314c-0.213-0.045-0.848-0.123-0.848-0.123s-0.201,0.588-0.242,0.7s-0.129,0.192-0.273,0.175
	c-0.266-0.033-1.236-0.188-1.236-0.188s-0.342-0.078-0.389-0.031s0.031,1.787,0.031,2.346s0.125,2.697,0.15,3.042
	s0.229,1.248,0.217,1.484s-0.203,0.584-0.203,0.584s0.107,0.15,0.156,0.283c0.049,0.135,0.092,0.43,0.084,0.531
	s-0.02,0.279-0.02,0.279l0.104,0.193c0,0,0.096,0.133,0.18,0.24c0.084,0.109,0.242,0.438,0.314,0.691
	c0.072,0.256,0.102,0.83,0.1,1.051c-0.002,0.219-0.064,0.836-0.143,1.168c-0.078,0.331-0.303,0.84-0.381,1.057
	c-0.08,0.215-0.121,0.438-0.121,0.438s0.068,0.824,0.137,1.088c0.049,0.184,0.25,0.746,0.33,0.998
	c0.055,0.176,0.189,0.541,0.283,0.838c0.059,0.186,0.328,0.828,0.484,1.188c0.09,0.207,0.203,0.406,0.312,0.609
	s0.238,0.348,0.158,0.439s-0.611,0.453-0.611,0.453l0.406,0.701l0.09,0.111l0.42,0.215c0,0,0.23-0.01,0.396,0.025
	c0.168,0.037,0.307,0.135,0.436,0.174s0.203,0.043,0.311,0.152c0.105,0.107,0.215,0.447,0.324,0.52s0.287-0.043,0.41,0.021
	c0.125,0.066,0.965,0.662,0.965,0.662l1.459,1.191l1.396,1.035c0,0,0.455,0.133,0.611,0.117c0.154-0.014,0.232-0.104,0.535-0.074
	c0.305,0.031,1.012,0.18,1.199,0.268c0.186,0.086,0.316,0.311,0.436,0.434s0.27,0.154,0.299,0.285
	c0.027,0.133,0.027,0.398,0.027,0.398l-0.061,0.381c0,0,0.195,0.09,0.209,0.162c0.016,0.072-0.082,0.354-0.135,0.396
	c-0.055,0.043-0.275,0.029-0.275,0.029l-0.355,0.867l-0.137,2.221l0.014,0.51c0,0,0.164,0.035,0.178,0.123
	c0.014,0.086,0.012,0.266-0.027,0.322c-0.041,0.059-0.287,0.119-0.287,0.119l-0.084,0.248c0,0,0.111,0.281,0.057,0.34
	c-0.055,0.057-0.109,0.221-0.164,0.248c-0.055,0.029-0.221-0.043-0.221-0.043l-0.266,0.16l-0.227,0.311c0,0-0.16,0.104-0.246,0.102
	c-0.084-0.002-0.236-0.064-0.236-0.064s-0.137,0.02-0.311,0.064c-0.232,0.059-0.209-0.035-0.273-0.059
	c-0.164-0.059-0.232-0.498-0.232-0.676s0.035-0.957-0.02-1.197c-0.064-0.273-0.617-2.793-0.695-2.863
	c-0.08-0.07-0.451-0.102-0.479-0.145c-0.025-0.045,0.121-0.438,0.121-0.438l-0.914-0.561l-2.053-1.029c0,0-1.096-0.473-1.23-0.516
	c-0.135-0.045-0.262-0.217-0.369-0.236c-0.064-0.012-0.303-0.023-0.535-0.131c-0.139-0.066-0.395-0.32-0.451-0.412
	c-0.059-0.092-0.178-0.295-0.178-0.295l-0.891-0.322c0,0-0.67-0.279-0.943-0.428c-0.273-0.146-0.547-0.32-0.672-0.402
	c-0.123-0.082-0.26-0.213-0.389-0.309c-0.131-0.098-0.432-0.463-0.432-0.463s-0.077,0.061-0.199,0.121
	c-0.156,0.078-0.135,0.035-0.234,0.016s-0.941-1.395-0.941-1.395l-0.514-0.838l-0.369-0.641l-0.329-0.572l-0.205-0.463l-0.542,0.434
	l-0.525,0.383l-1.293,1.059c0,0-0.692,0.566-0.841,0.572c-0.15,0.006-0.398-0.213-0.398-0.213l-0.508-0.916L11.219,32.3
	l-0.535,0.393l-0.154,0.264l-0.171,0.961c0,0,0.151,0.18,0.192,0.34c0.04,0.16,0.067,0.531,0.061,0.705
	c-0.006,0.176-0.023,0.453-0.07,0.543c-0.045,0.088-0.133,0.121-0.158,0.172c-0.024,0.049-0.05,0.08-0.043,0.131
	c0.005,0.051,0.105,0.072,0.138,0.201c0.032,0.127,0.027,0.275,0.027,0.275s-0.063,0.617-0.111,0.904
	c-0.049,0.287-0.446,1.965-0.528,2.346s-0.523,2.508-0.569,2.68s-0.041,0.455-0.046,0.553c-0.006,0.098,0.104,0.1,0.117,0.203
	c0.015,0.102-0.119,0.578-0.118,0.711c0.001,0.131,0.259,1.176,0.26,1.484c0.001,0.307-0.027,0.721-0.137,0.793
	c-0.108,0.072-0.534,0.088-0.534,0.088s0.027,0.266-0.027,0.338c-0.053,0.074-0.369,0.076-0.424,0.029
	c-0.054-0.045-0.109-0.293-0.109-0.293l-0.314,0.045c0,0-0.016,0.234-0.068,0.279c-0.055,0.043-0.234,0.045-0.315,0.029
	s-0.15-0.252-0.15-0.252l-0.288-0.027l-2.706,0.352c0,0-0.019,0.207-0.085,0.25c-0.068,0.043-0.356,0.045-0.424-0.016
	c-0.068-0.059-0.069-0.293-0.069-0.293l-0.191-0.014c0,0-0.248-0.045-0.384-0.074c-0.137-0.031-0.343-0.131-0.451-0.176
	c-0.109-0.045-0.234-0.117-0.302-0.191s-0.138-0.219-0.13-0.381c0.008-0.164,0.061-0.486,0.157-0.619s0.272-0.277,0.507-0.412
	c0.234-0.133,1.819-0.807,2.012-0.955c0.193-0.148,0.506-0.367,0.65-0.479s0.58-0.357,0.637-0.418
	c0.056-0.061,0.043-0.338,0.117-0.428c0.075-0.088,0.225-0.131,0.252-0.189c0.028-0.061,0.102-1.652,0.102-1.652l0.172-2.459
	c0,0,0.057-1.168,0.098-1.373c0.041-0.207,0.205-0.59,0.205-0.59s-0.178-0.117-0.24-0.213c-0.062-0.096-0.103-0.174-0.116-0.311
	s0.024-1.023,0.053-1.176c0.03-0.152,0.158-0.252,0.204-0.363C7.252,33.901,7.345,33.8,7.345,33.8l-0.048-0.656
	c0,0-0.041-0.584-0.082-1.146c-0.043-0.562-0.068-0.791-0.021-1.062c0.047-0.27,0.127-0.457,0.127-0.457l0.359-0.611l0.625-0.805
	l0.475-0.641l-0.104-0.25l0.042-0.266l0.704-0.75l3.741-3.325l0.523-0.541c0,0,0.13-0.219,0.117-0.355s-0.098-0.17-0.119-0.469
	c-0.021-0.297,0.149-0.305,0.119-0.422c-0.029-0.115-0.156-0.797-0.156-0.797s-0.355-1.752-0.453-2.25
	c-0.133-0.682-0.172-0.953-0.281-1.406c-0.109-0.453-0.115-0.533-0.281-0.609c-0.375-0.172-0.512-0.232-0.594-0.219
	c-0.029,0.005-0.045,0.084-0.126,0.178c-0.15,0.174-0.364,0.453-0.546,0.666c-0.281,0.33-0.547,0.557-0.875,0.703
	s-0.672,0.158-1.375,0.188c-0.705,0.029-4.783-0.209-4.953-0.156c-0.203,0.062-0.391,0.172-0.391,0.172s-0.252,0.129-0.375,0.156
	c-0.123,0.029-0.349,0.078-0.525,0.062c-0.178-0.016-1.068-0.141-1.068-0.141s-0.15,0.01-0.246-0.051
	c-0.095-0.061-0.137-0.322-0.231-0.338c-0.097-0.016-0.261,0.029-0.37,0.043s-0.343-0.25-0.343-0.25S0.553,17.575,0.57,17.454z"/>
<path id="skin-face" fill="#F9CAA9" d="M15.345,7.349l-0.133-0.668c0,0-0.156-0.009-0.244-0.041
	c-0.071-0.026-0.079-0.074-0.053-0.092c0.061-0.037,0.463-0.093,0.621-0.408c0.125-0.25,0.018-0.653-0.271-0.661
	c-0.149-0.005-0.326,0.032-0.443,0.108c-0.285,0.187-0.368,0.273-0.521,0.695c-0.121,0.336-0.36-0.08-0.659-1.061
	c-0.144-0.473,0.038-0.973,0-0.955c-0.533,0.248-0.599,0.2-0.871,0.139c-0.042-0.01-0.273-0.049-0.104-0.193
	c0.06-0.062-0.205,0.068-0.566-0.027c-0.26-0.082,0.086-0.303-0.153-0.199c-0.209,0.091-0.115,0.088-0.409,0.168
	c-0.052,0.016-0.098,0.381-0.098,0.381s0.301,0.164,0.538,0.116c0.236-0.049-0.312,0.087-0.446,0.078
	c-0.163-0.009,0.023,0.157,0.041,0.225c0.007,0.022,0.144,0.066,0.281,0.106c0.1,0.006,0.201,0.014,0.227,0.012
	c0.166,0.006,0.089,0.08,0.445-0.029c0.018,0.016-0.271,0.155-0.384,0.187c-0.041,0.011-0.101,0.015-0.159,0.015
	c-0.041,0.019-0.111,0.051-0.153,0.074c-0.071,0.043-0.22,0.062-0.22,0.062l-0.015-0.177l-0.048,0.006c0,0-0.193,0.449-0.221,0.582
	c-0.027,0.131-0.158,0.408-0.093,0.471c0.159,0.033,0.317,0.066,0.372,0.049c-0.004,0.023,0.053,0.436,0.023,0.5
	c-0.088,0.194,0.273,0.143,0.414,0.047c0.143-0.094,0.229,0.021,0.229,0.021L12.262,6.96l-0.31,0.121c0,0-0.165,0.035-0.111,0.166
	c0.027,0.068,0.106-0.004,0.205,0.136c0.108,0.151,0.106,0.444,0.233,0.583c0.311,0.336,0.749-0.021,1.169-0.055
	c0.124-0.008,0.192,0.193,0.192,0.193l0.709,2.252c0,0,0.484-0.703,0.672-1.016c0.32-0.535,0.609-0.984,0.609-0.984
	C15.619,8.423,15.345,7.349,15.345,7.349z M14.551,6.351c-0.071-0.02-0.034-0.102,0.011-0.165l0.113-0.009
	c0.146-0.018,0.407-0.09,0.408-0.377c0.002-0.165-0.037-0.07,0.047-0.1c0.084-0.028,0.167,0.023,0.167,0.103
	c-0.001,0.08-0.001,0.006-0.114,0.303C15.158,6.173,15.05,6.23,15.05,6.23l-0.057,0.022c0,0-0.07,0.053-0.227-0.004
	C14.749,6.241,14.645,6.31,14.551,6.351z"/>
<path id="hair-p" fill="#F7DD7F" d="M17.216,1.354c0.078-0.093,0.375-0.289,0.637-0.403c0.177-0.077,0.4-0.103,0.776-0.022
	c0.764,0.163,0.783,0.564,1.051,2.205c0.174,1.063,0.211,1.604,0.32,2.092c0.148,0.672,0.432,1.603-0.229,2.177
	c0.211-0.184-0.104-0.835-0.104-0.835c0,0.123,0.053,0.344-0.012,0.52c-0.076,0.207-0.275,0.363-0.303,0.385
	c0.166-0.309-0.133-0.971-0.133-0.971c-0.066,0.285-0.15,0.603-0.496,0.84c0.084-0.057,0.039-0.893,0.039-0.893
	c-0.076,0.227-0.354,0.535-0.379,0.722c0.09-0.67-0.468-0.63-0.457-1.417c0.186-0.685,0.385-1.115,0.286-2.027
	c0.13-0.266,0.09-0.96,0.063-1.221c-0.041-0.399-0.219-0.723-0.42-0.875C17.574,1.413,17.216,1.354,17.216,1.354z"/>
<path id="hair" fill-rule="evenodd" clip-rule="evenodd" fill="#F7DD7F" d="M17.835,3.99c-0.01-0.266-0.049-0.862-0.4-1.327
	c-0.28-0.447-0.878-0.884-1.137-1.036c-0.18-0.105-1.057-0.608-2.487-0.382c-0.614,0.088-0.958,0.287-1.255,0.428
	c-0.126,0.06-0.292,0.205-0.411,0.314c-0.12,0.109-0.28,0.275-0.385,0.398c-0.074,0.078-0.128,0.145-0.164,0.2
	c-0.139,0.171-0.248,0.313-0.383,0.443C10.965,3.269,10.84,3.3,10.852,3.313c0.045,0.049,0.182,0.016,0.385,0.021
	c-0.09,0.103-0.211,0.226-0.385,0.38c0.605,0.207,0.74,0.07,1.357-0.189c0.346-0.209,0.416,0.038,0.025,0.389
	c0.566,0.123,0.801-0.379,0.883-0.294c0.04,0.042,0.174,0.224-0.193,0.437c0.379,0.144,0.669-0.113,0.749-0.177
	c0.13-0.077,0.286,0.016,0.274,0.223c-0.007,0.173-0.125,0.506-0.082,0.724c0.113,0.568,0.242,1.179,0.291,1.039
	c0.101-0.296,0.431-0.541,0.754-0.652c0.202-0.068,0.41-0.129,0.705,0.049c0.121,0.057,0.315,0.332,0.273,0.614
	c-0.034,0.223-0.057,0.487-0.398,0.735c0.048,0.194,0.078,0.269,0.117,0.441c0.092,0.406,0.193,0.701,0.246,0.588
	c0.475-0.891,1.047-1.08,1.293-1.385C17.507,5.808,17.868,5.147,17.835,3.99z M16.978,5.046c-0.074,0.111,0.048-0.283,0.104-0.75
	c0.052-0.434-0.107-1.245,0.028-0.978C17.367,3.822,17.384,4.443,16.978,5.046z"/>
<path fill="#FFFFFF" d="M16.682,1.589c0,0,0.097-0.088,0.485,0.035c0.345,0.107,0.524,0.163,0.691,0.545
	c0.139,0.313,0.164,1.035,0.164,1.035s-0.273-0.676-0.572-1.012C17.029,1.716,16.682,1.589,16.682,1.589z"/>
<path id="skin-leg-l" fill="#F9CAA9" d="M10.875,31.478l0.223,0.432l-0.738,0.57l-0.137,0.256l-0.248,1.152l-1.146,0.086
	l-0.772-0.072l-0.278-0.113l-0.084-0.727c0,0,0.324-0.156,0.469-0.299s0.235-0.314,0.211-0.414
	c-0.023-0.102-0.216-0.244-0.307-0.229c-0.092,0.018-0.022,0.234-0.08,0.307c-0.059,0.07-0.23,0.242-0.309,0.211
	s-0.082-0.135-0.082-0.135L7.547,31.81c0,0-0.023-0.445,0.02-0.744c0.043-0.297,0.105-0.455,0.105-0.455l0.403-0.611l1.011-1.244
	l0.543,0.854l0.885,1.492l0.617-0.043L10.875,31.478z"/>
<path id="player-sock-l" fill="#0068B4" d="M10.057,35.431c-0.129,0.133-0.192,0.088-0.294,0.154
	c-0.103,0.066-0.2,0.215-0.212,0.332c-0.014,0.117,0.018,0.17,0.152,0.217c0.136,0.047,0.385-0.066,0.41,0.057
	c0.026,0.123,0.014,0.535-0.098,0.975c-0.108,0.441-0.355,1.59-0.355,1.59l-0.548,2.668l-0.247,1.146l-0.055,0.367l-0.259,0.053
	L8.26,43.425l-0.674-0.012l-0.115-0.91L7.1,41.974c0,0-0.012-1.043,0.029-1.352c0.041-0.311,0.319-3.514,0.303-3.609
	c-0.016-0.096,0.058-0.176,0.083-0.305c0.024-0.131,0.145-0.416,0.187-0.471c0.043-0.057,0.082-0.059,0.199-0.111
	c0.076-0.033,0.061-0.186,0.035-0.264c-0.027-0.078-0.077-0.031-0.176-0.068c-0.098-0.039-0.262-0.107-0.344-0.213
	s-0.022-0.447-0.045-0.527c-0.023-0.078,0.016-0.252,0.037-0.4s0.104-0.34,0.213-0.348c0.109-0.006,1.035,0.113,1.035,0.113
	l1.305-0.082c0,0,0.123,0.025,0.158,0.186c0.034,0.16,0.089,0.324,0.062,0.463C10.153,35.122,10.188,35.298,10.057,35.431z"/>
<path id="skin-arm-l" fill-rule="evenodd" clip-rule="evenodd" fill="#F9CAA9" d="M26.859,20.334c0,0-0.055,0.039-0.148,0.062
	c-0.092,0.023-0.207-0.072-0.26-0.062c-0.051,0.012-0.133,0.066-0.195,0.098c-0.062,0.033-0.123-0.104-0.123-0.104
	s-0.379-0.301-0.494-0.414c-0.115-0.111-0.455-0.688-0.518-0.811c-0.062-0.125-0.248-0.738-0.248-0.738l-0.578-2.695L23.658,12.9
	c0,0-0.088-0.125-0.186-0.147c-0.121-0.029-0.295-0.07-0.467-0.115c-0.359-0.094-0.625-0.141-0.625-0.141s0.123-0.571,0.203-1.035
	c0.078-0.465,0.127-1.376,0.127-1.376s0.904,0.411,1.248,0.583c0.174,0.087,0.666,0.454,0.779,0.604
	c0.115,0.15,0.238,0.467,0.283,0.693s0.787,6.173,0.787,6.173l0.035,0.135c0,0,0.625,0.191,0.775,0.303
	c0.15,0.109,0.834,0.945,0.834,0.945l0.195-0.023c0,0,0.273-0.285,0.34-0.328s0.158-0.072,0.158-0.072s0.059,0.1,0.045,0.182
	c-0.012,0.082-0.258,0.545-0.402,0.652c-0.145,0.105-0.674,0.307-0.674,0.307L26.859,20.334z"/>
<path id="player-shirt" fill-rule="evenodd" clip-rule="evenodd" fill="#0068B4" d="M21.662,13.341
	c-0.047,0.062-0.102,0.039-0.188,0.031c-0.27-0.025-0.891-0.156-1.531-0.297c-0.723-0.158-1.62-0.283-1.811-0.336
	c-0.191-0.051-0.297-0.359-0.408-0.445c-0.141-0.109-0.222-0.092-0.289-0.062c-0.074,0.033-0.055,0.171,0.039,0.265
	c0.063,0.063,0.205,0.234,0.233,0.352c0.028,0.118,0.056,0.193,0.034,0.332c-0.02,0.139-0.267,0.611-0.245,0.75
	c0.021,0.139,0.144,0.1,0.243,0.02c0.1-0.079,0.234-0.339,0.344-0.406c0.109-0.066,0.242-0.292,0.422-0.266
	c0.18,0.026,0.719,0.125,0.953,0.172c0.203,0.041,0.25,0.062,0.25,0.188s0.053,3.142,0.053,3.142s0.082,2.2,0.137,2.495
	c0.055,0.293,0.189,1.041,0.15,1.191c-0.039,0.148-0.023,0.205-0.178,0.352c-0.154,0.148-0.783,0.336-0.783,0.336l-0.766,0.244
	c0,0-0.06-0.137-0.129-0.322c-0.07-0.184-0.086-0.475-0.266-0.543c-0.172-0.066-0.078,0.152-0.123,0.402
	c-0.045,0.252,0.021,0.605,0.021,0.605s-0.34,0.098-0.543,0.115c-0.201,0.02-0.373,0.002-0.61,0.031
	c-0.237,0.027-0.575,0.074-0.865,0.131c-0.29,0.059-0.546,0.076-0.796,0.104c-0.249,0.027-0.59,0.01-0.719-0.031
	c-0.129-0.043-0.154-0.207-0.209-0.424c-0.109-0.438-0.272-1.221-0.328-1.5c-0.094-0.469-0.156-0.875-0.375-1.938
	c-0.104-0.502-0.25-1.093-0.312-1.515s0.02-1.483-0.076-1.578c-0.096-0.094-0.177,0.061-0.238,0.179
	c-0.061,0.118-0.061,0.415-0.092,0.743s0,0.703,0,0.703s-0.953-0.344-1.359-0.531s-0.984-0.562-1.172-0.688
	s-0.328-0.223-0.328-0.328c0-0.109,0.107-0.297,0.162-0.412c0.344-0.719,1.287-2.606,1.479-3.025c0.25-0.547,0.514-1.08,0.719-1.391
	s0.426-0.574,0.781-0.859c0.234-0.188,0.561-0.379,0.561-0.379s0.205,0.551,0.345,1.051s0.375,1.234,0.375,1.234
	s0.666-0.922,1.078-1.609c0.422-0.703,0.719-1.203,0.766-1.203c0.104,0,0.377-0.113,0.922-0.062
	c0.844,0.078,2.071,0.536,2.407,0.625c0.295,0.078,2.291,0.613,2.844,0.766c0.098,0.027,0.088,0.032,0.113,0.078
	c0.027,0.047-0.055,0.672-0.145,1.359c-0.062,0.469-0.156,0.969-0.281,1.391C21.861,12.796,21.705,13.284,21.662,13.341z"/>
<path id="skin-arm-r" fill-rule="evenodd" clip-rule="evenodd" fill="#F9CAA9" d="M1.166,17.469l0.586-0.37l-0.13,0.012
	l-0.409,0.204l-0.188-0.018c0,0-0.084-0.166-0.021-0.227c0.061-0.061,0.535-0.419,0.729-0.446c0.195-0.025,0.847-0.025,1.034-0.004
	c0.187,0.021,1.272,0.33,1.272,0.33l0.242,0.061l0.918-0.109l3.166-0.436l0.688-0.094c0,0,0.135,0.146,0.231,0.197
	c0.097,0.053,0.24,0,0.294-0.044c0.053-0.044-0.015-0.159-0.051-0.18c-0.037-0.021-0.131-0.036-0.084-0.177s0.344-0.594,0.344-0.594
	l0.605,0.385l0.66,0.352l0.578,0.295c0,0-0.793,1.095-1.053,1.228c-0.26,0.131-0.697,0.26-1.135,0.287
	c-0.438,0.029-3.123-0.066-3.123-0.066L4.815,18.01l-0.767,0.016c0,0-0.603,0.25-0.842,0.309c-0.239,0.057-0.514-0.029-0.76-0.059
	c-0.246-0.031-0.633-0.096-0.633-0.096l-0.125-0.178c0,0,0.111-0.125,0.201-0.139c0.092-0.016,0.391-0.049,0.542-0.062
	c0.151-0.012,0.33-0.045,0.33-0.045s-0.015-0.115-0.015-0.07c0,0.043-0.166-0.189-0.166-0.189l-0.113-0.074l-0.061-0.029
	L1.965,17.51l-0.824,0.342c0,0-0.124,0.037-0.195-0.08c-0.072-0.115,0-0.135,0-0.135L1.166,17.469z"/>
<path fill-rule="evenodd" clip-rule="evenodd" fill="#1A1A18" d="M17.927,18.809c-0.018,0.137,0.018,0.75-0.078,0.766
	c-0.095,0.016-0.218-0.178-0.219-0.375s-0.219-1.867-0.166-2.124c0.053-0.257,0.641-1.374,0.682-1.454
	c0.042-0.079,0.042-0.21,0.068-0.299c0.027-0.09,0.143-0.481,0.26-0.561c0.057-0.039,0.155,0.082,0.188,0.203
	s-0.01,0.503-0.062,0.703c-0.053,0.199-0.438,0.688-0.594,1.281C17.849,17.543,17.945,18.672,17.927,18.809z"/>
<path id="player-shorts-l" fill-rule="evenodd" clip-rule="evenodd" fill="#FFFFFF" d="M18.51,27.942
	c-0.022,0.078-0.485,0.502-0.485,0.502l-0.604,0.438l-0.24,0.145l-1.718,1.318l-1.958,1.604c0,0-1.227,0.99-1.314,1.014
	c-0.108,0.029-0.123-0.043-0.123-0.043l-0.729-1.477c0,0,0.315-0.578,0.373-0.668c0.059-0.09,0.035-0.191-0.055-0.188
	s-0.869,0.092-0.869,0.092l-0.504-0.844l-0.834-1.258L9.153,28.2l-0.001-0.148l1.307-1.232l2.688-2.44l0.892-0.699
	c0,0,0.646-0.375,0.748-0.436s-0.479-0.008-0.525-0.014c-0.139-0.018-0.043-0.105,0.025-0.105s0.629-0.131,0.768-0.168
	c0.135-0.037,0.143-0.141-0.025-0.119s-0.67-0.031-0.67-0.031l-0.112-0.158c0,0-0.022-0.262,0.056-0.293s0.5-0.012,0.5-0.012
	l0.528-0.027l1.174-0.17l0.392-0.033c0,0,0.617-0.039,0.895-0.105s0.864-0.273,1.247-0.408s0.846-0.342,0.914-0.291
	c0.07,0.053,0.059,0.059,0.111,0.217c0.055,0.158,0.084,0.211,0.021,0.338c-0.062,0.129-0.748,0.373-0.822,0.383
	c-0.074,0.012-0.156,0.049-0.143,0.133c0.012,0.084,0.145,0.27,0.25,0.258s0.391-0.047,0.562-0.037
	c0.172,0.012,0.354,0.051,0.354,0.051s0.324,0.357,0.373,0.615c0.047,0.256,0.143,0.688,0.117,0.953
	c-0.029,0.264-0.09,0.961-0.184,1.273c-0.094,0.311-0.326,0.928-0.516,1.2c-0.191,0.271-0.35,0.451-0.57,0.604
	c-0.225,0.152-1.368,0.113-1.542,0.17s-0.395,0.225-0.4,0.332c-0.007,0.105,0.701-0.008,0.779,0.02
	C18.419,27.845,18.531,27.864,18.51,27.942z"/>
<path id="skin-leg-r" fill-rule="evenodd" clip-rule="evenodd" fill="#F9CAA9" d="M20.701,36.052
	c-0.229-0.062-0.611-0.252-0.803-0.369c-0.191-0.119-0.727-0.412-0.904-0.529c-0.178-0.119-0.471-0.508-0.471-0.508l1.494-0.928
	l1.305-0.887c0,0,0.422,0.834,0.506,0.895s0.539,0.318,0.539,0.318s0.061,0.369-0.008,0.637c-0.066,0.266-0.336,1.014-0.434,1.205
	s-0.338,0.445-0.338,0.445S20.926,36.114,20.701,36.052z"/>
<path id="player-shorts-r" fill-rule="evenodd" clip-rule="evenodd" fill="#FFFFFF" d="M20.156,27.39l0.133,0.729
	c0,0,0.279,0.838,0.416,1.211c0.139,0.375,0.494,1.25,0.631,1.604s0.482,0.971,0.436,1.064S20.834,32.7,20.834,32.7l-0.756,0.484
	l-1.312,0.799l-0.838,0.521l-0.328-0.441l-0.48-0.732l-0.848-1.441l-0.582-1.104l0.924-0.777l1.232-0.838l0.823-0.561l0.732-0.541
	L20.156,27.39z"/>
<path id="player-sock-r" fill="#0068B4" d="M27.885,39.431l-0.062,0.332l-2.529-1.395l-1.625-0.785c0,0-0.385-0.123-0.496-0.189
	s-0.119-0.219-0.107-0.311c0.008-0.094,0.023-0.107-0.037-0.223c-0.059-0.107-0.09-0.105-0.162-0.092
	c-0.109,0.023-0.08,0.182-0.168,0.238s-0.213,0.057-0.213,0.057l-0.225-0.102c0,0-0.227-0.164-0.254-0.311
	c-0.025-0.146,0.225-0.291,0.318-0.543c0.092-0.25,0.135-0.396,0.223-0.654c0.09-0.258,0.234-0.662,0.244-0.82
	s-0.02-0.385,0.008-0.447c0.029-0.064,0.215-0.045,0.342-0.01c0.125,0.033,0.223,0.061,0.303,0.166
	c0.082,0.104,0.205,0.348,0.191,0.438c-0.014,0.092-0.066,0.174-0.014,0.287c0.055,0.113,0.205,0.217,0.314,0.195
	c0.109-0.023,0.367-0.301,0.465-0.258c0.098,0.045,1.014,0.648,1.014,0.648l1.805,1.498l0.818,0.654l0.607,0.236v0.572l-0.35,0.178
	l-0.268,0.396L27.885,39.431z"/>
</svg>
