<?xml version="1.0" encoding="utf-8"?>
<!-- Generator: Adobe Illustrator 16.0.4, SVG Export Plug-In . SVG Version: 6.00 Build 0)  -->
<!DOCTYPE svg PUBLIC "-//W3C//DTD SVG 1.1//EN" "http://www.w3.org/Graphics/SVG/1.1/DTD/svg11.dtd" [
	<!ENTITY ns_flows "http://ns.adobe.com/Flows/1.0/">
	<!ENTITY ns_extend "http://ns.adobe.com/Extensibility/1.0/">
	<!ENTITY ns_ai "http://ns.adobe.com/AdobeIllustrator/10.0/">
	<!ENTITY ns_graphs "http://ns.adobe.com/Graphs/1.0/">
]>
<svg version="1.1" id="Ebene_1" xmlns:x="&ns_extend;" xmlns:i="&ns_ai;" xmlns:graph="&ns_graphs;"
	 xmlns="http://www.w3.org/2000/svg" xmlns:xlink="http://www.w3.org/1999/xlink" xmlns:a="http://ns.adobe.com/AdobeSVGViewerExtensions/3.0/"
	 x="0px" y="0px" width="16.6px" height="51.5px" viewBox="0 0 16.6 51.5" style="enable-background:new 0 0 16.6 51.5;"
	 xml:space="preserve">
<style type="text/css">
<![CDATA[
	.st0{fill:#1A1A18;}
	.st1{fill-rule:evenodd;clip-rule:evenodd;fill:#1A1A18;}
	.st2{fill:#FBCDAA;}
	.st3{fill-rule:evenodd;clip-rule:evenodd;fill:#FBCDAA;}
	.st4{fill:#0068B4;}
	.st5{fill-rule:evenodd;clip-rule:evenodd;fill:#FFFFFF;}
	.st6{fill-rule:evenodd;clip-rule:evenodd;fill:#0068B4;}
]]>
</style>
<path class="st0" d="M15.96,22.04c-0.07-0.12-0.46-0.25-0.46-0.25s-0.09-0.22-0.11-0.29c-0.02-0.07-0.17-0.25-0.17-0.25
	s-0.25-0.24-0.4-0.32c-0.15-0.08-0.73-0.31-0.9-0.36c-0.17-0.05-0.54-0.07-0.69-0.05c-0.15,0.02-0.66,0.05-0.66,0.05l-1.17-1.01
	l-0.47-0.49l0.06-0.18l0.04-0.14l1.03,0.21c0,0,0.22,0.27,0.35,0.4c0.14,0.13,0.37,0.32,0.6,0.41c0.23,0.09,0.86,0.25,0.86,0.25
	s0.55,0.22,0.64,0.23c0.09,0.01,0.2,0,0.35-0.04s0.28-0.07,0.37-0.14c0.09-0.07,0.2-0.34,0.2-0.34s0.11,0.03,0.21-0.06
	c0.1-0.08,0.13-0.23,0.13-0.23l0.18-0.02c0,0,0.09-0.07,0.15-0.21c0.06-0.14,0.08-0.29,0.08-0.29s-0.11-0.26-0.14-0.37
	c-0.03-0.11-0.33-0.53-0.48-0.65s-0.54-0.34-0.73-0.42c-0.19-0.08-0.61-0.17-0.85-0.21c-0.25-0.04-0.85-0.06-0.85-0.06l-1.5-1
	c0,0,0.14-0.79,0.21-1.11c0.07-0.32,0.16-0.71,0.25-1.13s0.18-1.18,0.2-1.41s0.01-0.59-0.03-1s-0.27-1.21-0.34-1.48
	c-0.08-0.28-0.34-0.83-0.34-0.83l-0.17-0.3l-0.01,0c0,0,0.25-0.24,0.37-0.26s0.18-0.03,0.29-0.02c0.11,0.01,0.25-0.01,0.33-0.02
	s0.12-0.01,0.21-0.1c0.09-0.09,0.16-0.26,0.16-0.26l0.16-0.66l0.11-0.37l0.2-0.48c0,0,0.21-0.01,0.29,0s0.2-0.07,0.25-0.12
	s0.09-0.2,0.08-0.29c0-0.09-0.07-0.7-0.07-0.7l-0.06-0.31v-0.3l0.06-0.21l0.19-0.36l-0.07-1.56l0.26-0.38l-0.02-0.59l-0.08-0.28
	l-0.18,0.1l-0.1-0.22l-0.25-0.09l-0.15-0.52l-0.42-0.28L12.39,0.6l-0.32-0.08l-0.44-0.28L10.76,0.4L9.71,0.3l-0.1,0.12L8.55,0.76
	L8.31,1.14L7.88,1.18l-0.5,0.91L6.75,3.54l0.18,0.14l0.14,0.4l-0.14,0.5l0.18,0.52l0.17,0.3l0.15,0.45l0.41,0.72l0.23,0.19L8.3,7.14
	L8.21,7.63c0,0-0.54,0.23-0.65,0.29S7.12,8.2,6.99,8.32c-0.13,0.12-0.47,0.41-0.6,0.57S5.71,9.85,5.64,10s-0.33,0.61-0.41,0.74
	c-0.08,0.13-0.36,0.73-0.45,0.95c-0.09,0.22-0.37,0.96-0.47,1.39s-0.49,2.1-0.56,2.69s-0.21,1.65-0.25,2.16
	c-0.04,0.51-0.19,3.51-0.22,3.61c-0.02,0.1-0.07,0.29-0.13,0.41s-0.12,0.22-0.16,0.39C2.94,22.5,2.97,22.86,2.95,23
	c-0.02,0.14-0.08,0.38-0.19,0.65c-0.11,0.27-0.19,0.49-0.26,0.86c-0.07,0.36-0.05,0.9-0.05,1.13c0.01,0.23,0.05,0.63,0.08,0.91
	s0.17,0.78,0.22,1.08s0.1,0.48,0.14,0.78c0.05,0.3,0.2,1.42,0.2,1.42l0.22,1.66c0,0,0.05,0.42,0.06,0.66s-0.02,0.91-0.02,1.27
	s-0.06,1.19-0.06,1.45s-0.04,0.52-0.05,0.66c-0.01,0.11,0.02,0.11,0.12,0.12s0.45,0.01,0.73,0.03s0.38,0.05,0.38,0.05l-0.08,0.44
	c0,0-0.28,0.25-0.52,0.49c-0.24,0.24-0.29,0.9-0.29,0.9s-0.16,0.12-0.44,0.42c-0.2,0.21-0.73,1.21-0.89,1.69s-0.39,1.64-0.49,2.23
	c-0.09,0.6-0.3,1.83-0.37,2.22c-0.07,0.39-0.19,0.7-0.22,0.87c-0.02,0.17-0.13,0.81-0.13,0.81l-0.27,0.57c0,0-0.29,0.59-0.37,0.95
	c-0.08,0.36,0.04,1.1,0.11,1.19s-0.07,0.18,0.02,0.3s0.5,0.12,0.5,0.12s0.01,0.28,0.08,0.33c0.07,0.05,0.42,0.05,0.49,0.02
	S1.73,49,1.73,49l0.45,0.01c0,0,0.01,0.26,0.09,0.3c0.08,0.04,0.39,0.05,0.49,0s0.14-0.28,0.14-0.28h1.83c0,0,0.03,0.24,0.09,0.26
	s0.42,0.03,0.48-0.02c0.07-0.04,0.08-0.27,0.08-0.27l0.31,0.03c0,0,0.03,0.22,0.1,0.25s0.29,0.01,0.33,0s0.19-0.31,0.19-0.31
	S6.69,49,6.81,49c-0.02,0.14-0.04,0.26-0.05,0.32c-0.04,0.21-0.16,0.59-0.15,0.77c0.01,0.18,0.2,0.45,0.29,0.57
	C7,50.78,7.29,50.9,7.29,50.9s0.01,0.28,0.06,0.31s0.39,0.05,0.46,0.02s0.12-0.27,0.12-0.27l0.28,0.02c0,0,0.01,0.2,0.08,0.25
	c0.07,0.05,0.36,0.02,0.44,0s0.17-0.32,0.17-0.32l1.86,0.04c0,0,0.09,0.21,0.16,0.23s0.28,0.02,0.37-0.01
	c0.08-0.04,0.16-0.22,0.16-0.22l0.47,0.02c0,0,0.03,0.18,0.09,0.21c0.06,0.03,0.37,0.02,0.41,0.01c0.04-0.01,0.16-0.23,0.16-0.23
	l0.25,0.01c0,0,0.01,0.16,0.07,0.2s0.24,0.01,0.3-0.02s0.08-0.21,0.08-0.21s0.1-0.09,0.28-0.15c0.18-0.06,0.39-0.16,0.47-0.33
	c0.07-0.17,0.05-0.69-0.17-0.86c-0.22-0.17-1.82-0.64-2.08-0.77c-0.26-0.13-0.87-0.56-1.03-0.72c-0.16-0.16-0.37-0.48-0.45-0.54
	c-0.09-0.06-0.26-0.06-0.26-0.06s0.08-0.42,0.28-1.08c0.2-0.66,0.46-1.49,0.67-2.19c0.21-0.69,0.85-2.85,0.89-2.98
	c0.04-0.13,0.1-0.45,0.09-0.53c-0.01-0.08-0.08-0.23-0.08-0.23s0.14-0.08,0.26-0.3s0.14-0.47,0.12-0.77
	c-0.01-0.28-0.12-0.67-0.12-0.67s0.26-0.66,0.33-0.84c0.07-0.18,0.21-0.4,0.27-0.72c0.06-0.32,0.02-0.89-0.01-1.12
	c-0.03-0.23-0.11-0.59-0.11-0.59s0.38-0.12,0.48-0.16c0.09-0.03,0.08-0.1,0.06-0.17c-0.03-0.18-0.42-1.92-0.42-1.92l-0.75-3.1
	l-0.49-1.78l-0.52-1.9l-0.75-2.34l-0.17-0.45c0,0,0.06-0.04,0.14-0.27s0.02-0.96,0.02-0.96l0.16-0.62l1.33,0.74
	c0,0,0.13,0.16,0.34,0.36c0.21,0.2,0.67,0.5,0.67,0.5s0.76,0.43,0.96,0.49s0.67,0.09,0.8,0.08c0.13-0.01,0.24-0.14,0.24-0.14
	s0.42-0.02,0.57-0.1c0.15-0.08,0.33-0.36,0.33-0.36l0.2-0.25c0,0,0.12-0.01,0.18-0.11c0.06-0.09,0.16-0.47,0.16-0.47
	S16.03,22.16,15.96,22.04z M8.94,38.05c-0.15,0.21-0.22,0.36-0.27,0.49s-0.12,0.6-0.08,0.75s0.15,0.37,0.12,0.44
	c-0.04,0.07-0.38,0.63-0.47,0.92s-0.34,1.16-0.38,1.56c-0.04,0.4-0.08,2.07-0.17,2.48c-0.09,0.41-0.6,2.68-0.65,2.75
	C7,47.53,6.93,47.61,6.93,47.61s0.02-0.06-0.05-0.08c-0.07-0.02-1.37-0.43-1.56-0.53c-0.19-0.1-0.73-0.34-0.88-0.49
	c-0.15-0.15-0.57-1.05-0.57-1.05s0.16-0.65,0.23-0.94c0.07-0.29,0.22-0.73,0.39-1.16c0.17-0.43,0.3-0.7,0.56-1.33
	s0.82-1.99,0.92-2.24s0.13-0.42,0.13-0.42s0.21-0.06,0.42-0.21c0.19-0.14,0.28-0.2,0.39-0.64s0.14-0.75,0.14-0.75
	s0.36-0.53,0.46-0.67s0.57-0.88,0.64-0.94c0.08-0.06,0.12-0.07,0.14-0.02c0.03,0.05,0.12,0.17,0.16,0.29
	c0.02,0.06,0.21,0.38,0.35,0.68c0.13,0.29,0.21,0.57,0.23,0.62C9.08,37.84,9.06,37.88,8.94,38.05z"/>
<path id="skin-arm-l" class="st3" d="M11.42,17.14l-0.24,1.01l-0.02,0.14l0.8,0.21l0.42,0.14c0,0,0.18,0.29,0.27,0.39
	c0.09,0.11,0.3,0.29,0.47,0.36c0.17,0.07,0.62,0.17,0.62,0.17s0.03,0.01,0.08,0s-0.14-0.3-0.15-0.35c-0.01-0.05,0.28-0.26,0.22-0.19
	s0.27-0.19,0.27-0.19l-0.36-0.07l-0.68-0.16c0,0,0.09-0.11,0.17-0.15c0.08-0.04,0.26-0.07,0.26-0.07s0.21,0.06,0.34,0.05
	s0.57-0.15,0.66-0.14s0.46,0.18,0.54,0.2c0.08,0.01,0.34,0,0.35-0.06c0.01-0.07-0.09-0.19-0.19-0.25s-0.44-0.25-0.53-0.29
	s-0.65-0.23-0.8-0.24c-0.15-0.02-0.74,0.06-0.74,0.06l-1.62-0.98L11.42,17.14z"/>
<path id="player-jersey" class="st4" d="M11.59,10.38c-0.06-0.22-0.12-0.38-0.21-0.49c-0.08-0.1-0.2-0.41-0.2-0.41l0.14,1.06
	c0,0-0.72-0.67-0.49-0.48S9.7,9.21,9.97,9.39S8.92,8.6,9.17,8.82s-0.89-0.7-0.78-0.64S8.25,8.03,8.25,8.03S7.92,8.14,7.8,8.2
	S7.45,8.44,7.3,8.55C7.14,8.66,6.91,8.89,6.73,9.08c-0.17,0.19-0.79,1.07-0.79,1.07s-0.67,1.27-0.77,1.53
	c-0.1,0.26-0.41,1.33-0.41,1.33l-0.25,0.92L4.21,15.4l-0.19,1.56l-0.16,1.81l-0.03,1.94c0,0-0.03,0.65-0.03,0.77
	c0,0.12-0.03,0.11,0.08,0.15c0.08,0.03,0.37,0.07,0.46,0.1c0.09,0.03,0.1-0.13,0.11-0.07s0.04-0.8,0.06-1.2s-0.03-1.03-0.01-1.23
	c0.01-0.18,0.03-0.45,0.09-0.47s0.11-0.01,0.17,0.07c0.06,0.08,0.11,0.28,0.13,0.51c0.02,0.23,0.09,0.49,0.09,0.81
	c0.01,0.27,0.09,1.47,0.09,1.6s0.03,0.08,0.13,0.12c0.1,0.05,0.35,0.1,0.66,0.16s1.11,0.14,1.59,0.17s1.05,0.03,1.35,0.05
	c0.22,0.02,0.65,0.03,0.76,0.04s0.09,0.04,0.13-0.09c0.04-0.13,0.19-0.59,0.19-0.59l0.08-0.21l-0.91-0.5c0,0-1.52-0.88-1.72-1
	c-0.2-0.12-1-0.6-1.12-0.71c-0.16-0.13-0.29-0.21-0.44-0.45c-0.09-0.14-0.25-0.42-0.31-0.63c-0.06-0.21-0.11-0.66-0.12-0.88
	c-0.01-0.21,0.07-0.65,0.09-0.86c0.02-0.21,0.21-1.24,0.21-1.24l0.07-0.52c0,0-0.06,0-0.13-0.05s-0.09-0.09-0.07-0.19
	c0.12-0.47,0.5-1.93,0.62-2.32c0.15-0.46,0.33-0.8,0.33-0.8l0.02-0.04c0,0-0.01,0.35-0.1,0.93c-0.07,0.46-0.26,1.37-0.34,1.8
	c-0.04,0.24-0.01,0.25,0.13,0.3c0.43,0.15,1.69,0.68,1.69,0.68l1.05,0.49c0,0,0.6,0.24,0.71,0.28c0.11,0.04,0.21-0.23,0.18-0.12
	s1.37-2.99,1.37-2.99s-0.34,1.15-0.65,2.05c-0.23,0.69-0.58,1.5-0.62,1.59c-0.04,0.08-0.1,0.11-0.19,0.08
	c-0.09-0.03-0.7-0.24-0.7-0.24l-0.48,0.8l1.2,1.1l0.78,0.68c0,0,0.29-1.14,0.42-1.64c0.2-0.78,0.56-2.6,0.62-2.89
	s0.21-1.31,0.26-1.76c0.05-0.45-0.01-0.66-0.07-1.13S11.64,10.55,11.59,10.38z"/>
<path id="skin-arm-r" class="st3" d="M13.93,23.36c0.03,0.03,0.63,0.13,0.63,0.13s-0.11,0.09-0.22,0.1c-0.1,0.01-0.4-0.02-0.4-0.02
	s-0.18-0.04-0.29-0.08c-0.11-0.04-0.52-0.28-0.67-0.37c-0.15-0.09-0.57-0.44-0.57-0.44l-0.37-0.42c0,0-2.32-1.37-4.01-2.42
	c-0.85-0.53-1.68-1.09-1.7-1.11c-0.08-0.06-0.24-0.25-0.29-0.35s-0.14-0.26-0.18-0.41s-0.1-0.64-0.09-0.85
	c0.02-0.38,0.18-1.28,0.18-1.28l0.17-1c0,0,0.98,0.37,1.5,0.59s1.08,0.54,1.08,0.54L8.24,16.7c0,0-0.18-0.24-0.23-0.28
	s-0.26-0.12-0.3-0.06s-0.12,0.18-0.09,0.22s0.84,0.82,0.84,0.82l4.03,3.57l0.55-0.08c0,0,0.51-0.03,0.72,0.01
	c0.21,0.04,0.81,0.38,0.81,0.38l0.33,0.15c0,0,0.16,0.17,0.15,0.25s-0.27,0.01-0.27,0.01s-0.78-0.27-0.82-0.24s0.09,0.21,0.16,0.25
	c0.07,0.04,0.48,0.19,0.48,0.19l0.75,0.22l0.26,0.11c0,0,0.13,0.12,0.14,0.18c0.01,0.06-0.37,0.05-0.37,0.05l-0.68-0.07l-0.03,0.16
	l0.44,0.05l0.51,0.04c0,0,0.03,0.07-0.04,0.18s-0.25,0.11-0.25,0.11l-0.8-0.07L14.4,23l0.27,0.1l0.57,0.06c0,0,0,0.1-0.04,0.15
	c-0.05,0.05-0.2,0.05-0.2,0.05l-0.44-0.03l-0.47-0.03C14.09,23.3,13.9,23.33,13.93,23.36z"/>
<path id="skin-leg-l" class="st3" d="M7.6,36.14c0,0-0.55,0.69-0.69,0.91c-0.1,0.15-0.22,0.31-0.29,0.39
	c-0.03,0.04-0.03,0.07-0.14,0.03c-0.11-0.04-0.38-0.08-0.71-0.32S5,36.48,4.94,36.41s-0.03-0.16-0.03-0.16s0.06-0.43,0.07-0.51
	c0.01-0.08-0.01-0.09,0.08-0.08s0.54,0.02,0.66,0.04c0.12,0.01,0.41,0.02,0.48,0.08s0.06,0.29,0.12,0.35s0.15,0.07,0.26,0.09
	s0.25,0.03,0.42,0S7.6,36.14,7.6,36.14z"/>
<path id="player-sock-l" class="st4" d="M6.02,38.85c-0.13,0.03-0.43-0.08-0.43-0.08s-0.07-0.14-0.15-0.11
	c-0.08,0.02-0.15,0.06-0.16,0.14s0.13,0.31,0.24,0.44s0.04,0.2-0.01,0.32s-0.43,1.16-0.43,1.16L4.27,42.6c0,0-0.57,1.53-0.69,2.01
	c-0.06,0.24-0.18,0.73-0.25,0.8s-0.38,0.1-0.45,0.19c-0.07,0.09,0.07,0.17,0,0.31c-0.07,0.14-0.49,0.57-0.62,0.55
	c-0.13-0.02-0.37-0.18-0.5-0.31c-0.13-0.13-0.24-0.31-0.25-0.39C1.5,45.67,1.6,45.5,1.6,45.5s0.12-0.8,0.21-1.29
	s0.24-1.25,0.31-1.72s0.25-1.47,0.36-1.94s0.16-0.72,0.39-1.2s0.59-1.18,0.74-1.25c0.15-0.07,0.16-0.03,0.28-0.06
	c0.12-0.04,0.25-0.17,0.22-0.28c-0.04-0.11-0.1-0.28-0.09-0.39c0.01-0.11,0.07-0.32,0.19-0.44s0.27-0.26,0.36-0.24
	s0.62,0.62,0.92,0.8c0.24,0.15,0.7,0.29,0.91,0.37c0.05,0.02,0.15,0.05,0.1,0.18c-0.07,0.2-0.08,0.45-0.17,0.57
	S6.15,38.82,6.02,38.85z"/>
<path class="st5" d="M3.64,48.38c0,0-0.03-0.35,0.13-0.35s0.65,0,0.68,0.06c0.04,0.06-0.03,0.3-0.03,0.3L3.64,48.38L3.64,48.38z"/>
<polygon class="st5" points="9.47,50.34 9.48,50 10.18,50.01 10.46,50.37 10.1,50.37 "/>
<path id="player-sock-r" class="st6" d="M7.79,48c-0.1-0.11-0.1-0.39-0.18-0.47s-0.13-0.06-0.13-0.18
	c-0.01-0.13,0.24-1.14,0.24-1.14s0.29-1.23,0.36-1.55c0.07-0.31,0.09-0.89,0.1-1.14c0.01-0.25,0.05-0.84,0.09-1.19
	c0.04-0.35,0.24-1.29,0.36-1.56c0.12-0.26,0.24-0.61,0.45-0.66c0.2-0.05,0.46-0.06,0.6-0.08c0.14-0.02,0.08-0.18,0.09-0.28
	c0.01-0.1-0.09-0.07-0.23-0.14c-0.15-0.07-0.35-0.08-0.42-0.16C9.05,39.38,9,39.13,9.02,38.98c0.02-0.15,0.06-0.32,0.15-0.49
	s0.16-0.34,0.27-0.33c0.11,0.01,0.73,0.13,1.08,0.22c0.35,0.09,1.07,0.29,1.14,0.41s0.1,0.45,0.12,0.6
	c0.03,0.15-0.07,0.68-0.19,0.73s-0.31-0.04-0.37,0.06c-0.05,0.11-0.03,0.18,0.06,0.32c0.09,0.13,0.17,0.03,0.19,0.13
	c0.02,0.1,0,0.45-0.06,0.67c-0.07,0.21-0.68,2.16-0.81,2.66c-0.13,0.5-0.84,3.03-0.94,3.08c-0.1,0.04-0.42,0.11-0.44,0.17
	s-0.07,0.66-0.14,0.78c-0.07,0.12-0.48,0.38-0.66,0.36C8.25,48.33,7.89,48.12,7.79,48z"/>
<path id="skin-leg-r" class="st3" d="M9.46,37.6c-0.02-0.08-0.04-0.2-0.08-0.32c-0.05-0.19-0.58-1.13-0.6-1.22s0.01-0.41,0.04-0.43
	S9.27,35.97,9.34,36s1.51-0.18,1.85-0.23s0.91-0.21,0.96-0.19s0.13,0.44,0.15,0.59c0.02,0.15,0.05,0.51,0,0.82
	c-0.04,0.31-0.41,1.1-0.46,1.19s-0.07,0.12-0.18,0.09c-0.11-0.04-0.74-0.23-1.12-0.33c-0.31-0.08-0.57-0.14-0.81-0.19
	C9.53,37.7,9.47,37.66,9.46,37.6z"/>
<path class="st1" d="M11.43,36.84c-0.04-0.1,0.12-0.41,0.18-0.46c0.05-0.05,0.2-0.14,0.24-0.11s0.07,0.59,0.05,0.64
	s-0.07,0.12-0.17,0.11C11.61,37.02,11.43,36.84,11.43,36.84S11.46,36.94,11.43,36.84z"/>
<path id="player-shorts-r" class="st5" d="M4.12,29.11c-0.07,0.03,0.27,0.58,0.35,0.75s0.27,0.52,0.46,0.98
	c0.19,0.46,0.61,1.54,0.75,1.9s0.91,2.7,0.91,2.7s0.07,0.2,0.11,0.27s0.14,0.05,0.14,0.05s1.29-0.13,1.42-0.14
	c0.12-0.02,0.12-0.02,0.13-0.11s0.01-0.57,0.08-0.62s0.13-0.03,0.22,0.03c0.07,0.05,0.53,0.5,0.59,0.56
	c0.06,0.06,0.05,0.08,0.16,0.05s1.13-0.11,1.59-0.2c1.08-0.2,1.33-0.27,1.49-0.34s0.12-0.06,0.08-0.31
	c-0.02-0.11-0.21-1.05-0.3-1.48s-0.65-2.95-0.79-3.45s-0.44-1.51-0.54-1.85s-0.23-0.81-0.33-1.17s-0.38-1.16-0.49-1.48
	s-0.36-0.96-0.4-1.1s-0.16-0.34-0.29-0.36s-0.53-0.04-0.6-0.09s-0.13-0.23-0.05-0.28s0.24-0.06,0.38-0.05s0.46,0.05,0.52,0
	s0.04-0.26,0.05-0.38s0.02-0.2-0.09-0.21s-0.54-0.02-0.54-0.02l-1.12-0.03L5.8,22.51l-1.31-0.16c0,0-0.83-0.21-0.9-0.19
	s-0.15,0.14-0.17,0.31s0,0.19,0.08,0.3c0.08,0.11,0.88,0.18,1,0.23c0.11,0.05,0.19,0.03,0.19,0.11s-0.11,0.3-0.23,0.32
	c-0.12,0.03-0.64,0.08-0.64,0.08s-0.42,0-0.51,0.14S3,24.36,2.94,24.63s-0.08,0.8-0.04,1.18s0.16,0.89,0.27,1.35s0.49,0.96,0.73,1.2
	s1.21,0.56,1.3,0.62c0.09,0.06,0.22,0.52,0.16,0.56c-0.07,0.03-0.53-0.19-0.67-0.23C4.56,29.27,4.19,29.07,4.12,29.11z"/>
<path id="player-shorts-l" class="st5" d="M3.34,28.85l0.3,2.06c0,0,0.13,0.83,0.14,1.17s-0.01,1.13-0.03,1.48s-0.05,1.27-0.06,1.46
	c-0.01,0.18-0.01,0.18,0.11,0.2s0.53,0.02,0.94,0.03s0.78,0.04,0.94,0.06c0.16,0.02,0.37,0.02,0.37,0.02s-0.36-1.29-0.52-1.69
	s-0.45-1.19-0.56-1.48s-0.22-0.46-0.35-0.8s-0.37-0.77-0.59-1.22S3.34,28.85,3.34,28.85z"/>
<path class="st1" d="M7.09,25.29c-0.07-0.07-0.19-0.25-0.31-0.34c-0.12-0.1-0.68-0.22-0.79-0.26c-0.11-0.04,0.08-0.31,0.19-0.33
	s0.87,0.08,0.96,0.15s0.52,0.84,0.64,0.99c0.12,0.15,1.19,1.18,1.18,1.24s-0.83-0.34-0.91-0.38c-0.07-0.04-0.21-0.06-0.31-0.12
	C7.64,26.16,7.16,25.36,7.09,25.29z"/>
<path id="skin-arm-l-3" class="st2" d="M15.51,19.11c-0.09,0.01-0.55-0.05-0.64-0.1s-0.22-0.18-0.22-0.18s-0.05-0.09,0.04-0.12
	s0.27-0.01,0.38,0.01c0.11,0.02,0.21,0.02,0.33,0.02s0.25,0.11,0.25,0.11l0.01,0.13C15.67,18.99,15.61,19.1,15.51,19.11z"/>
<path id="skin-arm-l-2" class="st2" d="M14.86,19.48c-0.1-0.02-0.33-0.09-0.33-0.09l-0.1-0.12c0,0,0.02-0.06,0.05-0.12
	s0.14-0.09,0.14-0.09s0.11,0.07,0.2,0.12s0.28,0.04,0.28,0.04l0.12,0.05l0.01,0.1l-0.06,0.08C15.17,19.46,14.96,19.5,14.86,19.48z"
	/>
<path id="skin-arm-l-1" class="st2" d="M14.74,19.62c0,0-0.17-0.02-0.27-0.05s-0.22-0.13-0.22-0.13s-0.12-0.01-0.15,0.04
	c-0.03,0.05,0.05,0.23,0.05,0.23s0.14,0.1,0.28,0.13c0.14,0.03,0.32-0.02,0.32-0.02s0.11-0.12,0.12-0.13c0-0.02-0.06-0.07-0.06-0.07
	H14.74z"/>
<path id="skin-face" class="st2" d="M13.58,3.46c0,0,0-0.23-0.06-0.24c-0.06-0.01-0.62-0.06-0.62-0.06s-0.33,0.01-0.44,0.04
	s-0.52,0.2-0.52,0.2s-0.26,0-0.3,0.02s-0.16,0.11-0.16,0.11s-0.38,0.37-0.65,0.61S9.82,5.03,9.74,5.01S9.45,4.52,9.38,4.53
	s-0.2,0.31-0.2,0.4c0,0.09,0.13,0.1,0.12,0.16C9.3,5.14,9.21,5.3,9.13,5.34c-0.08,0.05-0.1,0.01-0.14-0.02
	C8.95,5.3,8.72,4.62,8.65,4.71s0.3,0.89,0.3,0.89l0.24,0.2L9.02,5.96L9,6.1L8.98,6.45L8.85,7.16L8.72,7.94L9.79,8.8l0.99,0.71
	l0.12-0.65l0.14-0.17l0.32-0.26c0,0-0.97-0.73-1.04-0.85s-0.14-0.23-0.19-0.32S9.97,7,10.03,6.98S10.24,6.93,10.3,7
	c0.11,0.14,0.11,0.19,0.2,0.34s0.94,0.71,1.1,0.79c0.16,0.08,0.43,0.14,0.5,0.13c0.08-0.02,0.12-0.05,0.2-0.08
	c0.07-0.03,0.16-0.43,0.16-0.43l0.04-0.28l-0.08-0.09c0,0-0.13-0.11-0.12-0.16c0.01-0.04,0.06-0.1,0.06-0.1l0.19-0.07
	c0,0,0.23-0.17,0.16-0.25s-0.34-0.18-0.38-0.21s0.02-0.14,0.02-0.14l0.41-0.18c0,0,0.32,0.05,0.4,0.07c0.08,0.02,0.18,0,0.22-0.03
	s0.04-0.13,0.04-0.19c0-0.06-0.13-1.15-0.13-1.15l0.03-0.25l-0.27-0.07L12.95,4.8c0,0-0.04,0.28-0.17,0.3s-0.32,0.03-0.4-0.08
	S12.36,4.6,12.36,4.6s-0.14-0.19-0.21-0.2s-0.21,0.05-0.28,0.04s-0.09-0.06-0.09-0.06s0.12-0.08,0.21-0.1
	c0.09-0.02,0.43-0.04,0.49-0.01s0.57,0.08,0.57,0.08s0.36,0.08,0.42,0.06c0.07-0.02,0.13-0.19,0.13-0.19L13.58,3.46z"/>
<path id="hair" class="st0" d="M8.31,6.47l0.12,0.2L8.5,6.69L8.59,6.2L8.5,5.94l0.16-0.16L8.42,5.24c0,0-0.15-0.52-0.12-0.71
	c0.03-0.19,0.4-0.18,0.62,0c0.03-0.03,0.23-0.4,0.36-0.4c0.24,0,0.39,0.43,0.49,0.43c0.1,0,0.95-0.77,0.95-0.77l0.7-0.64l0.4-0.04
	l0.48-0.19l0.42-0.06l0.46,0.03l0.31,0.04l0.37-0.44l-0.01-0.37l-0.13,0.06l-0.15-0.35l-0.32-0.12l-0.14-0.47l-0.38-0.25l-0.5-0.05
	l-0.29-0.07l-0.4-0.25l-0.79,0.14L9.87,0.66L9.78,0.77L8.75,1.08L8.47,1.46L8.07,1.5L7.66,2.23L7.08,3.45l0.16,0.12L7.4,4.06
	L7.27,4.51l0.17,0.47L7.6,5.25l0.13,0.41L8.1,6.3L8.31,6.47z"/>
</svg>
