<?xml version="1.0" encoding="utf-8"?>
<!-- Generator: Adobe Illustrator 16.0.4, SVG Export Plug-In . SVG Version: 6.00 Build 0)  -->
<!DOCTYPE svg PUBLIC "-//W3C//DTD SVG 1.1//EN" "http://www.w3.org/Graphics/SVG/1.1/DTD/svg11.dtd" [
	<!ENTITY ns_flows "http://ns.adobe.com/Flows/1.0/">
	<!ENTITY ns_extend "http://ns.adobe.com/Extensibility/1.0/">
	<!ENTITY ns_ai "http://ns.adobe.com/AdobeIllustrator/10.0/">
	<!ENTITY ns_graphs "http://ns.adobe.com/Graphs/1.0/">
]>
<svg version="1.1" id="Ebene_1" xmlns:x="&ns_extend;" xmlns:i="&ns_ai;" xmlns:graph="&ns_graphs;"
	 xmlns="http://www.w3.org/2000/svg" xmlns:xlink="http://www.w3.org/1999/xlink" xmlns:a="http://ns.adobe.com/AdobeSVGViewerExtensions/3.0/"
	 x="0px" y="0px" width="16.6px" height="51.5px" viewBox="0 0 16.6 51.5" style="enable-background:new 0 0 16.6 51.5;"
	 xml:space="preserve">
<style type="text/css">
<![CDATA[
	.st0{fill:#1A1A18;}
	.st1{fill-rule:evenodd;clip-rule:evenodd;fill:#1A1A18;}
	.st2{fill:#FBCDAA;}
	.st3{fill-rule:evenodd;clip-rule:evenodd;fill:#FBCDAA;}
	.st4{fill:#0068B4;}
	.st5{fill-rule:evenodd;clip-rule:evenodd;fill:#FFFFFF;}
	.st6{fill-rule:evenodd;clip-rule:evenodd;fill:#0068B4;}
]]>
</style>
<path class="st0" d="M0.41,22.56c0,0,0.1,0.38,0.16,0.47c0.06,0.09,0.18,0.11,0.18,0.11l0.2,0.25c0,0,0.18,0.28,0.33,0.36
	c0.15,0.08,0.57,0.1,0.57,0.1s0.11,0.13,0.24,0.14c0.13,0.01,0.59-0.02,0.8-0.08s0.96-0.49,0.96-0.49s0.46-0.29,0.67-0.5
	c0.21-0.2,0.34-0.36,0.34-0.36l1.33-0.74l0.16,0.62c0,0-0.05,0.73,0.02,0.96s0.14,0.27,0.14,0.27l-0.17,0.45l-0.75,2.34l-0.52,1.9
	l-0.49,1.78l-0.75,3.1c0,0-0.38,1.74-0.42,1.92c-0.01,0.07-0.03,0.14,0.06,0.17c0.11,0.04,0.48,0.16,0.48,0.16s-0.08,0.36-0.11,0.59
	c-0.03,0.23-0.06,0.8-0.01,1.12c0.06,0.32,0.19,0.54,0.27,0.72c0.07,0.18,0.33,0.84,0.33,0.84s-0.11,0.39-0.12,0.67
	c-0.02,0.3,0.01,0.54,0.12,0.77s0.26,0.3,0.26,0.3s-0.07,0.15-0.08,0.23c-0.01,0.08,0.05,0.4,0.09,0.53
	c0.04,0.13,0.68,2.29,0.89,2.98c0.21,0.69,0.48,1.53,0.67,2.19c0.2,0.66,0.28,1.08,0.28,1.08s-0.17,0.01-0.26,0.06
	c-0.09,0.06-0.29,0.38-0.45,0.54c-0.16,0.16-0.77,0.59-1.03,0.72c-0.26,0.13-1.85,0.6-2.08,0.77c-0.22,0.17-0.25,0.69-0.17,0.86
	c0.07,0.17,0.29,0.27,0.47,0.33c0.18,0.06,0.28,0.15,0.28,0.15s0.02,0.17,0.08,0.21s0.25,0.06,0.3,0.02s0.07-0.2,0.07-0.2l0.25-0.01
	c0,0,0.12,0.22,0.16,0.23c0.04,0.01,0.35,0.02,0.41-0.01c0.06-0.03,0.09-0.21,0.09-0.21l0.47-0.02c0,0,0.08,0.19,0.16,0.22
	c0.08,0.03,0.3,0.04,0.37,0.01s0.16-0.23,0.16-0.23l1.86-0.04c0,0,0.09,0.3,0.17,0.32s0.38,0.05,0.44,0
	c0.06-0.05,0.08-0.25,0.08-0.25l0.28-0.02c0,0,0.06,0.24,0.12,0.27s0.41,0.02,0.46-0.02s0.06-0.31,0.06-0.31s0.29-0.12,0.39-0.24
	c0.09-0.12,0.28-0.4,0.29-0.57c0.01-0.18-0.1-0.56-0.15-0.77C9.83,49.26,9.8,49.14,9.79,49c0.12,0,0.5-0.02,0.5-0.02
	s0.15,0.3,0.19,0.31s0.26,0.04,0.33,0s0.1-0.25,0.1-0.25l0.31-0.03c0,0,0.01,0.22,0.08,0.27c0.06,0.04,0.42,0.04,0.48,0.02
	s0.09-0.26,0.09-0.26h1.83c0,0,0.04,0.24,0.14,0.28s0.41,0.03,0.49,0c0.08-0.04,0.09-0.3,0.09-0.3L14.87,49c0,0,0.05,0.24,0.11,0.27
	s0.42,0.03,0.49-0.02c0.06-0.05,0.08-0.33,0.08-0.33s0.42-0.01,0.5-0.12s-0.05-0.2,0.02-0.3s0.19-0.83,0.11-1.19
	c-0.08-0.36-0.37-0.95-0.37-0.95l-0.27-0.57c0,0-0.11-0.64-0.13-0.81c-0.03-0.17-0.15-0.47-0.22-0.87
	c-0.07-0.39-0.27-1.62-0.37-2.22c-0.09-0.6-0.32-1.75-0.49-2.23s-0.69-1.48-0.89-1.69c-0.28-0.3-0.44-0.42-0.44-0.42
	s-0.05-0.66-0.29-0.9c-0.24-0.24-0.52-0.49-0.52-0.49l-0.08-0.44c0,0,0.09-0.03,0.38-0.05s0.62-0.02,0.73-0.03s0.13-0.02,0.12-0.12
	c-0.01-0.14-0.05-0.39-0.05-0.66s-0.06-1.09-0.06-1.45s-0.03-1.03-0.02-1.27s0.06-0.66,0.06-0.66l0.22-1.66c0,0,0.16-1.12,0.2-1.42
	c0.04-0.3,0.09-0.48,0.14-0.78s0.18-0.81,0.22-1.08s0.08-0.67,0.08-0.91c0.01-0.23,0.02-0.77-0.05-1.13
	c-0.07-0.36-0.15-0.59-0.26-0.86c-0.11-0.27-0.17-0.51-0.19-0.65c-0.02-0.14,0.02-0.5-0.02-0.67c-0.04-0.17-0.09-0.27-0.16-0.39
	s-0.11-0.31-0.13-0.41c-0.02-0.1-0.18-3.1-0.22-3.61c-0.04-0.51-0.18-1.57-0.25-2.16s-0.46-2.26-0.56-2.69s-0.38-1.16-0.47-1.39
	c-0.09-0.22-0.38-0.82-0.45-0.95c-0.08-0.13-0.33-0.59-0.41-0.74s-0.62-0.94-0.75-1.1s-0.47-0.45-0.6-0.57
	C9.48,8.2,9.15,7.98,9.04,7.92S8.39,7.63,8.39,7.63L8.3,7.14l0.23-0.38l0.23-0.19l0.41-0.72l0.15-0.45l0.17-0.3l0.18-0.52l-0.14-0.5
	l0.14-0.4l0.18-0.14L9.22,2.09l-0.5-0.91L8.29,1.14L8.05,0.76L6.99,0.42L6.89,0.3L5.84,0.4L4.97,0.24L4.53,0.52L4.21,0.6L3.66,0.66
	L3.24,0.94L3.09,1.46L2.84,1.55l-0.1,0.22l-0.18-0.1L2.48,1.95L2.46,2.54l0.26,0.38L2.66,4.48l0.19,0.36l0.06,0.21v0.3L2.85,5.66
	c0,0-0.06,0.61-0.07,0.7C2.78,6.45,2.82,6.59,2.87,6.65s0.17,0.13,0.25,0.12s0.29,0,0.29,0l0.2,0.48l0.11,0.37l0.16,0.66
	c0,0,0.07,0.17,0.16,0.26c0.09,0.09,0.13,0.1,0.21,0.1s0.22,0.02,0.33,0.02c0.11-0.01,0.17,0.01,0.29,0.02s0.37,0.26,0.37,0.26
	l-0.01,0l-0.17,0.3c0,0-0.27,0.55-0.34,0.83c-0.08,0.28-0.3,1.07-0.34,1.48s-0.05,0.77-0.03,1s0.11,0.98,0.2,1.41
	s0.18,0.81,0.25,1.13c0.07,0.32,0.21,1.11,0.21,1.11l-1.5,1c0,0-0.6,0.02-0.85,0.06c-0.24,0.04-0.66,0.13-0.85,0.21
	c-0.19,0.08-0.58,0.31-0.73,0.42s-0.45,0.54-0.48,0.65c-0.03,0.11-0.14,0.37-0.14,0.37s0.02,0.15,0.08,0.29
	c0.06,0.14,0.15,0.21,0.15,0.21l0.18,0.02c0,0,0.03,0.15,0.13,0.23c0.1,0.08,0.21,0.06,0.21,0.06s0.11,0.27,0.2,0.34
	c0.09,0.07,0.22,0.1,0.37,0.14s0.26,0.05,0.35,0.04c0.09-0.01,0.64-0.23,0.64-0.23s0.63-0.15,0.86-0.25
	c0.22-0.09,0.46-0.28,0.6-0.41c0.13-0.13,0.35-0.4,0.35-0.4l1.03-0.21l0.04,0.14l0.06,0.18L5.2,19.57l-1.17,1.01
	c0,0-0.51-0.03-0.66-0.05c-0.15-0.02-0.52,0-0.69,0.05c-0.17,0.05-0.75,0.28-0.9,0.36c-0.15,0.08-0.4,0.32-0.4,0.32
	s-0.15,0.18-0.17,0.25c-0.02,0.07-0.11,0.29-0.11,0.29s-0.39,0.13-0.46,0.25C0.57,22.16,0.41,22.56,0.41,22.56z M7.57,37.73
	c0.02-0.05,0.1-0.33,0.23-0.62c0.14-0.3,0.33-0.62,0.35-0.68c0.04-0.12,0.13-0.24,0.16-0.29c0.03-0.05,0.07-0.04,0.14,0.02
	c0.08,0.06,0.55,0.8,0.64,0.94s0.46,0.67,0.46,0.67s0.03,0.32,0.14,0.75s0.2,0.5,0.39,0.64c0.2,0.15,0.42,0.21,0.42,0.21
	s0.04,0.17,0.13,0.42s0.66,1.61,0.92,2.24s0.4,0.9,0.56,1.33c0.17,0.43,0.32,0.87,0.39,1.16c0.07,0.29,0.23,0.94,0.23,0.94
	s-0.43,0.9-0.57,1.05c-0.14,0.15-0.68,0.39-0.88,0.49c-0.19,0.1-1.49,0.51-1.56,0.53c-0.07,0.02-0.05,0.08-0.05,0.08
	s-0.07-0.07-0.12-0.15c-0.05-0.07-0.56-2.35-0.65-2.75c-0.09-0.41-0.13-2.08-0.17-2.48c-0.04-0.4-0.29-1.27-0.38-1.56
	s-0.43-0.85-0.47-0.92c-0.04-0.07,0.08-0.29,0.12-0.44s-0.02-0.62-0.08-0.75s-0.12-0.28-0.27-0.49C7.54,37.88,7.52,37.84,7.57,37.73
	z"/>
<path id="skin-arm-r" class="st3" d="M5.18,17.14l0.24,1.01l0.02,0.14l-0.8,0.21l-0.42,0.14c0,0-0.18,0.29-0.27,0.39
	c-0.09,0.11-0.3,0.29-0.47,0.36c-0.17,0.07-0.62,0.17-0.62,0.17s-0.03,0.01-0.08,0s0.14-0.3,0.15-0.35
	c0.01-0.05-0.28-0.26-0.22-0.19s-0.27-0.19-0.27-0.19l0.36-0.07l0.68-0.16c0,0-0.09-0.11-0.17-0.15c-0.08-0.04-0.26-0.07-0.26-0.07
	s-0.21,0.06-0.34,0.05s-0.57-0.15-0.66-0.14s-0.46,0.18-0.54,0.2c-0.08,0.01-0.34,0-0.35-0.06c-0.01-0.07,0.09-0.19,0.19-0.25
	s0.44-0.25,0.53-0.29s0.65-0.23,0.8-0.24c0.15-0.02,0.74,0.06,0.74,0.06l1.62-0.98L5.18,17.14z"/>
<path id="player-jersey" class="st4" d="M5.01,10.38C5.07,10.16,5.13,10,5.22,9.89c0.08-0.1,0.2-0.41,0.2-0.41l-0.14,1.06
	c0,0,0.72-0.67,0.49-0.48S6.9,9.21,6.63,9.39s1.05-0.79,0.8-0.58s0.89-0.7,0.78-0.64s0.14-0.14,0.14-0.14S8.68,8.14,8.8,8.2
	s0.34,0.23,0.5,0.34c0.16,0.11,0.39,0.34,0.56,0.53c0.17,0.19,0.79,1.07,0.79,1.07s0.67,1.27,0.77,1.53
	c0.1,0.26,0.41,1.33,0.41,1.33l0.25,0.92l0.31,1.47l0.19,1.56l0.16,1.81l0.03,1.94c0,0,0.03,0.65,0.03,0.77
	c0,0.12,0.03,0.11-0.08,0.15c-0.08,0.03-0.37,0.07-0.46,0.1c-0.09,0.03-0.1-0.13-0.11-0.07s-0.04-0.8-0.06-1.2s0.03-1.03,0.01-1.23
	c-0.01-0.18-0.03-0.45-0.09-0.47s-0.11-0.01-0.17,0.07c-0.06,0.08-0.11,0.28-0.13,0.51c-0.02,0.23-0.09,0.49-0.09,0.81
	c-0.01,0.27-0.09,1.47-0.09,1.6s-0.03,0.08-0.13,0.12c-0.1,0.05-0.35,0.1-0.66,0.16s-1.11,0.14-1.59,0.17s-1.05,0.03-1.35,0.05
	c-0.22,0.02-0.65,0.03-0.76,0.04s-0.09,0.04-0.13-0.09c-0.04-0.13-0.19-0.59-0.19-0.59l-0.08-0.21l0.91-0.5c0,0,1.52-0.88,1.72-1
	c0.2-0.12,1-0.6,1.12-0.71c0.16-0.13,0.29-0.21,0.44-0.45c0.09-0.14,0.25-0.42,0.31-0.63c0.06-0.21,0.11-0.66,0.12-0.88
	c0.01-0.21-0.07-0.65-0.09-0.86c-0.02-0.21-0.21-1.24-0.21-1.24l-0.07-0.52c0,0,0.06,0,0.13-0.05s0.09-0.09,0.07-0.19
	c-0.12-0.47-0.5-1.93-0.62-2.32c-0.15-0.46-0.33-0.8-0.33-0.8l-0.02-0.04c0,0,0.01,0.35,0.1,0.93c0.07,0.46,0.26,1.37,0.34,1.8
	c0.04,0.24,0.01,0.25-0.13,0.3c-0.43,0.15-1.69,0.68-1.69,0.68l-1.05,0.49c0,0-0.6,0.24-0.71,0.28c-0.11,0.04-0.21-0.23-0.18-0.12
	s-1.37-2.99-1.37-2.99s0.34,1.15,0.65,2.05c0.23,0.69,0.58,1.5,0.62,1.59c0.04,0.08,0.1,0.11,0.19,0.08c0.09-0.03,0.7-0.24,0.7-0.24
	l0.48,0.8l-1.2,1.1L6.04,18.7c0,0-0.29-1.14-0.42-1.64c-0.2-0.78-0.56-2.6-0.62-2.89s-0.21-1.31-0.26-1.76
	c-0.05-0.45,0.01-0.66,0.07-1.13S4.96,10.55,5.01,10.38z"/>
<path id="skin-arm-l" class="st3" d="M2.67,23.36c-0.03,0.03-0.63,0.13-0.63,0.13s0.11,0.09,0.22,0.1c0.1,0.01,0.4-0.02,0.4-0.02
	s0.18-0.04,0.29-0.08c0.11-0.04,0.52-0.28,0.67-0.37c0.15-0.09,0.57-0.44,0.57-0.44l0.37-0.42c0,0,2.32-1.37,4.01-2.42
	c0.85-0.53,1.68-1.09,1.7-1.11c0.08-0.06,0.24-0.25,0.29-0.35s0.14-0.26,0.18-0.41s0.1-0.64,0.09-0.85
	c-0.02-0.38-0.18-1.28-0.18-1.28l-0.17-1c0,0-0.98,0.37-1.5,0.59s-1.08,0.54-1.08,0.54l0.48,0.71c0,0,0.18-0.24,0.23-0.28
	s0.26-0.12,0.3-0.06s0.12,0.18,0.09,0.22S8.15,17.4,8.15,17.4l-4.03,3.57L3.57,20.9c0,0-0.51-0.03-0.72,0.01
	c-0.21,0.04-0.81,0.38-0.81,0.38L1.7,21.44c0,0-0.16,0.17-0.15,0.25s0.27,0.01,0.27,0.01s0.78-0.27,0.82-0.24s-0.09,0.21-0.16,0.25
	C2.41,21.77,2,21.91,2,21.91l-0.75,0.22l-0.26,0.11c0,0-0.13,0.12-0.14,0.18c-0.01,0.06,0.37,0.05,0.37,0.05l0.68-0.07l0.03,0.16
	l-0.44,0.05l-0.51,0.04c0,0-0.03,0.07,0.04,0.18s0.25,0.11,0.25,0.11l0.8-0.07L2.2,23l-0.27,0.1l-0.57,0.06c0,0,0,0.1,0.04,0.15
	c0.05,0.05,0.2,0.05,0.2,0.05l0.44-0.03l0.47-0.03C2.51,23.3,2.7,23.33,2.67,23.36z"/>
<path id="skin-leg-r" class="st3" d="M9,36.14c0,0,0.55,0.69,0.69,0.91c0.1,0.15,0.22,0.31,0.29,0.39c0.03,0.04,0.03,0.07,0.14,0.03
	c0.11-0.04,0.38-0.08,0.71-0.32s0.78-0.67,0.84-0.75s0.03-0.16,0.03-0.16s-0.06-0.43-0.07-0.51c-0.01-0.08,0.01-0.09-0.08-0.08
	s-0.54,0.02-0.66,0.04c-0.12,0.01-0.41,0.02-0.48,0.08s-0.06,0.29-0.12,0.35s-0.15,0.07-0.26,0.09s-0.25,0.03-0.42,0
	S9,36.14,9,36.14z"/>
<path id="player-sock-r" class="st4" d="M10.58,38.85c0.13,0.03,0.43-0.08,0.43-0.08s0.07-0.14,0.15-0.11
	c0.08,0.02,0.15,0.06,0.16,0.14s-0.13,0.31-0.24,0.44s-0.04,0.2,0.01,0.32s0.43,1.16,0.43,1.16l0.81,1.89c0,0,0.57,1.53,0.69,2.01
	c0.06,0.24,0.18,0.73,0.25,0.8s0.38,0.1,0.45,0.19c0.07,0.09-0.07,0.17,0,0.31c0.07,0.14,0.49,0.57,0.62,0.55
	c0.13-0.02,0.37-0.18,0.5-0.31c0.13-0.13,0.24-0.31,0.25-0.39C15.1,45.67,15,45.5,15,45.5s-0.12-0.8-0.21-1.29s-0.24-1.25-0.31-1.72
	s-0.25-1.47-0.36-1.94s-0.16-0.72-0.39-1.2s-0.59-1.18-0.74-1.25c-0.15-0.07-0.16-0.03-0.28-0.06c-0.12-0.04-0.25-0.17-0.22-0.28
	c0.04-0.11,0.1-0.28,0.09-0.39c-0.01-0.11-0.07-0.32-0.19-0.44s-0.27-0.26-0.36-0.24s-0.62,0.62-0.92,0.8
	c-0.24,0.15-0.7,0.29-0.91,0.37c-0.05,0.02-0.15,0.05-0.1,0.18c0.07,0.2,0.08,0.45,0.17,0.57S10.45,38.82,10.58,38.85z"/>
<path class="st5" d="M12.96,48.38c0,0,0.03-0.35-0.13-0.35s-0.65,0-0.68,0.06c-0.04,0.06,0.03,0.3,0.03,0.3L12.96,48.38L12.96,48.38
	z"/>
<polygon class="st5" points="7.14,50.34 7.12,50 6.42,50.01 6.14,50.37 6.5,50.37 "/>
<path id="player-sock-l" class="st6" d="M8.81,48c0.1-0.11,0.1-0.39,0.18-0.47s0.13-0.06,0.13-0.18
	c0.01-0.13-0.24-1.14-0.24-1.14s-0.29-1.23-0.36-1.55c-0.07-0.31-0.09-0.89-0.1-1.14c-0.01-0.25-0.05-0.84-0.09-1.19
	c-0.04-0.35-0.24-1.29-0.36-1.56c-0.12-0.26-0.24-0.61-0.45-0.66c-0.2-0.05-0.46-0.06-0.6-0.08c-0.14-0.02-0.08-0.18-0.09-0.28
	c-0.01-0.1,0.09-0.07,0.23-0.14c0.15-0.07,0.35-0.08,0.42-0.16c0.07-0.08,0.12-0.32,0.09-0.47c-0.02-0.15-0.06-0.32-0.15-0.49
	s-0.16-0.34-0.27-0.33c-0.11,0.01-0.73,0.13-1.08,0.22c-0.35,0.09-1.07,0.29-1.14,0.41s-0.1,0.45-0.12,0.6
	c-0.03,0.15,0.07,0.68,0.19,0.73s0.31-0.04,0.37,0.06c0.05,0.11,0.03,0.18-0.06,0.32c-0.09,0.13-0.17,0.03-0.19,0.13
	c-0.02,0.1,0,0.45,0.06,0.67c0.07,0.21,0.68,2.16,0.81,2.66c0.13,0.5,0.84,3.03,0.94,3.08c0.1,0.04,0.42,0.11,0.44,0.17
	s0.07,0.66,0.14,0.78c0.07,0.12,0.48,0.38,0.66,0.36C8.35,48.33,8.71,48.12,8.81,48z"/>
<path id="skin-leg-l" class="st3" d="M7.14,37.6c0.02-0.08,0.04-0.2,0.08-0.32c0.05-0.19,0.58-1.13,0.6-1.22
	s-0.01-0.41-0.04-0.43S7.33,35.97,7.26,36s-1.51-0.18-1.85-0.23s-0.91-0.21-0.96-0.19s-0.13,0.44-0.15,0.59
	c-0.02,0.15-0.05,0.51,0,0.82c0.04,0.31,0.41,1.1,0.46,1.19s0.07,0.12,0.18,0.09c0.11-0.04,0.74-0.23,1.12-0.33
	c0.31-0.08,0.57-0.14,0.81-0.19C7.07,37.7,7.13,37.66,7.14,37.6z"/>
<path class="st1" d="M5.18,36.84c0.04-0.1-0.12-0.41-0.18-0.46c-0.05-0.05-0.2-0.14-0.24-0.11s-0.07,0.59-0.05,0.64
	s0.07,0.12,0.17,0.11C4.99,37.02,5.18,36.84,5.18,36.84S5.14,36.94,5.18,36.84z"/>
<path id="player-shorts-l" class="st5" d="M12.48,29.11c0.07,0.03-0.27,0.58-0.35,0.75s-0.27,0.52-0.46,0.98
	c-0.19,0.46-0.61,1.54-0.75,1.9s-0.91,2.7-0.91,2.7s-0.07,0.2-0.11,0.27s-0.14,0.05-0.14,0.05s-1.29-0.13-1.42-0.14
	c-0.12-0.02-0.12-0.02-0.13-0.11s-0.01-0.57-0.08-0.62S8,34.85,7.91,34.91c-0.07,0.05-0.53,0.5-0.59,0.56
	c-0.06,0.06-0.05,0.08-0.16,0.05s-1.13-0.11-1.59-0.2c-1.08-0.2-1.33-0.27-1.49-0.34s-0.12-0.06-0.08-0.31
	c0.02-0.11,0.21-1.05,0.3-1.48s0.65-2.95,0.79-3.45s0.44-1.51,0.54-1.85s0.23-0.81,0.33-1.17s0.38-1.16,0.49-1.48s0.36-0.96,0.4-1.1
	s0.16-0.34,0.29-0.36s0.53-0.04,0.6-0.09s0.13-0.23,0.05-0.28s-0.24-0.06-0.38-0.05s-0.46,0.05-0.52,0s-0.04-0.26-0.05-0.38
	s-0.02-0.2,0.09-0.21s0.54-0.02,0.54-0.02l1.12-0.03l2.19-0.22l1.31-0.16c0,0,0.83-0.21,0.9-0.19s0.15,0.14,0.17,0.31
	s0,0.19-0.08,0.3c-0.08,0.11-0.88,0.18-1,0.23c-0.11,0.05-0.19,0.03-0.19,0.11s0.11,0.3,0.23,0.32c0.12,0.03,0.64,0.08,0.64,0.08
	s0.42,0,0.51,0.14s0.29,0.71,0.35,0.99s0.08,0.8,0.04,1.18s-0.16,0.89-0.27,1.35s-0.49,0.96-0.73,1.2s-1.21,0.56-1.3,0.62
	c-0.09,0.06-0.22,0.52-0.16,0.56c0.07,0.03,0.53-0.19,0.67-0.23C12.04,29.27,12.41,29.07,12.48,29.11z"/>
<path id="player-shorts-r" class="st5" d="M13.26,28.85l-0.3,2.06c0,0-0.13,0.83-0.14,1.17s0.01,1.13,0.03,1.48
	s0.05,1.27,0.06,1.46c0.01,0.18,0.01,0.18-0.11,0.2s-0.53,0.02-0.94,0.03s-0.78,0.04-0.94,0.06c-0.16,0.02-0.37,0.02-0.37,0.02
	s0.36-1.29,0.52-1.69s0.45-1.19,0.56-1.48s0.22-0.46,0.35-0.8s0.37-0.77,0.59-1.22S13.26,28.85,13.26,28.85z"/>
<path class="st1" d="M9.51,25.29c0.07-0.07,0.19-0.25,0.31-0.34c0.12-0.1,0.68-0.22,0.79-0.26c0.11-0.04-0.08-0.31-0.19-0.33
	s-0.87,0.08-0.96,0.15s-0.52,0.84-0.64,0.99c-0.12,0.15-1.19,1.18-1.18,1.24s0.83-0.34,0.91-0.38c0.07-0.04,0.21-0.06,0.31-0.12
	C8.96,26.16,9.44,25.36,9.51,25.29z"/>
<path id="skin-arm-r-3" class="st2" d="M1.09,19.11c0.09,0.01,0.55-0.05,0.64-0.1s0.22-0.18,0.22-0.18s0.05-0.09-0.04-0.12
	s-0.27-0.01-0.38,0.01c-0.11,0.02-0.21,0.02-0.33,0.02s-0.25,0.11-0.25,0.11l-0.01,0.13C0.93,18.99,0.99,19.1,1.09,19.11z"/>
<path id="skin-arm-r-2" class="st2" d="M1.74,19.48c0.1-0.02,0.33-0.09,0.33-0.09l0.1-0.12c0,0-0.02-0.06-0.05-0.12
	s-0.14-0.09-0.14-0.09s-0.11,0.07-0.2,0.12s-0.28,0.04-0.28,0.04l-0.12,0.05l-0.01,0.1l0.06,0.08C1.43,19.46,1.64,19.5,1.74,19.48z"
	/>
<path id="skin-arm-r-1" class="st2" d="M1.86,19.62c0,0,0.17-0.02,0.27-0.05s0.22-0.13,0.22-0.13s0.12-0.01,0.15,0.04
	c0.03,0.05-0.05,0.23-0.05,0.23s-0.14,0.1-0.28,0.13c-0.14,0.03-0.32-0.02-0.32-0.02s-0.11-0.12-0.12-0.13
	c0-0.02,0.06-0.07,0.06-0.07H1.86z"/>
<path id="skin-face" class="st2" d="M3.02,3.46c0,0,0-0.23,0.06-0.24c0.06-0.01,0.62-0.06,0.62-0.06S4.02,3.17,4.13,3.2
	s0.52,0.2,0.52,0.2s0.26,0,0.3,0.02s0.16,0.11,0.16,0.11S5.49,3.9,5.76,4.14s1.03,0.89,1.11,0.87s0.29-0.49,0.36-0.47
	s0.2,0.31,0.2,0.4c0,0.09-0.13,0.1-0.12,0.16C7.3,5.14,7.39,5.3,7.47,5.34c0.08,0.05,0.1,0.01,0.14-0.02
	C7.65,5.3,7.88,4.62,7.95,4.71S7.65,5.6,7.65,5.6L7.41,5.8l0.17,0.15L7.6,6.1l0.02,0.35l0.12,0.71l0.14,0.78L6.81,8.8L5.82,9.51
	L5.7,8.87L5.56,8.7L5.24,8.43c0,0,0.97-0.73,1.04-0.85s0.14-0.23,0.19-0.32S6.64,7,6.57,6.98S6.36,6.93,6.3,7
	C6.2,7.14,6.19,7.19,6.1,7.34S5.16,8.05,5,8.12C4.84,8.2,4.57,8.27,4.49,8.25C4.41,8.23,4.37,8.2,4.3,8.17
	C4.23,8.14,4.14,7.74,4.14,7.74L4.1,7.46l0.08-0.09c0,0,0.13-0.11,0.12-0.16c-0.01-0.04-0.06-0.1-0.06-0.1L4.04,7.04
	c0,0-0.23-0.17-0.16-0.25s0.34-0.18,0.38-0.21S4.24,6.45,4.24,6.45L3.84,6.28c0,0-0.32,0.05-0.4,0.07c-0.08,0.02-0.18,0-0.22-0.03
	S3.17,6.19,3.17,6.14c0-0.06,0.13-1.15,0.13-1.15L3.27,4.73l0.27-0.07L3.65,4.8c0,0,0.04,0.28,0.17,0.3s0.32,0.03,0.4-0.08
	S4.24,4.6,4.24,4.6s0.14-0.19,0.21-0.2s0.21,0.05,0.28,0.04s0.09-0.06,0.09-0.06S4.7,4.31,4.61,4.29C4.52,4.27,4.18,4.25,4.12,4.27
	S3.54,4.36,3.54,4.36S3.18,4.44,3.12,4.41C3.05,4.39,2.99,4.22,2.99,4.22L3.02,3.46z"/>
<path id="hair" class="st0" d="M8.29,6.47l-0.12,0.2L8.1,6.69L8.01,6.2L8.1,5.94L7.94,5.79l0.24-0.55c0,0,0.15-0.52,0.12-0.71
	c-0.03-0.19-0.4-0.18-0.62,0c-0.03-0.03-0.23-0.4-0.36-0.4c-0.24,0-0.39,0.43-0.49,0.43c-0.1,0-0.95-0.77-0.95-0.77l-0.7-0.64
	l-0.4-0.04L4.29,2.92L3.87,2.86L3.41,2.89L3.09,2.94L2.72,2.49l0.01-0.37l0.13,0.06l0.15-0.35l0.32-0.12l0.14-0.47l0.38-0.25
	l0.5-0.05l0.29-0.07l0.4-0.25l0.79,0.14l0.89-0.09l0.09,0.11l1.03,0.31l0.29,0.38l0.4,0.04l0.41,0.73l0.58,1.22L9.35,3.57L9.2,4.06
	l0.13,0.45L9.16,4.98L9,5.25L8.87,5.65L8.5,6.3L8.29,6.47z"/>
</svg>
