<?xml version="1.0" encoding="utf-8"?>
<!-- Generator: Adobe Illustrator 16.0.4, SVG Export Plug-In . SVG Version: 6.00 Build 0)  -->
<!DOCTYPE svg PUBLIC "-//W3C//DTD SVG 1.1//EN" "http://www.w3.org/Graphics/SVG/1.1/DTD/svg11.dtd" [
	<!ENTITY ns_flows "http://ns.adobe.com/Flows/1.0/">
	<!ENTITY ns_extend "http://ns.adobe.com/Extensibility/1.0/">
	<!ENTITY ns_ai "http://ns.adobe.com/AdobeIllustrator/10.0/">
	<!ENTITY ns_graphs "http://ns.adobe.com/Graphs/1.0/">
]>
<svg version="1.1" id="Ebene_1" xmlns:x="&ns_extend;" xmlns:i="&ns_ai;" xmlns:graph="&ns_graphs;"
	 xmlns="http://www.w3.org/2000/svg" xmlns:xlink="http://www.w3.org/1999/xlink" xmlns:a="http://ns.adobe.com/AdobeSVGViewerExtensions/3.0/"
	 x="0px" y="0px" width="131.9px" height="77px" viewBox="0 0 131.9 77" style="enable-background:new 0 0 131.9 77;"
	 xml:space="preserve">
<style type="text/css">
<![CDATA[
	.st0{fill:#D0D0D0;stroke:#020203;stroke-width:0.3841;stroke-linecap:round;stroke-linejoin:round;stroke-miterlimit:3.8637;}
	.st1{fill:#D8D7D7;stroke:#FFFFFF;stroke-width:0.3841;stroke-linecap:round;stroke-linejoin:round;stroke-miterlimit:3.8637;}
	.st2{fill:#D0D0D0;stroke:#FFFFFF;stroke-width:0.3841;stroke-linecap:round;stroke-linejoin:round;stroke-miterlimit:3.8637;}
	.st3{fill:#D0D0D0;stroke:#080200;stroke-width:0.3841;stroke-linecap:round;stroke-linejoin:round;stroke-miterlimit:3.8637;}
	.st4{fill:#D0D0D0;stroke:#020203;stroke-width:0.5185;stroke-linecap:round;stroke-linejoin:round;stroke-miterlimit:3.8637;}
	.st5{fill:none;stroke:#FFFFFF;stroke-width:0.3841;stroke-linecap:round;stroke-linejoin:round;stroke-miterlimit:3.8637;}
	.st6{fill:none;stroke:#080200;stroke-width:0.3841;stroke-linecap:round;stroke-linejoin:round;stroke-miterlimit:3.8637;}
	.st7{fill:#D0D0D0;stroke:#020203;stroke-width:0.36;stroke-linecap:round;stroke-linejoin:round;stroke-miterlimit:3.8637;}
]]>
</style>
<g>
	<path class="st4" d="M5.39,53.13c0,0.74-1.08,1.35-2.41,1.35c-1.33,0-2.41-0.6-2.41-1.35V0.48h130.76v52.65
		c0,0.74-1.08,1.35-2.41,1.35s-2.41-0.6-2.41-1.35V4.89H5.39v47.35V53.13z"/>
	<path class="st7" d="M2.94,2.72c0.43,0,0.46,0.01,0.82,0.01L2.85,21.59l-0.82,0L2.94,2.72z"/>
	<path class="st7" d="M128.96,2.68c-0.43,0-0.46,0.01-0.82,0.01l0.93,18.91l0.82,0L128.96,2.68z"/>
	<path class="st0" d="M129.45,54.52c0-0.11-0.54-0.19-0.74-0.18c-0.21,0.01-0.7,0.12-0.69,0.23l1.28,20.17H2.76L4,54.56
		c0.01-0.12-0.6-0.22-0.8-0.23C3,54.32,2.53,54.4,2.52,54.52c0,0-1.41,21.58-1.41,21.63c0,0.2,0.09,0.37,0.21,0.37l129.29-0.01
		c0.12,0,0.21-0.17,0.21-0.37C130.82,76.08,129.45,54.52,129.45,54.52z"/>
	<line class="st3" x1="3.1" y1="2.76" x2="3.18" y2="54.37"/>
	<line class="st3" x1="128.77" y1="2.76" x2="128.69" y2="54.37"/>
	<line class="st5" x1="7.45" y1="2.71" x2="6.36" y2="21.64"/>
	<line class="st5" x1="11.72" y1="2.76" x2="10.71" y2="21.64"/>
	<line class="st5" x1="16" y1="2.76" x2="15.07" y2="21.52"/>
	<line class="st5" x1="20.27" y1="2.71" x2="19.42" y2="21.64"/>
	<line class="st5" x1="24.49" y1="2.76" x2="23.77" y2="21.64"/>
	<line class="st5" x1="28.81" y1="2.71" x2="28.13" y2="21.64"/>
	<line class="st5" x1="33.04" y1="2.71" x2="32.48" y2="21.64"/>
	<line class="st5" x1="37.31" y1="2.71" x2="36.83" y2="21.71"/>
	<line class="st5" x1="41.58" y1="2.71" x2="41.12" y2="21.64"/>
	<line class="st5" x1="45.86" y1="2.66" x2="45.54" y2="21.58"/>
	<line class="st5" x1="50.13" y1="2.71" x2="49.83" y2="21.64"/>
	<line class="st5" x1="54.4" y1="2.76" x2="54.18" y2="21.58"/>
	<line class="st5" x1="58.67" y1="2.71" x2="58.53" y2="21.52"/>
	<line class="st5" x1="62.47" y1="2.71" x2="62.37" y2="21.64"/>
	<line class="st2" x1="6.3" y1="21.48" x2="6.3" y2="75.64"/>
	<line class="st2" x1="10.71" y1="21.48" x2="10.71" y2="75.64"/>
	<line class="st2" x1="15.07" y1="21.48" x2="15.07" y2="75.64"/>
	<line class="st2" x1="19.48" y1="21.48" x2="19.48" y2="75.64"/>
	<line class="st2" x1="23.84" y1="21.48" x2="23.84" y2="75.64"/>
	<line class="st2" x1="28.13" y1="21.48" x2="28.13" y2="75.64"/>
	<line class="st2" x1="32.54" y1="21.48" x2="32.54" y2="75.64"/>
	<line class="st2" x1="36.83" y1="21.48" x2="36.83" y2="75.64"/>
	<line class="st2" x1="41.18" y1="21.48" x2="41.18" y2="75.64"/>
	<line class="st2" x1="45.54" y1="21.48" x2="45.54" y2="75.64"/>
	<line class="st2" x1="49.82" y1="21.48" x2="49.82" y2="75.64"/>
	<line class="st2" x1="54.18" y1="21.48" x2="54.18" y2="75.64"/>
	<line class="st2" x1="58.47" y1="21.48" x2="58.47" y2="75.64"/>
	<line class="st2" x1="62.43" y1="21.48" x2="62.43" y2="75.64"/>
	<line class="st2" x1="125.87" y1="21.48" x2="125.87" y2="75.64"/>
	<line class="st2" x1="121.45" y1="21.48" x2="121.45" y2="75.64"/>
	<line class="st2" x1="117.1" y1="21.48" x2="117.1" y2="75.64"/>
	<line class="st2" x1="112.69" y1="21.48" x2="112.69" y2="75.64"/>
	<line class="st2" x1="108.33" y1="21.48" x2="108.33" y2="75.64"/>
	<line class="st2" x1="104.04" y1="21.48" x2="104.04" y2="75.64"/>
	<line class="st2" x1="99.63" y1="21.48" x2="99.63" y2="75.64"/>
	<line class="st2" x1="95.34" y1="21.48" x2="95.34" y2="75.64"/>
	<line class="st2" x1="90.98" y1="21.48" x2="90.98" y2="75.64"/>
	<line class="st2" x1="86.63" y1="21.48" x2="86.63" y2="75.64"/>
	<line class="st2" x1="82.34" y1="21.48" x2="82.34" y2="75.64"/>
	<line class="st2" x1="77.99" y1="21.48" x2="77.99" y2="75.64"/>
	<line class="st2" x1="73.7" y1="21.48" x2="73.7" y2="75.64"/>
	<line class="st2" x1="69.73" y1="21.48" x2="69.73" y2="75.64"/>
	<line class="st1" x1="65.99" y1="75.54" x2="65.99" y2="2.71"/>
	<line class="st5" x1="124.69" y1="2.76" x2="125.77" y2="21.64"/>
	<line class="st5" x1="120.42" y1="2.76" x2="121.42" y2="21.64"/>
	<line class="st5" x1="116.19" y1="2.71" x2="117.07" y2="21.52"/>
	<line class="st5" x1="111.92" y1="2.76" x2="112.72" y2="21.64"/>
	<line class="st5" x1="107.61" y1="2.69" x2="108.36" y2="21.64"/>
	<line class="st5" x1="103.37" y1="2.71" x2="104.01" y2="21.64"/>
	<line class="st5" x1="99.05" y1="2.76" x2="99.66" y2="21.64"/>
	<line class="st5" x1="94.87" y1="2.71" x2="95.31" y2="21.71"/>
	<line class="st5" x1="90.55" y1="2.71" x2="91.02" y2="21.64"/>
	<line class="st5" x1="86.28" y1="2.76" x2="86.6" y2="21.58"/>
	<line class="st5" x1="82.01" y1="2.71" x2="82.31" y2="21.64"/>
	<line class="st5" x1="77.73" y1="2.71" x2="77.96" y2="21.58"/>
	<line class="st5" x1="73.51" y1="2.76" x2="73.61" y2="21.52"/>
	<line class="st5" x1="69.72" y1="2.76" x2="69.76" y2="21.64"/>
	<line class="st2" x1="2.97" y1="5.43" x2="128.92" y2="5.43"/>
	<line class="st2" x1="2.81" y1="8.12" x2="129.07" y2="8.12"/>
	<line class="st2" x1="2.71" y1="10.81" x2="129.24" y2="10.81"/>
	<line class="st2" x1="2.55" y1="13.5" x2="129.36" y2="13.5"/>
	<line class="st2" x1="2.39" y1="16.19" x2="129.49" y2="16.19"/>
	<line class="st2" x1="2.26" y1="18.87" x2="129.67" y2="18.87"/>
	<polyline class="st6" points="3.19,54.52 1.95,75.64 129.97,75.64 128.7,54.51 	"/>
	<polyline class="st6" points="3.1,2.72 2.05,21.58 129.85,21.55 128.86,2.72 3.1,2.72 	"/>
	<line class="st2" x1="129.87" y1="46.84" x2="2.03" y2="46.84"/>
	<line class="st2" x1="129.9" y1="43.23" x2="2.03" y2="43.23"/>
	<line class="st2" x1="129.87" y1="39.63" x2="2.03" y2="39.63"/>
	<line class="st2" x1="129.87" y1="36.02" x2="2.03" y2="36.02"/>
	<line class="st2" x1="129.86" y1="32.41" x2="2.03" y2="32.41"/>
	<line class="st2" x1="129.86" y1="28.81" x2="2.13" y2="28.81"/>
	<line class="st2" x1="129.84" y1="25.2" x2="2.03" y2="25.2"/>
	<line class="st2" x1="129.9" y1="72.08" x2="2.03" y2="72.08"/>
	<line class="st2" x1="129.92" y1="68.47" x2="2.03" y2="68.47"/>
	<line class="st2" x1="129.88" y1="64.87" x2="2.03" y2="64.87"/>
	<line class="st2" x1="129.84" y1="61.26" x2="2.03" y2="61.26"/>
	<line class="st2" x1="129.88" y1="57.66" x2="2.03" y2="57.66"/>
	<line class="st2" x1="129.92" y1="54.05" x2="2.03" y2="54.05"/>
	<line class="st2" x1="129.92" y1="50.44" x2="2.03" y2="50.44"/>
	<line class="st6" x1="2.07" y1="21.48" x2="1.93" y2="75.62"/>
	<line class="st6" x1="129.85" y1="21.67" x2="129.97" y2="75.54"/>
</g>
</svg>
