<?xml version="1.0" encoding="utf-8"?>
<!-- Generator: Adobe Illustrator 16.0.4, SVG Export Plug-In . SVG Version: 6.00 Build 0)  -->
<!DOCTYPE svg PUBLIC "-//W3C//DTD SVG 1.1//EN" "http://www.w3.org/Graphics/SVG/1.1/DTD/svg11.dtd" [
	<!ENTITY ns_flows "http://ns.adobe.com/Flows/1.0/">
	<!ENTITY ns_extend "http://ns.adobe.com/Extensibility/1.0/">
	<!ENTITY ns_ai "http://ns.adobe.com/AdobeIllustrator/10.0/">
	<!ENTITY ns_graphs "http://ns.adobe.com/Graphs/1.0/">
]>
<svg version="1.1" id="Ebene_1" xmlns:x="&ns_extend;" xmlns:i="&ns_ai;" xmlns:graph="&ns_graphs;"
	 xmlns="http://www.w3.org/2000/svg" xmlns:xlink="http://www.w3.org/1999/xlink" xmlns:a="http://ns.adobe.com/AdobeSVGViewerExtensions/3.0/"
	 x="0px" y="0px" width="36px" height="117.9px" viewBox="0 0 36 117.9" style="enable-background:new 0 0 36 117.9;"
	 xml:space="preserve">
<style type="text/css">
<![CDATA[
	.st0{fill:#D8D7D7;stroke:#FFFFFF;stroke-width:0.3939;stroke-linecap:round;stroke-linejoin:round;stroke-miterlimit:3.8637;}
	.st1{fill:#D0D0D0;stroke:#030304;stroke-width:0.5318;stroke-linecap:round;stroke-linejoin:round;stroke-miterlimit:3.8637;}
	
		.st2{fill-rule:evenodd;clip-rule:evenodd;fill:none;stroke:#FFFFFF;stroke-width:0.35;stroke-linecap:round;stroke-linejoin:round;stroke-miterlimit:3.8637;}
	.st3{fill:none;stroke:#FFFFFF;stroke-width:0.3939;stroke-linecap:round;stroke-linejoin:round;stroke-miterlimit:3.8637;}
	.st4{fill:none;stroke:#080200;stroke-width:0.3939;stroke-linecap:round;stroke-linejoin:round;stroke-miterlimit:3.8637;}
	.st5{fill:#D0D0D0;stroke:#020203;stroke-width:0.394;stroke-linecap:round;stroke-linejoin:round;stroke-miterlimit:3.8637;}
	.st6{fill:#D0D0D0;stroke:#020203;stroke-width:0.36;stroke-linecap:round;stroke-linejoin:round;stroke-miterlimit:3.8637;}
	.st7{fill:#D0D0D0;stroke:#020203;stroke-width:0.3939;stroke-linecap:round;stroke-linejoin:round;stroke-miterlimit:3.8637;}
]]>
</style>
<g>
	<path class="st7" d="M32.76,53.28H1.23c-0.12,0-0.21,0.47-0.21,0.71c0,0.23,0.1,0.92,0.21,0.92h30.82l2.04,60.53h-33
		c-0.12,0-0.21,0.47-0.21,0.71c0,0.23,0.22,0.56,0.34,0.56c0,0,33.57,0,33.79,0s0.35-0.14,0.35-0.35l-2.21-62.51
		C33.14,53.55,33.05,53.28,32.76,53.28z"/>
	<line class="st4" x1="32.41" y1="54.18" x2="5.73" y2="54.18"/>
	<path class="st6" d="M5.48,64.49c0,0.46,0.01,0.5,0.01,0.88c0,0,16.6-0.01,17.87-0.01c1.03,0,1.9,0.88,1.9,1.63
		c0,0.58,0,1.43,0,1.6c0,0.47-0.18,1-1,1.53c-0.99,0.64-18.73,6.68-18.73,6.68c0,0.57,0,0.43,0,0.98c0,0,18.5-6.52,19.14-6.9
		c1.03-0.61,1.42-1.27,1.42-2.06c0-0.94,0-1.96,0-1.96c0-1.2-1.28-2.38-2.78-2.38C23.21,64.49,5.48,64.49,5.48,64.49z"/>
	<path class="st5" d="M5.15,1.37c0,0.43,0.01,0.46,0.01,0.82c0,0,15.82-0.01,17-0.01c0.96,0,1.77,0.82,1.77,1.52
		c0,0.55,0,1.33,0,1.5c0,0.44-0.17,0.93-0.94,1.43c-0.92,0.6-17.76,7.28-17.76,7.28c0,0.53,0,0.4,0,0.92c0,0,17.55-7.14,18.15-7.49
		c0.96-0.57,1.33-1.19,1.33-1.92c0-0.87,0-1.83,0-1.83c0-1.11-1.2-2.22-2.59-2.22C22.03,1.36,5.15,1.37,5.15,1.37z"/>
	<line class="st0" x1="30.23" y1="115.7" x2="30.23" y2="89.97"/>
	<line class="st0" x1="26.1" y1="115.7" x2="26.1" y2="64.53"/>
	<line class="st0" x1="5.22" y1="5.1" x2="24.75" y2="5.1"/>
	<line class="st0" x1="5.25" y1="12.52" x2="24.89" y2="12.52"/>
	<line class="st0" x1="5.22" y1="8.81" x2="24.83" y2="8.81"/>
	<line class="st0" x1="5.28" y1="16.23" x2="25.02" y2="16.23"/>
	<line class="st0" x1="5.31" y1="19.94" x2="25.12" y2="19.94"/>
	<line class="st0" x1="5.31" y1="23.64" x2="25.2" y2="23.64"/>
	<line class="st0" x1="5.34" y1="27.35" x2="25.23" y2="27.35"/>
	<line class="st0" x1="5.37" y1="31.06" x2="25.33" y2="31.06"/>
	<line class="st0" x1="5.4" y1="34.77" x2="25.39" y2="34.77"/>
	<line class="st0" x1="5.4" y1="38.48" x2="25.5" y2="38.48"/>
	<line class="st0" x1="5.51" y1="60.74" x2="26.04" y2="60.74"/>
	<line class="st0" x1="13.72" y1="115.7" x2="13.72" y2="64.53"/>
	<line class="st0" x1="9.6" y1="115.7" x2="9.6" y2="64.53"/>
	<line class="st0" x1="17.85" y1="115.7" x2="17.85" y2="64.53"/>
	<line class="st0" x1="21.97" y1="115.7" x2="21.97" y2="64.53"/>
	<line class="st0" x1="29.6" y1="86.31" x2="5.38" y2="86.31"/>
	<line class="st0" x1="28.41" y1="79.02" x2="5.38" y2="79.02"/>
	<line class="st0" x1="29.01" y1="82.67" x2="5.38" y2="82.67"/>
	<line class="st0" x1="30.26" y1="89.95" x2="5.38" y2="89.95"/>
	<line class="st0" x1="30.85" y1="93.59" x2="5.38" y2="93.59"/>
	<line class="st0" x1="31.38" y1="97.24" x2="5.38" y2="97.24"/>
	<line class="st0" x1="32.01" y1="100.88" x2="5.38" y2="100.88"/>
	<line class="st0" x1="32.6" y1="104.52" x2="5.38" y2="104.52"/>
	<line class="st0" x1="33.19" y1="108.16" x2="5.38" y2="108.16"/>
	<line class="st0" x1="33.82" y1="111.8" x2="5.38" y2="111.8"/>
	<line class="st0" x1="5.43" y1="42.19" x2="25.6" y2="42.19"/>
	<line class="st0" x1="5.47" y1="45.9" x2="25.69" y2="45.9"/>
	<line class="st0" x1="5.47" y1="49.61" x2="25.76" y2="49.61"/>
	<line class="st0" x1="5.6" y1="57.03" x2="25.94" y2="57.03"/>
	<line class="st0" x1="27.82" y1="75.38" x2="5.38" y2="75.38"/>
	<line class="st0" x1="27.26" y1="71.74" x2="5.38" y2="71.74"/>
	<line class="st0" x1="5.53" y1="53.32" x2="25.82" y2="53.32"/>
	<line class="st3" x1="9.61" y1="64.48" x2="9.03" y2="1.39"/>
	<line class="st3" x1="13.73" y1="64.48" x2="12.9" y2="1.39"/>
	<line class="st3" x1="17.86" y1="64.48" x2="16.75" y2="1.39"/>
	<line class="st3" x1="21.98" y1="64.48" x2="20.59" y2="1.39"/>
	<line class="st0" x1="26.69" y1="68.1" x2="5.38" y2="68.1"/>
	<line class="st3" x1="34.29" y1="108.81" x2="25.99" y2="57.04"/>
	<line class="st3" x1="34.06" y1="101.71" x2="25.8" y2="49.64"/>
	<line class="st3" x1="33.81" y1="94.35" x2="25.63" y2="42.22"/>
	<line class="st3" x1="33.54" y1="86.71" x2="25.46" y2="34.78"/>
	<line class="st3" x1="33.31" y1="79.08" x2="25.27" y2="27.36"/>
	<line class="st3" x1="33.06" y1="71.96" x2="25.12" y2="19.92"/>
	<line class="st3" x1="32.91" y1="68.04" x2="25.02" y2="16.25"/>
	<line class="st3" x1="32.64" y1="60.56" x2="24.87" y2="8.81"/>
	<path class="st2" d="M34.51,115.9"/>
	<line class="st2" x1="33.85" y1="111.81" x2="31.34" y2="46.65"/>
	<line class="st2" x1="31.48" y1="97.19" x2="29.28" y2="33.04"/>
	<path class="st2" d="M32.04,100.88"/>
	<line class="st2" x1="32.66" y1="104.44" x2="30.32" y2="40.06"/>
	<path class="st2" d="M33.23,108.19"/>
	<path class="st2" d="M30.85,93.56"/>
	<line class="st2" x1="30.27" y1="89.92" x2="28.23" y2="26.16"/>
	<path class="st2" d="M29.64,86.29"/>
	<line class="st2" x1="29.06" y1="82.58" x2="27.16" y2="19.06"/>
	<path class="st2" d="M28.48,79"/>
	<line class="st2" x1="27.85" y1="75.33" x2="26.07" y2="12.22"/>
	<path class="st2" d="M27.27,71.67"/>
	<line class="st2" x1="26.68" y1="68.04" x2="25.04" y2="5.25"/>
	<polygon class="st4" points="5.27,115.93 34.51,115.93 26.1,64.48 5.27,64.48 	"/>
	<path class="st1" d="M5.44,63.2l0.02,52.92c0,0.84-1.07,1.19-2.39,1.19c-1.32,0-2.4-0.35-2.4-1.19L0.65,63.2H5.44z"/>
	<path class="st1" d="M5.15,0.59l0.31,62.52c-0.91,0-3.77,0-4.79,0L0.67,0.59H5.15z"/>
	<line class="st4" x1="34.54" y1="115.94" x2="32.45" y2="54.19"/>
	<polyline class="st4" points="21.07,1.36 5.15,1.36 5.39,64.48 26.16,64.48 24.73,3.08 	"/>
	<line class="st4" x1="32.41" y1="54.18" x2="32.11" y2="54.18"/>
	<path class="st4" d="M24.73,3.14c-0.13-0.7-0.98-1.76-2.34-1.76"/>
	<line class="st4" x1="32.45" y1="54.21" x2="24.73" y2="3.12"/>
</g>
</svg>
