<?xml version="1.0" encoding="utf-8"?>
<!-- Generator: Adobe Illustrator 16.0.4, SVG Export Plug-In . SVG Version: 6.00 Build 0)  -->
<!DOCTYPE svg PUBLIC "-//W3C//DTD SVG 1.1//EN" "http://www.w3.org/Graphics/SVG/1.1/DTD/svg11.dtd" [
	<!ENTITY ns_flows "http://ns.adobe.com/Flows/1.0/">
	<!ENTITY ns_extend "http://ns.adobe.com/Extensibility/1.0/">
	<!ENTITY ns_ai "http://ns.adobe.com/AdobeIllustrator/10.0/">
	<!ENTITY ns_graphs "http://ns.adobe.com/Graphs/1.0/">
]>
<svg version="1.1" id="Ebene_1" xmlns:x="&ns_extend;" xmlns:i="&ns_ai;" xmlns:graph="&ns_graphs;"
	 xmlns="http://www.w3.org/2000/svg" xmlns:xlink="http://www.w3.org/1999/xlink" xmlns:a="http://ns.adobe.com/AdobeSVGViewerExtensions/3.0/"
	 x="0px" y="0px" width="36px" height="117.9px" viewBox="0 0 36 117.9" style="enable-background:new 0 0 36 117.9;"
	 xml:space="preserve">
<style type="text/css">
<![CDATA[
	.st0{fill:#D8D7D7;stroke:#FFFFFF;stroke-width:0.3939;stroke-linecap:round;stroke-linejoin:round;stroke-miterlimit:3.8637;}
	.st1{fill:#D0D0D0;stroke:#030304;stroke-width:0.5318;stroke-linecap:round;stroke-linejoin:round;stroke-miterlimit:3.8637;}
	
		.st2{fill-rule:evenodd;clip-rule:evenodd;fill:none;stroke:#FFFFFF;stroke-width:0.35;stroke-linecap:round;stroke-linejoin:round;stroke-miterlimit:3.8637;}
	.st3{fill:none;stroke:#FFFFFF;stroke-width:0.3939;stroke-linecap:round;stroke-linejoin:round;stroke-miterlimit:3.8637;}
	.st4{fill:none;stroke:#080200;stroke-width:0.3939;stroke-linecap:round;stroke-linejoin:round;stroke-miterlimit:3.8637;}
	.st5{fill:#D0D0D0;stroke:#020203;stroke-width:0.394;stroke-linecap:round;stroke-linejoin:round;stroke-miterlimit:3.8637;}
	.st6{fill:#D0D0D0;stroke:#020203;stroke-width:0.36;stroke-linecap:round;stroke-linejoin:round;stroke-miterlimit:3.8637;}
	.st7{fill:#D0D0D0;stroke:#020203;stroke-width:0.3939;stroke-linecap:round;stroke-linejoin:round;stroke-miterlimit:3.8637;}
]]>
</style>
<g>
	<path class="st7" d="M3.24,53.28h31.53c0.12,0,0.21,0.47,0.21,0.71c0,0.23-0.1,0.92-0.21,0.92H3.95l-2.04,60.53h33
		c0.12,0,0.21,0.47,0.21,0.71c0,0.23-0.22,0.56-0.34,0.56c0,0-33.57,0-33.79,0s-0.35-0.14-0.35-0.35l2.21-62.51
		C2.86,53.55,2.95,53.28,3.24,53.28z"/>
	<line class="st4" x1="3.59" y1="54.18" x2="30.27" y2="54.18"/>
	<path class="st6" d="M30.52,64.49c0,0.46-0.01,0.5-0.01,0.88c0,0-16.6-0.01-17.87-0.01c-1.03,0-1.9,0.88-1.9,1.63
		c0,0.58,0,1.43,0,1.6c0,0.47,0.18,1,1,1.53c0.99,0.64,18.73,6.68,18.73,6.68c0,0.57,0,0.43,0,0.98c0,0-18.5-6.52-19.14-6.9
		c-1.03-0.61-1.42-1.27-1.42-2.06c0-0.94,0-1.96,0-1.96c0-1.2,1.28-2.38,2.78-2.38C12.79,64.49,30.52,64.49,30.52,64.49z"/>
	<path class="st5" d="M30.85,1.37c0,0.43-0.01,0.46-0.01,0.82c0,0-15.82-0.01-17-0.01c-0.96,0-1.77,0.82-1.77,1.52
		c0,0.55,0,1.33,0,1.5c0,0.44,0.17,0.93,0.94,1.43c0.92,0.6,17.76,7.28,17.76,7.28c0,0.53,0,0.4,0,0.92c0,0-17.55-7.14-18.15-7.49
		c-0.96-0.57-1.33-1.19-1.33-1.92c0-0.87,0-1.83,0-1.83c0-1.11,1.2-2.22,2.59-2.22C13.97,1.36,30.85,1.37,30.85,1.37z"/>
	<line class="st0" x1="5.77" y1="115.7" x2="5.77" y2="89.97"/>
	<line class="st0" x1="9.9" y1="115.7" x2="9.9" y2="64.53"/>
	<line class="st0" x1="30.78" y1="5.1" x2="11.25" y2="5.1"/>
	<line class="st0" x1="30.75" y1="12.52" x2="11.11" y2="12.52"/>
	<line class="st0" x1="30.78" y1="8.81" x2="11.17" y2="8.81"/>
	<line class="st0" x1="30.72" y1="16.23" x2="10.98" y2="16.23"/>
	<line class="st0" x1="30.69" y1="19.94" x2="10.88" y2="19.94"/>
	<line class="st0" x1="30.69" y1="23.64" x2="10.8" y2="23.64"/>
	<line class="st0" x1="30.66" y1="27.35" x2="10.77" y2="27.35"/>
	<line class="st0" x1="30.63" y1="31.06" x2="10.67" y2="31.06"/>
	<line class="st0" x1="30.6" y1="34.77" x2="10.61" y2="34.77"/>
	<line class="st0" x1="30.6" y1="38.48" x2="10.5" y2="38.48"/>
	<line class="st0" x1="30.49" y1="60.74" x2="9.96" y2="60.74"/>
	<line class="st0" x1="22.28" y1="115.7" x2="22.28" y2="64.53"/>
	<line class="st0" x1="26.4" y1="115.7" x2="26.4" y2="64.53"/>
	<line class="st0" x1="18.15" y1="115.7" x2="18.15" y2="64.53"/>
	<line class="st0" x1="14.03" y1="115.7" x2="14.03" y2="64.53"/>
	<line class="st0" x1="6.4" y1="86.31" x2="30.62" y2="86.31"/>
	<line class="st0" x1="7.59" y1="79.02" x2="30.62" y2="79.02"/>
	<line class="st0" x1="6.99" y1="82.67" x2="30.62" y2="82.67"/>
	<line class="st0" x1="5.74" y1="89.95" x2="30.62" y2="89.95"/>
	<line class="st0" x1="5.15" y1="93.59" x2="30.62" y2="93.59"/>
	<line class="st0" x1="4.62" y1="97.24" x2="30.62" y2="97.24"/>
	<line class="st0" x1="3.99" y1="100.88" x2="30.62" y2="100.88"/>
	<line class="st0" x1="3.4" y1="104.52" x2="30.62" y2="104.52"/>
	<line class="st0" x1="2.81" y1="108.16" x2="30.62" y2="108.16"/>
	<line class="st0" x1="2.18" y1="111.8" x2="30.62" y2="111.8"/>
	<line class="st0" x1="30.57" y1="42.19" x2="10.4" y2="42.19"/>
	<line class="st0" x1="30.53" y1="45.9" x2="10.31" y2="45.9"/>
	<line class="st0" x1="30.53" y1="49.61" x2="10.24" y2="49.61"/>
	<line class="st0" x1="30.4" y1="57.03" x2="10.06" y2="57.03"/>
	<line class="st0" x1="8.18" y1="75.38" x2="30.62" y2="75.38"/>
	<line class="st0" x1="8.74" y1="71.74" x2="30.62" y2="71.74"/>
	<line class="st0" x1="30.47" y1="53.32" x2="10.18" y2="53.32"/>
	<line class="st3" x1="26.39" y1="64.48" x2="26.97" y2="1.39"/>
	<line class="st3" x1="22.27" y1="64.48" x2="23.1" y2="1.39"/>
	<line class="st3" x1="18.14" y1="64.48" x2="19.25" y2="1.39"/>
	<line class="st3" x1="14.02" y1="64.48" x2="15.41" y2="1.39"/>
	<line class="st0" x1="9.31" y1="68.1" x2="30.62" y2="68.1"/>
	<line class="st3" x1="1.71" y1="108.81" x2="10.01" y2="57.04"/>
	<line class="st3" x1="1.94" y1="101.71" x2="10.2" y2="49.64"/>
	<line class="st3" x1="2.19" y1="94.35" x2="10.37" y2="42.22"/>
	<line class="st3" x1="2.46" y1="86.71" x2="10.54" y2="34.78"/>
	<line class="st3" x1="2.69" y1="79.08" x2="10.73" y2="27.36"/>
	<line class="st3" x1="2.94" y1="71.96" x2="10.88" y2="19.92"/>
	<line class="st3" x1="3.09" y1="68.04" x2="10.98" y2="16.25"/>
	<line class="st3" x1="3.36" y1="60.56" x2="11.13" y2="8.81"/>
	<path class="st2" d="M1.49,115.9"/>
	<line class="st2" x1="2.15" y1="111.81" x2="4.66" y2="46.65"/>
	<line class="st2" x1="4.52" y1="97.19" x2="6.72" y2="33.04"/>
	<path class="st2" d="M3.96,100.88"/>
	<line class="st2" x1="3.34" y1="104.44" x2="5.68" y2="40.06"/>
	<path class="st2" d="M2.77,108.19"/>
	<path class="st2" d="M5.15,93.56"/>
	<line class="st2" x1="5.73" y1="89.92" x2="7.77" y2="26.16"/>
	<path class="st2" d="M6.36,86.29"/>
	<line class="st2" x1="6.94" y1="82.58" x2="8.84" y2="19.06"/>
	<path class="st2" d="M7.52,79"/>
	<line class="st2" x1="8.15" y1="75.33" x2="9.93" y2="12.22"/>
	<path class="st2" d="M8.73,71.67"/>
	<line class="st2" x1="9.32" y1="68.04" x2="10.96" y2="5.25"/>
	<polygon class="st4" points="30.73,115.93 1.49,115.93 9.9,64.48 30.73,64.48 	"/>
	<path class="st1" d="M30.56,63.2l-0.02,52.92c0,0.84,1.07,1.19,2.39,1.19c1.32,0,2.4-0.35,2.4-1.19l0.02-52.92H30.56z"/>
	<path class="st1" d="M30.85,0.59l-0.31,62.52c0.91,0,3.77,0,4.79,0L35.33,0.59H30.85z"/>
	<line class="st4" x1="1.46" y1="115.94" x2="3.55" y2="54.19"/>
	<polyline class="st4" points="14.93,1.36 30.85,1.36 30.61,64.48 9.84,64.48 11.27,3.08 	"/>
	<line class="st4" x1="3.59" y1="54.18" x2="3.89" y2="54.18"/>
	<path class="st4" d="M11.27,3.14c0.13-0.7,0.98-1.76,2.34-1.76"/>
	<line class="st4" x1="3.55" y1="54.21" x2="11.27" y2="3.12"/>
</g>
</svg>
