<?xml version="1.0" encoding="utf-8"?>
<!-- Generator: Adobe Illustrator 16.0.4, SVG Export Plug-In . SVG Version: 6.00 Build 0)  -->
<!DOCTYPE svg PUBLIC "-//W3C//DTD SVG 1.1//EN" "http://www.w3.org/Graphics/SVG/1.1/DTD/svg11.dtd">
<svg version="1.1" id="Ebene_1" xmlns="http://www.w3.org/2000/svg" xmlns:xlink="http://www.w3.org/1999/xlink" x="0px" y="0px"
	 width="20.798px" height="51.14px" viewBox="0 0 20.798 51.14" enable-background="new 0 0 20.798 51.14" xml:space="preserve">
<path fill-rule="evenodd" clip-rule="evenodd" fill="#1A1A18" d="M19.811,16.571c-0.172-0.594-0.505-1.582-0.505-1.582
	s0.102-0.125,0.161-0.184c0.078-0.078-0.031-0.359-0.25-0.797s-0.641-1.297-0.938-1.875c-0.284-0.553-0.416-0.83-0.562-1.109
	c-0.093-0.177-0.337-0.674-0.484-0.875c-0.085-0.117-0.324-0.365-0.422-0.469c-0.239-0.253-0.703-0.5-1.031-0.703
	c-0.315-0.195-0.969-0.406-1.328-0.547c-0.134-0.052-0.261-0.08-0.364-0.098c0.194-0.397,0.453-0.85,0.453-0.85
	s0.199-0.16,0.291-0.25c0.162-0.159,0.323-0.412,0.386-0.677c0.038-0.162,0.044-0.562,0.047-0.703
	c0.003-0.101-0.181-0.248-0.181-0.248s0.157-0.525,0.254-0.941c0.096-0.417,0.117-0.686,0.135-1.056s-0.152-1.079-0.464-1.468
	c-0.143-0.2-0.298-0.369-0.59-0.523c-0.126-0.067-0.489-0.246-0.661-0.299c-0.009-0.047-0.184-0.258-0.475-0.449
	c-0.301-0.198-1.033-0.239-1.392-0.017c-0.383,0.24-0.48,0.473-0.48,0.473s-0.866,0.438-1.192,0.878
	c-0.149,0.202-0.393,0.521-0.462,1.052C9.694,3.73,9.715,4.287,9.931,5.105L9.982,5.59c0,0-0.108-0.006-0.175,0.152
	C9.739,5.9,9.707,5.97,9.747,6.149c0.046,0.204,0.166,0.774,0.339,0.922c0.172,0.147,0.328,0.328,0.328,0.328s0.17,0.417,0.362,0.83
	c-0.005,0-0.009-0.002-0.014-0.001c-0.13,0.023-0.516,0.068-0.875,0.125C9.255,8.453,8.536,8.585,8.247,8.665
	c-0.154,0.042-0.576,0.131-1.031,0.25c-0.384,0.1-0.804,0.231-0.969,0.281C5.888,9.306,5.373,9.482,5.341,9.556
	s0.001,0.146,0.001,0.146L5.033,9.852c0,0-0.836,0.421-1.11,0.617c-0.272,0.196-0.388,0.329-0.504,0.493
	C3.302,11.125,3,11.651,2.883,11.88c-0.116,0.23-0.421,1.046-0.484,1.347c-0.062,0.3-0.201,1.336-0.242,1.651
	c-0.039,0.315-0.253,3.537-0.253,3.537s-0.2,0.294-0.344,0.453c-0.144,0.159-0.396,0.511-0.512,0.721
	c-0.117,0.211-0.194,0.594-0.247,0.794c-0.053,0.2-0.065,0.566-0.041,0.805c0.025,0.238,0.144,0.727,0.144,0.727l0.13,0.296
	c0,0,0.201,0.218,0.25,0.256s0.106,0.076,0.205,0.066c0.1-0.009,0.195-0.176,0.195-0.176s0.06,0.122,0.164,0.154
	c0.104,0.032,0.1,0.018,0.227-0.044c0.242-0.12,0.246-0.783,0.246-0.783s0.12,0.188,0.38,0.215c0.188,0,0.394-0.249,0.462-0.38
	c0.067-0.131,0.037-0.454,0.062-0.694c0.024-0.241,0.142-0.492,0.175-0.651c0.032-0.158-0.038-0.615,0.005-0.821
	c0.043-0.207,0.265-1.409,0.383-1.863c0.118-0.454,0.654-2.903,0.751-3.237c0.098-0.333,0.313-0.774,0.369-0.838
	c0.057-0.064,0.416-0.167,0.416-0.167l0.394-0.115l0.089,0.762c0,0,0.042,0.116,0.146,0.16c0.026,0.011,0.162,0.005,0.25,0
	c0.263-0.016,1.25-0.047,1.25-0.047s-0.003,1.166,0.016,1.734s0.031,1.953,0.031,2.453s-0.062,1.516-0.031,1.703
	s0.062,0.266,0.047,0.406s-0.094,0.234-0.172,0.359c-0.076,0.122-0.125,0.328-0.156,0.453s-0.172,0.234-0.375,0.594
	s-0.329,0.802-0.386,1.166c-0.058,0.363-0.082,1.341-0.099,1.694c-0.016,0.353,0.039,1.058,0.078,1.484
	C6.442,26.481,6.77,28.26,6.77,28.26l0.165,1.014l0.218,1.029c0,0,0.055,0.578,0.063,0.77c0.009,0.189,0.036,0.496,0.109,0.594
	s0.056,0.154,0.406,0.203s0.859-0.172,0.859-0.172s0.229,0.234,0.234,0.328s-0.221,0.615-0.221,0.615s-0.057,0.09-0.137,0.205
	c-0.08,0.117-0.194,0.295-0.247,0.471c-0.052,0.178-0.146,0.553-0.137,0.766c0.004,0.092,0.009,0.221,0.055,0.309
	s0.108,0.26,0.062,0.447s-0.55,1.91-0.562,2.281c-0.013,0.369-0.034,1.854-0.034,1.854s-0.678,0.006-0.719,0.129
	c-0.042,0.125,0.133,0.617,0.119,0.773c-0.016,0.154-0.027,0.211-0.058,0.369S6.83,40.508,6.782,40.67
	c-0.048,0.164-0.289,0.348-0.343,0.471c-0.053,0.125-0.479,0.691-0.479,0.691S5.59,42.469,5.496,42.67s-0.252,0.885-0.301,1.043
	s-0.082,0.619-0.082,0.619s-0.053,0.352-0.028,0.436s0.096,0.355,0.151,0.475s0.129,0.236,0.238,0.414
	c0.109,0.176,0.336,0.301,0.486,0.322c0.239,0.031,0.486,0.02,0.574-0.016c0.089-0.033,0.094-0.004,0.229-0.166
	c0.135-0.16,0.4-0.398,0.73-0.936c0.331-0.539,0.904-1.912,0.904-1.912l0.644-1.143c0,0,0.133-0.09,0.231-0.225
	s0.192-0.646,0.192-0.646v-0.486c0,0,0.164-0.365,0.176-0.574s0-0.387,0-0.387l0.056-0.123l0.232-0.662l1.273-2.279l0.236-0.67
	l0.073-0.842l0.167-0.574l0.021-0.25c0,0,0.062,0.062,0.188,0.078s0.234,0.047,0.234,0.047s0.142,1,0.188,1.578s0.156,1.828,0.156,2
	c0,0.053-0.173,0.258-0.251,0.469c-0.178,0.482-0.358,1.184-0.406,1.5c-0.069,0.455-0.188,1.297-0.281,1.875
	c-0.062,0.375-0.243,1.553-0.329,1.846c-0.085,0.293-0.296,0.998-0.343,1.139s-0.104,0.289-0.181,0.625
	c-0.078,0.336-0.205,0.568-0.23,0.715c-0.025,0.148-0.212,0.506-0.246,0.729c-0.035,0.223-0.098,0.32-0.093,0.432
	c0.005,0.109-0.202,0.705-0.254,0.828c-0.052,0.125-0.112,0.416-0.082,0.574s0.336,0.422,0.336,0.422s-0.022,0.199,0.009,0.244
	s0.062,0.086,0.137,0.08c0.073-0.006,0.264-0.094,0.264-0.094l0.943,0.514c0,0,0.012,0.176,0.041,0.221s0.163,0.086,0.22,0.088
	c0.056,0.002,0.108-0.104,0.108-0.104l0.852,0.309c0,0-0.001,0.148,0.028,0.193s0.144,0.045,0.208,0.039
	c0.106-0.01,0.118-0.129,0.118-0.129l0.385-0.043c0,0-0.03,0.07,0.025,0.131c0.057,0.061,0.26,0.014,0.329-0.014
	c0.07-0.029,0.068-0.133,0.068-0.133s0.189-0.002,0.456-0.088c0.266-0.088,0.376-0.273,0.366-0.416
	c-0.009-0.141,0.01-0.303-0.081-0.418c-0.092-0.115-0.424-0.291-0.514-0.42c-0.089-0.127-1.412-1.615-1.416-1.676
	c-0.004-0.059,0.219-0.504,0.219-0.504s0.176-0.414,0.24-0.518c0.064-0.1,0.082-0.277,0-0.385s-0.146-0.078-0.146-0.078
	s-0.019-0.127,0.094-0.406s0.28-0.838,0.53-1.367c0.113-0.242,0.344-0.701,0.563-1.07c0.188-0.314,0.372-0.549,0.438-0.688
	c0.142-0.301,0.359-0.922,0.469-1.422c0.087-0.396,0.183-0.742,0.219-1.047c0.035-0.305,0.105-0.789,0.125-1.031
	c0.009-0.117,0.031-0.453-0.033-0.539c-0.034-0.047,0.006-0.109,0.033-0.227c0.109-0.469,0.188-0.758,0.281-1.203
	c0.107-0.51,0.141-0.969,0.156-1.547s0.018-1.336,0.018-1.336s0.296-0.012,0.415-0.021c0.118-0.012,0.139-0.078,0.192-0.221
	s0.047-0.547,0.062-1.125s-0.047-0.875-0.031-1.5s0.031-0.953,0.016-1.297s0.016-0.938-0.031-1.391s-0.094-0.953-0.109-1.563
	s-0.192-2.1-0.266-2.688c-0.073-0.588-0.162-1.178-0.297-1.594s-0.281-0.781-0.359-0.922s-0.062-0.469-0.109-0.609
	s-0.085-0.523-0.085-0.523s0.004-0.151,0.054-0.398c0.031-0.156,0.062-0.344,0.062-0.344s1.669-0.467,2-0.562
	c0.333-0.095,1.172-0.359,1.578-0.484c0.35-0.107,0.734-0.234,0.875-0.375s0.185-0.273,0.219-0.516S19.932,16.99,19.811,16.571z
	 M17.139,16.946c-0.062,0.016-0.344,0.156-0.547,0.234s-0.625,0.266-0.719,0.297s-0.156,0.047-0.188-0.016
	c-0.042-0.084-0.047-0.328-0.016-0.703c0.031-0.374,0.031-0.641,0.031-0.641s0.109,0.078,0.203,0.281
	c0.048,0.102,0.109,0.188,0.266,0.219s0.391-0.109,0.531-0.172s0.188-0.109,0.234-0.078s0.132,0.255,0.172,0.375
	C17.155,16.884,17.201,16.931,17.139,16.946z"/>
<path id="hair" fill-rule="evenodd" clip-rule="evenodd" fill="#F7DD7F" d="M14.904,2.607c-0.117-0.251-0.459-0.661-0.945-0.843
	c-0.05-0.019-0.104-0.065-0.148-0.081c0.094,0.622,0.038,0.911-0.131,1.619c-0.035,0.145-0.02,0.233,0.018,0.527
	c0.062,0.503,0.188,1.283,0.237,1.616c0.062,0.407,0.08,0.595,0.036,1.197c-0.029,0.386-0.381,0.768-0.465,0.84
	c-0.156,0.136-0.226,0.104-0.226,0.104s-0.241,0.245-0.342,0.209c-0.137-0.05-0.129-0.176-0.163-0.221
	c-0.033-0.045-0.018,0.124-0.143,0.198C12.589,7.799,12.4,7.844,12.299,7.61c-0.05-0.114-0.019,0.081-0.143,0.151
	c-0.131,0.075-0.236-0.153-0.255-0.223c-0.054-0.19,0.046-0.03-0.122-0.019c-0.169,0.012-0.304-0.144-0.439-0.378
	c-0.08-0.137-0.26-0.688-0.188-1.15c0.027-0.175,0.132-0.886,0.18-1.289c0.057-0.494,0.092-1.213,0.064-1.47
	c-0.037-0.357-0.223-0.995-0.073-1.502c-0.388,0.176-0.637,0.451-0.827,0.648c-0.204,0.212-0.477,0.717-0.473,1.213
	c0.004,0.496,0.053,0.992,0.15,1.413c0.098,0.42,0.101,0.715,0.101,0.715s0.387,0.505,0.651,0.991
	c0.148,0.274,0.424,0.639,0.652,0.882c0.239,0.253,0.629,0.689,0.967,0.697c0.367,0.009,0.723-0.397,0.806-0.485
	c0.419-0.437,0.477-0.597,0.843-1.177c0.172-0.271,0.388-0.583,0.489-0.758c0.129-0.217,0.197-0.537,0.249-0.8
	c0.081-0.403,0.206-0.753,0.202-1.233S15.02,2.858,14.904,2.607z"/>
<path id="skin-face-l" fill-rule="evenodd" clip-rule="evenodd" fill="#F9CAA9" d="M11.919,8.478
	c-0.065-0.043-0.194-0.194-0.25-0.25c-0.219-0.219-0.29-0.313-0.495-0.577c-0.25-0.319-0.502-0.709-0.711-1.018
	c-0.062-0.09-0.4-0.662-0.404-0.54c-0.002,0.121,0.027,0.308,0.081,0.487c0.054,0.179,0.253,0.294,0.329,0.342
	c0.074,0.047,0.136,0.117,0.252,0.339c0.088,0.168,0.371,0.814,0.542,1.029c0,0,0.141,0.094,0.266,0.125S11.919,8.478,11.919,8.478z
	"/>
<path id="skin-face-r" fill-rule="evenodd" clip-rule="evenodd" fill="#F9CAA9" d="M13.607,8.365
	c0.211-0.318,0.496-0.842,0.592-1.007c0.127-0.216,0.191-0.284,0.269-0.327s0.282-0.149,0.345-0.325
	c0.062-0.177,0.086-0.377,0.088-0.499c0.003-0.121-0.254,0.344-0.318,0.432c-0.208,0.287-0.462,0.654-0.65,0.955
	c-0.084,0.136-0.326,0.384-0.448,0.508c-0.112,0.115-0.222,0.255-0.391,0.359c0,0,0.188,0.008,0.297-0.016
	C13.515,8.418,13.53,8.384,13.607,8.365z"/>
<path id="hair-p" fill="#F7DD7F" d="M13.73,6.398c-0.018-0.351-0.042-0.845-0.111-1.19c-0.022-0.165-0.193-1.174-0.221-1.712
	c-0.016,0.006-0.03,0.012-0.053,0.018c-0.075,0.02-0.189,0.121-0.189,0.121s0.064-0.092,0.178-0.293
	c0.041-0.071,0.064-0.144,0.082-0.211c0.121-0.409,0.155-0.873,0.152-1.018c-0.01-0.794-0.305-1.104-0.966-1.133
	c-0.537-0.024-0.963,0.242-1.045,0.967c-0.01,0.089-0.025,0.225,0,0.462c0.018,0.161,0.072,0.403,0.088,0.572
	c0.014,0.066,0.039,0.155,0.08,0.26c0.089,0.221,0.164,0.363,0.164,0.363s-0.105-0.092-0.148-0.133
	c-0.002,0.007-0.037-0.003-0.075-0.016c-0.013,0.57-0.112,1.635-0.183,2.09c0,0.003-0.286,1.07,0.213,1.602
	c0.035,0.038,0.018,0.042,0.062-0.204c0.038-0.215,0.152-0.334,0.165-0.292c0.083,0.282,0.185,0.554,0.176,0.85
	c0.006-0.188,0.146-0.636,0.201-0.869c0,0,0.279,0.854,0.234,0.946c0.168-0.338,0.188-0.648,0.226-0.939c0,0,0.364,0.63,0.228,0.954
	c0.026-0.024,0.209-0.2,0.264-0.414c0.047-0.181-0.029-0.396-0.041-0.518c0,0,0.349,0.389,0.219,0.558
	C13.624,6.964,13.746,6.704,13.73,6.398z M13.027,2.507c-0.057,0.108-0.031-0.521-0.068-0.691c-0.088-0.392-0.326-0.479-0.061-0.404
	C13.149,1.482,13.337,1.915,13.027,2.507z"/>
<path fill-rule="evenodd" clip-rule="evenodd" fill="#FFFFFF" d="M5.805,45.412c0.09,0.088,0.36,0.129,0.36,0.129h0.12l-0.037,0.012
	l-0.083-0.012c0,0-0.12-0.15-0.12-0.258c0-0.143,0.055-0.26,0.164-0.318s0.301-0.029,0.355,0.029
	c0.056,0.059-0.041,0.418-0.041,0.418s0.426-0.395,0.601-0.645c0.175-0.248,0.809-1.531,0.839-1.674c0.029-0.143,0-0.258,0-0.258
	s0.531-0.982,0.6-1.158c0.07-0.178,0.023-0.385,0-0.516c-0.021-0.133-0.111-0.227-0.239-0.258c-0.13-0.031-0.263-0.027-0.36,0
	s-0.24,0.129-0.24,0.129h0.12l0.12,0.129v0.387l-0.12,0.129h-0.12l-0.238-0.129l-0.121,0.258l0.121-0.129h0.238l0.12,0.129v0.129
	c0,0,0.118,0,0.2,0.045c0.082,0.043,0.159,0.213,0.159,0.213v0.256h-0.12c0,0-0.131,0.051-0.217,0.002
	c-0.096-0.055-0.147-0.209-0.164-0.178c-0.055,0.104-0.145,0.141-0.192,0.104c-0.054-0.043-0.146-0.184-0.146-0.184
	s-0.721,0.91-0.84,1.029c-0.118,0.119-0.358,0.258-0.358,0.258s-0.417,0.51-0.599,0.783C5.4,44.514,5.53,44.91,5.602,45.01
	C5.676,45.107,5.805,45.412,5.805,45.412S5.698,45.307,5.805,45.412z"/>
<path fill-rule="evenodd" clip-rule="evenodd" fill="#1A1A18" d="M6.045,44.896c0,0,0.096-0.094,0.123-0.182
	s-0.055-0.188-0.123-0.203c-0.068-0.018-0.219,0.037-0.24,0.127c-0.02,0.092-0.062,0.176,0,0.258
	C5.867,44.979,6.045,44.896,6.045,44.896L6.045,44.896z"/>
<path id="player-shirt" fill-rule="evenodd" clip-rule="evenodd" fill="#0068B4" d="M6.232,13.618
	c0.02,0.018,0.085,0.019,0.17,0.013c0.212-0.016,0.903-0.059,1.03-0.106c0.051-0.019,0.135-0.089,0.144-0.25
	c0.016-0.281,0.051-0.604,0.097-0.653c0.075-0.081,0.151-0.134,0.191-0.029s-0.007,1.245-0.007,1.495s-0.008,2.499,0.051,3.328
	s0.027,1.579,0.012,2c-0.011,0.283,0.016,0.641,0.094,0.703s0.141,0.078,0.406,0.031s0.719-0.094,1.234-0.156
	c0.45-0.055,0.75-0.062,0.953-0.094s0.395-0.087,0.479-0.137s0.04-0.144,0.062-0.347c0.022-0.204-0.032-1.664-0.023-2.08
	c0.009-0.417,0.165-1.644,0.254-1.978s0.107-0.378,0.183-0.63s0.109-0.656,0.172-0.672c0.046-0.011,0.112,0.553,0.11,1.019
	c-0.001,0.466-0.269,1.703-0.268,2.084s0.013,0.818,0.05,1.131c0.037,0.314,0.029,0.953,0.061,1.125s0.039,0.354,0.113,0.419
	s0.45,0.081,0.919,0.112s0.75,0.031,1.219,0.062s0.615,0.023,0.766,0.047s0.153-0.001,0.188-0.203
	c0.044-0.262,0.104-0.711,0.156-1.219c0.109-1.062,0.211-1.984,0.219-2.438c0.016-0.922,0.062-1.406,0.016-1.703
	c-0.059-0.371,0.125-0.344,0.203-0.141c0.053,0.137,0.172,0.453,0.328,0.875c0.04,0.108,0.165,0.428,0.25,0.594
	c0.123,0.282,0.22,0.347,0.406,0.25c0.174-0.078,0.497-0.22,0.578-0.266c0.422-0.234,0.672-0.328,1.062-0.562
	c0.347-0.208,0.863-0.639,0.885-0.726s-0.213-0.571-0.384-0.882c-0.106-0.195-0.545-1.116-0.688-1.376
	c-0.144-0.26-0.883-1.716-1.031-1.922c-0.406-0.562-1.257-1.026-1.453-1.125c-0.344-0.172-0.726-0.33-0.999-0.389
	c-0.274-0.059-0.423-0.126-0.423-0.126s-0.335,0.073-0.578,0.141c-0.243,0.068-0.656,0.125-1.125,0.078
	c-0.306-0.03-0.545,0.008-0.86-0.109c-0.315-0.118-0.562-0.234-0.562-0.234s-1.633,0.242-2.16,0.355s-1.615,0.428-1.949,0.52
	S5.82,9.767,5.783,9.833s0.026,0.348,0.073,0.676c0.025,0.177,0.146,1.124,0.184,1.626c0.028,0.377,0.093,1.034,0.124,1.337
	C6.174,13.573,6.164,13.557,6.232,13.618z"/>
<path fill-rule="evenodd" clip-rule="evenodd" fill="#1A1A18" d="M6.405,44.123c-0.045,0.076,0.085-0.18,0-0.258
	c-0.086-0.076-0.175,0.059-0.239,0.131c-0.065,0.072-0.072,0.176,0,0.256C6.237,44.332,6.405,44.123,6.405,44.123
	S6.449,44.047,6.405,44.123z"/>
<path id="player-shorts" fill-rule="evenodd" clip-rule="evenodd" fill="#FFFFFF" d="M7.346,28.861
	c0.082,0.506,0.209,1.01,0.264,1.365s0.092,1.09,0.092,1.09s0.027,0.129,0.178,0.119s0.342-0.1,0.574-0.162
	c0.233-0.064,1.064-0.322,1.31-0.379c0.245-0.055,1.063-0.287,1.216-0.262c0.153,0.027,0.391,0.133,0.391,0.133
	s0.077-0.109,0.11-0.316c0.033-0.205-0.151-1.322-0.151-1.322l-0.385-2.065c0,0-0.713-0.125-0.819-0.098
	c-0.105,0.029-0.197,0.072-0.298,0.1c-0.1,0.029-0.217-0.047-0.277-0.088s0.072-0.311,0.135-0.342
	c0.062-0.033,0.293-0.109,0.369-0.109c0.076-0.002,0.369,0.021,0.369,0.021s-0.304-0.391-0.335-0.5
	c-0.032-0.111-0.1-0.252-0.074-0.367c0.024-0.115,0.103-0.256,0.164-0.265c0.061-0.008,0.216,0.37,0.321,0.515
	c0.104,0.145,0.273,0.299,0.417,0.396c0.144,0.1,0.213,0.133,0.397,0.186c0.185,0.051,1.03-0.231,1.274-0.237
	c0.242-0.006,0.65,0.012,0.793,0.082c0.144,0.068,0.377,0.297,0.287,0.243c-0.088-0.057,0.095,0.078,0.121,0.129
	c0.027,0.051-0.026,0.121-0.182,0.135c-0.156,0.014-0.871-0.111-1.089-0.088s-0.473,0.129-0.555,0.154s-0.459,0.16-0.417,0.516
	c0.042,0.354,0.197,1.402,0.247,1.799s0.191,1.105,0.142,1.328c-0.05,0.221-0.165,0.418-0.172,0.656
	c-0.007,0.236,0.085,0.801,0.085,0.801s0.076,1.408,0.149,1.48s0.058,0.133,0.36,0.156c0.302,0.023,1.031,0,1.859-0.094
	s1.328-0.203,1.328-0.203s0.047-1.297,0.078-1.375s0.156,0.031,0.219,0.281s0.053,0.529,0.073,0.725
	c0.021,0.197,0.014,0.332,0.114,0.322c0.156-0.016,0.109-0.141,0.125-0.703s-0.049-1.654-0.035-2.199
	c0.014-0.543,0.005-1.297-0.027-1.852s-0.112-1.76-0.136-2.412c-0.023-0.651-0.256-2.205-0.295-2.536
	c-0.039-0.331-0.158-0.786-0.227-1.059c-0.068-0.272-0.182-0.43-0.249-0.6c-0.067-0.169-0.145-0.369-0.188-0.516
	c-0.042-0.146-0.044-0.235-0.065-0.48c-0.022-0.246-0.137-0.407-0.137-0.407s-0.326-0.038-0.644-0.056
	c-0.319-0.018-1.489-0.085-1.89-0.11c-0.401-0.024-0.841-0.147-1.141-0.103s-0.844,0.109-1.266,0.147
	C9.6,20.46,8.285,20.643,8.112,20.702c-0.173,0.059-0.266,0.146-0.319,0.249c-0.055,0.104-0.093,0.18,0,0.21
	c0.092,0.03,1.526-0.211,1.752-0.215s0.514,0.014,0.636,0.067c0.121,0.054,0.186,0.12,0.224,0.183s0.04,0.084,0,0.128
	s-0.276,0.047-0.427,0.044s-0.448,0.015-0.448,0.015l-1.649,0.178l-0.355,0.029c0,0-0.215,0.085-0.328,0.353
	c-0.115,0.267-0.229,0.424-0.316,0.934c-0.072,0.426-0.096,0.803-0.102,1.235c-0.008,0.431,0.002,0.857,0.012,1.176
	c0.008,0.318,0.057,0.684,0.13,1.096C6.992,26.796,7.265,28.357,7.346,28.861z"/>
<path fill-rule="evenodd" clip-rule="evenodd" fill="#1A1A18" d="M6.906,43.375c0.015-0.086-0.014-0.234-0.143-0.152
	c-0.131,0.08-0.227,0.154-0.254,0.242s0.11,0.162,0.205,0.162C6.812,43.627,6.892,43.463,6.906,43.375z"/>
<path fill-rule="evenodd" clip-rule="evenodd" fill="#1A1A18" d="M6.976,43.803c0.029,0.074,0.054,0.148,0.177,0.178
	c0.126,0.027,0.24-0.131,0.24-0.131s0.041-0.268-0.019-0.326c-0.06-0.061-0.179-0.061-0.287,0.014
	C6.979,43.613,6.961,43.768,6.976,43.803z"/>
<path fill-rule="evenodd" clip-rule="evenodd" fill="#1A1A18" d="M6.885,44.639c0,0,0.078-0.154,0.119-0.219
	c0.039-0.062-0.056-0.25-0.152-0.221c-0.096,0.029-0.199,0.104-0.199,0.104s-0.094,0.26-0.009,0.336S6.885,44.639,6.885,44.639z"/>
<path id="player-sock-l" fill-rule="evenodd" clip-rule="evenodd" fill="#0068B4" d="M9.369,38.924
	c0.097-0.008,0.328-0.838,0.328-0.838l0.493-0.869c0,0,0.457-0.83,0.53-0.947c0.073-0.119,0.098-0.33,0.089-0.588
	s-0.671-0.658-0.569-0.572c0.101,0.088-0.773-0.701-0.719-0.643c0.054,0.059-0.07-0.098,0-0.129
	c0.069-0.031,0.111-0.166,0.238-0.129c0.128,0.035,1.148,0.463,1.24,0.461c0.091-0.004,0.115-0.25,0.15-0.354
	c0.034-0.104,0.012-0.256,0-0.367c-0.013-0.111-0.567-0.797-0.79-0.898c-0.223-0.104-0.752-0.16-0.959-0.129
	c-0.279,0.041-0.541,0.146-0.605,0.219s-0.162,0.242-0.191,0.367c-0.029,0.127-0.101,0.4-0.097,0.529
	c0.005,0.129-0.052,0.166,0.055,0.172c0.106,0.004,0.285-0.184,0.359-0.129c0.075,0.055,0.051,0.443,0,0.516
	c-0.05,0.07-0.272,0.193-0.333,0.357c-0.061,0.166-0.494,2.029-0.52,2.137s-0.051,0.771-0.057,0.936
	C8.007,38.188,7.973,38.551,8,38.584c0.028,0.035,0.951-0.092,1.162,0.004C9.372,38.682,9.273,38.932,9.369,38.924z"/>
<path fill-rule="evenodd" clip-rule="evenodd" fill="#1A1A18" d="M8.23,41.85c0,0,0.211-0.09,0.224-0.193
	c0.015-0.102-0.04-0.189-0.164-0.189c-0.123,0-0.246,0.117-0.232,0.221C8.071,41.789,8.23,41.85,8.23,41.85L8.23,41.85z"/>
<path id="skin-leg-l" fill-rule="evenodd" clip-rule="evenodd" fill="#F9CAA9" d="M9.03,31.553c0,0,0.284,0.301,0.267,0.426
	S9.18,32.391,9.18,32.391l-0.068,0.176c0,0,0.227-0.113,0.369-0.117c0.142-0.002,0.899,0.049,1.036,0.125s0.365,0.291,0.493,0.441
	s0.359,0.441,0.359,0.441s0.103-0.074,0.123-0.221c0.021-0.148-0.047-0.947-0.047-0.947s-0.124-0.963-0.138-1.027
	s-0.196-0.166-0.377-0.17C10.751,31.086,9.03,31.553,9.03,31.553z"/>
<path id="player-sock-r" fill-rule="evenodd" clip-rule="evenodd" fill="#0068B4" d="M11.967,46.143
	c-0.017,0.117,0.087,0.197,0.121,0.258c0.034,0.062,0.084,0.221,0.185,0.111c0.101-0.111,0.534-1.727,0.723-2.111
	c0.188-0.383,0.519-1.172,0.8-1.609s0.578-0.984,0.656-1.281s0.031-0.832-0.014-0.99c-0.064-0.229-0.608-0.709-0.72-0.773
	c-0.11-0.064-0.237-0.088-0.313-0.184c-0.058-0.07-0.019-0.105,0.083-0.148c0.104-0.045,0.167-0.092,0.37-0.061
	s0.772,0.357,0.875,0.312c0.044-0.02,0.129-0.43,0.172-0.688c0.062-0.375,0.113-0.6,0.031-0.688
	c-0.113-0.123-0.792-0.455-1.065-0.477c-0.273-0.02-0.766,0-0.84,0.119c-0.072,0.117-0.391,1.039-0.391,1.039
	s-0.312,0.727-0.359,1.029c-0.048,0.305-0.297,2.223-0.36,2.576s-0.152,0.873-0.24,1.16c-0.089,0.287-0.571,1.703-0.619,1.848
	c-0.048,0.143,0.52-0.459,0.619-0.432c0.099,0.027,0.297,0.35,0.333,0.527C12.049,45.857,11.985,46.025,11.967,46.143z"/>
<path id="skin-leg-r" fill-rule="evenodd" clip-rule="evenodd" fill="#F9CAA9" d="M13.826,34.072
	c-0.43,0.033-1.297,0.047-1.297,0.047s0.169,1.256,0.216,1.652c0.049,0.396,0.184,1.602,0.237,1.66
	c0.055,0.059,0.812-0.045,1.031-0.016c0.291,0.039,0.929,0.363,0.929,0.363s0.232-0.865,0.301-1.141
	c0.068-0.273,0.137-1.312,0.131-1.617c-0.008-0.303-0.021-1.125-0.021-1.125S14.257,34.039,13.826,34.072z"/>
<path id="skin-arm-r" fill="#F9CAA9" d="M17.623,18.634c1.109-0.344,1.688-0.469,1.938-0.688c0.085-0.074,0.156-0.328,0.078-0.703
	s-0.234-0.812-0.375-1.297s-0.281-0.781-0.281-0.781s-0.379,0.274-0.844,0.562c-0.328,0.203-0.719,0.391-0.734,0.469
	s0.156,0.406,0.281,0.719s0.266,0.547,0.25,0.734c-0.007,0.078,0,0.172-0.078,0.125s-0.406-0.391-0.406-0.391
	s-0.046-0.031-0.125-0.047s-0.245,0.035-0.375,0.094c-0.345,0.158-1.363,0.565-1.375,0.625c-0.031,0.156-0.032,0.383-0.062,0.578
	s-0.031,0.547-0.031,0.547S17.079,18.802,17.623,18.634z"/>
<path fill-rule="evenodd" clip-rule="evenodd" fill="#1A1A18" d="M10.435,31.713c0.156-0.031,0.289-0.035,0.332,0.045
	s0.056,0.383,0.056,0.383s-0.185-0.162-0.31-0.193s-0.499-0.045-0.54-0.078C9.935,31.838,10.279,31.744,10.435,31.713z"/>
<path fill-rule="evenodd" clip-rule="evenodd" fill="#1A1A18" d="M13.876,35.76c0.138-0.047,0.439-0.016,0.547,0.078
	c0.106,0.094,0.179,0.316,0.158,0.361s-0.255-0.127-0.442-0.143s-0.541,0.078-0.622,0.07S13.74,35.807,13.876,35.76z"/>
<path fill-rule="evenodd" clip-rule="evenodd" fill="#1A1A18" d="M10.196,10.43c0,0-0.016-0.257-0.198-0.218
	s-0.484,0.016-0.766,0.328c-0.13,0.05,0.059,0.363,0.109,0.312c0.156-0.156,0.299-0.234,0.406-0.312
	C9.919,10.415,10.196,10.43,10.196,10.43z"/>
<path fill-rule="evenodd" clip-rule="evenodd" fill="#1A1A18" d="M14.592,10.79c0.139,0.296,0.25,0.438,0.375,0.578
	s0.191,0.131,0.369,0.151c0.084,0.01-0.149-0.218-0.307-0.479c-0.175-0.292-0.032-0.459-0.282-0.62
	c-0.249-0.161-0.674-0.285-0.727-0.239C13.967,10.228,14.453,10.494,14.592,10.79z"/>
<path id="skin-arm-l" fill-rule="evenodd" clip-rule="evenodd" fill="#F9CAA9" d="M4.561,13.326L4.31,13.337l0.031-0.062
	l0.423-0.212l0.856-0.351c0,0-0.018-0.556-0.036-0.929c-0.018-0.373-0.065-0.818-0.115-1.115c-0.049-0.297-0.084-0.509-0.084-0.509
	l-1.316,0.692c0,0-0.23,0.223-0.353,0.381c-0.121,0.159-0.405,0.614-0.405,0.614s-0.445,0.893-0.537,1.395s-0.292,1.796-0.328,2.423
	c-0.037,0.627-0.206,2.913-0.206,2.913s-0.113,0.173-0.242,0.307s-0.454,0.521-0.56,0.728S1.16,20.328,1.16,20.328l-0.082,0.386
	l0.018,0.589l0.074,0.47l0.143,0.284c0,0,0.006,0.042,0.104,0.069c0.097,0.026,0.092-0.1,0.092-0.1l-0.054-0.461l0.023-0.336
	L1.5,21.303l0.163,0.514l0.093,0.176c0,0,0.049,0.079,0.123,0.1c0.073,0.02,0.074-0.125,0.074-0.125l-0.064-0.967l0.134-0.375
	l0.144-0.265l0.207-0.249l0.104,0.163l0.015,0.17l-0.051,0.498l0.077,0.368c0,0,0.021,0.133,0.11,0.183
	c0.09,0.05,0.217-0.088,0.227-0.195s-0.007-0.418,0.013-0.518s0.13-0.357,0.185-0.627c0.054-0.27-0.011-0.706-0.011-0.706
	l1.129-5.113L4.561,13.326z"/>
<path fill-rule="evenodd" clip-rule="evenodd" fill="#1A1A18" d="M4.023,12.007c-0.041-0.077-0.072-0.311,0.016-0.384
	s0.146-0.192,0.225-0.239s0.172,0.172,0.135,0.255s-0.088,0.057-0.15,0.12S4.064,12.084,4.023,12.007z"/>
</svg>
