<?xml version="1.0" encoding="utf-8"?>
<!-- Generator: Adobe Illustrator 16.0.4, SVG Export Plug-In . SVG Version: 6.00 Build 0)  -->
<!DOCTYPE svg PUBLIC "-//W3C//DTD SVG 1.1//EN" "http://www.w3.org/Graphics/SVG/1.1/DTD/svg11.dtd" [
	<!ENTITY ns_flows "http://ns.adobe.com/Flows/1.0/">
	<!ENTITY ns_extend "http://ns.adobe.com/Extensibility/1.0/">
	<!ENTITY ns_ai "http://ns.adobe.com/AdobeIllustrator/10.0/">
	<!ENTITY ns_graphs "http://ns.adobe.com/Graphs/1.0/">
]>
<svg version="1.1" id="Ebene_1" xmlns:x="&ns_extend;" xmlns:i="&ns_ai;" xmlns:graph="&ns_graphs;"
	 xmlns="http://www.w3.org/2000/svg" xmlns:xlink="http://www.w3.org/1999/xlink" xmlns:a="http://ns.adobe.com/AdobeSVGViewerExtensions/3.0/"
	 x="0px" y="0px" width="24.5px" height="50.5px" viewBox="0 0 24.5 50.5" style="enable-background:new 0 0 24.5 50.5;"
	 xml:space="preserve">
<style type="text/css">
<![CDATA[
	.st0{fill-rule:evenodd;clip-rule:evenodd;fill:#1A1A18;}
	.st1{fill:#FBCDAA;}
	.st2{fill-rule:evenodd;clip-rule:evenodd;fill:#FBCDAA;}
	.st3{fill:#0068B4;}
	.st4{fill-rule:evenodd;clip-rule:evenodd;fill:#FFFFFF;}
	.st5{fill-rule:evenodd;clip-rule:evenodd;fill:#0068B4;}
]]>
</style>
<path class="st0" d="M0.64,16.71c0,0-0.17,0.28-0.17,0.47s0.05,0.8,0.11,1.05s0.36,1,0.4,1.07c0.04,0.07,0.13,0.15,0.18,0.19
	c0.04,0.04,0.54,0.39,0.54,0.39s0.38,0.54,0.56,0.87s0.51,0.9,0.75,1.22s0.64,0.78,0.93,0.88c0.29,0.09,0.61,0.16,0.83,0.12
	s0.59-0.2,0.73-0.38s0.64-1.1,0.86-1.5s0.71-1.41,0.71-1.41l0.64,0.06l0.4-1.3l0.15-0.35l0.9,1.53l0.94,1.8l0.83,1.58l0.15,0.63
	v0.22c0,0-0.05,0.13-0.19,0.28s-0.99,0.95-1.27,1.22s-1.2,1.09-1.59,1.45c-0.39,0.36-1.66,1.55-1.66,1.67c0,0.13,0.12,0.3,0.12,0.3
	s-0.8,1.05-0.96,1.4c-0.16,0.34-0.15,0.58-0.14,0.76c0.01,0.18,0.11,0.73,0.16,0.98c0.08,0.36,0.41,1.58,0.4,1.67
	c0,0.09-0.06,0.3-0.09,0.58C5.88,34.43,5.9,34.64,6,34.84c0.17,0.34,0.28,0.34,0.3,0.39c0.04,0.12-0.12,0.19,0.02,0.86
	c0.08,0.38,0.52,1.84,0.52,1.84l0.72,2.22l0.75,2.19c0,0-0.11,0.05-0.21,0.23s-0.03,0.29-0.03,0.29s-0.21,0.06-0.34,0.17
	c-0.13,0.1-0.17,0.43-0.17,0.43l-0.92,0.51c0,0-1.46,0.7-1.62,0.81c-0.17,0.12-0.33,0.24-0.39,0.41c-0.06,0.17-0.07,0.49,0.05,0.61
	C4.79,45.9,5.13,46,5.13,46l1.14,0.08c0,0-0.02,0.16,0.06,0.2s0.32,0.02,0.39,0s0.06-0.19,0.06-0.19l0.31,0.02
	c0,0,0.01,0.17,0.06,0.22c0.05,0.05,0.3,0.01,0.39-0.02c0.09-0.03,0.06-0.23,0.06-0.23l0.75-0.12l1.06-0.08l1.12-0.12L11,45.84
	c0,0,0.03,0.15,0.13,0.14s0.27,0,0.33-0.03s0.08-0.28,0.08-0.28s0.1,0.05,0.2-0.02c0.1-0.07,0.23-0.23,0.3-0.31
	c0.07-0.08,0.1-0.12,0.13-0.23c0.03-0.11,0.05-0.21,0.06-0.34c0.02-0.13,0.03-0.47-0.03-0.61c-0.06-0.14-0.37-0.68-0.37-0.68
	s-0.32-0.91-0.44-1.12s-0.24-0.1-0.24-0.1s-0.29-1.35-0.38-1.85s-0.28-1.6-0.3-1.78s0.06-0.42,0.06-0.42l0.43,0.35l1.26,1.07
	c0,0,0.06,0.37,0.22,0.61c0.21,0.32,0.53,0.77,0.72,0.92c0.19,0.15,0.49,0.24,0.59,0.3c0.11,0.06,0.25,0.24,0.31,0.3
	c0.06,0.06,0.17,0.19,0.31,0.34c0.14,0.15,2.77,2.34,3.05,2.57s0.62,0.62,0.86,0.84s0.69,0.8,0.69,0.8l-0.09,0.21
	c0,0-0.07,0.47-0.14,0.61c-0.07,0.14-0.65,0.8-0.94,1.04c-0.29,0.24-1.08,0.79-1.19,1.09c-0.1,0.31,0.04,0.54,0.21,0.63
	s0.3,0.09,0.55,0.11s0.68,0.01,0.68,0.01l0.36,0.12l0.21-0.06c0,0,0.01,0.11,0.09,0.13c0.08,0.02,0.35-0.06,0.39-0.09
	s0.09-0.25,0.09-0.25l0.19-0.01c0,0,0.01,0.14,0.1,0.15c0.09,0.01,0.31-0.05,0.38-0.1s0.08-0.25,0.08-0.25l0.89-0.37l1-0.53
	l1.09-0.49c0,0,0.14,0.08,0.25,0.08s0.18-0.08,0.22-0.15c0.03-0.07-0.04-0.23-0.04-0.23l0.21-0.15c0,0,0.12,0.06,0.25,0.04
	c0.12-0.02,0.15-0.06,0.15-0.11s-0.03-0.33-0.03-0.33l-0.01-0.36c0,0,0.1-0.06,0.11-0.21c0.01-0.15-0.18-0.6-0.33-0.78
	s-0.29-0.35-0.59-0.56c-0.29-0.21-0.93-0.56-0.93-0.56l-0.15-0.21l-0.66-0.49l-0.74-0.72l-1.3-1.5l-1.4-1.55c0,0-0.8-1.13-0.94-1.29
	c-0.13-0.16-0.45-0.33-0.45-0.33s-0.01-0.19-0.07-0.34s-0.47-0.63-0.68-0.79c-0.2-0.16-0.54-0.31-0.68-0.39
	c-0.13-0.08-0.25-0.01-0.25-0.01l-0.69-0.84l0.19,0.04c0,0,0.66,0.19,0.77,0.12c0.11-0.07,0.17-0.04,0.25-0.17
	c0.08-0.13,0.16-0.96,0.22-1.25c0.06-0.28,0.52-1.62,0.72-2.11c0.1-0.23,0.61-1.23,0.81-1.66c0.2-0.42,0.6-0.98,0.81-1.41
	c0.15-0.29,0.63-1.03,0.86-1.48c0.23-0.46,0.42-0.9,0.52-1.16c0.09-0.26,0.25-0.91,0.27-1.22c0.01-0.31-0.04-0.91-0.08-1.14
	c-0.03-0.23-0.16-1.16-0.24-1.32c-0.08-0.16-0.19-0.16-0.19-0.16s0.17-0.37,0.14-0.53s-0.33-0.53-0.36-0.62
	c-0.03-0.1,0.04-0.28,0.04-0.28l-0.29-1.6l-0.29-1.78c0,0,0.67-1.48,0.91-2.06s0.72-1.75,0.87-2.32s0.23-1.11,0.21-1.48
	s-0.04-0.7-0.1-0.93s-0.49-0.65-0.74-0.88s-0.86-0.65-0.86-0.65l-0.53-0.35l-0.02-0.22c0,0-0.11-0.12-0.33-0.22
	s-1.17-0.47-1.62-0.64s-1.9-0.61-2.4-0.73s-1.22-0.34-1.53-0.4c-0.31-0.05-0.58-0.06-0.77-0.07c-0.19-0.02-0.58-0.07-0.58-0.07
	l-0.43-0.25l0.43-0.7l0.22-0.12l-0.19-0.34l0.23-0.62l0.12-0.62l-0.02-0.62l0.35-0.4l-0.31-0.56l0.1-0.4l0.17-0.12l-0.15-0.25
	l-0.81-1.08L9.81,0.82L9.48,0.9L9.21,0.61L7.52,0.28l-0.81,0.1L5.77,0.82L5.69,1.15l-0.81,0.1L4.73,1.69L4.22,2.18L4.11,2.99
	C4.06,3.1,4.29,3.12,4.3,3.24c0.03,0.24,0.08,0.6,0.1,0.77c0.03,0.25,0.17,0.58,0.2,0.7s0.16,0.38,0.16,0.47
	c0,0.09-0.1,0.47-0.08,0.67C4.7,6.05,5.06,6.76,5.14,6.9c0.08,0.14,0.23,1.29,0.32,1.37c0.09,0.08,0.41,0.29,0.57,0.31
	c0.16,0.02,0.51-0.03,0.54-0.02c0.08,0.04,0.5,0.64,0.5,0.64s-0.98,0.82-1.17,1.1c-0.18,0.27-0.26,0.32-0.37,0.58
	s-0.29,0.58-0.38,0.98c-0.22,0.91-0.44,2.16-0.59,2.8c-0.17,0.73-0.41,1.45-0.54,2c-0.14,0.55-0.18,0.72-0.18,0.72
	s-0.24-0.4-0.3-0.47c-0.16-0.2-0.49-0.17-0.49-0.17s-0.11-0.34-0.15-0.48c-0.05-0.14-0.25-0.49-0.25-0.49s-0.22-0.15-0.33-0.19
	c-0.1-0.03-0.27,0.05-0.27,0.05L1.9,15.56c0,0-0.11-0.03-0.22-0.05c-0.12-0.02-0.3,0.11-0.3,0.11s-0.21-0.02-0.32,0.02
	c-0.11,0.04-0.18,0.16-0.18,0.16s-0.1,0.2-0.13,0.27c-0.03,0.07-0.02,0.45-0.02,0.45L0.64,16.71z M16.96,13.67l0.41,0.11l-0.12,0.73
	L16.96,13.67z"/>
<path id="skin-face" class="st2" d="M6.72,5.3c-0.1-0.09-0.56-0.14-0.65-0.18c-0.09-0.05-0.22-0.2-0.22-0.3
	C5.84,4.73,5.83,4.49,5.76,4.41S5.67,4.27,5.58,4.19S5.33,4,5.23,3.94S5.06,3.72,5.01,3.73S4.83,3.74,4.76,3.82S4.71,3.96,4.72,4.03
	S4.85,4.3,4.85,4.3S4.95,4.64,5,4.79c0.05,0.16,0.13,0.25,0.12,0.39C5.11,5.32,5.06,5.63,5.05,5.73c-0.01,0.1-0.01,0.2,0.01,0.33
	C5.09,6.2,5.46,6.68,5.48,6.81C5.51,6.93,5.66,7.6,5.67,7.72c0.01,0.12,0,0.26,0.06,0.35s0.12,0.08,0.23,0.14s0.51,0.03,0.51,0.03
	l0.43-0.35l0.06,0.5l0.5,0.58c0,0,0.64-0.13,0.96-0.24c0.32-0.11,0.98-0.39,1.22-0.53c0.24-0.14,0.5-0.35,0.5-0.35
	s-0.1-0.15-0.17-0.2C9.9,7.59,9.79,7.57,9.79,7.57L9.67,7.82c0,0-0.2-0.16-0.28-0.16S8.72,7.91,8.64,7.94s-0.3-0.07-0.41-0.09
	S7.18,6.8,7.08,6.66S6.82,5.39,6.72,5.3z"/>
<polygon class="st4" points="9.35,45.29 9.07,44.89 8.5,44.91 8.75,45.42 9.35,45.29 "/>
<polygon class="st4" points="11.02,43.23 11.06,43 10.76,42.72 10.65,42.71 10.69,43.17 11.02,43.23 "/>
<polygon class="st4" points="11.58,45.01 11.95,44.84 12.01,44.5 11.23,45.06 11.21,45.17 11.58,45.01 "/>
<path id="player-sock-r" class="st5" d="M10.46,42.01l0.1-0.05l-0.35-1.91c0,0-0.23-1.26-0.24-1.56c-0.01-0.3,0.15-0.7,0.15-0.7
	l-0.49-0.92l-0.18-0.36L9.4,36.21l-0.12-0.77l-0.49-0.18L8.6,34.78L8.27,34.7L8.21,34.6l0.54-0.2l0.17-1.02L9,33.1
	c0,0-0.72,0-1.17,0.13s-1.29,0.51-1.38,0.66s-0.13,0.3-0.08,0.48s0.02,0.2,0.11,0.33c0.08,0.14,0.47,0.04,0.5,0.13
	c0.03,0.08,0,0.17-0.08,0.29c-0.09,0.12-0.13,0.15-0.2,0.3s0.02,0.45,0.08,0.75s0.65,2.16,0.65,2.16l1,2.97l0.19,0.71l0.31,0.82
	l0.5,0.22l0.25-0.47l0.53-0.09L10.46,42.01z"/>
<path id="skin-leg-r" class="st2" d="M7.93,32.78c0.19-0.03,1.04-0.12,1.04-0.12S9.02,32.04,9,32.17c-0.02,0.13,0.06-0.51,0.04-0.38
	c-0.01,0.13,0.11-0.3,0.11-0.3l-0.84-0.85l-0.94-0.89l-0.61-0.57c0,0-0.26,0.25-0.41,0.49c-0.15,0.24-0.37,0.54-0.43,0.75
	c-0.05,0.21-0.07,0.35-0.06,0.59c0.01,0.24,0.08,0.48,0.12,0.75c0.04,0.27,0.46,1.57,0.46,1.57s0.86-0.36,1.02-0.42
	S7.75,32.81,7.93,32.78z"/>
<polygon class="st0" points="8.64,32.15 8.59,31.8 8.57,31.69 8.1,31.49 8.23,31.84 8.33,32.3 8.64,32.15 "/>
<path id="skin-leg-l" class="st2" d="M12.31,39.05l0.46-0.37l0.83-0.68l0.77-0.51c0,0-0.36-0.47-0.47-0.62
	c-0.11-0.15-0.19-0.27-0.24-0.28c-0.04-0.01-0.46,0.19-0.61,0.21s-0.42-0.11-0.38-0.18c0.04-0.07,0.57-0.48,0.57-0.48l-0.14-0.08
	l-0.05-0.45h-0.05c0,0-0.16,0.44-0.28,0.52c-0.12,0.08-0.86-0.05-1.37-0.19c-0.69-0.19-1.52-0.38-1.52-0.38s0.06,0.48,0.11,0.71
	c0.04,0.23,0.15,0.36,0.26,0.57c0.11,0.21,0.48,0.79,0.71,1.04C11.14,38.13,12.31,39.05,12.31,39.05z"/>
<polygon class="st0" points="11.2,37.36 11.3,37.22 11.28,37.11 11.13,36.89 10.79,36.95 10.82,37.18 11.2,37.36 "/>
<path id="player-sock-l" class="st5" d="M13.96,40.93c0.16-0.06,0.81-1.03,0.9-0.99c0.09,0.04,0.13,0.1,0.13,0.1
	s0.09,0.08,0.04,0.23c-0.05,0.15-0.7,0.86-0.67,1.04c0.03,0.18,0.21,0.41,0.32,0.51s2.74,2.32,2.74,2.32l0.62,0.49l0.9,0.89
	l0.45,0.45l0.52-0.23l0.87,0.38l0.31-0.23l-0.15-0.78l0.13-0.48l-0.7-0.67l-1.05-1.15c0,0-1.72-1.92-1.85-2.06
	c-0.14-0.14-0.47-0.72-0.6-0.85s-0.28-0.36-0.42-0.41c-0.14-0.05-0.74,0.17-0.81,0.12c-0.06-0.05-0.08-0.15-0.04-0.23
	c0.05-0.08,0.44-0.48,0.44-0.6c0-0.12-0.18-0.33-0.37-0.5s-0.33-0.28-0.53-0.36s-0.32-0.13-0.43-0.06
	c-0.11,0.06-0.82,0.61-0.82,0.61s-0.61,0.46-0.76,0.58c-0.15,0.12-0.42,0.29-0.4,0.43s0.08,0.38,0.17,0.56
	c0.1,0.18,0.45,0.67,0.62,0.75C13.7,40.84,13.8,40.99,13.96,40.93z"/>
<polygon class="st4" points="21.27,48.29 20.87,47.99 20.31,48.2 20.73,48.61 21.27,48.29 "/>
<polygon class="st4" points="22.18,45.67 22.15,45.44 21.76,45.26 21.65,45.28 21.83,45.73 22.18,45.67 "/>
<polygon class="st4" points="23.26,47.4 23.58,47.12 23.52,46.77 22.94,47.57 22.95,47.68 23.26,47.4 "/>
<path id="skin-arm-r" class="st1" d="M17.78,13.25c-0.1-0.06-0.04,0.02-0.15,0.09S17,13.16,17,13.16s0.1-0.67,0.2-1.1
	s0.17-0.69,0.28-0.95s0.33-0.62,0.33-0.62s1.27,0.86,1.37,0.92s0.12,0.16,0.12,0.16s-0.13,0.05-0.13,0.13s-0.01,0.16-0.01,0.28
	s0.09,0.2,0.13,0.29s0.18,0.18,0.28,0.15s0.02-0.47,0.02-0.47s0.19,0.17,0.24,0.31s0.04,0.48,0.05,0.76
	c0.01,0.27-0.03,0.64-0.08,0.86s-0.15,0.52-0.27,0.9s-1.32,3.21-1.32,3.21l-0.71-2.49l0.33-1.86C17.82,13.6,17.88,13.31,17.78,13.25
	z"/>
<path id="player-jersey" class="st3" d="M4.17,17.65l0.3-1.15c0,0,0.46-1.48,0.51-1.85c0.05-0.37,0.45-2.25,0.53-2.59
	c0.08-0.34,0.33-0.92,0.44-1.15c0.06-0.13,0.2-0.32,0.33-0.47c0.13-0.15,1.02-0.99,1.16-1.04c0.14-0.05,0.81-0.21,1.14-0.33
	C8.92,8.95,9.64,8.67,9.94,8.5c0.29-0.18,0.55-0.41,0.55-0.41l0.25,0.11l0.36,0.02c0,0,0.29,0,0.47,0c0.2,0,0.68,0.04,1.19,0.18
	c0.51,0.14,2.26,0.7,2.75,0.85c0.13,0.04,0.88,0.34,1.17,0.47c0.23,0.1,0.63,0.29,0.63,0.29l0.14,0.1c0,0-0.29,0.5-0.4,0.76
	c-0.11,0.26-0.31,0.85-0.36,1.12s-0.15,0.85-0.15,0.85l-0.05,0.02c0,0-0.33-0.63-0.52-0.89c-0.18-0.26-0.39-0.53-0.54-0.69
	s-0.46-0.48-0.6-0.56c-0.13-0.08-0.39-0.23-0.39-0.23s0.74,1.13,0.96,1.47c0.15,0.24,0.56,0.85,0.7,1.17
	c0.14,0.32,0.38,0.89,0.38,0.89s0.34,0.95,0.47,1.37c0.13,0.42,0.61,1.9,0.72,2.5c0.11,0.6,0.49,2.6,0.57,3
	c0.08,0.4,0.15,1.05,0.15,1.05s-0.13,0.12-0.32,0.27c-0.18,0.15-0.23,0.22-0.55,0.3c-0.32,0.08-1.23,0.18-1.75,0.27
	c-0.52,0.09-0.66,0.15-1.16,0.24c-0.49,0.09-1.09,0.13-1.49,0.18c-0.39,0.05-0.68,0.04-0.94,0.02c-0.47-0.02-0.69-0.07-0.69-0.07
	l-0.18-0.42c0,0-0.33-0.58-0.31-0.66c0.02-0.07,0.86,0.03,1.19,0c0.33-0.03,0.85-0.19,0.95-0.3c0.1-0.11-0.8-0.14-1.26-0.11
	c-0.46,0.02-1.06-0.03-1.15-0.15c-0.09-0.12-0.3-0.45-0.3-0.45l-1.08-2.14L8.4,17.22c0,0-0.12-0.05-0.22,0.01
	c-0.1,0.05-0.18,0.22-0.18,0.22s-0.2,0.6-0.26,0.85s-0.28,0.98-0.28,0.98L6.04,19.1l-1.32-0.29L4.07,18.6l-0.15-0.04L4.17,17.65z"/>
<path class="st0" d="M9.24,17.63c-0.1-0.03-0.74-1.01-0.74-1.13c0-0.12,0.13-0.26,0.17-0.49c0.05-0.23,0.28-1.85,0.38-1.97
	c0.1-0.12,0.16-0.01,0.16-0.01s-0.2,1.28-0.16,1.55s0.36,1.67,0.33,1.81S9.34,17.66,9.24,17.63z"/>
<path id="player-shorts-l" class="st4" d="M17.14,30.59c-0.14,0.26-0.36,0.7-0.45,0.89s-0.5,0.88-0.71,1.34
	c-0.2,0.46-0.72,2.01-0.81,2.34c-0.09,0.33-0.08,0.78-0.16,0.88c-0.08,0.1-0.02,0.06-0.14,0.09c-0.12,0.04-1.25-0.19-1.34-0.24
	s-0.18-0.94-0.21-1.01c-0.03-0.07-0.17-0.1-0.25-0.05c-0.07,0.05-0.49,0.81-0.55,0.88c-0.06,0.07-0.61-0.08-0.84-0.11
	c-0.23-0.03-1.25-0.33-1.47-0.38c-0.21-0.04-0.77-0.24-0.88-0.28c-0.12-0.04-0.14-0.17-0.04-0.79c0.12-0.72,0.75-3.37,0.86-3.78
	c0.11-0.41,0.38-1.32,0.55-2.04s0.49-1.85,0.49-1.85s0.19-0.67,0.28-0.92c0.1-0.25,0.11-0.45,0.38-0.54
	c0.27-0.09,0.98-0.19,1.25-0.2c0.27-0.02,0.76-0.07,0.81-0.13s-0.06-0.29-0.21-0.32c-0.15-0.04-0.72-0.08-0.94-0.05
	c-0.22,0.03-0.96,0.08-1.06,0c-0.1-0.08-0.15-0.46-0.08-0.52c0.08-0.06,0.22-0.04,0.48-0.02c0.26,0.01,0.91-0.07,1.24-0.1
	c0.33-0.03,0.89-0.08,1.27-0.16c0.18-0.04,0.69-0.16,1.06-0.21c0.37-0.05,2.02-0.24,2.27-0.32c0.25-0.08,0.51-0.34,0.59-0.24
	c0.08,0.1,0.27,0.31,0.28,0.41c0.02,0.1-0.03,0.18-0.1,0.24s-0.42,0.21-0.57,0.25s-0.32,0-0.33,0.1c-0.01,0.1,0.16,0.35,0.33,0.33
	c0.17-0.01,0.45,0.01,0.55,0.05s0.18-0.07,0.22,0.07s0.14,0.81,0.17,1.04s0.1,0.58,0.08,0.89c-0.02,0.31-0.11,0.81-0.21,1.12
	c-0.09,0.3-0.38,0.8-0.55,0.99c-0.17,0.19-0.88,0.33-1.17,0.47c-0.29,0.14-1.36,0.88-1.38,0.96c-0.02,0.07,0.4,0.04,0.67-0.04
	c0.27-0.08,0.68-0.37,0.93-0.48c0.25-0.1,0.56-0.21,0.55-0.15c-0.01,0.06-0.24,0.51-0.38,0.76C17.46,30.04,17.28,30.33,17.14,30.59z
	"/>
<path id="player-shorts-r" class="st4" d="M10.76,26.35c-0.16,0.56-0.5,1.91-0.63,2.36c-0.19,0.66-0.64,2.42-0.64,2.42
	s-0.43-0.38-0.63-0.58c-0.2-0.2-1.03-1-1.19-1.16c-0.16-0.16-0.57-0.59-0.64-0.66c-0.07-0.07-0.12-0.17-0.12-0.21
	c-0.01-0.04,0.21-0.19,0.36-0.32c0.15-0.14,1.72-1.63,2.02-1.92c0.29-0.29,1.71-1.52,1.78-1.57c0.07-0.05,0.15,0,0.12,0.12
	C11.15,24.93,10.92,25.79,10.76,26.35z"/>
<path id="skin-arm-l" class="st2" d="M5.18,22.33c-0.12,0.14-0.35,0.19-0.49,0.22c-0.15,0.03-0.46,0.04-0.67-0.09
	c-0.21-0.13-0.5-0.37-0.75-0.7c-0.25-0.33-0.66-1.16-0.81-1.38c-0.15-0.23-0.46-0.74-0.46-0.74l-0.33-0.22c0,0-0.16-0.1-0.29-0.22
	c-0.13-0.11-0.32-0.57-0.42-1.02c-0.1-0.45-0.14-1.07-0.14-1c0.01,0.07,0-0.22,0.06-0.2c0.06,0.02,0.1,0.29,0.14,0.38
	c0.04,0.09,0.11,0.3,0.16,0.3c0.05,0,0.08-0.05,0.09-0.09c0.02-0.05-0.23-1.34-0.25-1.44c-0.02-0.1,0.12-0.21,0.18-0.14
	c0.06,0.07,0.46,1.43,0.49,1.44c0.03,0.02,0.08,0.07,0.11-0.01c0.03-0.08-0.25-1.47-0.21-1.56c0.04-0.09,0.17-0.09,0.21-0.01
	c0.04,0.08,0.42,1.44,0.46,1.51c0.04,0.07,0.11,0.09,0.14,0.08c0.03-0.01-0.32-1.37-0.25-1.46c0.07-0.09,0.19-0.02,0.25,0.07
	c0.06,0.09,0.37,1.39,0.39,1.51c0.01,0.12,0.11,0.29,0.11,0.29s0.12-0.06,0.16-0.12c0.04-0.06-0.09-0.51-0.05-0.56
	c0.04-0.06,0.21-0.02,0.28,0.05c0.07,0.07,0.22,0.37,0.21,0.49c-0.01,0.12-0.06,0.43-0.15,0.63c-0.09,0.2-0.25,0.44-0.25,0.44
	s0.05,0.21,0.1,0.29c0.05,0.08,0.32,0.4,0.32,0.4s-0.17,0.44-0.2,0.6s0.05,0.26,0.05,0.26l0.46-1.3l0.1-0.06l0.67,0.22l1.22,0.26
	l0.76,0.12c0,0-0.4,0.92-0.55,1.24C5.92,21.13,5.3,22.19,5.18,22.33z"/>
<path id="hair" class="st0" d="M10.85,4.24l0.05,0.69l-0.11,0.62l-0.31,0.74l0.17,0.28l-0.2,0.1l-0.22,0.37l-0.14,0.2
	c-0.06,0.01-0.39-0.1-0.39-0.1L9.55,7.36c0,0-0.21-0.09-0.29-0.09c-0.08,0-0.54,0.17-0.63,0.2C8.55,7.51,8.28,7.37,8.17,7.32
	C8.02,7.24,7.4,6.49,7.29,6.34C7.17,6.19,7.08,5.1,6.97,5c-0.11-0.09-0.64-0.15-0.74-0.2c-0.1-0.05-0.13-0.29-0.14-0.39
	C6.08,4.32,6,4.19,5.93,4.11c-0.07-0.08-0.1-0.15-0.2-0.24C5.63,3.8,5.49,3.76,5.39,3.7c-0.1-0.06-0.26-0.26-0.31-0.26
	c-0.05,0-0.26,0.02-0.39,0.07C4.64,3.54,4.61,3.37,4.61,3.2c0-0.14-0.2-0.19-0.25-0.25C4.32,2.88,4.46,2.33,4.46,2.33l0.47-0.41
	l0.13-0.37l0.84-0.1l0.09-0.31l0.79-0.4l0.73-0.09l1.51,0.27l0.34,0.33l0.3-0.07l0.65,0.71l0.68,0.83l0.13,0.21l-0.15,0.1
	l-0.07,0.46l0.28,0.47L10.85,4.24z"/>
</svg>
