<?xml version="1.0" encoding="utf-8"?>
<!-- Generator: Adobe Illustrator 16.0.4, SVG Export Plug-In . SVG Version: 6.00 Build 0)  -->
<!DOCTYPE svg PUBLIC "-//W3C//DTD SVG 1.1//EN" "http://www.w3.org/Graphics/SVG/1.1/DTD/svg11.dtd">
<svg version="1.1" id="Ebene_1" xmlns="http://www.w3.org/2000/svg" xmlns:xlink="http://www.w3.org/1999/xlink" x="0px" y="0px"
	 width="20.798px" height="51.14px" viewBox="0 0 20.798 51.14" enable-background="new 0 0 20.798 51.14" xml:space="preserve">
<path fill-rule="evenodd" clip-rule="evenodd" fill="#1A1A18" d="M0.752,17.728c0.034,0.242,0.078,0.375,0.219,0.516
	s0.525,0.268,0.875,0.375c0.406,0.125,1.245,0.39,1.578,0.484c0.331,0.095,2,0.562,2,0.562s0.031,0.188,0.062,0.344
	c0.05,0.248,0.054,0.398,0.054,0.398s-0.038,0.383-0.085,0.523s-0.031,0.469-0.109,0.609s-0.225,0.506-0.359,0.922
	s-0.224,1.005-0.297,1.594c-0.073,0.588-0.25,2.078-0.266,2.688s-0.062,1.11-0.109,1.563s-0.016,1.047-0.031,1.391
	s0,0.672,0.016,1.297s-0.047,0.922-0.031,1.5s0.009,0.982,0.062,1.125s0.074,0.209,0.192,0.221c0.119,0.01,0.415,0.021,0.415,0.021
	s0.002,0.758,0.018,1.336s0.049,1.037,0.156,1.547c0.094,0.445,0.172,0.734,0.281,1.203c0.027,0.117,0.067,0.18,0.033,0.227
	c-0.064,0.086-0.042,0.422-0.033,0.539c0.02,0.242,0.09,0.727,0.125,1.031c0.036,0.305,0.132,0.65,0.219,1.047
	c0.109,0.5,0.327,1.121,0.469,1.422c0.065,0.139,0.249,0.373,0.438,0.688c0.22,0.369,0.45,0.828,0.563,1.07
	c0.25,0.529,0.418,1.088,0.53,1.367s0.094,0.406,0.094,0.406s-0.063-0.029-0.146,0.078s-0.064,0.285,0,0.385
	c0.064,0.104,0.24,0.518,0.24,0.518s0.223,0.445,0.219,0.504c-0.004,0.061-1.327,1.549-1.416,1.676
	c-0.09,0.129-0.422,0.305-0.514,0.42c-0.091,0.115-0.072,0.277-0.081,0.418c-0.01,0.143,0.101,0.328,0.366,0.416
	c0.267,0.086,0.456,0.088,0.456,0.088s-0.002,0.104,0.068,0.133c0.069,0.027,0.272,0.074,0.329,0.014
	c0.056-0.061,0.025-0.131,0.025-0.131l0.385,0.043c0,0,0.012,0.119,0.118,0.129c0.064,0.006,0.179,0.006,0.208-0.039
	s0.028-0.193,0.028-0.193l0.852-0.309c0,0,0.053,0.105,0.108,0.104c0.057-0.002,0.19-0.043,0.22-0.088s0.041-0.221,0.041-0.221
	l0.943-0.514c0,0,0.19,0.088,0.264,0.094c0.074,0.006,0.105-0.035,0.137-0.08s0.009-0.244,0.009-0.244s0.306-0.264,0.336-0.422
	s-0.03-0.449-0.082-0.574c-0.052-0.123-0.259-0.719-0.254-0.828c0.005-0.111-0.058-0.209-0.093-0.432
	c-0.034-0.223-0.221-0.58-0.246-0.729c-0.025-0.146-0.152-0.379-0.23-0.715c-0.077-0.336-0.134-0.484-0.181-0.625
	s-0.258-0.846-0.343-1.139c-0.086-0.293-0.268-1.471-0.329-1.846c-0.094-0.578-0.212-1.42-0.281-1.875
	c-0.048-0.316-0.229-1.018-0.406-1.5c-0.078-0.211-0.251-0.416-0.251-0.469c0-0.172,0.109-1.422,0.156-2s0.188-1.578,0.188-1.578
	s0.109-0.031,0.234-0.047s0.188-0.078,0.188-0.078l0.021,0.25l0.167,0.574l0.073,0.842l0.236,0.67l1.273,2.279l0.232,0.662
	l0.056,0.123c0,0-0.012,0.178,0,0.387s0.176,0.574,0.176,0.574v0.486c0,0,0.094,0.512,0.192,0.646s0.231,0.225,0.231,0.225
	l0.644,1.143c0,0,0.573,1.373,0.904,1.912c0.33,0.537,0.596,0.775,0.73,0.936c0.135,0.162,0.14,0.133,0.229,0.166
	c0.088,0.035,0.335,0.047,0.574,0.016c0.15-0.021,0.377-0.146,0.486-0.322c0.109-0.178,0.183-0.295,0.238-0.414
	s0.127-0.391,0.151-0.475s-0.028-0.436-0.028-0.436s-0.033-0.461-0.082-0.619s-0.207-0.842-0.301-1.043s-0.465-0.838-0.465-0.838
	s-0.426-0.566-0.479-0.691c-0.054-0.123-0.295-0.307-0.343-0.471c-0.048-0.162-0.134-0.268-0.164-0.426s-0.042-0.215-0.058-0.369
	c-0.014-0.156,0.161-0.648,0.119-0.773c-0.041-0.123-0.719-0.129-0.719-0.129s-0.021-1.484-0.034-1.854
	c-0.013-0.371-0.516-2.094-0.562-2.281s0.016-0.359,0.062-0.447s0.051-0.217,0.055-0.309c0.009-0.213-0.085-0.588-0.137-0.766
	c-0.053-0.176-0.167-0.354-0.247-0.471c-0.08-0.115-0.137-0.205-0.137-0.205s-0.227-0.521-0.221-0.615s0.234-0.328,0.234-0.328
	s0.509,0.221,0.859,0.172s0.333-0.105,0.406-0.203s0.101-0.404,0.109-0.594c0.009-0.191,0.063-0.77,0.063-0.77l0.218-1.029
	l0.165-1.014c0,0,0.328-1.778,0.366-2.204c0.039-0.427,0.094-1.131,0.078-1.484c-0.017-0.353-0.041-1.331-0.099-1.694
	c-0.057-0.363-0.183-0.806-0.386-1.166s-0.344-0.469-0.375-0.594s-0.08-0.331-0.156-0.453c-0.078-0.125-0.156-0.219-0.172-0.359
	s0.016-0.219,0.047-0.406S13.3,18.696,13.3,18.196s0.013-1.884,0.031-2.453s0.016-1.734,0.016-1.734s0.987,0.031,1.25,0.047
	c0.088,0.005,0.224,0.011,0.25,0c0.104-0.044,0.146-0.16,0.146-0.16l0.089-0.762l0.394,0.115c0,0,0.359,0.102,0.416,0.167
	c0.056,0.064,0.271,0.504,0.369,0.838c0.097,0.333,0.633,2.783,0.751,3.237c0.118,0.454,0.34,1.656,0.383,1.863
	c0.043,0.206-0.027,0.663,0.005,0.821c0.033,0.159,0.15,0.41,0.175,0.651c0.024,0.241-0.006,0.563,0.062,0.694
	c0.068,0.132,0.274,0.38,0.462,0.38c0.26-0.026,0.38-0.215,0.38-0.215s0.004,0.663,0.246,0.783c0.127,0.062,0.122,0.077,0.227,0.044
	c0.104-0.033,0.164-0.154,0.164-0.154s0.096,0.167,0.195,0.176c0.099,0.009,0.156-0.029,0.205-0.066s0.25-0.256,0.25-0.256
	l0.13-0.296c0,0,0.118-0.488,0.144-0.727c0.024-0.238,0.012-0.605-0.041-0.805c-0.053-0.2-0.13-0.583-0.247-0.794
	c-0.116-0.21-0.368-0.562-0.512-0.721c-0.144-0.159-0.344-0.453-0.344-0.453s-0.214-3.222-0.253-3.537
	c-0.041-0.315-0.18-1.352-0.242-1.651c-0.063-0.3-0.368-1.117-0.484-1.347c-0.117-0.229-0.419-0.755-0.536-0.918
	c-0.116-0.164-0.231-0.297-0.504-0.493c-0.274-0.196-1.11-0.617-1.11-0.617l-0.309-0.151c0,0,0.033-0.072,0.001-0.146
	s-0.547-0.25-0.906-0.359c-0.165-0.05-0.585-0.181-0.969-0.281c-0.455-0.119-0.877-0.208-1.031-0.25
	c-0.289-0.08-1.008-0.212-1.641-0.312c-0.359-0.057-0.745-0.102-0.875-0.125c-0.005-0.001-0.009,0.002-0.014,0.001
	c0.192-0.413,0.362-0.83,0.362-0.83s0.156-0.181,0.328-0.328c0.173-0.147,0.293-0.718,0.339-0.922c0.04-0.18,0.009-0.25-0.06-0.407
	c-0.066-0.158-0.175-0.152-0.175-0.152l0.051-0.485c0.216-0.818,0.237-1.375,0.175-1.849c-0.069-0.531-0.312-0.85-0.462-1.052
	c-0.326-0.44-1.192-0.878-1.192-0.878s-0.098-0.233-0.48-0.473C8.548,0.631,7.816,0.672,7.515,0.87
	C7.224,1.061,7.049,1.272,7.04,1.319C6.868,1.372,6.505,1.551,6.379,1.618C6.087,1.771,5.932,1.94,5.789,2.141
	C5.478,2.529,5.308,3.239,5.325,3.608S5.365,4.248,5.46,4.664C5.557,5.08,5.714,5.605,5.714,5.605S5.531,5.752,5.533,5.853
	C5.536,5.993,5.542,6.394,5.58,6.556c0.062,0.266,0.224,0.518,0.386,0.677c0.092,0.09,0.291,0.25,0.291,0.25s0.259,0.453,0.453,0.85
	C6.607,8.351,6.48,8.378,6.346,8.431C5.987,8.571,5.333,8.782,5.018,8.978C4.69,9.181,4.226,9.428,3.987,9.681
	c-0.098,0.104-0.337,0.352-0.422,0.469c-0.147,0.201-0.392,0.698-0.484,0.875c-0.146,0.279-0.278,0.556-0.562,1.109
	c-0.297,0.578-0.719,1.438-0.938,1.875s-0.328,0.719-0.25,0.797c0.06,0.059,0.161,0.184,0.161,0.184s-0.333,0.988-0.505,1.582
	C0.865,16.99,0.718,17.485,0.752,17.728z M3.69,16.743c0.04-0.12,0.125-0.344,0.172-0.375s0.094,0.016,0.234,0.078
	s0.375,0.203,0.531,0.172s0.218-0.117,0.266-0.219c0.094-0.203,0.203-0.281,0.203-0.281s0,0.267,0.031,0.641
	c0.031,0.375,0.026,0.619-0.016,0.703c-0.031,0.062-0.094,0.047-0.188,0.016s-0.516-0.219-0.719-0.297s-0.484-0.219-0.547-0.234
	S3.643,16.884,3.69,16.743z"/>
<path id="hair" fill-rule="evenodd" clip-rule="evenodd" fill="#F7DD7F" d="M5.894,2.607c0.117-0.251,0.459-0.661,0.945-0.843
	c0.05-0.019,0.104-0.065,0.148-0.081C6.894,2.305,6.949,2.594,7.118,3.302c0.035,0.145,0.02,0.233-0.018,0.527
	C7.038,4.332,6.913,5.112,6.864,5.445C6.802,5.853,6.783,6.04,6.827,6.643c0.029,0.386,0.381,0.768,0.465,0.84
	c0.156,0.136,0.226,0.104,0.226,0.104S7.759,7.832,7.86,7.795c0.137-0.05,0.129-0.176,0.163-0.221
	C8.056,7.529,8.04,7.698,8.165,7.772C8.208,7.799,8.398,7.844,8.498,7.61c0.05-0.114,0.019,0.081,0.143,0.151
	c0.131,0.075,0.236-0.153,0.255-0.223c0.054-0.19-0.046-0.03,0.122-0.019c0.169,0.012,0.304-0.144,0.439-0.378
	c0.08-0.137,0.26-0.688,0.188-1.15c-0.027-0.175-0.132-0.886-0.18-1.289c-0.057-0.494-0.092-1.213-0.064-1.47
	C9.438,2.875,9.623,2.237,9.474,1.73c0.388,0.176,0.637,0.451,0.827,0.648c0.204,0.212,0.477,0.717,0.473,1.213
	c-0.004,0.496-0.053,0.992-0.15,1.413c-0.098,0.42-0.101,0.715-0.101,0.715S10.136,6.224,9.871,6.71
	C9.723,6.985,9.448,7.35,9.219,7.593C8.98,7.846,8.59,8.282,8.252,8.29C7.885,8.299,7.53,7.893,7.447,7.805
	C7.028,7.368,6.97,7.208,6.604,6.628C6.432,6.356,6.216,6.044,6.115,5.87c-0.129-0.217-0.197-0.537-0.249-0.8
	C5.784,4.667,5.659,4.316,5.663,3.836S5.778,2.858,5.894,2.607z"/>
<path id="skin-face-r" fill-rule="evenodd" clip-rule="evenodd" fill="#F9CAA9" d="M8.878,8.478c0.065-0.043,0.194-0.194,0.25-0.25
	c0.219-0.219,0.29-0.313,0.495-0.577c0.25-0.319,0.502-0.709,0.711-1.018c0.062-0.09,0.4-0.662,0.404-0.54
	c0.002,0.121-0.027,0.308-0.081,0.487c-0.054,0.179-0.253,0.294-0.329,0.342c-0.074,0.047-0.136,0.117-0.252,0.339
	C9.989,7.429,9.705,8.075,9.534,8.29c0,0-0.141,0.094-0.266,0.125S8.878,8.478,8.878,8.478z"/>
<path id="skin-face-l" fill-rule="evenodd" clip-rule="evenodd" fill="#F9CAA9" d="M7.191,8.365
	C6.98,8.046,6.695,7.522,6.599,7.358C6.472,7.142,6.407,7.074,6.33,7.031S6.048,6.882,5.986,6.706
	C5.923,6.529,5.9,6.328,5.898,6.207C5.895,6.086,6.152,6.551,6.216,6.639c0.208,0.287,0.462,0.654,0.65,0.955
	C6.95,7.73,7.193,7.978,7.315,8.103c0.112,0.115,0.222,0.255,0.391,0.359c0,0-0.188,0.008-0.297-0.016
	C7.282,8.418,7.268,8.384,7.191,8.365z"/>
<path id="hair-p" fill="#F7DD7F" d="M7.368,7.219C7.239,7.05,7.587,6.662,7.587,6.662C7.575,6.784,7.499,6.999,7.546,7.18
	C7.601,7.394,7.783,7.569,7.81,7.593C7.673,7.269,8.037,6.639,8.037,6.639C8.075,6.931,8.095,7.24,8.263,7.579
	C8.218,7.487,8.497,6.633,8.497,6.633c0.055,0.233,0.195,0.682,0.201,0.869C8.69,7.206,8.791,6.934,8.874,6.652
	c0.013-0.042,0.127,0.077,0.165,0.292c0.045,0.246,0.027,0.241,0.062,0.204c0.499-0.532,0.213-1.599,0.213-1.602
	c-0.07-0.455-0.17-1.52-0.183-2.09C9.094,3.467,9.059,3.478,9.057,3.471C9.014,3.511,8.908,3.604,8.908,3.604
	S8.984,3.461,9.073,3.24c0.041-0.105,0.066-0.194,0.08-0.26c0.016-0.169,0.07-0.411,0.088-0.572c0.025-0.238,0.01-0.374,0-0.462
	C9.158,1.221,8.733,0.955,8.196,0.979C7.534,1.007,7.24,1.318,7.23,2.112C7.227,2.256,7.261,2.721,7.382,3.129
	C7.4,3.197,7.423,3.27,7.464,3.341c0.113,0.201,0.178,0.293,0.178,0.293S7.528,3.533,7.452,3.513C7.43,3.507,7.415,3.502,7.4,3.496
	C7.372,4.033,7.201,5.043,7.179,5.208c-0.069,0.346-0.094,0.84-0.111,1.19C7.051,6.704,7.173,6.964,7.368,7.219z M7.9,1.412
	c0.266-0.075,0.027,0.013-0.061,0.404c-0.037,0.17-0.012,0.8-0.068,0.691C7.46,1.915,7.649,1.482,7.9,1.412z"/>
<path fill-rule="evenodd" clip-rule="evenodd" fill="#FFFFFF" d="M14.992,45.412c-0.09,0.088-0.36,0.129-0.36,0.129h-0.12
	l0.037,0.012l0.083-0.012c0,0,0.12-0.15,0.12-0.258c0-0.143-0.055-0.26-0.164-0.318s-0.301-0.029-0.355,0.029
	c-0.056,0.059,0.041,0.418,0.041,0.418s-0.426-0.395-0.601-0.645c-0.175-0.248-0.809-1.531-0.839-1.674
	c-0.029-0.143,0-0.258,0-0.258s-0.531-0.982-0.6-1.158c-0.07-0.178-0.023-0.385,0-0.516c0.021-0.133,0.111-0.227,0.239-0.258
	c0.13-0.031,0.263-0.027,0.36,0s0.24,0.129,0.24,0.129h-0.12l-0.12,0.129v0.387l0.12,0.129h0.12l0.238-0.129l0.121,0.258
	l-0.121-0.129h-0.238l-0.12,0.129v0.129c0,0-0.118,0-0.2,0.045c-0.082,0.043-0.159,0.213-0.159,0.213v0.256h0.12
	c0,0,0.131,0.051,0.217,0.002c0.096-0.055,0.147-0.209,0.164-0.178c0.055,0.104,0.145,0.141,0.192,0.104
	c0.054-0.043,0.146-0.184,0.146-0.184s0.721,0.91,0.84,1.029c0.118,0.119,0.358,0.258,0.358,0.258s0.417,0.51,0.599,0.783
	c0.167,0.25,0.037,0.646-0.035,0.746C15.121,45.107,14.992,45.412,14.992,45.412S15.1,45.307,14.992,45.412z"/>
<path fill-rule="evenodd" clip-rule="evenodd" fill="#1A1A18" d="M14.752,44.896c0,0-0.096-0.094-0.123-0.182
	s0.055-0.188,0.123-0.203c0.068-0.018,0.219,0.037,0.24,0.127c0.02,0.092,0.062,0.176,0,0.258
	C14.93,44.979,14.752,44.896,14.752,44.896L14.752,44.896z"/>
<path id="player-shirt" fill-rule="evenodd" clip-rule="evenodd" fill="#0068B4" d="M14.566,13.618
	c-0.02,0.018-0.085,0.019-0.17,0.013c-0.212-0.016-0.903-0.059-1.03-0.106c-0.051-0.019-0.135-0.089-0.144-0.25
	c-0.016-0.281-0.051-0.604-0.097-0.653c-0.075-0.081-0.151-0.134-0.191-0.029s0.007,1.245,0.007,1.495s0.008,2.499-0.051,3.328
	s-0.027,1.579-0.012,2c0.011,0.283-0.016,0.641-0.094,0.703s-0.141,0.078-0.406,0.031s-0.719-0.094-1.234-0.156
	c-0.45-0.055-0.75-0.062-0.953-0.094s-0.395-0.087-0.479-0.137s-0.04-0.144-0.062-0.347c-0.022-0.204,0.032-1.664,0.023-2.08
	c-0.009-0.417-0.165-1.644-0.254-1.978s-0.107-0.378-0.183-0.63s-0.109-0.656-0.172-0.672c-0.046-0.011-0.112,0.553-0.11,1.019
	c0.001,0.466,0.269,1.703,0.268,2.084s-0.013,0.818-0.05,1.131c-0.037,0.314-0.029,0.953-0.061,1.125s-0.039,0.354-0.113,0.419
	s-0.45,0.081-0.919,0.112s-0.75,0.031-1.219,0.062s-0.615,0.023-0.766,0.047s-0.153-0.001-0.188-0.203
	c-0.044-0.262-0.104-0.711-0.156-1.219c-0.109-1.062-0.211-1.984-0.219-2.438c-0.016-0.922-0.062-1.406-0.016-1.703
	c0.059-0.371-0.125-0.344-0.203-0.141c-0.053,0.137-0.172,0.453-0.328,0.875c-0.04,0.108-0.165,0.428-0.25,0.594
	c-0.123,0.282-0.22,0.347-0.406,0.25c-0.174-0.078-0.497-0.22-0.578-0.266C3.33,15.571,3.08,15.478,2.69,15.243
	c-0.347-0.208-0.863-0.639-0.885-0.726s0.213-0.571,0.384-0.882c0.106-0.195,0.545-1.116,0.688-1.376
	c0.144-0.26,0.883-1.716,1.031-1.922c0.406-0.562,1.257-1.026,1.453-1.125c0.344-0.172,0.726-0.33,0.999-0.389
	c0.274-0.059,0.423-0.126,0.423-0.126s0.335,0.073,0.578,0.141c0.243,0.068,0.656,0.125,1.125,0.078
	c0.306-0.03,0.545,0.008,0.86-0.109c0.315-0.118,0.562-0.234,0.562-0.234s1.633,0.242,2.16,0.355s1.615,0.428,1.949,0.52
	s0.959,0.32,0.995,0.387s-0.026,0.348-0.073,0.676c-0.025,0.177-0.146,1.124-0.184,1.626c-0.028,0.377-0.093,1.034-0.124,1.337
	C14.623,13.573,14.633,13.557,14.566,13.618z"/>
<path fill-rule="evenodd" clip-rule="evenodd" fill="#1A1A18" d="M14.393,44.123c0.045,0.076-0.085-0.18,0-0.258
	c0.086-0.076,0.175,0.059,0.239,0.131c0.065,0.072,0.072,0.176,0,0.256C14.561,44.332,14.393,44.123,14.393,44.123
	S14.348,44.047,14.393,44.123z"/>
<path id="player-shorts" fill-rule="evenodd" clip-rule="evenodd" fill="#FFFFFF" d="M13.451,28.861
	c-0.082,0.506-0.209,1.01-0.264,1.365s-0.092,1.09-0.092,1.09s-0.027,0.129-0.178,0.119s-0.342-0.1-0.574-0.162
	c-0.233-0.064-1.064-0.322-1.31-0.379c-0.245-0.055-1.063-0.287-1.216-0.262c-0.153,0.027-0.391,0.133-0.391,0.133
	s-0.077-0.109-0.11-0.316c-0.033-0.205,0.151-1.322,0.151-1.322l0.385-2.065c0,0,0.713-0.125,0.819-0.098
	c0.105,0.029,0.197,0.072,0.298,0.1c0.1,0.029,0.217-0.047,0.277-0.088s-0.072-0.311-0.135-0.342
	c-0.062-0.033-0.293-0.109-0.369-0.109c-0.076-0.002-0.369,0.021-0.369,0.021s0.304-0.391,0.335-0.5
	c0.032-0.111,0.1-0.252,0.074-0.367c-0.024-0.115-0.103-0.256-0.164-0.265c-0.061-0.008-0.216,0.37-0.321,0.515
	c-0.104,0.145-0.273,0.299-0.417,0.396c-0.144,0.1-0.213,0.133-0.397,0.186C9.3,26.562,8.454,26.28,8.21,26.274
	c-0.242-0.006-0.65,0.012-0.793,0.082c-0.144,0.068-0.377,0.297-0.287,0.243c0.088-0.057-0.095,0.078-0.121,0.129
	c-0.027,0.051,0.026,0.121,0.182,0.135c0.156,0.014,0.871-0.111,1.089-0.088s0.473,0.129,0.555,0.154s0.459,0.16,0.417,0.516
	c-0.042,0.354-0.197,1.402-0.247,1.799s-0.191,1.105-0.142,1.328c0.05,0.221,0.165,0.418,0.172,0.656
	c0.007,0.236-0.085,0.801-0.085,0.801S8.873,33.438,8.8,33.51s-0.058,0.133-0.36,0.156c-0.302,0.023-1.031,0-1.859-0.094
	s-1.328-0.203-1.328-0.203s-0.047-1.297-0.078-1.375s-0.156,0.031-0.219,0.281S4.903,32.805,4.882,33
	c-0.021,0.197-0.014,0.332-0.114,0.322c-0.156-0.016-0.109-0.141-0.125-0.703s0.049-1.654,0.035-2.199
	c-0.014-0.543-0.005-1.297,0.027-1.852s0.112-1.76,0.136-2.412c0.023-0.651,0.256-2.205,0.295-2.536
	c0.039-0.331,0.158-0.786,0.227-1.059c0.068-0.272,0.182-0.43,0.249-0.6c0.067-0.169,0.145-0.369,0.188-0.516
	c0.042-0.146,0.044-0.235,0.065-0.48c0.022-0.246,0.137-0.407,0.137-0.407s0.326-0.038,0.644-0.056
	c0.319-0.018,1.489-0.085,1.89-0.11c0.401-0.024,0.841-0.147,1.141-0.103s0.844,0.109,1.266,0.147
	c0.257,0.023,1.571,0.206,1.745,0.265c0.173,0.059,0.266,0.146,0.319,0.249c0.055,0.104,0.093,0.18,0,0.21
	c-0.092,0.03-1.526-0.211-1.752-0.215s-0.514,0.014-0.636,0.067c-0.121,0.054-0.186,0.12-0.224,0.183s-0.04,0.084,0,0.128
	s0.276,0.047,0.427,0.044s0.448,0.015,0.448,0.015l1.649,0.178l0.355,0.029c0,0,0.215,0.085,0.328,0.353
	c0.115,0.267,0.229,0.424,0.316,0.934c0.072,0.426,0.096,0.803,0.102,1.235c0.008,0.431-0.002,0.857-0.012,1.176
	c-0.008,0.318-0.057,0.684-0.13,1.096C13.805,26.796,13.532,28.357,13.451,28.861z"/>
<path fill-rule="evenodd" clip-rule="evenodd" fill="#1A1A18" d="M13.891,43.375c-0.015-0.086,0.014-0.234,0.143-0.152
	c0.131,0.08,0.227,0.154,0.254,0.242s-0.11,0.162-0.205,0.162C13.986,43.627,13.906,43.463,13.891,43.375z"/>
<path fill-rule="evenodd" clip-rule="evenodd" fill="#1A1A18" d="M13.822,43.803c-0.029,0.074-0.054,0.148-0.177,0.178
	c-0.126,0.027-0.24-0.131-0.24-0.131s-0.041-0.268,0.019-0.326c0.06-0.061,0.179-0.061,0.287,0.014
	C13.819,43.613,13.836,43.768,13.822,43.803z"/>
<path fill-rule="evenodd" clip-rule="evenodd" fill="#1A1A18" d="M13.912,44.639c0,0-0.078-0.154-0.119-0.219
	c-0.039-0.062,0.056-0.25,0.152-0.221c0.096,0.029,0.199,0.104,0.199,0.104s0.094,0.26,0.009,0.336S13.912,44.639,13.912,44.639z"/>
<path id="player-sock-r" fill-rule="evenodd" clip-rule="evenodd" fill="#0068B4" d="M11.428,38.924
	c-0.097-0.008-0.328-0.838-0.328-0.838l-0.493-0.869c0,0-0.457-0.83-0.53-0.947c-0.073-0.119-0.098-0.33-0.089-0.588
	s0.671-0.658,0.569-0.572c-0.101,0.088,0.773-0.701,0.719-0.643c-0.054,0.059,0.07-0.098,0-0.129
	c-0.069-0.031-0.111-0.166-0.238-0.129c-0.128,0.035-1.148,0.463-1.24,0.461c-0.091-0.004-0.115-0.25-0.15-0.354
	c-0.034-0.104-0.012-0.256,0-0.367c0.013-0.111,0.567-0.797,0.79-0.898c0.223-0.104,0.752-0.16,0.959-0.129
	c0.279,0.041,0.541,0.146,0.605,0.219s0.162,0.242,0.191,0.367c0.029,0.127,0.101,0.4,0.097,0.529
	c-0.005,0.129,0.052,0.166-0.055,0.172c-0.106,0.004-0.285-0.184-0.359-0.129c-0.075,0.055-0.051,0.443,0,0.516
	c0.05,0.07,0.272,0.193,0.333,0.357c0.061,0.166,0.494,2.029,0.52,2.137s0.051,0.771,0.057,0.936
	c0.006,0.162,0.04,0.525,0.013,0.559c-0.028,0.035-0.951-0.092-1.162,0.004C11.425,38.682,11.525,38.932,11.428,38.924z"/>
<path fill-rule="evenodd" clip-rule="evenodd" fill="#1A1A18" d="M12.568,41.85c0,0-0.211-0.09-0.224-0.193
	c-0.015-0.102,0.04-0.189,0.164-0.189c0.123,0,0.246,0.117,0.232,0.221C12.727,41.789,12.568,41.85,12.568,41.85L12.568,41.85z"/>
<path id="skin-leg-r" fill-rule="evenodd" clip-rule="evenodd" fill="#F9CAA9" d="M11.768,31.553c0,0-0.284,0.301-0.267,0.426
	s0.116,0.412,0.116,0.412l0.068,0.176c0,0-0.227-0.113-0.369-0.117c-0.142-0.002-0.899,0.049-1.036,0.125s-0.365,0.291-0.493,0.441
	s-0.359,0.441-0.359,0.441s-0.103-0.074-0.123-0.221c-0.021-0.148,0.047-0.947,0.047-0.947s0.124-0.963,0.138-1.027
	s0.196-0.166,0.377-0.17C10.046,31.086,11.768,31.553,11.768,31.553z"/>
<path id="player-sock-l" fill-rule="evenodd" clip-rule="evenodd" fill="#0068B4" d="M8.83,46.143
	C8.847,46.26,8.743,46.34,8.709,46.4c-0.034,0.062-0.084,0.221-0.185,0.111C8.424,46.4,7.99,44.785,7.802,44.4
	c-0.188-0.383-0.519-1.172-0.8-1.609s-0.578-0.984-0.656-1.281s-0.031-0.832,0.014-0.99c0.064-0.229,0.608-0.709,0.72-0.773
	c0.11-0.064,0.237-0.088,0.313-0.184c0.058-0.07,0.019-0.105-0.083-0.148c-0.104-0.045-0.167-0.092-0.37-0.061
	s-0.772,0.357-0.875,0.312c-0.044-0.02-0.129-0.43-0.172-0.688c-0.062-0.375-0.113-0.6-0.031-0.688
	c0.113-0.123,0.792-0.455,1.065-0.477c0.273-0.02,0.766,0,0.84,0.119c0.072,0.117,0.391,1.039,0.391,1.039s0.312,0.727,0.359,1.029
	c0.048,0.305,0.297,2.223,0.36,2.576s0.152,0.873,0.24,1.16c0.089,0.287,0.571,1.703,0.619,1.848
	c0.048,0.143-0.52-0.459-0.619-0.432c-0.099,0.027-0.297,0.35-0.333,0.527C8.748,45.857,8.813,46.025,8.83,46.143z"/>
<path id="skin-leg-l" fill-rule="evenodd" clip-rule="evenodd" fill="#F9CAA9" d="M6.971,34.072
	c0.43,0.033,1.297,0.047,1.297,0.047s-0.169,1.256-0.216,1.652c-0.049,0.396-0.184,1.602-0.237,1.66
	c-0.055,0.059-0.812-0.045-1.031-0.016c-0.291,0.039-0.929,0.363-0.929,0.363s-0.232-0.865-0.301-1.141
	c-0.068-0.273-0.137-1.312-0.131-1.617c0.008-0.303,0.021-1.125,0.021-1.125S6.54,34.039,6.971,34.072z"/>
<path id="skin-arm-l" fill="#F9CAA9" d="M3.174,18.634c-1.109-0.344-1.688-0.469-1.938-0.688c-0.085-0.074-0.156-0.328-0.078-0.703
	s0.234-0.812,0.375-1.297s0.281-0.781,0.281-0.781s0.379,0.274,0.844,0.562c0.328,0.203,0.719,0.391,0.734,0.469
	s-0.156,0.406-0.281,0.719s-0.266,0.547-0.25,0.734c0.007,0.078,0,0.172,0.078,0.125s0.406-0.391,0.406-0.391
	s0.046-0.031,0.125-0.047s0.245,0.035,0.375,0.094c0.345,0.158,1.363,0.565,1.375,0.625c0.031,0.156,0.032,0.383,0.062,0.578
	s0.031,0.547,0.031,0.547S3.718,18.802,3.174,18.634z"/>
<path fill-rule="evenodd" clip-rule="evenodd" fill="#1A1A18" d="M10.363,31.713c-0.156-0.031-0.289-0.035-0.332,0.045
	s-0.056,0.383-0.056,0.383s0.185-0.162,0.31-0.193s0.499-0.045,0.54-0.078C10.863,31.838,10.519,31.744,10.363,31.713z"/>
<path fill-rule="evenodd" clip-rule="evenodd" fill="#1A1A18" d="M6.921,35.76c-0.138-0.047-0.439-0.016-0.547,0.078
	c-0.106,0.094-0.179,0.316-0.158,0.361s0.255-0.127,0.442-0.143s0.541,0.078,0.622,0.07S7.058,35.807,6.921,35.76z"/>
<path fill-rule="evenodd" clip-rule="evenodd" fill="#1A1A18" d="M10.602,10.43c0,0,0.016-0.257,0.198-0.218
	s0.484,0.016,0.766,0.328c0.13,0.05-0.059,0.363-0.109,0.312c-0.156-0.156-0.299-0.234-0.406-0.312
	C10.878,10.415,10.602,10.43,10.602,10.43z"/>
<path fill-rule="evenodd" clip-rule="evenodd" fill="#1A1A18" d="M6.205,10.79c-0.139,0.296-0.25,0.438-0.375,0.578
	s-0.191,0.131-0.369,0.151c-0.084,0.01,0.149-0.218,0.307-0.479c0.175-0.292,0.032-0.459,0.282-0.62
	c0.249-0.161,0.674-0.285,0.727-0.239C6.83,10.228,6.344,10.494,6.205,10.79z"/>
<path id="skin-arm-r" fill-rule="evenodd" clip-rule="evenodd" fill="#F9CAA9" d="M16.237,13.326l0.251,0.011l-0.031-0.062
	l-0.423-0.212l-0.856-0.351c0,0,0.018-0.556,0.036-0.929c0.018-0.373,0.065-0.818,0.115-1.115c0.049-0.297,0.084-0.509,0.084-0.509
	l1.316,0.692c0,0,0.23,0.223,0.353,0.381c0.121,0.159,0.405,0.614,0.405,0.614s0.445,0.893,0.537,1.395s0.292,1.796,0.328,2.423
	c0.037,0.627,0.206,2.913,0.206,2.913s0.113,0.173,0.242,0.307s0.454,0.521,0.56,0.728s0.277,0.716,0.277,0.716l0.082,0.386
	l-0.018,0.589l-0.074,0.47l-0.143,0.284c0,0-0.006,0.042-0.104,0.069c-0.097,0.026-0.092-0.1-0.092-0.1l0.054-0.461l-0.023-0.336
	l-0.021,0.074l-0.163,0.514l-0.093,0.176c0,0-0.049,0.079-0.123,0.1c-0.073,0.02-0.074-0.125-0.074-0.125l0.064-0.967l-0.134-0.375
	l-0.144-0.265l-0.207-0.249l-0.104,0.163l-0.015,0.17l0.051,0.498l-0.077,0.368c0,0-0.021,0.133-0.11,0.183
	c-0.09,0.05-0.217-0.088-0.227-0.195s0.007-0.418-0.013-0.518s-0.13-0.357-0.185-0.627c-0.054-0.27,0.011-0.706,0.011-0.706
	l-1.129-5.113L16.237,13.326z"/>
<path fill-rule="evenodd" clip-rule="evenodd" fill="#1A1A18" d="M16.775,12.007c0.041-0.077,0.072-0.311-0.016-0.384
	s-0.146-0.192-0.225-0.239s-0.172,0.172-0.135,0.255s0.088,0.057,0.15,0.12S16.734,12.084,16.775,12.007z"/>
</svg>
