<?xml version="1.0" encoding="utf-8"?>
<!-- Generator: Adobe Illustrator 16.0.4, SVG Export Plug-In . SVG Version: 6.00 Build 0)  -->
<!DOCTYPE svg PUBLIC "-//W3C//DTD SVG 1.1//EN" "http://www.w3.org/Graphics/SVG/1.1/DTD/svg11.dtd">
<svg version="1.1" id="Ebene_1" xmlns="http://www.w3.org/2000/svg" xmlns:xlink="http://www.w3.org/1999/xlink" x="0px" y="0px"
	 width="21.68px" height="48.868px" viewBox="0 0 21.68 48.868" enable-background="new 0 0 21.68 48.868" xml:space="preserve">
<path fill-rule="evenodd" clip-rule="evenodd" fill="#1A1A18" d="M20.957,15.826l-0.083-0.188c0,0,0.003-0.353-0.02-0.419
	c-0.023-0.066-0.113-0.253-0.113-0.253s-0.057-0.113-0.154-0.154c-0.098-0.041-0.276-0.022-0.276-0.022s-0.166-0.121-0.268-0.099
	c-0.101,0.021-0.197,0.051-0.197,0.051l-0.149,0.073c0,0-0.146-0.08-0.238-0.047c-0.091,0.033-0.287,0.176-0.287,0.176
	s-0.176,0.335-0.216,0.463c-0.04,0.128-0.134,0.452-0.134,0.452s-0.289-0.03-0.426,0.161c-0.049,0.068-0.26,0.441-0.26,0.441
	s-0.037-0.161-0.156-0.676c-0.118-0.515-0.189-0.707-0.361-1.441c-0.141-0.599-0.23-0.882-0.422-1.734
	c-0.08-0.382-0.292-1.141-0.428-1.443c-0.195-0.438-0.322-0.588-0.51-0.823c-0.256-0.319-0.812-0.781-0.951-0.896
	c0.031-0.062,0.062-0.124,0.092-0.183c0.109-0.219,0.202-0.301,0.234-0.344c0.268,0.083,0.512,0.046,0.672,0.016
	c0.353-0.066,0.466-0.301,0.578-0.531c0.074-0.153,0.152-0.52,0.266-0.984c0.029-0.12,0.016-0.309,0.156-0.359
	c0.172-0.062,0.328-0.094,0.41-0.308c0.062-0.164-0.027-0.445-0.047-0.484c-0.109-0.219-0.135-0.32-0.203-0.484
	c0.08-0.041,0.227-0.156,0.227-0.156s-0.141-0.011-0.213-0.02l0.123-0.506l0.107-0.24c0,0,0.156,0.062,0.438,0.094
	c0.209,0.023,0.496-0.083,0.469-0.156c-0.098-0.26-0.229-0.335-0.297-0.562c0.4,0.027,0.831-0.161,0.522-0.344
	c-0.435-0.339-0.498-0.467-0.632-0.641c-0.052-0.067-0.599-0.984-0.859-1.203c-0.576-0.483-1.075-0.69-1.493-0.812
	c-0.216-0.064-0.823-0.177-1.531-0.094c-0.406,0.047-0.805,0.153-1.134,0.28c-0.133-0.073-0.281,0.004-0.305-0.03
	c-0.213-0.303-0.459-0.463-0.64-0.562c-0.163-0.091-0.563-0.172-0.813-0.125c-0.361,0.068-0.51,0.138-0.765,0.312
	c-0.204,0.141-0.516,0.578-0.719,1.266C9.849,2.631,9.718,3.101,9.528,3.692C9.417,4.035,9.272,4.46,9.139,4.817
	C8.903,5.442,8.794,5.801,8.81,6.192c0.016,0.385,0.003,0.463,0.066,0.766c0.082,0.385,0.341,0.344,0.341,0.344
	C9.201,7.411,9.489,7.554,9.561,7.598c0.125,0.078,0.358-0.015,0.312-0.219c0.138,0.276,0.234,0.359,0.234,0.359
	c0.109,0.047,0.438,0.219,0.391-0.109c0.106,0.448,0.375,0.312,0.438,0.047c-0.007-0.058,0.069-0.458,0.187-0.672
	c0.074-0.137,0.264-0.541,0.359-0.719c0.188,0.656,0.434,1,0.688,1.297c0.169,0.198,0.228,0.363,0.363,0.635
	c-0.146,0.018-0.543,0.068-0.68,0.08c-0.168,0.015-0.969,0.141-1.375,0.234c-0.271,0.063-1.125,0.304-1.562,0.422
	C8.478,9.07,7.722,9.357,7.321,9.5c-0.438,0.156-0.938,0.406-1.219,0.562c-0.184,0.102-0.312,0.234-0.312,0.234l-0.01,0.139
	l-0.465,0.326c0,0-0.53,0.394-0.752,0.61c-0.221,0.216-0.555,0.488-0.646,0.827c-0.057,0.211-0.111,0.429-0.127,0.77
	c-0.017,0.342,0.076,1.078,0.234,1.609c0.172,0.578,0.639,1.659,0.844,2.203s0.766,1.75,0.766,1.75l-0.297,1.844
	c0,0-0.188,0.906-0.219,1.172s-0.003,0.382-0.033,0.475s-0.297,0.39-0.326,0.541s0.133,0.547,0.133,0.547s-0.141,0.177-0.211,0.328
	s-0.131,0.842-0.16,1.059s-0.08,0.783-0.068,1.073c0.012,0.292,0.155,0.907,0.234,1.153c0.08,0.244,0.25,0.664,0.453,1.094
	s0.621,1.119,0.752,1.396c0.189,0.4,0.535,0.924,0.711,1.324c0.177,0.4,0.627,1.344,0.711,1.561
	c0.176,0.459,0.578,1.715,0.631,1.982s0.125,1.055,0.191,1.176s0.126,0.1,0.219,0.162c0.094,0.062,0.672-0.119,0.672-0.119
	l0.167-0.031l-0.601,0.789c0,0-0.1-0.064-0.218,0.01s-0.416,0.223-0.595,0.369c-0.18,0.146-0.541,0.598-0.594,0.74
	c-0.051,0.141-0.063,0.318-0.063,0.318s-0.272,0.162-0.391,0.309s-0.821,1.213-0.821,1.213l-1.222,1.457l-1.14,1.41l-0.651,0.682
	l-0.581,0.463l-0.133,0.201c0,0-0.555,0.332-0.812,0.525c-0.26,0.193-0.385,0.357-0.514,0.525s-0.291,0.596-0.285,0.734
	s0.097,0.193,0.097,0.193l-0.011,0.338c0,0-0.033,0.266-0.027,0.309c0.006,0.045,0.024,0.084,0.134,0.104
	c0.11,0.02,0.218-0.033,0.218-0.033l0.188,0.141c0,0-0.057,0.15-0.03,0.217c0.026,0.068,0.096,0.139,0.188,0.143
	c0.094,0.004,0.218-0.076,0.218-0.076l0.958,0.459l0.873,0.5l0.779,0.348c0,0,0.01,0.184,0.07,0.232
	c0.061,0.051,0.25,0.105,0.328,0.098c0.08-0.008,0.092-0.141,0.092-0.141l0.169,0.008c0,0,0.048,0.215,0.079,0.238
	s0.27,0.102,0.342,0.082s0.078-0.125,0.078-0.125l0.186,0.055l0.314-0.117c0,0,0.375,0.006,0.594-0.008
	c0.219-0.016,0.329-0.016,0.479-0.104s0.276-0.309,0.187-0.596c-0.091-0.287-0.784-0.801-1.039-1.027
	c-0.256-0.23-0.764-0.852-0.824-0.98c-0.062-0.131-0.126-0.576-0.126-0.576l-0.077-0.193c0,0,0.396-0.547,0.607-0.758
	c0.21-0.211,0.51-0.572,0.752-0.795c0.243-0.221,2.551-2.283,2.672-2.42s0.221-0.262,0.273-0.316
	c0.053-0.057,0.178-0.225,0.273-0.279c0.094-0.057,0.359-0.137,0.521-0.279c0.162-0.145,0.449-0.57,0.629-0.867
	c0.138-0.23,0.192-0.574,0.192-0.574l1.102-1.004l0.377-0.332c0,0,0.068,0.225,0.053,0.398c-0.017,0.172-0.178,1.205-0.26,1.676
	c-0.083,0.471-0.334,1.742-0.334,1.742s-0.109-0.104-0.215,0.096c-0.104,0.197-0.387,1.051-0.387,1.051s-0.277,0.512-0.328,0.643
	c-0.051,0.129-0.038,0.447-0.024,0.568c0.015,0.119,0.032,0.217,0.058,0.322s0.055,0.137,0.115,0.217s0.172,0.229,0.26,0.295
	c0.088,0.064,0.18,0.014,0.18,0.014s0.016,0.234,0.066,0.266c0.053,0.031,0.195,0.027,0.288,0.029s0.117-0.137,0.117-0.137
	l0.39-0.084l0.986,0.117l0.93,0.074l0.656,0.117c0,0-0.021,0.193,0.057,0.221c0.078,0.025,0.295,0.061,0.341,0.014
	s0.054-0.205,0.054-0.205l0.274-0.016c0,0-0.01,0.16,0.056,0.178c0.064,0.016,0.273,0.041,0.342,0
	c0.068-0.043,0.055-0.191,0.055-0.191l0.999-0.074c0,0,0.296-0.096,0.397-0.205c0.102-0.111,0.09-0.418,0.041-0.574
	c-0.05-0.154-0.196-0.271-0.342-0.381c-0.146-0.111-1.424-0.766-1.424-0.766L15.005,41.8c0,0-0.035-0.303-0.147-0.402
	c-0.112-0.098-0.293-0.158-0.293-0.158s0.066-0.107-0.024-0.277c-0.092-0.17-0.184-0.213-0.184-0.213l0.658-2.059l0.629-2.086
	c0,0,0.387-1.373,0.457-1.729c0.123-0.633-0.021-0.701,0.014-0.809c0.014-0.045,0.109-0.045,0.26-0.367
	c0.085-0.184,0.1-0.387,0.109-0.646c-0.027-0.266-0.08-0.455-0.081-0.545c-0.001-0.088,0.286-1.234,0.354-1.572
	c0.047-0.229,0.126-0.75,0.139-0.92c0.012-0.168,0.02-0.391-0.121-0.713c-0.141-0.324-0.844-1.314-0.844-1.314
	s0.104-0.17,0.103-0.287c-0.001-0.119-1.116-1.24-1.455-1.576s-1.149-1.11-1.394-1.365c-0.244-0.255-0.89-0.873-1.004-1.011
	c-0.114-0.137-0.141-0.203-0.156-0.344s-0.098-0.258-0.078-0.375c0.031-0.188,0.049-0.268,0.109-0.422
	c0.109-0.281,0.328-0.869,0.641-1.688c0.406-1.062,0.625-1.688,0.844-2.422c0.196-0.659,0.449-1.535,0.527-1.488
	s0.234,0.875,0.234,0.875s0.125,0.375,0.25,0.828c0.043,0.159,0.141,0.109,0.391,0.078s0.422-0.078,0.422-0.078
	s0.4,0.954,0.594,1.328c0.192,0.374,0.637,1.245,0.766,1.406c0.127,0.161,0.502,0.261,0.703,0.297
	c0.199,0.037,0.495-0.083,0.75-0.172c0.254-0.089,0.59-0.562,0.797-0.859c0.206-0.298,0.421-0.784,0.571-1.093
	c0.151-0.309,0.46-0.751,0.46-0.751s0.344-0.266,0.453-0.344s0.246-0.309,0.281-0.375c0.078-0.156,0.222-0.662,0.271-0.898
	c0.05-0.235,0.095-0.8,0.097-0.984C21.106,16.085,20.957,15.826,20.957,15.826z M6.54,14.703c0,0,0-0.156-0.031-0.422
	S6.431,13.75,6.431,13.75l0.438-0.141L6.54,14.703z"/>
<path id="skin-face" fill-rule="evenodd" clip-rule="evenodd" fill="#F9CAA9" d="M13.321,8.734c0.297,0.188,0.453,0.234,1.094,0.484
	c0.132,0.051,0.559,0.149,0.578,0.109c0.078-0.156,0.178-0.325,0.234-0.422c0.172-0.297,0.304-0.351,0.304-0.351
	s0.199,0.037,0.335,0.067c0.167,0.061,0.332,0.059,0.455-0.015c0.152-0.091,0.205-0.106,0.344-0.485
	c0.079-0.218,0.158-0.604,0.197-0.746c0.038-0.143,0.146-0.46,0.218-0.581c0.03-0.054,0.261-0.032,0.317-0.113
	c0.072-0.101-0.029-0.302-0.029-0.302s-0.146-0.297-0.215-0.469c-0.117-0.013-0.262-0.031-0.308-0.051
	c-0.077-0.035-0.313-0.21-0.3-0.224c0.246,0.12,0.232,0.076,0.35,0.079c0.03,0.003,0.191-0.058,0.246-0.058
	c0.029-0.127,0.074-0.285,0.074-0.285l0.002-0.004c-0.066-0.015-0.139-0.02-0.228-0.02c-0.091,0.015-0.272,0.061-0.319,0.064
	c-0.016-0.02,0.27-0.14,0.307-0.167c0.033-0.025,0.23-0.04,0.277-0.043l0.077-0.202l0.091-0.137c0,0-0.393,0.076-0.53,0.061
	c-0.177-0.018-0.364-0.061-0.364-0.061s0,0.273-0.045,0.394c-0.076,0.288-0.137,0.455-0.242,0.773
	c-0.081,0.242-0.189,0.572-0.318,0.743c-0.068,0.089-0.006,0.014-0.213,0.106c-0.089,0.04-0.101-0.2-0.136-0.333
	c-0.06-0.223-0.132-0.425-0.233-0.55c-0.094-0.117-0.326-0.208-0.466-0.183c-0.098,0.018-0.329,0.014-0.29,0.462
	c0.025,0.287,0.27,0.574,0.391,0.756c0.086,0.129,0.014,0.31-0.488,0.561c-0.455,0.227-0.605,0.277-0.979,0.548
	c-0.344,0.25-0.422,0.391-0.422,0.391S13.171,8.639,13.321,8.734z M16.613,7.493l0.052,0.105c-0.038,0.068-0.101,0.133-0.183,0.08
	C16.441,7.536,16.559,7.535,16.613,7.493z M15.004,6.068l0.161,0.64C15.165,6.708,14.747,6.395,15.004,6.068z"/>
<path fill="#FFFFFF" d="M12.038,3.254c-0.062,0.162,0.172-0.016,0.469-0.25c0.284-0.225,0.391-0.474,0.48-0.797
	c0.029-0.107,0.043-0.196,0.044-0.267c0.002-0.077,0.007-0.165-0.028-0.162c-0.074,0.006-0.094-0.033-0.125,0.084
	c-0.072,0.269-0.184,0.496-0.266,0.641C12.417,2.849,12.087,3.128,12.038,3.254z"/>
<path id="hair" fill-rule="evenodd" clip-rule="evenodd" fill="#F7DD7F" d="M11.722,5.857c0.152,0.612,0.291,0.98,0.765,1.577
	c0.095,0.119,0.388,0.706,0.444,0.706c0.066,0,0.398-0.363,0.826-0.568c0.346-0.166,0.865-0.396,0.85-0.505
	c-0.012-0.079-0.424-0.441-0.281-1.164c0.078-0.306,0.243-0.415,0.429-0.436c0.036-0.001,0.071-0.004,0.106-0.002
	c0.017,0.001,0.033,0,0.051,0.002c0.063,0.007,0.125,0.018,0.181,0.034c0.007,0.002,0.014,0.004,0.021,0.006
	c0.059,0.017,0.111,0.038,0.156,0.06c0.307,0.153,0.459,0.551,0.521,0.857c0.029,0.146,0.134-0.28,0.321-0.827
	c0.072-0.21,0.169-0.578,0.184-0.75c0.018-0.207-0.036-0.553,0.082-0.459c0.07,0.073,0.555,0.261,0.949,0.168
	c-0.336-0.259-0.199-0.178-0.153-0.214c0.093-0.073,0.448,0.399,1.026,0.352c-0.17-0.199-0.438-0.884-0.307-0.812
	c0.168,0.092,0.275,0.123,0.536,0.092c0.062,0.015-0.267-0.176-0.429-0.459c-0.125-0.217-0.289-0.49-0.484-0.755
	c-0.001-0.003-0.004-0.008-0.006-0.01c-0.244-0.444-0.748-0.792-1.041-0.95c-0.293-0.156-0.666-0.345-1.438-0.367
	c-0.689-0.02-1.241,0.161-1.641,0.304c-0.092,0.033-0.015,0.4-0.152,0.798c-0.05,0.143-0.156,0.42-0.414,0.612
	c-0.306,0.23-0.505,0.368-0.78,0.475c-0.032,0.013-0.03,0.377-0.077,0.904C11.936,4.877,11.844,5.398,11.722,5.857z M12.946,3.821
	c0.236-0.185,0.031,0.136-0.107,0.551c-0.146,0.445-0.203,0.973-0.201,0.84C12.655,4.403,12.5,4.168,12.946,3.821z"/>
<path id="hair-p" fill="#F7DD7F" d="M9.298,5.119c0.178-0.498,0.466-1.13,0.763-2.255c0.267-1.012,0.498-1.405,0.781-1.625
	c0.169-0.132,0.321-0.232,0.609-0.281c0.734-0.125,1.123,0.469,1.232,0.641c0,0-0.078,0.25-0.154,0.391
	c-0.269,0.496-0.314,0.547-0.58,0.875c-0.071,0.087-0.122,0.152-0.167,0.22c-0.115,0.102-0.34,0.308-0.441,0.467l0.355-0.027
	c-0.008,0.22-0.022,0.558-0.111,1.194c-0.094,0.797-0.15,1.005-0.369,1.49c-0.219,0.531-0.406,0.641-0.531,1.172
	c0.043-0.183-0.202-0.438-0.249-0.672c0,0-0.247,0.729-0.172,0.797C9.951,7.223,9.949,6.921,9.92,6.629c0,0-0.422,0.375-0.297,0.703
	C9.598,7.307,9.439,7.225,9.392,7.01C9.351,6.827,9.419,6.517,9.435,6.395c0,0-0.301,0.275-0.234,0.547
	C9.026,6.229,9.075,5.739,9.298,5.119z"/>
<path id="player-sock-l" fill-rule="evenodd" clip-rule="evenodd" fill="#0068B4" d="M12.462,40.444l-0.091-0.047l0.308-1.803
	c0,0,0.201-1.189,0.209-1.469c0.01-0.281-0.127-0.662-0.127-0.662l0.426-0.869l0.154-0.34l0.051-0.264l0.104-0.725l0.431-0.174
	l0.165-0.447l0.291-0.078l0.055-0.088l-0.469-0.188l-0.15-0.965l-0.07-0.266c0,0,0.631,0.004,1.025,0.123
	c0.395,0.121,1.131,0.479,1.205,0.617c0.073,0.141,0.115,0.285,0.068,0.457s-0.02,0.186-0.092,0.312
	c-0.072,0.129-0.41,0.043-0.44,0.121c-0.03,0.08-0.003,0.156,0.073,0.273c0.076,0.115,0.113,0.141,0.171,0.277
	c0.058,0.139-0.014,0.428-0.067,0.705c-0.055,0.281-0.567,2.037-0.567,2.037l-0.876,2.793l-0.164,0.672l-0.273,0.77l-0.438,0.205
	l-0.219-0.439l-0.467-0.088L12.462,40.444z"/>
<path id="skin-leg-l" fill-rule="evenodd" clip-rule="evenodd" fill="#F9CAA9" d="M14.677,31.759
	c-0.164-0.029-0.908-0.109-0.908-0.109s-0.042-0.586-0.025-0.459c0.016,0.127-0.049-0.479-0.037-0.352
	c0.013,0.127-0.094-0.281-0.094-0.281l0.739-0.801l0.821-0.838l0.529-0.537c0,0,0.229,0.238,0.361,0.463
	c0.133,0.225,0.328,0.504,0.374,0.703c0.046,0.197,0.063,0.33,0.055,0.559c-0.009,0.227-0.073,0.447-0.108,0.705
	c-0.037,0.256-0.406,1.477-0.406,1.477s-0.754-0.338-0.891-0.396S14.841,31.788,14.677,31.759z"/>
<polygon fill-rule="evenodd" clip-rule="evenodd" fill="#1A1A18" points="14.06,31.171 14.101,30.845 14.122,30.741 14.534,30.554 
	14.417,30.88 14.334,31.315 14.06,31.171 "/>
<path id="skin-leg-r" fill-rule="evenodd" clip-rule="evenodd" fill="#F9CAA9" d="M10.846,37.667l-0.405-0.344l-0.727-0.643
	L9.04,36.196c0,0,0.312-0.443,0.408-0.58c0.096-0.137,0.168-0.254,0.207-0.262s0.399,0.18,0.535,0.195
	c0.134,0.018,0.371-0.102,0.334-0.168c-0.035-0.064-0.5-0.449-0.5-0.449l0.123-0.074l0.043-0.426h0.04c0,0,0.14,0.418,0.247,0.492
	c0.106,0.074,0.756-0.051,1.201-0.182c0.604-0.176,1.333-0.352,1.333-0.352s-0.056,0.447-0.093,0.664
	c-0.035,0.217-0.127,0.344-0.225,0.537c-0.098,0.195-0.422,0.746-0.623,0.979C11.871,36.802,10.846,37.667,10.846,37.667z"/>
<polygon fill-rule="evenodd" clip-rule="evenodd" fill="#1A1A18" points="11.815,36.069 11.729,35.942 11.745,35.835 11.875,35.634 
	12.179,35.683 12.15,35.901 11.815,36.069 "/>
<path id="player-sock-r" fill-rule="evenodd" clip-rule="evenodd" fill="#0068B4" d="M9.396,39.431
	c-0.139-0.057-0.713-0.967-0.788-0.93c-0.076,0.035-0.116,0.092-0.116,0.092S8.416,38.671,8.46,38.81s0.611,0.814,0.588,0.984
	c-0.024,0.168-0.18,0.383-0.283,0.477c-0.105,0.096-2.402,2.184-2.402,2.184l-0.544,0.459l-0.79,0.844l-0.39,0.418l-0.452-0.221
	l-0.76,0.354l-0.272-0.217l0.129-0.732l-0.11-0.455l0.611-0.635l0.924-1.08c0,0,1.504-1.805,1.623-1.941s0.412-0.68,0.525-0.805
	c0.114-0.127,0.245-0.338,0.365-0.387c0.119-0.049,0.651,0.158,0.707,0.113c0.055-0.045,0.074-0.141,0.031-0.217
	c-0.045-0.078-0.381-0.449-0.384-0.564s0.161-0.307,0.325-0.469s0.287-0.264,0.465-0.338c0.179-0.072,0.28-0.121,0.373-0.061
	s0.719,0.57,0.719,0.57s0.533,0.43,0.666,0.541c0.132,0.111,0.366,0.27,0.352,0.404c-0.016,0.137-0.066,0.361-0.15,0.527
	c-0.084,0.164-0.394,0.629-0.547,0.705C9.626,39.345,9.535,39.485,9.396,39.431z"/>
<path id="skin-arm-l" fill="#F9CAA9" d="M6.04,13.562c-0.016-0.141,0.061-0.175,0.156-0.219c0.172-0.078,0.531-0.219,0.531-0.219
	s-0.081-0.456-0.165-0.864s-0.149-0.65-0.247-0.897c-0.098-0.247-0.287-0.587-0.287-0.587s-1.111,0.805-1.199,0.867
	c-0.09,0.062-0.11,0.148-0.11,0.148s0.119,0.046,0.118,0.12c-0.002,0.073,0.014,0.149,0.006,0.265s-0.076,0.188-0.117,0.27
	c-0.04,0.082-0.159,0.167-0.244,0.139c-0.084-0.028-0.017-0.446-0.017-0.446S4.302,12.3,4.254,12.429
	c-0.048,0.129-0.083,0.362-0.089,0.618c-0.006,0.256,0.068,0.698,0.116,0.899c0.048,0.2,0.133,0.486,0.241,0.85
	c0.107,0.364,1.236,2.985,1.236,2.985l0.547-2.309l-0.141-1.035C6.165,14.438,6.052,13.666,6.04,13.562z"/>
<path id="player-shirt" fill="#0068B4" d="M17.802,16.59c-0.094-0.375-0.577-2.36-0.66-2.704c-0.184-0.765-0.418-1.593-0.492-1.917
	s-0.109-0.453-0.281-0.828s-0.326-0.516-0.438-0.656c-0.113-0.141-0.711-0.671-0.832-0.717s-0.712-0.202-0.998-0.315
	c-0.287-0.113-0.864-0.333-1.123-0.499c-0.258-0.166-0.297-0.297-0.297-0.297L12.22,8.63c0,0-0.398,0.026-0.711,0.073
	c-0.176,0.026-0.734,0.141-1.312,0.266C9.739,9.067,8.638,9.416,8.212,9.562c-0.115,0.041-0.939,0.378-1.201,0.497
	c-0.197,0.089-0.555,0.273-0.555,0.273l-0.123,0.095c0,0,0.25,0.475,0.349,0.714c0.098,0.24,0.272,0.802,0.315,1.058
	c0.042,0.256,0.128,0.798,0.128,0.798l0.042,0.015c0,0,0.218-0.395,0.436-0.596c0.112-0.104,0.188-0.173,0.312-0.26
	c0.178-0.124,0.25-0.203,0.297-0.141c0.031,0.042-0.064,0.091-0.152,0.22c-0.168,0.249-0.459,0.802-0.665,1.306
	c-0.098,0.239-0.396,1.146-0.646,2.062c-0.109,0.4-0.412,1.599-0.584,2.505c-0.106,0.562-0.401,2.235-0.469,2.609
	c-0.068,0.373-0.109,0.938-0.109,0.938s-0.049,0.061,0.109,0.203c0.158,0.143,0.293,0.175,0.572,0.252
	c0.277,0.077,1.627,0.305,2.084,0.389s1.418,0.223,1.765,0.258c0.845,0.086,1.336,0.076,1.392-0.008
	c0.062-0.094,0.478-0.982,0.461-1.051c-0.017-0.07-0.752,0.03-1.041,0.002s-0.749-0.179-0.834-0.28
	c-0.086-0.101,0.699-0.127,1.101-0.106c0.401,0.021,0.859,0.02,0.938-0.096c0.081-0.116,0.07-0.162,0.281-0.703
	c0.25-0.641,0.516-1.398,0.719-2.031c0.266-0.828,0.543-1.816,0.73-1.988s0.295-0.192,0.295-0.192s0.024-0.017,0.112,0.031
	s0.14,0.333,0.14,0.333s0.152,0.635,0.219,0.859c0.078,0.266,0.125,0.422,0.188,0.672c0.044,0.178,0.053,0.172,0.109,0.172
	c0.109,0,0.182-0.035,0.301-0.059c0.574-0.113,0.715-0.145,1.34-0.301s1.383-0.41,1.383-0.41l0.086-0.059
	C18.036,17.543,17.896,16.965,17.802,16.59z"/>
<path fill-rule="evenodd" clip-rule="evenodd" fill="#1A1A18" d="M13.421,16.599c0.041-0.012,0.129-0.226,0.271-0.431
	c0.16-0.23,0.375-0.457,0.375-0.516c-0.002-0.111-0.084-0.537-0.125-0.75c-0.043-0.212-0.103-0.646-0.193-0.756
	c-0.092-0.11-0.137-0.014-0.137-0.014s-0.062,0.288-0.021,0.545c0.039,0.241,0.039,0.522-0.102,1.116
	c-0.081,0.34-0.197,0.528-0.186,0.589C13.331,16.514,13.333,16.624,13.421,16.599z"/>
<path id="player-shorts-r" fill-rule="evenodd" clip-rule="evenodd" fill="#FFFFFF" d="M6.614,29.7
	c0.126,0.244,0.318,0.658,0.396,0.838c0.081,0.18,0.443,0.832,0.619,1.262s0.632,1.893,0.712,2.205
	c0.079,0.312,0.07,0.732,0.137,0.824c0.066,0.09,0.015,0.055,0.123,0.088c0.107,0.031,1.097-0.184,1.177-0.223
	s0.155-0.885,0.18-0.955c0.023-0.068,0.152-0.092,0.219-0.043c0.064,0.047,0.427,0.76,0.479,0.822
	c0.053,0.062,0.537-0.078,0.739-0.104c0.202-0.023,1.098-0.312,1.287-0.352c0.188-0.041,0.672-0.223,0.772-0.264
	s0.127-0.164,0.031-0.746c-0.109-0.678-0.652-3.168-0.75-3.555s-0.331-1.238-0.48-1.916c-0.151-0.676-0.434-1.742-0.434-1.742
	s-0.164-0.634-0.248-0.864c-0.086-0.23-0.096-0.421-0.33-0.51c-0.234-0.088-0.854-0.175-1.092-0.191
	c-0.238-0.016-0.66-0.065-0.709-0.121c-0.049-0.056,0.055-0.27,0.188-0.303s0.629-0.077,0.818-0.047
	c0.191,0.029,0.845,0.074,0.928,0c0.084-0.073,0.135-0.429,0.068-0.486c-0.066-0.058-0.191-0.034-0.416-0.023
	s-0.684-0.062-0.973-0.092c-0.289-0.03-0.828-0.109-1.281-0.172c-0.156-0.021-0.924-0.153-1.25-0.203
	c-0.326-0.05-1.078-0.172-1.438-0.266c-0.221-0.058-0.619-0.323-0.689-0.228s-0.232,0.292-0.246,0.389
	c-0.015,0.097,0.025,0.165,0.088,0.226c0.062,0.062,0.369,0.2,0.503,0.234c0.134,0.034,0.276,0,0.286,0.097
	c0.012,0.098-0.135,0.327-0.287,0.315s-0.311-0.08-0.498-0.033c-0.092,0.023-0.143,0.021-0.172,0.146
	c-0.03,0.125-0.123,0.767-0.145,0.982c-0.023,0.216-0.085,0.546-0.068,0.836c0.019,0.292,0.1,0.766,0.182,1.051
	c0.083,0.285,0.337,0.748,0.484,0.928c0.146,0.18,0.768,0.314,1.025,0.445c0.257,0.131,1.193,0.83,1.211,0.9
	c0.018,0.068-0.353,0.041-0.585-0.033s-0.596-0.352-0.817-0.447c-0.223-0.098-0.492-0.197-0.48-0.141
	c0.012,0.059,0.213,0.482,0.331,0.719S6.489,29.458,6.614,29.7z"/>
<path id="player-shorts-l" fill-rule="evenodd" clip-rule="evenodd" fill="#FFFFFF" d="M12.2,25.715
	c0.137,0.532,0.439,1.799,0.549,2.217c0.162,0.621,0.561,2.279,0.561,2.279s0.373-0.354,0.549-0.543s0.904-0.938,1.046-1.092
	s0.502-0.559,0.562-0.621c0.06-0.064,0.105-0.166,0.109-0.203c0.005-0.037-0.183-0.176-0.314-0.305
	c-0.133-0.129-1.51-1.531-1.766-1.807c-0.256-0.278-1.496-1.429-1.561-1.478c-0.063-0.049-0.128,0.004-0.104,0.11
	C11.857,24.378,12.062,25.188,12.2,25.715z"/>
<path id="skin-arm-r" fill-rule="evenodd" clip-rule="evenodd" fill="#F9CAA9" d="M16.974,21.118
	c0.107,0.135,0.304,0.18,0.432,0.209c0.128,0.03,0.402,0.035,0.587-0.085s0.437-0.352,0.652-0.663
	c0.216-0.31,0.576-1.089,0.712-1.303c0.134-0.213,0.396-0.692,0.396-0.692l0.289-0.208c0,0,0.137-0.098,0.252-0.206
	c0.113-0.107,0.282-0.533,0.369-0.959c0.086-0.427,0.125-1.008,0.119-0.938s-0.001-0.21-0.051-0.188
	c-0.051,0.022-0.088,0.271-0.123,0.353c-0.037,0.081-0.102,0.286-0.145,0.287s-0.066-0.044-0.082-0.088
	c-0.016-0.044,0.201-1.258,0.216-1.357c0.015-0.098-0.104-0.195-0.154-0.132s-0.401,1.341-0.431,1.356s-0.073,0.068-0.1-0.01
	c-0.025-0.078,0.218-1.386,0.186-1.467c-0.033-0.081-0.146-0.087-0.186-0.011c-0.039,0.076-0.363,1.356-0.4,1.422
	c-0.036,0.065-0.1,0.088-0.123,0.077c-0.022-0.012,0.276-1.29,0.216-1.378s-0.165-0.014-0.216,0.066
	c-0.05,0.081-0.326,1.309-0.339,1.422c-0.013,0.114-0.092,0.276-0.092,0.276s-0.107-0.059-0.144-0.11
	c-0.037-0.052,0.074-0.48,0.041-0.53c-0.037-0.051-0.184-0.021-0.246,0.044c-0.064,0.066-0.197,0.347-0.186,0.463
	c0.012,0.117,0.052,0.405,0.127,0.592c0.076,0.187,0.217,0.411,0.217,0.411s-0.044,0.201-0.086,0.275
	c-0.041,0.074-0.282,0.38-0.282,0.38s0.146,0.415,0.173,0.562c0.027,0.146-0.115,0.256-0.115,0.256l-0.391-1.078
	c0,0-0.016-0.094-0.094-0.109s-0.922,0.234-1.219,0.312s-0.969,0.25-0.969,0.25s0.273,0.759,0.408,1.064
	C16.329,19.989,16.866,20.982,16.974,21.118z"/>
</svg>
