<?xml version="1.0" encoding="utf-8"?>
<!-- Generator: Adobe Illustrator 16.0.4, SVG Export Plug-In . SVG Version: 6.00 Build 0)  -->
<!DOCTYPE svg PUBLIC "-//W3C//DTD SVG 1.1//EN" "http://www.w3.org/Graphics/SVG/1.1/DTD/svg11.dtd" [
	<!ENTITY ns_flows "http://ns.adobe.com/Flows/1.0/">
	<!ENTITY ns_extend "http://ns.adobe.com/Extensibility/1.0/">
	<!ENTITY ns_ai "http://ns.adobe.com/AdobeIllustrator/10.0/">
	<!ENTITY ns_graphs "http://ns.adobe.com/Graphs/1.0/">
]>
<svg version="1.1" id="Ebene_1" xmlns:x="&ns_extend;" xmlns:i="&ns_ai;" xmlns:graph="&ns_graphs;"
	 xmlns="http://www.w3.org/2000/svg" xmlns:xlink="http://www.w3.org/1999/xlink" xmlns:a="http://ns.adobe.com/AdobeSVGViewerExtensions/3.0/"
	 x="0px" y="0px" width="23.1px" height="53.5px" viewBox="0 0 23.1 53.5" style="enable-background:new 0 0 23.1 53.5;"
	 xml:space="preserve">
<style type="text/css">
<![CDATA[
	.st0{fill-rule:evenodd;clip-rule:evenodd;fill:#1A1A18;}
	.st1{fill:#FBCDAA;}
	.st2{fill-rule:evenodd;clip-rule:evenodd;fill:#FBCDAA;}
	.st3{fill-rule:evenodd;clip-rule:evenodd;fill:#FFFFFF;}
	.st4{fill-rule:evenodd;clip-rule:evenodd;fill:#0068B4;}
]]>
</style>
<path class="st0" d="M21.39,23.21c-0.12,0.03-0.11,0.02-0.26-0.05c-0.28-0.13-0.28-0.83-0.28-0.83s-0.18,0.29-0.48,0.32
	c-0.14,0.01-0.4-0.35-0.48-0.49s-0.04-0.48-0.07-0.74s-0.16-0.52-0.2-0.69s0.06-0.54,0.01-0.76s-0.32-1.61-0.46-2.09
	s-0.75-3.09-0.86-3.44s-0.36-0.82-0.42-0.89s-0.47-0.18-0.47-0.18l-0.39-0.07l-0.12,0.98c0,0-1.06-0.07-1.27-0.06
	s-0.52-0.03-0.52-0.03s-0.05,1.56-0.07,2.17c-0.02,0.6-0.02,2.22-0.02,2.22l0.1,0.98l0.02,0.86v0.56l0.04,0.24l0.12,0.41
	c0,0,0.27,0.41,0.38,0.6s0.39,0.99,0.46,1.38c0.07,0.39,0.13,1.04,0.15,1.42c0.02,0.38,0,1.19-0.04,1.64s-0.5,2.66-0.5,2.66
	l-0.19,1.08l-0.25,1.09c0,0-0.08,0.83-0.09,1.03s0.01,0.5-0.07,0.6c-0.08,0.1-0.01,0.08-0.41,0.14s-1.13-0.24-1.13-0.24l-0.23,0.25
	l0.28,0.7l0.16,0.22l0.28,0.5l0.16,0.81l-0.06,0.33l0.06,0.8l0.55,2.16v1.92c0,0,0.77,0.01,0.82,0.14s-0.15,0.66-0.14,0.82
	c0.02,0.17,0.03,0.22,0.07,0.39s0.13,0.28,0.19,0.45c0.06,0.17,0.33,0.37,0.39,0.5c0.06,0.13,0.55,0.73,0.55,0.73
	s0.42,0.68,0.53,0.89s0.29,0.94,0.34,1.11s0.09,0.66,0.09,0.66s0.06,0.38,0.03,0.46s-0.11,0.38-0.17,0.5
	c-0.06,0.13-0.15,0.25-0.27,0.44s-0.38,0.33-0.56,0.34s-0.56,0.02-0.66-0.01s-0.11,0-0.26-0.18s-0.64-0.7-0.83-1
	s-1.03-2.03-1.03-2.03l-0.73-1.21l-0.26-0.24l-0.22-0.69v-0.52l-0.2-0.61v-0.41l-0.06-0.13l-0.27-0.7l-1.45-2.42l-0.27-0.71
	l-0.08-0.9l-0.19-0.61l0-0.44l-0.14,0.21l-0.21,0.09l-0.26,1.85L9.35,39.6c0,0,0.7,1.47,0.78,1.95c0.08,0.48,0.29,1.76,0.31,2.16
	s0.17,1.47,0.27,1.78c0.1,0.31,0.41,1.1,0.41,1.1s0.1,0.42,0.19,0.78c0.09,0.36,0.23,0.6,0.26,0.76s0.24,0.54,0.28,0.77
	s0.03,0.59,0.02,0.7s0.23,0.75,0.29,0.88c0.06,0.13,0.13,0.44,0.09,0.61s-0.38,0.45-0.38,0.45s0.03,0.21-0.01,0.26
	c-0.04,0.05-0.07,0.09-0.16,0.09s-0.3-0.1-0.3-0.1l-1.08,0.55c0,0-0.01,0.19-0.05,0.23c-0.03,0.05-0.19,0.09-0.25,0.09
	c-0.06,0-0.12-0.11-0.12-0.11l-0.97,0.33c0,0,0,0.16-0.03,0.21s-0.16,0.05-0.24,0.04c-0.12-0.01-0.13-0.14-0.13-0.14L8.1,52.94
	c0,0,0.03,0.08-0.03,0.14C8,53.15,7.77,53.1,7.69,53.07c-0.08-0.03-0.08-0.14-0.08-0.14s-0.22,0-0.52-0.09
	c-0.3-0.09-0.43-0.29-0.42-0.44s-0.01-0.32,0.09-0.45s0.48-0.31,0.59-0.45s1.61-1.72,1.62-1.78S8.8,48.94,8.8,48.94
	s-0.2-0.44-0.27-0.55s-0.09-0.3,0-0.41c0.09-0.11,0.27-0.03,0.27-0.03s0-0.14-0.13-0.44s-0.4-0.94-0.68-1.5
	c-0.24-0.48-1.07-1.62-1.24-1.94c-0.16-0.32-0.48-1.17-0.55-1.59c-0.07-0.43-0.08-0.66-0.12-0.98c-0.04-0.32-0.05-0.84-0.05-0.97
	s-0.05-0.5-0.05-0.5l-0.53-1.92l-0.09-1.34l0.03-1.51c0,0-0.46,0.12-0.59,0.11c-0.14-0.01-0.16-0.08-0.22-0.23
	c-0.06-0.15,0-1.42,0-1.42l0.02-1.34L4.63,31v-1.34l0.07-1.55l0.14-1.66c0,0,0.2-1.13,0.28-1.75c0.08-0.62,0.17-1.18,0.33-1.62
	s0.38-0.82,0.38-0.82l0.16-0.61l0.09-0.68l-0.33-0.54l-0.11-0.21l-1.11-0.24c0,0-1.86-0.55-2.24-0.66s-1.3-0.35-1.3-0.35l-0.41-0.41
	l-0.12-0.41l0.12-0.72l0.38-1.52l0.3-0.98l-0.1-0.1l0.42-0.91l0.83-1.51l0.89-1.88l0.44-0.78l0.66-0.7l0.43-0.25l0.58-0.26l1.34-0.3
	l0.77-0.32l0.1,0.01l-0.1-0.29L7.49,7.35L7.08,6.93l-0.3-0.38L6.46,6.09L6.1,5.62L6.06,5.21L5.94,4.43L5.56,4.18l0.31-0.56
	L5.75,3.13L5.69,3.01L6.3,1.74l0.41-0.44l0.41-0.52L7.28,0.9l0.23-0.27L8.3,0.49l0.11-0.12l0.83,0.16l0.69,0.25L10.5,0.7l0.14,0.16
	l0.42,0.11l0.5,0.56l0.34,0.58l0.06,0.36l0.22,0.08L12,3.13l0.31,0.52l-0.27,0.5l0.03,0.47l-0.34,0.75v0.44l-0.16,0.42l-0.33,0.25
	l-0.2,0.78l0.02,0.2l0.04,0.17l0.11,0.13l0.18,0.04c0,0,0.13,0.1,0.33,0.19C11.93,8.08,12.5,8.2,12.5,8.2s0.56,0.1,0.89,0.16
	s1.73,0.31,1.73,0.31l0.98,0.31l1.29,0.48v0.13l0.35,0.16c0,0,0.95,0.45,1.27,0.66s0.52,0.4,0.66,0.58s0.4,0.68,0.53,0.92
	s0.48,1.11,0.55,1.43s0.23,1.42,0.28,1.75s0.33,3.89,0.33,3.89s0.22,0.31,0.39,0.48s0.42,0.41,0.55,0.63s0.22,0.63,0.28,0.84
	s0.08,0.6,0.05,0.86s-0.19,0.8-0.19,0.8l-0.15,0.31c0,0-0.2,0.21-0.26,0.25s-0.12,0.08-0.23,0.07s-0.22-0.19-0.22-0.19
	S21.51,23.17,21.39,23.21z"/>
<path id="skin-arm-r" class="st2" d="M17.12,11.81c0.02-0.4,0.07-0.87,0.13-1.18s0.1-0.54,0.1-0.54l1.5,0.74c0,0,0.26,0.24,0.4,0.41
	s0.46,0.65,0.46,0.65s0.51,0.95,0.61,1.48s0.33,1.91,0.38,2.58s0.24,3.1,0.24,3.1l0.2,0.43l0.03,0.04c0,0,0.56,0.41,0.68,0.63
	s0.32,0.76,0.32,0.76l0.09,0.41l-0.02,0.63l-0.09,0.5L22,22.73c0,0-0.01,0.04-0.12,0.07s-0.11-0.11-0.11-0.11l0.06-0.49l-0.03-0.36
	l-0.02,0.08l-0.19,0.55l-0.11,0.19c0,0-0.06,0.08-0.14,0.11s-0.08-0.13-0.08-0.13l0.07-1.03l-0.15-0.4l-0.16-0.28l-0.24-0.26
	l-0.12,0.17l-0.02,0.18l0.06,0.53l-0.09,0.39c0,0-0.02,0.14-0.13,0.19s-0.25-0.09-0.26-0.21s-0.01-0.55-0.01-0.55l-0.21-0.67
	l0.01-0.75l-1.29-5.43l-0.51-1.24l-0.16-0.12l-0.98-0.37C17.08,12.79,17.1,12.2,17.12,11.81z"/>
<polygon class="st0" points="18.63,11.92 18.48,11.65 18.47,11.38 18.6,11.24 18.89,11.64 18.9,12.04 18.63,11.92 "/>
<path class="st3" d="M16.87,47.55c-0.1,0.09-0.41,0.14-0.41,0.14h-0.14l0.04,0.01l0.1-0.01c0,0,0.14-0.16,0.14-0.27
	c0-0.15-0.06-0.28-0.19-0.34S16.06,47.04,16,47.1s0.05,0.44,0.05,0.44s-0.49-0.42-0.69-0.68c-0.2-0.27-0.92-1.63-0.96-1.78
	s0-0.27,0-0.27s-0.61-1.04-0.69-1.23s-0.03-0.41,0-0.55s0.13-0.24,0.27-0.27s0.3-0.03,0.41,0s0.27,0.14,0.27,0.14h-0.14l-0.14,0.14
	v0.41l0.14,0.14h0.14l0.27-0.14l0.14,0.27l-0.14-0.14h-0.27l-0.14,0.14v0.14c0,0-0.13,0-0.23,0.05s-0.18,0.23-0.18,0.23v0.27h0.14
	c0,0,0.15,0.05,0.25,0c0.11-0.06,0.17-0.22,0.19-0.19c0.06,0.11,0.17,0.15,0.22,0.11c0.06-0.05,0.17-0.2,0.17-0.2
	s0.82,0.97,0.96,1.09s0.41,0.27,0.41,0.27s0.48,0.54,0.68,0.83c0.19,0.27,0.04,0.69-0.04,0.79C17.02,47.22,16.87,47.55,16.87,47.55
	S16.99,47.43,16.87,47.55z"/>
<path class="st0" d="M16.6,47c0,0-0.11-0.1-0.14-0.19s0.06-0.2,0.14-0.22s0.25,0.04,0.27,0.14c0.02,0.1,0.07,0.19,0,0.27
	S16.6,47,16.6,47L16.6,47z"/>
<path id="player-jersey" class="st4" d="M16.44,13.77l-0.87-0.09l-0.56-0.02l-0.27-0.96l-0.22-0.03l0,0.3l0.14,1.26l-0.07,3.48
	l0.04,1.64l0.08,0.8l-0.07,0.63l-0.47-0.14L12,20.41l-0.88-0.11l-0.27-0.01c0,0-0.05-0.15-0.07-0.37s0.04-1.77,0.03-2.21
	s-0.24-1.76-0.29-2.1s-0.23-0.83-0.23-0.83s-0.14-1.42-0.21-1.25s-0.11,1.44-0.09,1.78s0.32,1.83,0.31,2.22s-0.01,0.87-0.06,1.2
	s-0.14,1.29-0.14,1.29l-0.06,0.35l-1.05,0.09l-1.22,0.02l-0.87,0.09l-0.35-0.05L6.3,20.25c0,0-0.39-1.65-0.52-2.18
	s-0.3-1.15-0.4-1.57s0.08-0.94-0.01-1.13c-0.09-0.18,0-0.18-0.17-0.4s-0.26-0.25-0.27-0.15s-0.09,0.2-0.07,0.36
	c0.02,0.16,0.04,0.3,0.02,0.52s-0.41,0.8-0.41,0.8l-1.31-0.73l-0.87-0.63l-0.5-0.42c0,0,0.34-0.72,0.44-0.94s0.54-1.08,0.7-1.36
	s0.54-1.27,0.65-1.46s0.27-0.58,0.45-0.79s0.33-0.43,0.59-0.66S5.33,9.11,5.55,9s1.16-0.28,1.47-0.34s0.67-0.17,0.67-0.17
	s0.29,0.15,0.57,0.22s0.49,0.12,0.84,0.12s1.05-0.09,1.41-0.21s0.65-0.3,0.65-0.3l0.67,0.15c0,0,0.52,0.12,0.83,0.19
	c0.32,0.07,0.87,0.11,0.87,0.11l1.5,0.32l0.88,0.28l0.98,0.36c0,0-0.11,0.5-0.17,0.95c-0.08,0.65-0.08,0.97-0.12,1.5
	C16.56,12.71,16.44,13.77,16.44,13.77z"/>
<polygon class="st3" points="16.05,44.18 15.78,43.99 15.91,43.85 16.11,43.83 16.38,44.15 16.5,44.48 16.24,44.41 "/>
<path class="st0" d="M16.19,46.18c0.05,0.08-0.1-0.19,0-0.27c0.1-0.08,0.2,0.06,0.27,0.14s0.08,0.19,0,0.27
	C16.38,46.4,16.19,46.18,16.19,46.18S16.14,46.1,16.19,46.18z"/>
<path id="player-shorts" class="st3" d="M15.11,29.96c-0.09,0.54-0.24,1.07-0.3,1.45c-0.06,0.38-0.1,1.16-0.1,1.16
	s-0.03,0.14-0.2,0.12s-0.39-0.1-0.66-0.17s-1.21-0.34-1.5-0.4c-0.28-0.06-1.21-0.31-1.39-0.28s-0.45,0.14-0.45,0.14l-0.13-0.33
	l0.17-1.41l0.44-2.2c0,0,0.81-0.13,0.93-0.1s0.23,0.08,0.34,0.11s0.25-0.05,0.32-0.09s-0.08-0.33-0.15-0.36s-0.34-0.12-0.42-0.12
	S11.6,27.5,11.6,27.5s0.35-0.42,0.38-0.53s0.11-0.27,0.08-0.39s-0.12-0.27-0.19-0.28c-0.07-0.01-0.25,0.39-0.37,0.55
	s-0.31,0.32-0.48,0.42s-0.24,0.14-0.45,0.2c-0.21,0.06-1.17-0.24-1.45-0.25s-0.74,0.01-0.91,0.09s-0.43,0.32-0.33,0.26
	s-0.11,0.08-0.14,0.14s0.03,0.13,0.21,0.14s0.99-0.12,1.24-0.09s0.54,0.14,0.63,0.16s0.52,0.17,0.48,0.55s-0.22,1.49-0.28,1.91
	s-0.22,1.39-0.22,1.39l0.28,0.78l-0.12,0.79l-0.09,1.56L9.18,35l-1.69-0.09l-1.76-0.26L5.6,33.09H5.46l-0.13,1.27l-0.26,0.33
	l0.02-0.91l0.01-0.31c0,0,0.01-1.26-0.01-1.84c-0.02-0.58,0-1.38,0.03-1.97c0.04-0.59,0.13-1.87,0.16-2.56s0.29-2.34,0.34-2.7
	s0.18-0.84,0.26-1.12s0.22-0.37,0.29-0.55s0.21-0.43,0.26-0.59s0-0.3,0.02-0.56s0.16-0.43,0.16-0.43s0.37-0.04,0.74-0.06
	s1.7-0.09,2.16-0.12s1.25-0.14,1.59-0.09s0.86,0.13,1.15,0.14s1.79,0.22,1.99,0.28s0.3,0.16,0.37,0.27s0.1,0.19,0,0.22
	S12,21.5,12,21.5l-0.72,0.07L11,21.84v0.14h0.41L11.92,22l2.58,0.2l0.41,0.03c0,0,0.25,0.09,0.38,0.38s0.32,0.6,0.36,0.99
	s0.11,0.85,0.12,1.31c0.01,0.46,0,0.91-0.01,1.25c-0.01,0.34-0.02,0.58-0.1,1.02S15.2,29.42,15.11,29.96z"/>
<path class="st0" d="M15.61,45.38c-0.02-0.09,0.01-0.25,0.16-0.16s0.26,0.16,0.29,0.26s-0.12,0.17-0.23,0.17
	S15.63,45.47,15.61,45.38z"/>
<path class="st0" d="M15.53,45.84c-0.03,0.08-0.06,0.16-0.2,0.19s-0.27-0.14-0.27-0.14s-0.05-0.29,0.02-0.35s0.21-0.06,0.33,0.02
	S15.55,45.8,15.53,45.84z"/>
<path class="st0" d="M15.64,46.73c0,0-0.09-0.16-0.13-0.23s0.06-0.27,0.17-0.23s0.23,0.11,0.23,0.11s0.11,0.28,0.01,0.36
	C15.81,46.81,15.64,46.73,15.64,46.73z"/>
<polygon id="player-sock-r" class="st4" points="13.04,40.29 12.8,40.65 12.43,39.76 11.86,38.84 11.26,37.83 11.13,37.2 
	11.81,36.6 12.63,35.91 12.63,35.78 12.35,35.64 10.94,36.13 10.77,35.75 10.77,35.36 11.67,34.41 12.76,34.27 13.46,34.5 
	13.67,34.9 13.78,35.46 13.72,35.64 13.31,35.5 13.31,36.05 13.69,36.43 14.28,38.7 14.38,39.57 14.36,40.29 13.04,40.29 "/>
<path class="st0" d="M14.1,43.76c0,0-0.24-0.1-0.26-0.21s0.05-0.2,0.19-0.2s0.28,0.12,0.27,0.23S14.1,43.76,14.1,43.76L14.1,43.76z"
	/>
<path id="skin-leg-r" class="st2" d="M13.19,32.82l-0.23,0.25l-0.07,0.2l0.13,0.44l0.08,0.19l-0.42-0.12l-1.18,0.13l-0.56,0.47
	l-0.41,0.47l-0.14-0.23l0.05-1.01l0.16-1.09c0,0,0.22-0.18,0.43-0.18C11.22,32.32,13.19,32.82,13.19,32.82z"/>
<path id="player-sock-l" class="st4" d="M9.84,48.32L9.7,48.6l-0.21,0.12c0,0-0.61-1.83-0.82-2.24s-1.24-2.35-1.24-2.35
	L7.02,43.3v-0.96l0.82-0.82l0.55-0.27h0.14v-0.14l-0.41-0.14l-1.23,0.41H6.74c0,0-0.24-1.29-0.08-1.46c0.13-0.13,0.69-0.44,1-0.46
	s0.88,0,0.96,0.12c0.08,0.12,0.45,1.11,0.45,1.11l0.41,1.09l0.41,2.74l0.27,1.23l0.71,1.96l-0.71-0.46l-0.41,0.82L9.84,48.32z"/>
<path id="skin-leg-l" class="st2" d="M7.67,35.58c0.49,0.04,1.46,0.03,1.46,0.03S9,36.88,8.95,37.3s-0.14,1.65-0.2,1.71
	s-0.94-0.07-1.19-0.04c-0.33,0.04-1.12,0.46-1.12,0.46s-0.27-0.92-0.34-1.21c-0.08-0.29-0.12-0.71-0.11-0.94
	C6,37.06,5.94,36.83,5.95,36.5s0.02-1.2,0.02-1.2S7.18,35.55,7.67,35.58z"/>
<polygon class="st3" points="9.07,51.51 8.8,51.1 9.48,51.1 9.07,51.51 "/>
<polygon id="skin-arm-l" class="st1" points="2.43,18.86 1.26,18.53 0.97,18.22 1,17.73 1.36,16.13 1.72,15.26 2.18,15.62
	2.93,16.17 3.55,16.52 2.96,17.4 2.77,17.9 2.8,18.01 3.06,18.3 3.86,17.46 4.97,18.02 5.28,18.56 5.45,18.96 5.64,19.66 4.8,19.56 
	"/>
<polygon id="skin-neck" class="st2" points="10.77,7.96 10.77,7.89 10.61,7.61 10.31,7.82 10.02,7.86 9.54,7.93 9.39,8.19 
	9.16,7.97 9.01,7.92 8.59,7.82 8.33,7.8 7.96,7.72 7.97,8.12 8.38,8.29 9.11,8.38 10.25,8.21 "/>
<polygon class="st0" points="11.85,33.04 11.44,32.94 11.21,33.04 11.14,33.44 11.35,33.25 11.69,33.22 12.11,33.15 "/>
<polygon class="st0" points="7.86,37.48 7.66,37.29 7.03,37.37 6.85,37.75 7.28,37.58 7.64,37.61 8.07,37.68 "/>
<polygon class="st0" points="12.4,10.73 11.86,10.37 11.84,10.04 12.83,10.32 12.97,10.57 12.4,10.73 "/>
<polygon class="st0" points="6.87,11.05 6.27,11.44 5.99,11.53 5.85,11.57 6.66,10.36 7.49,10.1 7.44,10.42 6.87,11.05 "/>
<polygon id="hair" class="st0" points="6.22,3.56 6.1,3.09 6.07,3 6.47,2.09 6.8,1.69 7.21,1.2 7.36,1.29 7.76,1.01 8.44,0.88 
	8.53,0.77 9.25,0.91 9.85,1.13 10.35,1.06 10.48,1.2 10.84,1.3 11.28,1.8 11.58,2.31 11.63,2.63 11.82,2.69 11.66,3.22 11.93,3.68 
	11.7,4.12 11.72,4.54 11.43,5.2 11.43,5.59 11.29,5.96 11.01,6.18 10.83,6.77 10.74,7.13 10.3,7.34 10,7.39 9.5,7.48 9.34,7.64 
	9.11,7.48 8.96,7.43 8.51,7.38 8.25,7.36 7.83,7.29 7.71,7.08 7.31,6.7 7.02,6.31 6.77,5.95 6.46,5.48 6.43,5.05 6.29,4.22 
	5.98,4.05 "/>
</svg>
