<?xml version="1.0" encoding="utf-8"?>
<!-- Generator: Adobe Illustrator 16.0.4, SVG Export Plug-In . SVG Version: 6.00 Build 0)  -->
<!DOCTYPE svg PUBLIC "-//W3C//DTD SVG 1.1//EN" "http://www.w3.org/Graphics/SVG/1.1/DTD/svg11.dtd" [
	<!ENTITY ns_flows "http://ns.adobe.com/Flows/1.0/">
	<!ENTITY ns_extend "http://ns.adobe.com/Extensibility/1.0/">
	<!ENTITY ns_ai "http://ns.adobe.com/AdobeIllustrator/10.0/">
	<!ENTITY ns_graphs "http://ns.adobe.com/Graphs/1.0/">
]>
<svg version="1.1" id="Ebene_1" xmlns:x="&ns_extend;" xmlns:i="&ns_ai;" xmlns:graph="&ns_graphs;"
	 xmlns="http://www.w3.org/2000/svg" xmlns:xlink="http://www.w3.org/1999/xlink" xmlns:a="http://ns.adobe.com/AdobeSVGViewerExtensions/3.0/"
	 x="0px" y="0px" width="23.1px" height="53.5px" viewBox="0 0 23.1 53.5" style="enable-background:new 0 0 23.1 53.5;"
	 xml:space="preserve">
<style type="text/css">
<![CDATA[
	.st0{fill-rule:evenodd;clip-rule:evenodd;fill:#1A1A18;}
	.st1{fill:#FBCDAA;}
	.st2{fill-rule:evenodd;clip-rule:evenodd;fill:#FBCDAA;}
	.st3{fill-rule:evenodd;clip-rule:evenodd;fill:#FFFFFF;}
	.st4{fill-rule:evenodd;clip-rule:evenodd;fill:#0068B4;}
]]>
</style>
<path class="st0" d="M1.71,23.21c0.12,0.03,0.11,0.02,0.26-0.05c0.28-0.13,0.28-0.83,0.28-0.83s0.18,0.29,0.48,0.32
	c0.14,0.01,0.4-0.35,0.48-0.49s0.04-0.48,0.07-0.74s0.16-0.52,0.2-0.69s-0.06-0.54-0.01-0.76s0.32-1.61,0.46-2.09
	s0.75-3.09,0.86-3.44s0.36-0.82,0.42-0.89s0.47-0.18,0.47-0.18l0.39-0.07l0.12,0.98c0,0,1.06-0.07,1.27-0.06s0.52-0.03,0.52-0.03
	s0.05,1.56,0.07,2.17c0.02,0.6,0.02,2.22,0.02,2.22l-0.1,0.98l-0.02,0.86v0.56l-0.04,0.24l-0.12,0.41c0,0-0.27,0.41-0.38,0.6
	S7,23.21,6.94,23.6c-0.07,0.39-0.13,1.04-0.15,1.42c-0.02,0.38,0,1.19,0.04,1.64s0.5,2.66,0.5,2.66l0.19,1.08l0.25,1.09
	c0,0,0.08,0.83,0.09,1.03s-0.01,0.5,0.07,0.6c0.08,0.1,0.01,0.08,0.41,0.14s1.13-0.24,1.13-0.24l0.23,0.25l-0.28,0.7l-0.16,0.22
	l-0.28,0.5L8.83,35.5l0.06,0.33l-0.06,0.8l-0.55,2.16v1.92c0,0-0.77,0.01-0.82,0.14s0.15,0.66,0.14,0.82
	c-0.02,0.17-0.03,0.22-0.07,0.39s-0.13,0.28-0.19,0.45c-0.06,0.17-0.33,0.37-0.39,0.5c-0.06,0.13-0.55,0.73-0.55,0.73
	s-0.42,0.68-0.53,0.89s-0.29,0.94-0.34,1.11S5.44,46.4,5.44,46.4s-0.06,0.38-0.03,0.46s0.11,0.38,0.17,0.5
	c0.06,0.13,0.15,0.25,0.27,0.44s0.38,0.33,0.56,0.34s0.56,0.02,0.66-0.01s0.11,0,0.26-0.18s0.64-0.7,0.83-1s1.03-2.03,1.03-2.03
	l0.73-1.21l0.26-0.24l0.22-0.69v-0.52l0.2-0.61v-0.41l0.06-0.13l0.27-0.7l1.45-2.42l0.27-0.71l0.08-0.9l0.19-0.61l0-0.44l0.14,0.21
	l0.21,0.09l0.26,1.85l0.21,2.11c0,0-0.7,1.47-0.78,1.95c-0.08,0.48-0.29,1.76-0.31,2.16s-0.17,1.47-0.27,1.78
	c-0.1,0.31-0.41,1.1-0.41,1.1s-0.1,0.42-0.19,0.78c-0.09,0.36-0.23,0.6-0.26,0.76s-0.24,0.54-0.28,0.77s-0.03,0.59-0.02,0.7
	s-0.23,0.75-0.29,0.88c-0.06,0.13-0.13,0.44-0.09,0.61s0.38,0.45,0.38,0.45s-0.03,0.21,0.01,0.26c0.04,0.05,0.07,0.09,0.16,0.09
	s0.3-0.1,0.3-0.1l1.08,0.55c0,0,0.01,0.19,0.05,0.23c0.03,0.05,0.19,0.09,0.25,0.09c0.06,0,0.12-0.11,0.12-0.11l0.97,0.33
	c0,0,0,0.16,0.03,0.21s0.16,0.05,0.24,0.04c0.12-0.01,0.13-0.14,0.13-0.14L15,52.94c0,0-0.03,0.08,0.03,0.14
	c0.06,0.06,0.29,0.01,0.38-0.02c0.08-0.03,0.08-0.14,0.08-0.14s0.22,0,0.52-0.09c0.3-0.09,0.43-0.29,0.42-0.44s0.01-0.32-0.09-0.45
	s-0.48-0.31-0.59-0.45s-1.61-1.72-1.62-1.78s0.17-0.78,0.17-0.78s0.2-0.44,0.27-0.55s0.09-0.3,0-0.41
	c-0.09-0.11-0.27-0.03-0.27-0.03s0-0.14,0.13-0.44s0.4-0.94,0.68-1.5c0.24-0.48,1.07-1.62,1.24-1.94c0.16-0.32,0.48-1.17,0.55-1.59
	c0.07-0.43,0.08-0.66,0.12-0.98c0.04-0.32,0.05-0.84,0.05-0.97s0.05-0.5,0.05-0.5l0.53-1.92l0.09-1.34l-0.03-1.51
	c0,0,0.46,0.12,0.59,0.11c0.14-0.01,0.16-0.08,0.22-0.23c0.06-0.15,0-1.42,0-1.42l-0.02-1.34L18.47,31v-1.34l-0.07-1.55l-0.14-1.66
	c0,0-0.2-1.13-0.28-1.75c-0.08-0.62-0.17-1.18-0.33-1.62s-0.38-0.82-0.38-0.82l-0.16-0.61l-0.09-0.68l0.33-0.54l0.11-0.21l1.11-0.24
	c0,0,1.86-0.55,2.24-0.66s1.3-0.35,1.3-0.35l0.41-0.41l0.12-0.41l-0.12-0.72l-0.38-1.52l-0.3-0.98l0.1-0.1l-0.42-0.91l-0.83-1.51
	l-0.89-1.88l-0.44-0.78l-0.66-0.7l-0.43-0.25l-0.58-0.26l-1.34-0.3l-0.77-0.32l-0.1,0.01l0.1-0.29l0.03-0.31l0.41-0.42l0.3-0.38
	l0.33-0.47L17,5.62l0.03-0.41l0.12-0.78l0.38-0.25l-0.31-0.56l0.12-0.48l0.06-0.12L16.8,1.74l-0.41-0.44l-0.41-0.52L15.82,0.9
	l-0.23-0.27L14.8,0.49l-0.11-0.12l-0.83,0.16l-0.69,0.25L12.6,0.7l-0.14,0.16l-0.42,0.11l-0.5,0.56L11.19,2.1l-0.06,0.36l-0.22,0.08
	l0.19,0.59l-0.31,0.52l0.27,0.5l-0.03,0.47l0.34,0.75v0.44l0.16,0.42l0.33,0.25l0.2,0.78l-0.02,0.2L12,7.63l-0.11,0.13l-0.18,0.04
	c0,0-0.13,0.1-0.33,0.19C11.17,8.08,10.6,8.2,10.6,8.2s-0.56,0.1-0.89,0.16S7.97,8.67,7.97,8.67L6.99,8.98L5.7,9.46v0.13L5.35,9.75
	c0,0-0.95,0.45-1.27,0.66s-0.52,0.4-0.66,0.58s-0.4,0.68-0.53,0.92s-0.48,1.11-0.55,1.43s-0.23,1.42-0.28,1.75s-0.33,3.89-0.33,3.89
	s-0.22,0.31-0.39,0.48S0.93,19.88,0.8,20.1s-0.22,0.63-0.28,0.84s-0.07,0.6-0.05,0.86s0.19,0.8,0.19,0.8l0.15,0.31
	c0,0,0.2,0.21,0.26,0.25s0.12,0.08,0.23,0.07s0.22-0.19,0.22-0.19S1.59,23.17,1.71,23.21z"/>
<path id="skin-arm-l" class="st2" d="M5.98,11.81c-0.02-0.4-0.08-0.87-0.13-1.18s-0.1-0.54-0.1-0.54l-1.5,0.74
	c0,0-0.26,0.24-0.4,0.41s-0.46,0.65-0.46,0.65s-0.51,0.95-0.61,1.48s-0.33,1.91-0.38,2.58s-0.24,3.1-0.24,3.1l-0.2,0.43l-0.03,0.04
	c0,0-0.56,0.41-0.68,0.63s-0.32,0.76-0.32,0.76L0.83,21.3l0.02,0.63l0.09,0.5l0.16,0.3c0,0,0.01,0.04,0.12,0.07s0.11-0.11,0.11-0.11
	L1.26,22.2l0.03-0.36l0.02,0.08l0.19,0.55l0.11,0.19c0,0,0.06,0.08,0.14,0.11s0.08-0.13,0.08-0.13L1.76,21.6l0.15-0.4l0.16-0.28
	l0.24-0.26l0.12,0.17l0.02,0.18l-0.06,0.53l0.09,0.39c0,0,0.02,0.14,0.13,0.19s0.25-0.09,0.26-0.21s0.01-0.55,0.01-0.55l0.21-0.67
	l-0.01-0.75l1.29-5.43l0.51-1.24l0.16-0.12l0.98-0.37C6.02,12.79,6,12.2,5.98,11.81z"/>
<polygon class="st0" points="4.47,11.92 4.62,11.65 4.63,11.38 4.5,11.24 4.21,11.64 4.2,12.04 4.47,11.92 "/>
<path class="st3" d="M6.23,47.55c0.1,0.09,0.41,0.14,0.41,0.14h0.14L6.74,47.7l-0.1-0.01c0,0-0.14-0.16-0.14-0.27
	c0-0.15,0.06-0.28,0.19-0.34s0.34-0.03,0.41,0.03s-0.05,0.44-0.05,0.44s0.49-0.42,0.69-0.68c0.2-0.27,0.92-1.63,0.96-1.78
	s0-0.27,0-0.27s0.61-1.04,0.69-1.23s0.03-0.41,0-0.55s-0.13-0.24-0.27-0.27s-0.3-0.03-0.41,0s-0.27,0.14-0.27,0.14h0.14l0.14,0.14
	v0.41l-0.14,0.14H8.42l-0.27-0.14l-0.14,0.27l0.14-0.14h0.27l0.14,0.14v0.14c0,0,0.13,0,0.23,0.05s0.18,0.23,0.18,0.23v0.27H8.83
	c0,0-0.15,0.05-0.25,0c-0.11-0.06-0.17-0.22-0.19-0.19c-0.06,0.11-0.17,0.15-0.22,0.11c-0.06-0.05-0.17-0.2-0.17-0.2
	s-0.82,0.97-0.96,1.09s-0.41,0.27-0.41,0.27s-0.48,0.54-0.68,0.83C5.77,46.59,5.92,47.01,6,47.12S6.23,47.55,6.23,47.55
	S6.11,47.43,6.23,47.55z"/>
<path class="st0" d="M6.5,47c0,0,0.11-0.1,0.14-0.19s-0.06-0.2-0.14-0.22s-0.25,0.04-0.27,0.14c-0.02,0.1-0.07,0.19,0,0.27
	S6.5,47,6.5,47L6.5,47z"/>
<path id="player-jersey" class="st4" d="M6.66,13.77l0.87-0.09l0.56-0.02l0.27-0.96l0.22-0.03l0,0.3l-0.14,1.26l0.07,3.48
	l-0.04,1.64l-0.08,0.8l0.07,0.63l0.47-0.14l2.18-0.23l0.88-0.11l0.27-0.01c0,0,0.05-0.15,0.07-0.37s-0.04-1.77-0.03-2.21
	s0.24-1.76,0.29-2.1s0.23-0.83,0.23-0.83s0.14-1.42,0.21-1.25s0.11,1.44,0.09,1.78s-0.32,1.83-0.31,2.22s0.01,0.87,0.06,1.2
	s0.14,1.29,0.14,1.29l0.06,0.35l1.05,0.09l1.22,0.02l0.87,0.09l0.35-0.05l0.23-0.28c0,0,0.39-1.65,0.52-2.18s0.3-1.15,0.4-1.57
	s-0.08-0.94,0.01-1.13c0.09-0.18,0-0.18,0.17-0.4s0.26-0.25,0.27-0.15s0.09,0.2,0.07,0.36c-0.02,0.16-0.04,0.3-0.02,0.52
	s0.41,0.8,0.41,0.8l1.31-0.73l0.87-0.63l0.5-0.42c0,0-0.34-0.72-0.44-0.94s-0.54-1.08-0.7-1.36s-0.54-1.27-0.65-1.46
	s-0.27-0.58-0.45-0.79s-0.33-0.43-0.59-0.66s-0.68-0.4-0.9-0.51s-1.16-0.28-1.47-0.34s-0.67-0.17-0.67-0.17s-0.29,0.15-0.57,0.22
	s-0.49,0.12-0.84,0.12s-1.05-0.09-1.41-0.21s-0.65-0.3-0.65-0.3l-0.67,0.15c0,0-0.52,0.12-0.83,0.19c-0.32,0.07-0.87,0.11-0.87,0.11
	l-1.5,0.32L7.19,9.37L6.21,9.73c0,0,0.11,0.5,0.17,0.95c0.08,0.65,0.08,0.97,0.12,1.5C6.54,12.71,6.66,13.77,6.66,13.77z"/>
<polygon class="st3" points="7.05,44.18 7.32,43.99 7.19,43.85 6.99,43.83 6.72,44.15 6.6,44.48 6.86,44.41 "/>
<path class="st0" d="M6.91,46.18c-0.05,0.08,0.1-0.19,0-0.27c-0.1-0.08-0.2,0.06-0.27,0.14s-0.08,0.19,0,0.27
	C6.72,46.4,6.91,46.18,6.91,46.18S6.97,46.1,6.91,46.18z"/>
<path id="player-shorts" class="st3" d="M7.99,29.96c0.09,0.54,0.24,1.07,0.3,1.45c0.06,0.38,0.1,1.16,0.1,1.16s0.03,0.14,0.2,0.12
	s0.39-0.1,0.66-0.17s1.21-0.34,1.5-0.4c0.28-0.06,1.21-0.31,1.39-0.28s0.45,0.14,0.45,0.14l0.13-0.33l-0.17-1.41l-0.44-2.2
	c0,0-0.81-0.13-0.93-0.1s-0.23,0.08-0.34,0.11s-0.25-0.05-0.32-0.09s0.08-0.33,0.15-0.36s0.34-0.12,0.42-0.12s0.42,0.02,0.42,0.02
	s-0.35-0.42-0.38-0.53s-0.11-0.27-0.08-0.39s0.12-0.27,0.19-0.28c0.07-0.01,0.25,0.39,0.37,0.55s0.31,0.32,0.48,0.42
	s0.24,0.14,0.45,0.2c0.21,0.06,1.17-0.24,1.45-0.25s0.74,0.01,0.91,0.09s0.43,0.32,0.33,0.26s0.11,0.08,0.14,0.14
	s-0.03,0.13-0.21,0.14s-0.99-0.12-1.24-0.09s-0.54,0.14-0.63,0.16s-0.52,0.17-0.48,0.55s0.22,1.49,0.28,1.91s0.22,1.39,0.22,1.39
	L13,32.54l0.12,0.79l0.09,1.56l0.7,0.12l1.69-0.09l1.76-0.26l0.14-1.56h0.14l0.13,1.27l0.26,0.33L18,33.77L18,33.46
	c0,0-0.01-1.26,0.01-1.84c0.02-0.58,0-1.38-0.03-1.97c-0.04-0.59-0.13-1.87-0.16-2.56s-0.29-2.34-0.34-2.7s-0.18-0.84-0.26-1.12
	s-0.22-0.37-0.29-0.55s-0.21-0.43-0.26-0.59s0-0.3-0.02-0.56s-0.16-0.43-0.16-0.43s-0.37-0.04-0.74-0.06s-1.7-0.09-2.16-0.12
	s-1.25-0.14-1.59-0.09s-0.86,0.13-1.15,0.14s-1.79,0.22-1.99,0.28s-0.3,0.16-0.37,0.27s-0.1,0.19,0,0.22s2.6-0.27,2.6-0.27
	l0.72,0.07l0.27,0.27v0.14h-0.41L11.18,22L8.6,22.2l-0.41,0.03c0,0-0.25,0.09-0.38,0.38S7.5,23.2,7.46,23.6s-0.11,0.85-0.12,1.31
	c-0.01,0.46,0,0.91,0.01,1.25c0.01,0.34,0.02,0.58,0.1,1.02S7.9,29.42,7.99,29.96z"/>
<path class="st0" d="M7.49,45.38c0.02-0.09-0.01-0.25-0.16-0.16s-0.26,0.16-0.29,0.26s0.12,0.17,0.23,0.17S7.47,45.47,7.49,45.38z"
	/>
<path class="st0" d="M7.57,45.84c0.03,0.08,0.06,0.16,0.2,0.19s0.27-0.14,0.27-0.14s0.05-0.29-0.02-0.35s-0.21-0.06-0.33,0.02
	S7.55,45.8,7.57,45.84z"/>
<path class="st0" d="M7.46,46.73c0,0,0.09-0.16,0.13-0.23s-0.06-0.27-0.17-0.23S7.2,46.37,7.2,46.37s-0.11,0.28-0.01,0.36
	C7.29,46.81,7.46,46.73,7.46,46.73z"/>
<polygon id="player-sock-l" class="st4" points="10.06,40.29 10.3,40.65 10.67,39.76 11.24,38.84 11.84,37.83 11.97,37.2 
	11.29,36.6 10.47,35.91 10.47,35.78 10.75,35.64 12.16,36.13 12.33,35.75 12.33,35.36 11.43,34.41 10.34,34.27 9.64,34.5 9.43,34.9 
	9.32,35.46 9.38,35.64 9.79,35.5 9.79,36.05 9.41,36.43 8.82,38.7 8.72,39.57 8.74,40.29 10.06,40.29 "/>
<path class="st0" d="M9,43.76c0,0,0.24-0.1,0.26-0.21s-0.05-0.2-0.19-0.2s-0.28,0.12-0.27,0.23S9,43.76,9,43.76L9,43.76z"/>
<path id="skin-leg-l" class="st2" d="M9.91,32.82l0.23,0.25l0.07,0.2l-0.13,0.44L10,33.89l0.42-0.12l1.18,0.13l0.56,0.47l0.41,0.47
	l0.14-0.23l-0.05-1.01l-0.16-1.09c0,0-0.22-0.18-0.43-0.18C11.88,32.32,9.91,32.82,9.91,32.82z"/>
<path id="player-sock-r" class="st4" d="M13.26,48.32l0.14,0.27l0.21,0.12c0,0,0.61-1.83,0.82-2.24s1.24-2.35,1.24-2.35l0.41-0.82
	v-0.96l-0.82-0.82l-0.55-0.27h-0.14v-0.14l0.41-0.14l1.23,0.41h0.14c0,0,0.24-1.29,0.08-1.46c-0.13-0.13-0.69-0.44-1-0.46
	s-0.88,0-0.96,0.12c-0.08,0.12-0.45,1.11-0.45,1.11l-0.41,1.09l-0.41,2.74l-0.27,1.23l-0.71,1.96l0.71-0.46l0.41,0.82L13.26,48.32z"
	/>
<path id="skin-leg-r" class="st2" d="M15.43,35.58c-0.49,0.04-1.46,0.03-1.46,0.03s0.13,1.27,0.19,1.69s0.14,1.65,0.2,1.71
	s0.94-0.07,1.19-0.04c0.33,0.04,1.12,0.46,1.12,0.46s0.27-0.92,0.34-1.21c0.08-0.29,0.12-0.71,0.11-0.94
	c-0.01-0.23,0.05-0.46,0.04-0.78s-0.02-1.2-0.02-1.2S15.92,35.55,15.43,35.58z"/>
<polygon class="st3" points="14.03,51.51 14.3,51.1 13.62,51.1 14.03,51.51 "/>
<polygon id="skin-arm-r" class="st1" points="20.67,18.86 21.84,18.53 22.13,18.22 22.1,17.73 21.74,16.13 21.38,15.26 20.92,15.62 
	20.17,16.17 19.55,16.52 20.14,17.4 20.33,17.9 20.3,18.01 20.04,18.3 19.24,17.46 18.13,18.02 17.82,18.56 17.65,18.96 
	17.46,19.66 18.3,19.56 "/>
<polygon id="skin-neck" class="st2" points="12.33,7.96 12.33,7.89 12.49,7.61 12.79,7.82 13.08,7.86 13.56,7.93 13.71,8.19 
	13.94,7.97 14.09,7.92 14.51,7.82 14.77,7.8 15.14,7.72 15.13,8.12 14.72,8.29 13.99,8.38 12.85,8.21 "/>
<polygon class="st0" points="11.25,33.04 11.66,32.94 11.89,33.04 11.96,33.44 11.75,33.25 11.41,33.22 10.99,33.15 "/>
<polygon class="st0" points="15.24,37.48 15.44,37.29 16.07,37.37 16.25,37.75 15.82,37.58 15.46,37.61 15.03,37.68 "/>
<polygon class="st0" points="10.7,10.73 11.24,10.37 11.26,10.04 10.27,10.32 10.13,10.57 10.7,10.73 "/>
<polygon class="st0" points="16.23,11.05 16.83,11.44 17.11,11.53 17.25,11.57 16.44,10.36 15.61,10.1 15.66,10.42 16.23,11.05 "/>
<polygon id="hair" class="st0" points="16.88,3.56 17,3.09 17.03,3 16.63,2.09 16.3,1.69 15.89,1.2 15.74,1.29 15.34,1.01 
	14.66,0.88 14.57,0.77 13.85,0.91 13.25,1.13 12.75,1.06 12.62,1.2 12.26,1.3 11.82,1.8 11.52,2.31 11.47,2.63 11.28,2.69 
	11.44,3.22 11.17,3.68 11.4,4.12 11.38,4.54 11.67,5.2 11.67,5.59 11.81,5.96 12.09,6.18 12.27,6.77 12.36,7.13 12.8,7.34 
	13.1,7.39 13.6,7.48 13.76,7.64 13.99,7.48 14.14,7.43 14.59,7.38 14.85,7.36 15.27,7.29 15.39,7.08 15.79,6.7 16.08,6.31 
	16.33,5.95 16.64,5.48 16.67,5.05 16.81,4.22 17.12,4.05 "/>
</svg>
