<?xml version="1.0" encoding="utf-8"?>
<!-- Generator: Adobe Illustrator 16.0.4, SVG Export Plug-In . SVG Version: 6.00 Build 0)  -->
<!DOCTYPE svg PUBLIC "-//W3C//DTD SVG 1.1//EN" "http://www.w3.org/Graphics/SVG/1.1/DTD/svg11.dtd" [
	<!ENTITY ns_flows "http://ns.adobe.com/Flows/1.0/">
	<!ENTITY ns_extend "http://ns.adobe.com/Extensibility/1.0/">
	<!ENTITY ns_ai "http://ns.adobe.com/AdobeIllustrator/10.0/">
	<!ENTITY ns_graphs "http://ns.adobe.com/Graphs/1.0/">
]>
<svg version="1.1" id="Ebene_1" xmlns:x="&ns_extend;" xmlns:i="&ns_ai;" xmlns:graph="&ns_graphs;"
	 xmlns="http://www.w3.org/2000/svg" xmlns:xlink="http://www.w3.org/1999/xlink" xmlns:a="http://ns.adobe.com/AdobeSVGViewerExtensions/3.0/"
	 x="0px" y="0px" width="24.5px" height="50.5px" viewBox="0 0 24.5 50.5" style="enable-background:new 0 0 24.5 50.5;"
	 xml:space="preserve">
<style type="text/css">
<![CDATA[
	.st0{fill-rule:evenodd;clip-rule:evenodd;fill:#1A1A18;}
	.st1{fill:#FBCDAA;}
	.st2{fill-rule:evenodd;clip-rule:evenodd;fill:#FBCDAA;}
	.st3{fill:#0068B4;}
	.st4{fill-rule:evenodd;clip-rule:evenodd;fill:#FFFFFF;}
	.st5{fill-rule:evenodd;clip-rule:evenodd;fill:#0068B4;}
]]>
</style>
<path class="st0" d="M23.77,16.51c0,0,0-0.37-0.02-0.45c-0.03-0.07-0.13-0.27-0.13-0.27s-0.06-0.12-0.18-0.16
	c-0.11-0.04-0.32-0.02-0.32-0.02s-0.19-0.13-0.3-0.11c-0.12,0.02-0.22,0.05-0.22,0.05l-0.17,0.08c0,0-0.17-0.08-0.27-0.05
	c-0.1,0.03-0.33,0.19-0.33,0.19s-0.2,0.36-0.25,0.49c-0.04,0.14-0.15,0.48-0.15,0.48s-0.33-0.03-0.49,0.17
	c-0.06,0.07-0.3,0.47-0.3,0.47s-0.04-0.17-0.18-0.72c-0.13-0.55-0.37-1.27-0.54-2c-0.15-0.64-0.38-1.89-0.59-2.8
	c-0.09-0.41-0.27-0.72-0.38-0.98s-0.18-0.31-0.37-0.58c-0.18-0.27-1.17-1.1-1.17-1.1s0.42-0.61,0.5-0.64
	c0.03-0.02,0.38,0.04,0.54,0.02c0.16-0.02,0.48-0.22,0.57-0.31c0.09-0.08,0.24-1.24,0.32-1.37c0.08-0.14,0.44-0.84,0.46-1.04
	c0.01-0.2-0.09-0.58-0.08-0.67c0-0.09,0.13-0.34,0.16-0.47s0.17-0.45,0.2-0.7c0.02-0.16,0.07-0.53,0.1-0.77
	c0.02-0.13,0.24-0.14,0.2-0.25l-0.11-0.82l-0.52-0.48l-0.15-0.44l-0.81-0.1l-0.08-0.33l-0.94-0.44l-0.81-0.1l-1.69,0.33L15.02,0.9
	l-0.33-0.08l-0.75,0.83l-0.81,1.08l-0.15,0.25l0.17,0.12l0.1,0.4l-0.31,0.56l0.35,0.4l-0.02,0.62l0.12,0.62l0.23,0.62l-0.19,0.34
	l0.22,0.12l0.43,0.7l-0.43,0.25c0,0-0.38,0.05-0.58,0.07c-0.19,0.02-0.45,0.02-0.77,0.07c-0.31,0.05-1.03,0.27-1.53,0.4
	s-1.95,0.56-2.4,0.73C7.93,9.2,6.97,9.57,6.75,9.67S6.43,9.89,6.43,9.89l-0.02,0.22l-0.53,0.35c0,0-0.61,0.42-0.86,0.65
	s-0.68,0.65-0.74,0.88s-0.09,0.56-0.1,0.93s0.06,0.9,0.21,1.48s0.63,1.75,0.86,2.32s0.91,2.06,0.91,2.06l-0.29,1.78l-0.29,1.6
	c0,0,0.08,0.18,0.04,0.28c-0.03,0.1-0.33,0.46-0.36,0.62s0.14,0.53,0.14,0.53s-0.11,0-0.19,0.16c-0.08,0.16-0.2,1.09-0.24,1.32
	s-0.09,0.83-0.08,1.14s0.18,0.96,0.27,1.22c0.09,0.26,0.28,0.71,0.52,1.16c0.23,0.46,0.71,1.19,0.86,1.48
	c0.22,0.43,0.61,0.98,0.81,1.41c0.2,0.43,0.72,1.43,0.81,1.66c0.2,0.49,0.66,1.82,0.72,2.11c0.06,0.29,0.14,1.12,0.22,1.25
	c0.08,0.13,0.14,0.11,0.25,0.17c0.11,0.07,0.77-0.12,0.77-0.12l0.19-0.04l-0.69,0.84c0,0-0.11-0.07-0.25,0.01
	c-0.13,0.08-0.48,0.24-0.68,0.39c-0.21,0.16-0.62,0.64-0.68,0.79c-0.06,0.15-0.07,0.34-0.07,0.34S7.63,39.04,7.5,39.2
	c-0.13,0.16-0.94,1.29-0.94,1.29l-1.4,1.55l-1.3,1.5l-0.74,0.72l-0.66,0.49l-0.15,0.21c0,0-0.63,0.35-0.93,0.56
	c-0.3,0.21-0.44,0.38-0.59,0.56s-0.33,0.63-0.33,0.78c0.01,0.15,0.11,0.21,0.11,0.21l-0.01,0.36c0,0-0.04,0.28-0.03,0.33
	s0.03,0.09,0.15,0.11c0.12,0.02,0.25-0.04,0.25-0.04l0.21,0.15c0,0-0.07,0.16-0.04,0.23c0.03,0.07,0.11,0.15,0.22,0.15
	s0.25-0.08,0.25-0.08l1.09,0.49l1,0.53l0.89,0.37c0,0,0.01,0.2,0.08,0.25s0.29,0.11,0.38,0.1c0.09-0.01,0.1-0.15,0.1-0.15l0.19,0.01
	c0,0,0.06,0.23,0.09,0.25s0.31,0.11,0.39,0.09c0.08-0.02,0.09-0.13,0.09-0.13l0.21,0.06l0.36-0.12c0,0,0.43,0.01,0.68-0.01
	s0.38-0.02,0.55-0.11s0.32-0.33,0.21-0.63c-0.1-0.3-0.9-0.85-1.19-1.09c-0.29-0.24-0.87-0.9-0.94-1.04
	c-0.07-0.14-0.14-0.61-0.14-0.61l-0.09-0.21c0,0,0.45-0.58,0.69-0.8c0.24-0.22,0.58-0.61,0.86-0.84s2.91-2.43,3.05-2.57
	c0.14-0.15,0.25-0.28,0.31-0.34c0.06-0.06,0.2-0.24,0.31-0.3c0.11-0.06,0.41-0.14,0.59-0.3c0.19-0.15,0.51-0.61,0.72-0.92
	c0.16-0.24,0.22-0.61,0.22-0.61l1.26-1.07l0.43-0.35c0,0,0.08,0.24,0.06,0.42s-0.2,1.28-0.3,1.78s-0.38,1.85-0.38,1.85
	s-0.12-0.11-0.24,0.1s-0.44,1.12-0.44,1.12s-0.32,0.54-0.37,0.68c-0.06,0.14-0.04,0.48-0.03,0.61c0.02,0.13,0.04,0.23,0.06,0.34
	c0.03,0.11,0.06,0.15,0.13,0.23c0.07,0.09,0.2,0.24,0.3,0.31c0.1,0.07,0.2,0.02,0.2,0.02s0.02,0.25,0.08,0.28s0.22,0.03,0.33,0.03
	s0.13-0.14,0.13-0.14l0.45-0.09l1.12,0.12l1.06,0.08l0.75,0.12c0,0-0.03,0.21,0.06,0.23c0.09,0.03,0.34,0.07,0.39,0.02
	c0.05-0.05,0.06-0.22,0.06-0.22l0.31-0.02c0,0-0.01,0.17,0.06,0.19s0.31,0.04,0.39,0s0.06-0.2,0.06-0.2L19.37,46
	c0,0,0.34-0.1,0.45-0.22c0.12-0.12,0.1-0.44,0.05-0.61c-0.06-0.16-0.22-0.29-0.39-0.41c-0.17-0.12-1.62-0.81-1.62-0.81l-0.92-0.51
	c0,0-0.04-0.32-0.17-0.43c-0.13-0.1-0.34-0.17-0.34-0.17s0.08-0.12-0.03-0.29s-0.21-0.23-0.21-0.23l0.75-2.19l0.72-2.22
	c0,0,0.44-1.46,0.52-1.84c0.14-0.67-0.02-0.74,0.02-0.86c0.02-0.05,0.12-0.05,0.3-0.39c0.1-0.2,0.12-0.41,0.12-0.69
	c-0.03-0.28-0.09-0.48-0.09-0.58c0-0.09,0.33-1.31,0.4-1.67c0.05-0.24,0.14-0.8,0.16-0.98c0.01-0.18,0.02-0.42-0.14-0.76
	c-0.16-0.34-0.96-1.4-0.96-1.4s0.12-0.18,0.12-0.3c0-0.12-1.27-1.32-1.66-1.67c-0.39-0.36-1.31-1.18-1.59-1.45s-1.13-1.07-1.27-1.22
	s-0.19-0.28-0.19-0.28v-0.22l0.15-0.63l0.83-1.58l0.94-1.8l0.9-1.53l0.15,0.35l0.4,1.3l0.64-0.06c0,0,0.49,1.02,0.71,1.41
	s0.71,1.33,0.86,1.5s0.51,0.34,0.73,0.38s0.54-0.03,0.83-0.12c0.29-0.09,0.7-0.56,0.93-0.88s0.58-0.89,0.75-1.22
	s0.56-0.87,0.56-0.87s0.5-0.35,0.54-0.39c0.04-0.04,0.14-0.12,0.18-0.19c0.04-0.07,0.34-0.82,0.4-1.07s0.11-0.85,0.11-1.05
	s-0.17-0.47-0.17-0.47L23.77,16.51z M7.25,14.51l-0.12-0.73l0.41-0.11L7.25,14.51z"/>
<path id="skin-face" class="st2" d="M17.78,5.3c0.1-0.09,0.56-0.14,0.65-0.18c0.09-0.05,0.22-0.2,0.22-0.3
	c0.01-0.09,0.02-0.33,0.09-0.41s0.09-0.14,0.19-0.22S19.17,4,19.27,3.94s0.17-0.22,0.22-0.22s0.19,0.01,0.25,0.09
	s0.05,0.14,0.05,0.21S19.65,4.3,19.65,4.3s-0.1,0.34-0.14,0.49c-0.05,0.16-0.13,0.25-0.12,0.39c0.01,0.14,0.06,0.45,0.06,0.55
	c0.01,0.1,0.01,0.2-0.01,0.33c-0.03,0.13-0.39,0.62-0.42,0.74c-0.03,0.12-0.18,0.79-0.19,0.91c-0.01,0.12,0,0.26-0.06,0.35
	s-0.12,0.08-0.23,0.14s-0.51,0.03-0.51,0.03l-0.43-0.35l-0.06,0.5l-0.5,0.58c0,0-0.64-0.13-0.96-0.24
	c-0.32-0.11-0.98-0.39-1.22-0.53c-0.24-0.14-0.5-0.35-0.5-0.35s0.1-0.15,0.17-0.2c0.07-0.05,0.18-0.07,0.18-0.07l0.12,0.25
	c0,0,0.2-0.16,0.28-0.16s0.67,0.25,0.75,0.28s0.3-0.07,0.41-0.09s1.05-1.05,1.16-1.19S17.68,5.39,17.78,5.3z"/>
<polygon class="st4" points="15.15,45.29 15.43,44.89 16,44.91 15.75,45.42 15.15,45.29 "/>
<polygon class="st4" points="13.48,43.23 13.44,43 13.74,42.72 13.85,42.71 13.81,43.17 13.48,43.23 "/>
<polygon class="st4" points="12.92,45.01 12.55,44.84 12.49,44.5 13.27,45.06 13.29,45.17 12.92,45.01 "/>
<path id="player-sock-l" class="st5" d="M14.04,42.01l-0.1-0.05l0.35-1.91c0,0,0.23-1.26,0.24-1.56c0.01-0.3-0.15-0.7-0.15-0.7
	l0.49-0.92l0.18-0.36l0.06-0.28l0.12-0.77l0.49-0.18l0.19-0.48l0.33-0.08l0.06-0.09l-0.54-0.2l-0.17-1.02L15.5,33.1
	c0,0,0.72,0,1.17,0.13s1.29,0.51,1.38,0.66s0.13,0.3,0.08,0.48s-0.02,0.2-0.11,0.33c-0.08,0.14-0.47,0.04-0.5,0.13
	c-0.03,0.08,0,0.17,0.08,0.29c0.09,0.12,0.13,0.15,0.2,0.3s-0.02,0.45-0.08,0.75s-0.65,2.16-0.65,2.16l-1,2.97l-0.19,0.71
	l-0.31,0.82l-0.5,0.22l-0.25-0.47l-0.53-0.09L14.04,42.01z"/>
<path id="skin-leg-l" class="st2" d="M16.57,32.78c-0.19-0.03-1.04-0.12-1.04-0.12s-0.05-0.62-0.03-0.49
	c0.02,0.13-0.06-0.51-0.04-0.38c0.01,0.13-0.11-0.3-0.11-0.3l0.84-0.85l0.94-0.89l0.61-0.57c0,0,0.26,0.25,0.41,0.49
	c0.15,0.24,0.37,0.54,0.43,0.75c0.05,0.21,0.07,0.35,0.06,0.59c-0.01,0.24-0.08,0.48-0.12,0.75c-0.04,0.27-0.46,1.57-0.46,1.57
	s-0.86-0.36-1.02-0.42S16.75,32.81,16.57,32.78z"/>
<polygon class="st0" points="15.86,32.15 15.91,31.8 15.93,31.69 16.4,31.49 16.27,31.84 16.17,32.3 15.86,32.15 "/>
<path id="skin-leg-r" class="st2" d="M12.19,39.05l-0.46-0.37l-0.83-0.68l-0.77-0.51c0,0,0.36-0.47,0.47-0.62
	c0.11-0.15,0.19-0.27,0.24-0.28c0.04-0.01,0.46,0.19,0.61,0.21c0.15,0.02,0.42-0.11,0.38-0.18c-0.04-0.07-0.57-0.48-0.57-0.48
	l0.14-0.08l0.05-0.45h0.05c0,0,0.16,0.44,0.28,0.52c0.12,0.08,0.86-0.05,1.37-0.19c0.69-0.19,1.52-0.38,1.52-0.38
	s-0.06,0.48-0.11,0.71c-0.04,0.23-0.15,0.36-0.26,0.57c-0.11,0.21-0.48,0.79-0.71,1.04C13.36,38.13,12.19,39.05,12.19,39.05z"/>
<polygon class="st0" points="13.3,37.36 13.2,37.22 13.22,37.11 13.37,36.89 13.71,36.95 13.68,37.18 13.3,37.36 "/>
<path id="player-sock-r" class="st5" d="M10.54,40.93c-0.16-0.06-0.81-1.03-0.9-0.99c-0.09,0.04-0.13,0.1-0.13,0.1
	s-0.08,0.08-0.04,0.23c0.05,0.15,0.7,0.86,0.67,1.04c-0.03,0.18-0.21,0.41-0.32,0.51s-2.74,2.32-2.74,2.32l-0.62,0.49l-0.9,0.89
	l-0.45,0.45l-0.52-0.23l-0.87,0.38l-0.31-0.23l0.15-0.78l-0.13-0.48l0.7-0.67l1.05-1.15c0,0,1.72-1.92,1.85-2.06
	c0.14-0.14,0.47-0.72,0.6-0.85c0.13-0.13,0.28-0.36,0.42-0.41c0.14-0.05,0.75,0.17,0.81,0.12c0.06-0.05,0.08-0.15,0.04-0.23
	c-0.05-0.08-0.43-0.48-0.44-0.6c0-0.12,0.18-0.33,0.37-0.5s0.33-0.28,0.53-0.36s0.32-0.13,0.43-0.06c0.11,0.06,0.82,0.61,0.82,0.61
	s0.61,0.46,0.76,0.58c0.15,0.12,0.42,0.29,0.4,0.43s-0.08,0.38-0.17,0.56c-0.1,0.18-0.45,0.67-0.62,0.75
	C10.8,40.84,10.7,40.99,10.54,40.93z"/>
<polygon class="st4" points="3.23,48.29 3.63,47.99 4.19,48.2 3.77,48.61 3.23,48.29 "/>
<polygon class="st4" points="2.32,45.67 2.35,45.44 2.74,45.26 2.85,45.28 2.67,45.73 2.32,45.67 "/>
<polygon class="st4" points="1.24,47.4 0.92,47.12 0.98,46.77 1.56,47.57 1.55,47.68 1.24,47.4 "/>
<path id="skin-arm-l" class="st1" d="M6.72,13.25c0.1-0.06,0.04,0.02,0.15,0.09c0.11,0.07,0.63-0.18,0.63-0.18s-0.1-0.67-0.2-1.1
	c-0.1-0.43-0.17-0.69-0.28-0.95c-0.11-0.26-0.33-0.62-0.33-0.62s-1.27,0.86-1.37,0.92S5.2,11.56,5.2,11.56s0.14,0.05,0.13,0.13
	s0.02,0.16,0.01,0.28s-0.09,0.2-0.13,0.29s-0.18,0.18-0.28,0.15s-0.02-0.47-0.02-0.47s-0.19,0.17-0.24,0.31s-0.04,0.48-0.05,0.76
	s0.03,0.64,0.08,0.86s0.15,0.52,0.27,0.9s1.32,3.21,1.32,3.21l0.71-2.49L6.68,13.6C6.68,13.6,6.63,13.31,6.72,13.25z"/>
<path id="player-jersey" class="st3" d="M20.33,17.65l-0.3-1.15c0,0-0.46-1.48-0.51-1.85c-0.05-0.37-0.45-2.25-0.53-2.59
	c-0.08-0.34-0.33-0.92-0.44-1.15c-0.06-0.13-0.2-0.32-0.33-0.47c-0.13-0.15-1.02-0.99-1.16-1.04c-0.14-0.05-0.81-0.21-1.14-0.33
	c-0.33-0.12-1.05-0.39-1.34-0.57c-0.29-0.18-0.55-0.41-0.55-0.41l-0.25,0.11L13.4,8.21c0,0-0.29,0-0.47,0
	c-0.2,0-0.68,0.04-1.19,0.18c-0.51,0.14-2.26,0.7-2.75,0.85C8.85,9.29,8.11,9.59,7.82,9.71C7.59,9.81,7.18,10,7.18,10l-0.14,0.1
	c0,0,0.29,0.5,0.4,0.76c0.11,0.26,0.31,0.85,0.36,1.12c0.05,0.27,0.15,0.85,0.15,0.85l0.05,0.02c0,0,0.33-0.63,0.52-0.89
	c0.18-0.26,0.39-0.53,0.54-0.69c0.15-0.15,0.46-0.48,0.6-0.56c0.13-0.08,0.39-0.23,0.39-0.23s-0.74,1.13-0.96,1.47
	c-0.15,0.24-0.56,0.85-0.7,1.17c-0.14,0.32-0.38,0.89-0.38,0.89s-0.34,0.95-0.47,1.37c-0.13,0.42-0.61,1.9-0.72,2.5
	c-0.11,0.6-0.49,2.6-0.57,3c-0.08,0.4-0.15,1.05-0.15,1.05s0.14,0.12,0.32,0.27c0.18,0.15,0.23,0.22,0.55,0.3
	c0.32,0.08,1.23,0.18,1.75,0.27c0.52,0.09,0.67,0.15,1.16,0.24c0.49,0.09,1.09,0.13,1.49,0.18c0.39,0.05,0.68,0.04,0.94,0.02
	c0.47-0.02,0.69-0.07,0.69-0.07l0.18-0.42c0,0,0.33-0.58,0.31-0.66c-0.02-0.07-0.86,0.03-1.19,0c-0.33-0.03-0.85-0.19-0.95-0.3
	c-0.1-0.11,0.8-0.14,1.26-0.11c0.46,0.02,1.06-0.03,1.15-0.15c0.09-0.12,0.3-0.45,0.3-0.45l1.08-2.14l0.99-1.71
	c0,0,0.12-0.05,0.22,0.01c0.1,0.05,0.18,0.22,0.18,0.22s0.2,0.6,0.26,0.85s0.28,0.98,0.28,0.98l1.41-0.17l1.32-0.29l0.65-0.21
	l0.15-0.04L20.33,17.65z"/>
<path class="st0" d="M15.26,17.63c0.1-0.03,0.74-1.01,0.74-1.13c0-0.12-0.13-0.26-0.17-0.49c-0.05-0.23-0.28-1.85-0.38-1.97
	c-0.1-0.12-0.16-0.01-0.16-0.01s0.2,1.28,0.16,1.55s-0.36,1.67-0.33,1.81S15.16,17.66,15.26,17.63z"/>
<path id="player-shorts-r" class="st4" d="M7.36,30.59c0.14,0.26,0.36,0.7,0.45,0.89s0.5,0.88,0.71,1.34
	c0.2,0.46,0.72,2.01,0.81,2.34c0.09,0.33,0.08,0.78,0.16,0.88c0.08,0.1,0.02,0.06,0.14,0.09c0.12,0.04,1.25-0.19,1.34-0.24
	c0.09-0.04,0.18-0.94,0.21-1.01c0.03-0.07,0.17-0.1,0.25-0.05c0.07,0.05,0.49,0.81,0.55,0.88c0.06,0.07,0.61-0.08,0.84-0.11
	c0.23-0.03,1.25-0.33,1.47-0.38c0.21-0.04,0.77-0.24,0.88-0.28c0.12-0.04,0.14-0.17,0.04-0.79c-0.12-0.72-0.75-3.37-0.86-3.78
	c-0.11-0.41-0.38-1.32-0.55-2.04s-0.49-1.85-0.49-1.85s-0.19-0.67-0.28-0.92c-0.1-0.25-0.11-0.45-0.38-0.54
	c-0.27-0.09-0.98-0.19-1.25-0.2c-0.27-0.02-0.75-0.07-0.81-0.13c-0.05-0.06,0.06-0.29,0.21-0.32c0.15-0.04,0.72-0.08,0.94-0.05
	c0.22,0.03,0.96,0.08,1.06,0c0.1-0.08,0.15-0.46,0.08-0.52c-0.08-0.06-0.22-0.04-0.48-0.02c-0.26,0.01-0.91-0.07-1.24-0.1
	c-0.33-0.03-0.89-0.08-1.27-0.16c-0.18-0.04-0.69-0.16-1.06-0.21C8.46,23.26,6.81,23.07,6.56,23c-0.25-0.08-0.51-0.34-0.59-0.24
	s-0.26,0.31-0.28,0.41c-0.02,0.1,0.03,0.18,0.1,0.24s0.42,0.21,0.57,0.25s0.32,0,0.33,0.1c0.01,0.1-0.16,0.35-0.33,0.33
	c-0.17-0.01-0.45,0.01-0.55,0.05s-0.18-0.07-0.22,0.07s-0.14,0.81-0.17,1.04s-0.1,0.58-0.08,0.89c0.02,0.31,0.11,0.81,0.21,1.12
	c0.09,0.3,0.38,0.8,0.55,0.99c0.17,0.19,0.88,0.33,1.17,0.47c0.29,0.14,1.36,0.88,1.38,0.96c0.02,0.07-0.4,0.04-0.67-0.04
	c-0.27-0.08-0.68-0.37-0.93-0.48c-0.25-0.1-0.56-0.21-0.55-0.15c0.01,0.06,0.24,0.51,0.38,0.76C7.03,30.04,7.22,30.33,7.36,30.59z"
	/>
<path id="player-shorts-l" class="st4" d="M13.74,26.35c0.16,0.56,0.5,1.91,0.63,2.36c0.19,0.66,0.64,2.42,0.64,2.42
	s0.43-0.38,0.63-0.58c0.2-0.2,1.03-1,1.19-1.16c0.16-0.16,0.57-0.59,0.64-0.66c0.07-0.07,0.12-0.17,0.12-0.21
	c0.01-0.04-0.21-0.19-0.36-0.32c-0.15-0.14-1.72-1.63-2.02-1.92c-0.29-0.29-1.71-1.52-1.78-1.57c-0.07-0.05-0.15,0-0.12,0.12
	C13.35,24.93,13.58,25.79,13.74,26.35z"/>
<path id="skin-arm-r" class="st2" d="M19.32,22.33c0.12,0.14,0.35,0.19,0.49,0.22c0.15,0.03,0.46,0.04,0.67-0.09
	c0.21-0.13,0.5-0.37,0.75-0.7c0.25-0.33,0.66-1.16,0.81-1.38c0.15-0.23,0.46-0.74,0.46-0.74l0.33-0.22c0,0,0.16-0.1,0.29-0.22
	c0.13-0.11,0.32-0.57,0.42-1.02c0.1-0.45,0.14-1.07,0.14-1c-0.01,0.07,0-0.22-0.06-0.2c-0.06,0.02-0.1,0.29-0.14,0.38
	c-0.04,0.09-0.11,0.3-0.16,0.3c-0.05,0-0.08-0.05-0.09-0.09c-0.02-0.05,0.23-1.34,0.25-1.44c0.02-0.1-0.12-0.21-0.18-0.14
	c-0.06,0.07-0.46,1.43-0.49,1.44c-0.03,0.02-0.08,0.07-0.11-0.01c-0.03-0.08,0.25-1.47,0.21-1.56c-0.04-0.09-0.17-0.09-0.21-0.01
	c-0.04,0.08-0.42,1.44-0.46,1.51c-0.04,0.07-0.11,0.09-0.14,0.08c-0.03-0.01,0.32-1.37,0.25-1.46c-0.07-0.09-0.19-0.02-0.25,0.07
	c-0.06,0.09-0.37,1.39-0.39,1.51c-0.01,0.12-0.11,0.29-0.11,0.29s-0.12-0.06-0.16-0.12c-0.04-0.06,0.09-0.51,0.05-0.56
	c-0.04-0.06-0.21-0.02-0.28,0.05c-0.07,0.07-0.22,0.37-0.21,0.49c0.01,0.12,0.06,0.43,0.15,0.63c0.09,0.2,0.25,0.44,0.25,0.44
	s-0.05,0.21-0.1,0.29c-0.05,0.08-0.32,0.4-0.32,0.4s0.17,0.44,0.2,0.6s-0.05,0.26-0.05,0.26l-0.46-1.3l-0.1-0.06l-0.67,0.22
	l-1.22,0.26l-0.76,0.12c0,0,0.4,0.92,0.55,1.24C18.58,21.13,19.2,22.19,19.32,22.33z"/>
<path id="hair" class="st0" d="M13.65,4.24L13.6,4.93l0.11,0.62l0.31,0.74l-0.17,0.28l0.2,0.1l0.22,0.37l0.14,0.2
	c0.06,0.01,0.39-0.1,0.39-0.1l0.15,0.23c0,0,0.21-0.09,0.29-0.09c0.08,0,0.54,0.17,0.63,0.2c0.09,0.04,0.35-0.11,0.46-0.16
	c0.15-0.08,0.77-0.83,0.89-0.98C17.33,6.19,17.42,5.1,17.53,5c0.11-0.09,0.64-0.15,0.74-0.2c0.1-0.05,0.13-0.29,0.14-0.39
	c0.01-0.1,0.08-0.23,0.15-0.31c0.07-0.08,0.1-0.15,0.2-0.24c0.1-0.08,0.24-0.12,0.34-0.18c0.1-0.06,0.26-0.26,0.31-0.26
	c0.05,0,0.26,0.02,0.39,0.07c0.06,0.03,0.08-0.15,0.08-0.32c0-0.14,0.2-0.19,0.25-0.25c0.05-0.06-0.09-0.62-0.09-0.62l-0.47-0.41
	l-0.13-0.37l-0.84-0.1l-0.09-0.31l-0.79-0.4l-0.73-0.09l-1.51,0.27l-0.34,0.33l-0.3-0.07l-0.65,0.71l-0.68,0.83l-0.13,0.21l0.15,0.1
	l0.07,0.46l-0.28,0.47L13.65,4.24z"/>
</svg>
