<?xml version="1.0" encoding="utf-8"?>
<!-- Generator: Adobe Illustrator 16.0.4, SVG Export Plug-In . SVG Version: 6.00 Build 0)  -->
<!DOCTYPE svg PUBLIC "-//W3C//DTD SVG 1.1//EN" "http://www.w3.org/Graphics/SVG/1.1/DTD/svg11.dtd">
<svg version="1.1" id="Ebene_1" xmlns="http://www.w3.org/2000/svg" xmlns:xlink="http://www.w3.org/1999/xlink" x="0px" y="0px"
	 width="21.68px" height="48.868px" viewBox="0 0 21.68 48.868" enable-background="new 0 0 21.68 48.868" xml:space="preserve">
<path fill-rule="evenodd" clip-rule="evenodd" fill="#1A1A18" d="M0.573,16.27c0.002,0.184,0.047,0.749,0.097,0.984
	c0.049,0.236,0.192,0.742,0.271,0.898c0.035,0.066,0.172,0.297,0.281,0.375s0.453,0.344,0.453,0.344s0.309,0.442,0.46,0.751
	c0.15,0.309,0.365,0.794,0.571,1.093c0.207,0.298,0.543,0.771,0.797,0.859c0.255,0.088,0.551,0.208,0.75,0.172
	c0.201-0.036,0.576-0.136,0.703-0.297c0.129-0.162,0.573-1.032,0.766-1.406c0.193-0.375,0.594-1.328,0.594-1.328
	s0.172,0.047,0.422,0.078s0.348,0.081,0.391-0.078c0.125-0.453,0.25-0.828,0.25-0.828s0.156-0.828,0.234-0.875
	S7.943,17.841,8.14,18.5c0.219,0.734,0.438,1.359,0.844,2.422c0.312,0.818,0.531,1.406,0.641,1.688
	c0.061,0.154,0.078,0.234,0.109,0.422c0.02,0.117-0.062,0.234-0.078,0.375s-0.042,0.207-0.156,0.344
	c-0.114,0.138-0.76,0.755-1.004,1.011c-0.244,0.255-1.055,1.029-1.394,1.365s-1.454,1.457-1.455,1.576
	c-0.001,0.117,0.103,0.287,0.103,0.287s-0.703,0.99-0.844,1.314c-0.141,0.322-0.133,0.545-0.121,0.713
	c0.013,0.17,0.092,0.691,0.139,0.92c0.068,0.338,0.355,1.484,0.354,1.572c-0.001,0.09-0.054,0.279-0.081,0.545
	c0.01,0.26,0.024,0.463,0.109,0.646c0.15,0.322,0.246,0.322,0.26,0.367c0.034,0.107-0.109,0.176,0.014,0.809
	c0.07,0.355,0.457,1.729,0.457,1.729l0.629,2.086l0.658,2.059c0,0-0.092,0.043-0.184,0.213c-0.091,0.17-0.024,0.277-0.024,0.277
	S6.935,41.3,6.822,41.397C6.71,41.497,6.675,41.8,6.675,41.8l-0.803,0.479c0,0-1.277,0.654-1.424,0.766
	c-0.146,0.109-0.292,0.227-0.342,0.381c-0.049,0.156-0.061,0.463,0.041,0.574c0.102,0.109,0.397,0.205,0.397,0.205l0.999,0.074
	c0,0-0.014,0.148,0.055,0.191c0.068,0.041,0.277,0.016,0.342,0c0.065-0.018,0.056-0.178,0.056-0.178l0.274,0.016
	c0,0,0.008,0.158,0.054,0.205s0.263,0.012,0.341-0.014c0.078-0.027,0.057-0.221,0.057-0.221l0.656-0.117l0.93-0.074l0.986-0.117
	l0.39,0.084c0,0,0.024,0.139,0.117,0.137s0.235,0.002,0.288-0.029c0.051-0.031,0.066-0.266,0.066-0.266s0.092,0.051,0.18-0.014
	c0.088-0.066,0.199-0.215,0.26-0.295s0.09-0.111,0.115-0.217s0.043-0.203,0.058-0.322c0.014-0.121,0.026-0.439-0.024-0.568
	c-0.051-0.131-0.328-0.643-0.328-0.643s-0.282-0.854-0.387-1.051c-0.105-0.199-0.215-0.096-0.215-0.096s-0.251-1.271-0.334-1.742
	c-0.082-0.471-0.243-1.504-0.26-1.676c-0.016-0.174,0.053-0.398,0.053-0.398l0.377,0.332l1.102,1.004c0,0,0.055,0.344,0.192,0.574
	c0.18,0.297,0.467,0.723,0.629,0.867c0.161,0.143,0.427,0.223,0.521,0.279c0.096,0.055,0.221,0.223,0.273,0.279
	c0.053,0.055,0.152,0.18,0.273,0.316s2.429,2.199,2.672,2.42c0.242,0.223,0.542,0.584,0.752,0.795
	c0.211,0.211,0.607,0.758,0.607,0.758l-0.077,0.193c0,0-0.064,0.445-0.126,0.576c-0.061,0.129-0.568,0.75-0.824,0.98
	c-0.255,0.227-0.948,0.74-1.039,1.027c-0.09,0.287,0.036,0.508,0.187,0.596s0.261,0.088,0.479,0.104
	c0.219,0.014,0.594,0.008,0.594,0.008l0.314,0.117l0.186-0.055c0,0,0.006,0.105,0.078,0.125s0.311-0.059,0.342-0.082
	s0.079-0.238,0.079-0.238l0.169-0.008c0,0,0.012,0.133,0.092,0.141c0.078,0.008,0.268-0.047,0.328-0.098
	c0.061-0.049,0.07-0.232,0.07-0.232l0.779-0.348l0.873-0.5l0.958-0.459c0,0,0.124,0.08,0.218,0.076
	c0.093-0.004,0.162-0.074,0.188-0.143c0.026-0.066-0.03-0.217-0.03-0.217l0.188-0.141c0,0,0.107,0.053,0.218,0.033
	c0.109-0.02,0.128-0.059,0.134-0.104c0.006-0.043-0.027-0.309-0.027-0.309l-0.011-0.338c0,0,0.091-0.055,0.097-0.193
	s-0.156-0.566-0.285-0.734s-0.254-0.332-0.514-0.525c-0.258-0.193-0.812-0.525-0.812-0.525l-0.133-0.201l-0.581-0.463l-0.651-0.682
	l-1.14-1.41l-1.222-1.457c0,0-0.703-1.066-0.821-1.213s-0.391-0.309-0.391-0.309s-0.013-0.178-0.063-0.318
	c-0.053-0.143-0.414-0.594-0.594-0.74c-0.179-0.146-0.477-0.295-0.595-0.369s-0.218-0.01-0.218-0.01l-0.601-0.789l0.167,0.031
	c0,0,0.578,0.182,0.672,0.119c0.093-0.062,0.152-0.041,0.219-0.162s0.139-0.908,0.191-1.176s0.455-1.523,0.631-1.982
	c0.084-0.217,0.534-1.16,0.711-1.561c0.176-0.4,0.521-0.924,0.711-1.324c0.131-0.277,0.549-0.967,0.752-1.396
	s0.373-0.85,0.453-1.094c0.079-0.246,0.223-0.861,0.234-1.153c0.012-0.29-0.039-0.856-0.068-1.073s-0.09-0.908-0.16-1.059
	s-0.211-0.328-0.211-0.328s0.162-0.396,0.133-0.547s-0.296-0.449-0.326-0.541s-0.002-0.209-0.033-0.475s-0.219-1.172-0.219-1.172
	l-0.297-1.844c0,0,0.561-1.206,0.766-1.75s0.672-1.625,0.844-2.203c0.158-0.532,0.251-1.268,0.234-1.609
	c-0.016-0.341-0.07-0.559-0.127-0.77c-0.092-0.339-0.426-0.611-0.646-0.827c-0.222-0.216-0.752-0.61-0.752-0.61l-0.465-0.326
	l-0.01-0.139c0,0-0.129-0.133-0.312-0.234c-0.281-0.156-0.781-0.406-1.219-0.562c-0.4-0.143-1.156-0.43-1.594-0.547
	c-0.438-0.118-1.291-0.359-1.562-0.422c-0.406-0.094-1.207-0.22-1.375-0.234c-0.137-0.012-0.533-0.062-0.68-0.08
	C9.283,7.946,9.342,7.78,9.511,7.583c0.254-0.296,0.5-0.641,0.688-1.297c0.096,0.178,0.285,0.582,0.359,0.719
	c0.117,0.214,0.193,0.614,0.187,0.672c0.062,0.266,0.331,0.401,0.438-0.047c-0.047,0.328,0.281,0.156,0.391,0.109
	c0,0,0.097-0.083,0.234-0.359c-0.046,0.204,0.188,0.297,0.312,0.219c0.071-0.044,0.359-0.188,0.344-0.297
	c0,0,0.259,0.041,0.341-0.344c0.063-0.302,0.051-0.38,0.066-0.766c0.016-0.391-0.094-0.75-0.329-1.375
	c-0.134-0.357-0.278-0.782-0.39-1.125c-0.189-0.591-0.32-1.061-0.423-1.406c-0.203-0.688-0.515-1.125-0.719-1.266
	c-0.255-0.175-0.403-0.245-0.765-0.312c-0.25-0.047-0.65,0.034-0.813,0.125c-0.181,0.099-0.427,0.26-0.64,0.562
	C8.769,1.43,8.62,1.352,8.487,1.425C8.158,1.298,7.76,1.192,7.354,1.145c-0.708-0.083-1.315,0.03-1.531,0.094
	c-0.418,0.123-0.917,0.33-1.493,0.812C4.068,2.27,3.521,3.188,3.47,3.254C3.336,3.428,3.272,3.556,2.838,3.895
	C2.529,4.078,2.96,4.266,3.36,4.239C3.292,4.466,3.161,4.541,3.063,4.801c-0.027,0.073,0.26,0.18,0.469,0.156
	C3.813,4.926,3.97,4.864,3.97,4.864l0.107,0.24L4.2,5.61c-0.072,0.008-0.213,0.02-0.213,0.02s0.146,0.116,0.227,0.156
	C4.146,5.95,4.12,6.051,4.011,6.27c-0.02,0.039-0.108,0.321-0.047,0.484C4.046,6.969,4.202,7,4.374,7.062
	C4.515,7.113,4.501,7.302,4.53,7.422c0.113,0.464,0.191,0.832,0.266,0.984c0.112,0.23,0.226,0.465,0.578,0.531
	c0.16,0.03,0.404,0.067,0.672-0.016C6.078,8.964,6.171,9.047,6.28,9.266C6.31,9.325,6.341,9.387,6.372,9.448
	c-0.139,0.114-0.695,0.576-0.951,0.896c-0.188,0.234-0.314,0.385-0.51,0.823c-0.136,0.302-0.348,1.061-0.428,1.443
	c-0.191,0.853-0.281,1.135-0.422,1.734C3.89,15.078,3.818,15.27,3.7,15.785c-0.119,0.515-0.156,0.676-0.156,0.676
	s-0.211-0.373-0.26-0.441c-0.137-0.191-0.426-0.161-0.426-0.161s-0.094-0.324-0.134-0.452c-0.04-0.128-0.216-0.463-0.216-0.463
	S2.312,14.8,2.222,14.767c-0.092-0.033-0.238,0.047-0.238,0.047l-0.149-0.073c0,0-0.097-0.03-0.197-0.051
	c-0.102-0.022-0.268,0.099-0.268,0.099s-0.179-0.019-0.276,0.022c-0.098,0.041-0.154,0.154-0.154,0.154s-0.09,0.188-0.113,0.253
	c-0.022,0.067-0.02,0.419-0.02,0.419l-0.083,0.188C0.723,15.826,0.573,16.085,0.573,16.27z M14.812,13.609l0.438,0.141
	c0,0-0.047,0.266-0.078,0.531s-0.031,0.422-0.031,0.422L14.812,13.609z"/>
<path id="skin-face" fill-rule="evenodd" clip-rule="evenodd" fill="#F9CAA9" d="M8.593,8.531c0,0-0.078-0.141-0.422-0.391
	C7.798,7.87,7.647,7.82,7.192,7.593C6.69,7.341,6.618,7.161,6.704,7.032c0.121-0.183,0.365-0.47,0.391-0.756
	c0.039-0.448-0.192-0.444-0.29-0.462C6.665,5.789,6.433,5.88,6.339,5.997c-0.102,0.125-0.174,0.328-0.233,0.55
	C6.07,6.681,6.059,6.92,5.97,6.88C5.763,6.788,5.825,6.863,5.757,6.774C5.628,6.604,5.52,6.273,5.438,6.031
	C5.333,5.713,5.272,5.546,5.196,5.258C5.151,5.137,5.151,4.864,5.151,4.864S4.964,4.907,4.787,4.925
	c-0.138,0.015-0.53-0.061-0.53-0.061l0.091,0.137l0.077,0.202c0.047,0.003,0.244,0.018,0.277,0.043
	c0.037,0.028,0.322,0.147,0.307,0.167C4.962,5.41,4.78,5.365,4.689,5.35c-0.089,0-0.161,0.005-0.228,0.02l0.002,0.004
	c0,0,0.045,0.157,0.074,0.285c0.055,0,0.216,0.062,0.246,0.058c0.117-0.003,0.104,0.042,0.35-0.079
	c0.014,0.013-0.223,0.189-0.3,0.224c-0.046,0.02-0.19,0.038-0.308,0.051C4.458,6.083,4.312,6.381,4.312,6.381
	S4.21,6.582,4.282,6.683C4.339,6.765,4.569,6.742,4.6,6.796c0.071,0.121,0.18,0.438,0.218,0.581C4.856,7.52,4.936,7.905,5.015,8.123
	c0.139,0.379,0.191,0.394,0.344,0.485c0.123,0.074,0.288,0.076,0.455,0.015c0.136-0.03,0.335-0.067,0.335-0.067
	S6.28,8.609,6.452,8.906c0.057,0.097,0.156,0.266,0.234,0.422c0.02,0.04,0.446-0.058,0.578-0.109
	c0.641-0.25,0.797-0.297,1.094-0.484C8.509,8.639,8.593,8.531,8.593,8.531z M5.197,7.679c-0.082,0.053-0.145-0.012-0.183-0.08
	l0.052-0.105C5.121,7.535,5.238,7.536,5.197,7.679z M6.515,6.708l0.161-0.64C6.933,6.395,6.515,6.708,6.515,6.708z"/>
<path fill="#FFFFFF" d="M9.642,3.254c0.062,0.162-0.172-0.016-0.469-0.25C8.889,2.78,8.782,2.53,8.692,2.208
	C8.663,2.101,8.649,2.011,8.648,1.941C8.646,1.864,8.642,1.776,8.677,1.779c0.074,0.006,0.094-0.033,0.125,0.084
	C8.874,2.133,8.985,2.36,9.067,2.504C9.263,2.849,9.593,3.128,9.642,3.254z"/>
<path id="hair" fill-rule="evenodd" clip-rule="evenodd" fill="#F7DD7F" d="M9.714,4.525C9.667,3.999,9.669,3.634,9.637,3.622
	c-0.275-0.107-0.475-0.245-0.78-0.475C8.599,2.955,8.492,2.678,8.442,2.535C8.305,2.136,8.382,1.769,8.29,1.736
	C7.891,1.593,7.339,1.412,6.649,1.432C5.878,1.454,5.505,1.644,5.212,1.799c-0.293,0.157-0.797,0.505-1.041,0.95
	c-0.002,0.002-0.005,0.007-0.006,0.01C3.97,3.025,3.806,3.297,3.681,3.515C3.519,3.798,3.19,3.989,3.252,3.974
	c0.261,0.03,0.368,0,0.536-0.092C3.92,3.81,3.651,4.494,3.481,4.693C4.06,4.741,4.415,4.269,4.508,4.341
	C4.554,4.378,4.69,4.296,4.354,4.556C4.749,4.648,5.233,4.46,5.304,4.387C5.422,4.293,5.368,4.64,5.386,4.847
	C5.4,5.02,5.497,5.387,5.569,5.597c0.188,0.547,0.292,0.972,0.321,0.827C5.952,6.118,6.104,5.72,6.411,5.566
	c0.045-0.022,0.098-0.042,0.156-0.06C6.574,5.505,6.581,5.502,6.588,5.5c0.056-0.016,0.117-0.027,0.181-0.034
	c0.018-0.002,0.034-0.001,0.051-0.002c0.035-0.002,0.07,0.001,0.106,0.002c0.186,0.021,0.351,0.13,0.429,0.436
	c0.143,0.722-0.27,1.084-0.281,1.164c-0.016,0.109,0.504,0.339,0.85,0.505c0.428,0.206,0.76,0.568,0.826,0.568
	c0.057,0,0.35-0.587,0.444-0.706C9.667,6.837,9.806,6.47,9.958,5.857C9.836,5.398,9.744,4.877,9.714,4.525z M9.042,5.212
	c0.002,0.133-0.055-0.395-0.201-0.84C8.702,3.957,8.497,3.636,8.733,3.821C9.18,4.168,9.024,4.403,9.042,5.212z"/>
<path id="hair-p" fill="#F7DD7F" d="M12.382,5.119c-0.178-0.498-0.466-1.13-0.763-2.255c-0.267-1.012-0.498-1.405-0.781-1.625
	c-0.169-0.132-0.321-0.232-0.609-0.281C9.494,0.833,9.105,1.426,8.996,1.598c0,0,0.078,0.25,0.154,0.391
	c0.269,0.496,0.314,0.547,0.58,0.875c0.071,0.087,0.122,0.152,0.167,0.22c0.115,0.102,0.34,0.308,0.441,0.467L9.983,3.524
	c0.008,0.22,0.022,0.558,0.111,1.194c0.094,0.797,0.15,1.005,0.369,1.49c0.219,0.531,0.406,0.641,0.531,1.172
	c-0.043-0.183,0.202-0.438,0.249-0.672c0,0,0.247,0.729,0.172,0.797c0.312-0.281,0.314-0.583,0.344-0.875
	c0,0,0.422,0.375,0.297,0.703c0.025-0.025,0.184-0.107,0.231-0.323c0.041-0.183-0.027-0.493-0.043-0.615
	c0,0,0.301,0.275,0.234,0.547C12.653,6.229,12.604,5.739,12.382,5.119z"/>
<path id="player-sock-r" fill-rule="evenodd" clip-rule="evenodd" fill="#0068B4" d="M9.218,40.444l0.091-0.047l-0.308-1.803
	c0,0-0.201-1.189-0.209-1.469c-0.01-0.281,0.127-0.662,0.127-0.662l-0.426-0.869l-0.154-0.34l-0.051-0.264l-0.104-0.725
	l-0.431-0.174l-0.165-0.447l-0.291-0.078l-0.055-0.088l0.469-0.188l0.15-0.965l0.07-0.266c0,0-0.631,0.004-1.025,0.123
	c-0.395,0.121-1.131,0.479-1.205,0.617c-0.073,0.141-0.115,0.285-0.068,0.457s0.02,0.186,0.092,0.312
	c0.072,0.129,0.41,0.043,0.44,0.121c0.03,0.08,0.003,0.156-0.073,0.273c-0.076,0.115-0.113,0.141-0.171,0.277
	c-0.058,0.139,0.014,0.428,0.067,0.705c0.055,0.281,0.567,2.037,0.567,2.037l0.876,2.793l0.164,0.672l0.273,0.77l0.438,0.205
	l0.219-0.439l0.467-0.088L9.218,40.444z"/>
<path id="skin-leg-r" fill-rule="evenodd" clip-rule="evenodd" fill="#F9CAA9" d="M7.003,31.759
	c0.164-0.029,0.908-0.109,0.908-0.109s0.042-0.586,0.025-0.459c-0.016,0.127,0.049-0.479,0.037-0.352
	c-0.013,0.127,0.094-0.281,0.094-0.281l-0.739-0.801l-0.821-0.838l-0.529-0.537c0,0-0.229,0.238-0.361,0.463
	c-0.133,0.225-0.328,0.504-0.374,0.703c-0.046,0.197-0.063,0.33-0.055,0.559c0.009,0.227,0.073,0.447,0.108,0.705
	c0.037,0.256,0.406,1.477,0.406,1.477s0.754-0.338,0.891-0.396S6.839,31.788,7.003,31.759z"/>
<polygon fill-rule="evenodd" clip-rule="evenodd" fill="#1A1A18" points="7.62,31.171 7.579,30.845 7.558,30.741 7.146,30.554 
	7.263,30.88 7.346,31.315 7.62,31.171 "/>
<path id="skin-leg-l" fill-rule="evenodd" clip-rule="evenodd" fill="#F9CAA9" d="M10.834,37.667l0.405-0.344l0.727-0.643
	l0.674-0.484c0,0-0.312-0.443-0.408-0.58c-0.096-0.137-0.168-0.254-0.207-0.262s-0.399,0.18-0.535,0.195
	c-0.134,0.018-0.371-0.102-0.334-0.168c0.035-0.064,0.5-0.449,0.5-0.449l-0.123-0.074l-0.043-0.426h-0.04
	c0,0-0.14,0.418-0.247,0.492c-0.106,0.074-0.756-0.051-1.201-0.182c-0.604-0.176-1.333-0.352-1.333-0.352s0.056,0.447,0.093,0.664
	c0.035,0.217,0.127,0.344,0.225,0.537c0.098,0.195,0.422,0.746,0.623,0.979C9.809,36.802,10.834,37.667,10.834,37.667z"/>
<polygon fill-rule="evenodd" clip-rule="evenodd" fill="#1A1A18" points="9.864,36.069 9.95,35.942 9.935,35.835 9.805,35.634 
	9.501,35.683 9.529,35.901 9.864,36.069 "/>
<path id="player-sock-l" fill-rule="evenodd" clip-rule="evenodd" fill="#0068B4" d="M12.284,39.431
	c0.139-0.057,0.713-0.967,0.788-0.93c0.076,0.035,0.116,0.092,0.116,0.092s0.075,0.078,0.031,0.217s-0.611,0.814-0.588,0.984
	c0.024,0.168,0.18,0.383,0.283,0.477c0.105,0.096,2.402,2.184,2.402,2.184l0.544,0.459l0.79,0.844l0.39,0.418l0.452-0.221
	l0.76,0.354l0.272-0.217l-0.129-0.732l0.11-0.455l-0.611-0.635l-0.924-1.08c0,0-1.504-1.805-1.623-1.941s-0.412-0.68-0.525-0.805
	c-0.114-0.127-0.245-0.338-0.365-0.387c-0.119-0.049-0.651,0.158-0.707,0.113c-0.055-0.045-0.074-0.141-0.031-0.217
	c0.045-0.078,0.381-0.449,0.384-0.564s-0.161-0.307-0.325-0.469s-0.287-0.264-0.465-0.338c-0.179-0.072-0.28-0.121-0.373-0.061
	s-0.719,0.57-0.719,0.57s-0.533,0.43-0.666,0.541c-0.132,0.111-0.366,0.27-0.352,0.404c0.016,0.137,0.066,0.361,0.15,0.527
	c0.084,0.164,0.394,0.629,0.547,0.705C12.054,39.345,12.145,39.485,12.284,39.431z"/>
<path id="skin-arm-r" fill="#F9CAA9" d="M15.64,13.562c0.016-0.141-0.061-0.175-0.156-0.219c-0.172-0.078-0.531-0.219-0.531-0.219
	s0.081-0.456,0.165-0.864s0.149-0.65,0.247-0.897c0.098-0.247,0.287-0.587,0.287-0.587s1.111,0.805,1.199,0.867
	c0.09,0.062,0.11,0.148,0.11,0.148s-0.119,0.046-0.118,0.12c0.002,0.073-0.014,0.149-0.006,0.265s0.076,0.188,0.117,0.27
	c0.04,0.082,0.159,0.167,0.244,0.139c0.084-0.028,0.017-0.446,0.017-0.446s0.163,0.159,0.211,0.289
	c0.048,0.129,0.083,0.362,0.089,0.618c0.006,0.256-0.068,0.698-0.116,0.899c-0.048,0.2-0.133,0.486-0.241,0.85
	c-0.107,0.364-1.236,2.985-1.236,2.985l-0.547-2.309l0.141-1.035C15.515,14.438,15.628,13.666,15.64,13.562z"/>
<path id="player-shirt" fill="#0068B4" d="M3.878,16.59c0.094-0.375,0.577-2.36,0.66-2.704c0.184-0.765,0.418-1.593,0.492-1.917
	s0.109-0.453,0.281-0.828s0.326-0.516,0.438-0.656c0.113-0.141,0.711-0.671,0.832-0.717s0.712-0.202,0.998-0.315
	c0.287-0.113,0.864-0.333,1.123-0.499C8.96,8.788,8.999,8.656,8.999,8.656L9.46,8.63c0,0,0.398,0.026,0.711,0.073
	c0.176,0.026,0.734,0.141,1.312,0.266c0.457,0.099,1.559,0.447,1.984,0.594c0.115,0.041,0.939,0.378,1.201,0.497
	c0.197,0.089,0.555,0.273,0.555,0.273l0.123,0.095c0,0-0.25,0.475-0.349,0.714c-0.098,0.24-0.272,0.802-0.315,1.058
	c-0.042,0.256-0.128,0.798-0.128,0.798l-0.042,0.015c0,0-0.218-0.395-0.436-0.596c-0.112-0.104-0.188-0.173-0.312-0.26
	c-0.178-0.124-0.25-0.203-0.297-0.141c-0.031,0.042,0.064,0.091,0.152,0.22c0.168,0.249,0.459,0.802,0.665,1.306
	c0.098,0.239,0.396,1.146,0.646,2.062c0.109,0.4,0.412,1.599,0.584,2.505c0.106,0.562,0.401,2.235,0.469,2.609
	c0.068,0.373,0.109,0.938,0.109,0.938s0.049,0.061-0.109,0.203c-0.158,0.143-0.293,0.175-0.572,0.252
	c-0.277,0.077-1.627,0.305-2.084,0.389s-1.418,0.223-1.765,0.258c-0.845,0.086-1.336,0.076-1.392-0.008
	c-0.062-0.094-0.478-0.982-0.461-1.051c0.017-0.07,0.752,0.03,1.041,0.002s0.749-0.179,0.834-0.28
	c0.086-0.101-0.699-0.127-1.101-0.106c-0.401,0.021-0.859,0.02-0.938-0.096c-0.081-0.116-0.07-0.162-0.281-0.703
	c-0.25-0.641-0.516-1.398-0.719-2.031c-0.266-0.828-0.543-1.816-0.73-1.988s-0.295-0.192-0.295-0.192s-0.024-0.017-0.112,0.031
	s-0.14,0.333-0.14,0.333s-0.152,0.635-0.219,0.859c-0.078,0.266-0.125,0.422-0.188,0.672c-0.044,0.178-0.053,0.172-0.109,0.172
	c-0.109,0-0.182-0.035-0.301-0.059c-0.574-0.113-0.715-0.145-1.34-0.301s-1.383-0.41-1.383-0.41l-0.086-0.059
	C3.644,17.543,3.784,16.965,3.878,16.59z"/>
<path fill-rule="evenodd" clip-rule="evenodd" fill="#1A1A18" d="M8.259,16.599c-0.041-0.012-0.129-0.226-0.271-0.431
	c-0.16-0.23-0.375-0.457-0.375-0.516c0.002-0.111,0.084-0.537,0.125-0.75c0.043-0.212,0.103-0.646,0.193-0.756
	c0.092-0.11,0.137-0.014,0.137-0.014s0.062,0.288,0.021,0.545C8.05,14.918,8.05,15.199,8.19,15.793
	c0.081,0.34,0.197,0.528,0.186,0.589C8.349,16.514,8.347,16.624,8.259,16.599z"/>
<path id="player-shorts-l" fill-rule="evenodd" clip-rule="evenodd" fill="#FFFFFF" d="M15.065,29.7
	c-0.126,0.244-0.318,0.658-0.396,0.838c-0.081,0.18-0.443,0.832-0.619,1.262s-0.632,1.893-0.712,2.205
	c-0.079,0.312-0.07,0.732-0.137,0.824c-0.066,0.09-0.015,0.055-0.123,0.088c-0.107,0.031-1.097-0.184-1.177-0.223
	s-0.155-0.885-0.18-0.955c-0.023-0.068-0.152-0.092-0.219-0.043c-0.064,0.047-0.427,0.76-0.479,0.822
	c-0.053,0.062-0.537-0.078-0.739-0.104c-0.202-0.023-1.098-0.312-1.287-0.352C8.81,34.022,8.326,33.841,8.226,33.8
	s-0.127-0.164-0.031-0.746c0.109-0.678,0.652-3.168,0.75-3.555s0.331-1.238,0.48-1.916c0.151-0.676,0.434-1.742,0.434-1.742
	s0.164-0.634,0.248-0.864c0.086-0.23,0.096-0.421,0.33-0.51c0.234-0.088,0.854-0.175,1.092-0.191
	c0.238-0.016,0.66-0.065,0.709-0.121c0.049-0.056-0.055-0.27-0.188-0.303s-0.629-0.077-0.818-0.047
	c-0.191,0.029-0.845,0.074-0.928,0c-0.084-0.073-0.135-0.429-0.068-0.486c0.066-0.058,0.191-0.034,0.416-0.023
	s0.684-0.062,0.973-0.092c0.289-0.03,0.828-0.109,1.281-0.172c0.156-0.021,0.924-0.153,1.25-0.203
	c0.326-0.05,1.078-0.172,1.438-0.266c0.221-0.058,0.619-0.323,0.689-0.228s0.232,0.292,0.246,0.389
	c0.015,0.097-0.025,0.165-0.088,0.226c-0.062,0.062-0.369,0.2-0.503,0.234c-0.134,0.034-0.276,0-0.286,0.097
	c-0.012,0.098,0.135,0.327,0.287,0.315s0.311-0.08,0.498-0.033c0.092,0.023,0.143,0.021,0.172,0.146
	c0.03,0.125,0.123,0.767,0.145,0.982c0.023,0.216,0.085,0.546,0.068,0.836c-0.019,0.292-0.1,0.766-0.182,1.051
	c-0.083,0.285-0.337,0.748-0.484,0.928c-0.146,0.18-0.768,0.314-1.025,0.445c-0.257,0.131-1.193,0.83-1.211,0.9
	c-0.018,0.068,0.353,0.041,0.585-0.033s0.596-0.352,0.817-0.447c0.223-0.098,0.492-0.197,0.48-0.141
	c-0.012,0.059-0.213,0.482-0.331,0.719S15.19,29.458,15.065,29.7z"/>
<path id="player-shorts-r" fill-rule="evenodd" clip-rule="evenodd" fill="#FFFFFF" d="M9.479,25.715
	c-0.137,0.532-0.439,1.799-0.549,2.217c-0.162,0.621-0.561,2.279-0.561,2.279s-0.373-0.354-0.549-0.543s-0.904-0.938-1.046-1.092
	s-0.502-0.559-0.562-0.621c-0.06-0.064-0.105-0.166-0.109-0.203c-0.005-0.037,0.183-0.176,0.314-0.305
	c0.133-0.129,1.51-1.531,1.766-1.807c0.256-0.278,1.496-1.429,1.561-1.478c0.063-0.049,0.128,0.004,0.104,0.11
	C9.822,24.378,9.617,25.188,9.479,25.715z"/>
<path id="skin-arm-l" fill-rule="evenodd" clip-rule="evenodd" fill="#F9CAA9" d="M4.706,21.118
	c-0.107,0.135-0.304,0.18-0.432,0.209c-0.128,0.03-0.402,0.035-0.587-0.085s-0.437-0.352-0.652-0.663
	c-0.216-0.31-0.576-1.089-0.712-1.303c-0.134-0.213-0.396-0.692-0.396-0.692l-0.289-0.208c0,0-0.137-0.098-0.252-0.206
	c-0.113-0.107-0.282-0.533-0.369-0.959c-0.086-0.427-0.125-1.008-0.119-0.938s0.001-0.21,0.051-0.188
	c0.051,0.022,0.088,0.271,0.123,0.353c0.037,0.081,0.102,0.286,0.145,0.287s0.066-0.044,0.082-0.088
	c0.016-0.044-0.201-1.258-0.216-1.357c-0.015-0.098,0.104-0.195,0.154-0.132s0.401,1.341,0.431,1.356s0.073,0.068,0.1-0.01
	c0.025-0.078-0.218-1.386-0.186-1.467c0.033-0.081,0.146-0.087,0.186-0.011c0.039,0.076,0.363,1.356,0.4,1.422
	c0.036,0.065,0.1,0.088,0.123,0.077c0.022-0.012-0.276-1.29-0.216-1.378s0.165-0.014,0.216,0.066
	c0.05,0.081,0.326,1.309,0.339,1.422c0.013,0.114,0.092,0.276,0.092,0.276s0.107-0.059,0.144-0.11
	c0.037-0.052-0.074-0.48-0.041-0.53c0.037-0.051,0.184-0.021,0.246,0.044c0.064,0.066,0.197,0.347,0.186,0.463
	c-0.012,0.117-0.052,0.405-0.127,0.592c-0.076,0.187-0.217,0.411-0.217,0.411s0.044,0.201,0.086,0.275
	c0.041,0.074,0.282,0.38,0.282,0.38s-0.146,0.415-0.173,0.562c-0.027,0.146,0.115,0.256,0.115,0.256l0.391-1.078
	c0,0,0.016-0.094,0.094-0.109s0.922,0.234,1.219,0.312s0.969,0.25,0.969,0.25S5.62,19.38,5.485,19.685
	C5.351,19.989,4.813,20.982,4.706,21.118z"/>
</svg>
