<?xml version="1.0" encoding="utf-8"?>
<!-- Generator: Adobe Illustrator 16.0.4, SVG Export Plug-In . SVG Version: 6.00 Build 0)  -->
<!DOCTYPE svg PUBLIC "-//W3C//DTD SVG 1.1//EN" "http://www.w3.org/Graphics/SVG/1.1/DTD/svg11.dtd">
<svg version="1.1" id="Ebene_1" xmlns="http://www.w3.org/2000/svg" xmlns:xlink="http://www.w3.org/1999/xlink" x="0px" y="0px"
	 width="25.305px" height="50.561px" viewBox="0 0 25.305 50.561" enable-background="new 0 0 25.305 50.561" xml:space="preserve">
<path fill-rule="evenodd" clip-rule="evenodd" fill="#1A1A18" d="M0.747,22.136c0.081-0.354,0.697-1.29,0.697-1.29
	s0.725-1.631,0.835-1.901c0.25-0.609,1.141-2.656,1.359-3.094c0.146-0.289,0.594-0.938,0.594-0.938l0.416-0.672
	c0,0-0.035-0.066-0.07-0.104c-0.067-0.073,0.093-0.221,0.166-0.323c0.072-0.103,0.473-0.53,0.473-0.53l1.422-1.559
	c0,0,1.167-1.166,1.438-1.438C8.56,9.804,9.367,9.496,9.56,9.414c0.195-0.08,0.969-0.234,1.515-0.281
	c0.547-0.047,1.172-0.062,1.172-0.062l0.164,0.008c-0.107-0.168-0.228-0.365-0.305-0.531c-0.168-0.357-0.338-0.666-0.338-0.666
	s-0.088-0.018-0.183-0.113c-0.163-0.17-0.196-0.329-0.253-0.492c-0.058-0.164-0.115-0.576-0.131-0.681
	c-0.016-0.104,0.122-0.332,0.122-0.332S11.12,5.849,11.03,5.414c-0.091-0.435-0.08-0.727-0.089-1.112
	c-0.009-0.384,0.253-1.172,0.587-1.569c0.154-0.205,0.288-0.312,0.596-0.465c0.133-0.066,0.275-0.159,0.455-0.209
	c0.01-0.049-0.016-0.233,0.09-0.423c0.152-0.275,0.333-0.506,0.641-0.697c0.317-0.199,0.967-0.259,1.333-0.02
	c0.391,0.258,0.389,0.329,0.613,0.666c0.201,0.306,0.1,0.486,0.1,0.486s0.725,0.395,1.053,0.86c0.283,0.404,0.725,1.028,0.354,2.666
	L16.573,6.34c0,0,0.084-0.008,0.15,0.158c0.066,0.165,0.016,0.469-0.033,0.654c-0.049,0.184-0.32,0.546-0.504,0.695
	c-0.182,0.149-0.26,0.082-0.26,0.082s-0.195,0.375-0.406,0.747c-0.129,0.229-0.248,0.406-0.324,0.517l0.066,0.002
	c0,0,0.775,0.131,1.297,0.266c0.484,0.125,1.137,0.511,1.621,0.808c0.264,0.162,1.207,1.052,1.645,1.474s1.381,1.344,1.381,1.344
	s0.406,0.432,0.494,0.509c0.09,0.078,0.266,0.347,0.266,0.347s0.043,0.03-0.002,0.106c-0.043,0.076-0.15,0.229-0.15,0.229
	l-0.014,0.012l0.209,0.307l0.324,0.606l0.498,1.224l0.57,1.641l0.254,0.723c0,0,0.196,0.32,0.387,0.555
	c0.189,0.232,0.421,0.967,0.436,1.107c0.016,0.143,0.118,0.494,0.088,0.648c-0.031,0.154-0.457,0.82-0.586,0.943
	s-0.336,0.272-0.458,0.315c-0.123,0.042-0.157-0.011-0.305-0.065c-0.147-0.054-0.257-0.215-0.366-0.377s-0.258-0.43-0.258-0.43
	s-0.072,0.037-0.215-0.023c-0.143-0.062-0.592-0.701-0.635-0.786c-0.043-0.083-0.047-0.235-0.031-0.401
	c0.018-0.168,0.256-0.93,0.277-1.021s-0.758-1.388-0.758-1.388l-0.469-0.766l-0.375-0.391l-0.391-0.375l-0.506,0.609
	c0,0-0.062,0.09-0.188,0.205c-0.084,0.078-0.168,0.019-0.168,0.019l-0.729-0.632l-0.619-0.539c0,0-0.057-0.115-0.104,0.025
	s-0.234,1.25-0.297,1.875s-0.156,1.625-0.141,2.844c0.012,0.781,0.031,1.516,0.047,2.016c0.008,0.204-0.01,0.395-0.01,0.395
	s0.062,0.148,0.174,0.382c0.109,0.233,0.133,0.444,0.117,0.599c-0.014,0.154-0.062,0.351-0.062,0.351s0.131,0.411,0.191,0.679
	c0.059,0.268,0.145,0.766,0.18,1.086c0.031,0.32,0.09,0.963,0.125,1.562c0.033,0.6,0.061,2.057,0.051,2.822
	c-0.01,0.906-0.094,3.511-0.094,4.198s0.037,1.686-0.051,1.766c-0.088,0.079-0.178,0.149-0.324,0.173
	c-0.146,0.024-0.564,0.037-0.564,0.037l-0.299,1.5l-0.1,0.492L16.5,39.526l0.201,0.429l-0.018,0.923l-0.068,0.22l-0.312,0.334
	l-0.051,0.451l-0.432,1.723l-0.357,1.645l0.211,0.121l-0.01,0.209l0.158,0.454l0.395,1.162l0.713,1.376c0,0,0.195,0.518,0.205,0.705
	c0.008,0.189-0.148,0.345-0.297,0.422c-0.146,0.076-0.562,0.1-0.562,0.1l-0.406-0.103l-0.176-0.078c0,0-0.064,0.057-0.137,0.077
	c-0.07,0.021-0.209-0.073-0.223-0.129c-0.012-0.056-0.014-0.117-0.014-0.117l-0.225-0.174c0,0-0.078,0.021-0.152,0.047
	c-0.074,0.027-0.154-0.097-0.18-0.144c-0.043-0.079-0.031-0.222-0.031-0.222l-0.687-0.606l-0.348-0.46c0,0-0.07-0.004-0.141-0.008
	c-0.069-0.004-0.122-0.065-0.15-0.145c-0.027-0.08-0.018-0.234-0.018-0.234l-0.368-0.616l0.001-0.367l0.043-0.491l0.013-0.064
	l0.128-0.806l0.101-0.177l0.142-0.27l-0.034-1.042l-0.028-2.374l0.096-0.773l0.148-0.236l-0.055-0.537l0.213-0.332l-0.104-0.908
	l-0.338-1.035l-0.26-0.799l-0.123-0.001l-0.104-0.02l0.076,0.951c0,0,0.016,0.448-0.011,0.722c-0.025,0.274-0.178,0.52-0.218,0.646
	c-0.041,0.127-0.119,0.337-0.278,0.475s-0.607,0.179-0.794,0.173c-0.188-0.005-0.289-0.086-0.396-0.192
	c-0.106-0.107-0.229-0.604-0.229-0.604l-0.032-0.369l-0.348-1.069l-0.119-0.501l-0.139-0.172L10.3,36.718
	c0,0-0.383,0.246-0.588,0.301c-0.206,0.054-0.438,0.047-0.691,0.014s-0.435-0.105-0.584-0.246s-0.301-0.39-0.382-0.537
	c-0.081-0.146-0.101-0.191-0.187-0.396c-0.087-0.207-0.211-0.682-0.266-1.045c-0.082-0.559-0.104-0.907-0.1-1.218
	s0.025-0.489,0.025-0.489s-0.309-0.021-0.432-0.042c-0.124-0.021-0.119-0.071-0.113-0.153c0.004-0.076,0.027-0.867,0.059-1.125
	c0.055-0.456,0.176-1.374,0.176-1.374l0.238-1.696l0.227-1.648l0.35-2.114c0-0.001,0.141-0.425,0.246-0.737
	c0.056-0.163,0.109-0.236,0.109-0.328c0-0.5,0.168-0.76,0.203-0.797c0.062-0.062,0.068-0.141,0.043-0.234
	c-0.004-0.01-0.072-0.885-0.09-1.812c-0.008-0.389-0.062-1.047-0.094-1.531c-0.035-0.561-0.078-1.098-0.109-1.406
	c-0.062-0.625-0.213-1.744-0.213-1.744l-0.367,0.342c0,0-0.153,0.16-0.251,0.264c-0.112,0.116-0.208,0.043-0.331-0.075
	c-0.088-0.083-0.589-0.485-0.589-0.485s-0.519,0.486-0.923,0.93c-0.404,0.441-1.01,1.236-1.311,1.66
	c-0.301,0.425-1.203,2.109-1.203,2.109s0.154,0.312,0.159,0.52c0.007,0.207-0.083,0.812-0.117,0.986
	c-0.033,0.174-0.116,0.75-0.202,0.91c-0.046,0.09-0.101,0.197-0.194,0.31c-0.077,0.094-0.197,0.199-0.222,0.233
	c-0.053,0.075-0.088,0.112-0.193,0.116c-0.053,0.001-0.18-0.065-0.242-0.129s-0.096-0.177-0.109-0.235
	c-0.028-0.124,0.037-0.387,0.037-0.387l-0.112,0.08c0,0-0.019,0.565-0.04,0.635c-0.021,0.068-0.029,0.167-0.08,0.191
	s-0.186,0.114-0.289,0.096c-0.227-0.042-0.213-0.187-0.322-0.292c-0.11-0.105-0.164-0.28-0.247-0.47s-0.173-0.814-0.173-0.814
	S0.703,22.325,0.747,22.136z"/>
<path id="skin-arm-l" fill-rule="evenodd" clip-rule="evenodd" fill="#F9CAA9" d="M22.227,19.677l-0.186,0.647l0.047,0.179
	c0,0,0.342,0.527,0.416,0.521c0.072-0.006,0.129-0.084,0.107-0.207s-0.064-0.373-0.064-0.373l0.066-0.172
	c0,0,0.17-0.152,0.291-0.123c0.123,0.031,0.445,0.115,0.482,0.168c0.038,0.055,0.145,0.495,0.098,0.576
	c-0.046,0.08-0.104,0.158-0.164,0.215c-0.06,0.057-0.347,0.247-0.347,0.247s0.036,0.142,0.134,0.153
	c0.099,0.01,0.419-0.045,0.419-0.045l-0.056,0.092c0,0-0.277,0.204-0.264,0.245c0.013,0.04,0.102,0.122,0.193,0.133
	c0.094,0.011,0.109-0.064,0.293-0.174s0.483-0.653,0.498-0.727c0.014-0.073-0.057-0.563-0.057-0.563s-0.188-0.68-0.354-0.896
	c-0.164-0.217-0.396-0.562-0.396-0.562l-0.592-1.583c0,0-0.438-1.234-0.562-1.547s-0.291-0.705-0.391-0.906
	c-0.098-0.2-0.32-0.453-0.32-0.453s-0.227,0.219-0.586,0.641s-0.672,0.828-0.672,0.828l0.547,0.578l0.477-0.221l0.068,0.201
	l-0.094,0.143l-0.16,0.184l0.678,1.193l0.619,1.172l-0.092,0.15L22.227,19.677z"/>
<path id="skin-arm-r" fill-rule="evenodd" clip-rule="evenodd" fill="#F9CAA9" d="M1.104,22.71
	c0.012,0.072,0.153,0.834,0.172,0.887s0.071,0.102,0.126,0.188c0.057,0.086,0.111,0.242,0.183,0.297
	c0.052,0.039,0.08,0.035,0.113-0.036c0.034-0.071-0.058-0.558-0.032-0.646s0.108-0.208,0.135-0.28
	c0.027-0.072,0.045-0.18,0.125-0.236c0.08-0.056,0.32-0.16,0.371-0.108c0.051,0.053,0.127,0.268,0.109,0.344
	s-0.144,0.476-0.135,0.548c0.009,0.071,0.029,0.12,0.107,0.081s0.197-0.236,0.287-0.365c0.093-0.129,0.2-0.961,0.229-1.155
	s0.035-0.386,0.004-0.569c-0.03-0.184-0.174-0.5-0.174-0.5l1.367-2.389l1.625-2.146l0.547-0.6L5.56,15.242L4.935,14.57
	c0,0-0.71,0.994-1.016,1.547c-0.305,0.553-2.076,4.607-2.076,4.607l-0.158,0.34c0,0-0.355,0.625-0.4,0.73
	c-0.045,0.106-0.169,0.298-0.188,0.473C1.084,22.371,1.092,22.64,1.104,22.71z"/>
<path id="player-shirt" fill-rule="evenodd" clip-rule="evenodd" fill="#0068B4" d="M6.626,15.781c0,0,0.416,0.431,0.566,0.562
	c0.15,0.133,0.204,0.17,0.349,0.012c0.144-0.158,0.413-0.482,0.413-0.482l0.979-1.129l0.24-0.188l0.387-0.363
	c0,0,0.212-0.177,0.312-0.232c0.1-0.058,0.212-0.006,0.212-0.006s0.051,0.123,0.004,0.227c-0.048,0.104-0.191,0.271-0.191,0.271
	s-0.188,0.156-0.241,0.267c-0.052,0.11-0.101,0.341-0.101,0.341s0.489,0.467,0.521,0.552s0.072,0.189,0.004,0.226
	c-0.067,0.035-0.209,0.037-0.314,0.008c-0.108-0.031-0.453-0.416-0.453-0.416l-0.201-0.182l-0.314,0.295L8.55,15.893
	c0,0,0.02,0.459,0.062,0.917c0.041,0.458,0.188,1.188,0.229,2.166c0.025,0.566,0.104,1.562,0.146,2.417
	c0.023,0.5,0.002,1.375,0.115,1.458c0.113,0.084,0.738,0.203,0.738,0.203s1.125,0.234,1.687,0.312s1.207,0.16,1.619,0.182
	s0.965,0.014,1.368-0.029c0.403-0.043,0.79-0.059,1.284-0.207s0.959-0.312,1.008-0.371s0.033-0.215,0.033-0.215s0-0.645,0-1.166
	s-0.021-1.646,0.016-2.396c0.047-0.938,0.18-1.898,0.256-2.5c0.074-0.6,0.256-1.363,0.256-1.363l0.072-0.291
	c0,0,0.041-0.299,0.078-0.312c0.035-0.015,0.035-0.018,0.068,0.064c0.035,0.083,0.027,0.35,0.113,0.488s0.709,0.672,0.709,0.672
	s0.594,0.523,0.691,0.613c0.096,0.088,0.064,0.111,0.162-0.002c0.098-0.115,0.564-0.724,0.564-0.724l1.041-1.212
	c0,0,0.5-0.494,0.57-0.587s0.006-0.124-0.107-0.254c-0.111-0.131-0.539-0.552-0.539-0.552s-1.139-1.072-1.701-1.619
	c-0.336-0.328-0.758-0.75-1.332-1.13c-0.385-0.253-1.09-0.571-1.246-0.604c-0.75-0.156-1.156-0.219-1.156-0.219
	s-0.375,0.828-0.812,1.812c-0.211,0.475-0.875,1.891-0.875,1.891s-0.427-1.028-0.766-1.906C12.481,10.335,12.2,9.46,12.2,9.46
	s-0.359-0.031-0.859,0.016s-1.056,0.129-1.265,0.172C9.544,9.757,9.154,9.96,8.669,10.257c-0.082,0.051-0.834,0.799-1.594,1.609
	c-0.658,0.705-1.342,1.492-1.342,1.492l-0.366,0.408l-0.284,0.34l0.479,0.554l0.528,0.538L6.626,15.781z"/>
<path id="skin-leg-r" fill-rule="evenodd" clip-rule="evenodd" fill="#F9CAA9" d="M9.102,36.684c0.144,0.021,0.292,0.06,0.526-0.011
	s1.216-0.645,1.355-0.82c0.137-0.177,0.292-0.679,0.303-0.686c0.013-0.006,0.108,0.013,0.211-0.004
	c0.104-0.017-0.004-0.227-0.004-0.227s-0.145-0.068-0.211,0.006c-0.065,0.072-0.388,0.53-0.412,0.572
	c-0.023,0.043-0.175,0.114-0.208,0.006c-0.033-0.109,0.224-0.955,0.335-1.164c0.109-0.21,0.469-0.418,0.469-0.418l-1.333-0.463
	c0,0-0.324-0.108-0.572-0.167c-0.246-0.059-0.664-0.133-0.664-0.133L8.483,33.14l-0.526-0.019c0,0-0.077,0.642-0.051,0.98
	c0.025,0.339,0.05,0.592,0.113,0.906c0.064,0.315,0.164,0.726,0.265,0.91c0.1,0.185,0.276,0.441,0.394,0.548
	S8.957,36.664,9.102,36.684z"/>
<polygon fill-rule="evenodd" clip-rule="evenodd" fill="#1A1A18" points="9.619,36.107 9.718,35.765 9.603,35.316 9.494,34.978 
	9.281,34.87 9.511,35.997 9.619,36.107 "/>
<path fill-rule="evenodd" clip-rule="evenodd" fill="#1A1A18" d="M9.789,20.796c0.039,0.086,0.324,0.445,0.324,0.445
	s0.357,0.648,0.539,0.668c0.181,0.021,0.576-0.033,0.843,0.096c0.269,0.131,0.748,0.551,0.748,0.551s-0.173-0.715-0.332-0.898
	c-0.161-0.184-0.439-0.48-0.643-0.553c-0.203-0.071-0.819-0.025-0.949-0.093c-0.129-0.067-0.43-0.443-0.43-0.443
	s-0.258-0.545-0.328-0.673c-0.069-0.127-0.105-0.111-0.105-0.111s-0.002,0.133,0.003,0.227C9.465,20.107,9.789,20.796,9.789,20.796
	S9.67,20.533,9.789,20.796z"/>
<polygon id="skin-leg-l" fill-rule="evenodd" clip-rule="evenodd" fill="#F9CAA9" points="13.501,36.691 13.823,37.689
	14.054,38.455 14.134,39.294 14.515,39.477 14.938,39.656 16.11,39.476 16.174,39.066 16.252,38.597 16.415,37.892 16.583,36.806 
	15.393,36.768 14.85,36.756 "/>
<polygon id="player-sock-l" fill-rule="evenodd" clip-rule="evenodd" fill="#0068B4" points="13.894,45.5 14.114,45.497 
	14.87,44.529 15.202,44.523 15.776,42.605 15.918,41.781 15.813,41.595 15.403,41.386 15.284,41.082 15.497,40.921 15.95,41.095 
	16.307,40.823 16.34,40.247 16.284,40.099 16.19,39.972 15.786,40.044 14.844,40.125 14.291,39.902 14.157,39.812 14.069,39.908 
	14.413,40.613 14.417,40.851 13.976,40.861 13.776,42.17 13.805,43.714 13.696,43.835 13.876,44.55 13.776,45.147 13.667,45.268 
	13.669,45.386 13.894,45.5 13.894,45.5 "/>
<polygon fill-rule="evenodd" clip-rule="evenodd" fill="#1A1A18" points="15.5,38.082 15.502,38.201 15.678,38.072 15.717,37.839 
	15.715,37.744 15.542,37.771 15.5,38.082 "/>
<path fill-rule="evenodd" clip-rule="evenodd" fill="#1A1A18" d="M15.354,21.778c0,0,0.121-0.19,0.201-0.458
	c0.08-0.266,0.189-1.318,0.176-1.633s-0.072-1.295-0.029-1.584s0.145-0.653,0.203-0.766c0.057-0.113,0.115-0.842,0.029-0.674
	c-0.084,0.17-0.262,0.665-0.344,0.906c-0.082,0.243-0.27,1.096-0.297,1.221c-0.027,0.126-0.104,0.159-0.1,0.341
	c0.004,0.183,0.145,1.548,0.135,1.695C15.321,20.974,15.354,21.778,15.354,21.778z"/>
<path id="player-shorts" fill-rule="evenodd" clip-rule="evenodd" fill="#FFFFFF" d="M7.408,32.498c0,0-0.01,0.135,0.1,0.137
	c0.069,0,0.254,0.037,0.534,0.057c0.16,0.013,0.724,0.08,0.862,0.104c0.379,0.066,0.739,0.146,1.108,0.25
	c0.37,0.104,1.19,0.353,1.588,0.515c0.397,0.162,0.538,0.313,0.602,0.249c0.062-0.062,0.091-0.294,0.205-0.778
	c0.112-0.476,0.256-1.086,0.278-1.128c0.046-0.084,0.159-0.049,0.167,0.057c0.007,0.104-0.062,0.454-0.07,0.683
	c-0.01,0.229-0.088,0.639-0.118,1.101c-0.031,0.461-0.073,2.139-0.073,2.139s0.062,0.148,0.281,0.217
	c0.217,0.068,0.541,0.166,0.541,0.166l0.892,0.049c0,0,1.374,0.055,1.77,0.055s0.592,0.012,0.836,0
	c0.244-0.011,0.465-0.015,0.543-0.053s0.102-0.092,0.102-0.092l0.027-1.958c0,0,0.055-1.647,0.066-2.495
	c0.006-0.414,0.025-1.301,0.025-2.063c-0.002-0.798-0.023-1.472-0.037-1.792c-0.027-0.624-0.156-1.734-0.209-2.137
	s-0.189-0.707-0.189-0.707s-0.002-0.02-0.109-0.155c-0.109-0.136-0.266,0.029-0.266,0.029s-0.133,0.089-0.268,0.139
	c-0.135,0.051-0.426,0.067-0.426,0.067s-0.219,0-0.338-0.009c-0.121-0.008-0.162-0.173-0.047-0.268
	c0.111-0.091,0.359-0.198,0.359-0.198s0.359-0.07,0.566-0.192s0.309-0.215,0.373-0.37c0.064-0.156-0.09-0.406-0.174-0.521
	s-0.15-0.117-0.316-0.044c-0.164,0.073-0.541,0.2-0.879,0.272c-0.336,0.072-1.316,0.189-1.703,0.188
	c-0.385,0-1.078-0.016-1.596-0.049c-0.52-0.033-1.264-0.201-1.841-0.311c-0.578-0.109-0.787-0.16-1.017-0.213
	s-0.331-0.094-0.464-0.104c-0.133-0.009-0.2,0.059-0.213,0.158c-0.013,0.099-0.098,0.155,0.027,0.252
	c0.123,0.098,0.441,0.217,0.799,0.295c0.357,0.077,0.701,0.157,0.838,0.181c0.138,0.022,0.683,0.231,0.792,0.251
	c0.108,0.019,0.263,0.078,0.417,0.146c0.156,0.068,0.146,0.182,0.088,0.244c-0.059,0.061-0.193,0.1-0.373,0.073
	c-0.178-0.026-0.914-0.203-0.914-0.203l-0.873-0.206l-0.396-0.125c0,0,0.22,0.561,0.159,0.81s-0.227,0.868-0.36,0.953
	c-0.131,0.085-0.168,0.062-0.209,0.005c-0.041-0.059,0.15-0.795,0.154-1.012S8.81,24.341,8.81,24.341s-0.248,0.117-0.373,0.616
	s-0.366,2.116-0.366,2.116l-0.218,1.693l-0.205,1.316L7.408,32.498z M10.729,27.551c0.076-0.054,0.404-0.079,0.569-0.011
	c0.164,0.066,1.054,0.623,1.173,0.743c0.117,0.12,0.195,0.571,0.294,0.649c0.099,0.08,0.147,0.083,0.21-0.004
	c0.064-0.086,0.102-0.883,0.127-1.045c0.024-0.16,0.208-0.455,0.277-0.465c0.068-0.008,0.054,0.348,0.008,0.471
	c-0.047,0.125-0.077,0.347-0.016,0.359c0.061,0.013,1.333-0.101,1.451-0.07c0.117,0.029-0.061,0.455-0.201,0.492
	c-0.139,0.037-0.874,0.109-1.049,0.195c-0.177,0.088-0.48,0.547-0.539,0.801c-0.058,0.253-0.106,0.688-0.106,0.688H12.88
	c0,0-0.083-0.619-0.172-0.854c-0.088-0.234-0.643-0.705-0.883-0.881s-0.431-0.28-0.623-0.344s-0.382-0.055-0.461-0.108
	C10.664,28.114,10.656,27.605,10.729,27.551z"/>
<path id="hair-p" fill="#F7DD7F" d="M12.898,1.735c0,0,0.298-0.725,1.085-0.725c0.753,0,1.08,0.717,1.08,0.717
	s-0.338-0.35-1.029-0.35C13.279,1.377,12.898,1.735,12.898,1.735z"/>
<path fill="#FFFFFF" d="M12.929,1.982c0,0,0.39-0.343,1.111-0.343c0.609,0,1.017,0.391,1.017,0.391s-0.484-0.18-1.044-0.18
	C13.47,1.85,12.929,1.982,12.929,1.982z"/>
<path id="hair" fill-rule="evenodd" clip-rule="evenodd" fill="#F7DD7F" d="M15.795,5.366c-0.01,0-0.125,0.108-0.133,0.089
	c-0.15-0.383-0.146-0.94-0.057-1.369c0.025-0.115-0.223,0.168-0.283,0.62c-0.061,0.452,0.035,0.658,0.035,0.658
	s-1.205-1.768-1.203-1.729c0.057,0.709,0.338,0.728,0.876,1.686c0.033,0.108-1.324-1.417-1.444-1.658
	c-0.122-0.026-0.157,0.229,1.204,1.745c0.092,0.124-1.723-1.221-1.793-1.335c-0.065-0.108,0.199,0.276,1.058,1.068
	c0.09,0.082-1.553-0.318-1.747-1.451C12.3,3.633,12.12,3.735,12.093,4.483c-0.018,0.534-0.199,1.508-0.213,1.41
	c-0.02-0.135-0.141-0.224-0.301,0.178c-0.062-0.083-0.224-0.64-0.321-1.394c-0.058-0.728,0.233-1.5,0.64-1.905
	c0.291-0.28,0.798-0.554,1.695-0.622c0.777-0.06,1.156-0.005,1.718,0.237c0.543,0.27,0.85,0.612,1,0.851
	c0.15,0.236,0.348,0.562,0.309,1.288c-0.008,0.544-0.225,1.303-0.311,1.542c-0.07,0.197-0.191,0.404-0.174,0.347
	c0.146-0.439-0.004-0.669,0.012-0.792c0.023-0.181-0.236,0.397-0.225,0.209C15.95,5.406,15.795,5.366,15.795,5.366z"/>
<path id="skin-face" fill-rule="evenodd" clip-rule="evenodd" fill="#F9CAA9" d="M11.59,6.589c-0.044,0.186,0.029,0.385,0.122,0.721
	c0.078,0.278,0.36,0.381,0.36,0.381s0.222,0.586,0.517,1.062c0.335,0.484,0.679,0.95,1.244,0.95c0.554,0,0.978-0.522,1.279-0.95
	c0.314-0.484,0.59-1.045,0.59-1.045l0.059-0.117c0,0,0.156,0.059,0.225,0.004c0.129-0.105,0.42-0.466,0.447-0.786
	c0.012-0.146-0.113-0.224-0.113-0.224s-0.07,0.143-0.174,0.282c-0.104,0.139-0.271,0.277-0.271,0.277l0.021-0.854l-0.137,0.125
	c0,0-0.074-0.186-0.064-0.363c-0.01-0.168-0.057-0.273-0.057-0.273l-0.145,0.091l-0.051-0.284c0,0,0,0.027-0.027,0.102
	c-0.037,0.025-0.264-0.138-0.301-0.125c-0.047,0.056-0.186-0.001-0.186,0.051c0,0.064-0.236,0.099-0.326,0.017l-0.306-0.212
	c-0.074-0.047-0.182,0.048-0.363,0.019c-0.182-0.029-0.787-0.259-0.857-0.317c-0.502-0.289-0.651-0.532-0.651-0.532
	s-0.032-0.016-0.079,0.51c-0.033,0.362-0.098,0.484-0.145,0.717c-0.046,0.233-0.231,0.748-0.231,0.748s-0.01-0.333-0.129-0.346
	C11.721,6.207,11.634,6.402,11.59,6.589z M13.491,6.258l-0.767-0.274c0.476,0.146,0.577,0.064,0.712,0.072
	C13.708,6.076,13.491,6.258,13.491,6.258z M13.856,7.636c-0.096,0.021-0.24-0.028-0.24-0.028l0.128-0.092
	C13.744,7.516,13.788,7.613,13.856,7.636z M13.986,8.287c-0.13,0.076-0.171-0.001-0.231-0.023l0.089-0.07
	C13.925,8.193,14.013,8.213,13.986,8.287z M14.257,7.605l-0.027,0.017L14.12,7.658l-0.124-0.021l0.16-0.124L14.257,7.605z
	 M15.135,6.016l-0.767,0.275c0,0-0.217-0.183,0.055-0.202C14.559,6.081,14.661,6.162,15.135,6.016z M14.78,6.707
	c0,0-0.047,0.027-0.219-0.002c-0.063-0.009-0.165-0.125-0.188-0.104c-0.146,0.129-0.032,0.255-0.066,0.247
	c-0.091-0.024-0.062-0.238-0.062-0.238s0.008-0.2,0.271-0.237c0.171-0.025,0.519,0.029,0.57,0.028l0.482-0.02L15.188,6.57
	l-0.229-0.012L14.92,6.576C14.92,6.576,14.969,6.633,14.78,6.707z M13.126,8.412c-0.07-0.062,0.285-0.02,0.285-0.02
	s0.146,0.03,0.27-0.006c0.123-0.037,0.168,0.035,0.224-0.008c0.2-0.154,0.228,0.031,0.374,0.039c0.145,0.01,0.269-0.025,0.369,0.008
	c0.031,0.01,0.109,0.021,0.109,0.021l-0.167,0.084c0,0-0.228-0.021-0.359,0.025c-0.059,0.02-0.143,0.066-0.143,0.066
	s0.045,0.102,0.027,0.165c-0.033,0.116-0.292,0.11-0.292,0.11l-0.137-0.051l0.009-0.078c0,0,0.115-0.015,0.189-0.016
	c0.053-0.002-0.049-0.142-0.049-0.142s-0.237-0.024-0.332-0.031C13.362,8.57,13.21,8.487,13.126,8.412z M12.235,6.381L12.72,6.4
	c0.05,0.001,0.397-0.053,0.568-0.028C13.552,6.41,13.56,6.61,13.56,6.61s0.029,0.214-0.062,0.238
	c-0.033,0.008,0.08-0.118-0.066-0.247c-0.022-0.02-0.125,0.095-0.188,0.104c-0.172,0.029-0.22,0.002-0.22,0.002
	c-0.19-0.074-0.14-0.131-0.14-0.131l-0.039-0.018l-0.23,0.012L12.235,6.381z"/>
<path id="skin-neck" fill-rule="evenodd" clip-rule="evenodd" fill="#F9CAA9" d="M13.685,12.335l1.156-2.703
	c0,0-0.125,0.188-0.519,0.362c-0.131,0.058-0.386,0.063-0.59,0.06c-0.26-0.005-0.432-0.088-0.594-0.172
	c-0.307-0.156-0.406-0.359-0.406-0.359L13.685,12.335z"/>
</svg>
