<?xml version="1.0" encoding="utf-8"?>
<!-- Generator: Adobe Illustrator 16.0.4, SVG Export Plug-In . SVG Version: 6.00 Build 0)  -->
<!DOCTYPE svg PUBLIC "-//W3C//DTD SVG 1.1//EN" "http://www.w3.org/Graphics/SVG/1.1/DTD/svg11.dtd" [
	<!ENTITY ns_flows "http://ns.adobe.com/Flows/1.0/">
	<!ENTITY ns_extend "http://ns.adobe.com/Extensibility/1.0/">
	<!ENTITY ns_ai "http://ns.adobe.com/AdobeIllustrator/10.0/">
	<!ENTITY ns_graphs "http://ns.adobe.com/Graphs/1.0/">
]>
<svg version="1.1" id="Ebene_1" xmlns:x="&ns_extend;" xmlns:i="&ns_ai;" xmlns:graph="&ns_graphs;"
	 xmlns="http://www.w3.org/2000/svg" xmlns:xlink="http://www.w3.org/1999/xlink" xmlns:a="http://ns.adobe.com/AdobeSVGViewerExtensions/3.0/"
	 x="0px" y="0px" width="28.2px" height="50px" viewBox="0 0 28.2 50" style="enable-background:new 0 0 28.2 50;"
	 xml:space="preserve">
<style type="text/css">
<![CDATA[
	.st0{fill-rule:evenodd;clip-rule:evenodd;fill:#1A1A18;}
	.st1{fill:#FBCDAA;}
	.st2{fill-rule:evenodd;clip-rule:evenodd;fill:#FBCDAA;}
	.st3{fill-rule:evenodd;clip-rule:evenodd;fill:#FFFFFF;}
	.st4{fill-rule:evenodd;clip-rule:evenodd;fill:#0068B4;}
]]>
</style>
<path class="st0" d="M27.04,21.23c-0.05-0.12-1.12-1.5-1.12-1.5l-0.3-1.04l-0.61-2.32l-0.45-1.71l0.14-0.08l0.04-0.26l-0.1-0.82
	l-0.17-0.93c0,0,0.06-0.61,0.05-0.91s-0.31-1.66-0.43-1.94c-0.06-0.13-0.2-0.4-0.35-0.61c-0.17-0.23-0.35-0.41-0.47-0.51
	c-0.23-0.19-0.63-0.36-0.92-0.46c-0.29-0.1-0.8-0.12-0.8-0.12l-0.42,0L21.03,8l0.02-0.33l0.66-2.2l0.12-0.28l0.18-0.37l0.38-0.96
	L22.2,3.16l0.09-0.74l-0.52-0.8l-0.52-0.41l-0.29-0.34L20.19,0.9l-0.17-0.3l-0.71-0.05l-1.09-0.2l-0.04,0.12l-1.15,0.43l-0.22,0.32
	l-0.39,0.01l-0.67,0.8L15.1,3.64l0.24,0.07l0.13,0.42l-0.17,0.59l0.2,0.19l0.15,0.15l0.1,0.54l0.21,0.58l0.41,0.76l0.19,0.36
	L16.47,8.1L16.35,8.2L16.09,8.3l-1.01,0.43c0,0-1.09,0.47-1.42,0.69c-0.32,0.21-1.03,0.68-1.31,1.1c-0.28,0.42-0.98,1.76-0.98,1.76
	l-0.8,2.01l-0.64,1.89l-0.17,0.47l0.36,0.19c0,0-0.34,0.97-0.34,1.26c0,0.29-0.07,0.67,0.1,1.09c0.15,0.38,0.38,0.71,0.64,0.86
	c0.26,0.15,1.21,0.47,1.21,0.47l1.05,0.44c0,0-0.2,0.28-0.27,0.49c-0.07,0.21-0.01,0.6-0.08,0.65c-0.07,0.04-0.19,0.11-0.19,0.11
	s-0.12,0.18-0.22,0.35s-0.53,1.47-0.53,1.47l-0.4,1.09l-0.65,1.75l-0.99,2.48l-1.24,3.42c0,0,0,0.13,0.05,0.17s0.15,0.12,0.15,0.12
	l0.04,0.04l-0.06,0.28l-0.3,1.13l-0.32,1.09l-0.2,0.63l-0.19,0.2c0,0-0.23,0.31-0.38,0.46c-0.14,0.15-0.32,0.58-0.32,0.58
	s-0.12,0.52-0.12,0.63s0.05,0.38-0.02,0.5s-0.2,0.33-0.2,0.33l-0.34,0.89l-0.67,1.78l-0.5,1.27l-0.57,1.44c0,0-0.17-0.07-0.25,0.02
	c-0.09,0.1-0.3,0.81-0.3,0.81l-0.91,0.97l-0.52,0.72l-1.23,1.06c0,0-0.35,0.31-0.35,0.59s-0.05,0.4,0.16,0.6
	c0.1,0.09,0.32,0.2,0.6,0.29c0.05,0.01,0.13,0.22,0.17,0.23c0.04,0.01,0.16,0,0.2,0.02S2,49.56,2.03,49.57c0.15,0.04,0.3,0,0.3,0
	l0.21-0.05l0.24-0.09c0,0,0,0.1,0.09,0.15s0.34-0.06,0.4-0.11c0.07-0.06,0.09-0.24,0.09-0.24l1.26-0.69l0.35-0.19
	c0,0,0.17,0.13,0.25,0.13c0.08,0,0.22-0.06,0.28-0.14s0-0.23,0-0.23l0.23-0.1l0.16-0.06c0,0,0.07,0.08,0.11,0.11
	c0.04,0.03,0.15-0.03,0.2-0.08c0.06-0.04,0.13-0.24,0.13-0.24l0.47-0.26c0,0,0.15-0.16,0.21-0.32c0.06-0.16-0.09-0.63-0.12-0.79
	s0.02-0.65,0.06-0.74c0.03-0.09-0.1-0.45-0.09-0.52c0-0.07,0.25-0.6,0.38-0.83c0.13-0.23,0.73-1.32,0.9-1.63s0.83-1.49,0.83-1.49
	l0.12-0.38c0,0,0.08-0.54,0.06-0.63C9.14,40.1,9.15,40,9.25,39.95c0.23-0.11,0.53-0.35,0.53-0.35c0,0,0.16-0.13,0.28-0.35
	s0.25-0.5,0.25-0.5l0.21-0.66l0.09-0.32l0.82-1.28l1.26-1.55l0.43-0.3c0,0,0.8,0.14,0.98,0.16c0.17,0.02,0.53,0.08,0.6,0
	c0.07-0.08,0.51-1.23,0.51-1.23l0.63-1.53l0.83-2.17l0.28,1.46l0.44,2.07l0.1,0.46l0.06,0.06l0.24,0.06l0.03,0.2
	c0,0-0.33,0.04-0.54,0.13c-0.21,0.09-0.59,0.41-0.67,0.47s-0.17,0.05-0.5,0.06s-0.82,0.15-1.08,0.3c-0.26,0.14-0.48,0.38-0.95,0.72
	s-0.98,0.8-0.98,0.8l-0.25,0.17c0,0-0.43-0.17-0.5-0.2c-0.07-0.02-0.15-0.1-0.25-0.04c-0.1,0.06-0.32,0.19-0.35,0.28
	s-0.27,0.38-0.3,0.53c-0.03,0.15-0.18,0.86-0.18,0.86s-0.22,0.04-0.27,0.06c-0.05,0.03-0.11,0.2-0.08,0.29
	c0.03,0.08,0.19,0.3,0.19,0.3l-0.54,1.82l-0.11,0.35c0,0-0.19,0.07-0.24,0.12c-0.04,0.06-0.08,0.34-0.09,0.34
	c-0.09,0,0.2,0.15,0.2,0.15l0,0.38c0,0-0.2,0.04-0.23,0.13s0,0.37,0.01,0.4c0.02,0.03,0.18,0.07,0.18,0.07l0.01,0.51
	c0,0,0.1,0.31,0.24,0.46c0.14,0.15,0.43,0.36,0.72,0.38s0.5-0.25,0.63-0.43c0.13-0.18,0.48-1.11,0.66-1.5s1.11-2.16,1.11-2.16
	l0.22-0.47l0.5-0.35l0.22-0.44l1.57-0.54l1.28-0.48c0,0,0.28,0.14,0.47,0.2s0.84-0.02,1.05-0.08c0.31-0.09,0.48-0.2,0.58-0.31
	s0.23-0.37,0.23-0.37l0.5-0.24l1.41-0.77l0.89-0.53L23,35.08l0.33-0.71l0.1-0.66l0.08-0.85c0,0,0.2-0.05,0.35-0.1
	c0.13-0.04,0.11-0.11,0.09-0.33s-0.09-0.48-0.16-0.78s-0.08-0.44-0.19-0.94s-0.39-1.78-0.5-2.31s-0.47-2.05-0.47-2.05l-0.37-1.67
	c0,0-0.25-1.02-0.38-1.45c-0.13-0.43-0.32-0.76-0.32-0.76l0.03-0.19l-0.01-0.32l-0.2-0.56l0.31-1.77l0.48-2l0.26-0.73l0.08-0.19
	l0.82,1.57c0,0,0.79,1.58,0.84,1.79c0.05,0.21-0.03,0.84-0.03,0.84l0.02,0.69l0.11,0.38l0.52,0.96c0,0,0.26,0.41,0.35,0.49
	c0.09,0.08,0.41,0.19,0.41,0.19l0.16,0.04c0,0,0.32,0.41,0.43,0.46s0.31,0.03,0.31,0.03l0.39-0.21c0,0,0.23,0,0.36-0.06
	c0.13-0.07,0.19-0.28,0.19-0.28s0.14-1,0.14-1.15C27.53,22.31,27.1,21.35,27.04,21.23z"/>
<polygon id="skin-arm-l" class="st1" points="23.05,15.41 24.2,14.89 25.49,19.53 25.67,19.99 25.83,20.22 26.7,21.43 27.15,22.51 
	27.03,23.46 26.79,23.52 26.69,23.33 26.72,22.82 26.67,22.67 26.56,23.43 26.48,23.71 26.35,23.76 26.19,23.61 26.18,22.62 
	26.1,22.11 26.05,22.06 25.93,21.97 25.56,21.81 25.42,21.92 25.43,22.26 25.61,22.86 25.56,23.13 25.33,23.07 24.96,22.44 
	24.54,21.64 24.52,20.93 24.6,20.38 24.46,19.86 22.74,16.17 "/>
<polygon class="st3" points="2.02,48.4 1.31,48.59 1.71,48.68 2.28,48.63 "/>
<path id="player-jersey" class="st4" d="M10.47,16.35l0.82,0.35l0.74,0.21l0.95,0.28l0.58,0.19l0.46-1.04l0.57-1.2l0.4-0.75
	l0.21-0.11l0.01,0.53l-0.44,0.98l0.14,0.43l0.35,0.31l0.97,0.57l-0.76,0.14l-0.92-0.38l-0.2,0.1l-0.61,1.13l-0.17-0.05l-0.26,0.33
	l1.27,0.61c0,0,1.18,0.6,1.32,0.6c0.14,0,0.59-0.28,0.78-0.29s1.39,0.06,1.56,0.08c0.18,0.03,0.34,0.12,0.44,0.21
	c0.1,0.1,0.21,0.3,0.21,0.3l-0.02,0.39l0.5,0.09l0.54,0.09c0,0,0.22,0.1,0.33,0.22c0.11,0.12,0.16,0.47,0.16,0.47l0.08,0.44
	l0.39-0.02l0.09-0.91l0.31-1.22l0.3-1.37l-0.14-0.33l-1.25-0.31l0.8-0.12l0.45-0.21l0.33-0.38l0.92-1.9l0.24-0.8l0.21-0.11
	l0.16,0.05l-0.06,0.75l0.95-0.54l-0.01-0.81l-0.11-0.42l-0.11-0.49c0,0,0.08-0.61,0.07-0.88s-0.23-1.42-0.37-1.77
	c-0.13-0.35-0.4-0.68-0.55-0.81c-0.16-0.13-0.35-0.22-0.5-0.31s-0.37-0.17-0.53-0.23s-0.48-0.1-0.67-0.08s-0.61,0.05-0.61,0.05
	L20.5,9.88l-0.49,1.5l-0.55,0.91l-0.58-0.52l-0.88-0.87l-0.47-0.65l-1.01-1.5l-0.16-0.05l-0.69,0.33l-0.7,0.3
	c0,0-0.61,0.23-1.04,0.45c-0.42,0.23-0.96,0.73-1.13,0.97s-0.55,0.93-0.55,0.93l-0.6,1.35l-0.82,2.1L10.47,16.35z"/>
<path id="skin-arm-r" class="st2" d="M10.68,19.62c0.14,0.11,0.99,0.45,0.99,0.45l3.67,1.39L15.98,22L17,22.34l1.32,0.14l0.17-0.07
	l0.02-0.07l-0.67-0.14l-0.45-0.12l0.14-0.07l0.88,0.12l0.68,0.08h0.29l0.2-0.07L19.5,22l-0.77-0.13l-0.44-0.09l-0.37-0.1l0.06-0.14
	l1.33,0.19l0.64,0.01l0.09-0.1l-0.01-0.18l-0.92-0.09l-0.66-0.1l-0.37-0.1l-0.02-0.23l0.25,0.04l0.76,0.13l0.88,0.04v-0.12
	l-0.12-0.16l-0.93-0.17l-1.21-0.28l-0.3-0.17l0.07-0.1l0.9-0.03l0.02-0.21l-0.2-0.14l-0.96-0.05l-0.49-0.03c0,0-0.79,0.39-0.86,0.41
	c-0.18,0.05-2.62-1.28-2.62-1.28l-0.73-0.35l0.47-0.71l-0.67-0.22l-0.79-0.25l-0.97-0.34c0,0-0.13,0.46-0.24,0.77
	c-0.11,0.32-0.18,0.85-0.03,1.2C10.42,19.27,10.54,19.51,10.68,19.62z"/>
<path id="player-sock-r" class="st4" d="M6.66,39.26c-0.11,0.22-1.95,5.07-1.95,5.07l0.36,0.17l0.02,0.31l-0.02,0.57l0.8,0.17
	l0.59-0.59l0.47-0.96l1.28-2.32l0.45-0.88l0.04-0.78l-0.14-0.26l0.05-0.16c0,0,0.34-0.02,0.46-0.06c0.12-0.04,0.22-0.14,0.38-0.24
	s0.38-0.55,0.38-0.55s0.22-0.52,0.14-0.69c-0.04-0.08-0.03-0.11-0.33-0.22c-0.33-0.12-0.71-0.22-0.98-0.32s-0.51-0.35-0.64-0.43
	s-0.2-0.21-0.3-0.21c-0.11,0-0.2,0.11-0.3,0.21s-0.31,0.44-0.35,0.63c-0.04,0.2-0.06,0.44-0.08,0.56S7,38.62,6.96,38.81
	S6.77,39.04,6.66,39.26z"/>
<polygon class="st3" points="4.45,47.43 4.23,47.02 3.56,47.51 3.88,47.6 4.45,47.43 "/>
<path id="skin-leg-r" class="st2" d="M11.74,34.31c0,0-0.58-0.19-0.94-0.3c-0.25-0.07-1.12-0.42-1.12-0.42l-0.71-0.26l-0.75,2.33
	l-0.25,0.79l0.63,0.49l0.39,0.21l1.15,0.42l0.81-1.18l1-1.38l0.43-0.5L11.74,34.31z M9.26,36.05C9.14,36,9.02,35.88,8.99,35.79
	c-0.03-0.09-0.09-0.31,0.1-0.32c0.19-0.01,0.31,0.28,0.43,0.3c0.12,0.03,0.1-0.23,0.21-0.11c0.11,0.12,0.25,0.57,0.17,0.57
	C9.82,36.25,9.37,36.1,9.26,36.05z"/>
<polygon class="st3" points="11.58,39.78 11.76,39.84 11.81,39.66 11.92,39.31 11.85,38.91 11.46,39.56 11.41,39.73 11.58,39.78 "/>
<path id="player-sock-l" class="st4" d="M13.9,37.87c0,0,0.16,0,0.26,0.09c0.1,0.1,0.14,0.23,0.21,0.29s0.37-0.1,0.81-0.22
	s1.73-0.66,1.73-0.66l0.31-0.13l0.23-0.39l0.26-0.05l0.03,0.35c0,0,0.15,0.16,0.31,0.21s0.38,0.03,0.61,0.03s0.44-0.13,0.56-0.27
	c0.12-0.14,0.21-0.42,0.19-0.47s-0.24-0.25-0.24-0.25l-0.66-0.97l-0.33-0.74c0,0-0.31-0.08-0.57-0.03
	c-0.26,0.05-0.41,0.26-0.49,0.39c-0.08,0.13-0.14,0.26-0.14,0.3c0,0.04-0.06,0.03-0.14-0.03s-0.28-0.08-0.47-0.08
	s-0.5,0.02-0.5,0.02s-0.44,0.15-0.7,0.27s-0.96,0.68-0.96,0.68s-0.97,0.73-1.02,0.79c-0.05,0.06-0.18,0.37-0.14,0.54
	c0.04,0.17,0.24,0.35,0.35,0.39C13.49,37.98,13.9,37.87,13.9,37.87z"/>
<path id="skin-leg-l" class="st2" d="M19.05,34.43l-0.42,0.14c0,0,0.02,0.18,0.14,0.43c0.12,0.25,0.53,0.82,0.68,0.99
	c0.15,0.17,0.48,0.51,0.48,0.51s0.26-0.13,0.46-0.23s0.45-0.24,0.64-0.33c0.19-0.09,0.57-0.31,0.78-0.43
	c0.21-0.12,0.33-0.22,0.33-0.22s-0.11-0.24-0.12-0.18c-0.01,0.06,0.07-0.2,0.15-0.2c0.08,0,0.24,0.05,0.24,0.05l0.21-0.07
	c0,0,0.26-0.43,0.31-0.59c0.04-0.16,0.05-0.61,0.09-0.79s0.03-0.63,0.03-0.63l-1.05,0.17c0,0-1.88,0.34-2.2,0.43
	c-0.32,0.08-0.69,0.17-0.69,0.17l0.36,0.55c0,0,0.08,0.13-0.03,0.14C19.32,34.37,19.05,34.43,19.05,34.43z"/>
<polygon id="skin-face" class="st1" points="21.29,4.4 21.36,4.17 20.82,3.37 19.68,2.91 19.41,2.95 19.38,3.07 18.87,3.05 
	17.77,3.75 17.56,4.45 16.91,5.79 16.16,5.32 16.09,5.55 16.14,5.71 16.16,5.64 16.52,6.14 16.3,6.26 16.35,6.4 16.9,6.69 
	16.97,7.47 16.9,8.46 18.21,10.4 19.36,11.6 19.66,11.14 19.99,9.91 19.92,8.95 18.94,8.47 17.99,7.78 17.7,7.44 17.89,7.24 
	18.01,7.27 18.29,7.61 19.27,8.31 20.04,8.39 20.32,8.34 20.74,7.57 21.43,5.21 "/>
<path id="player-shorts" class="st3" d="M18.57,33.37c-0.28,0.06-0.52,0.13-0.6,0.13c-0.09,0.01-0.1-0.24-0.1-0.24l-0.55-2.63
	c0,0-0.27-1.4-0.3-1.48s0.14-0.74,0.14-0.74s0.43-0.22,0.5-0.28c0.07-0.06,0.04-0.5,0.13-0.59c0.09-0.08,0.9-0.55,1.06-0.6
	c0.17-0.06,0.34-0.12,0.35-0.17c0.02-0.11-0.49-0.1-0.63-0.1s-0.41,0.16-0.53,0.23c-0.12,0.08-0.33,0.25-0.39,0.17
	s0.3-0.69,0.28-0.95s-0.33-0.75-0.39-0.63c-0.06,0.12-0.1,1.18-0.19,1.27c-0.09,0.08-1.24,0.23-1.35,0.31
	c-0.11,0.08-0.12,0.25,0.01,0.32s0.76,0.09,0.81,0.21c0.05,0.12-0.12,1.04-0.12,1.04l-1.22,3.21c0,0-0.58,1.45-0.92,2.23
	c-0.08,0.19-0.14,0.24-0.17,0.25c-0.13,0.03-0.44-0.01-0.66-0.04c-0.22-0.03-1.42-0.28-1.97-0.47s-1.47-0.51-1.7-0.59
	c-0.23-0.07-1.07-0.39-1.16-0.44s-0.15-0.1-0.17-0.17c-0.03-0.12,0.33-1.02,0.33-1.02l1.12-2.96l1.13-2.86l0.74-1.92
	c0,0,0.21-0.68,0.28-0.82c0.07-0.13,0.13-0.28,0.24-0.37s0.16-0.1,0.28-0.12s1.12,0.22,1.12,0.22s0.49,0.13,0.58,0.14
	c0.09,0.01,0.14,0.01,0.22-0.05c0.08-0.05-0.07-0.41-0.35-0.47c-0.28-0.07-1.31-0.25-1.41-0.35c-0.1-0.09-0.11-0.25-0.11-0.41
	c0-0.15,0.13-0.24,0.21-0.26s0.63,0.13,0.82,0.18s0.42,0.16,0.56,0.19c0.14,0.03,0.56,0.16,0.64,0.21s0.29,0.25,0.54,0.37
	s0.91,0.34,1.28,0.39c0.36,0.05,1.31,0.15,1.49,0.13c0.17-0.02,0.42-0.18,0.42-0.18l0.22-0.16l0.46,0.02c0,0,0.26-0.1,0.45-0.24
	c0.08-0.06,0.04-0.24,0.04-0.24s0.35-0.07,0.49-0.1c0.14-0.03,0.24-0.05,0.24-0.05s0.16-0.01,0.22,0.09
	c0.06,0.11,0.06,0.21,0.02,0.3s-0.31,0.18-0.31,0.18l-0.75,0.18c0,0-0.22,0.04-0.27,0.08s0.08,0.19,0.08,0.19s0.22,0.02,0.44,0
	s0.59-0.09,0.59-0.09s0.25-0.04,0.37,0.03c0.12,0.07,0.27,0.25,0.35,0.54c0.08,0.29,0.19,0.71,0.19,0.71l0.72,3.26l0.36,1.66
	l0.42,1.97c0,0,0.25,1.2,0.24,1.28c-0.01,0.08-0.12,0.12-0.12,0.12s-0.3,0.03-0.57,0.09c-0.27,0.06-2.17,0.4-2.54,0.48
	S18.85,33.31,18.57,33.37z"/>
<path class="st0" d="M13.36,24.78c0.05-0.14,0.04-0.22,0.04-0.22s-0.42,0.16-0.57,0.31s-0.41,0.62-0.48,0.81s-0.1,0.63-0.11,0.78
	c-0.01,0.08-0.08,0.43-0.02,0.42c0.07-0.01,0.28-0.37,0.41-0.54C12.88,25.98,13.32,24.92,13.36,24.78z"/>
<polygon class="st0" points="20.17,7.06 19.99,7.14 19.95,7.25 20.21,7.32 20.17,7.44 19.83,7.59 19.7,7.56 19.52,7.26 19.65,7.29 
	19.13,7.15 19,7.12 18.86,7.08 19.7,6.9 20.51,6.9 20.47,7.01 20.17,7.06 "/>
<polygon class="st0" points="19.16,6.31 19.47,6.15 19.54,6.32 19.28,6.35 19.16,6.31 "/>
<path class="st0" d="M18.32,4.64c0,0-0.21-0.13-0.28-0.09c-0.07,0.04-0.34,0.28-0.34,0.28l0.04-0.12c0,0,0.31-0.26,0.34-0.28
	s0.5,0.03,0.5,0.03l0.47,0.15l-0.04,0.12c0,0-0.07,0.29-0.29,0.37c-0.08,0.03-0.32,0.04-0.44-0.08S18.32,4.64,18.32,4.64z"/>
<path class="st0" d="M20.81,4.28l-0.23,0.15c0,0,0.24,0.17,0.15,0.35c-0.11,0.2-0.25,0.23-0.44,0.17c-0.14-0.05-0.19-0.19-0.19-0.19
	l-0.03,0.01l-0.13,0.19l0.01,0.43l-0.12-0.61l0.05-0.16l0.13-0.21l0.04-0.11l0.68-0.17l0.23,0.07l-0.04,0.12L20.81,4.28L20.81,4.28z
	"/>
<polygon class="st0" points="19.76,6.27 19.76,6.16 19.96,6.2 20.02,6.26 19.85,6.26 "/>
<polygon id="hair" class="st0" points="16.01,4.94 16.23,4.9 16.61,5.1 16.82,5.19 17.29,4.22 17.49,3.48 18.78,2.77 19.14,2.79 
	19.18,2.66 19.8,2.63 20.97,3.11 21.66,3.98 21.58,4.23 21.67,4.76 21.73,4.6 22.07,3.82 21.88,3.12 21.96,2.48 21.47,1.78 
	21.05,1.49 20.79,1.2 20,1.18 19.85,0.92 19.26,0.89 18.36,0.72 18.33,0.82 17.22,1.19 17.04,1.48 16.63,1.5 16.09,2.16 15.5,3.46 
	15.63,3.49 15.77,4.02 15.66,4.48 15.84,4.64 15.97,4.77 "/>
</svg>
