<?xml version="1.0" encoding="utf-8"?>
<!-- Generator: Adobe Illustrator 16.0.4, SVG Export Plug-In . SVG Version: 6.00 Build 0)  -->
<!DOCTYPE svg PUBLIC "-//W3C//DTD SVG 1.1//EN" "http://www.w3.org/Graphics/SVG/1.1/DTD/svg11.dtd" [
	<!ENTITY ns_flows "http://ns.adobe.com/Flows/1.0/">
	<!ENTITY ns_extend "http://ns.adobe.com/Extensibility/1.0/">
	<!ENTITY ns_ai "http://ns.adobe.com/AdobeIllustrator/10.0/">
	<!ENTITY ns_graphs "http://ns.adobe.com/Graphs/1.0/">
]>
<svg version="1.1" id="Ebene_1" xmlns:x="&ns_extend;" xmlns:i="&ns_ai;" xmlns:graph="&ns_graphs;"
	 xmlns="http://www.w3.org/2000/svg" xmlns:xlink="http://www.w3.org/1999/xlink" xmlns:a="http://ns.adobe.com/AdobeSVGViewerExtensions/3.0/"
	 x="0px" y="0px" width="28.2px" height="52.3px" viewBox="0 0 28.2 52.3" style="enable-background:new 0 0 28.2 52.3;"
	 xml:space="preserve">
<style type="text/css">
<![CDATA[
	.st0{fill-rule:evenodd;clip-rule:evenodd;fill:#1A1A18;}
	.st1{fill-rule:evenodd;clip-rule:evenodd;fill:#FBCDAA;}
	.st2{fill-rule:evenodd;clip-rule:evenodd;fill:#FFFFFF;}
	.st3{fill-rule:evenodd;clip-rule:evenodd;fill:#0068B4;}
]]>
</style>
<path class="st0" d="M26.9,21.02c0,0-0.32-0.71-0.47-0.99s-0.56-1.28-0.69-1.55c-0.12-0.27-0.83-1.91-0.94-2.15s-0.2-0.34-0.39-0.64
	s-0.59-0.98-0.59-0.98L23.24,14c0,0,0.04-0.07,0.08-0.11c0.08-0.08-0.11-0.23-0.19-0.34c-0.08-0.11-0.54-0.56-0.54-0.56l-0.74-0.82
	l-0.65-0.72l-0.74-0.84c0,0-0.54-0.58-0.83-0.88c-0.34-0.36-0.53-0.52-0.72-0.64c-0.2-0.12-0.32-0.18-0.54-0.27s-1.1-0.27-1.1-0.27
	L16.3,8.31l-0.64-0.07l-0.62,0l-0.36-0.2l-0.23-0.27l-0.08-0.32l0.19-0.86l0.31-0.23l0.14-0.41l0.01-0.46l0.33-0.74l-0.04-0.47
	l0.28-0.48l-0.3-0.52l0.16-0.61l-0.2-0.11l-0.08-0.28l-0.33-0.65L14.3,1.07L13.9,0.98l-0.12-0.16L13.18,0.9l-0.67-0.23l-0.88-0.17
	l-0.09,0.13l-0.78,0.12l-0.23,0.28l-0.16-0.12l-0.38,0.47L9.52,1.9L8.91,3.17l0.11,0.12l0.11,0.52L8.82,4.34L9.2,4.57l0.1,0.71
	l0.04,0.53l0.4,0.52l0.17,0.41l0.23,0.23l0.12,0.15l0.16,0.59l0.06,0.25l0.03,0.16l-0.31,0.29c0,0-0.65,0.19-0.88,0.24
	C9.09,8.69,8.63,8.88,8.29,9.07C7.94,9.25,7.38,9.63,7.11,9.85c-0.27,0.22-0.63,0.63-0.63,0.63l-0.89,1l-1.26,1.3
	c0,0-0.46,0.46-0.56,0.54s-0.3,0.37-0.3,0.37s-0.05,0.03,0,0.11s0.17,0.24,0.17,0.24l0.01,0.01l-0.24,0.33l-0.37,0.64l-0.57,1.3
	l-0.65,1.74l-0.29,0.77c0,0-0.22,0.34-0.44,0.59c-0.22,0.25-0.48,1.03-0.5,1.18s-0.13,0.53-0.1,0.69s0.52,0.87,0.67,1
	c0.15,0.13,0.38,0.29,0.52,0.34s0.18-0.01,0.35-0.07s0.29-0.23,0.42-0.4s0.29-0.46,0.29-0.46S2.84,21.74,3,21.68
	c0.16-0.06,0.68-0.75,0.72-0.83c0.05-0.09,0.05-0.25,0.04-0.43c-0.02-0.18-0.29-0.99-0.31-1.08c-0.03-0.1,0.25-0.45,0.25-0.45
	l0.64-0.95l0.59-0.94l0.29-0.22l0.41-0.31l0.16-0.1l0.51,0.53c0,0,0.07,0.1,0.21,0.22c0.1,0.08,0.19,0.02,0.19,0.02l0.83-0.67
	l0.71-0.57l0.13,0.28l0.19,1.4l0.09,1.68l0.01,3.31l0.02,0.45l0.15,0.48c0,0-0.07,0.16-0.2,0.41s-0.17,0.56-0.16,0.73
	s0.09,0.28,0.09,0.28l-0.22,0.72c0,0-0.17,0.89-0.21,1.23s-0.12,1.1-0.16,1.51S7.94,29.8,7.94,29.8l0,1.45l-0.02,1.2L8,34.17
	l0.06,1.59c0,0-0.07,1.93,0.03,2.01c0.1,0.08,0.2,0.16,0.37,0.18c0.17,0.03,0.64,0.04,0.64,0.04l0.34,1.59l0.11,0.52l0.14,0.77
	l-0.23,0.46l0.02,0.98l0.08,0.23l0.36,0.36l0.06,0.48l0.5,1.83l0.41,1.75l-0.24,0.13l0.01,0.22l-0.18,0.48l-0.45,1.23l-0.81,1.46
	c0,0-0.22,0.55-0.23,0.75c-0.01,0.2,0.17,0.37,0.34,0.45c0.17,0.08,0.64,0.11,0.64,0.11l0.46-0.11l0.2-0.08c0,0,0.07,0.06,0.16,0.08
	c0.08,0.02,0.24-0.08,0.25-0.14c0.01-0.06,0.02-0.12,0.02-0.12l0.26-0.19c0,0,0.09,0.02,0.17,0.05c0.08,0.03,0.18-0.1,0.21-0.15
	c0.05-0.09,0.04-0.24,0.04-0.24l0.78-0.64l0.4-0.49c0,0,0.08,0,0.16-0.01c0.08-0.01,0.14-0.07,0.17-0.15
	c0.03-0.09,0.02-0.25,0.02-0.25l0.42-0.66l0-0.39l-0.05-0.52l-0.01-0.07l-0.15-0.86l-0.12-0.19l-0.16-0.29l0.04-1.11l0.03-2.52
	l-0.11-0.82l-0.17-0.25l0.06-0.57l-0.24-0.35l0.12-0.97l0.39-1.1l0.3-0.85h0.14l0.12-0.02l-0.09,1.01c0,0-0.02,0.48,0.01,0.77
	s0.2,0.55,0.25,0.69s0.13,0.36,0.32,0.5s0.69,0.19,0.91,0.18s0.33-0.09,0.45-0.21s0.26-0.64,0.26-0.64l0.04-0.39l0.4-1.14l0.14-0.53
	l0.16-0.18l0.08,0c0,0,0.44,0.26,0.67,0.32c0.24,0.06,0.5,0.05,0.79,0.02c0.29-0.04,0.5-0.11,0.67-0.26
	c0.17-0.15,0.34-0.42,0.44-0.57c0.09-0.16,0.12-0.2,0.21-0.42c0.1-0.22,0.24-0.72,0.3-1.11c0.09-0.59,0.12-0.96,0.11-1.29
	c0-0.33-0.03-0.52-0.03-0.52s0.35-0.02,0.49-0.04c0.14-0.02,0.14-0.08,0.13-0.16c-0.01-0.08-0.03-0.92-0.07-1.2
	c-0.06-0.48-0.2-1.46-0.2-1.46l-0.27-1.8l-0.26-1.75l-0.4-2.25l-0.18-0.6l-0.54-1.36l0.03-0.26l0.14-0.47l0-0.89l0.06-1.13
	l0.05-0.86l0.19-1.31l0.14-2.24l0.42,0.36c0,0,0.17,0.17,0.29,0.28c0.13,0.12,0.24,0.05,0.38-0.08c0.1-0.09,0.23-0.12,0.36-0.27
	c0.08-0.09,0.31-0.25,0.31-0.25l1.05,0.99l1.35,1.66l1.5,2.26c0,0-0.16,0.42-0.17,0.64c-0.01,0.22,0.1,0.86,0.13,1.05
	s0.13,0.8,0.23,0.97c0.05,0.09,0.12,0.21,0.22,0.33c0.09,0.1,0.22,0.21,0.25,0.25c0.06,0.08,0.1,0.12,0.22,0.12
	c0.06,0,0.2-0.07,0.28-0.14c0.07-0.07,0.11-0.19,0.12-0.25c0.03-0.13-0.04-0.41-0.04-0.41l0.13,0.09c0,0,0.02,0.6,0.05,0.67
	s0.03,0.18,0.09,0.2s0.21,0.12,0.33,0.1c0.26-0.04,0.24-0.2,0.37-0.31s0.19-0.3,0.28-0.5c0.09-0.2,0.2-0.87,0.2-0.87
	s0.12-0.56,0.07-0.76C27.6,22.02,26.9,21.02,26.9,21.02z"/>
<path id="skin-arm-r" class="st1" d="M3.17,19.78l0.21,0.69l-0.05,0.19c0,0-0.39,0.56-0.47,0.55s-0.15-0.09-0.12-0.22
	c0.03-0.13,0.07-0.4,0.07-0.4l-0.08-0.18c0,0-0.19-0.16-0.33-0.13c-0.14,0.03-0.51,0.12-0.55,0.18s-0.17,0.53-0.11,0.61
	c0.05,0.09,0.12,0.17,0.19,0.23s0.4,0.26,0.4,0.26s-0.04,0.15-0.15,0.16s-0.48-0.05-0.48-0.05l0.06,0.1c0,0,0.32,0.22,0.3,0.26
	s-0.12,0.13-0.22,0.14C1.72,22.19,1.71,22.11,1.5,22c-0.21-0.12-0.55-0.69-0.57-0.77c-0.02-0.08,0.06-0.6,0.06-0.6
	s0.21-0.72,0.4-0.95s0.45-0.6,0.45-0.6l0.74-1.93l0.67-1.76l0.39-0.72l0.33-0.37l0.46,0.51l0.4,0.46l0.63,0.71L5.3,16.13L4.81,16.5
	l-0.57-0.25l-0.08,0.21l0.11,0.15l0.18,0.2l0.01,0.17l-0.14,0.27l-0.48,0.76l-0.87,1.31l0.1,0.16L3.17,19.78z"/>
<path id="skin-arm-l" class="st1" d="M27.28,23.01c-0.01,0.08-0.18,0.89-0.2,0.94c-0.02,0.06-0.08,0.11-0.14,0.2
	s-0.13,0.26-0.21,0.32c-0.06,0.04-0.09,0.04-0.13-0.04s0.07-0.59,0.04-0.69c-0.03-0.09-0.12-0.22-0.15-0.3s-0.05-0.19-0.14-0.25
	s-0.37-0.17-0.42-0.12s-0.14,0.28-0.12,0.37s0.16,0.51,0.15,0.58s-0.04,0.13-0.12,0.09s-0.22-0.25-0.33-0.39
	c-0.1-0.14-0.23-1.02-0.26-1.23c-0.03-0.21-0.04-0.41,0-0.6s0.2-0.53,0.2-0.53l-1.78-2.75l-1.33-1.7l-0.96-0.9L22.39,15l0.55-0.59
	l0.51,0.56l0.87,1.29l2.11,4.62l0.18,0.36c0,0,0.41,0.67,0.46,0.78s0.19,0.32,0.21,0.5C27.31,22.64,27.3,22.93,27.28,23.01z"/>
<path id="player-jersey" class="st3" d="M20.98,15.64c0,0-0.47,0.46-0.65,0.6s-0.23,0.18-0.4,0.01c-0.16-0.17-0.47-0.51-0.47-0.51
	l-1.12-1.2l-0.27-0.2l-0.44-0.39c0,0-0.24-0.19-0.36-0.25s-0.24-0.01-0.24-0.01s-0.06,0.13,0,0.24c0.05,0.11,0.22,0.29,0.22,0.29
	s0.22,0.17,0.28,0.28s0.11,0.36,0.11,0.36s-0.56,0.5-0.59,0.59s-0.08,0.2,0,0.24s0.24,0.04,0.36,0.01s0.52-0.44,0.52-0.44l0.23-0.19
	l0.36,0.31l0.39,0.58l-0.06,0.59l-0.08,1.75l-0.25,1.64l-0.09,1.24l-0.01,0.69l-0.04,0.78l-0.2,0.51l-0.84,0.21l-1.74,0.26
	l-2.03,0.27l-1.56-0.03l-1.47-0.22l-1.15-0.39l-0.18-0.37l-0.06-1.54l-0.03-2.13L9,17.17l-0.28-2.04l-0.08-0.31
	c0,0-0.05-0.32-0.09-0.33c-0.04-0.01-0.04-0.02-0.08,0.07c-0.04,0.09-0.03,0.37-0.13,0.52s-0.81,0.72-0.81,0.72
	s-0.68,0.56-0.79,0.65s-0.07,0.12-0.19,0c-0.11-0.12-0.64-0.77-0.64-0.77l-1.19-1.29c0,0-0.57-0.52-0.65-0.62s-0.01-0.13,0.12-0.27
	c0.13-0.14,0.62-0.59,0.62-0.59l1.71-1.84c0,0,0.54-0.59,0.84-0.86C7.68,9.94,8.38,9.45,8.8,9.28s1.17-0.41,1.17-0.41l0.29-0.01
	c0,0,0.07,0.19,0.27,0.63s1.28,1.77,1.28,1.77l0.86,0.96l0.48-0.53l0.86-1.15l0.93-1.89c0,0,0.45-0.08,0.72-0.06
	c0.27,0.01,0.47,0.06,0.83,0.14s0.39,0.11,0.62,0.17s0.98,0.22,1.22,0.33c0.25,0.11,0.43,0.28,0.58,0.41s0.72,0.7,0.72,0.7
	l1.25,1.37L22,13.07l0.42,0.43l0.32,0.36l-0.55,0.59l-0.6,0.57L20.98,15.64z"/>
<path id="skin-leg-l" class="st1" d="M18.15,37.86c-0.16,0.02-0.33,0.06-0.6-0.01c-0.27-0.08-1.39-0.69-1.55-0.87
	s-0.33-0.72-0.35-0.73c-0.01-0.01-0.12,0.01-0.24-0.01s0-0.24,0-0.24s0.16-0.07,0.24,0.01c0.08,0.08,0.44,0.56,0.47,0.61
	s0.2,0.12,0.24,0.01c0.04-0.12-0.26-1.02-0.38-1.24c-0.12-0.22-0.54-0.44-0.54-0.44l1.52-0.49c0,0,0.37-0.12,0.65-0.18
	s0.76-0.14,0.76-0.14l0.47-0.04l0.6-0.02c0,0,0.09,0.68,0.06,1.04c-0.03,0.36-0.06,0.63-0.13,0.96s-0.19,0.77-0.3,0.97
	s-0.32,0.47-0.45,0.58C18.51,37.74,18.32,37.83,18.15,37.86z"/>
<polygon class="st0" points="17.56,37.24 17.45,36.88 17.58,36.4 17.71,36.04 17.95,35.93 17.69,37.13 17.56,37.24 "/>
<path class="st0" d="M17.37,20.97C17.33,21.06,17,21.44,17,21.44s-0.41,0.69-0.62,0.71s-0.66-0.04-0.96,0.1s-0.85,0.58-0.85,0.58
	s0.2-0.76,0.38-0.95c0.18-0.2,0.5-0.51,0.73-0.59c0.23-0.08,0.94-0.03,1.08-0.1s0.49-0.47,0.49-0.47s0.29-0.58,0.38-0.71
	s0.12-0.12,0.12-0.12s0,0.14,0,0.24S17.37,20.97,17.37,20.97S17.51,20.69,17.37,20.97z"/>
<polygon id="skin-leg-r" class="st1" points="13.13,37.86 12.76,38.93 12.5,39.74 12.41,40.63 11.97,40.83 11.49,41.02 10.15,40.82 
	10.08,40.39 9.99,39.89 9.81,39.14 9.61,37.99 10.97,37.95 11.59,37.93 "/>
<polygon class="st2" points="11.88,50.2 11.64,50.2 12.12,49.48 12.24,49.74 11.88,50.2 "/>
<polygon id="player-sock-r" class="st3" points="12.68,47.23 12.43,47.22 11.57,46.19 11.19,46.19 10.53,44.15 10.37,43.27 
	10.49,43.08 10.96,42.85 11.1,42.53 10.85,42.36 10.34,42.54 9.93,42.26 9.89,41.64 9.95,41.49 10.06,41.35 10.52,41.43 11.6,41.51 
	12.23,41.28 12.38,41.18 12.48,41.28 12.09,42.03 12.09,42.28 12.59,42.29 12.82,43.69 12.78,45.33 12.91,45.46 12.7,46.22 
	12.82,46.85 12.94,46.98 12.94,47.11 12.68,47.23 12.68,47.23 "/>
<path id="skin-face" class="st1" d="M14.64,5.67L14.26,6.5c0,0-0.25,1.1-0.31,1.23s-0.21,0.39-0.28,0.51s-0.38,0.54-0.45,0.59
	S13.06,8.95,12.89,9s-0.56,0.09-0.76,0.02s-0.75-0.5-0.95-0.73c-0.19-0.23-0.36-0.45-0.43-0.66c-0.07-0.21-0.34-0.97-0.34-0.97
	l0.12-0.12L10.3,6.31l-0.24,0c0,0-0.24-0.16-0.32-0.3S9.59,5.57,9.59,5.57l0-0.12l0.12-0.24c0,0-0.04,0.31-0.01,0.36
	c0.03,0.06,0.24,0.24,0.24,0.24l0.11-0.02l0-0.17c0,0,0.05-0.76,0.1-0.93s0.34-0.81,0.47-0.94c0.13-0.13,0.49-0.26,0.49-0.26
	l0.36-0.11l0.2-0.07l0.33,0.12l0.15-0.17l0.89-0.09c0,0,0.14,0.06,0.24,0.12s0.55,0.3,0.58,0.38c0.03,0.08,0.17,0.36,0.25,0.48
	s0.19,0.3,0.19,0.3s-0.07,0.14,0,0.24s0.24,0.24,0.24,0.24s0.06-0.1,0.1-0.17c0.05-0.09,0.03-0.18,0.03-0.18s0.07,0.03,0.12,0.12
	S14.64,5.67,14.64,5.67L14.64,5.67z"/>
<path id="skin-neck" class="st1" d="M13.47,10.61c-0.3,0.39-0.8,0.91-0.8,0.91s-0.65-0.66-0.79-0.83c-0.41-0.5-0.79-1.05-0.89-1.25
	s-0.26-0.6-0.26-0.6l0.16-0.23c0,0,0.71,0.51,0.92,0.66s0.3,0.18,0.46,0.2c0.16,0.02,0.62,0.02,0.84-0.1
	c0.23-0.13,0.48-0.27,0.62-0.51s0.38-0.69,0.38-0.69l0.36,0.47c0,0-0.12,0.33-0.34,0.77S13.77,10.22,13.47,10.61z"/>
<polygon class="st0" points="10.85,39.34 10.85,39.47 10.65,39.33 10.6,39.09 10.6,38.98 10.8,39.01 10.85,39.34 "/>
<polygon class="st2" points="14.48,40.15 15,40.34 15.35,40.36 14.95,40.45 14.59,40.38 "/>
<polygon class="st0" points="12.38,6.9 12.38,6.79 12.47,6.71 12.68,6.79 12.44,6.9 "/>
<path class="st0" d="M10.87,22.45c0,0-0.14-0.2-0.23-0.49c-0.09-0.28-0.21-1.83-0.2-2.17c0.02-0.33,0.08-1.38,0.03-1.68
	s-0.28-0.85-0.34-0.97s-0.28-0.62-0.35-0.73c-0.06-0.11-0.11-0.36-0.11-0.36s0.14,0.06,0.24,0.24s0.49,0.84,0.58,1.09
	c0.09,0.26,0.42,1.32,0.45,1.45s0.12,0.17,0.11,0.36s-0.17,1.64-0.16,1.8C10.91,21.16,10.87,22.45,10.87,22.45L10.87,22.45z"/>
<polygon class="st0" points="11.86,6.9 11.79,6.82 11.91,6.7 12.15,6.82 11.97,6.98 "/>
<path id="player-shorts" class="st2" d="M19.81,30.84l-0.23-1.4l-0.25-1.8c0,0-0.28-1.72-0.42-2.25s-0.42-0.65-0.42-0.65
	s-0.26,0.63-0.25,0.86s0.22,1.01,0.18,1.08s-0.09,0.08-0.24,0c-0.15-0.09-0.34-0.75-0.41-1.01s0.18-0.86,0.18-0.86l-0.45,0.13
	l-1,0.22c0,0-0.84,0.19-1.04,0.22c-0.2,0.03-0.36-0.01-0.42-0.08s-0.08-0.19,0.1-0.26s0.35-0.14,0.48-0.16s0.75-0.24,0.9-0.27
	s0.55-0.11,0.96-0.19c0.41-0.08,0.77-0.21,0.91-0.31s0.04-0.16,0.03-0.27c-0.01-0.1-0.09-0.18-0.24-0.17
	c-0.15,0.01-0.27,0.05-0.53,0.11c-0.26,0.06-0.71,0.08-1.16,0.18s-1.75,0.35-2.1,0.38s-1.7,0.08-1.7,0.08s-1.59-0.12-2.02-0.2
	c-0.42-0.09-0.86-0.24-1.05-0.32s-0.26-0.08-0.36,0.05s-0.27,0.39-0.2,0.55s0.19,0.26,0.42,0.39s0.65,0.2,0.65,0.2
	s0.28,0.11,0.41,0.21c0.13,0.1,0.08,0.28-0.05,0.28s-0.39,0.01-0.39,0.01s-0.33-0.02-0.49-0.07s-0.3-0.15-0.3-0.15
	s-0.18-0.18-0.3-0.03s-0.13,0.17-0.13,0.17l-0.21,0.75L8.36,28.6l0.02,0.89l0,1.89l0.01,1.26l0.08,2.65l0.03,2.08
	c0,0,0.03,0.06,0.12,0.1c0.09,0.04,0.34,0.04,0.62,0.05s0.5,0,0.95,0s2.02-0.06,2.02-0.06l1.02-0.05c0,0,0.37-0.11,0.62-0.18
	S14.17,37,14.17,37s-0.05-1.78-0.08-2.27c-0.04-0.49-0.12-0.93-0.13-1.17s-0.09-0.62-0.08-0.73c0.01-0.11,0.14-0.15,0.19-0.06
	c0.03,0.04,0.19,0.69,0.32,1.2c0.13,0.51,0.16,0.76,0.23,0.83c0.07,0.07,0.23-0.09,0.69-0.26c0.45-0.17,1.39-0.44,1.81-0.55
	s0.83-0.2,1.27-0.27c0.16-0.03,0.8-0.1,0.98-0.11c0.32-0.02,0.53-0.06,0.61-0.06c0.12,0,0.11-0.14,0.11-0.14L19.81,30.84z
	 M16.28,28.81c-0.09,0.06-0.31,0.05-0.53,0.12c-0.22,0.07-0.44,0.18-0.71,0.37s-0.91,0.69-1.01,0.94c-0.1,0.25-0.2,0.91-0.2,0.91
	h-0.05c0,0-0.05-0.46-0.12-0.73s-0.41-0.76-0.62-0.85s-1.04-0.17-1.2-0.21c-0.16-0.04-0.36-0.49-0.23-0.52
	c0.13-0.03,1.59,0.09,1.66,0.07c0.07-0.01,0.04-0.25-0.02-0.38s-0.07-0.51,0.01-0.5c0.08,0.01,0.29,0.32,0.32,0.49
	c0.03,0.17,0.07,1.02,0.14,1.11c0.07,0.09,0.13,0.09,0.24,0c0.11-0.08,0.2-0.56,0.34-0.69s1.15-0.72,1.34-0.79s0.56-0.04,0.65,0.01
	C16.38,28.21,16.37,28.75,16.28,28.81z"/>
<path class="st0" d="M13.67,4.83l-0.16,0.11c0,0,0.14,0.21,0.05,0.33s-0.22,0.18-0.36,0.16s-0.23-0.17-0.23-0.17l-0.11-0.01
	l-0.11,0.78l-0.05-0.96l0.16-0.2l0.05-0.11l0.71-0.09l0.22,0.1l-0.05,0.11L13.67,4.83L13.67,4.83z"/>
<path class="st0" d="M11.15,5.27c-0.08-0.06-0.02-0.25-0.05-0.31s-0.19-0.14-0.19-0.14l-0.37,0.24l0.05-0.11l0.37-0.24l0.5,0.08
	l0.45,0.2L11.86,5.1c0,0-0.16,0.29-0.34,0.29C11.34,5.4,11.22,5.33,11.15,5.27z"/>
<polygon class="st0" points="12.7,7.68 12.6,7.67 12.5,7.79 12.6,7.79 12.89,7.8 12.89,7.92 12.69,8.04 12.21,8.03 12.12,7.78 
	12.02,7.78 11.83,7.66 11.64,7.66 11.55,7.53 11.55,7.41 11.65,7.29 12.41,7.43 13.11,7.31 13.09,7.44 13.09,7.56 12.7,7.68 "/>
<path id="hair" class="st0" d="M15.2,3.74l-0.26-0.49l0.14-0.51L14.9,2.64L14.84,2.4l-0.3-0.54l-0.47-0.47l-0.36-0.08L13.6,1.18
	l-0.52,0.07l-0.59-0.19l-0.72-0.14l-0.08,0.11l-0.75,0.11l-0.32,0.35l-0.2-0.12l-0.27,0.36L9.79,2.08l-0.5,0.99l0.1,0.1l0.1,0.59
	L9.2,4.21l0.3,0.22l0.02,0.46l0.11-0.15L9.82,4.8c0,0,0.14-0.54,0.21-0.69c0.11-0.23,0.28-0.53,0.41-0.65
	c0.13-0.12,0.64-0.3,0.64-0.3l0.36-0.11l0.19-0.06l0.26,0.12l0.14-0.16l1.05-0.09c0,0,0.14,0.05,0.23,0.12
	c0.09,0.06,0.69,0.29,0.71,0.37c0.03,0.07,0.1,0.27,0.18,0.38c0.08,0.11,0.25,0.42,0.29,0.5c0,0.01,0.17-0.07,0.17-0.07
	S15,4.28,14.96,4.51c0.03,0.06,0.02,0.2,0.05,0.26l0.08-0.19l-0.04-0.46L15.2,3.74z"/>
</svg>
