<?xml version="1.0" encoding="utf-8"?>
<!-- Generator: Adobe Illustrator 16.0.4, SVG Export Plug-In . SVG Version: 6.00 Build 0)  -->
<!DOCTYPE svg PUBLIC "-//W3C//DTD SVG 1.1//EN" "http://www.w3.org/Graphics/SVG/1.1/DTD/svg11.dtd" [
	<!ENTITY ns_flows "http://ns.adobe.com/Flows/1.0/">
	<!ENTITY ns_extend "http://ns.adobe.com/Extensibility/1.0/">
	<!ENTITY ns_ai "http://ns.adobe.com/AdobeIllustrator/10.0/">
	<!ENTITY ns_graphs "http://ns.adobe.com/Graphs/1.0/">
]>
<svg version="1.1" id="Ebene_1" xmlns:x="&ns_extend;" xmlns:i="&ns_ai;" xmlns:graph="&ns_graphs;"
	 xmlns="http://www.w3.org/2000/svg" xmlns:xlink="http://www.w3.org/1999/xlink" xmlns:a="http://ns.adobe.com/AdobeSVGViewerExtensions/3.0/"
	 x="0px" y="0px" width="28.2px" height="50px" viewBox="0 0 28.2 50" style="enable-background:new 0 0 28.2 50;"
	 xml:space="preserve">
<style type="text/css">
<![CDATA[
	.st0{fill-rule:evenodd;clip-rule:evenodd;fill:#1A1A18;}
	.st1{fill:#FBCDAA;}
	.st2{fill-rule:evenodd;clip-rule:evenodd;fill:#FBCDAA;}
	.st3{fill-rule:evenodd;clip-rule:evenodd;fill:#FFFFFF;}
	.st4{fill-rule:evenodd;clip-rule:evenodd;fill:#0068B4;}
]]>
</style>
<path class="st0" d="M1.16,21.23c0.05-0.12,1.12-1.5,1.12-1.5l0.3-1.04l0.61-2.32l0.45-1.71L3.5,14.58l-0.04-0.26l0.1-0.82
	l0.17-0.93c0,0-0.06-0.61-0.05-0.91s0.31-1.66,0.43-1.94c0.06-0.13,0.2-0.4,0.35-0.61C4.63,8.87,4.81,8.7,4.93,8.59
	C5.16,8.4,5.57,8.23,5.85,8.14c0.29-0.1,0.8-0.12,0.8-0.12l0.42,0L7.17,8L7.15,7.67l-0.66-2.2L6.37,5.18L6.19,4.81L5.81,3.85L6,3.16
	L5.91,2.42l0.52-0.8l0.52-0.41l0.29-0.34L8.01,0.9l0.17-0.3l0.71-0.05l1.09-0.2l0.04,0.12l1.15,0.43l0.22,0.32l0.39,0.01l0.67,0.8
	l0.67,1.62l-0.24,0.07l-0.13,0.42l0.17,0.59l-0.2,0.19l-0.15,0.15l-0.1,0.54l-0.21,0.58l-0.41,0.76l-0.19,0.36l0.08,0.81l0.12,0.09
	l0.25,0.11l1.01,0.43c0,0,1.09,0.47,1.42,0.69c0.32,0.21,1.03,0.68,1.31,1.1c0.28,0.42,0.98,1.76,0.98,1.76l0.8,2.01l0.64,1.89
	l0.17,0.47l-0.36,0.19c0,0,0.34,0.97,0.34,1.26c0,0.29,0.07,0.67-0.1,1.09c-0.15,0.38-0.38,0.71-0.64,0.86
	c-0.26,0.15-1.21,0.47-1.21,0.47l-1.05,0.44c0,0,0.2,0.28,0.27,0.49c0.07,0.21,0.01,0.6,0.08,0.65c0.07,0.04,0.19,0.11,0.19,0.11
	s0.12,0.18,0.22,0.35s0.53,1.47,0.53,1.47l0.4,1.09l0.65,1.75l0.99,2.48l1.24,3.42c0,0,0,0.13-0.05,0.17s-0.15,0.12-0.15,0.12
	l-0.04,0.04l0.06,0.28l0.3,1.13l0.32,1.09l0.2,0.63l0.19,0.2c0,0,0.23,0.31,0.38,0.46c0.14,0.15,0.32,0.58,0.32,0.58
	s0.12,0.52,0.12,0.63s-0.05,0.38,0.02,0.5s0.2,0.33,0.2,0.33l0.34,0.89l0.67,1.78l0.5,1.27l0.57,1.44c0,0,0.17-0.07,0.25,0.02
	c0.09,0.1,0.3,0.81,0.3,0.81l0.91,0.97l0.52,0.72l1.23,1.06c0,0,0.35,0.31,0.35,0.59c0,0.28,0.05,0.4-0.16,0.6
	c-0.1,0.09-0.32,0.2-0.6,0.29c-0.04,0.01-0.13,0.22-0.17,0.23c-0.04,0.01-0.16,0-0.2,0.02s-0.18-0.09-0.22-0.08
	c-0.15,0.04-0.3,0-0.3,0l-0.21-0.05l-0.24-0.09c0,0,0,0.1-0.09,0.15s-0.34-0.06-0.4-0.11c-0.07-0.06-0.09-0.24-0.09-0.24l-1.26-0.69
	l-0.35-0.19c0,0-0.17,0.13-0.25,0.13c-0.08,0-0.22-0.06-0.28-0.14s0-0.23,0-0.23l-0.23-0.1l-0.16-0.06c0,0-0.07,0.08-0.11,0.11
	c-0.04,0.03-0.15-0.03-0.2-0.08c-0.06-0.04-0.13-0.24-0.13-0.24l-0.47-0.26c0,0-0.15-0.16-0.21-0.32c-0.06-0.16,0.09-0.63,0.12-0.79
	s-0.02-0.65-0.06-0.74c-0.03-0.09,0.1-0.45,0.09-0.52c0-0.07-0.25-0.6-0.38-0.83c-0.13-0.23-0.73-1.32-0.9-1.63
	s-0.83-1.49-0.83-1.49l-0.12-0.38c0,0-0.08-0.54-0.06-0.63c0.01-0.03-0.01-0.14-0.11-0.19c-0.23-0.11-0.53-0.35-0.53-0.35
	c0,0-0.16-0.13-0.28-0.35s-0.25-0.5-0.25-0.5l-0.21-0.66l-0.09-0.32l-0.82-1.28l-1.26-1.55l-0.43-0.3c0,0-0.8,0.14-0.98,0.16
	c-0.17,0.02-0.53,0.08-0.6,0c-0.07-0.08-0.51-1.23-0.51-1.23l-0.63-1.53l-0.83-2.17l-0.28,1.46L10.8,33.4l-0.1,0.46l-0.06,0.06
	l-0.24,0.06l-0.03,0.2c0,0,0.33,0.04,0.54,0.13c0.21,0.09,0.59,0.41,0.67,0.47s0.17,0.05,0.5,0.06s0.82,0.15,1.08,0.3
	c0.26,0.14,0.48,0.38,0.95,0.72s0.98,0.8,0.98,0.8l0.25,0.17c0,0,0.43-0.17,0.5-0.2c0.07-0.02,0.15-0.1,0.25-0.04
	c0.1,0.06,0.32,0.19,0.35,0.28s0.27,0.38,0.3,0.53c0.03,0.15,0.18,0.86,0.18,0.86s0.22,0.04,0.27,0.06c0.05,0.03,0.11,0.2,0.08,0.29
	c-0.03,0.08-0.19,0.3-0.19,0.3l0.54,1.82l0.11,0.35c0,0,0.19,0.07,0.24,0.12c0.04,0.06,0.08,0.34,0.09,0.34
	c0.09,0-0.2,0.15-0.2,0.15l0,0.38c0,0,0.2,0.04,0.23,0.13s0,0.37-0.01,0.4c-0.02,0.03-0.18,0.07-0.18,0.07l-0.01,0.51
	c0,0-0.1,0.31-0.24,0.46c-0.14,0.15-0.43,0.36-0.72,0.38s-0.5-0.25-0.63-0.43c-0.13-0.18-0.48-1.11-0.66-1.5s-1.11-2.16-1.11-2.16
	l-0.22-0.47l-0.5-0.35l-0.22-0.44l-1.57-0.54l-1.28-0.48c0,0-0.28,0.14-0.47,0.2s-0.84-0.02-1.05-0.08
	c-0.31-0.09-0.48-0.2-0.58-0.31s-0.23-0.37-0.23-0.37l-0.5-0.24L6.5,36.1l-0.89-0.53L5.2,35.08l-0.33-0.71l-0.1-0.66L4.7,32.86
	c0,0-0.2-0.05-0.35-0.1c-0.13-0.04-0.11-0.11-0.09-0.33s0.09-0.48,0.16-0.78s0.08-0.44,0.19-0.94s0.39-1.78,0.5-2.31
	s0.47-2.05,0.47-2.05l0.37-1.67c0,0,0.25-1.02,0.38-1.45c0.13-0.43,0.32-0.76,0.32-0.76l-0.03-0.19l0.01-0.32l0.2-0.56l-0.31-1.77
	l-0.48-2L5.77,16.9l-0.08-0.19l-0.82,1.57c0,0-0.79,1.58-0.84,1.79c-0.05,0.21,0.03,0.84,0.03,0.84l-0.02,0.69l-0.11,0.38
	l-0.52,0.96c0,0-0.26,0.41-0.35,0.49c-0.09,0.08-0.41,0.19-0.41,0.19L2.5,23.66c0,0-0.32,0.41-0.43,0.46s-0.31,0.03-0.31,0.03
	l-0.39-0.21c0,0-0.23,0-0.36-0.06c-0.13-0.07-0.19-0.28-0.19-0.28s-0.14-1-0.14-1.15C0.66,22.31,1.1,21.35,1.16,21.23z"/>
<polygon id="skin-arm-r" class="st1" points="5.15,15.41 3.99,14.89 2.71,19.53 2.53,19.99 2.37,20.22 1.49,21.43 1.05,22.51 
	1.17,23.46 1.4,23.52 1.5,23.33 1.48,22.82 1.53,22.67 1.64,23.43 1.72,23.71 1.85,23.76 2.01,23.61 2.02,22.62 2.09,22.11 
	2.15,22.06 2.27,21.97 2.64,21.81 2.78,21.92 2.77,22.26 2.59,22.86 2.64,23.13 2.87,23.07 3.24,22.44 3.65,21.64 3.68,20.93 
	3.6,20.38 3.74,19.86 5.46,16.17 "/>
<polygon class="st3" points="26.18,48.4 26.89,48.59 26.49,48.68 25.92,48.63 "/>
<path id="player-jersey" class="st4" d="M17.73,16.35l-0.82,0.35l-0.74,0.21l-0.95,0.28l-0.58,0.19l-0.46-1.04l-0.57-1.2l-0.4-0.75
	l-0.21-0.11L13,14.81l0.44,0.98l-0.14,0.43l-0.35,0.31l-0.97,0.57l0.76,0.14l0.92-0.38l0.2,0.1l0.61,1.13l0.17-0.05l0.26,0.33
	l-1.27,0.61c0,0-1.18,0.6-1.32,0.6c-0.14,0-0.59-0.28-0.78-0.29s-1.39,0.06-1.56,0.08c-0.18,0.03-0.34,0.12-0.44,0.21
	c-0.1,0.1-0.21,0.3-0.21,0.3l0.02,0.39l-0.5,0.09L8.3,20.45c0,0-0.22,0.1-0.33,0.22c-0.11,0.12-0.16,0.47-0.16,0.47l-0.08,0.44
	l-0.39-0.02l-0.09-0.91l-0.31-1.22l-0.3-1.37l0.14-0.33l1.25-0.31l-0.8-0.12l-0.45-0.21l-0.33-0.38l-0.92-1.9l-0.24-0.8l-0.21-0.11
	l-0.16,0.05l0.06,0.75l-0.95-0.54l0.01-0.81l0.11-0.42l0.11-0.49c0,0-0.08-0.61-0.07-0.88s0.23-1.42,0.37-1.77
	c0.13-0.35,0.4-0.68,0.55-0.81C5.26,8.88,5.45,8.79,5.6,8.7s0.37-0.17,0.53-0.23s0.48-0.1,0.67-0.08s0.61,0.05,0.61,0.05L7.7,9.88
	l0.49,1.5l0.55,0.91l0.58-0.52l0.88-0.87l0.47-0.65l1.01-1.5l0.16-0.05l0.69,0.33l0.7,0.3c0,0,0.61,0.23,1.04,0.45
	c0.42,0.23,0.96,0.73,1.13,0.97s0.55,0.93,0.55,0.93l0.6,1.35l0.82,2.1L17.73,16.35z"/>
<path id="skin-arm-l" class="st2" d="M17.52,19.62c-0.14,0.11-0.99,0.45-0.99,0.45l-3.67,1.39L12.22,22l-1.02,0.35l-1.32,0.14
	l-0.17-0.07L9.7,22.34l0.67-0.14l0.45-0.12l-0.14-0.07l-0.88,0.12l-0.68,0.08H8.83l-0.2-0.07L8.7,22l0.77-0.13l0.44-0.09l0.37-0.1
	l-0.06-0.14l-1.33,0.19l-0.64,0.01l-0.09-0.1l0.01-0.18l0.92-0.09l0.66-0.1l0.37-0.1l0.02-0.23l-0.25,0.04l-0.76,0.13l-0.88,0.04
	v-0.12l0.12-0.16l0.93-0.17l1.21-0.28l0.3-0.17l-0.07-0.1l-0.9-0.03L9.83,19.9l0.2-0.14l0.96-0.05l0.49-0.03
	c0,0,0.79,0.39,0.86,0.41c0.18,0.05,2.62-1.28,2.62-1.28l0.73-0.35l-0.47-0.71l0.67-0.22l0.79-0.25l0.97-0.34
	c0,0,0.13,0.46,0.24,0.77c0.11,0.32,0.18,0.85,0.03,1.2C17.78,19.27,17.66,19.51,17.52,19.62z"/>
<path id="player-sock-l" class="st4" d="M21.54,39.26c0.11,0.22,1.95,5.07,1.95,5.07l-0.36,0.17l-0.02,0.31l0.02,0.57l-0.8,0.17
	l-0.59-0.59l-0.47-0.96l-1.28-2.32l-0.45-0.88l-0.04-0.78l0.14-0.26l-0.05-0.16c0,0-0.34-0.02-0.46-0.06
	c-0.12-0.04-0.22-0.14-0.38-0.24s-0.38-0.55-0.38-0.55s-0.22-0.52-0.14-0.69c0.04-0.08,0.03-0.11,0.33-0.22
	c0.33-0.12,0.71-0.22,0.98-0.32s0.51-0.35,0.64-0.43s0.2-0.21,0.3-0.21c0.11,0,0.2,0.11,0.3,0.21s0.31,0.44,0.35,0.63
	c0.04,0.2,0.06,0.44,0.08,0.56s-0.03,0.34,0.02,0.53S21.43,39.04,21.54,39.26z"/>
<polygon class="st3" points="23.75,47.43 23.97,47.02 24.64,47.51 24.32,47.6 23.75,47.43 "/>
<path id="skin-leg-l" class="st2" d="M15.81,34.51l0.43,0.5l1,1.38l0.81,1.18l1.15-0.42l0.39-0.21l0.63-0.49l-0.25-0.79l-0.75-2.33
	l-0.71,0.26c0,0-0.88,0.35-1.12,0.42c-0.36,0.11-0.94,0.3-0.94,0.3L15.81,34.51z M18.31,36.24c-0.08,0,0.06-0.45,0.17-0.57
	c0.11-0.12,0.09,0.14,0.21,0.11c0.12-0.03,0.24-0.31,0.43-0.3c0.19,0.01,0.13,0.22,0.1,0.32c-0.03,0.09-0.16,0.2-0.27,0.26
	S18.38,36.25,18.31,36.24z"/>
<polygon class="st3" points="16.62,39.78 16.44,39.84 16.39,39.66 16.28,39.31 16.35,38.91 16.74,39.56 16.79,39.73 16.62,39.78 "/>
<path id="player-sock-r" class="st4" d="M14.3,37.87c0,0-0.16,0-0.26,0.09c-0.1,0.1-0.14,0.23-0.21,0.29s-0.37-0.1-0.81-0.22
	s-1.73-0.66-1.73-0.66l-0.31-0.13l-0.23-0.39l-0.26-0.05l-0.03,0.35c0,0-0.15,0.16-0.31,0.21s-0.38,0.03-0.61,0.03
	s-0.44-0.13-0.56-0.27c-0.12-0.14-0.21-0.42-0.19-0.47s0.24-0.25,0.24-0.25l0.66-0.97l0.33-0.74c0,0,0.31-0.08,0.57-0.03
	c0.26,0.05,0.41,0.26,0.49,0.39c0.08,0.13,0.14,0.26,0.14,0.3c0,0.04,0.06,0.03,0.14-0.03s0.28-0.08,0.47-0.08s0.5,0.02,0.5,0.02
	s0.44,0.15,0.7,0.27S14,36.22,14,36.22s0.97,0.73,1.02,0.79c0.05,0.06,0.18,0.37,0.14,0.54c-0.04,0.17-0.24,0.35-0.35,0.39
	C14.71,37.98,14.3,37.87,14.3,37.87z"/>
<path id="skin-leg-r" class="st2" d="M9.15,34.43l0.42,0.14c0,0-0.02,0.18-0.14,0.43C9.31,35.26,8.9,35.83,8.75,36
	c-0.15,0.17-0.48,0.51-0.48,0.51s-0.26-0.13-0.46-0.23s-0.45-0.24-0.64-0.33c-0.19-0.09-0.57-0.31-0.78-0.43
	C6.2,35.4,6.07,35.3,6.07,35.3s0.11-0.24,0.12-0.18c0.01,0.06-0.07-0.2-0.15-0.2c-0.08,0-0.24,0.05-0.24,0.05L5.59,34.9
	c0,0-0.26-0.43-0.31-0.59c-0.04-0.16-0.05-0.61-0.09-0.79s-0.03-0.63-0.03-0.63l1.05,0.17c0,0,1.88,0.34,2.2,0.43
	c0.32,0.08,0.69,0.17,0.69,0.17l-0.36,0.55c0,0-0.08,0.13,0.03,0.14C8.88,34.37,9.15,34.43,9.15,34.43z"/>
<polygon id="skin-face" class="st1" points="6.91,4.4 6.84,4.17 7.37,3.37 8.52,2.91 8.79,2.95 8.82,3.07 9.33,3.05 10.43,3.75 
	10.64,4.45 11.29,5.79 12.04,5.32 12.11,5.55 12.06,5.71 12.04,5.64 11.68,6.14 11.9,6.26 11.85,6.4 11.3,6.69 11.23,7.47 
	11.3,8.46 9.99,10.4 8.84,11.6 8.54,11.14 8.21,9.91 8.28,8.95 9.26,8.47 10.21,7.78 10.49,7.44 10.31,7.24 10.19,7.27 9.91,7.61 
	8.92,8.31 8.16,8.39 7.88,8.34 7.46,7.57 6.77,5.21 "/>
<path id="player-shorts" class="st3" d="M9.63,33.37c0.28,0.06,0.52,0.13,0.6,0.13c0.09,0.01,0.1-0.24,0.1-0.24l0.55-2.63
	c0,0,0.27-1.4,0.3-1.48s-0.14-0.74-0.14-0.74s-0.43-0.22-0.5-0.28c-0.07-0.06-0.04-0.5-0.13-0.59c-0.09-0.08-0.9-0.55-1.06-0.6
	C9.18,26.89,9.01,26.82,9,26.78c-0.02-0.11,0.49-0.1,0.63-0.1s0.41,0.16,0.53,0.23c0.12,0.08,0.33,0.25,0.39,0.17
	s-0.3-0.69-0.28-0.95s0.33-0.75,0.39-0.63c0.06,0.12,0.1,1.18,0.19,1.27c0.09,0.08,1.24,0.23,1.35,0.31
	c0.11,0.08,0.12,0.25-0.01,0.32s-0.76,0.09-0.81,0.21c-0.05,0.12,0.12,1.04,0.12,1.04l1.22,3.21c0,0,0.58,1.45,0.92,2.23
	c0.08,0.19,0.14,0.24,0.17,0.25c0.13,0.03,0.44-0.01,0.66-0.04c0.22-0.03,1.42-0.28,1.97-0.47s1.47-0.51,1.7-0.59
	c0.23-0.07,1.07-0.39,1.16-0.44s0.15-0.1,0.17-0.17c0.03-0.12-0.33-1.02-0.33-1.02l-1.12-2.96L16.9,25.8l-0.74-1.92
	c0,0-0.21-0.68-0.28-0.82c-0.07-0.13-0.13-0.28-0.24-0.37s-0.16-0.1-0.28-0.12s-1.12,0.22-1.12,0.22s-0.49,0.13-0.58,0.14
	c-0.09,0.01-0.14,0.01-0.22-0.05c-0.08-0.05,0.07-0.41,0.35-0.47c0.28-0.07,1.31-0.25,1.41-0.35c0.1-0.09,0.11-0.25,0.11-0.41
	c0-0.15-0.13-0.24-0.21-0.26s-0.63,0.13-0.82,0.18s-0.42,0.16-0.56,0.19c-0.14,0.03-0.56,0.16-0.64,0.21s-0.29,0.25-0.54,0.37
	s-0.91,0.34-1.28,0.39c-0.36,0.05-1.31,0.15-1.49,0.13c-0.17-0.02-0.42-0.18-0.42-0.18l-0.22-0.16l-0.46,0.02
	c0,0-0.26-0.1-0.45-0.24c-0.08-0.06-0.04-0.24-0.04-0.24S7.82,22,7.68,21.96c-0.14-0.03-0.24-0.05-0.24-0.05s-0.16-0.01-0.22,0.09
	c-0.06,0.11-0.06,0.21-0.02,0.3s0.31,0.18,0.31,0.18l0.75,0.18c0,0,0.22,0.04,0.27,0.08s-0.08,0.19-0.08,0.19s-0.22,0.02-0.44,0
	s-0.59-0.09-0.59-0.09s-0.25-0.04-0.37,0.03c-0.12,0.07-0.27,0.25-0.35,0.54c-0.08,0.29-0.19,0.71-0.19,0.71l-0.72,3.26l-0.36,1.66
	L5,31.01c0,0-0.25,1.2-0.24,1.28c0.01,0.08,0.12,0.12,0.12,0.12s0.3,0.03,0.57,0.09c0.27,0.06,2.17,0.4,2.54,0.48
	S9.35,33.31,9.63,33.37z"/>
<path class="st0" d="M14.84,24.78c-0.05-0.14-0.04-0.22-0.04-0.22s0.42,0.16,0.57,0.31s0.41,0.62,0.48,0.81s0.1,0.63,0.11,0.78
	c0.01,0.08,0.08,0.43,0.02,0.42c-0.07-0.01-0.28-0.37-0.41-0.54C15.32,25.98,14.88,24.92,14.84,24.78z"/>
<polygon class="st0" points="8.03,7.06 8.21,7.14 8.25,7.25 7.98,7.32 8.03,7.44 8.37,7.59 8.5,7.56 8.68,7.26 8.55,7.29 9.07,7.15 
	9.2,7.12 9.33,7.08 8.5,6.9 7.69,6.9 7.73,7.01 8.03,7.06 "/>
<polygon class="st0" points="9.04,6.31 8.73,6.15 8.66,6.32 8.92,6.35 9.04,6.31 "/>
<path class="st0" d="M9.88,4.64c0,0,0.21-0.13,0.28-0.09c0.07,0.04,0.34,0.28,0.34,0.28l-0.04-0.12c0,0-0.31-0.26-0.34-0.28
	s-0.5,0.03-0.5,0.03L9.15,4.61l0.04,0.12c0,0,0.07,0.29,0.29,0.37C9.56,5.12,9.8,5.13,9.92,5.01S9.88,4.64,9.88,4.64z"/>
<path class="st0" d="M7.39,4.28l0.23,0.15c0,0-0.24,0.17-0.15,0.35C7.59,5,7.73,5.03,7.91,4.96C8.06,4.92,8.1,4.78,8.1,4.78
	l0.03,0.01l0.13,0.19L8.25,5.4l0.12-0.61L8.31,4.63L8.19,4.42L8.15,4.3L7.47,4.13L7.24,4.2l0.04,0.12L7.39,4.28L7.39,4.28z"/>
<polygon class="st0" points="8.44,6.27 8.44,6.16 8.24,6.2 8.17,6.26 8.35,6.26 "/>
<polygon id="hair" class="st0" points="12.19,4.94 11.97,4.9 11.59,5.1 11.38,5.19 10.91,4.22 10.71,3.48 9.42,2.77 9.06,2.79 
	9.02,2.66 8.4,2.63 7.23,3.11 6.54,3.98 6.62,4.23 6.53,4.76 6.47,4.6 6.13,3.82 6.32,3.12 6.24,2.48 6.73,1.78 7.15,1.49 7.41,1.2 
	8.2,1.18 8.35,0.92 8.94,0.89 9.84,0.72 9.87,0.82 10.98,1.19 11.16,1.48 11.57,1.5 12.11,2.16 12.7,3.46 12.57,3.49 12.43,4.02 
	12.54,4.48 12.36,4.64 12.23,4.77 "/>
</svg>
