<?xml version="1.0" encoding="utf-8"?>
<!-- Generator: Adobe Illustrator 16.0.4, SVG Export Plug-In . SVG Version: 6.00 Build 0)  -->
<!DOCTYPE svg PUBLIC "-//W3C//DTD SVG 1.1//EN" "http://www.w3.org/Graphics/SVG/1.1/DTD/svg11.dtd">
<svg version="1.1" id="Ebene_1" xmlns="http://www.w3.org/2000/svg" xmlns:xlink="http://www.w3.org/1999/xlink" x="0px" y="0px"
	 width="25.305px" height="50.561px" viewBox="0 0 25.305 50.561" enable-background="new 0 0 25.305 50.561" xml:space="preserve">
<path fill-rule="evenodd" clip-rule="evenodd" fill="#1A1A18" d="M24.559,22.136c-0.081-0.354-0.697-1.29-0.697-1.29
	s-0.725-1.631-0.835-1.901c-0.25-0.609-1.141-2.656-1.359-3.094c-0.146-0.289-0.594-0.938-0.594-0.938l-0.416-0.672
	c0,0,0.035-0.066,0.07-0.104c0.067-0.073-0.093-0.221-0.166-0.323c-0.072-0.103-0.473-0.53-0.473-0.53l-1.422-1.559
	c0,0-1.167-1.166-1.438-1.438c-0.484-0.484-1.291-0.793-1.484-0.875c-0.195-0.08-0.969-0.234-1.515-0.281
	c-0.547-0.047-1.172-0.062-1.172-0.062l-0.164,0.008c0.107-0.168,0.228-0.365,0.305-0.531c0.168-0.357,0.338-0.666,0.338-0.666
	s0.088-0.018,0.183-0.113c0.163-0.17,0.196-0.329,0.253-0.492c0.058-0.164,0.115-0.576,0.131-0.681
	c0.016-0.104-0.122-0.332-0.122-0.332s0.204-0.414,0.294-0.849c0.091-0.435,0.08-0.727,0.089-1.112
	c0.009-0.384-0.253-1.172-0.587-1.569c-0.154-0.205-0.288-0.312-0.596-0.465c-0.133-0.066-0.275-0.159-0.455-0.209
	c-0.01-0.049,0.016-0.233-0.09-0.423c-0.152-0.275-0.333-0.506-0.641-0.697c-0.317-0.199-0.967-0.259-1.333-0.02
	c-0.392,0.258-0.39,0.329-0.614,0.666c-0.201,0.306-0.1,0.486-0.1,0.486s-0.724,0.395-1.052,0.86
	C8.613,3.336,8.172,3.959,8.543,5.598L8.732,6.34c0,0-0.084-0.008-0.15,0.158C8.516,6.663,8.566,6.967,8.615,7.152
	c0.049,0.184,0.32,0.546,0.504,0.695c0.182,0.149,0.26,0.082,0.26,0.082s0.195,0.375,0.406,0.747
	c0.13,0.229,0.248,0.406,0.324,0.517l-0.066,0.002c0,0-0.775,0.131-1.297,0.266c-0.484,0.125-1.136,0.511-1.62,0.808
	C6.861,10.43,5.918,11.32,5.48,11.742S4.1,13.085,4.1,13.085s-0.406,0.432-0.494,0.509c-0.09,0.078-0.266,0.347-0.266,0.347
	s-0.043,0.03,0.002,0.106c0.043,0.076,0.151,0.229,0.151,0.229l0.013,0.012l-0.209,0.307l-0.323,0.606l-0.499,1.224l-0.57,1.641
	l-0.253,0.723c0,0-0.197,0.32-0.387,0.555c-0.19,0.232-0.421,0.967-0.437,1.107c-0.016,0.143-0.118,0.494-0.087,0.648
	c0.031,0.154,0.458,0.82,0.586,0.943s0.336,0.272,0.458,0.315c0.123,0.042,0.157-0.011,0.305-0.065
	c0.147-0.054,0.256-0.215,0.366-0.377s0.258-0.43,0.258-0.43s0.072,0.037,0.216-0.023c0.142-0.062,0.592-0.701,0.634-0.786
	c0.043-0.083,0.047-0.235,0.031-0.401c-0.017-0.168-0.255-0.93-0.276-1.021c-0.022-0.091,0.757-1.388,0.757-1.388l0.469-0.766
	l0.375-0.391l0.391-0.375l0.506,0.609c0,0,0.062,0.09,0.188,0.205c0.084,0.078,0.168,0.019,0.168,0.019l0.729-0.632l0.618-0.539
	c0,0,0.057-0.115,0.104,0.025s0.234,1.25,0.297,1.875s0.156,1.625,0.141,2.844c-0.011,0.781-0.031,1.516-0.047,2.016
	c-0.007,0.204,0.01,0.395,0.01,0.395S7.959,23.3,7.849,23.534s-0.134,0.444-0.118,0.599c0.014,0.154,0.062,0.351,0.062,0.351
	s-0.131,0.411-0.191,0.679c-0.059,0.268-0.145,0.766-0.179,1.086c-0.032,0.32-0.091,0.963-0.125,1.562s-0.062,2.057-0.052,2.822
	c0.01,0.906,0.094,3.511,0.094,4.198s-0.036,1.686,0.051,1.766c0.088,0.079,0.178,0.149,0.324,0.173
	c0.146,0.024,0.564,0.037,0.564,0.037l0.299,1.5l0.1,0.492l0.127,0.728l-0.201,0.429l0.018,0.923l0.068,0.22l0.313,0.334l0.05,0.451
	l0.432,1.723l0.357,1.645l-0.211,0.121l0.011,0.209l-0.159,0.454l-0.394,1.162l-0.713,1.376c0,0-0.196,0.518-0.205,0.705
	c-0.009,0.189,0.148,0.345,0.296,0.422c0.147,0.076,0.562,0.1,0.562,0.1l0.407-0.103l0.175-0.078c0,0,0.064,0.057,0.137,0.077
	c0.07,0.021,0.21-0.073,0.223-0.129s0.015-0.117,0.015-0.117l0.224-0.174c0,0,0.078,0.021,0.152,0.047
	c0.074,0.027,0.154-0.097,0.181-0.144c0.043-0.079,0.031-0.222,0.031-0.222l0.687-0.606l0.348-0.46c0,0,0.07-0.004,0.141-0.008
	c0.069-0.004,0.122-0.065,0.15-0.145c0.027-0.08,0.018-0.234,0.018-0.234l0.368-0.616l-0.001-0.367l-0.043-0.491l-0.013-0.064
	L12.1,45.159l-0.101-0.177l-0.142-0.27l0.034-1.042l0.028-2.374l-0.096-0.773l-0.148-0.236l0.055-0.537l-0.213-0.332l0.104-0.908
	l0.338-1.035l0.26-0.799l0.123-0.001l0.104-0.02l-0.076,0.951c0,0-0.016,0.448,0.011,0.722c0.025,0.274,0.178,0.52,0.218,0.646
	c0.041,0.127,0.119,0.337,0.278,0.475s0.607,0.179,0.794,0.173c0.188-0.005,0.289-0.086,0.396-0.192
	c0.106-0.107,0.229-0.604,0.229-0.604l0.032-0.369l0.348-1.069l0.119-0.501l0.139-0.172l0.072,0.004c0,0,0.383,0.246,0.588,0.301
	c0.206,0.054,0.438,0.047,0.691,0.014s0.435-0.105,0.584-0.246s0.301-0.39,0.382-0.537c0.081-0.146,0.101-0.191,0.187-0.396
	c0.087-0.207,0.211-0.682,0.266-1.045c0.082-0.559,0.104-0.907,0.1-1.218s-0.025-0.489-0.025-0.489s0.309-0.021,0.432-0.042
	c0.124-0.021,0.119-0.071,0.113-0.153c-0.004-0.076-0.027-0.867-0.059-1.125c-0.055-0.456-0.176-1.374-0.176-1.374l-0.238-1.696
	l-0.227-1.648l-0.35-2.114c0-0.001-0.141-0.425-0.246-0.737c-0.056-0.163-0.109-0.236-0.109-0.328c0-0.5-0.168-0.76-0.203-0.797
	c-0.062-0.062-0.068-0.141-0.043-0.234c0.004-0.01,0.072-0.885,0.09-1.812c0.008-0.389,0.062-1.047,0.094-1.531
	c0.035-0.561,0.078-1.098,0.109-1.406c0.062-0.625,0.213-1.744,0.213-1.744l0.367,0.342c0,0,0.153,0.16,0.251,0.264
	c0.112,0.116,0.208,0.043,0.331-0.075c0.088-0.083,0.589-0.485,0.589-0.485s0.519,0.486,0.923,0.93
	c0.404,0.441,1.01,1.236,1.311,1.66c0.301,0.425,1.203,2.109,1.203,2.109s-0.154,0.312-0.159,0.52
	c-0.007,0.207,0.083,0.812,0.117,0.986c0.033,0.174,0.116,0.75,0.202,0.91c0.046,0.09,0.101,0.197,0.194,0.31
	c0.077,0.094,0.197,0.199,0.222,0.233c0.053,0.075,0.088,0.112,0.193,0.116c0.053,0.001,0.18-0.065,0.242-0.129
	s0.096-0.177,0.109-0.235c0.028-0.124-0.037-0.387-0.037-0.387l0.112,0.08c0,0,0.019,0.565,0.04,0.635
	c0.021,0.068,0.029,0.167,0.08,0.191s0.186,0.114,0.289,0.096c0.227-0.042,0.213-0.187,0.322-0.292
	c0.11-0.105,0.164-0.28,0.247-0.47s0.173-0.814,0.173-0.814S24.603,22.325,24.559,22.136z"/>
<path id="skin-arm-r" fill-rule="evenodd" clip-rule="evenodd" fill="#F9CAA9" d="M3.078,19.677l0.186,0.647l-0.047,0.179
	c0,0-0.342,0.527-0.415,0.521s-0.13-0.084-0.108-0.207s0.064-0.373,0.064-0.373l-0.066-0.172c0,0-0.169-0.152-0.291-0.123
	c-0.123,0.031-0.445,0.115-0.482,0.168c-0.038,0.055-0.145,0.495-0.098,0.576c0.046,0.08,0.104,0.158,0.164,0.215
	s0.347,0.247,0.347,0.247s-0.036,0.142-0.134,0.153c-0.098,0.01-0.418-0.045-0.418-0.045l0.055,0.092c0,0,0.277,0.204,0.264,0.245
	c-0.013,0.04-0.101,0.122-0.194,0.133S1.796,21.87,1.611,21.76c-0.183-0.109-0.483-0.653-0.498-0.727
	C1.1,20.96,1.17,20.47,1.17,20.47s0.188-0.68,0.353-0.896c0.165-0.217,0.397-0.562,0.397-0.562l0.591-1.583
	c0,0,0.438-1.234,0.562-1.547s0.291-0.705,0.391-0.906c0.098-0.2,0.32-0.453,0.32-0.453s0.227,0.219,0.586,0.641
	s0.672,0.828,0.672,0.828L4.496,16.57L4.02,16.349L3.951,16.55l0.094,0.143l0.16,0.184L3.527,18.07l-0.619,1.172L3,19.392
	L3.078,19.677z"/>
<path id="skin-arm-l" fill-rule="evenodd" clip-rule="evenodd" fill="#F9CAA9" d="M24.202,22.71
	c-0.012,0.072-0.153,0.834-0.172,0.887s-0.071,0.102-0.126,0.188c-0.057,0.086-0.111,0.242-0.183,0.297
	c-0.052,0.039-0.08,0.035-0.113-0.036c-0.034-0.071,0.058-0.558,0.032-0.646s-0.108-0.208-0.135-0.28
	c-0.027-0.072-0.045-0.18-0.125-0.236c-0.08-0.056-0.32-0.16-0.371-0.108c-0.051,0.053-0.127,0.268-0.109,0.344
	s0.144,0.476,0.135,0.548c-0.009,0.071-0.029,0.12-0.107,0.081s-0.197-0.236-0.287-0.365c-0.093-0.129-0.2-0.961-0.229-1.155
	s-0.035-0.386-0.004-0.569c0.03-0.184,0.174-0.5,0.174-0.5l-1.367-2.389l-1.625-2.146l-0.547-0.6l0.703-0.781l0.625-0.672
	c0,0,0.71,0.994,1.016,1.547c0.305,0.553,2.076,4.607,2.076,4.607l0.158,0.34c0,0,0.355,0.625,0.4,0.73
	c0.045,0.106,0.169,0.298,0.188,0.473C24.221,22.371,24.213,22.64,24.202,22.71z"/>
<path id="player-shirt" fill-rule="evenodd" clip-rule="evenodd" fill="#0068B4" d="M18.679,15.781c0,0-0.416,0.431-0.566,0.562
	c-0.15,0.133-0.204,0.17-0.349,0.012c-0.144-0.158-0.413-0.482-0.413-0.482l-0.979-1.129l-0.24-0.188l-0.387-0.363
	c0,0-0.212-0.177-0.312-0.232c-0.1-0.058-0.212-0.006-0.212-0.006s-0.051,0.123-0.004,0.227c0.048,0.104,0.191,0.271,0.191,0.271
	s0.188,0.156,0.241,0.267c0.052,0.11,0.101,0.341,0.101,0.341s-0.489,0.467-0.521,0.552s-0.072,0.189-0.004,0.226
	c0.067,0.035,0.209,0.037,0.314,0.008c0.108-0.031,0.453-0.416,0.453-0.416l0.201-0.182l0.314,0.295l0.246,0.351
	c0,0-0.02,0.459-0.062,0.917c-0.041,0.458-0.188,1.188-0.229,2.166c-0.025,0.566-0.104,1.562-0.146,2.417
	c-0.023,0.5-0.002,1.375-0.115,1.458c-0.113,0.084-0.738,0.203-0.738,0.203s-1.125,0.234-1.687,0.312s-1.207,0.16-1.619,0.182
	s-0.965,0.014-1.368-0.029S10,23.46,9.506,23.312S8.547,23,8.498,22.941s-0.033-0.215-0.033-0.215s0-0.645,0-1.166
	s0.021-1.646-0.016-2.396c-0.047-0.938-0.18-1.898-0.256-2.5c-0.074-0.6-0.256-1.363-0.256-1.363l-0.071-0.291
	c0,0-0.042-0.299-0.078-0.312c-0.036-0.015-0.035-0.018-0.069,0.064c-0.035,0.083-0.026,0.35-0.113,0.488
	c-0.086,0.139-0.709,0.672-0.709,0.672s-0.594,0.523-0.69,0.613c-0.097,0.088-0.065,0.111-0.163-0.002
	c-0.098-0.115-0.564-0.724-0.564-0.724l-1.04-1.212c0,0-0.5-0.494-0.571-0.587c-0.07-0.093-0.006-0.124,0.107-0.254
	c0.112-0.131,0.539-0.552,0.539-0.552s1.139-1.072,1.701-1.619c0.337-0.328,0.758-0.75,1.333-1.13
	c0.384-0.253,1.089-0.571,1.245-0.604c0.75-0.156,1.156-0.219,1.156-0.219s0.375,0.828,0.812,1.812
	c0.211,0.475,0.875,1.891,0.875,1.891s0.427-1.028,0.766-1.906c0.422-1.094,0.703-1.969,0.703-1.969s0.359-0.031,0.859,0.016
	s1.056,0.129,1.265,0.172c0.531,0.109,0.922,0.312,1.406,0.609c0.082,0.051,0.834,0.799,1.594,1.609
	c0.658,0.705,1.342,1.492,1.342,1.492l0.366,0.408l0.284,0.34l-0.479,0.554l-0.528,0.538L18.679,15.781z"/>
<path id="skin-leg-l" fill-rule="evenodd" clip-rule="evenodd" fill="#F9CAA9" d="M16.204,36.684
	c-0.144,0.021-0.292,0.06-0.526-0.011s-1.216-0.645-1.355-0.82c-0.137-0.177-0.292-0.679-0.303-0.686
	c-0.013-0.006-0.108,0.013-0.211-0.004c-0.104-0.017,0.004-0.227,0.004-0.227s0.145-0.068,0.211,0.006
	c0.065,0.072,0.388,0.53,0.412,0.572c0.023,0.043,0.175,0.114,0.208,0.006c0.033-0.109-0.224-0.955-0.335-1.164
	c-0.109-0.21-0.469-0.418-0.469-0.418l1.333-0.463c0,0,0.324-0.108,0.572-0.167c0.246-0.059,0.664-0.133,0.664-0.133l0.413-0.036
	l0.526-0.019c0,0,0.077,0.642,0.051,0.98c-0.025,0.339-0.05,0.592-0.113,0.906c-0.064,0.315-0.164,0.726-0.265,0.91
	c-0.1,0.185-0.276,0.441-0.394,0.548S16.349,36.664,16.204,36.684z"/>
<polygon fill-rule="evenodd" clip-rule="evenodd" fill="#1A1A18" points="15.687,36.107 15.587,35.765 15.703,35.316 15.812,34.978 
	16.025,34.87 15.794,35.997 15.687,36.107 "/>
<path fill-rule="evenodd" clip-rule="evenodd" fill="#1A1A18" d="M15.517,20.796c-0.039,0.086-0.324,0.445-0.324,0.445
	s-0.357,0.648-0.539,0.668c-0.181,0.021-0.576-0.033-0.843,0.096c-0.269,0.131-0.748,0.551-0.748,0.551s0.173-0.715,0.332-0.898
	c0.161-0.184,0.439-0.48,0.643-0.553c0.203-0.071,0.819-0.025,0.949-0.093c0.129-0.067,0.43-0.443,0.43-0.443
	s0.258-0.545,0.328-0.673c0.069-0.127,0.105-0.111,0.105-0.111s0.002,0.133-0.003,0.227C15.84,20.107,15.517,20.796,15.517,20.796
	S15.635,20.533,15.517,20.796z"/>
<polygon id="skin-leg-r" fill-rule="evenodd" clip-rule="evenodd" fill="#F9CAA9" points="11.805,36.691 11.482,37.689 
	11.252,38.455 11.172,39.294 10.791,39.477 10.367,39.656 9.195,39.476 9.131,39.066 9.053,38.597 8.891,37.892 8.723,36.806 
	9.912,36.768 10.456,36.756 "/>
<polygon id="player-sock-r" fill-rule="evenodd" clip-rule="evenodd" fill="#0068B4" points="11.412,45.5 11.191,45.497 
	10.436,44.529 10.104,44.523 9.53,42.605 9.387,41.781 9.492,41.595 9.902,41.386 10.022,41.082 9.809,40.921 9.355,41.095 
	8.998,40.823 8.965,40.247 9.021,40.099 9.115,39.972 9.521,40.044 10.461,40.125 11.015,39.902 11.148,39.812 11.236,39.908 
	10.893,40.613 10.889,40.851 11.33,40.861 11.529,42.17 11.501,43.714 11.609,43.835 11.43,44.55 11.529,45.147 11.639,45.268 
	11.637,45.386 11.412,45.5 11.412,45.5 "/>
<polygon fill-rule="evenodd" clip-rule="evenodd" fill="#1A1A18" points="9.805,38.082 9.803,38.201 9.627,38.072 9.588,37.839 
	9.59,37.744 9.764,37.771 9.805,38.082 "/>
<path fill-rule="evenodd" clip-rule="evenodd" fill="#1A1A18" d="M9.951,21.778c0,0-0.121-0.19-0.201-0.458
	c-0.08-0.266-0.188-1.318-0.176-1.633c0.014-0.314,0.072-1.295,0.029-1.584s-0.145-0.653-0.202-0.766
	c-0.057-0.113-0.116-0.842-0.03-0.674c0.084,0.17,0.262,0.665,0.344,0.906c0.082,0.243,0.27,1.096,0.297,1.221
	c0.027,0.126,0.104,0.159,0.1,0.341c-0.003,0.183-0.145,1.548-0.135,1.695C9.984,20.974,9.951,21.778,9.951,21.778z"/>
<path id="player-shorts" fill-rule="evenodd" clip-rule="evenodd" fill="#FFFFFF" d="M17.658,30.083l-0.205-1.316l-0.218-1.693
	c0,0-0.241-1.617-0.366-2.116s-0.373-0.616-0.373-0.616s-0.225,0.596-0.221,0.812s0.195,0.953,0.154,1.012
	c-0.041,0.058-0.078,0.08-0.209-0.005c-0.134-0.085-0.3-0.704-0.36-0.953s0.159-0.81,0.159-0.81l-0.396,0.125l-0.873,0.206
	c0,0-0.736,0.177-0.914,0.203c-0.18,0.026-0.314-0.013-0.373-0.073c-0.059-0.062-0.068-0.176,0.088-0.244
	c0.154-0.068,0.309-0.128,0.417-0.146c0.108-0.02,0.654-0.229,0.792-0.251c0.137-0.023,0.48-0.104,0.838-0.181
	c0.357-0.078,0.676-0.197,0.799-0.295c0.125-0.097,0.04-0.153,0.027-0.252c-0.013-0.1-0.08-0.167-0.213-0.158
	c-0.133,0.01-0.234,0.051-0.464,0.104s-0.438,0.104-1.017,0.213c-0.578,0.109-1.322,0.277-1.841,0.311
	c-0.518,0.033-1.211,0.049-1.596,0.049c-0.387,0.002-1.366-0.115-1.703-0.188c-0.338-0.072-0.715-0.199-0.879-0.272
	c-0.165-0.073-0.232-0.071-0.315,0.044c-0.084,0.115-0.238,0.365-0.175,0.521c0.064,0.155,0.166,0.248,0.373,0.37
	s0.566,0.192,0.566,0.192s0.248,0.107,0.36,0.198c0.114,0.095,0.073,0.26-0.048,0.268C9.354,25.15,9.135,25.15,9.135,25.15
	s-0.291-0.017-0.426-0.067c-0.135-0.05-0.268-0.139-0.268-0.139s-0.156-0.165-0.266-0.029C8.068,25.05,8.066,25.07,8.066,25.07
	s-0.137,0.305-0.189,0.707s-0.182,1.513-0.209,2.137c-0.014,0.32-0.035,0.994-0.037,1.792c0,0.763,0.02,1.649,0.025,2.063
	c0.012,0.848,0.066,2.495,0.066,2.495l0.027,1.958c0,0,0.024,0.054,0.103,0.092c0.077,0.038,0.298,0.042,0.543,0.053
	c0.244,0.012,0.438,0,0.835,0s1.771-0.055,1.771-0.055l0.892-0.049c0,0,0.324-0.098,0.541-0.166
	c0.219-0.068,0.281-0.217,0.281-0.217s-0.042-1.678-0.073-2.139c-0.03-0.462-0.108-0.871-0.118-1.101
	c-0.008-0.229-0.077-0.579-0.07-0.683c0.008-0.105,0.121-0.141,0.167-0.057c0.022,0.042,0.166,0.652,0.278,1.128
	c0.114,0.484,0.143,0.716,0.205,0.778c0.063,0.064,0.204-0.087,0.602-0.249c0.398-0.162,1.218-0.411,1.588-0.515
	c0.369-0.104,0.729-0.184,1.108-0.25c0.139-0.023,0.702-0.091,0.862-0.104c0.28-0.02,0.465-0.057,0.534-0.057
	c0.109-0.002,0.1-0.137,0.1-0.137L17.658,30.083z M14.564,28.168c-0.079,0.054-0.269,0.045-0.461,0.108s-0.383,0.168-0.623,0.344
	s-0.795,0.646-0.883,0.881c-0.089,0.234-0.172,0.854-0.172,0.854h-0.047c0,0-0.049-0.435-0.106-0.688
	c-0.059-0.254-0.362-0.713-0.539-0.801c-0.176-0.086-0.91-0.158-1.05-0.195s-0.318-0.463-0.201-0.492
	c0.117-0.03,1.391,0.083,1.451,0.07c0.062-0.013,0.031-0.234-0.016-0.359c-0.046-0.123-0.061-0.479,0.008-0.471
	c0.069,0.01,0.253,0.305,0.277,0.465c0.025,0.162,0.062,0.959,0.127,1.045c0.062,0.087,0.111,0.084,0.21,0.004
	c0.099-0.078,0.177-0.529,0.294-0.649c0.119-0.12,1.009-0.677,1.173-0.743c0.165-0.068,0.493-0.043,0.569,0.011
	C14.65,27.605,14.642,28.114,14.564,28.168z"/>
<path id="hair-p" fill="#F7DD7F" d="M12.407,1.735c0,0-0.298-0.725-1.085-0.725c-0.754,0-1.08,0.717-1.08,0.717
	s0.338-0.35,1.029-0.35C12.026,1.377,12.407,1.735,12.407,1.735z"/>
<path fill="#FFFFFF" d="M12.377,1.982c0,0-0.39-0.343-1.111-0.343c-0.609,0-1.018,0.391-1.018,0.391s0.484-0.18,1.045-0.18
	C11.836,1.85,12.377,1.982,12.377,1.982z"/>
<path id="hair" fill-rule="evenodd" clip-rule="evenodd" fill="#F7DD7F" d="M9.511,5.366c0.009,0,0.124,0.108,0.132,0.089
	c0.15-0.383,0.146-0.94,0.057-1.369c-0.025-0.115,0.223,0.168,0.283,0.62c0.061,0.452-0.034,0.658-0.034,0.658
	s1.204-1.768,1.202-1.729c-0.057,0.709-0.338,0.728-0.877,1.686c-0.032,0.108,1.324-1.417,1.444-1.658
	c0.122-0.026,0.157,0.229-1.204,1.745c-0.091,0.124,1.724-1.221,1.794-1.335c0.065-0.108-0.199,0.276-1.058,1.068
	c-0.09,0.082,1.553-0.318,1.747-1.451c0.009-0.058,0.188,0.044,0.216,0.792c0.018,0.534,0.199,1.508,0.213,1.41
	c0.02-0.135,0.141-0.224,0.301,0.178c0.062-0.083,0.224-0.64,0.321-1.394c0.058-0.728-0.233-1.5-0.64-1.905
	c-0.291-0.28-0.798-0.554-1.695-0.622c-0.777-0.06-1.156-0.005-1.718,0.237c-0.543,0.27-0.85,0.612-1,0.851
	C8.845,3.475,8.646,3.8,8.686,4.527C8.694,5.071,8.91,5.83,8.996,6.069c0.07,0.197,0.192,0.404,0.174,0.347
	C9.023,5.977,9.175,5.747,9.158,5.624C9.135,5.442,9.395,6.021,9.383,5.833C9.355,5.406,9.511,5.366,9.511,5.366z"/>
<path id="skin-face" fill-rule="evenodd" clip-rule="evenodd" fill="#F9CAA9" d="M13.466,6.218
	c-0.119,0.012-0.129,0.346-0.129,0.346s-0.186-0.515-0.231-0.748c-0.047-0.233-0.111-0.355-0.145-0.717
	c-0.047-0.526-0.079-0.51-0.079-0.51s-0.149,0.243-0.651,0.532c-0.07,0.058-0.676,0.288-0.857,0.317
	c-0.182,0.03-0.289-0.065-0.363-0.019l-0.306,0.212c-0.091,0.082-0.327,0.047-0.327-0.017c0-0.052-0.139,0.005-0.185-0.051
	c-0.038-0.012-0.265,0.15-0.301,0.125C9.864,5.615,9.864,5.587,9.864,5.587L9.813,5.871L9.668,5.78c0,0-0.047,0.105-0.056,0.273
	C9.621,6.23,9.547,6.416,9.547,6.416L9.411,6.291l0.021,0.854c0,0-0.169-0.138-0.272-0.277c-0.103-0.14-0.174-0.282-0.174-0.282
	S8.861,6.664,8.873,6.81C8.9,7.129,9.192,7.49,9.321,7.595C9.389,7.65,9.545,7.591,9.545,7.591l0.06,0.117
	c0,0,0.274,0.561,0.589,1.045c0.301,0.428,0.726,0.95,1.279,0.95c0.565,0,0.909-0.466,1.244-0.95
	c0.295-0.477,0.517-1.062,0.517-1.062s0.282-0.104,0.36-0.381c0.093-0.335,0.166-0.535,0.122-0.721
	C13.672,6.402,13.585,6.207,13.466,6.218z M11.869,6.056c0.135-0.008,0.236,0.074,0.712-0.072l-0.767,0.274
	C11.814,6.258,11.598,6.076,11.869,6.056z M11.562,7.516l0.128,0.092c0,0-0.145,0.05-0.24,0.028
	C11.518,7.613,11.562,7.516,11.562,7.516z M11.462,8.193l0.089,0.07c-0.061,0.022-0.102,0.1-0.231,0.023
	C11.293,8.213,11.381,8.193,11.462,8.193z M11.149,7.512l0.16,0.124l-0.124,0.021l-0.109-0.036l-0.027-0.017L11.149,7.512z
	 M10.883,6.089c0.271,0.019,0.055,0.202,0.055,0.202L10.17,6.016C10.645,6.162,10.747,6.081,10.883,6.089z M10.386,6.576
	l-0.039-0.018L10.117,6.57L9.738,6.381l0.483,0.02c0.051,0.001,0.397-0.053,0.569-0.028c0.264,0.037,0.271,0.237,0.271,0.237
	S11.091,6.824,11,6.848c-0.034,0.008,0.08-0.118-0.066-0.247c-0.023-0.02-0.125,0.095-0.188,0.104
	c-0.173,0.029-0.22,0.002-0.22,0.002C10.336,6.633,10.386,6.576,10.386,6.576z M11.803,8.581c-0.095,0.007-0.332,0.031-0.332,0.031
	s-0.102,0.14-0.049,0.142c0.074,0.001,0.189,0.016,0.189,0.016l0.009,0.078l-0.137,0.051c0,0-0.259,0.006-0.292-0.11
	c-0.018-0.063,0.027-0.165,0.027-0.165s-0.084-0.047-0.143-0.066c-0.132-0.047-0.359-0.025-0.359-0.025L10.55,8.447
	c0,0,0.077-0.012,0.108-0.021c0.101-0.033,0.225,0.002,0.369-0.008c0.146-0.008,0.174-0.193,0.374-0.039
	c0.056,0.043,0.101-0.029,0.224,0.008c0.123,0.036,0.27,0.006,0.27,0.006s0.355-0.043,0.285,0.02
	C12.096,8.487,11.943,8.57,11.803,8.581z M12.691,6.57l-0.23-0.012l-0.039,0.018c0,0,0.051,0.057-0.14,0.131
	c0,0-0.048,0.027-0.22-0.002C12,6.696,11.897,6.581,11.875,6.601c-0.146,0.129-0.033,0.255-0.066,0.247
	c-0.092-0.024-0.062-0.238-0.062-0.238s0.008-0.2,0.271-0.237c0.171-0.025,0.519,0.029,0.568,0.028l0.484-0.02L12.691,6.57z"/>
<path id="skin-neck" fill-rule="evenodd" clip-rule="evenodd" fill="#F9CAA9" d="M11.621,12.335l-1.156-2.703
	c0,0,0.125,0.188,0.52,0.362c0.131,0.058,0.386,0.063,0.59,0.06c0.26-0.005,0.432-0.088,0.594-0.172
	c0.307-0.156,0.406-0.359,0.406-0.359L11.621,12.335z"/>
</svg>
