<?xml version="1.0" encoding="utf-8"?>
<!-- Generator: Adobe Illustrator 16.0.4, SVG Export Plug-In . SVG Version: 6.00 Build 0)  -->
<!DOCTYPE svg PUBLIC "-//W3C//DTD SVG 1.1//EN" "http://www.w3.org/Graphics/SVG/1.1/DTD/svg11.dtd" [
	<!ENTITY ns_flows "http://ns.adobe.com/Flows/1.0/">
	<!ENTITY ns_extend "http://ns.adobe.com/Extensibility/1.0/">
	<!ENTITY ns_ai "http://ns.adobe.com/AdobeIllustrator/10.0/">
	<!ENTITY ns_graphs "http://ns.adobe.com/Graphs/1.0/">
]>
<svg version="1.1" id="Ebene_1" xmlns:x="&ns_extend;" xmlns:i="&ns_ai;" xmlns:graph="&ns_graphs;"
	 xmlns="http://www.w3.org/2000/svg" xmlns:xlink="http://www.w3.org/1999/xlink" xmlns:a="http://ns.adobe.com/AdobeSVGViewerExtensions/3.0/"
	 x="0px" y="0px" width="28.2px" height="52.3px" viewBox="0 0 28.2 52.3" style="enable-background:new 0 0 28.2 52.3;"
	 xml:space="preserve">
<style type="text/css">
<![CDATA[
	.st0{fill-rule:evenodd;clip-rule:evenodd;fill:#1A1A18;}
	.st1{fill-rule:evenodd;clip-rule:evenodd;fill:#FBCDAA;}
	.st2{fill-rule:evenodd;clip-rule:evenodd;fill:#FFFFFF;}
	.st3{fill-rule:evenodd;clip-rule:evenodd;fill:#0068B4;}
]]>
</style>
<path class="st0" d="M1.3,21.02c0,0,0.32-0.71,0.47-0.99s0.56-1.28,0.69-1.55c0.12-0.27,0.83-1.91,0.94-2.15s0.2-0.34,0.39-0.64
	s0.59-0.98,0.59-0.98L4.96,14c0,0-0.04-0.07-0.08-0.11c-0.08-0.08,0.11-0.23,0.19-0.34c0.08-0.11,0.54-0.56,0.54-0.56l0.74-0.82
	L7,11.44l0.74-0.84c0,0,0.54-0.58,0.83-0.88C8.91,9.36,9.1,9.21,9.29,9.08c0.2-0.12,0.32-0.18,0.54-0.27s1.1-0.27,1.1-0.27
	l0.97-0.22l0.64-0.07l0.62,0l0.36-0.2l0.23-0.27l0.08-0.32l-0.19-0.86l-0.31-0.23l-0.14-0.41l-0.01-0.46l-0.33-0.74l0.04-0.47
	l-0.28-0.48l0.3-0.52l-0.16-0.61l0.2-0.11l0.08-0.28l0.33-0.65l0.53-0.56l0.41-0.09l0.12-0.16l0.59,0.08l0.67-0.23l0.88-0.17
	l0.09,0.13l0.78,0.12l0.23,0.28l0.16-0.12l0.38,0.47l0.48,0.52l0.61,1.27l-0.11,0.12l-0.11,0.52l0.31,0.53L19,4.57l-0.1,0.71
	l-0.04,0.53l-0.4,0.52l-0.17,0.41l-0.23,0.23l-0.12,0.15l-0.16,0.59l-0.06,0.25L17.7,8.11l0.31,0.29c0,0,0.65,0.19,0.88,0.24
	c0.23,0.05,0.68,0.24,1.03,0.42c0.34,0.19,0.91,0.56,1.17,0.78c0.27,0.22,0.63,0.63,0.63,0.63l0.89,1l1.26,1.3
	c0,0,0.46,0.46,0.56,0.54s0.3,0.37,0.3,0.37s0.05,0.03,0,0.11s-0.17,0.24-0.17,0.24l-0.01,0.01l0.24,0.33l0.37,0.64l0.57,1.3
	l0.65,1.74l0.29,0.77c0,0,0.22,0.34,0.44,0.59c0.22,0.25,0.48,1.03,0.5,1.18s0.13,0.53,0.1,0.69s-0.52,0.87-0.67,1
	c-0.15,0.13-0.38,0.29-0.52,0.34s-0.18-0.01-0.35-0.07s-0.29-0.23-0.42-0.4s-0.29-0.46-0.29-0.46s-0.08,0.04-0.25-0.03
	c-0.16-0.06-0.68-0.75-0.72-0.83c-0.05-0.09-0.05-0.25-0.04-0.43c0.02-0.18,0.29-0.99,0.31-1.08c0.03-0.1-0.25-0.45-0.25-0.45
	l-0.64-0.95l-0.59-0.94l-0.29-0.22l-0.41-0.31l-0.16-0.1l-0.51,0.53c0,0-0.07,0.1-0.21,0.22c-0.1,0.08-0.19,0.02-0.19,0.02
	l-0.83-0.67l-0.71-0.57l-0.13,0.28l-0.19,1.4l-0.09,1.68l-0.01,3.31l-0.02,0.45l-0.15,0.48c0,0,0.07,0.16,0.2,0.41
	s0.17,0.56,0.16,0.73s-0.09,0.28-0.09,0.28l0.22,0.72c0,0,0.17,0.89,0.21,1.23s0.12,1.1,0.16,1.51s0.03,1.45,0.03,1.45l0,1.45
	l0.02,1.2l-0.08,1.72l-0.06,1.59c0,0,0.07,1.93-0.03,2.01c-0.1,0.08-0.2,0.16-0.37,0.18c-0.17,0.03-0.64,0.04-0.64,0.04l-0.34,1.59
	l-0.11,0.52l-0.14,0.77l0.23,0.46l-0.02,0.98l-0.08,0.23l-0.36,0.36l-0.06,0.48l-0.5,1.83l-0.41,1.75l0.24,0.13l-0.01,0.22
	l0.18,0.48l0.45,1.23l0.81,1.46c0,0,0.22,0.55,0.23,0.75c0.01,0.2-0.17,0.37-0.34,0.45c-0.17,0.08-0.64,0.11-0.64,0.11l-0.46-0.11
	l-0.2-0.08c0,0-0.07,0.06-0.16,0.08c-0.08,0.02-0.24-0.08-0.25-0.14c-0.01-0.06-0.02-0.12-0.02-0.12l-0.26-0.19
	c0,0-0.09,0.02-0.17,0.05c-0.08,0.03-0.18-0.1-0.21-0.15c-0.05-0.09-0.04-0.24-0.04-0.24l-0.78-0.64l-0.4-0.49c0,0-0.08,0-0.16-0.01
	c-0.08-0.01-0.14-0.07-0.17-0.15c-0.03-0.09-0.02-0.25-0.02-0.25l-0.42-0.66l0-0.39l0.05-0.52l0.01-0.07l0.15-0.86l0.12-0.19
	l0.16-0.29l-0.04-1.11l-0.03-2.52l0.11-0.82l0.17-0.25l-0.06-0.57l0.24-0.35l-0.12-0.97l-0.39-1.1l-0.3-0.85h-0.14l-0.12-0.02
	l0.09,1.01c0,0,0.02,0.48-0.01,0.77s-0.2,0.55-0.25,0.69s-0.13,0.36-0.32,0.5s-0.69,0.19-0.91,0.18s-0.33-0.09-0.45-0.21
	s-0.26-0.64-0.26-0.64l-0.04-0.39l-0.4-1.14l-0.14-0.53l-0.16-0.18l-0.08,0c0,0-0.44,0.26-0.67,0.32c-0.24,0.06-0.5,0.05-0.79,0.02
	c-0.29-0.04-0.5-0.11-0.67-0.26c-0.17-0.15-0.34-0.42-0.44-0.57c-0.09-0.16-0.12-0.2-0.21-0.42c-0.1-0.22-0.24-0.72-0.3-1.11
	c-0.09-0.59-0.12-0.96-0.11-1.29c0-0.33,0.03-0.52,0.03-0.52S7.9,34.03,7.76,34c-0.14-0.02-0.14-0.08-0.13-0.16
	c0.01-0.08,0.03-0.92,0.07-1.2c0.06-0.48,0.2-1.46,0.2-1.46l0.27-1.8l0.26-1.75l0.4-2.25L9,24.78l0.54-1.36l-0.03-0.26l-0.14-0.47
	l0-0.89l-0.06-1.13l-0.05-0.86L9.07,18.5l-0.14-2.24l-0.42,0.36c0,0-0.17,0.17-0.29,0.28c-0.13,0.12-0.24,0.05-0.38-0.08
	c-0.1-0.09-0.23-0.12-0.36-0.27c-0.08-0.09-0.31-0.25-0.31-0.25l-1.05,0.99l-1.35,1.66l-1.5,2.26c0,0,0.16,0.42,0.17,0.64
	c0.01,0.22-0.1,0.86-0.13,1.05s-0.13,0.8-0.23,0.97c-0.05,0.09-0.12,0.21-0.22,0.33c-0.09,0.1-0.22,0.21-0.25,0.25
	c-0.06,0.08-0.1,0.12-0.22,0.12c-0.06,0-0.2-0.07-0.28-0.14c-0.07-0.07-0.11-0.19-0.12-0.25c-0.03-0.13,0.04-0.41,0.04-0.41
	l-0.13,0.09c0,0-0.02,0.6-0.05,0.67s-0.03,0.18-0.09,0.2s-0.21,0.12-0.33,0.1c-0.26-0.04-0.24-0.2-0.37-0.31s-0.19-0.3-0.28-0.5
	c-0.09-0.2-0.2-0.87-0.2-0.87S0.46,22.6,0.51,22.4C0.6,22.02,1.3,21.02,1.3,21.02z"/>
<path id="skin-arm-l" class="st1" d="M25.03,19.78l-0.21,0.69l0.05,0.19c0,0,0.39,0.56,0.47,0.55s0.15-0.09,0.12-0.22
	c-0.03-0.13-0.07-0.4-0.07-0.4l0.08-0.18c0,0,0.19-0.16,0.33-0.13c0.14,0.03,0.51,0.12,0.55,0.18s0.17,0.53,0.11,0.61
	c-0.05,0.09-0.12,0.17-0.19,0.23s-0.4,0.26-0.4,0.26s0.04,0.15,0.15,0.16s0.48-0.05,0.48-0.05l-0.06,0.1c0,0-0.32,0.22-0.3,0.26
	s0.12,0.13,0.22,0.14c0.11,0.01,0.12-0.07,0.33-0.18c0.21-0.12,0.55-0.69,0.57-0.77c0.02-0.08-0.06-0.6-0.06-0.6
	s-0.21-0.72-0.4-0.95s-0.45-0.6-0.45-0.6l-0.74-1.93l-0.67-1.76l-0.39-0.72l-0.33-0.37l-0.46,0.51l-0.4,0.46l-0.63,0.71l0.17,0.15
	l0.49,0.36l0.57-0.25l0.08,0.21l-0.11,0.15l-0.18,0.2l-0.01,0.17l0.14,0.27l0.48,0.76l0.87,1.31l-0.1,0.16L25.03,19.78z"/>
<path id="skin-arm-r" class="st1" d="M0.92,23.01c0.01,0.08,0.18,0.89,0.2,0.94c0.02,0.06,0.08,0.11,0.14,0.2
	s0.13,0.26,0.21,0.32c0.06,0.04,0.09,0.04,0.13-0.04s-0.07-0.59-0.04-0.69c0.03-0.09,0.12-0.22,0.15-0.3s0.05-0.19,0.14-0.25
	s0.37-0.17,0.42-0.12s0.14,0.28,0.12,0.37s-0.16,0.51-0.15,0.58s0.04,0.13,0.12,0.09s0.22-0.25,0.33-0.39
	c0.1-0.14,0.23-1.02,0.26-1.23c0.03-0.21,0.04-0.41,0-0.6s-0.2-0.53-0.2-0.53l1.78-2.75l1.33-1.7l0.96-0.9L5.81,15l-0.55-0.59
	l-0.51,0.56l-0.87,1.29l-2.11,4.62l-0.18,0.36c0,0-0.41,0.67-0.46,0.78s-0.19,0.32-0.21,0.5C0.89,22.64,0.9,22.93,0.92,23.01z"/>
<path id="player-jersey" class="st3" d="M7.22,15.64c0,0,0.47,0.46,0.65,0.6s0.23,0.18,0.4,0.01c0.16-0.17,0.47-0.51,0.47-0.51
	l1.12-1.2l0.27-0.2l0.44-0.39c0,0,0.24-0.19,0.36-0.25s0.24-0.01,0.24-0.01s0.06,0.13,0,0.24c-0.05,0.11-0.22,0.29-0.22,0.29
	s-0.22,0.17-0.28,0.28s-0.11,0.36-0.11,0.36s0.56,0.5,0.59,0.59s0.08,0.2,0,0.24s-0.24,0.04-0.36,0.01s-0.52-0.44-0.52-0.44
	l-0.23-0.19L9.7,15.39l-0.39,0.58l0.06,0.59l0.08,1.75l0.25,1.64l0.09,1.24l0.01,0.69l0.04,0.78l0.2,0.51l0.84,0.21l1.74,0.26
	l2.03,0.27l1.56-0.03l1.47-0.22l1.15-0.39l0.18-0.37l0.06-1.54l0.03-2.13l0.09-2.04l0.28-2.04l0.08-0.31c0,0,0.05-0.32,0.09-0.33
	c0.04-0.01,0.04-0.02,0.08,0.07c0.04,0.09,0.03,0.37,0.13,0.52s0.81,0.72,0.81,0.72s0.68,0.56,0.79,0.65s0.07,0.12,0.19,0
	c0.11-0.12,0.64-0.77,0.64-0.77l1.19-1.29c0,0,0.57-0.52,0.65-0.62s0.01-0.13-0.12-0.27c-0.13-0.14-0.62-0.59-0.62-0.59l-1.71-1.84
	c0,0-0.54-0.59-0.84-0.86c-0.31-0.27-1.02-0.75-1.43-0.92s-1.17-0.41-1.17-0.41l-0.29-0.01c0,0-0.07,0.19-0.27,0.63
	s-1.28,1.77-1.28,1.77l-0.86,0.96l-0.48-0.53l-0.86-1.15l-0.93-1.89c0,0-0.45-0.08-0.72-0.06c-0.27,0.01-0.47,0.06-0.83,0.14
	s-0.39,0.11-0.62,0.17s-0.98,0.22-1.22,0.33C9.62,9.35,9.43,9.51,9.28,9.65s-0.72,0.7-0.72,0.7l-1.25,1.37L6.2,13.07L5.78,13.5
	l-0.32,0.36l0.55,0.59l0.6,0.57L7.22,15.64z"/>
<path id="skin-leg-r" class="st1" d="M10.05,37.86c0.16,0.02,0.33,0.06,0.6-0.01c0.27-0.08,1.39-0.69,1.55-0.87s0.33-0.72,0.35-0.73
	c0.01-0.01,0.12,0.01,0.24-0.01s0-0.24,0-0.24s-0.16-0.07-0.24,0.01c-0.08,0.08-0.44,0.56-0.47,0.61s-0.2,0.12-0.24,0.01
	c-0.04-0.12,0.26-1.02,0.38-1.24c0.12-0.22,0.54-0.44,0.54-0.44l-1.52-0.49c0,0-0.37-0.12-0.65-0.18s-0.76-0.14-0.76-0.14
	l-0.47-0.04l-0.6-0.02c0,0-0.09,0.68-0.06,1.04c0.03,0.36,0.06,0.63,0.13,0.96s0.19,0.77,0.3,0.97s0.32,0.47,0.45,0.58
	C9.69,37.74,9.88,37.83,10.05,37.86z"/>
<polygon class="st0" points="10.64,37.24 10.75,36.88 10.62,36.4 10.49,36.04 10.25,35.93 10.51,37.13 10.64,37.24 "/>
<path class="st0" d="M10.83,20.97c0.04,0.09,0.37,0.47,0.37,0.47s0.41,0.69,0.62,0.71s0.66-0.04,0.96,0.1s0.85,0.58,0.85,0.58
	s-0.2-0.76-0.38-0.95c-0.18-0.2-0.5-0.51-0.73-0.59c-0.23-0.08-0.94-0.03-1.08-0.1s-0.49-0.47-0.49-0.47s-0.29-0.58-0.38-0.71
	s-0.12-0.12-0.12-0.12s0,0.14,0,0.24S10.83,20.97,10.83,20.97S10.69,20.69,10.83,20.97z"/>
<polygon id="skin-leg-l" class="st1" points="15.07,37.86 15.44,38.93 15.7,39.74 15.79,40.63 16.23,40.83 16.71,41.02
	18.05,40.82 18.12,40.39 18.21,39.89 18.4,39.14 18.59,37.99 17.23,37.95 16.61,37.93 "/>
<polygon class="st2" points="16.32,50.2 16.56,50.2 16.08,49.48 15.96,49.74 16.32,50.2 "/>
<polygon id="player-sock-l" class="st3" points="15.52,47.23 15.77,47.22 16.63,46.19 17.01,46.19 17.67,44.15 17.83,43.27 
	17.71,43.08 17.24,42.85 17.1,42.53 17.35,42.36 17.86,42.54 18.27,42.26 18.31,41.64 18.25,41.49 18.14,41.35 17.68,41.43 
	16.6,41.51 15.97,41.28 15.82,41.18 15.72,41.28 16.11,42.03 16.11,42.28 15.61,42.29 15.38,43.69 15.42,45.33 15.29,45.46 
	15.5,46.22 15.38,46.85 15.26,46.98 15.26,47.11 15.52,47.23 15.52,47.23 "/>
<path id="skin-face" class="st1" d="M13.56,5.67l0.38,0.83c0,0,0.25,1.1,0.31,1.23s0.21,0.39,0.28,0.51s0.38,0.54,0.45,0.59
	S15.14,8.95,15.31,9s0.56,0.09,0.76,0.02s0.75-0.5,0.95-0.73c0.19-0.23,0.36-0.45,0.43-0.66c0.07-0.21,0.34-0.97,0.34-0.97
	l-0.12-0.12l0.24-0.25l0.24,0c0,0,0.24-0.16,0.32-0.3s0.15-0.43,0.15-0.43l0-0.12l-0.12-0.24c0,0,0.04,0.31,0.01,0.36
	c-0.03,0.06-0.24,0.24-0.24,0.24L18.14,5.8l0-0.17c0,0-0.05-0.76-0.1-0.93s-0.34-0.81-0.47-0.94c-0.13-0.13-0.49-0.26-0.49-0.26
	l-0.36-0.11l-0.2-0.07l-0.33,0.12l-0.15-0.17l-0.89-0.09c0,0-0.14,0.06-0.24,0.12s-0.55,0.3-0.58,0.38
	c-0.03,0.08-0.17,0.36-0.25,0.48s-0.19,0.3-0.19,0.3s0.07,0.14,0,0.24s-0.24,0.24-0.24,0.24s-0.06-0.1-0.1-0.17
	c-0.05-0.09-0.03-0.18-0.03-0.18s-0.07,0.03-0.12,0.12S13.56,5.67,13.56,5.67L13.56,5.67z"/>
<path id="skin-neck" class="st1" d="M14.73,10.61c0.3,0.39,0.8,0.91,0.8,0.91s0.65-0.66,0.79-0.83c0.41-0.5,0.79-1.05,0.89-1.25
	s0.26-0.6,0.26-0.6l-0.16-0.23c0,0-0.71,0.51-0.92,0.66s-0.3,0.18-0.46,0.2c-0.16,0.02-0.62,0.02-0.84-0.1
	c-0.23-0.13-0.48-0.27-0.62-0.51s-0.38-0.69-0.38-0.69l-0.36,0.47c0,0,0.12,0.33,0.34,0.77S14.43,10.22,14.73,10.61z"/>
<polygon class="st0" points="17.35,39.34 17.35,39.47 17.56,39.33 17.6,39.09 17.6,38.98 17.4,39.01 17.35,39.34 "/>
<polygon class="st2" points="13.72,40.15 13.2,40.34 12.85,40.36 13.25,40.45 13.61,40.38 "/>
<polygon class="st0" points="15.82,6.9 15.82,6.79 15.73,6.71 15.52,6.79 15.76,6.9 "/>
<path class="st0" d="M17.33,22.45c0,0,0.14-0.2,0.23-0.49c0.09-0.28,0.21-1.83,0.2-2.17c-0.02-0.33-0.08-1.38-0.03-1.68
	s0.28-0.85,0.34-0.97s0.28-0.62,0.35-0.73c0.06-0.11,0.11-0.36,0.11-0.36s-0.14,0.06-0.24,0.24s-0.49,0.84-0.58,1.09
	c-0.09,0.26-0.42,1.32-0.45,1.45s-0.12,0.17-0.11,0.36s0.17,1.64,0.16,1.8C17.29,21.16,17.33,22.45,17.33,22.45L17.33,22.45z"/>
<polygon class="st0" points="16.34,6.9 16.41,6.82 16.29,6.7 16.05,6.82 16.23,6.98 "/>
<path id="player-shorts" class="st2" d="M8.11,33.41c0,0-0.01,0.14,0.11,0.14c0.08,0,0.29,0.04,0.61,0.06
	c0.18,0.01,0.83,0.08,0.98,0.11c0.43,0.07,0.84,0.16,1.27,0.27s1.36,0.37,1.81,0.55c0.46,0.17,0.62,0.33,0.69,0.26
	c0.07-0.07,0.1-0.31,0.23-0.83c0.13-0.5,0.29-1.15,0.32-1.2c0.05-0.09,0.18-0.05,0.19,0.06c0.01,0.11-0.07,0.48-0.08,0.73
	s-0.1,0.68-0.13,1.17C14.08,35.22,14.03,37,14.03,37s0.07,0.16,0.32,0.23s0.62,0.18,0.62,0.18l1.02,0.05c0,0,1.57,0.06,2.02,0.06
	s0.67,0.01,0.95,0s0.53-0.02,0.62-0.05c0.09-0.04,0.12-0.1,0.12-0.1l0.03-2.08l0.08-2.65l0.01-1.26l0-1.89l0.02-0.89l-0.28-2.33
	l-0.21-0.75c0,0,0-0.02-0.13-0.17s-0.3,0.03-0.3,0.03s-0.15,0.09-0.3,0.15s-0.49,0.07-0.49,0.07s-0.25,0-0.39-0.01
	s-0.18-0.18-0.05-0.28c0.13-0.1,0.41-0.21,0.41-0.21s0.41-0.07,0.65-0.2s0.35-0.23,0.42-0.39s-0.1-0.43-0.2-0.55
	s-0.17-0.12-0.36-0.05s-0.62,0.23-1.05,0.32c-0.43,0.09-2.02,0.2-2.02,0.2s-1.34-0.06-1.7-0.08s-1.66-0.28-2.1-0.38
	s-0.9-0.12-1.16-0.18c-0.26-0.06-0.38-0.1-0.53-0.11c-0.15-0.01-0.23,0.06-0.24,0.17C9.78,23.94,9.69,24,9.83,24.1
	s0.5,0.23,0.91,0.31c0.41,0.08,0.8,0.17,0.96,0.19s0.78,0.25,0.9,0.27s0.3,0.08,0.48,0.16s0.17,0.19,0.1,0.26s-0.22,0.11-0.42,0.08
	c-0.21-0.03-1.04-0.22-1.04-0.22l-1-0.22l-0.45-0.13c0,0,0.25,0.6,0.18,0.86s-0.26,0.92-0.41,1.01c-0.15,0.09-0.19,0.07-0.24,0
	s0.17-0.84,0.18-1.08s-0.25-0.86-0.25-0.86s-0.28,0.12-0.42,0.65s-0.42,2.25-0.42,2.25l-0.25,1.8l-0.23,1.4L8.11,33.41z
	 M11.91,28.15c0.09-0.06,0.46-0.08,0.65-0.01s1.2,0.66,1.34,0.79s0.22,0.61,0.34,0.69c0.11,0.08,0.17,0.09,0.24,0
	c0.07-0.09,0.12-0.94,0.14-1.11c0.03-0.17,0.24-0.49,0.32-0.49c0.08-0.01,0.06,0.37,0.01,0.5s-0.09,0.37-0.02,0.38
	c0.07,0.01,1.52-0.11,1.66-0.07c0.13,0.03-0.07,0.48-0.23,0.52c-0.16,0.04-1,0.12-1.2,0.21s-0.55,0.58-0.62,0.85
	s-0.12,0.73-0.12,0.73h-0.05c0,0-0.09-0.66-0.2-0.91c-0.1-0.25-0.73-0.75-1.01-0.94s-0.49-0.3-0.71-0.37
	c-0.22-0.07-0.44-0.06-0.53-0.12S11.82,28.21,11.91,28.15z"/>
<path class="st0" d="M14.53,4.83l0.16,0.11c0,0-0.14,0.21-0.05,0.33s0.22,0.18,0.36,0.16s0.23-0.17,0.23-0.17l0.11-0.01l0.11,0.78
	l0.05-0.96l-0.16-0.2l-0.05-0.11L14.6,4.67l-0.22,0.1l0.05,0.11L14.53,4.83L14.53,4.83z"/>
<path class="st0" d="M17.05,5.27c0.08-0.06,0.02-0.25,0.05-0.31s0.19-0.14,0.19-0.14l0.37,0.24l-0.05-0.11l-0.37-0.24l-0.5,0.08
	l-0.45,0.2l0.05,0.11c0,0,0.16,0.29,0.34,0.29C16.86,5.4,16.98,5.33,17.05,5.27z"/>
<polygon class="st0" points="15.5,7.68 15.6,7.67 15.7,7.79 15.6,7.79 15.31,7.8 15.31,7.92 15.51,8.04 15.99,8.03 16.08,7.78 
	16.18,7.78 16.37,7.66 16.56,7.66 16.65,7.53 16.65,7.41 16.55,7.29 15.79,7.43 15.09,7.31 15.11,7.44 15.11,7.56 15.5,7.68 "/>
<path id="hair" class="st0" d="M13,3.74l0.26-0.49l-0.14-0.51l0.18-0.09l0.07-0.24l0.3-0.54l0.47-0.47l0.36-0.08l0.11-0.13
	l0.52,0.07l0.59-0.19l0.72-0.14l0.08,0.11l0.75,0.11l0.32,0.35l0.2-0.12l0.27,0.36l0.36,0.38l0.5,0.99l-0.1,0.1l-0.1,0.59L19,4.21
	l-0.3,0.22l-0.02,0.46l-0.11-0.15L18.38,4.8c0,0-0.14-0.54-0.21-0.69c-0.11-0.23-0.28-0.53-0.41-0.65c-0.13-0.12-0.64-0.3-0.64-0.3
	l-0.36-0.11l-0.19-0.06l-0.26,0.12l-0.14-0.16l-1.05-0.09c0,0-0.14,0.05-0.23,0.12c-0.09,0.06-0.69,0.29-0.71,0.37
	c-0.03,0.07-0.1,0.27-0.18,0.38c-0.08,0.11-0.25,0.42-0.29,0.5c0,0.01-0.17-0.07-0.17-0.07s-0.33,0.13-0.28,0.36
	c-0.03,0.06-0.02,0.2-0.05,0.26l-0.08-0.19l0.04-0.46L13,3.74z"/>
</svg>
