<?xml version="1.0" encoding="utf-8"?>
<!-- Generator: Adobe Illustrator 16.0.4, SVG Export Plug-In . SVG Version: 6.00 Build 0)  -->
<!DOCTYPE svg PUBLIC "-//W3C//DTD SVG 1.1//EN" "http://www.w3.org/Graphics/SVG/1.1/DTD/svg11.dtd">
<svg version="1.1" id="Ebene_1" xmlns="http://www.w3.org/2000/svg" xmlns:xlink="http://www.w3.org/1999/xlink" x="0px" y="0px"
	 width="24.835px" height="48.281px" viewBox="0 0 24.835 48.281" enable-background="new 0 0 24.835 48.281" xml:space="preserve">
<path fill-rule="evenodd" clip-rule="evenodd" fill="#1A1A18" d="M0.652,21.937c0.003,0.141,0.124,1.084,0.124,1.084
	s0.052,0.202,0.166,0.266c0.115,0.064,0.318,0.061,0.318,0.061l0.345,0.192c0,0,0.181,0.022,0.276-0.029s0.373-0.438,0.373-0.438
	l0.138-0.036c0,0,0.283-0.106,0.359-0.179c0.076-0.07,0.304-0.459,0.304-0.459s0.381-0.744,0.455-0.905s0.097-0.356,0.097-0.356
	s0.052-0.359,0.032-0.576c-0.006-0.068-0.031-0.531-0.016-0.609c0.25-0.688,0.59-1.476,0.766-1.922
	c0.297-0.75,0.781-1.578,0.781-1.578s0.094,0.016,0.219,0.359c0.049,0.135,0.183,0.393,0.281,0.766
	c0.081,0.304,0.156,0.752,0.219,1.172c0.058,0.38,0.168,0.902,0.219,1.297c0.074,0.578,0.078,1.125,0.078,1.125
	s-0.078,0.068-0.203,0.328s-0.098,0.449-0.098,0.449s-0.172,0.307-0.282,0.713S5.27,24.024,5.27,24.024l-0.324,1.572
	c0,0-0.313,1.435-0.409,1.935c-0.097,0.5-0.343,1.705-0.438,2.176s-0.109,0.604-0.164,0.883s-0.122,0.529-0.137,0.734
	c-0.014,0.206-0.031,0.272,0.082,0.309c0.137,0.045,0.308,0.093,0.308,0.093l0.069,0.802L4.34,33.15l0.285,0.67l0.362,0.457
	l0.777,0.5l1.232,0.724l0.433,0.228c0,0,0.118,0.242,0.2,0.344c0.082,0.104,0.231,0.207,0.506,0.295
	c0.183,0.059,0.753,0.132,0.917,0.073s0.41-0.19,0.41-0.19l1.123,0.455l1.375,0.509l0.193,0.415l0.441,0.326l0.193,0.445
	c0,0,0.822,1.672,0.976,2.033c0.154,0.36,0.462,1.24,0.573,1.408c0.111,0.166,0.299,0.434,0.555,0.406
	c0.254-0.028,0.512-0.221,0.635-0.361c0.123-0.142,0.213-0.431,0.213-0.431l0.01-0.482c0,0,0.146-0.034,0.16-0.065
	c0.016-0.029,0.041-0.292,0.012-0.379c-0.027-0.086-0.205-0.122-0.205-0.122l0.004-0.353c0,0,0.254-0.145,0.176-0.145
	c-0.014,0-0.043-0.268-0.082-0.323c-0.039-0.057-0.209-0.118-0.209-0.118l-0.094-0.33L15.04,37.43c0,0,0.146-0.21,0.168-0.287
	c0.023-0.078-0.021-0.246-0.066-0.27c-0.047-0.023-0.24-0.062-0.24-0.062S14.774,36.145,14.747,36
	c-0.025-0.145-0.235-0.414-0.266-0.498c-0.031-0.086-0.219-0.206-0.309-0.268c-0.09-0.061-0.157,0.018-0.217,0.038
	c-0.061,0.021-0.44,0.183-0.44,0.183l-0.22-0.161c0,0-0.451-0.427-0.861-0.75s-0.609-0.541-0.835-0.677
	c-0.225-0.135-0.657-0.264-0.944-0.278s-0.369-0.006-0.437-0.06c-0.068-0.053-0.408-0.353-0.588-0.441
	C9.448,33,9.16,32.966,9.16,32.966l0.025-0.188l0.207-0.06l0.055-0.06l0.084-0.428l0.387-1.943l0.249-1.371l0.73,2.037l0.553,1.438
	c0,0,0.382,1.079,0.443,1.159c0.061,0.079,0.377,0.023,0.526,0.002c0.149-0.022,0.854-0.15,0.854-0.15l0.373,0.278l1.1,1.462
	l0.721,1.201l0.084,0.297l0.18,0.623c0,0,0.111,0.265,0.221,0.471c0.109,0.205,0.25,0.33,0.25,0.33s0.256,0.229,0.461,0.332
	c0.092,0.045,0.102,0.146,0.096,0.176c-0.014,0.088,0.057,0.598,0.057,0.598l0.104,0.356c0,0,0.58,1.104,0.725,1.401
	c0.143,0.297,0.676,1.32,0.787,1.535c0.109,0.215,0.328,0.711,0.33,0.776c0.004,0.065-0.111,0.405-0.084,0.487
	c0.031,0.084,0.082,0.551,0.051,0.697c-0.029,0.146-0.16,0.588-0.105,0.74c0.055,0.154,0.186,0.306,0.186,0.306l0.408,0.243
	c0,0,0.062,0.181,0.109,0.223c0.049,0.042,0.145,0.105,0.18,0.074c0.037-0.031,0.098-0.104,0.098-0.104l0.139,0.061l0.203,0.097
	c0,0-0.051,0.141,0.004,0.215c0.053,0.074,0.178,0.131,0.248,0.133c0.068,0.002,0.221-0.119,0.221-0.119l0.304,0.178l1.104,0.653
	c0,0,0.025,0.169,0.082,0.223c0.057,0.056,0.283,0.149,0.354,0.107s0.074-0.138,0.074-0.138l0.208,0.09l0.179,0.044
	c0,0,0.136,0.042,0.265,0.004c0.033-0.01,0.154,0.085,0.191,0.073c0.035-0.011,0.139-0.002,0.178-0.015s0.111-0.207,0.15-0.22
	c0.249-0.086,0.443-0.184,0.529-0.271c0.182-0.186,0.146-0.307,0.142-0.566C24.173,46.191,23.87,45.9,23.87,45.9l-1.078-1.002
	l-0.458-0.682l-0.798-0.91c0,0-0.183-0.676-0.26-0.765c-0.078-0.09-0.224-0.023-0.224-0.023L20.55,41.16l-0.438-1.191l-0.588-1.676
	l-0.301-0.838c0,0-0.123-0.191-0.178-0.309s-0.014-0.367-0.014-0.471c0-0.103-0.104-0.595-0.104-0.595s-0.158-0.405-0.285-0.546
	c-0.127-0.14-0.33-0.432-0.33-0.432l-0.166-0.19l-0.18-0.594l-0.275-1.022l-0.264-1.068l-0.055-0.268l0.035-0.041
	c0,0,0.09-0.081,0.131-0.115c0.041-0.035,0.041-0.156,0.041-0.156l-1.084-3.221l-0.871-2.337l-0.572-1.65l-0.352-1.023
	c0,0-0.387-1.219-0.463-1.379c-0.115-0.244-0.299-0.389-0.359-0.432c-0.059-0.042-0.008-0.412-0.068-0.607
	c-0.062-0.314-0.25-0.471-0.25-0.471s0.736-0.298,1.438-0.578c0.625-0.25,0.688-0.428,0.875-0.719
	c0.23-0.357,0.199-0.691,0.203-0.969c0.002-0.278-0.344-1.625-0.344-1.625s0.184-0.073,0.203-0.156
	c0.021-0.083-0.047-0.312-0.203-0.766s-0.875-2.359-1.141-3.031c-0.266-0.672-0.645-1.527-0.891-1.922
	c-0.244-0.396-0.59-0.705-0.875-0.906c-0.283-0.201-1.293-0.705-1.984-0.875c-0.383-0.094-0.775-0.228-1.083-0.289
	c0,0-0.003,0-0.004,0C9.639,8.417,9.366,7.82,9.358,7.544c0.301-0.166,0.498-0.387,0.658-0.541c-0.07,0.307,0.08,0.517,0.06,0.671
	c0.206,0,0.237-0.079,0.348-0.222c0,0-0.031,0.413,0.143,0.349c0.191-0.069,0.381-0.127,0.492-0.381c0,0-0.045,0.359,0.032,0.429
	c0.108,0.096,0.369-0.193,0.413-0.265c-0.027,0.058-0.08,0.186-0.08,0.186s0.486-0.104,0.632-0.467
	c0.114-0.285,0.139-0.463,0.125-0.844c-0.009-0.264-0.081-0.523-0.172-1.062c-0.043-0.256-0.156-0.734-0.203-1.109
	c-0.049-0.39-0.11-0.925-0.159-1.294c-0.096-0.714-0.064-1.107-0.325-1.628C11.1,0.921,10.667,0.769,10.29,0.756
	C9.815,0.741,9.379,0.85,9.093,1.215C9.055,1.263,9.008,1.299,8.962,1.334C8.87,1.353,8.795,1.39,8.729,1.427
	c-0.416-0.123-0.801-0.19-1.235-0.155C6.971,1.315,6.281,1.537,5.884,1.803C5.217,2.252,5.072,2.631,4.65,3.241
	c-0.257,0.37-0.297,0.438-0.547,0.688c-0.38,0.25-0.208,0.408,0.078,0.391c0.001,0-0.016,0.109-0.109,0.234
	C3.98,4.606,4.275,4.694,4.9,4.694c0.059-0.002,0.285,0.695,0.251,0.804C5.147,5.523,5.146,5.544,5.142,5.57L4.82,5.515
	c0,0,0.14,0.065,0.312,0.149c-0.03,0.251-0.045,0.485-0.044,0.67C5.09,6.823,5.181,7.194,5.306,7.616
	c0.112,0.339,0.316,0.69,0.552,1.041C5.663,8.678,5.353,8.719,5.186,8.778C5.081,8.816,4.974,8.843,4.811,8.919
	C4.592,9.022,4.344,9.168,4.233,9.278c-0.25,0.25-0.438,0.484-0.625,1.516c-0.05,0.277-0.188,1.5-0.297,2.156
	c-0.068,0.418-0.172,1.234-0.172,1.234s-0.078,0.172-0.016,0.266s0.133,0.154,0.133,0.154L2.86,16.212l-0.537,2.181l-0.262,0.979
	c0,0-0.891,1.188-0.98,1.409C0.989,21.001,0.649,21.796,0.652,21.937z M12.842,17.7c0.005-0.019,0.287-0.125,0.312-0.094
	s0.062,0.109,0.109,0.234c0.047,0.122,0.078,0.297,0.078,0.297l-0.094,0.078c-0.146,0.062-0.219,0.094-0.219,0.094
	s-0.051-0.229-0.094-0.312C12.9,17.88,12.83,17.758,12.842,17.7z"/>
<path id="skin-arm-r" fill="#F9CAA9" d="M4.545,15.2l-0.953-0.453L2.44,19.182l-0.157,0.436l-0.144,0.216
	c0,0-0.652,0.87-0.764,1.135c-0.111,0.264-0.387,1.021-0.387,1.021l0.105,0.889l0.203,0.062l0.087-0.18l-0.019-0.482l0.039-0.136
	l0.1,0.71l0.068,0.264l0.115,0.051l0.137-0.146l0.011-0.926l0.067-0.482l0.047-0.048l0.107-0.085l0.325-0.154L2.5,21.437l-0.01,0.32
	l-0.152,0.559l0.044,0.251l0.198-0.056l0.321-0.588c0,0,0.308-0.581,0.366-0.754c0.059-0.172,0.021-0.67,0.021-0.67l-0.068-0.52
	l1.629-3.961L4.545,15.2z"/>
<path id="player-shirt" fill-rule="evenodd" clip-rule="evenodd" fill="#0068B4" d="M15.42,16.278
	c-0.039,0.062-0.104,0.054-0.234,0.109c-0.219,0.094-0.328,0.119-0.651,0.234c-0.646,0.229-1.75,0.584-1.75,0.584l-0.334-0.875
	c0,0-0.479-1.23-0.646-1.646s-0.246-0.482-0.342-0.439s-0.075,0.147-0.054,0.355c0.021,0.209,0.25,0.604,0.229,1.084
	c-0.021,0.479-0.482,1.252-0.125,1.125c0.358-0.127,0.357-0.145,0.512-0.146c0.155-0.001,0.155,0.167,0.155,0.167
	s0.161,0.434,0.25,0.75c0.089,0.314,0.255,0.854,0.255,0.854l-0.766,0.391c0,0-0.801,0.426-0.969,0.443
	c-0.123,0.012-0.623-0.309-0.789-0.324c-0.164-0.014-1.214,0.053-1.367,0.078c-0.152,0.025-0.298,0.11-0.383,0.2
	c-0.084,0.09-0.186,0.278-0.186,0.278l0.02,0.371l-0.442,0.089l-0.47,0.089c0,0-0.19,0.094-0.289,0.207
	c-0.1,0.114-0.139,0.445-0.139,0.445l-0.069,0.416l-0.239-0.018c0,0-0.022-0.684-0.084-1.062c-0.125-0.771-0.322-1.941-0.406-2.307
	c-0.082-0.365-0.197-0.697-0.266-0.844c-0.109-0.234-0.174-0.43-0.453-0.938c-0.359-0.656-0.484-1.188-0.484-1.188l-0.213-0.749
	L4.51,13.91L4.37,13.956l0.098,0.729l-0.791-0.39c0,0-0.068-0.001-0.1-0.079c-0.025-0.064-0.003-0.217-0.003-0.217
	s0.05-0.58,0.097-0.846s0.078-0.578,0.125-1.062s0.182-1.48,0.297-1.812S4.389,9.56,4.717,9.356S5.311,9.06,5.624,9.013
	c0.067-0.01,0.299-0.026,0.469-0.031C6.28,9.075,6.358,9.122,6.561,9.153c0.109,0.26,0.289,0.756,0.406,1.078
	c0.188,0.516,0.703,2.125,0.703,2.125s0.5-0.719,1.031-1.531c0.366-0.56,0.932-1.373,1.094-1.625
	c0.049-0.076,0.082-0.097,0.094-0.094c0.219,0.047,0.625,0.141,1.093,0.281s0.895,0.319,1.266,0.531
	c0.373,0.213,0.719,0.453,1,0.828s1.047,2.203,1.234,2.688c0.188,0.484,0.594,1.625,0.813,2.234
	C15.42,16.019,15.499,16.153,15.42,16.278z"/>
<path id="skin-arm-l" fill-rule="evenodd" clip-rule="evenodd" fill="#F9CAA9" d="M15.18,19.372
	c-0.119,0.104-1.307,0.547-1.307,0.547l-2.719,1.078c0,0-0.258,0.289-0.547,0.469c-0.288,0.18-0.529,0.271-0.828,0.344
	c-0.298,0.072-1.057,0.15-1.057,0.15s-0.082-0.017-0.145-0.068c-0.064-0.051-0.016-0.064-0.016-0.064L9.147,21.7l0.395-0.117
	L9.42,21.522l-0.773,0.112l-0.594,0.073h-0.25c0,0-0.102,0.049-0.172-0.065s0.058-0.138,0.058-0.138l0.673-0.127l0.387-0.086
	l0.322-0.098l-0.055-0.133l-1.168,0.182L7.29,21.256c0,0-0.072-0.016-0.08-0.099c-0.008-0.082,0.012-0.172,0.012-0.172l0.809-0.084
	l0.582-0.1l0.323-0.096l0.015-0.213l-0.219,0.036l-0.662,0.118l-0.775,0.041c0,0-0.018-0.037,0-0.114S7.4,20.429,7.4,20.429
	l0.819-0.158l1.063-0.262c0,0,0.152-0.007,0.216-0.121c0.064-0.114-0.016-0.137-0.016-0.137l-0.791-0.023
	c0,0-0.043-0.133-0.016-0.197c0.025-0.064,0.033-0.116,0.178-0.129c0.145-0.014,0.844-0.045,0.844-0.045s0.35-0.029,0.52,0.031
	c0.171,0.061,0.601,0.307,0.66,0.324c0.154,0.048,1.496-0.637,1.934-0.871s0.886-0.432,0.922-0.5c0.037-0.068,0.021-0.147,0-0.219
	c-0.049-0.163-0.25-0.688-0.25-0.688s0.303-0.104,0.886-0.312c0.441-0.158,0.958-0.354,0.958-0.354s0.477,1.598,0.354,1.916
	c-0.055,0.141-0.104,0.284-0.182,0.391C15.391,19.221,15.25,19.312,15.18,19.372z"/>
<path id="player-sock-l" fill-rule="evenodd" clip-rule="evenodd" fill="#0068B4" d="M18.936,37.749
	c0.096,0.206,1.702,4.77,1.702,4.77l-0.312,0.155l-0.02,0.289l0.02,0.535l-0.695,0.159l-0.52-0.556L18.7,42.195l-1.119-2.18
	l-0.395-0.824l-0.033-0.732l0.123-0.246l-0.043-0.149c0,0-0.295-0.022-0.398-0.058c-0.104-0.037-0.189-0.13-0.33-0.223
	c-0.143-0.093-0.332-0.52-0.332-0.52s-0.193-0.49-0.125-0.646c0.033-0.074,0.021-0.102,0.287-0.206
	c0.291-0.114,0.623-0.212,0.859-0.304c0.236-0.094,0.443-0.326,0.559-0.408s0.174-0.201,0.266-0.199
	c0.092,0.001,0.178,0.104,0.268,0.199c0.088,0.095,0.27,0.41,0.309,0.594c0.037,0.186,0.051,0.41,0.064,0.529
	c0.016,0.118-0.025,0.324,0.016,0.5C18.715,37.499,18.84,37.543,18.936,37.749z"/>
<path id="skin-leg-l" fill-rule="evenodd" clip-rule="evenodd" fill="#F9CAA9" d="M13.915,33.275l0.38,0.473l0.877,1.296
	l0.709,1.106l1.01-0.393l0.344-0.193l0.553-0.459l-0.217-0.746l-0.652-2.189l-0.625,0.242c0,0-0.77,0.326-0.986,0.396
	c-0.314,0.104-0.821,0.279-0.821,0.279L13.915,33.275z M16.102,34.909c-0.068-0.003,0.055-0.424,0.15-0.54
	c0.098-0.116,0.082,0.131,0.184,0.104s0.213-0.297,0.377-0.287c0.162,0.01,0.109,0.211,0.084,0.299
	c-0.027,0.088-0.139,0.191-0.238,0.242S16.17,34.912,16.102,34.909z"/>
<path id="player-sock-r" fill-rule="evenodd" clip-rule="evenodd" fill="#0068B4" d="M12.592,36.441c0,0-0.14-0.004-0.225,0.086
	c-0.084,0.09-0.123,0.219-0.186,0.271s-0.323-0.094-0.706-0.211c-0.384-0.118-1.518-0.62-1.518-0.62l-0.273-0.122l-0.206-0.367
	l-0.228-0.05L9.227,35.76c0,0-0.133,0.151-0.27,0.195C8.821,36,8.629,35.984,8.424,35.984S8.038,35.859,7.93,35.73
	c-0.109-0.128-0.184-0.395-0.166-0.445c0.016-0.051,0.211-0.23,0.211-0.23l0.576-0.914l0.289-0.693c0,0,0.27-0.074,0.502-0.025
	c0.23,0.049,0.36,0.244,0.433,0.367s0.127,0.24,0.127,0.285c0,0.033,0.056,0.029,0.124-0.029c0.068-0.06,0.246-0.074,0.41-0.074
	s0.439,0.023,0.439,0.023s0.383,0.137,0.614,0.256s0.845,0.641,0.845,0.641s0.854,0.686,0.894,0.741s0.155,0.351,0.126,0.507
	c-0.031,0.154-0.213,0.329-0.307,0.367C12.953,36.543,12.592,36.441,12.592,36.441z"/>
<path id="skin-leg-r" fill-rule="evenodd" clip-rule="evenodd" fill="#F9CAA9" d="M8.081,33.207l0.367,0.135
	c0,0-0.019,0.17-0.124,0.406c-0.104,0.237-0.464,0.771-0.593,0.931c-0.128,0.159-0.418,0.481-0.418,0.481s-0.225-0.123-0.398-0.215
	c-0.175-0.092-0.397-0.224-0.561-0.312c-0.161-0.089-0.502-0.291-0.68-0.402c-0.18-0.113-0.289-0.204-0.289-0.204
	s0.097-0.229,0.109-0.172c0.014,0.058-0.062-0.187-0.134-0.189s-0.207,0.044-0.207,0.044l-0.187-0.066c0,0-0.23-0.404-0.27-0.553
	c-0.038-0.148-0.045-0.569-0.083-0.741c-0.037-0.171-0.027-0.593-0.027-0.593l0.919,0.162c0,0,1.645,0.322,1.926,0.4
	c0.28,0.079,0.606,0.162,0.606,0.162L7.721,33c0,0-0.072,0.117,0.027,0.133C7.849,33.147,8.081,33.207,8.081,33.207z"/>
<path id="player-shorts" fill-rule="evenodd" clip-rule="evenodd" fill="#FFFFFF" d="M8.506,32.207
	c0.246,0.059,0.451,0.118,0.525,0.125c0.076,0.007,0.084-0.223,0.084-0.223L9.6,29.633c0,0,0.235-1.32,0.261-1.396
	c0.026-0.075-0.122-0.694-0.122-0.694s-0.38-0.207-0.437-0.264s-0.038-0.473-0.116-0.552c-0.078-0.078-0.787-0.513-0.932-0.567
	c-0.146-0.055-0.298-0.113-0.305-0.155c-0.019-0.104,0.429-0.091,0.555-0.091c0.125,0,0.357,0.146,0.467,0.221
	c0.109,0.073,0.287,0.235,0.342,0.162c0.055-0.074-0.264-0.648-0.24-0.898c0.021-0.249,0.285-0.7,0.339-0.593
	c0.052,0.107,0.087,1.114,0.165,1.192c0.079,0.078,1.083,0.216,1.183,0.294c0.1,0.078,0.11,0.232-0.012,0.302
	c-0.121,0.07-0.666,0.082-0.708,0.193c-0.041,0.111,0.105,0.976,0.105,0.976l1.07,3.018c0,0,0.507,1.368,0.809,2.103
	c0.072,0.177,0.125,0.229,0.15,0.234c0.115,0.028,0.383-0.012,0.574-0.042s1.246-0.267,1.725-0.442
	c0.479-0.177,1.288-0.484,1.493-0.551s0.934-0.371,1.014-0.41s0.137-0.098,0.15-0.156c0.027-0.117-0.295-0.956-0.295-0.956
	l-0.98-2.78l-0.986-2.694l-0.649-1.803c0,0-0.188-0.637-0.25-0.77c-0.057-0.128-0.111-0.262-0.207-0.35
	c-0.096-0.087-0.14-0.091-0.248-0.111c-0.107-0.02-0.98,0.208-0.98,0.208s-0.43,0.127-0.512,0.134
	c-0.081,0.006-0.126,0.007-0.191-0.045c-0.067-0.052,0.057-0.382,0.303-0.445c0.246-0.062,1.109-0.285,1.193-0.375
	c0.085-0.089,0.077-0.309,0.078-0.453c0.003-0.145-0.193-0.311-0.266-0.328c-0.07-0.018-0.418,0.15-0.578,0.203
	c-0.281,0.094-0.549,0.219-0.672,0.25s-0.461,0.174-0.531,0.219c-0.068,0.044-0.345,0.312-0.562,0.422
	c-0.217,0.11-0.56,0.315-0.877,0.363c-0.315,0.049-1.149,0.145-1.302,0.122c-0.154-0.022-0.369-0.171-0.369-0.171l-0.194-0.147
	l-0.401,0.015c0,0-0.227-0.094-0.391-0.227c-0.072-0.058-0.035-0.229-0.035-0.229s-0.305-0.062-0.43-0.093
	c-0.123-0.029-0.207-0.045-0.207-0.045s-0.084,0.05-0.137,0.152c-0.052,0.102-0.057,0.184-0.021,0.27
	c0.036,0.088,0.214,0.113,0.214,0.113l0.654,0.168c0,0,0.193,0.032,0.234,0.076c0.041,0.045-0.068,0.177-0.068,0.177
	s-0.191,0.015-0.383,0s-0.521-0.081-0.521-0.081s-0.223-0.038-0.323,0.029c-0.101,0.066-0.233,0.234-0.304,0.504
	c-0.069,0.269-0.166,0.665-0.166,0.665l-0.635,3.066l-0.312,1.566l-0.372,1.854c0,0-0.222,1.129-0.213,1.203
	c0.008,0.076,0.103,0.117,0.103,0.117s0.262,0.03,0.497,0.09c0.235,0.059,1.898,0.375,2.224,0.451
	C7.383,31.928,8.26,32.148,8.506,32.207z"/>
<path fill-rule="evenodd" clip-rule="evenodd" fill="#1A1A18" d="M13.063,24.12c-0.041-0.133-0.032-0.209-0.032-0.209
	s0.363,0.151,0.498,0.29c0.137,0.139,0.362,0.587,0.42,0.761c0.059,0.172,0.087,0.59,0.1,0.731c0.006,0.07,0.073,0.402,0.014,0.397
	c-0.059-0.007-0.246-0.349-0.355-0.514C13.487,25.252,13.104,24.252,13.063,24.12z"/>
<path fill="#FFFFFF" d="M9.141,1.591c0,0-0.05-0.056,0.355,0.026c0.312,0.064,0.691,0.247,0.873,0.647
	c0.144,0.318,0.123,0.565,0.123,0.565S10.17,2.435,9.868,2.132C9.53,1.793,9.141,1.591,9.141,1.591z"/>
<path id="hair-p" fill="#F7DD7F" d="M9.282,1.375c0.125-0.165,0.572-0.508,1.207-0.349c0.77,0.192,0.807,0.81,0.967,2.491
	c0.096,1,0.21,1.411,0.318,1.952c0.137,0.685,0.349,1.317-0.074,1.938c0.16-0.235-0.148-0.842-0.148-0.842
	c0.006,0.125,0.072,0.346,0.016,0.528c-0.067,0.213-0.262,0.382-0.289,0.405c0.154-0.321-0.182-0.868-0.182-0.868
	c-0.055,0.293-0.123,0.619-0.463,0.877c0.082-0.062,0.093-0.706,0.093-0.706c-0.067,0.233-0.43,0.358-0.446,0.548
	c0.02-0.236-0.07-0.495,0.058-0.641c0.328-0.375,0.469-0.672,0.547-1.047c0.125-0.516,0.155-0.945,0.109-1.359
	c-0.047-0.422-0.108-0.659-0.281-1.234c0-0.396-0.014-0.596-0.109-0.844c-0.156-0.406-0.332-0.517-0.546-0.656
	C9.744,1.366,9.282,1.375,9.282,1.375z"/>
<path id="skin-face" fill-rule="evenodd" clip-rule="evenodd" fill="#F9CAA9" d="M9.042,7.347c0.443-0.129,0.705-0.613,0.769-1.06
	c0,0,0.007-0.301-0.343-0.276C9.239,6.028,9.056,6.058,8.738,6.513C8.17,5.155,8.743,4.639,8.435,4.785
	c-0.29,0.128-0.786,0.249-1.243,0.303C6.779,5.137,6.561,5.131,6.374,5.073C6.208,5.058,6.268,4.906,6.208,4.906
	c-0.096,0.083-0.213,0.106-0.637,0.03C5.342,4.861,5.616,4.664,5.464,4.755C5.313,4.831,5.358,4.8,5.278,4.833
	C5.307,4.96,5.335,5.043,5.39,5.269c0.132-0.022,0.251-0.044,0.375-0.004c0.12,0.039,0.156,0.219,0.122,0.207
	C5.758,5.423,5.557,5.384,5.42,5.394c0,0,0,0,0,0c0.022,0.053-0.014,0.168-0.008,0.239c0.119-0.023,0.463-0.079,0.654,0.042
	c0.101,0.055,0.098,0.157,0.127,0.267c0.051,0.201-0.002,0.48-0.002,0.48S6.165,6.277,6.145,6.157
	C6.129,6.071,6.124,5.995,6.079,5.941C5.893,5.726,5.843,6.057,5.684,5.962C5.613,5.92,5.52,5.871,5.424,5.821
	C5.331,6.219,5.364,6.695,5.45,7.104c0.109,0.522,0.313,0.965,0.789,1.627c0,0,0.633,0.463,1.875-0.264
	c0.18-0.188,0.23,0.525-1.04,0.719c-0.019,0.029,0.249,0.725,0.315,0.967c0.141,0.515,0.25,0.828,0.391,1.328
	c0.672-0.969,1.562-2.271,1.688-2.5C9.311,8.56,8.946,7.567,9.042,7.347z M6.87,5.291C7,5.279,7.446,5.427,7.765,5.411L6.85,5.547
	C6.85,5.547,6.518,5.323,6.87,5.291z M6.858,7.028L6.79,7.05L6.708,7.119L6.676,7.18l-0.02-0.02L6.616,6.998L6.858,7.028z
	 M6.176,6.952l0.046-0.03l0.015,0.228l-0.065-0.05L6.176,6.952z M6.515,8.229c0,0-0.249-0.023-0.269-0.141
	c-0.004-0.024,0.093-0.02,0.093-0.02l0.134,0.013C6.545,8.092,6.652,8.12,6.652,8.12l0.001,0.074L6.515,8.229z M6.897,7.901
	c-0.09-0.002-0.202,0.043-0.202,0.043L6.594,7.968c0,0-0.146-0.021-0.191-0.008L6.262,7.938c0,0-0.047-0.06-0.1-0.084
	C6.04,7.796,5.82,7.791,5.82,7.791L5.778,7.715c0,0,0.035-0.018,0.066-0.023c0.1-0.021,0.166,0,0.277,0.005
	c0.143,0.007,0.062-0.08,0.256,0.01C6.44,7.736,6.424,7.666,6.539,7.716c0.114,0.048,0.429,0.072,0.429,0.072s0.347,0,0.273,0.05
	C7.151,7.9,7.035,7.906,6.897,7.901z M7.485,7.805C7.268,7.761,7.356,7.694,7.356,7.694c0.035-0.095,0.143-0.031,0.176-0.032
	L7.485,7.805z M7.919,5.937c-0.024,0.01-0.202,0.008-0.337,0.004c-0.074,0.063-0.146,0.12-0.238,0.13
	C7.251,6.083,7.176,6.002,7.122,5.97C7.097,5.956,7.061,5.944,7.026,5.941c-0.01,0.004-0.014,0-0.023,0.006
	C6.97,5.952,6.938,5.961,6.924,6.002C6.923,6.006,6.91,5.998,6.899,5.991c-0.001,0-0.002-0.001-0.002-0.001
	C6.874,5.977,6.85,5.959,6.85,5.959l0.004-0.004C6.796,5.898,6.766,5.782,6.776,5.722C6.84,5.7,6.928,5.712,7.02,5.737
	c0.221-0.008,0.313-0.066,0.529,0.01c0.033,0.011,0.063,0.038,0.092,0.065C7.69,5.804,7.765,5.804,7.915,5.837
	c0.205,0,0.352-0.068,0.352-0.068S7.958,5.921,7.919,5.937z M9.026,6.762C9.102,6.701,9.34,6.769,9.325,6.446
	c-0.008-0.136,0.004-0.2,0.05-0.23S9.542,6.24,9.542,6.24S9.494,6.443,9.417,6.691c-0.018,0.056-0.1,0.107-0.1,0.107L9.272,6.819
	c0,0-0.094-0.015-0.141,0.018C9.086,6.87,9.09,6.949,9.026,6.928C8.973,6.91,8.95,6.822,9.026,6.762z"/>
<path id="hair" fill-rule="evenodd" clip-rule="evenodd" fill="#F7DD7F" d="M10.633,3.978c-0.141-0.653-0.248-0.79-0.444-1.072
	C9.806,2.354,9.49,2.112,9.178,1.911C8.901,1.731,8.339,1.462,7.54,1.543c0,0-0.298,0.019-0.582,0.092
	C6.614,1.724,6.262,1.875,6.147,1.957c-0.156,0.108-0.332,0.218-0.49,0.383c-0.2,0.207-0.373,0.466-0.43,0.536
	C5.154,2.955,4.86,3.457,4.661,3.733C4.459,4.012,4.288,4.126,4.299,4.14c0.045,0.048,0.182,0.011,0.385,0.012
	C4.596,4.256,4.618,4.279,4.447,4.437C4.967,4.468,5.135,4.514,5.66,4.323c0.343-0.215,0.417,0.03,0.033,0.388
	C6.262,4.823,6.486,4.318,6.57,4.401c0.042,0.042,0.261,0.153-0.103,0.373c0.464,0.186,1.979-0.33,2.12-0.377
	s0.299-0.046,0.266,0.359C8.831,5.03,8.768,5.38,8.784,5.472C8.84,5.813,8.853,5.928,8.853,5.928c0.234-0.266,0.643-0.235,0.75-0.25
	c0.359,0.016,0.43,0.203,0.479,0.443c0,0.229-0.103,0.402-0.122,0.459C9.924,6.688,9.944,6.688,9.944,6.688s0.488-0.403,0.627-1.057
	C10.711,4.979,10.771,4.631,10.633,3.978z M10.442,4.876c-0.02,0.092-0.021-0.215-0.065-0.563c-0.042-0.324-0.251-0.888-0.14-0.716
	C10.448,3.923,10.555,4.371,10.442,4.876z"/>
</svg>
