<?xml version="1.0" encoding="utf-8"?>
<!-- Generator: Adobe Illustrator 16.0.4, SVG Export Plug-In . SVG Version: 6.00 Build 0)  -->
<!DOCTYPE svg PUBLIC "-//W3C//DTD SVG 1.1//EN" "http://www.w3.org/Graphics/SVG/1.1/DTD/svg11.dtd" [
	<!ENTITY ns_flows "http://ns.adobe.com/Flows/1.0/">
	<!ENTITY ns_extend "http://ns.adobe.com/Extensibility/1.0/">
	<!ENTITY ns_ai "http://ns.adobe.com/AdobeIllustrator/10.0/">
	<!ENTITY ns_graphs "http://ns.adobe.com/Graphs/1.0/">
]>
<svg version="1.1" id="Ebene_1" xmlns:x="&ns_extend;" xmlns:i="&ns_ai;" xmlns:graph="&ns_graphs;"
	 xmlns="http://www.w3.org/2000/svg" xmlns:xlink="http://www.w3.org/1999/xlink" xmlns:a="http://ns.adobe.com/AdobeSVGViewerExtensions/3.0/"
	 x="0px" y="0px" width="36px" height="50px" viewBox="0 0 36 50" style="enable-background:new 0 0 36 50;" xml:space="preserve">
<style type="text/css">
<![CDATA[
	.st0{fill:#1A1A18;}
	.st1{fill-rule:evenodd;clip-rule:evenodd;fill:#1A1A18;}
	.st2{fill:#FBCDAA;}
	.st3{fill:#FFFFFF;}
	.st4{fill-rule:evenodd;clip-rule:evenodd;fill:#FBCDAA;}
	.st5{fill:#0068B4;}
	.st6{fill-rule:evenodd;clip-rule:evenodd;fill:#FFFFFF;}
	.st7{fill-rule:evenodd;clip-rule:evenodd;fill:#0068B4;}
]]>
</style>
<path class="st0" d="M35.51,17.92c-0.12-0.19-0.8-0.45-1.04-0.51s-0.96-0.05-1.31-0.02s-1.76,0.35-1.76,0.35l-0.93-0.1l-2.22-0.34
	l-2.19-0.42l-0.45-0.58l0.21-0.27l-0.66-1.2c0,0-0.49-0.98-0.63-1.29s-0.91-1.8-0.91-1.8s-0.41-0.78-0.59-1.05s-0.33-0.45-0.55-0.67
	s-0.41-0.31-0.58-0.45c-0.15-0.13-0.33-0.26-0.33-0.26l-0.07-0.18c0,0,0.26-0.08,0.36-0.14s0.11-0.17,0.11-0.17s0.06-0.08,0.12-0.25
	s0.16-0.69,0.16-0.69l0.12-0.39l0.2-0.39c0,0,0.31-0.06,0.36-0.08S23.08,7,23.12,6.91s0.12-0.22,0.15-0.33s-0.08-0.77-0.08-0.77
	l-0.06-0.33V5.17l0.06-0.22c0,0,0.12-0.13,0.2-0.38s-0.07-1.63-0.07-1.63l0.28-0.4l-0.02-0.62l-0.08-0.29l-0.19,0.1l-0.1-0.23
	l-0.26-0.1l-0.16-0.55l-0.44-0.29l-0.58-0.06l-0.33-0.08l-0.46-0.29L20.04,0.3l-1.1-0.1l-0.1,0.12l-1.1,0.35l-0.25,0.4l-0.46,0.04
	L16.5,2.07l-0.67,1.52l0.19,0.15l0.15,0.42l-0.15,0.52l0.19,0.54l0.18,0.31l0.15,0.47l0.43,0.75l0.24,0.2l0.25,0.4l-0.14,0.86
	l-0.55,0.23c0,0-0.48,0.07-0.73,0.13s-1.78,0.63-2.04,0.68s-1.11,0.25-1.31,0.29s-0.62,0.1-0.93,0.19s-1.32,0.4-1.32,0.4l-0.12,0.23
	l-0.91,0.35c0,0-0.74,0.45-0.94,0.56s-0.64,0.39-0.8,0.63s-0.34,0.66-0.4,1.03S7.1,14.49,7.1,14.49L6.84,16.8l-0.29,2.44
	c0,0-0.45,0.14-0.57,0.19s-0.17,0.1-0.3,0.2s-0.64,0.67-0.64,0.67l-0.18,0.15c0,0-0.33-0.26-0.45-0.32s-0.29-0.15-0.38-0.09
	s-0.15,0.34-0.15,0.34s-0.11,0.26-0.09,0.4s0.41,0.62,0.46,0.71c0.05,0.09,0.19,0.12,0.3,0.21s1.13,0.5,1.25,0.5
	c0.12,0,0.25-0.12,0.32-0.09c0.12,0.05,0.24,0.15,0.34,0.12c0.17-0.05,0.25-0.18,0.41-0.3c0.15-0.11,0.29-0.24,0.49-0.45
	c0.2-0.21,0.58-0.68,0.71-1.01s0.54-2.09,0.54-2.09l0.58-2.41l0.57-1.93l0.82-0.1l0.47-0.04l0.33,0.79l0.6-0.14l0.88-0.13l0.49-0.02
	c0,0,0,2.05,0,2.64s-0.14,2.87-0.17,3.23s-0.26,1.33-0.25,1.58s0.23,0.62,0.23,0.62s-0.12,0.16-0.18,0.3
	c-0.06,0.14-0.1,0.46-0.1,0.57s0.02,0.3,0.02,0.3l-0.12,0.21c0,0-0.11,0.14-0.2,0.26c-0.1,0.12-0.28,0.46-0.36,0.73
	s-0.12,0.88-0.11,1.12s0.07,0.89,0.16,1.24c0.09,0.35,0.35,0.89,0.44,1.12s0.14,0.47,0.14,0.47s-0.08,0.88-0.16,1.16
	s-0.31,0.88-0.38,1.06S12,31.77,11.9,31.96c-0.09,0.19-0.38,0.89-0.49,1.11s-0.48,0.98-0.48,0.98l-0.05,0.21l0.7,0.48l-0.46,0.75
	l-0.1,0.12l-0.48,0.23c0,0-0.26-0.01-0.45,0.03S9.75,36,9.6,36.04s-0.23,0.05-0.35,0.16C9.12,36.31,9,36.68,8.87,36.75
	s-0.33-0.05-0.47,0.02s-1.1,0.7-1.1,0.7l-1.66,1.27l-1.59,1.1c0,0-0.52,0.14-0.7,0.12s-0.26-0.11-0.61-0.08
	c-0.35,0.03-1.16,0.19-1.37,0.28S1,40.51,0.87,40.64c-0.14,0.13-0.31,0.16-0.34,0.3S0.5,41.36,0.5,41.36l0.07,0.41
	c0,0-0.22,0.1-0.24,0.17s0.09,0.38,0.16,0.42s0.31,0.03,0.31,0.03l0.41,0.92l0.16,2.36l-0.02,0.54c0,0-0.19,0.04-0.2,0.13
	s-0.01,0.28,0.03,0.34s0.33,0.12,0.33,0.12l0.09,0.27c0,0-0.13,0.3-0.06,0.36s0.12,0.23,0.19,0.26s0.25-0.05,0.25-0.05l0.3,0.17
	l0.26,0.33c0,0,0.18,0.11,0.28,0.11s0.27-0.07,0.27-0.07s0.16,0.02,0.36,0.07c0.27,0.06,0.24-0.04,0.31-0.06
	c0.19-0.06,0.27-0.53,0.27-0.72s-0.04-1.02,0.02-1.27c0.07-0.29,0.7-2.97,0.79-3.04s0.51-0.11,0.54-0.15s-0.14-0.47-0.14-0.47
	l1.04-0.6l2.34-1.09c0,0,1.25-0.5,1.41-0.55s0.3-0.23,0.42-0.25c0.07-0.01,0.35-0.03,0.61-0.14c0.16-0.07,0.45-0.34,0.52-0.44
	s0.2-0.31,0.2-0.31l1.02-0.34c0,0,0.76-0.3,1.08-0.45s0.62-0.34,0.77-0.43s0.3-0.23,0.45-0.33s0.49-0.49,0.49-0.49l0.22,0.15
	l0.24,0.08l0.55-0.77l0.56-0.8l0.59-0.89l0.42-0.68l0.38-0.61l0.23-0.49l0.62,0.46l0.6,0.41l1.48,1.12c0,0,0.79,0.6,0.96,0.61
	s0.45-0.22,0.45-0.22l0.58-0.97l0.06-0.1l0.61,0.42l0.18,0.28l0.2,1.02c0,0-0.17,0.19-0.22,0.36s-0.08,0.56-0.07,0.75
	s0.03,0.48,0.08,0.58c0.05,0.09,0.15,0.13,0.18,0.18s0.06,0.09,0.05,0.14s-0.12,0.08-0.16,0.21c-0.04,0.14-0.03,0.29-0.03,0.29
	s0.07,0.66,0.13,0.96c0.06,0.3,0.51,2.09,0.6,2.49s0.6,2.67,0.65,2.85c0.05,0.18,0.05,0.48,0.05,0.59s-0.12,0.11-0.13,0.21
	c-0.02,0.11,0.14,0.62,0.13,0.75s-0.3,1.25-0.3,1.58s0.03,0.77,0.16,0.84s0.61,0.09,0.61,0.09s-0.03,0.28,0.03,0.36
	s0.42,0.08,0.48,0.03s0.12-0.31,0.12-0.31l0.36,0.05c0,0,0.02,0.25,0.08,0.3s0.27,0.05,0.36,0.03s0.17-0.27,0.17-0.27l0.33-0.03
	l3.09,0.37c0,0,0.02,0.22,0.1,0.27s0.41,0.05,0.48-0.02s0.08-0.31,0.08-0.31l0.22-0.02c0,0,0.28-0.05,0.44-0.08s0.39-0.14,0.52-0.19
	s0.27-0.12,0.34-0.2s0.16-0.23,0.15-0.41s-0.07-0.52-0.18-0.66s-0.31-0.3-0.58-0.44s-2.08-0.86-2.3-1.02s-0.58-0.39-0.74-0.51
	s-0.66-0.38-0.73-0.45s-0.05-0.36-0.13-0.45c-0.08-0.09-0.25-0.14-0.29-0.2s-0.12-1.76-0.12-1.76l-0.2-2.61c0,0-0.06-1.24-0.11-1.46
	s-0.23-0.62-0.23-0.62s0.2-0.12,0.27-0.23s0.12-0.19,0.13-0.33s-0.03-1.09-0.06-1.25s-0.18-0.27-0.23-0.39s-0.16-0.23-0.16-0.23
	l0.1-0.86l0.11-0.83l0.06-0.84l-0.25-1l-0.41-0.65l-0.71-0.86L26.3,30.3l0.12-0.27l-0.05-0.28l-0.8-0.8l-4.27-3.53l-0.6-0.58
	c0,0-0.09-0.43-0.08-0.58c0.01-0.14,0.06-0.2,0.08-0.3c0.01-0.1-0.04-0.24-0.04-0.24s-0.06-0.11-0.02-0.23s0.25-1.01,0.25-1.01
	s0.36-1.62,0.46-2.15s0.4-1.81,0.4-1.81s0.08-0.17,0.25-0.28s0.3-0.22,0.39-0.2s0.3,0.33,0.62,0.68s0.74,0.62,1.12,0.77
	s0.69,0.19,1.49,0.22s5.73-0.11,5.73-0.11l0.22,0.06c0,0,0.81,0.3,0.95,0.33s0.33,0.02,0.53,0s1.28-0.14,1.28-0.14s0.11,0,0.22-0.06
	s0.16-0.34,0.26-0.36s0.3,0.03,0.42,0.05s0.39-0.26,0.39-0.26s0.07-0.45,0.05-0.58s-0.03-0.39-0.03-0.39S35.64,18.11,35.51,17.92z"
	/>
<polygon id="skin-leg-r" class="st2" points="23.91,33.55 23.65,34.01 24.5,34.62 24.65,34.89 24.94,36.11 26.24,36.2 27.13,36.13 
	27.4,35.98 27.54,35.23 27.1,35.15 26.76,34.47 27.11,34.23 27.21,34.56 27.5,34.61 27.65,34.64 27.78,33.71 27.68,33.11 
	27.56,32.63 27.1,31.98 25.95,30.66 25.33,31.56 24.32,33.15 23.62,33.1 "/>
<path id="player-sock-r" class="st5" d="M24.84,37.75c0.15,0.14,0.22,0.09,0.34,0.16s0.23,0.23,0.24,0.35s-0.02,0.18-0.17,0.23
	c-0.15,0.05-0.44-0.07-0.47,0.06s-0.01,0.57,0.11,1.04s0.41,1.69,0.41,1.69l0.63,2.84l0.28,1.22l0.06,0.39l0.3,0.06l0.33,0.46
	l0.77-0.01l0.13-0.97l0.42-0.56c0,0,0.01-1.11-0.03-1.44c-0.05-0.33-0.37-3.73-0.35-3.84c0.02-0.1-0.07-0.19-0.09-0.32
	s-0.17-0.44-0.21-0.5s-0.09-0.06-0.23-0.12c-0.09-0.04-0.07-0.2-0.04-0.28c0.03-0.08,0.09-0.03,0.2-0.07s0.3-0.11,0.39-0.23
	c0.09-0.11,0.03-0.47,0.05-0.56s-0.02-0.27-0.04-0.43c-0.02-0.16-0.12-0.36-0.24-0.37c-0.12-0.01-1.18,0.12-1.18,0.12l-1.49-0.09
	c0,0-0.14,0.03-0.18,0.2s-0.1,0.35-0.07,0.49S24.69,37.61,24.84,37.75z"/>
<polygon class="st3" points="28.94,48.47 29.26,48.38 29.37,47.78 29.08,47.72 28.79,48.44 28.94,48.47 "/>
<path id="skin-arm-r" class="st4" d="M5.66,21.71c0,0,0.06,0.04,0.17,0.06s0.24-0.08,0.3-0.06c0.06,0.01,0.15,0.07,0.22,0.1
	s0.14-0.11,0.14-0.11s0.43-0.32,0.56-0.44s0.52-0.73,0.59-0.86s0.28-0.78,0.28-0.78l0.66-2.86l0.76-3.06c0,0,0.46-0.08,0.82-0.12
	s0.77-0.05,0.77-0.05l-0.17-0.48l-0.22-0.76l-0.13-1.04l-0.01-0.42L9.62,11.1c0,0-0.71,0.36-0.9,0.47s-0.5,0.34-0.63,0.5
	s-0.32,0.69-0.38,0.94s-0.77,5.69-0.77,5.69l-0.08,0.67l-0.04,0.14c0,0-0.72,0.2-0.89,0.32s-0.95,1.01-0.95,1.01l-0.22-0.02
	c0,0-0.31-0.3-0.39-0.35c-0.08-0.05-0.18-0.08-0.18-0.08s-0.07,0.11-0.05,0.19s0.29,0.58,0.46,0.69s0.77,0.33,0.77,0.33L5.66,21.71z
	"/>
<path id="player-jersey" class="st7" d="M11.59,14.17l1.71-0.26l1.41-0.14c0,0,0.7-0.08,0.91-0.14S16,13.1,16.16,13.1
	s0.18-0.03,0.25,0c0.08,0.04,0.19,0.27,0.09,0.3s-0.17,0.07-0.23,0.1s-0.15,0.12-0.18,0.25s-0.06,0.21-0.04,0.35s0.3,0.65,0.28,0.8
	s-0.22,0-0.33-0.08s-0.22-0.41-0.35-0.48s-0.37-0.22-0.58-0.19s-0.36,0.29-0.55,0.28s-0.21-0.14-0.39-0.14
	c-0.12,0-0.31,0.13-0.31,0.13l-0.07,0.65l0,2.86c0,0-0.09,2.34-0.16,2.65s-0.22,1.11-0.17,1.27s0.03,0.22,0.2,0.38
	s0.89,0.36,0.89,0.36l0.87,0.26c0,0,0.04-0.47,0.12-0.67s0.33-0.25,0.33-0.25s0.09,0.16,0.14,0.43s-0.03,0.64-0.03,0.64
	s0.39,0.1,0.62,0.12s0.43,0,0.7,0.03s0.66,0.08,0.99,0.14s0.62,0.08,0.91,0.11s0.67,0.01,0.82-0.03s0.25-0.31,0.33-0.54
	s0.22-0.96,0.28-1.26s0.32-1.54,0.37-1.7s0.09-0.32,0.16-0.58s0.3-1.71,0.3-1.71l0.05-1.6l0.27,0.19l0.08,0.96l0.01-0.02l0.09,0.63
	l1.64-0.74l0.7-0.34l0.96-0.77l-0.97-1.81l-1.06-2.06l-0.69-1.22l-0.45-0.54L21.6,9.87l-0.41-0.21L20.91,9.6l-0.18,0.87l-0.29,1.02
	l-0.22,0.74l-0.53-0.54l-1-1.35c0,0-1.2-1.55-1.32-1.54s-0.3,0.08-0.46,0.09s-0.49,0-0.81,0.09s-1.62,0.6-2.01,0.7
	s-1.76,0.35-2.06,0.44s-1.22,0.42-1.22,0.42l0.11,1.53l0.35,1.15L11.59,14.17z"/>
<path id="skin-face" class="st2" d="M23,3.53l-0.06-0.25l-0.65-0.06l-0.46,0.04l-0.54,0.21l-0.32,0.02L20.81,3.6l-0.68,0.64
	c0,0-1.04,0.87-1.13,0.87s-0.31-0.48-0.41-0.45c-0.1,0.02-0.21,0.29-0.21,0.41s0.03,0.42-0.06,0.44s-0.15-0.02-0.15-0.02
	s-0.33-0.8-0.35-0.64s0.31,0.93,0.31,0.93l0.25,0.21l-0.18,0.16L18.2,6.29l-0.02,0.37l-0.13,0.74l-0.23,1.16l1.2,1.36L20,11.2
	l0.2-0.74l0.27-1.25l0.08-0.28l0.28-0.05c0,0-1.05-0.83-1.25-1.01c-0.2-0.18-0.36-0.61-0.33-0.5s-0.09-0.09,0.02-0.15
	s0.44,0.06,0.44,0.06s-0.09,0.18,0.06,0.32c0.14,0.13,1.03,0.76,1.16,0.83c0.13,0.07,0.45,0.15,0.53,0.13
	c0.08-0.01,0.09-0.01,0.21-0.08c0.11-0.07,0.16-0.46,0.16-0.46l0.04-0.29l-0.08-0.09l-0.12-0.17l0.06-0.11l0.2-0.07
	c0,0,0.15-0.19,0.17-0.26c0.02-0.07-0.32-0.17-0.4-0.22c-0.07-0.04-0.04-0.11,0.02-0.15s0.32-0.16,0.43-0.18
	c0.11-0.02,0.42,0.08,0.42,0.08s0.18,0.01,0.23-0.03c0.05-0.04,0.05-0.2,0.05-0.2l-0.14-1.21l0.03-0.26l-0.28-0.08l-0.12,0.15
	c0,0-0.07,0.31-0.17,0.32c-0.11,0-0.31-0.02-0.42-0.09s-0.09-0.35,0.01-0.48c0.07-0.09-0.25-0.17-0.25-0.17l-0.3,0.05L21.12,4.5
	l0.22-0.1l0.52-0.02l0.6,0.09l0.45,0.06l0.14-0.2L23,3.53z"/>
<path id="skin-arm-l" class="st4" d="M34.99,18.66l-0.67-0.39l0.15,0.01l0.47,0.22l0.21-0.02c0,0,0.1-0.18,0.03-0.24
	s-0.61-0.45-0.83-0.47s-0.97-0.03-1.18,0s-1.45,0.35-1.45,0.35l-0.28,0.06l-1.05-0.12l-3.94-0.65l-0.38,0.05l-0.35,0.25l-0.33-0.05
	l0.06-0.19l0.24-0.29l-0.47-0.66l-0.76,0.54l-0.75,0.37l-0.82,0.37c0,0,0.31,0.52,0.52,0.72s0.55,0.39,0.84,0.53
	s0.53,0.22,1.03,0.25s3.83-0.02,3.83-0.02l1.72-0.05l0.88,0.02c0,0,0.69,0.27,0.96,0.33s0.59-0.03,0.87-0.06s0.72-0.1,0.72-0.1
	l0.14-0.19c0,0-0.13-0.13-0.23-0.15s-0.45-0.05-0.62-0.06s-0.38-0.05-0.38-0.05s0.02-0.12,0.02-0.07s0.19-0.2,0.19-0.2l0.13-0.08
	l0.07-0.03l0.51,0.13l0.94,0.36c0,0,0.14,0.04,0.22-0.09s0-0.14,0-0.14L34.99,18.66z"/>
<path class="st1" d="M15.81,18.12c0.08,0.36,0.15,2.05,0.17,2.2s0.03,0.59,0.14,0.61s0.09-0.41,0.09-0.62s0.23-1.79,0.17-2.06
	s-0.73-1.79-0.78-1.88s-0.05-0.22-0.08-0.32s-0.19-0.44-0.27-0.41s-0.31,0.09-0.35,0.22s-0.08,0.53-0.02,0.75
	S15.81,18.12,15.81,18.12S15.74,17.76,15.81,18.12z"/>
<path id="player-shorts-r" class="st6" d="M15.19,29.79c0.02,0.08,0.55,0.53,0.55,0.53l0.69,0.46l0.28,0.15l1.96,1.4l2.24,1.7
	c0,0,1.4,1.05,1.5,1.08c0.12,0.03,0.14-0.05,0.14-0.05l0.83-1.57l-0.43-0.71l0.06-0.2l0.99,0.1l0.57-0.9l0.95-1.34l0.34-0.4l0-0.16
	l-1.49-1.31l-3.07-2.59l-1.02-0.74c0,0-0.74-0.4-0.85-0.46c-0.12-0.06,0.55-0.01,0.6-0.02c0.16-0.02,0.05-0.11-0.03-0.11
	c-0.08,0-0.72-0.14-0.88-0.18c-0.16-0.04-0.16-0.15,0.03-0.12s0.76-0.03,0.76-0.03l0.13-0.17l0-0.36l-0.64,0.04l-0.6-0.03
	l-1.34-0.18l-0.45-0.04c0,0-0.71-0.04-1.02-0.11s-0.99-0.29-1.42-0.43s-0.97-0.36-1.04-0.31s-0.07,0.06-0.13,0.23
	s-0.09,0.22-0.02,0.36s0.85,0.39,0.94,0.41s0.18,0.05,0.16,0.14c-0.01,0.09-0.17,0.29-0.29,0.27c-0.12-0.01-0.45-0.05-0.64-0.04
	c-0.2,0.01-0.4,0.05-0.4,0.05s-0.37,0.38-0.43,0.65s-0.16,0.73-0.13,1.01s0.1,1.02,0.21,1.35s0.37,0.99,0.59,1.27
	c0.22,0.29,0.4,0.48,0.65,0.64s1.56,0.12,1.76,0.18c0.2,0.06,0.45,0.24,0.46,0.35c0.01,0.11-0.8-0.01-0.89,0.02
	C15.29,29.69,15.17,29.71,15.19,29.79z"/>
<path id="skin-leg-l" class="st4" d="M12.69,38.41c0.26-0.07,0.7-0.27,0.92-0.39s0.83-0.44,1.03-0.56s0.54-0.54,0.54-0.54
	l-1.71-0.99l-1.49-0.94c0,0-0.48,0.89-0.58,0.95s-0.62,0.34-0.62,0.34s-0.07,0.39,0.01,0.68c0.08,0.28,0.38,1.08,0.5,1.28
	c0.11,0.2,0.39,0.47,0.39,0.47S12.43,38.48,12.69,38.41z"/>
<path id="player-shorts-l" class="st6" d="M13.31,29.21l-0.15,0.77c0,0-0.32,0.89-0.48,1.29s-0.56,1.33-0.72,1.7
	s-0.48,1.14-0.48,1.14l1.06,0.74l0.86,0.51l1.5,0.85l0.96,0.55l0.38-0.47l0.55-0.78l0.97-1.53l0.66-1.17l-1.05-0.83l-1.41-0.89
	l-0.94-0.59l-0.84-0.58L13.31,29.21z"/>
<path id="player-sock-l" class="st5" d="M4.49,42l0.07,0.35l2.89-1.48l1.86-0.83c0,0,0.44-0.13,0.57-0.2
	C10,39.77,10,39.61,9.99,39.51s-0.03-0.11,0.04-0.24c0.07-0.11,0.1-0.11,0.18-0.1c0.13,0.02,0.09,0.19,0.19,0.25
	s0.24,0.06,0.24,0.06l0.26-0.11c0,0,0.26-0.18,0.29-0.33s-0.26-0.31-0.36-0.58c-0.11-0.27-0.16-0.42-0.26-0.7
	c-0.1-0.27-0.27-0.7-0.28-0.87s0.02-0.41-0.01-0.48s-0.25-0.05-0.39-0.01c-0.14,0.04-0.25,0.07-0.35,0.18
	c-0.09,0.11-0.23,0.37-0.22,0.47c0.02,0.1,0.08,0.18,0.01,0.3C9.29,37.49,9.12,37.6,9,37.57c-0.12-0.02-0.42-0.32-0.53-0.27
	s-1.16,0.69-1.16,0.69l-2.06,1.59l-0.93,0.69l-0.69,0.25v0.61l0.4,0.19l0.3,0.42L4.49,42z"/>
<polygon class="st3" points="2.35,44.29 2.61,44.07 2.46,43.49 2.17,43.56 2.21,44.33 2.35,44.29 "/>
<path id="hair" class="st0" d="M17.47,6.6l0.13,0.2l0.07,0.02l0.09-0.51l-0.09-0.27l0.17-0.16l-0.25-0.57c0,0-0.16-0.54-0.12-0.74
	c0.03-0.2,0.42-0.18,0.66,0c0.03-0.03,0.25-0.41,0.38-0.41c0.25,0,0.41,0.44,0.52,0.44c0.11,0,1-0.8,1-0.8l0.73-0.66l0.42-0.05
	l0.5-0.2l0.44-0.06l0.48,0.03l0.33,0.05l0.39-0.46l-0.02-0.38l-0.14,0.06l-0.16-0.37l-0.34-0.12l-0.14-0.49l-0.4-0.26l-0.53-0.06
	l-0.3-0.07l-0.42-0.26l-0.83,0.15l-0.93-0.1l-0.09,0.11L17.93,1l-0.3,0.4l-0.42,0.04L16.79,2.2l-0.61,1.26l0.17,0.13l0.16,0.51
	l-0.13,0.46l0.18,0.48l0.16,0.28l0.14,0.42l0.39,0.67L17.47,6.6z"/>
</svg>
