<?xml version="1.0" encoding="utf-8"?>
<!-- Generator: Adobe Illustrator 16.0.4, SVG Export Plug-In . SVG Version: 6.00 Build 0)  -->
<!DOCTYPE svg PUBLIC "-//W3C//DTD SVG 1.1//EN" "http://www.w3.org/Graphics/SVG/1.1/DTD/svg11.dtd" [
	<!ENTITY ns_flows "http://ns.adobe.com/Flows/1.0/">
	<!ENTITY ns_extend "http://ns.adobe.com/Extensibility/1.0/">
	<!ENTITY ns_ai "http://ns.adobe.com/AdobeIllustrator/10.0/">
	<!ENTITY ns_graphs "http://ns.adobe.com/Graphs/1.0/">
]>
<svg version="1.1" id="Ebene_1" xmlns:x="&ns_extend;" xmlns:i="&ns_ai;" xmlns:graph="&ns_graphs;"
	 xmlns="http://www.w3.org/2000/svg" xmlns:xlink="http://www.w3.org/1999/xlink" xmlns:a="http://ns.adobe.com/AdobeSVGViewerExtensions/3.0/"
	 x="0px" y="0px" width="36px" height="50px" viewBox="0 0 36 50" style="enable-background:new 0 0 36 50;" xml:space="preserve">
<style type="text/css">
<![CDATA[
	.st0{fill:#1A1A18;}
	.st1{fill-rule:evenodd;clip-rule:evenodd;fill:#1A1A18;}
	.st2{fill:#FBCDAA;}
	.st3{fill:#FFFFFF;}
	.st4{fill-rule:evenodd;clip-rule:evenodd;fill:#FBCDAA;}
	.st5{fill:#0068B4;}
	.st6{fill-rule:evenodd;clip-rule:evenodd;fill:#FFFFFF;}
	.st7{fill-rule:evenodd;clip-rule:evenodd;fill:#0068B4;}
]]>
</style>
<path class="st0" d="M0.49,17.92c0.12-0.19,0.8-0.45,1.04-0.51s0.96-0.05,1.31-0.02s1.76,0.35,1.76,0.35l0.93-0.1l2.22-0.34
	l2.19-0.42l0.45-0.58l-0.21-0.27l0.66-1.2c0,0,0.49-0.98,0.63-1.29s0.91-1.8,0.91-1.8s0.41-0.78,0.59-1.05s0.33-0.45,0.55-0.67
	s0.41-0.31,0.58-0.45c0.15-0.13,0.33-0.26,0.33-0.26l0.07-0.18c0,0-0.26-0.08-0.36-0.14s-0.11-0.17-0.11-0.17s-0.06-0.08-0.12-0.25
	s-0.16-0.69-0.16-0.69l-0.12-0.39l-0.2-0.39c0,0-0.31-0.06-0.36-0.08S12.92,7,12.88,6.91s-0.12-0.22-0.15-0.33s0.08-0.77,0.08-0.77
	l0.06-0.33V5.17l-0.06-0.22c0,0-0.12-0.13-0.2-0.38s0.07-1.63,0.07-1.63l-0.28-0.4l0.02-0.62l0.08-0.29l0.19,0.1l0.1-0.23l0.26-0.1
	l0.16-0.55l0.44-0.29l0.58-0.06l0.33-0.08l0.46-0.29l0.92,0.17l1.1-0.1l0.1,0.12l1.1,0.35l0.25,0.4l0.46,0.04l0.52,0.96l0.67,1.52
	l-0.19,0.15l-0.15,0.42l0.15,0.52l-0.19,0.54L19.6,5.53l-0.15,0.47l-0.43,0.75l-0.24,0.2l-0.25,0.4l0.14,0.86l0.55,0.23
	c0,0,0.48,0.07,0.73,0.13s1.78,0.63,2.04,0.68s1.11,0.25,1.31,0.29s0.62,0.1,0.93,0.19s1.32,0.4,1.32,0.4l0.12,0.23l0.91,0.35
	c0,0,0.74,0.45,0.94,0.56s0.64,0.39,0.8,0.63s0.34,0.66,0.4,1.03s0.18,1.54,0.18,1.54l0.26,2.31l0.29,2.44c0,0,0.45,0.14,0.57,0.19
	s0.17,0.1,0.3,0.2s0.64,0.67,0.64,0.67l0.18,0.15c0,0,0.33-0.26,0.45-0.32s0.29-0.15,0.38-0.09s0.15,0.34,0.15,0.34
	s0.11,0.26,0.09,0.4s-0.41,0.62-0.46,0.71c-0.05,0.09-0.19,0.12-0.3,0.21s-1.13,0.5-1.25,0.5c-0.12,0-0.25-0.12-0.32-0.09
	c-0.12,0.05-0.24,0.15-0.34,0.12c-0.17-0.05-0.25-0.18-0.41-0.3c-0.15-0.11-0.29-0.24-0.49-0.45c-0.2-0.21-0.58-0.68-0.71-1.01
	s-0.54-2.09-0.54-2.09l-0.58-2.41l-0.57-1.93l-0.82-0.1l-0.47-0.04l-0.33,0.79l-0.6-0.14l-0.88-0.13l-0.49-0.02c0,0,0,2.05,0,2.64
	s0.14,2.87,0.17,3.23s0.26,1.33,0.25,1.58s-0.23,0.62-0.23,0.62s0.12,0.16,0.18,0.3c0.06,0.14,0.1,0.46,0.1,0.57s-0.02,0.3-0.02,0.3
	l0.12,0.21c0,0,0.11,0.14,0.2,0.26c0.1,0.12,0.28,0.46,0.36,0.73s0.12,0.88,0.11,1.12s-0.07,0.89-0.16,1.24
	c-0.09,0.35-0.35,0.89-0.44,1.12s-0.14,0.47-0.14,0.47s0.08,0.88,0.16,1.16s0.31,0.88,0.38,1.06s0.31,0.78,0.41,0.97
	c0.09,0.19,0.38,0.89,0.49,1.11s0.48,0.98,0.48,0.98l0.05,0.21l-0.7,0.48l0.46,0.75l0.1,0.12l0.48,0.23c0,0,0.26-0.01,0.45,0.03
	s0.35,0.14,0.5,0.18s0.23,0.05,0.35,0.16c0.12,0.12,0.25,0.48,0.37,0.55s0.33-0.05,0.47,0.02s1.1,0.7,1.1,0.7l1.66,1.27l1.59,1.1
	c0,0,0.52,0.14,0.7,0.12s0.26-0.11,0.61-0.08c0.35,0.03,1.16,0.19,1.37,0.28s0.36,0.33,0.5,0.46c0.14,0.13,0.31,0.16,0.34,0.3
	s0.03,0.42,0.03,0.42l-0.07,0.41c0,0,0.22,0.1,0.24,0.17s-0.09,0.38-0.16,0.42s-0.31,0.03-0.31,0.03l-0.41,0.92l-0.16,2.36
	l0.02,0.54c0,0,0.19,0.04,0.2,0.13s0.01,0.28-0.03,0.34s-0.33,0.12-0.33,0.12l-0.09,0.27c0,0,0.13,0.3,0.06,0.36
	s-0.12,0.23-0.19,0.26s-0.25-0.05-0.25-0.05l-0.3,0.17l-0.26,0.33c0,0-0.18,0.11-0.28,0.11s-0.27-0.07-0.27-0.07
	s-0.16,0.02-0.36,0.07c-0.27,0.06-0.24-0.04-0.31-0.06c-0.19-0.06-0.27-0.53-0.27-0.72s0.04-1.02-0.02-1.27
	c-0.07-0.29-0.7-2.97-0.79-3.04s-0.51-0.11-0.54-0.15s0.14-0.47,0.14-0.47l-1.04-0.6l-2.34-1.09c0,0-1.25-0.5-1.41-0.55
	s-0.3-0.23-0.42-0.25c-0.07-0.01-0.34-0.03-0.61-0.14c-0.16-0.07-0.45-0.34-0.52-0.44s-0.2-0.31-0.2-0.31l-1.02-0.34
	c0,0-0.76-0.3-1.08-0.45s-0.62-0.34-0.77-0.43s-0.3-0.23-0.45-0.33s-0.49-0.49-0.49-0.49l-0.22,0.15l-0.24,0.08l-0.55-0.77
	l-0.56-0.8l-0.59-0.89l-0.42-0.68l-0.38-0.61l-0.23-0.49l-0.62,0.46l-0.6,0.41l-1.48,1.12c0,0-0.79,0.6-0.96,0.61
	s-0.45-0.22-0.45-0.22l-0.58-0.97l-0.06-0.1l-0.61,0.42l-0.18,0.28l-0.2,1.02c0,0,0.17,0.19,0.22,0.36s0.08,0.56,0.07,0.75
	s-0.03,0.48-0.08,0.58c-0.05,0.09-0.15,0.13-0.18,0.18s-0.06,0.09-0.05,0.14s0.12,0.08,0.16,0.21c0.04,0.14,0.03,0.29,0.03,0.29
	s-0.07,0.66-0.13,0.96c-0.06,0.3-0.51,2.09-0.6,2.49s-0.6,2.67-0.65,2.85c-0.05,0.18-0.05,0.48-0.05,0.59s0.12,0.11,0.13,0.21
	c0.02,0.11-0.14,0.62-0.13,0.75s0.3,1.25,0.3,1.58s-0.03,0.77-0.16,0.84s-0.61,0.09-0.61,0.09s0.03,0.28-0.03,0.36
	s-0.42,0.08-0.48,0.03s-0.12-0.31-0.12-0.31l-0.36,0.05c0,0-0.02,0.25-0.08,0.3s-0.27,0.05-0.36,0.03s-0.17-0.27-0.17-0.27
	l-0.33-0.03l-3.09,0.37c0,0-0.02,0.22-0.1,0.27s-0.41,0.05-0.48-0.02S4.08,49.5,4.08,49.5l-0.22-0.02c0,0-0.28-0.05-0.44-0.08
	s-0.39-0.14-0.52-0.19s-0.27-0.12-0.34-0.2s-0.16-0.23-0.15-0.41s0.07-0.52,0.18-0.66s0.31-0.3,0.58-0.44s2.08-0.86,2.3-1.02
	S6.05,46.11,6.21,46s0.66-0.38,0.73-0.45s0.05-0.36,0.13-0.45c0.08-0.09,0.25-0.14,0.29-0.2s0.12-1.76,0.12-1.76l0.2-2.61
	c0,0,0.06-1.24,0.11-1.46s0.23-0.62,0.23-0.62s-0.2-0.12-0.27-0.23s-0.12-0.19-0.13-0.33s0.03-1.09,0.06-1.25s0.18-0.27,0.23-0.39
	s0.16-0.23,0.16-0.23l-0.1-0.86l-0.11-0.83l-0.06-0.84l0.25-1l0.41-0.65l0.71-0.86L9.7,30.3l-0.12-0.27l0.05-0.28l0.8-0.8l4.27-3.53
	l0.6-0.58c0,0,0.09-0.43,0.08-0.58c-0.01-0.14-0.06-0.2-0.08-0.3c-0.01-0.1,0.04-0.24,0.04-0.24s0.06-0.11,0.02-0.23
	s-0.25-1.01-0.25-1.01s-0.36-1.62-0.46-2.15s-0.4-1.81-0.4-1.81s-0.08-0.17-0.25-0.28s-0.3-0.22-0.39-0.2s-0.3,0.33-0.62,0.68
	s-0.74,0.62-1.12,0.77s-0.69,0.19-1.49,0.22s-5.73-0.11-5.73-0.11l-0.22,0.06c0,0-0.81,0.3-0.95,0.33s-0.33,0.02-0.53,0
	s-1.28-0.14-1.28-0.14s-0.11,0-0.22-0.06s-0.16-0.34-0.26-0.36s-0.3,0.03-0.42,0.05s-0.39-0.26-0.39-0.26s-0.07-0.45-0.05-0.58
	s0.03-0.39,0.03-0.39S0.36,18.11,0.49,17.92z"/>
<polygon id="skin-leg-l" class="st2" points="12.09,33.55 12.35,34.01 11.5,34.62 11.35,34.89 11.06,36.11 9.76,36.2 8.87,36.13 
	8.6,35.98 8.46,35.23 8.9,35.15 9.24,34.47 8.89,34.23 8.79,34.56 8.5,34.61 8.35,34.64 8.22,33.71 8.32,33.11 8.44,32.63 
	8.9,31.98 10.05,30.66 10.67,31.56 11.68,33.15 12.38,33.1 "/>
<path id="player-sock-l" class="st5" d="M11.16,37.75c-0.15,0.14-0.22,0.09-0.34,0.16s-0.23,0.23-0.24,0.35s0.02,0.18,0.17,0.23
	c0.15,0.05,0.44-0.07,0.47,0.06s0.01,0.57-0.11,1.04s-0.41,1.69-0.41,1.69l-0.63,2.84L9.8,45.34l-0.06,0.39l-0.3,0.06l-0.33,0.46
	l-0.77-0.01l-0.13-0.97l-0.42-0.56c0,0-0.01-1.11,0.03-1.44c0.05-0.33,0.37-3.73,0.35-3.84c-0.02-0.1,0.07-0.19,0.09-0.32
	s0.17-0.44,0.21-0.5s0.09-0.06,0.23-0.12c0.09-0.04,0.07-0.2,0.04-0.28c-0.03-0.08-0.09-0.03-0.2-0.07s-0.3-0.11-0.39-0.23
	c-0.09-0.11-0.03-0.47-0.05-0.56s0.02-0.27,0.04-0.43c0.02-0.16,0.12-0.36,0.24-0.37c0.12-0.01,1.18,0.12,1.18,0.12l1.49-0.09
	c0,0,0.14,0.03,0.18,0.2s0.1,0.35,0.07,0.49S11.31,37.61,11.16,37.75z"/>
<polygon class="st3" points="7.06,48.47 6.74,48.38 6.63,47.78 6.92,47.72 7.21,48.44 7.06,48.47 "/>
<path id="skin-arm-l" class="st4" d="M30.34,21.71c0,0-0.06,0.04-0.17,0.06s-0.24-0.08-0.3-0.06c-0.06,0.01-0.15,0.07-0.22,0.1
	s-0.14-0.11-0.14-0.11s-0.43-0.32-0.56-0.44s-0.52-0.73-0.59-0.86s-0.28-0.78-0.28-0.78l-0.66-2.86l-0.76-3.06
	c0,0-0.46-0.08-0.82-0.12s-0.77-0.05-0.77-0.05l0.17-0.48l0.22-0.76l0.13-1.04l0.01-0.42l0.78,0.29c0,0,0.71,0.36,0.9,0.47
	s0.5,0.34,0.63,0.5s0.32,0.69,0.38,0.94s0.77,5.69,0.77,5.69l0.08,0.67l0.04,0.14c0,0,0.72,0.2,0.89,0.32s0.95,1.01,0.95,1.01
	l0.22-0.02c0,0,0.31-0.3,0.39-0.35c0.08-0.05,0.18-0.08,0.18-0.08s0.07,0.11,0.05,0.19s-0.29,0.58-0.46,0.69s-0.77,0.33-0.77,0.33
	L30.34,21.71z"/>
<path id="player-jersey" class="st7" d="M24.41,14.17l-1.71-0.26l-1.41-0.14c0,0-0.7-0.08-0.91-0.14S20,13.1,19.84,13.1
	s-0.18-0.03-0.25,0c-0.08,0.04-0.19,0.27-0.09,0.3s0.17,0.07,0.23,0.1s0.15,0.12,0.18,0.25s0.06,0.21,0.04,0.35s-0.3,0.65-0.28,0.8
	s0.22,0,0.33-0.08s0.22-0.41,0.35-0.48s0.37-0.22,0.58-0.19s0.36,0.29,0.55,0.28s0.21-0.14,0.39-0.14c0.12,0,0.31,0.13,0.31,0.13
	l0.07,0.65l0,2.86c0,0,0.09,2.34,0.16,2.65s0.22,1.11,0.17,1.27s-0.03,0.22-0.2,0.38s-0.89,0.36-0.89,0.36l-0.87,0.26
	c0,0-0.04-0.47-0.12-0.67s-0.33-0.25-0.33-0.25s-0.09,0.16-0.14,0.43s0.03,0.64,0.03,0.64s-0.39,0.1-0.62,0.12s-0.43,0-0.7,0.03
	s-0.66,0.08-0.99,0.14s-0.62,0.08-0.91,0.11s-0.67,0.01-0.82-0.03s-0.25-0.31-0.33-0.54s-0.22-0.96-0.28-1.26s-0.32-1.54-0.37-1.7
	s-0.09-0.32-0.16-0.58s-0.3-1.71-0.3-1.71l-0.05-1.6l-0.27,0.19l-0.08,0.96l-0.01-0.02l-0.09,0.63l-1.64-0.74l-0.7-0.34l-0.96-0.77
	l0.97-1.81l1.06-2.06l0.69-1.22l0.45-0.54l0.48-0.35l0.41-0.21l0.28-0.06l0.18,0.87l0.29,1.02l0.22,0.74l0.53-0.54l1-1.35
	c0,0,1.2-1.55,1.32-1.54s0.3,0.08,0.46,0.09s0.49,0,0.81,0.09s1.62,0.6,2.01,0.7s1.76,0.35,2.06,0.44s1.22,0.42,1.22,0.42
	l-0.11,1.53l-0.35,1.15L24.41,14.17z"/>
<path id="skin-face" class="st2" d="M13,3.53l0.06-0.25l0.65-0.06l0.46,0.04l0.54,0.21l0.32,0.02l0.17,0.11l0.68,0.64
	c0,0,1.04,0.87,1.13,0.87s0.31-0.48,0.41-0.45c0.1,0.02,0.21,0.29,0.21,0.41s-0.03,0.42,0.06,0.44s0.15-0.02,0.15-0.02
	s0.33-0.8,0.35-0.64s-0.31,0.93-0.31,0.93L17.6,5.98l0.18,0.16l0.02,0.15l0.02,0.37l0.13,0.74l0.23,1.16l-1.2,1.36L16,11.2
	l-0.2-0.74L15.53,9.2l-0.08-0.28l-0.28-0.05c0,0,1.05-0.83,1.25-1.01c0.2-0.18,0.36-0.61,0.33-0.5s0.09-0.09-0.02-0.15
	s-0.44,0.06-0.44,0.06s0.09,0.18-0.06,0.32c-0.14,0.13-1.03,0.76-1.16,0.83c-0.13,0.07-0.45,0.15-0.53,0.13
	c-0.08-0.01-0.09-0.01-0.21-0.08c-0.11-0.07-0.16-0.46-0.16-0.46l-0.04-0.29l0.08-0.09l0.12-0.17l-0.06-0.11l-0.2-0.07
	c0,0-0.15-0.19-0.17-0.26c-0.02-0.07,0.32-0.17,0.4-0.22c0.07-0.04,0.04-0.11-0.02-0.15s-0.32-0.16-0.43-0.18
	c-0.11-0.02-0.42,0.08-0.42,0.08s-0.18,0.01-0.23-0.03c-0.05-0.04-0.05-0.2-0.05-0.2l0.14-1.21l-0.03-0.26l0.28-0.08l0.12,0.15
	c0,0,0.07,0.31,0.17,0.32c0.11,0,0.31-0.02,0.42-0.09s0.09-0.35-0.01-0.48c-0.07-0.09,0.25-0.17,0.25-0.17l0.3,0.05l0.09-0.06
	l-0.22-0.1l-0.52-0.02l-0.6,0.09L13.1,4.53l-0.14-0.2L13,3.53z"/>
<path id="skin-arm-r" class="st4" d="M1.01,18.66l0.67-0.39l-0.15,0.01L1.06,18.5l-0.21-0.02c0,0-0.1-0.18-0.03-0.24
	s0.61-0.45,0.83-0.47s0.97-0.03,1.18,0s1.45,0.35,1.45,0.35l0.28,0.06l1.05-0.12l3.94-0.65l0.38,0.05l0.35,0.25l0.33-0.05
	l-0.06-0.19l-0.24-0.29l0.47-0.66l0.76,0.54l0.75,0.37l0.82,0.37c0,0-0.31,0.52-0.52,0.72s-0.55,0.39-0.84,0.53
	s-0.53,0.22-1.03,0.25s-3.83-0.02-3.83-0.02l-1.72-0.05L4.3,19.25c0,0-0.69,0.27-0.96,0.33s-0.59-0.03-0.87-0.06s-0.72-0.1-0.72-0.1
	l-0.14-0.19c0,0,0.13-0.13,0.23-0.15s0.45-0.05,0.62-0.06s0.38-0.05,0.38-0.05s-0.02-0.12-0.02-0.07s-0.19-0.2-0.19-0.2L2.5,18.61
	l-0.07-0.03l-0.51,0.13l-0.94,0.36c0,0-0.14,0.04-0.22-0.09s0-0.14,0-0.14L1.01,18.66z"/>
<path class="st1" d="M20.19,18.12c-0.08,0.36-0.15,2.05-0.17,2.2s-0.03,0.59-0.14,0.61s-0.09-0.41-0.09-0.62s-0.23-1.79-0.17-2.06
	s0.73-1.79,0.78-1.88s0.05-0.22,0.08-0.32s0.19-0.44,0.27-0.41s0.31,0.09,0.35,0.22s0.08,0.53,0.02,0.75S20.19,18.12,20.19,18.12
	S20.26,17.76,20.19,18.12z"/>
<path id="player-shorts-l" class="st6" d="M20.81,29.79c-0.02,0.08-0.55,0.53-0.55,0.53l-0.69,0.46l-0.28,0.15l-1.96,1.4l-2.24,1.7
	c0,0-1.4,1.05-1.5,1.08c-0.12,0.03-0.14-0.05-0.14-0.05l-0.83-1.57l0.43-0.71l-0.06-0.2l-0.99,0.1l-0.57-0.9l-0.95-1.34l-0.34-0.4
	l0-0.16l1.49-1.31l3.07-2.59l1.02-0.74c0,0,0.74-0.4,0.85-0.46c0.12-0.06-0.55-0.01-0.6-0.02c-0.16-0.02-0.05-0.11,0.03-0.11
	c0.08,0,0.72-0.14,0.88-0.18c0.16-0.04,0.16-0.15-0.03-0.12s-0.76-0.03-0.76-0.03l-0.13-0.17l0-0.36l0.64,0.04l0.6-0.03l1.34-0.18
	l0.45-0.04c0,0,0.71-0.04,1.02-0.11s0.99-0.29,1.42-0.43s0.97-0.36,1.04-0.31s0.07,0.06,0.13,0.23s0.09,0.22,0.02,0.36
	s-0.85,0.39-0.94,0.41s-0.18,0.05-0.16,0.14c0.01,0.09,0.17,0.29,0.29,0.27c0.12-0.01,0.45-0.05,0.64-0.04
	c0.2,0.01,0.4,0.05,0.4,0.05s0.37,0.38,0.43,0.65s0.16,0.73,0.13,1.01s-0.1,1.02-0.21,1.35s-0.37,0.99-0.59,1.27
	c-0.22,0.29-0.4,0.48-0.65,0.64s-1.56,0.12-1.76,0.18c-0.2,0.06-0.45,0.24-0.46,0.35c-0.01,0.11,0.8-0.01,0.89,0.02
	C20.71,29.69,20.83,29.71,20.81,29.79z"/>
<path id="skin-leg-r" class="st4" d="M23.31,38.41c-0.26-0.07-0.7-0.27-0.92-0.39s-0.83-0.44-1.03-0.56s-0.54-0.54-0.54-0.54
	l1.71-0.99l1.49-0.94c0,0,0.48,0.89,0.58,0.95s0.62,0.34,0.62,0.34s0.07,0.39-0.01,0.68c-0.08,0.28-0.38,1.08-0.5,1.28
	c-0.11,0.2-0.39,0.47-0.39,0.47S23.57,38.48,23.31,38.41z"/>
<path id="player-shorts-r" class="st6" d="M22.69,29.21l0.15,0.77c0,0,0.32,0.89,0.48,1.29s0.56,1.33,0.72,1.7
	s0.48,1.14,0.48,1.14l-1.06,0.74l-0.86,0.51l-1.5,0.85l-0.96,0.55l-0.38-0.47l-0.55-0.78l-0.97-1.53l-0.66-1.17l1.05-0.83l1.41-0.89
	l0.94-0.59l0.84-0.58L22.69,29.21z"/>
<path id="player-sock-r" class="st5" d="M31.51,42l-0.07,0.35l-2.89-1.48l-1.86-0.83c0,0-0.44-0.13-0.57-0.2
	C26,39.77,26,39.61,26.01,39.51s0.03-0.11-0.04-0.24c-0.07-0.11-0.1-0.11-0.18-0.1c-0.13,0.02-0.09,0.19-0.19,0.25
	s-0.24,0.06-0.24,0.06l-0.26-0.11c0,0-0.26-0.18-0.29-0.33s0.26-0.31,0.36-0.58c0.11-0.27,0.16-0.42,0.26-0.7
	c0.1-0.27,0.27-0.7,0.28-0.87s-0.02-0.41,0.01-0.48s0.25-0.05,0.39-0.01c0.14,0.04,0.25,0.07,0.35,0.18
	c0.09,0.11,0.23,0.37,0.22,0.47c-0.02,0.1-0.08,0.18-0.01,0.3c0.06,0.12,0.23,0.23,0.36,0.21c0.12-0.02,0.42-0.32,0.53-0.27
	s1.16,0.69,1.16,0.69l2.06,1.59l0.93,0.69l0.69,0.25v0.61l-0.4,0.19l-0.3,0.42L31.51,42z"/>
<polygon class="st3" points="33.65,44.29 33.39,44.07 33.54,43.49 33.83,43.56 33.79,44.33 33.65,44.29 "/>
<path id="hair" class="st0" d="M18.53,6.6l-0.13,0.2l-0.07,0.02l-0.09-0.51l0.09-0.27l-0.17-0.16l0.25-0.57c0,0,0.16-0.54,0.12-0.74
	c-0.03-0.2-0.42-0.18-0.66,0c-0.03-0.03-0.25-0.41-0.38-0.41c-0.25,0-0.41,0.44-0.52,0.44c-0.11,0-1-0.8-1-0.8l-0.73-0.66
	l-0.42-0.05l-0.5-0.2L13.9,2.86l-0.48,0.03l-0.33,0.05L12.7,2.47l0.02-0.38l0.14,0.06l0.16-0.37l0.34-0.12l0.14-0.49l0.4-0.26
	l0.53-0.06l0.3-0.07l0.42-0.26l0.83,0.15l0.93-0.1l0.09,0.11L18.07,1l0.3,0.4l0.42,0.04l0.43,0.76l0.61,1.26l-0.17,0.13L19.49,4.1
	l0.13,0.46l-0.18,0.48l-0.16,0.28l-0.14,0.42l-0.39,0.67L18.53,6.6z"/>
</svg>
