<?xml version="1.0" encoding="utf-8"?>
<!-- Generator: Adobe Illustrator 16.0.4, SVG Export Plug-In . SVG Version: 6.00 Build 0)  -->
<!DOCTYPE svg PUBLIC "-//W3C//DTD SVG 1.1//EN" "http://www.w3.org/Graphics/SVG/1.1/DTD/svg11.dtd">
<svg version="1.1" id="Ebene_1" xmlns="http://www.w3.org/2000/svg" xmlns:xlink="http://www.w3.org/1999/xlink" x="0px" y="0px"
	 width="32.301px" height="47.45px" viewBox="0 0 32.301 47.45" enable-background="new 0 0 32.301 47.45" xml:space="preserve">
<path fill-rule="evenodd" clip-rule="evenodd" fill="#1A1A18" d="M31.529,17.454c-0.016-0.121-0.029-0.369-0.029-0.369
	s0-0.133-0.109-0.309c-0.109-0.178-0.705-0.422-0.914-0.477c-0.208-0.055-0.846-0.048-1.148-0.021
	c-0.306,0.026-1.438,0.391-1.594,0.391s-1.938-0.266-2.812-0.391s-1.797-0.25-1.875-0.312s-0.375-0.641-0.375-0.641
	s0.086-0.055,0.094-0.141s-0.04-0.16-0.109-0.328c-0.109-0.266-1.049-2.088-1.172-2.375s-0.578-1.219-0.734-1.531
	s-0.51-0.967-0.703-1.234c-0.203-0.281-0.562-0.609-0.938-0.828c-0.145-0.084-0.298-0.182-0.456-0.275
	c0.058-0.197,0.099-0.328,0.128-0.334c0.16-0.035,0.814,0.336,1.183,0c0.244-0.188,0.179-0.453,0.344-0.648
	c0.19-0.227,0.401-0.207,0.231-0.445c-0.01-0.016,0.078-0.031,0.166-0.126c0.134-0.112-0.01-0.291,0.045-0.534
	c0.137-0.05,0.213,0.004,0.414-0.148c0.125-0.064-0.104-0.736-0.104-0.736l-0.149-0.482l-0.028-0.095
	c0.092-0.033,0.193-0.077,0.193-0.077s-0.127-0.012-0.223-0.02L20.846,4.94c0,0,0.188-0.074,0.16-0.352
	c-0.028-0.277-0.082-0.494-0.082-0.494s0.398-0.049,0.639-0.203c0.197-0.129-0.175-0.305,0.04-0.346
	c0.228-0.045,0.1-0.312-0.08-0.423c-0.313-0.194-0.358-0.292-0.601-0.56c-0.346-0.381-0.432-0.502-0.547-0.627
	c-0.324-0.35-0.727-0.611-1.168-0.792c-0.398-0.167-1.299-0.332-2.216-0.223c-0.312,0.05-0.873,0.157-1.344,0.423
	c-0.097-0.029-0.23-0.055-0.381-0.064c-0.05-0.028-0.103-0.055-0.143-0.1c-0.24-0.26-0.441-0.351-0.672-0.462
	c-0.229-0.111-0.52-0.175-0.807-0.145c-0.389,0.041-0.703,0.151-0.941,0.394c-0.209,0.215-0.359,0.518-0.463,1.182
	c-0.088,0.562-0.211,1.658-0.375,2.619c-0.158,0.924-0.368,1.609-0.256,2.1C11.697,7.243,11.819,7.315,12,7.54
	c0.378,0.471,0.571,0.145,0.571,0.145c-0.002,0.111,0.34,0.191,0.414,0.15c0.125-0.071,0.127-0.221,0.055-0.418
	c0.191,0.259,0.32,0.273,0.32,0.273c0.113,0.031,0.455,0.112,0.286-0.212c0.266,0.217,0.338,0.05,0.364-0.222
	c-0.015-0.057,0.035-0.277,0.122-0.506c0.083-0.217,0.265-0.447,0.29-0.543c0.117,0.048,0.221,0.193,0.352,0.348
	c0.156,0.185,0.461,0.38,0.695,0.601c0.111,0.107,0.37,0.54,0.512,0.767c0.012,0.021,0.025,0.06,0.037,0.084
	c-0.191-0.022-0.387-0.041-0.533-0.041c-0.406,0-1.045,0.111-1.266,0.172s-1.035,0.342-1.666,0.499s-0.912,0.267-1.725,0.47
	c-0.65,0.162-1.31,0.289-1.396,0.363C9.344,9.544,9.327,9.685,9.327,9.685s-1.441,0.752-1.617,0.855s-0.519,0.348-0.662,0.566
	c-0.145,0.22-0.305,0.602-0.359,0.953s-0.184,1.485-0.184,1.485l-0.227,2.173L6.022,18.01c0,0-0.391,0.131-0.5,0.176
	s-0.148,0.09-0.259,0.186C5.153,18.465,4.698,19,4.698,19l-0.156,0.146c0,0-0.294-0.25-0.396-0.303
	c-0.102-0.057-0.255-0.145-0.329-0.086s-0.135,0.316-0.135,0.316s-0.095,0.242-0.078,0.375c0.016,0.133,0.357,0.584,0.405,0.668
	c0.048,0.082,0.171,0.113,0.26,0.193c0.09,0.08,0.993,0.469,1.096,0.473s0.216-0.109,0.28-0.084
	c0.109,0.045,0.212,0.145,0.301,0.117c0.151-0.043,0.223-0.174,0.356-0.279c0.132-0.102,0.255-0.225,0.429-0.42
	c0.174-0.197,0.508-0.639,0.621-0.947s0.47-1.969,0.47-1.969l0.505-2.271c0,0,0.232-1.071,0.377-1.559
	c0.036-0.121,0.078-0.266,0.309-0.314c0.213-0.045,0.848-0.123,0.848-0.123s0.201,0.588,0.242,0.7s0.129,0.192,0.273,0.175
	c0.265-0.033,1.236-0.188,1.236-0.188s0.342-0.078,0.389-0.031s-0.031,1.787-0.031,2.346s-0.126,2.697-0.15,3.042
	c-0.025,0.346-0.229,1.248-0.218,1.484s0.204,0.584,0.204,0.584s-0.108,0.15-0.157,0.283c-0.048,0.135-0.091,0.43-0.084,0.531
	c0.009,0.102,0.021,0.279,0.021,0.279l-0.104,0.193c0,0-0.095,0.133-0.18,0.24c-0.084,0.109-0.241,0.438-0.313,0.691
	c-0.072,0.256-0.102,0.83-0.1,1.051c0.002,0.219,0.064,0.836,0.142,1.168c0.078,0.331,0.304,0.84,0.382,1.057
	c0.08,0.215,0.121,0.438,0.121,0.438s-0.068,0.824-0.137,1.088c-0.049,0.184-0.25,0.746-0.33,0.998
	c-0.055,0.176-0.189,0.541-0.283,0.838c-0.059,0.186-0.328,0.828-0.484,1.188c-0.09,0.207-0.203,0.406-0.312,0.609
	s-0.238,0.348-0.158,0.439s0.61,0.453,0.61,0.453l-0.406,0.701l-0.089,0.111l-0.42,0.215c0,0-0.23-0.01-0.397,0.025
	c-0.167,0.037-0.306,0.135-0.435,0.174s-0.204,0.043-0.311,0.152c-0.106,0.107-0.215,0.447-0.325,0.52
	c-0.109,0.072-0.287-0.043-0.41,0.021c-0.124,0.066-0.965,0.662-0.965,0.662l-1.458,1.191l-1.396,1.035c0,0-0.456,0.133-0.611,0.117
	c-0.154-0.014-0.232-0.104-0.535-0.074c-0.305,0.031-1.012,0.18-1.199,0.268c-0.186,0.086-0.316,0.311-0.436,0.434
	c-0.12,0.123-0.271,0.154-0.299,0.285c-0.027,0.133-0.027,0.398-0.027,0.398l0.06,0.381c0,0-0.194,0.09-0.208,0.162
	c-0.016,0.072,0.081,0.354,0.135,0.396c0.055,0.043,0.275,0.029,0.275,0.029l0.355,0.867l0.137,2.221l-0.015,0.51
	c0,0-0.163,0.035-0.177,0.123c-0.014,0.086-0.012,0.266,0.027,0.322c0.04,0.059,0.287,0.119,0.287,0.119l0.083,0.248
	c0,0-0.11,0.281-0.056,0.34c0.055,0.057,0.109,0.221,0.164,0.248c0.055,0.029,0.221-0.043,0.221-0.043l0.266,0.16l0.227,0.311
	c0,0,0.16,0.104,0.245,0.102s0.236-0.064,0.236-0.064s0.138,0.02,0.312,0.064c0.232,0.059,0.208-0.035,0.273-0.059
	c0.164-0.059,0.232-0.498,0.232-0.676s-0.035-0.957,0.02-1.197c0.063-0.273,0.617-2.793,0.695-2.863
	c0.08-0.07,0.45-0.102,0.478-0.145c0.026-0.045-0.12-0.438-0.12-0.438l0.914-0.561l2.053-1.029c0,0,1.096-0.473,1.23-0.516
	c0.135-0.045,0.262-0.217,0.369-0.236c0.064-0.012,0.303-0.023,0.535-0.131c0.139-0.066,0.395-0.32,0.451-0.412
	c0.058-0.092,0.178-0.295,0.178-0.295l0.891-0.322c0,0,0.67-0.279,0.943-0.428c0.273-0.146,0.547-0.32,0.671-0.402
	c0.123-0.082,0.26-0.213,0.39-0.309c0.131-0.098,0.432-0.463,0.432-0.463s0.077,0.061,0.199,0.121
	c0.156,0.078,0.135,0.035,0.234,0.016s0.941-1.395,0.941-1.395l0.514-0.838l0.369-0.641l0.329-0.572l0.205-0.463l0.542,0.434
	l0.525,0.383l1.293,1.059c0,0,0.692,0.566,0.841,0.572c0.15,0.006,0.398-0.213,0.398-0.213l0.508-0.916l0.055-0.092l0.535,0.393
	l0.154,0.264l0.171,0.961c0,0-0.151,0.18-0.192,0.34c-0.04,0.16-0.067,0.531-0.061,0.705c0.006,0.176,0.023,0.453,0.07,0.543
	c0.045,0.088,0.133,0.121,0.158,0.172c0.024,0.049,0.05,0.08,0.043,0.131c-0.005,0.051-0.105,0.072-0.138,0.201
	c-0.032,0.127-0.027,0.275-0.027,0.275s0.063,0.617,0.111,0.904c0.049,0.287,0.446,1.965,0.528,2.346s0.523,2.508,0.569,2.68
	s0.041,0.455,0.046,0.553c0.006,0.098-0.104,0.1-0.117,0.203c-0.015,0.102,0.119,0.578,0.118,0.711
	c-0.001,0.131-0.259,1.176-0.26,1.484c-0.001,0.307,0.027,0.721,0.137,0.793c0.108,0.072,0.534,0.088,0.534,0.088
	s-0.027,0.266,0.027,0.338c0.053,0.074,0.369,0.076,0.424,0.029c0.054-0.045,0.109-0.293,0.109-0.293l0.314,0.045
	c0,0,0.016,0.234,0.068,0.279c0.055,0.043,0.234,0.045,0.315,0.029s0.15-0.252,0.15-0.252l0.288-0.027l2.706,0.352
	c0,0,0.019,0.207,0.085,0.25c0.068,0.043,0.356,0.045,0.424-0.016c0.068-0.059,0.069-0.293,0.069-0.293l0.191-0.014
	c0,0,0.248-0.045,0.384-0.074c0.137-0.031,0.343-0.131,0.451-0.176c0.109-0.045,0.234-0.117,0.302-0.191s0.138-0.219,0.13-0.381
	c-0.008-0.164-0.061-0.486-0.157-0.619s-0.272-0.277-0.507-0.412c-0.234-0.133-1.819-0.807-2.012-0.955
	c-0.193-0.148-0.506-0.367-0.65-0.479s-0.58-0.357-0.637-0.418c-0.056-0.061-0.043-0.338-0.117-0.428
	c-0.075-0.088-0.225-0.131-0.252-0.189c-0.028-0.061-0.102-1.652-0.102-1.652l-0.172-2.459c0,0-0.057-1.168-0.098-1.373
	c-0.041-0.207-0.205-0.59-0.205-0.59s0.178-0.117,0.24-0.213c0.062-0.096,0.103-0.174,0.116-0.311s-0.024-1.023-0.053-1.176
	c-0.03-0.152-0.158-0.252-0.204-0.363c-0.045-0.113-0.138-0.215-0.138-0.215l0.048-0.656c0,0,0.041-0.584,0.082-1.146
	c0.043-0.562,0.068-0.791,0.021-1.062c-0.047-0.27-0.127-0.457-0.127-0.457l-0.359-0.611l-0.625-0.805l-0.475-0.641l0.104-0.25
	l-0.042-0.266l-0.704-0.75l-3.741-3.325l-0.523-0.541c0,0-0.13-0.219-0.117-0.355s0.098-0.17,0.119-0.469
	c0.021-0.297-0.149-0.305-0.119-0.422c0.029-0.115,0.156-0.797,0.156-0.797s0.355-1.752,0.453-2.25
	c0.133-0.682,0.172-0.953,0.281-1.406c0.109-0.453,0.115-0.533,0.281-0.609c0.375-0.172,0.512-0.232,0.594-0.219
	c0.029,0.005,0.045,0.084,0.126,0.178c0.15,0.174,0.364,0.453,0.546,0.666c0.281,0.33,0.547,0.557,0.875,0.703
	s0.672,0.158,1.375,0.188c0.705,0.029,4.783-0.209,4.953-0.156c0.203,0.062,0.391,0.172,0.391,0.172s0.252,0.129,0.375,0.156
	c0.123,0.029,0.349,0.078,0.525,0.062c0.178-0.016,1.068-0.141,1.068-0.141s0.15,0.01,0.246-0.051
	c0.095-0.061,0.137-0.322,0.231-0.338c0.097-0.016,0.261,0.029,0.37,0.043s0.343-0.25,0.343-0.25S31.547,17.575,31.529,17.454z"/>
<path id="skin-face" fill="#F9CAA9" d="M16.469,8.356c0,0,0.289,0.449,0.609,0.984c0.188,0.312,0.672,1.016,0.672,1.016l0.709-2.252
	c0,0,0.068-0.201,0.192-0.193c0.42,0.033,0.858,0.391,1.169,0.055c0.127-0.139,0.125-0.432,0.233-0.583
	c0.099-0.14,0.178-0.067,0.205-0.136c0.054-0.131-0.111-0.166-0.111-0.166l-0.31-0.121l-0.013-0.082c0,0,0.087-0.115,0.229-0.021
	c0.141,0.096,0.502,0.147,0.414-0.047c-0.029-0.064,0.027-0.477,0.023-0.5c0.055,0.018,0.213-0.016,0.372-0.049
	c0.065-0.062-0.065-0.34-0.093-0.471c-0.027-0.133-0.221-0.582-0.221-0.582l-0.048-0.006l-0.015,0.177c0,0-0.148-0.019-0.22-0.062
	c-0.042-0.023-0.112-0.056-0.153-0.074c-0.059,0-0.118-0.004-0.159-0.015c-0.112-0.031-0.401-0.171-0.384-0.187
	c0.356,0.109,0.279,0.035,0.445,0.029c0.025,0.002,0.127-0.006,0.227-0.012c0.138-0.04,0.274-0.084,0.281-0.106
	c0.018-0.067,0.204-0.233,0.041-0.225c-0.135,0.009-0.683-0.127-0.446-0.078c0.237,0.048,0.538-0.116,0.538-0.116
	s-0.046-0.365-0.098-0.381c-0.294-0.08-0.2-0.077-0.409-0.168c-0.239-0.104,0.106,0.117-0.153,0.199
	c-0.361,0.096-0.626-0.034-0.566,0.027c0.17,0.145-0.062,0.184-0.104,0.193c-0.271,0.062-0.338,0.109-0.871-0.139
	c-0.038-0.018,0.144,0.482,0,0.955c-0.299,0.98-0.538,1.396-0.659,1.061c-0.152-0.422-0.235-0.509-0.521-0.695
	c-0.117-0.076-0.294-0.113-0.443-0.108c-0.289,0.008-0.396,0.411-0.271,0.661c0.158,0.315,0.561,0.371,0.621,0.408
	c0.026,0.018,0.019,0.065-0.053,0.092c-0.088,0.032-0.244,0.041-0.244,0.041l-0.133,0.668C16.754,7.349,16.481,8.423,16.469,8.356z
	 M17.333,6.249c-0.156,0.057-0.227,0.004-0.227,0.004L17.049,6.23c0,0-0.107-0.058-0.133-0.125
	c-0.113-0.297-0.113-0.223-0.114-0.303c0-0.079,0.083-0.131,0.167-0.103c0.084,0.029,0.045-0.065,0.047,0.1
	c0.001,0.287,0.263,0.359,0.408,0.377l0.113,0.009c0.045,0.063,0.082,0.146,0.011,0.165C17.455,6.31,17.351,6.241,17.333,6.249z"/>
<path id="hair-p" fill="#F7DD7F" d="M14.883,1.354c-0.078-0.093-0.375-0.289-0.637-0.403c-0.177-0.077-0.4-0.103-0.775-0.022
	c-0.764,0.163-0.783,0.564-1.051,2.205c-0.174,1.063-0.212,1.604-0.32,2.092c-0.148,0.672-0.432,1.603,0.228,2.177
	c-0.211-0.184,0.104-0.835,0.104-0.835c0,0.123-0.054,0.344,0.012,0.52c0.076,0.207,0.274,0.363,0.303,0.385
	c-0.167-0.309,0.132-0.971,0.132-0.971c0.067,0.285,0.15,0.603,0.497,0.84c-0.084-0.057-0.04-0.893-0.04-0.893
	c0.077,0.227,0.354,0.535,0.38,0.722c-0.09-0.67,0.468-0.63,0.457-1.417c-0.186-0.685-0.385-1.115-0.286-2.027
	c-0.13-0.266-0.09-0.96-0.063-1.221c0.041-0.399,0.219-0.723,0.42-0.875C14.526,1.413,14.883,1.354,14.883,1.354z"/>
<path id="hair" fill-rule="evenodd" clip-rule="evenodd" fill="#F7DD7F" d="M14.954,6.255C15.2,6.56,15.772,6.749,16.247,7.64
	c0.053,0.113,0.154-0.182,0.246-0.588c0.039-0.173,0.069-0.247,0.117-0.441c-0.342-0.248-0.364-0.513-0.398-0.735
	c-0.042-0.282,0.152-0.558,0.273-0.614c0.295-0.178,0.503-0.117,0.705-0.049c0.323,0.111,0.653,0.356,0.754,0.652
	c0.049,0.14,0.178-0.471,0.291-1.039c0.043-0.218-0.075-0.551-0.082-0.724c-0.012-0.207,0.145-0.3,0.274-0.223
	c0.08,0.063,0.37,0.32,0.749,0.177c-0.367-0.213-0.233-0.395-0.193-0.437c0.082-0.085,0.316,0.417,0.883,0.294
	c-0.391-0.351-0.32-0.598,0.025-0.389c0.617,0.26,0.752,0.396,1.357,0.189c-0.174-0.154-0.295-0.277-0.385-0.38
	c0.203-0.005,0.34,0.028,0.385-0.021c0.012-0.014-0.113-0.045-0.361-0.284c-0.135-0.13-0.244-0.272-0.383-0.443
	c-0.036-0.056-0.09-0.122-0.164-0.2c-0.104-0.123-0.265-0.289-0.385-0.398c-0.119-0.109-0.285-0.255-0.411-0.314
	c-0.297-0.141-0.642-0.34-1.255-0.428c-1.431-0.227-2.308,0.276-2.487,0.382c-0.259,0.152-0.856,0.589-1.137,1.036
	c-0.352,0.465-0.391,1.062-0.4,1.327C14.232,5.147,14.592,5.808,14.954,6.255z M14.99,3.318c0.136-0.268-0.023,0.544,0.028,0.978
	c0.056,0.467,0.178,0.861,0.104,0.75C14.715,4.443,14.733,3.822,14.99,3.318z"/>
<path fill="#FFFFFF" d="M15.417,1.589c0,0-0.097-0.088-0.485,0.035c-0.345,0.107-0.524,0.163-0.691,0.545
	c-0.139,0.313-0.164,1.035-0.164,1.035s0.273-0.676,0.572-1.012C15.071,1.716,15.417,1.589,15.417,1.589z"/>
<path id="skin-leg-r" fill="#F9CAA9" d="M21.225,31.478l-0.223,0.432l0.738,0.57l0.137,0.256l0.248,1.152l1.146,0.086l0.772-0.072
	l0.278-0.113l0.084-0.727c0,0-0.324-0.156-0.469-0.299s-0.235-0.314-0.211-0.414c0.023-0.102,0.216-0.244,0.307-0.229
	c0.092,0.018,0.022,0.234,0.08,0.307c0.059,0.07,0.23,0.242,0.309,0.211s0.082-0.135,0.082-0.135l0.049-0.693
	c0,0,0.023-0.445-0.02-0.744c-0.043-0.297-0.105-0.455-0.105-0.455l-0.403-0.611l-1.011-1.244l-0.543,0.854l-0.885,1.492
	l-0.617-0.043L21.225,31.478z"/>
<path id="player-sock-r" fill="#0068B4" d="M22.043,35.431c0.129,0.133,0.192,0.088,0.294,0.154c0.103,0.066,0.2,0.215,0.212,0.332
	c0.014,0.117-0.018,0.17-0.152,0.217c-0.136,0.047-0.385-0.066-0.41,0.057c-0.026,0.123-0.014,0.535,0.098,0.975
	c0.108,0.441,0.355,1.59,0.355,1.59l0.548,2.668l0.247,1.146l0.055,0.367l0.259,0.053l0.292,0.436l0.674-0.012l0.115-0.91L25,41.974
	c0,0,0.012-1.043-0.029-1.352c-0.041-0.311-0.319-3.514-0.303-3.609c0.016-0.096-0.058-0.176-0.083-0.305
	c-0.024-0.131-0.145-0.416-0.187-0.471c-0.043-0.057-0.082-0.059-0.199-0.111c-0.076-0.033-0.061-0.186-0.035-0.264
	c0.027-0.078,0.077-0.031,0.176-0.068c0.098-0.039,0.262-0.107,0.344-0.213s0.022-0.447,0.045-0.527
	c0.023-0.078-0.016-0.252-0.037-0.4s-0.104-0.34-0.213-0.348c-0.109-0.006-1.035,0.113-1.035,0.113l-1.305-0.082
	c0,0-0.123,0.025-0.158,0.186c-0.034,0.16-0.089,0.324-0.062,0.463C21.946,35.122,21.912,35.298,22.043,35.431z"/>
<path id="skin-arm-r" fill-rule="evenodd" clip-rule="evenodd" fill="#F9CAA9" d="M5.241,20.334c0,0,0.055,0.039,0.147,0.062
	s0.208-0.072,0.261-0.062c0.051,0.012,0.132,0.066,0.194,0.098c0.062,0.033,0.124-0.104,0.124-0.104s0.378-0.301,0.494-0.414
	c0.115-0.111,0.454-0.688,0.517-0.811c0.063-0.125,0.249-0.738,0.249-0.738l0.578-2.695L8.442,12.9c0,0,0.088-0.125,0.185-0.147
	c0.121-0.029,0.296-0.07,0.468-0.115c0.359-0.094,0.625-0.141,0.625-0.141s-0.124-0.571-0.203-1.035
	c-0.078-0.465-0.127-1.376-0.127-1.376s-0.904,0.411-1.248,0.583c-0.174,0.087-0.666,0.454-0.779,0.604
	c-0.115,0.15-0.238,0.467-0.283,0.693s-0.787,6.173-0.787,6.173l-0.035,0.135c0,0-0.626,0.191-0.775,0.303
	c-0.15,0.109-0.834,0.945-0.834,0.945l-0.196-0.023c0,0-0.272-0.285-0.339-0.328c-0.067-0.043-0.158-0.072-0.158-0.072
	s-0.059,0.1-0.046,0.182s0.259,0.545,0.402,0.652c0.145,0.105,0.675,0.307,0.675,0.307L5.241,20.334z"/>
<path id="player-shirt" fill-rule="evenodd" clip-rule="evenodd" fill="#0068B4" d="M10.438,13.341
	c0.047,0.062,0.102,0.039,0.188,0.031c0.27-0.025,0.891-0.156,1.531-0.297c0.723-0.158,1.619-0.283,1.811-0.336
	c0.191-0.051,0.297-0.359,0.408-0.445c0.141-0.109,0.222-0.092,0.289-0.062c0.074,0.033,0.055,0.171-0.039,0.265
	c-0.063,0.063-0.205,0.234-0.233,0.352c-0.028,0.118-0.056,0.193-0.034,0.332c0.02,0.139,0.267,0.611,0.245,0.75
	c-0.021,0.139-0.144,0.1-0.243,0.02c-0.1-0.079-0.234-0.339-0.344-0.406c-0.109-0.066-0.242-0.292-0.422-0.266
	s-0.719,0.125-0.953,0.172c-0.203,0.041-0.25,0.062-0.25,0.188s-0.053,3.142-0.053,3.142s-0.082,2.2-0.137,2.495
	c-0.055,0.293-0.189,1.041-0.15,1.191c0.039,0.148,0.023,0.205,0.178,0.352c0.154,0.148,0.783,0.336,0.783,0.336l0.766,0.244
	c0,0,0.06-0.137,0.129-0.322c0.07-0.184,0.086-0.475,0.266-0.543c0.172-0.066,0.078,0.152,0.123,0.402
	c0.045,0.252-0.021,0.605-0.021,0.605s0.34,0.098,0.543,0.115c0.201,0.02,0.373,0.002,0.61,0.031
	c0.237,0.027,0.575,0.074,0.865,0.131c0.29,0.059,0.546,0.076,0.796,0.104c0.249,0.027,0.59,0.01,0.719-0.031
	c0.129-0.043,0.154-0.207,0.209-0.424c0.109-0.438,0.272-1.221,0.328-1.5c0.094-0.469,0.156-0.875,0.375-1.938
	c0.104-0.502,0.25-1.093,0.312-1.515s-0.02-1.483,0.076-1.578c0.096-0.094,0.177,0.061,0.238,0.179
	c0.061,0.118,0.061,0.415,0.092,0.743s0,0.703,0,0.703s0.953-0.344,1.359-0.531s0.984-0.562,1.172-0.688s0.328-0.223,0.328-0.328
	c0-0.109-0.107-0.297-0.162-0.412c-0.344-0.719-1.287-2.606-1.479-3.025c-0.25-0.547-0.514-1.08-0.719-1.391
	s-0.426-0.574-0.781-0.859c-0.234-0.188-0.561-0.379-0.561-0.379s-0.205,0.551-0.345,1.051s-0.375,1.234-0.375,1.234
	s-0.666-0.922-1.078-1.609c-0.422-0.703-0.719-1.203-0.766-1.203c-0.104,0-0.377-0.113-0.922-0.062
	c-0.844,0.078-2.07,0.536-2.406,0.625C12.408,9.06,10.413,9.595,9.86,9.747C9.762,9.774,9.772,9.779,9.746,9.825
	c-0.026,0.047,0.056,0.672,0.146,1.359c0.062,0.469,0.156,0.969,0.281,1.391C10.238,12.796,10.395,13.284,10.438,13.341z"/>
<path id="skin-arm-l" fill-rule="evenodd" clip-rule="evenodd" fill="#F9CAA9" d="M30.934,17.469l-0.586-0.37l0.13,0.012
	l0.409,0.204l0.188-0.018c0,0,0.084-0.166,0.021-0.227c-0.061-0.061-0.535-0.419-0.729-0.446c-0.195-0.025-0.847-0.025-1.034-0.004
	c-0.187,0.021-1.272,0.33-1.272,0.33l-0.242,0.061L26.9,16.901l-3.166-0.436l-0.688-0.094c0,0-0.135,0.146-0.231,0.197
	c-0.097,0.053-0.24,0-0.294-0.044c-0.053-0.044,0.015-0.159,0.051-0.18c0.037-0.021,0.131-0.036,0.084-0.177
	s-0.344-0.594-0.344-0.594l-0.605,0.385l-0.66,0.352l-0.578,0.295c0,0,0.793,1.095,1.053,1.228c0.26,0.131,0.697,0.26,1.135,0.287
	c0.438,0.029,3.123-0.066,3.123-0.066l1.505-0.045l0.767,0.016c0,0,0.603,0.25,0.842,0.309c0.239,0.057,0.514-0.029,0.76-0.059
	c0.246-0.031,0.633-0.096,0.633-0.096l0.125-0.178c0,0-0.111-0.125-0.201-0.139c-0.092-0.016-0.391-0.049-0.542-0.062
	c-0.151-0.012-0.33-0.045-0.33-0.045s0.015-0.115,0.015-0.07c0,0.043,0.166-0.189,0.166-0.189l0.113-0.074l0.061-0.029l0.443,0.117
	l0.824,0.342c0,0,0.124,0.037,0.195-0.08c0.072-0.115,0-0.135,0-0.135L30.934,17.469z"/>
<path fill-rule="evenodd" clip-rule="evenodd" fill="#1A1A18" d="M14.172,18.809c0.018,0.137-0.018,0.75,0.078,0.766
	c0.095,0.016,0.218-0.178,0.219-0.375s0.219-1.867,0.166-2.124c-0.053-0.257-0.641-1.374-0.682-1.454
	c-0.042-0.079-0.042-0.21-0.068-0.299c-0.027-0.09-0.143-0.481-0.26-0.561c-0.057-0.039-0.154,0.082-0.188,0.203
	s0.01,0.503,0.062,0.703c0.053,0.199,0.438,0.688,0.594,1.281C14.25,17.543,14.155,18.672,14.172,18.809z"/>
<path id="player-shorts-r" fill-rule="evenodd" clip-rule="evenodd" fill="#FFFFFF" d="M13.59,27.942
	c0.021,0.078,0.484,0.502,0.484,0.502l0.604,0.438l0.24,0.145l1.718,1.318l1.958,1.604c0,0,1.227,0.99,1.314,1.014
	c0.108,0.029,0.123-0.043,0.123-0.043l0.729-1.477c0,0-0.315-0.578-0.373-0.668c-0.059-0.09-0.035-0.191,0.055-0.188
	s0.869,0.092,0.869,0.092l0.504-0.844l0.834-1.258l0.298-0.377l0.001-0.148l-1.307-1.232l-2.688-2.44l-0.892-0.699
	c0,0-0.646-0.375-0.748-0.436s0.479-0.008,0.525-0.014c0.139-0.018,0.043-0.105-0.025-0.105s-0.629-0.131-0.768-0.168
	c-0.135-0.037-0.143-0.141,0.025-0.119s0.67-0.031,0.67-0.031l0.112-0.158c0,0,0.022-0.262-0.056-0.293s-0.5-0.012-0.5-0.012
	l-0.528-0.027l-1.174-0.17l-0.392-0.033c0,0-0.617-0.039-0.895-0.105s-0.863-0.273-1.246-0.408s-0.846-0.342-0.915-0.291
	c-0.069,0.053-0.058,0.059-0.111,0.217s-0.083,0.211-0.021,0.338c0.062,0.129,0.747,0.373,0.822,0.383
	c0.074,0.012,0.155,0.049,0.143,0.133s-0.145,0.27-0.25,0.258S12.34,22.59,12.168,22.6c-0.172,0.012-0.354,0.051-0.354,0.051
	s-0.324,0.357-0.373,0.615c-0.047,0.256-0.144,0.688-0.117,0.953c0.028,0.264,0.09,0.961,0.184,1.273
	c0.094,0.311,0.326,0.928,0.516,1.2c0.191,0.271,0.349,0.451,0.57,0.604c0.224,0.152,1.367,0.113,1.541,0.17s0.395,0.225,0.4,0.332
	c0.007,0.105-0.701-0.008-0.779,0.02C13.68,27.845,13.569,27.864,13.59,27.942z"/>
<path id="skin-leg-l" fill-rule="evenodd" clip-rule="evenodd" fill="#F9CAA9" d="M11.399,36.052
	c0.229-0.062,0.611-0.252,0.803-0.369c0.191-0.119,0.726-0.412,0.903-0.529c0.178-0.119,0.472-0.508,0.472-0.508l-1.494-0.928
	l-1.305-0.887c0,0-0.422,0.834-0.506,0.895c-0.085,0.061-0.539,0.318-0.539,0.318s-0.061,0.369,0.007,0.637
	c0.067,0.266,0.337,1.014,0.435,1.205s0.338,0.445,0.338,0.445S11.173,36.114,11.399,36.052z"/>
<path id="player-shorts-l" fill-rule="evenodd" clip-rule="evenodd" fill="#FFFFFF" d="M11.943,27.39l-0.132,0.729
	c0,0-0.28,0.838-0.416,1.211c-0.139,0.375-0.494,1.25-0.631,1.604s-0.482,0.971-0.436,1.064s0.937,0.703,0.937,0.703l0.756,0.484
	l1.313,0.799l0.838,0.521l0.328-0.441l0.48-0.732l0.848-1.441l0.582-1.104l-0.924-0.777l-1.232-0.838l-0.822-0.561l-0.733-0.541
	L11.943,27.39z"/>
<path id="player-sock-l" fill="#0068B4" d="M4.215,39.431l0.062,0.332l2.529-1.395l1.625-0.785c0,0,0.386-0.123,0.497-0.189
	s0.119-0.219,0.107-0.311c-0.009-0.094-0.023-0.107,0.037-0.223c0.059-0.107,0.09-0.105,0.162-0.092
	c0.109,0.023,0.08,0.182,0.168,0.238s0.212,0.057,0.212,0.057l0.225-0.102c0,0,0.228-0.164,0.255-0.311
	c0.025-0.146-0.225-0.291-0.318-0.543c-0.093-0.25-0.135-0.396-0.223-0.654c-0.09-0.258-0.234-0.662-0.244-0.82
	s0.02-0.385-0.009-0.447c-0.028-0.064-0.214-0.045-0.341-0.01c-0.125,0.033-0.223,0.061-0.304,0.166
	c-0.081,0.104-0.204,0.348-0.19,0.438c0.014,0.092,0.066,0.174,0.013,0.287s-0.205,0.217-0.313,0.195
	c-0.11-0.023-0.368-0.301-0.465-0.258c-0.098,0.045-1.014,0.648-1.014,0.648L4.88,37.151l-0.817,0.654l-0.607,0.236v0.572
	l0.35,0.178l0.267,0.396L4.215,39.431z"/>
</svg>
